G04 #@! TF.GenerationSoftware,KiCad,Pcbnew,(5.1.0)-1*
G04 #@! TF.CreationDate,2019-06-21T14:41:16-03:00*
G04 #@! TF.ProjectId,PCB_B,5043425f-422e-46b6-9963-61645f706362,rev?*
G04 #@! TF.SameCoordinates,Original*
G04 #@! TF.FileFunction,Legend,Bot*
G04 #@! TF.FilePolarity,Positive*
%FSLAX46Y46*%
G04 Gerber Fmt 4.6, Leading zero omitted, Abs format (unit mm)*
G04 Created by KiCad (PCBNEW (5.1.0)-1) date 2019-06-21 14:41:16*
%MOMM*%
%LPD*%
G04 APERTURE LIST*
%ADD10C,0.175000*%
%ADD11C,0.250000*%
%ADD12C,0.010000*%
%ADD13C,0.100000*%
%ADD14C,0.200000*%
%ADD15C,0.120000*%
%ADD16C,0.150000*%
G04 APERTURE END LIST*
D10*
X14626866Y-7352466D02*
X14626866Y-6652466D01*
X14360200Y-6652466D01*
X14293533Y-6685800D01*
X14260200Y-6719133D01*
X14226866Y-6785800D01*
X14226866Y-6885800D01*
X14260200Y-6952466D01*
X14293533Y-6985800D01*
X14360200Y-7019133D01*
X14626866Y-7019133D01*
X13526866Y-7285800D02*
X13560200Y-7319133D01*
X13660200Y-7352466D01*
X13726866Y-7352466D01*
X13826866Y-7319133D01*
X13893533Y-7252466D01*
X13926866Y-7185800D01*
X13960200Y-7052466D01*
X13960200Y-6952466D01*
X13926866Y-6819133D01*
X13893533Y-6752466D01*
X13826866Y-6685800D01*
X13726866Y-6652466D01*
X13660200Y-6652466D01*
X13560200Y-6685800D01*
X13526866Y-6719133D01*
X12993533Y-6985800D02*
X12893533Y-7019133D01*
X12860200Y-7052466D01*
X12826866Y-7119133D01*
X12826866Y-7219133D01*
X12860200Y-7285800D01*
X12893533Y-7319133D01*
X12960200Y-7352466D01*
X13226866Y-7352466D01*
X13226866Y-6652466D01*
X12993533Y-6652466D01*
X12926866Y-6685800D01*
X12893533Y-6719133D01*
X12860200Y-6785800D01*
X12860200Y-6852466D01*
X12893533Y-6919133D01*
X12926866Y-6952466D01*
X12993533Y-6985800D01*
X13226866Y-6985800D01*
X12693533Y-7419133D02*
X12160200Y-7419133D01*
X11760200Y-6985800D02*
X11660200Y-7019133D01*
X11626866Y-7052466D01*
X11593533Y-7119133D01*
X11593533Y-7219133D01*
X11626866Y-7285800D01*
X11660200Y-7319133D01*
X11726866Y-7352466D01*
X11993533Y-7352466D01*
X11993533Y-6652466D01*
X11760200Y-6652466D01*
X11693533Y-6685800D01*
X11660200Y-6719133D01*
X11626866Y-6785800D01*
X11626866Y-6852466D01*
X11660200Y-6919133D01*
X11693533Y-6952466D01*
X11760200Y-6985800D01*
X11993533Y-6985800D01*
X10826866Y-6885800D02*
X10660200Y-7352466D01*
X10493533Y-6885800D01*
X10260200Y-6719133D02*
X10226866Y-6685800D01*
X10160200Y-6652466D01*
X9993533Y-6652466D01*
X9926866Y-6685800D01*
X9893533Y-6719133D01*
X9860200Y-6785800D01*
X9860200Y-6852466D01*
X9893533Y-6952466D01*
X10293533Y-7352466D01*
X9860200Y-7352466D01*
X9560200Y-7285800D02*
X9526866Y-7319133D01*
X9560200Y-7352466D01*
X9593533Y-7319133D01*
X9560200Y-7285800D01*
X9560200Y-7352466D01*
X9093533Y-6652466D02*
X9026866Y-6652466D01*
X8960200Y-6685800D01*
X8926866Y-6719133D01*
X8893533Y-6785800D01*
X8860200Y-6919133D01*
X8860200Y-7085800D01*
X8893533Y-7219133D01*
X8926866Y-7285800D01*
X8960200Y-7319133D01*
X9026866Y-7352466D01*
X9093533Y-7352466D01*
X9160200Y-7319133D01*
X9193533Y-7285800D01*
X9226866Y-7219133D01*
X9260200Y-7085800D01*
X9260200Y-6919133D01*
X9226866Y-6785800D01*
X9193533Y-6719133D01*
X9160200Y-6685800D01*
X9093533Y-6652466D01*
X15416533Y-6092000D02*
X15449866Y-6125333D01*
X15549866Y-6158666D01*
X15616533Y-6158666D01*
X15716533Y-6125333D01*
X15783200Y-6058666D01*
X15816533Y-5992000D01*
X15849866Y-5858666D01*
X15849866Y-5758666D01*
X15816533Y-5625333D01*
X15783200Y-5558666D01*
X15716533Y-5492000D01*
X15616533Y-5458666D01*
X15549866Y-5458666D01*
X15449866Y-5492000D01*
X15416533Y-5525333D01*
X14816533Y-6158666D02*
X14816533Y-5792000D01*
X14849866Y-5725333D01*
X14916533Y-5692000D01*
X15049866Y-5692000D01*
X15116533Y-5725333D01*
X14816533Y-6125333D02*
X14883200Y-6158666D01*
X15049866Y-6158666D01*
X15116533Y-6125333D01*
X15149866Y-6058666D01*
X15149866Y-5992000D01*
X15116533Y-5925333D01*
X15049866Y-5892000D01*
X14883200Y-5892000D01*
X14816533Y-5858666D01*
X14483200Y-5692000D02*
X14483200Y-6158666D01*
X14483200Y-5758666D02*
X14449866Y-5725333D01*
X14383200Y-5692000D01*
X14283200Y-5692000D01*
X14216533Y-5725333D01*
X14183200Y-5792000D01*
X14183200Y-6158666D01*
X13883200Y-6125333D02*
X13783200Y-6158666D01*
X13616533Y-6158666D01*
X13549866Y-6125333D01*
X13516533Y-6092000D01*
X13483200Y-6025333D01*
X13483200Y-5958666D01*
X13516533Y-5892000D01*
X13549866Y-5858666D01*
X13616533Y-5825333D01*
X13749866Y-5792000D01*
X13816533Y-5758666D01*
X13849866Y-5725333D01*
X13883200Y-5658666D01*
X13883200Y-5592000D01*
X13849866Y-5525333D01*
X13816533Y-5492000D01*
X13749866Y-5458666D01*
X13583200Y-5458666D01*
X13483200Y-5492000D01*
X12883200Y-6158666D02*
X12883200Y-5792000D01*
X12916533Y-5725333D01*
X12983200Y-5692000D01*
X13116533Y-5692000D01*
X13183200Y-5725333D01*
X12883200Y-6125333D02*
X12949866Y-6158666D01*
X13116533Y-6158666D01*
X13183200Y-6125333D01*
X13216533Y-6058666D01*
X13216533Y-5992000D01*
X13183200Y-5925333D01*
X13116533Y-5892000D01*
X12949866Y-5892000D01*
X12883200Y-5858666D01*
X12649866Y-5692000D02*
X12383200Y-5692000D01*
X12549866Y-5458666D02*
X12549866Y-6058666D01*
X12516533Y-6125333D01*
X12449866Y-6158666D01*
X12383200Y-6158666D01*
X11616533Y-6158666D02*
X11616533Y-5458666D01*
X11349866Y-5458666D01*
X11283200Y-5492000D01*
X11249866Y-5525333D01*
X11216533Y-5592000D01*
X11216533Y-5692000D01*
X11249866Y-5758666D01*
X11283200Y-5792000D01*
X11349866Y-5825333D01*
X11616533Y-5825333D01*
X10816533Y-6158666D02*
X10883200Y-6125333D01*
X10916533Y-6058666D01*
X10916533Y-5458666D01*
X10249866Y-6158666D02*
X10249866Y-5792000D01*
X10283200Y-5725333D01*
X10349866Y-5692000D01*
X10483200Y-5692000D01*
X10549866Y-5725333D01*
X10249866Y-6125333D02*
X10316533Y-6158666D01*
X10483200Y-6158666D01*
X10549866Y-6125333D01*
X10583200Y-6058666D01*
X10583200Y-5992000D01*
X10549866Y-5925333D01*
X10483200Y-5892000D01*
X10316533Y-5892000D01*
X10249866Y-5858666D01*
X10016533Y-5692000D02*
X9749866Y-5692000D01*
X9916533Y-5458666D02*
X9916533Y-6058666D01*
X9883200Y-6125333D01*
X9816533Y-6158666D01*
X9749866Y-6158666D01*
X9616533Y-5692000D02*
X9349866Y-5692000D01*
X9516533Y-6158666D02*
X9516533Y-5558666D01*
X9483200Y-5492000D01*
X9416533Y-5458666D01*
X9349866Y-5458666D01*
X9016533Y-6158666D02*
X9083200Y-6125333D01*
X9116533Y-6092000D01*
X9149866Y-6025333D01*
X9149866Y-5825333D01*
X9116533Y-5758666D01*
X9083200Y-5725333D01*
X9016533Y-5692000D01*
X8916533Y-5692000D01*
X8849866Y-5725333D01*
X8816533Y-5758666D01*
X8783200Y-5825333D01*
X8783200Y-6025333D01*
X8816533Y-6092000D01*
X8849866Y-6125333D01*
X8916533Y-6158666D01*
X9016533Y-6158666D01*
X8483200Y-6158666D02*
X8483200Y-5692000D01*
X8483200Y-5825333D02*
X8449866Y-5758666D01*
X8416533Y-5725333D01*
X8349866Y-5692000D01*
X8283200Y-5692000D01*
X8049866Y-6158666D02*
X8049866Y-5692000D01*
X8049866Y-5758666D02*
X8016533Y-5725333D01*
X7949866Y-5692000D01*
X7849866Y-5692000D01*
X7783200Y-5725333D01*
X7749866Y-5792000D01*
X7749866Y-6158666D01*
X7749866Y-5792000D02*
X7716533Y-5725333D01*
X7649866Y-5692000D01*
X7549866Y-5692000D01*
X7483200Y-5725333D01*
X7449866Y-5792000D01*
X7449866Y-6158666D01*
D11*
X18050476Y6357619D02*
X18050476Y7357619D01*
X17240952Y6881428D02*
X17098095Y6833809D01*
X17050476Y6786190D01*
X17002857Y6690952D01*
X17002857Y6548095D01*
X17050476Y6452857D01*
X17098095Y6405238D01*
X17193333Y6357619D01*
X17574285Y6357619D01*
X17574285Y7357619D01*
X17240952Y7357619D01*
X17145714Y7310000D01*
X17098095Y7262380D01*
X17050476Y7167142D01*
X17050476Y7071904D01*
X17098095Y6976666D01*
X17145714Y6929047D01*
X17240952Y6881428D01*
X17574285Y6881428D01*
X16621904Y6643333D02*
X16145714Y6643333D01*
X16717142Y6357619D02*
X16383809Y7357619D01*
X16050476Y6357619D01*
X15860000Y7357619D02*
X15288571Y7357619D01*
X15574285Y6357619D02*
X15574285Y7357619D01*
X15098095Y7357619D02*
X14526666Y7357619D01*
X14812380Y6357619D02*
X14812380Y7357619D01*
X28301904Y-3511428D02*
X27540000Y-3511428D01*
X27920952Y-3892380D02*
X27920952Y-3130476D01*
X26587619Y-2892380D02*
X27063809Y-2892380D01*
X27111428Y-3368571D01*
X27063809Y-3320952D01*
X26968571Y-3273333D01*
X26730476Y-3273333D01*
X26635238Y-3320952D01*
X26587619Y-3368571D01*
X26540000Y-3463809D01*
X26540000Y-3701904D01*
X26587619Y-3797142D01*
X26635238Y-3844761D01*
X26730476Y-3892380D01*
X26968571Y-3892380D01*
X27063809Y-3844761D01*
X27111428Y-3797142D01*
X26254285Y-2892380D02*
X25920952Y-3892380D01*
X25587619Y-2892380D01*
X25254285Y-3892380D02*
X25254285Y-3225714D01*
X25254285Y-2892380D02*
X25301904Y-2940000D01*
X25254285Y-2987619D01*
X25206666Y-2940000D01*
X25254285Y-2892380D01*
X25254285Y-2987619D01*
X24778095Y-3225714D02*
X24778095Y-3892380D01*
X24778095Y-3320952D02*
X24730476Y-3273333D01*
X24635238Y-3225714D01*
X24492380Y-3225714D01*
X24397142Y-3273333D01*
X24349523Y-3368571D01*
X24349523Y-3892380D01*
X24016190Y-3225714D02*
X23635238Y-3225714D01*
X23873333Y-2892380D02*
X23873333Y-3749523D01*
X23825714Y-3844761D01*
X23730476Y-3892380D01*
X23635238Y-3892380D01*
X32476666Y-4710000D02*
X32571904Y-4662380D01*
X32714761Y-4662380D01*
X32857619Y-4710000D01*
X32952857Y-4805238D01*
X33000476Y-4900476D01*
X33048095Y-5090952D01*
X33048095Y-5233809D01*
X33000476Y-5424285D01*
X32952857Y-5519523D01*
X32857619Y-5614761D01*
X32714761Y-5662380D01*
X32619523Y-5662380D01*
X32476666Y-5614761D01*
X32429047Y-5567142D01*
X32429047Y-5233809D01*
X32619523Y-5233809D01*
X32000476Y-5662380D02*
X32000476Y-4662380D01*
X31619523Y-4662380D01*
X31524285Y-4710000D01*
X31476666Y-4757619D01*
X31429047Y-4852857D01*
X31429047Y-4995714D01*
X31476666Y-5090952D01*
X31524285Y-5138571D01*
X31619523Y-5186190D01*
X32000476Y-5186190D01*
X30810000Y-4662380D02*
X30619523Y-4662380D01*
X30524285Y-4710000D01*
X30429047Y-4805238D01*
X30381428Y-4995714D01*
X30381428Y-5329047D01*
X30429047Y-5519523D01*
X30524285Y-5614761D01*
X30619523Y-5662380D01*
X30810000Y-5662380D01*
X30905238Y-5614761D01*
X31000476Y-5519523D01*
X31048095Y-5329047D01*
X31048095Y-4995714D01*
X31000476Y-4805238D01*
X30905238Y-4710000D01*
X30810000Y-4662380D01*
X29952857Y-4662380D02*
X29952857Y-5471904D01*
X29905238Y-5567142D01*
X29857619Y-5614761D01*
X29762380Y-5662380D01*
X29571904Y-5662380D01*
X29476666Y-5614761D01*
X29429047Y-5567142D01*
X29381428Y-5471904D01*
X29381428Y-4662380D01*
X29048095Y-4662380D02*
X28476666Y-4662380D01*
X28762380Y-5662380D02*
X28762380Y-4662380D01*
X-359523Y11407619D02*
X-692857Y10407619D01*
X-1026190Y11407619D01*
X-1692857Y10931428D02*
X-1835714Y10883809D01*
X-1883333Y10836190D01*
X-1930952Y10740952D01*
X-1930952Y10598095D01*
X-1883333Y10502857D01*
X-1835714Y10455238D01*
X-1740476Y10407619D01*
X-1359523Y10407619D01*
X-1359523Y11407619D01*
X-1692857Y11407619D01*
X-1788095Y11360000D01*
X-1835714Y11312380D01*
X-1883333Y11217142D01*
X-1883333Y11121904D01*
X-1835714Y11026666D01*
X-1788095Y10979047D01*
X-1692857Y10931428D01*
X-1359523Y10931428D01*
X-2788095Y11074285D02*
X-2788095Y10407619D01*
X-2359523Y11074285D02*
X-2359523Y10550476D01*
X-2407142Y10455238D01*
X-2502380Y10407619D01*
X-2645238Y10407619D01*
X-2740476Y10455238D01*
X-2788095Y10502857D01*
X-3216666Y10455238D02*
X-3311904Y10407619D01*
X-3502380Y10407619D01*
X-3597619Y10455238D01*
X-3645238Y10550476D01*
X-3645238Y10598095D01*
X-3597619Y10693333D01*
X-3502380Y10740952D01*
X-3359523Y10740952D01*
X-3264285Y10788571D01*
X-3216666Y10883809D01*
X-3216666Y10931428D01*
X-3264285Y11026666D01*
X-3359523Y11074285D01*
X-3502380Y11074285D01*
X-3597619Y11026666D01*
X7240476Y12465238D02*
X7097619Y12417619D01*
X6859523Y12417619D01*
X6764285Y12465238D01*
X6716666Y12512857D01*
X6669047Y12608095D01*
X6669047Y12703333D01*
X6716666Y12798571D01*
X6764285Y12846190D01*
X6859523Y12893809D01*
X7050000Y12941428D01*
X7145238Y12989047D01*
X7192857Y13036666D01*
X7240476Y13131904D01*
X7240476Y13227142D01*
X7192857Y13322380D01*
X7145238Y13370000D01*
X7050000Y13417619D01*
X6811904Y13417619D01*
X6669047Y13370000D01*
X5669047Y12512857D02*
X5716666Y12465238D01*
X5859523Y12417619D01*
X5954761Y12417619D01*
X6097619Y12465238D01*
X6192857Y12560476D01*
X6240476Y12655714D01*
X6288095Y12846190D01*
X6288095Y12989047D01*
X6240476Y13179523D01*
X6192857Y13274761D01*
X6097619Y13370000D01*
X5954761Y13417619D01*
X5859523Y13417619D01*
X5716666Y13370000D01*
X5669047Y13322380D01*
X4764285Y12417619D02*
X5240476Y12417619D01*
X5240476Y13417619D01*
X5844285Y7745238D02*
X5701428Y7697619D01*
X5463333Y7697619D01*
X5368095Y7745238D01*
X5320476Y7792857D01*
X5272857Y7888095D01*
X5272857Y7983333D01*
X5320476Y8078571D01*
X5368095Y8126190D01*
X5463333Y8173809D01*
X5653809Y8221428D01*
X5749047Y8269047D01*
X5796666Y8316666D01*
X5844285Y8411904D01*
X5844285Y8507142D01*
X5796666Y8602380D01*
X5749047Y8650000D01*
X5653809Y8697619D01*
X5415714Y8697619D01*
X5272857Y8650000D01*
X4844285Y7697619D02*
X4844285Y8697619D01*
X4606190Y8697619D01*
X4463333Y8650000D01*
X4368095Y8554761D01*
X4320476Y8459523D01*
X4272857Y8269047D01*
X4272857Y8126190D01*
X4320476Y7935714D01*
X4368095Y7840476D01*
X4463333Y7745238D01*
X4606190Y7697619D01*
X4844285Y7697619D01*
X3891904Y7983333D02*
X3415714Y7983333D01*
X3987142Y7697619D02*
X3653809Y8697619D01*
X3320476Y7697619D01*
X2895238Y-4122380D02*
X2895238Y-3122380D01*
X2466666Y-4074761D02*
X2323809Y-4122380D01*
X2085714Y-4122380D01*
X1990476Y-4074761D01*
X1942857Y-4027142D01*
X1895238Y-3931904D01*
X1895238Y-3836666D01*
X1942857Y-3741428D01*
X1990476Y-3693809D01*
X2085714Y-3646190D01*
X2276190Y-3598571D01*
X2371428Y-3550952D01*
X2419047Y-3503333D01*
X2466666Y-3408095D01*
X2466666Y-3312857D01*
X2419047Y-3217619D01*
X2371428Y-3170000D01*
X2276190Y-3122380D01*
X2038095Y-3122380D01*
X1895238Y-3170000D01*
X1085714Y-4074761D02*
X1180952Y-4122380D01*
X1371428Y-4122380D01*
X1466666Y-4074761D01*
X1514285Y-3979523D01*
X1514285Y-3598571D01*
X1466666Y-3503333D01*
X1371428Y-3455714D01*
X1180952Y-3455714D01*
X1085714Y-3503333D01*
X1038095Y-3598571D01*
X1038095Y-3693809D01*
X1514285Y-3789047D01*
X609523Y-3455714D02*
X609523Y-4122380D01*
X609523Y-3550952D02*
X561904Y-3503333D01*
X466666Y-3455714D01*
X323809Y-3455714D01*
X228571Y-3503333D01*
X180952Y-3598571D01*
X180952Y-4122380D01*
X-247619Y-4074761D02*
X-342857Y-4122380D01*
X-533333Y-4122380D01*
X-628571Y-4074761D01*
X-676190Y-3979523D01*
X-676190Y-3931904D01*
X-628571Y-3836666D01*
X-533333Y-3789047D01*
X-390476Y-3789047D01*
X-295238Y-3741428D01*
X-247619Y-3646190D01*
X-247619Y-3598571D01*
X-295238Y-3503333D01*
X-390476Y-3455714D01*
X-533333Y-3455714D01*
X-628571Y-3503333D01*
X-1485714Y-4074761D02*
X-1390476Y-4122380D01*
X-1200000Y-4122380D01*
X-1104761Y-4074761D01*
X-1057142Y-3979523D01*
X-1057142Y-3598571D01*
X-1104761Y-3503333D01*
X-1200000Y-3455714D01*
X-1390476Y-3455714D01*
X-1485714Y-3503333D01*
X-1533333Y-3598571D01*
X-1533333Y-3693809D01*
X-1057142Y-3789047D01*
X-2438095Y-3122380D02*
X-1961904Y-3122380D01*
X-1914285Y-3598571D01*
X-1961904Y-3550952D01*
X-2057142Y-3503333D01*
X-2295238Y-3503333D01*
X-2390476Y-3550952D01*
X-2438095Y-3598571D01*
X-2485714Y-3693809D01*
X-2485714Y-3931904D01*
X-2438095Y-4027142D01*
X-2390476Y-4074761D01*
X-2295238Y-4122380D01*
X-2057142Y-4122380D01*
X-1961904Y-4074761D01*
X-1914285Y-4027142D01*
X-2771428Y-3122380D02*
X-3104761Y-4122380D01*
X-3438095Y-3122380D01*
X-2754285Y-18441428D02*
X-3516190Y-18441428D01*
X-3135238Y-18822380D02*
X-3135238Y-18060476D01*
X-4468571Y-17822380D02*
X-3992380Y-17822380D01*
X-3944761Y-18298571D01*
X-3992380Y-18250952D01*
X-4087619Y-18203333D01*
X-4325714Y-18203333D01*
X-4420952Y-18250952D01*
X-4468571Y-18298571D01*
X-4516190Y-18393809D01*
X-4516190Y-18631904D01*
X-4468571Y-18727142D01*
X-4420952Y-18774761D01*
X-4325714Y-18822380D01*
X-4087619Y-18822380D01*
X-3992380Y-18774761D01*
X-3944761Y-18727142D01*
X-4801904Y-17822380D02*
X-5135238Y-18822380D01*
X-5468571Y-17822380D01*
X-11508095Y-20220000D02*
X-11412857Y-20172380D01*
X-11270000Y-20172380D01*
X-11127142Y-20220000D01*
X-11031904Y-20315238D01*
X-10984285Y-20410476D01*
X-10936666Y-20600952D01*
X-10936666Y-20743809D01*
X-10984285Y-20934285D01*
X-11031904Y-21029523D01*
X-11127142Y-21124761D01*
X-11270000Y-21172380D01*
X-11365238Y-21172380D01*
X-11508095Y-21124761D01*
X-11555714Y-21077142D01*
X-11555714Y-20743809D01*
X-11365238Y-20743809D01*
X-11984285Y-21172380D02*
X-11984285Y-20172380D01*
X-12555714Y-21172380D01*
X-12555714Y-20172380D01*
X-13031904Y-21172380D02*
X-13031904Y-20172380D01*
X-13270000Y-20172380D01*
X-13412857Y-20220000D01*
X-13508095Y-20315238D01*
X-13555714Y-20410476D01*
X-13603333Y-20600952D01*
X-13603333Y-20743809D01*
X-13555714Y-20934285D01*
X-13508095Y-21029523D01*
X-13412857Y-21124761D01*
X-13270000Y-21172380D01*
X-13031904Y-21172380D01*
X4378095Y-30561428D02*
X3616190Y-30561428D01*
X3997142Y-30942380D02*
X3997142Y-30180476D01*
X3235238Y-29942380D02*
X2616190Y-29942380D01*
X2949523Y-30323333D01*
X2806666Y-30323333D01*
X2711428Y-30370952D01*
X2663809Y-30418571D01*
X2616190Y-30513809D01*
X2616190Y-30751904D01*
X2663809Y-30847142D01*
X2711428Y-30894761D01*
X2806666Y-30942380D01*
X3092380Y-30942380D01*
X3187619Y-30894761D01*
X3235238Y-30847142D01*
X2330476Y-29942380D02*
X1997142Y-30942380D01*
X1663809Y-29942380D01*
X1425714Y-29942380D02*
X806666Y-29942380D01*
X1140000Y-30323333D01*
X997142Y-30323333D01*
X901904Y-30370952D01*
X854285Y-30418571D01*
X806666Y-30513809D01*
X806666Y-30751904D01*
X854285Y-30847142D01*
X901904Y-30894761D01*
X997142Y-30942380D01*
X1282857Y-30942380D01*
X1378095Y-30894761D01*
X1425714Y-30847142D01*
X378095Y-30942380D02*
X378095Y-30275714D01*
X378095Y-29942380D02*
X425714Y-29990000D01*
X378095Y-30037619D01*
X330476Y-29990000D01*
X378095Y-29942380D01*
X378095Y-30037619D01*
X-98095Y-30275714D02*
X-98095Y-30942380D01*
X-98095Y-30370952D02*
X-145714Y-30323333D01*
X-240952Y-30275714D01*
X-383809Y-30275714D01*
X-479047Y-30323333D01*
X-526666Y-30418571D01*
X-526666Y-30942380D01*
X-860000Y-30275714D02*
X-1240952Y-30275714D01*
X-1002857Y-29942380D02*
X-1002857Y-30799523D01*
X-1050476Y-30894761D01*
X-1145714Y-30942380D01*
X-1240952Y-30942380D01*
X22951904Y-28991428D02*
X22190000Y-28991428D01*
X22570952Y-29372380D02*
X22570952Y-28610476D01*
X21809047Y-28372380D02*
X21190000Y-28372380D01*
X21523333Y-28753333D01*
X21380476Y-28753333D01*
X21285238Y-28800952D01*
X21237619Y-28848571D01*
X21190000Y-28943809D01*
X21190000Y-29181904D01*
X21237619Y-29277142D01*
X21285238Y-29324761D01*
X21380476Y-29372380D01*
X21666190Y-29372380D01*
X21761428Y-29324761D01*
X21809047Y-29277142D01*
X20904285Y-28372380D02*
X20570952Y-29372380D01*
X20237619Y-28372380D01*
X19999523Y-28372380D02*
X19380476Y-28372380D01*
X19713809Y-28753333D01*
X19570952Y-28753333D01*
X19475714Y-28800952D01*
X19428095Y-28848571D01*
X19380476Y-28943809D01*
X19380476Y-29181904D01*
X19428095Y-29277142D01*
X19475714Y-29324761D01*
X19570952Y-29372380D01*
X19856666Y-29372380D01*
X19951904Y-29324761D01*
X19999523Y-29277142D01*
X34100000Y-18042380D02*
X34100000Y-17042380D01*
X33671428Y-17994761D02*
X33576190Y-18042380D01*
X33385714Y-18042380D01*
X33290476Y-17994761D01*
X33242857Y-17899523D01*
X33242857Y-17851904D01*
X33290476Y-17756666D01*
X33385714Y-17709047D01*
X33528571Y-17709047D01*
X33623809Y-17661428D01*
X33671428Y-17566190D01*
X33671428Y-17518571D01*
X33623809Y-17423333D01*
X33528571Y-17375714D01*
X33385714Y-17375714D01*
X33290476Y-17423333D01*
X32433333Y-17994761D02*
X32528571Y-18042380D01*
X32719047Y-18042380D01*
X32814285Y-17994761D01*
X32861904Y-17899523D01*
X32861904Y-17518571D01*
X32814285Y-17423333D01*
X32719047Y-17375714D01*
X32528571Y-17375714D01*
X32433333Y-17423333D01*
X32385714Y-17518571D01*
X32385714Y-17613809D01*
X32861904Y-17709047D01*
X31957142Y-17375714D02*
X31957142Y-18042380D01*
X31957142Y-17470952D02*
X31909523Y-17423333D01*
X31814285Y-17375714D01*
X31671428Y-17375714D01*
X31576190Y-17423333D01*
X31528571Y-17518571D01*
X31528571Y-18042380D01*
X31100000Y-17994761D02*
X31004761Y-18042380D01*
X30814285Y-18042380D01*
X30719047Y-17994761D01*
X30671428Y-17899523D01*
X30671428Y-17851904D01*
X30719047Y-17756666D01*
X30814285Y-17709047D01*
X30957142Y-17709047D01*
X31052380Y-17661428D01*
X31100000Y-17566190D01*
X31100000Y-17518571D01*
X31052380Y-17423333D01*
X30957142Y-17375714D01*
X30814285Y-17375714D01*
X30719047Y-17423333D01*
X29861904Y-17994761D02*
X29957142Y-18042380D01*
X30147619Y-18042380D01*
X30242857Y-17994761D01*
X30290476Y-17899523D01*
X30290476Y-17518571D01*
X30242857Y-17423333D01*
X30147619Y-17375714D01*
X29957142Y-17375714D01*
X29861904Y-17423333D01*
X29814285Y-17518571D01*
X29814285Y-17613809D01*
X30290476Y-17709047D01*
X29480952Y-17042380D02*
X28861904Y-17042380D01*
X29195238Y-17423333D01*
X29052380Y-17423333D01*
X28957142Y-17470952D01*
X28909523Y-17518571D01*
X28861904Y-17613809D01*
X28861904Y-17851904D01*
X28909523Y-17947142D01*
X28957142Y-17994761D01*
X29052380Y-18042380D01*
X29338095Y-18042380D01*
X29433333Y-17994761D01*
X29480952Y-17947142D01*
X28576190Y-17042380D02*
X28242857Y-18042380D01*
X27909523Y-17042380D01*
X27671428Y-17042380D02*
X27052380Y-17042380D01*
X27385714Y-17423333D01*
X27242857Y-17423333D01*
X27147619Y-17470952D01*
X27100000Y-17518571D01*
X27052380Y-17613809D01*
X27052380Y-17851904D01*
X27100000Y-17947142D01*
X27147619Y-17994761D01*
X27242857Y-18042380D01*
X27528571Y-18042380D01*
X27623809Y-17994761D01*
X27671428Y-17947142D01*
X32198095Y-12435714D02*
X32198095Y-13102380D01*
X32198095Y-12530952D02*
X32150476Y-12483333D01*
X32055238Y-12435714D01*
X31912380Y-12435714D01*
X31817142Y-12483333D01*
X31769523Y-12578571D01*
X31769523Y-13102380D01*
X30721904Y-13007142D02*
X30769523Y-13054761D01*
X30912380Y-13102380D01*
X31007619Y-13102380D01*
X31150476Y-13054761D01*
X31245714Y-12959523D01*
X31293333Y-12864285D01*
X31340952Y-12673809D01*
X31340952Y-12530952D01*
X31293333Y-12340476D01*
X31245714Y-12245238D01*
X31150476Y-12150000D01*
X31007619Y-12102380D01*
X30912380Y-12102380D01*
X30769523Y-12150000D01*
X30721904Y-12197619D01*
X30293333Y-13102380D02*
X30293333Y-12102380D01*
X30293333Y-12578571D02*
X29721904Y-12578571D01*
X29721904Y-13102380D02*
X29721904Y-12102380D01*
X28721904Y-12150000D02*
X28817142Y-12102380D01*
X28959999Y-12102380D01*
X29102857Y-12150000D01*
X29198095Y-12245238D01*
X29245714Y-12340476D01*
X29293333Y-12530952D01*
X29293333Y-12673809D01*
X29245714Y-12864285D01*
X29198095Y-12959523D01*
X29102857Y-13054761D01*
X28959999Y-13102380D01*
X28864761Y-13102380D01*
X28721904Y-13054761D01*
X28674285Y-13007142D01*
X28674285Y-12673809D01*
X28864761Y-12673809D01*
X26213333Y-18547380D02*
X25880000Y-19547380D01*
X25546666Y-18547380D01*
X25260952Y-19499761D02*
X25165714Y-19547380D01*
X24975238Y-19547380D01*
X24880000Y-19499761D01*
X24832380Y-19404523D01*
X24832380Y-19356904D01*
X24880000Y-19261666D01*
X24975238Y-19214047D01*
X25118095Y-19214047D01*
X25213333Y-19166428D01*
X25260952Y-19071190D01*
X25260952Y-19023571D01*
X25213333Y-18928333D01*
X25118095Y-18880714D01*
X24975238Y-18880714D01*
X24880000Y-18928333D01*
X24022857Y-19499761D02*
X24118095Y-19547380D01*
X24308571Y-19547380D01*
X24403809Y-19499761D01*
X24451428Y-19404523D01*
X24451428Y-19023571D01*
X24403809Y-18928333D01*
X24308571Y-18880714D01*
X24118095Y-18880714D01*
X24022857Y-18928333D01*
X23975238Y-19023571D01*
X23975238Y-19118809D01*
X24451428Y-19214047D01*
X23546666Y-18880714D02*
X23546666Y-19547380D01*
X23546666Y-18975952D02*
X23499047Y-18928333D01*
X23403809Y-18880714D01*
X23260952Y-18880714D01*
X23165714Y-18928333D01*
X23118095Y-19023571D01*
X23118095Y-19547380D01*
X22689523Y-19499761D02*
X22594285Y-19547380D01*
X22403809Y-19547380D01*
X22308571Y-19499761D01*
X22260952Y-19404523D01*
X22260952Y-19356904D01*
X22308571Y-19261666D01*
X22403809Y-19214047D01*
X22546666Y-19214047D01*
X22641904Y-19166428D01*
X22689523Y-19071190D01*
X22689523Y-19023571D01*
X22641904Y-18928333D01*
X22546666Y-18880714D01*
X22403809Y-18880714D01*
X22308571Y-18928333D01*
X21451428Y-19499761D02*
X21546666Y-19547380D01*
X21737142Y-19547380D01*
X21832380Y-19499761D01*
X21880000Y-19404523D01*
X21880000Y-19023571D01*
X21832380Y-18928333D01*
X21737142Y-18880714D01*
X21546666Y-18880714D01*
X21451428Y-18928333D01*
X21403809Y-19023571D01*
X21403809Y-19118809D01*
X21880000Y-19214047D01*
X21070476Y-18547380D02*
X20451428Y-18547380D01*
X20784761Y-18928333D01*
X20641904Y-18928333D01*
X20546666Y-18975952D01*
X20499047Y-19023571D01*
X20451428Y-19118809D01*
X20451428Y-19356904D01*
X20499047Y-19452142D01*
X20546666Y-19499761D01*
X20641904Y-19547380D01*
X20927619Y-19547380D01*
X21022857Y-19499761D01*
X21070476Y-19452142D01*
X20165714Y-18547380D02*
X19832380Y-19547380D01*
X19499047Y-18547380D01*
X19260952Y-18547380D02*
X18641904Y-18547380D01*
X18975238Y-18928333D01*
X18832380Y-18928333D01*
X18737142Y-18975952D01*
X18689523Y-19023571D01*
X18641904Y-19118809D01*
X18641904Y-19356904D01*
X18689523Y-19452142D01*
X18737142Y-19499761D01*
X18832380Y-19547380D01*
X19118095Y-19547380D01*
X19213333Y-19499761D01*
X19260952Y-19452142D01*
X-9218571Y-3471428D02*
X-9980476Y-3471428D01*
X-9599523Y-3852380D02*
X-9599523Y-3090476D01*
X-10790000Y-3328571D02*
X-10932857Y-3376190D01*
X-10980476Y-3423809D01*
X-11028095Y-3519047D01*
X-11028095Y-3661904D01*
X-10980476Y-3757142D01*
X-10932857Y-3804761D01*
X-10837619Y-3852380D01*
X-10456666Y-3852380D01*
X-10456666Y-2852380D01*
X-10790000Y-2852380D01*
X-10885238Y-2900000D01*
X-10932857Y-2947619D01*
X-10980476Y-3042857D01*
X-10980476Y-3138095D01*
X-10932857Y-3233333D01*
X-10885238Y-3280952D01*
X-10790000Y-3328571D01*
X-10456666Y-3328571D01*
X-11409047Y-3566666D02*
X-11885238Y-3566666D01*
X-11313809Y-3852380D02*
X-11647142Y-2852380D01*
X-11980476Y-3852380D01*
X-12170952Y-2852380D02*
X-12742380Y-2852380D01*
X-12456666Y-3852380D02*
X-12456666Y-2852380D01*
X-12932857Y-2852380D02*
X-13504285Y-2852380D01*
X-13218571Y-3852380D02*
X-13218571Y-2852380D01*
X-2942857Y-22632380D02*
X-3276190Y-23632380D01*
X-3609523Y-22632380D01*
X-3895238Y-23584761D02*
X-3990476Y-23632380D01*
X-4180952Y-23632380D01*
X-4276190Y-23584761D01*
X-4323809Y-23489523D01*
X-4323809Y-23441904D01*
X-4276190Y-23346666D01*
X-4180952Y-23299047D01*
X-4038095Y-23299047D01*
X-3942857Y-23251428D01*
X-3895238Y-23156190D01*
X-3895238Y-23108571D01*
X-3942857Y-23013333D01*
X-4038095Y-22965714D01*
X-4180952Y-22965714D01*
X-4276190Y-23013333D01*
X-5133333Y-23584761D02*
X-5038095Y-23632380D01*
X-4847619Y-23632380D01*
X-4752380Y-23584761D01*
X-4704761Y-23489523D01*
X-4704761Y-23108571D01*
X-4752380Y-23013333D01*
X-4847619Y-22965714D01*
X-5038095Y-22965714D01*
X-5133333Y-23013333D01*
X-5180952Y-23108571D01*
X-5180952Y-23203809D01*
X-4704761Y-23299047D01*
X-5609523Y-22965714D02*
X-5609523Y-23632380D01*
X-5609523Y-23060952D02*
X-5657142Y-23013333D01*
X-5752380Y-22965714D01*
X-5895238Y-22965714D01*
X-5990476Y-23013333D01*
X-6038095Y-23108571D01*
X-6038095Y-23632380D01*
X-6466666Y-23584761D02*
X-6561904Y-23632380D01*
X-6752380Y-23632380D01*
X-6847619Y-23584761D01*
X-6895238Y-23489523D01*
X-6895238Y-23441904D01*
X-6847619Y-23346666D01*
X-6752380Y-23299047D01*
X-6609523Y-23299047D01*
X-6514285Y-23251428D01*
X-6466666Y-23156190D01*
X-6466666Y-23108571D01*
X-6514285Y-23013333D01*
X-6609523Y-22965714D01*
X-6752380Y-22965714D01*
X-6847619Y-23013333D01*
X-7704761Y-23584761D02*
X-7609523Y-23632380D01*
X-7419047Y-23632380D01*
X-7323809Y-23584761D01*
X-7276190Y-23489523D01*
X-7276190Y-23108571D01*
X-7323809Y-23013333D01*
X-7419047Y-22965714D01*
X-7609523Y-22965714D01*
X-7704761Y-23013333D01*
X-7752380Y-23108571D01*
X-7752380Y-23203809D01*
X-7276190Y-23299047D01*
X-8657142Y-22632380D02*
X-8180952Y-22632380D01*
X-8133333Y-23108571D01*
X-8180952Y-23060952D01*
X-8276190Y-23013333D01*
X-8514285Y-23013333D01*
X-8609523Y-23060952D01*
X-8657142Y-23108571D01*
X-8704761Y-23203809D01*
X-8704761Y-23441904D01*
X-8657142Y-23537142D01*
X-8609523Y-23584761D01*
X-8514285Y-23632380D01*
X-8276190Y-23632380D01*
X-8180952Y-23584761D01*
X-8133333Y-23537142D01*
X-8990476Y-22632380D02*
X-9323809Y-23632380D01*
X-9657142Y-22632380D01*
D12*
G36*
X11407586Y-10905531D02*
G01*
X11323765Y-11350155D01*
X11014480Y-11477653D01*
X10705194Y-11605151D01*
X10334154Y-11352846D01*
X10230243Y-11282596D01*
X10136313Y-11219872D01*
X10056748Y-11167538D01*
X9995930Y-11128457D01*
X9958243Y-11105493D01*
X9947979Y-11100542D01*
X9929490Y-11113276D01*
X9889980Y-11148482D01*
X9833878Y-11201662D01*
X9765613Y-11268318D01*
X9689614Y-11343954D01*
X9610308Y-11424072D01*
X9532125Y-11504174D01*
X9459493Y-11579764D01*
X9396841Y-11646345D01*
X9348597Y-11699418D01*
X9319190Y-11734487D01*
X9312159Y-11746223D01*
X9322277Y-11767860D01*
X9350641Y-11815262D01*
X9394271Y-11883793D01*
X9450182Y-11968815D01*
X9515394Y-12065693D01*
X9553181Y-12120950D01*
X9622057Y-12221848D01*
X9683260Y-12312899D01*
X9733822Y-12389570D01*
X9770772Y-12447328D01*
X9791142Y-12481643D01*
X9794203Y-12488854D01*
X9787264Y-12509348D01*
X9768349Y-12557113D01*
X9740313Y-12625432D01*
X9706009Y-12707589D01*
X9668291Y-12796870D01*
X9630013Y-12886558D01*
X9594030Y-12969938D01*
X9563194Y-13040294D01*
X9540361Y-13090910D01*
X9528383Y-13115071D01*
X9527676Y-13116022D01*
X9508869Y-13120636D01*
X9458782Y-13130928D01*
X9382607Y-13145887D01*
X9285535Y-13164501D01*
X9172757Y-13185759D01*
X9106958Y-13198018D01*
X8986450Y-13220962D01*
X8877603Y-13242795D01*
X8785924Y-13262322D01*
X8716919Y-13278348D01*
X8676096Y-13289679D01*
X8667889Y-13293274D01*
X8659852Y-13317606D01*
X8653367Y-13372559D01*
X8648430Y-13451708D01*
X8645036Y-13548626D01*
X8643182Y-13656887D01*
X8642862Y-13770065D01*
X8644073Y-13881735D01*
X8646810Y-13985468D01*
X8651069Y-14074841D01*
X8656845Y-14143426D01*
X8664133Y-14184797D01*
X8668505Y-14193410D01*
X8694636Y-14203733D01*
X8750007Y-14218492D01*
X8827293Y-14235952D01*
X8919170Y-14254380D01*
X8951242Y-14260341D01*
X9105876Y-14288666D01*
X9228025Y-14311476D01*
X9321727Y-14329680D01*
X9391016Y-14344183D01*
X9439929Y-14355892D01*
X9472503Y-14365715D01*
X9492772Y-14374556D01*
X9504774Y-14383324D01*
X9506453Y-14385057D01*
X9523216Y-14412971D01*
X9548786Y-14467295D01*
X9580612Y-14541377D01*
X9616140Y-14628565D01*
X9652817Y-14722208D01*
X9688089Y-14815652D01*
X9719404Y-14902247D01*
X9744207Y-14975340D01*
X9759946Y-15028278D01*
X9764068Y-15054411D01*
X9763724Y-15055326D01*
X9749759Y-15076686D01*
X9718078Y-15123684D01*
X9672009Y-15191427D01*
X9614882Y-15275023D01*
X9550027Y-15369582D01*
X9531557Y-15396454D01*
X9465701Y-15493875D01*
X9407750Y-15582763D01*
X9360862Y-15658012D01*
X9328193Y-15714520D01*
X9312900Y-15747181D01*
X9312159Y-15751193D01*
X9325008Y-15772284D01*
X9360512Y-15814064D01*
X9414107Y-15872045D01*
X9481229Y-15941735D01*
X9557313Y-16018645D01*
X9637796Y-16098283D01*
X9718113Y-16176161D01*
X9793701Y-16247786D01*
X9859995Y-16308670D01*
X9912431Y-16354321D01*
X9946445Y-16380250D01*
X9955855Y-16384483D01*
X9977757Y-16374512D01*
X10022600Y-16347620D01*
X10083079Y-16308336D01*
X10129611Y-16276717D01*
X10213925Y-16218698D01*
X10313774Y-16150384D01*
X10413927Y-16082179D01*
X10467773Y-16045675D01*
X10650029Y-15922400D01*
X10803019Y-16005120D01*
X10872718Y-16041359D01*
X10931986Y-16069526D01*
X10972089Y-16085591D01*
X10982297Y-16087826D01*
X10994571Y-16071322D01*
X11018787Y-16024682D01*
X11053137Y-15952209D01*
X11095812Y-15858206D01*
X11145006Y-15746974D01*
X11198910Y-15622815D01*
X11255716Y-15490032D01*
X11313618Y-15352927D01*
X11370807Y-15215802D01*
X11425476Y-15082958D01*
X11475816Y-14958698D01*
X11520020Y-14847325D01*
X11556281Y-14753139D01*
X11582791Y-14680444D01*
X11597742Y-14633541D01*
X11600146Y-14617433D01*
X11581089Y-14596886D01*
X11539364Y-14563533D01*
X11483694Y-14524302D01*
X11479022Y-14521199D01*
X11335136Y-14406023D01*
X11219117Y-14271653D01*
X11131970Y-14122384D01*
X11074701Y-13962513D01*
X11048314Y-13796337D01*
X11053815Y-13628152D01*
X11092210Y-13462255D01*
X11164505Y-13302942D01*
X11185774Y-13268087D01*
X11296404Y-13127337D01*
X11427098Y-13014314D01*
X11573336Y-12929603D01*
X11730592Y-12873794D01*
X11894343Y-12847474D01*
X12060067Y-12851230D01*
X12223238Y-12885650D01*
X12379335Y-12951323D01*
X12523833Y-13048835D01*
X12568531Y-13088413D01*
X12682288Y-13212303D01*
X12765182Y-13342724D01*
X12822044Y-13488915D01*
X12853713Y-13633688D01*
X12861531Y-13796460D01*
X12835462Y-13960040D01*
X12778155Y-14118898D01*
X12692256Y-14267506D01*
X12580414Y-14400335D01*
X12445277Y-14511856D01*
X12427517Y-14523611D01*
X12371250Y-14562108D01*
X12328477Y-14595463D01*
X12308028Y-14616760D01*
X12307731Y-14617433D01*
X12312121Y-14640471D01*
X12329524Y-14692757D01*
X12358132Y-14769990D01*
X12396135Y-14867868D01*
X12441726Y-14982091D01*
X12493097Y-15108358D01*
X12548438Y-15242367D01*
X12605942Y-15379818D01*
X12663799Y-15516408D01*
X12720202Y-15647837D01*
X12773342Y-15769805D01*
X12821410Y-15878009D01*
X12862599Y-15968149D01*
X12895099Y-16035923D01*
X12917103Y-16077030D01*
X12925964Y-16087826D01*
X12953040Y-16079419D01*
X13003703Y-16056872D01*
X13069217Y-16024213D01*
X13105241Y-16005120D01*
X13258232Y-15922400D01*
X13440488Y-16045675D01*
X13533525Y-16108828D01*
X13635385Y-16178327D01*
X13730838Y-16243765D01*
X13778650Y-16276717D01*
X13845895Y-16321873D01*
X13902836Y-16357657D01*
X13942046Y-16379538D01*
X13954781Y-16384163D01*
X13973317Y-16371685D01*
X14014341Y-16336852D01*
X14073875Y-16283278D01*
X14147942Y-16214583D01*
X14232565Y-16134381D01*
X14286085Y-16082886D01*
X14379719Y-15990886D01*
X14460641Y-15908599D01*
X14525577Y-15839545D01*
X14571258Y-15787244D01*
X14594411Y-15755216D01*
X14596632Y-15748716D01*
X14586324Y-15723994D01*
X14557839Y-15674005D01*
X14514337Y-15603812D01*
X14458977Y-15518475D01*
X14394920Y-15423056D01*
X14376703Y-15396454D01*
X14310327Y-15299767D01*
X14250778Y-15212717D01*
X14201384Y-15140195D01*
X14165475Y-15087093D01*
X14146381Y-15058303D01*
X14144536Y-15055326D01*
X14147295Y-15032382D01*
X14161938Y-14981936D01*
X14185913Y-14910641D01*
X14216666Y-14825147D01*
X14251644Y-14732107D01*
X14288293Y-14638174D01*
X14324061Y-14549999D01*
X14356394Y-14474234D01*
X14382738Y-14417531D01*
X14400542Y-14386543D01*
X14401807Y-14385057D01*
X14412694Y-14376201D01*
X14431082Y-14367443D01*
X14461006Y-14357877D01*
X14506503Y-14346596D01*
X14571609Y-14332693D01*
X14660361Y-14315263D01*
X14776793Y-14293398D01*
X14924942Y-14266191D01*
X14957018Y-14260341D01*
X15052086Y-14241974D01*
X15134965Y-14224005D01*
X15198330Y-14208169D01*
X15234858Y-14196200D01*
X15239756Y-14193410D01*
X15247827Y-14168672D01*
X15254387Y-14113390D01*
X15259433Y-14033989D01*
X15262959Y-13936896D01*
X15264961Y-13828538D01*
X15265436Y-13715340D01*
X15264377Y-13603728D01*
X15261782Y-13500129D01*
X15257646Y-13410968D01*
X15251963Y-13342672D01*
X15244731Y-13301666D01*
X15240371Y-13293274D01*
X15216098Y-13284808D01*
X15160826Y-13271035D01*
X15080062Y-13253150D01*
X14979312Y-13232348D01*
X14864083Y-13209823D01*
X14801302Y-13198018D01*
X14682187Y-13175751D01*
X14575965Y-13155579D01*
X14487827Y-13138515D01*
X14422966Y-13125569D01*
X14386574Y-13117755D01*
X14380584Y-13116022D01*
X14370461Y-13096490D01*
X14349062Y-13049443D01*
X14319239Y-12981603D01*
X14283845Y-12899691D01*
X14245732Y-12810428D01*
X14207753Y-12720535D01*
X14172760Y-12636735D01*
X14143606Y-12565747D01*
X14123143Y-12514294D01*
X14114223Y-12489097D01*
X14114057Y-12487996D01*
X14124169Y-12468119D01*
X14152517Y-12422377D01*
X14196123Y-12355317D01*
X14252006Y-12271484D01*
X14317187Y-12175426D01*
X14355079Y-12120250D01*
X14424125Y-12019081D01*
X14485450Y-11927230D01*
X14536063Y-11849344D01*
X14572971Y-11790069D01*
X14593182Y-11754051D01*
X14596101Y-11745977D01*
X14583553Y-11727184D01*
X14548863Y-11687057D01*
X14496463Y-11630093D01*
X14430784Y-11560785D01*
X14356256Y-11483631D01*
X14277313Y-11403125D01*
X14198383Y-11323763D01*
X14123900Y-11250040D01*
X14058294Y-11186452D01*
X14005996Y-11137494D01*
X13971439Y-11107661D01*
X13959878Y-11100542D01*
X13941054Y-11110553D01*
X13896031Y-11138678D01*
X13829187Y-11182054D01*
X13744899Y-11237818D01*
X13647544Y-11303106D01*
X13574107Y-11352846D01*
X13203067Y-11605151D01*
X12584495Y-11350155D01*
X12500675Y-10905531D01*
X12416854Y-10460907D01*
X11491406Y-10460907D01*
X11407586Y-10905531D01*
X11407586Y-10905531D01*
G37*
X11407586Y-10905531D02*
X11323765Y-11350155D01*
X11014480Y-11477653D01*
X10705194Y-11605151D01*
X10334154Y-11352846D01*
X10230243Y-11282596D01*
X10136313Y-11219872D01*
X10056748Y-11167538D01*
X9995930Y-11128457D01*
X9958243Y-11105493D01*
X9947979Y-11100542D01*
X9929490Y-11113276D01*
X9889980Y-11148482D01*
X9833878Y-11201662D01*
X9765613Y-11268318D01*
X9689614Y-11343954D01*
X9610308Y-11424072D01*
X9532125Y-11504174D01*
X9459493Y-11579764D01*
X9396841Y-11646345D01*
X9348597Y-11699418D01*
X9319190Y-11734487D01*
X9312159Y-11746223D01*
X9322277Y-11767860D01*
X9350641Y-11815262D01*
X9394271Y-11883793D01*
X9450182Y-11968815D01*
X9515394Y-12065693D01*
X9553181Y-12120950D01*
X9622057Y-12221848D01*
X9683260Y-12312899D01*
X9733822Y-12389570D01*
X9770772Y-12447328D01*
X9791142Y-12481643D01*
X9794203Y-12488854D01*
X9787264Y-12509348D01*
X9768349Y-12557113D01*
X9740313Y-12625432D01*
X9706009Y-12707589D01*
X9668291Y-12796870D01*
X9630013Y-12886558D01*
X9594030Y-12969938D01*
X9563194Y-13040294D01*
X9540361Y-13090910D01*
X9528383Y-13115071D01*
X9527676Y-13116022D01*
X9508869Y-13120636D01*
X9458782Y-13130928D01*
X9382607Y-13145887D01*
X9285535Y-13164501D01*
X9172757Y-13185759D01*
X9106958Y-13198018D01*
X8986450Y-13220962D01*
X8877603Y-13242795D01*
X8785924Y-13262322D01*
X8716919Y-13278348D01*
X8676096Y-13289679D01*
X8667889Y-13293274D01*
X8659852Y-13317606D01*
X8653367Y-13372559D01*
X8648430Y-13451708D01*
X8645036Y-13548626D01*
X8643182Y-13656887D01*
X8642862Y-13770065D01*
X8644073Y-13881735D01*
X8646810Y-13985468D01*
X8651069Y-14074841D01*
X8656845Y-14143426D01*
X8664133Y-14184797D01*
X8668505Y-14193410D01*
X8694636Y-14203733D01*
X8750007Y-14218492D01*
X8827293Y-14235952D01*
X8919170Y-14254380D01*
X8951242Y-14260341D01*
X9105876Y-14288666D01*
X9228025Y-14311476D01*
X9321727Y-14329680D01*
X9391016Y-14344183D01*
X9439929Y-14355892D01*
X9472503Y-14365715D01*
X9492772Y-14374556D01*
X9504774Y-14383324D01*
X9506453Y-14385057D01*
X9523216Y-14412971D01*
X9548786Y-14467295D01*
X9580612Y-14541377D01*
X9616140Y-14628565D01*
X9652817Y-14722208D01*
X9688089Y-14815652D01*
X9719404Y-14902247D01*
X9744207Y-14975340D01*
X9759946Y-15028278D01*
X9764068Y-15054411D01*
X9763724Y-15055326D01*
X9749759Y-15076686D01*
X9718078Y-15123684D01*
X9672009Y-15191427D01*
X9614882Y-15275023D01*
X9550027Y-15369582D01*
X9531557Y-15396454D01*
X9465701Y-15493875D01*
X9407750Y-15582763D01*
X9360862Y-15658012D01*
X9328193Y-15714520D01*
X9312900Y-15747181D01*
X9312159Y-15751193D01*
X9325008Y-15772284D01*
X9360512Y-15814064D01*
X9414107Y-15872045D01*
X9481229Y-15941735D01*
X9557313Y-16018645D01*
X9637796Y-16098283D01*
X9718113Y-16176161D01*
X9793701Y-16247786D01*
X9859995Y-16308670D01*
X9912431Y-16354321D01*
X9946445Y-16380250D01*
X9955855Y-16384483D01*
X9977757Y-16374512D01*
X10022600Y-16347620D01*
X10083079Y-16308336D01*
X10129611Y-16276717D01*
X10213925Y-16218698D01*
X10313774Y-16150384D01*
X10413927Y-16082179D01*
X10467773Y-16045675D01*
X10650029Y-15922400D01*
X10803019Y-16005120D01*
X10872718Y-16041359D01*
X10931986Y-16069526D01*
X10972089Y-16085591D01*
X10982297Y-16087826D01*
X10994571Y-16071322D01*
X11018787Y-16024682D01*
X11053137Y-15952209D01*
X11095812Y-15858206D01*
X11145006Y-15746974D01*
X11198910Y-15622815D01*
X11255716Y-15490032D01*
X11313618Y-15352927D01*
X11370807Y-15215802D01*
X11425476Y-15082958D01*
X11475816Y-14958698D01*
X11520020Y-14847325D01*
X11556281Y-14753139D01*
X11582791Y-14680444D01*
X11597742Y-14633541D01*
X11600146Y-14617433D01*
X11581089Y-14596886D01*
X11539364Y-14563533D01*
X11483694Y-14524302D01*
X11479022Y-14521199D01*
X11335136Y-14406023D01*
X11219117Y-14271653D01*
X11131970Y-14122384D01*
X11074701Y-13962513D01*
X11048314Y-13796337D01*
X11053815Y-13628152D01*
X11092210Y-13462255D01*
X11164505Y-13302942D01*
X11185774Y-13268087D01*
X11296404Y-13127337D01*
X11427098Y-13014314D01*
X11573336Y-12929603D01*
X11730592Y-12873794D01*
X11894343Y-12847474D01*
X12060067Y-12851230D01*
X12223238Y-12885650D01*
X12379335Y-12951323D01*
X12523833Y-13048835D01*
X12568531Y-13088413D01*
X12682288Y-13212303D01*
X12765182Y-13342724D01*
X12822044Y-13488915D01*
X12853713Y-13633688D01*
X12861531Y-13796460D01*
X12835462Y-13960040D01*
X12778155Y-14118898D01*
X12692256Y-14267506D01*
X12580414Y-14400335D01*
X12445277Y-14511856D01*
X12427517Y-14523611D01*
X12371250Y-14562108D01*
X12328477Y-14595463D01*
X12308028Y-14616760D01*
X12307731Y-14617433D01*
X12312121Y-14640471D01*
X12329524Y-14692757D01*
X12358132Y-14769990D01*
X12396135Y-14867868D01*
X12441726Y-14982091D01*
X12493097Y-15108358D01*
X12548438Y-15242367D01*
X12605942Y-15379818D01*
X12663799Y-15516408D01*
X12720202Y-15647837D01*
X12773342Y-15769805D01*
X12821410Y-15878009D01*
X12862599Y-15968149D01*
X12895099Y-16035923D01*
X12917103Y-16077030D01*
X12925964Y-16087826D01*
X12953040Y-16079419D01*
X13003703Y-16056872D01*
X13069217Y-16024213D01*
X13105241Y-16005120D01*
X13258232Y-15922400D01*
X13440488Y-16045675D01*
X13533525Y-16108828D01*
X13635385Y-16178327D01*
X13730838Y-16243765D01*
X13778650Y-16276717D01*
X13845895Y-16321873D01*
X13902836Y-16357657D01*
X13942046Y-16379538D01*
X13954781Y-16384163D01*
X13973317Y-16371685D01*
X14014341Y-16336852D01*
X14073875Y-16283278D01*
X14147942Y-16214583D01*
X14232565Y-16134381D01*
X14286085Y-16082886D01*
X14379719Y-15990886D01*
X14460641Y-15908599D01*
X14525577Y-15839545D01*
X14571258Y-15787244D01*
X14594411Y-15755216D01*
X14596632Y-15748716D01*
X14586324Y-15723994D01*
X14557839Y-15674005D01*
X14514337Y-15603812D01*
X14458977Y-15518475D01*
X14394920Y-15423056D01*
X14376703Y-15396454D01*
X14310327Y-15299767D01*
X14250778Y-15212717D01*
X14201384Y-15140195D01*
X14165475Y-15087093D01*
X14146381Y-15058303D01*
X14144536Y-15055326D01*
X14147295Y-15032382D01*
X14161938Y-14981936D01*
X14185913Y-14910641D01*
X14216666Y-14825147D01*
X14251644Y-14732107D01*
X14288293Y-14638174D01*
X14324061Y-14549999D01*
X14356394Y-14474234D01*
X14382738Y-14417531D01*
X14400542Y-14386543D01*
X14401807Y-14385057D01*
X14412694Y-14376201D01*
X14431082Y-14367443D01*
X14461006Y-14357877D01*
X14506503Y-14346596D01*
X14571609Y-14332693D01*
X14660361Y-14315263D01*
X14776793Y-14293398D01*
X14924942Y-14266191D01*
X14957018Y-14260341D01*
X15052086Y-14241974D01*
X15134965Y-14224005D01*
X15198330Y-14208169D01*
X15234858Y-14196200D01*
X15239756Y-14193410D01*
X15247827Y-14168672D01*
X15254387Y-14113390D01*
X15259433Y-14033989D01*
X15262959Y-13936896D01*
X15264961Y-13828538D01*
X15265436Y-13715340D01*
X15264377Y-13603728D01*
X15261782Y-13500129D01*
X15257646Y-13410968D01*
X15251963Y-13342672D01*
X15244731Y-13301666D01*
X15240371Y-13293274D01*
X15216098Y-13284808D01*
X15160826Y-13271035D01*
X15080062Y-13253150D01*
X14979312Y-13232348D01*
X14864083Y-13209823D01*
X14801302Y-13198018D01*
X14682187Y-13175751D01*
X14575965Y-13155579D01*
X14487827Y-13138515D01*
X14422966Y-13125569D01*
X14386574Y-13117755D01*
X14380584Y-13116022D01*
X14370461Y-13096490D01*
X14349062Y-13049443D01*
X14319239Y-12981603D01*
X14283845Y-12899691D01*
X14245732Y-12810428D01*
X14207753Y-12720535D01*
X14172760Y-12636735D01*
X14143606Y-12565747D01*
X14123143Y-12514294D01*
X14114223Y-12489097D01*
X14114057Y-12487996D01*
X14124169Y-12468119D01*
X14152517Y-12422377D01*
X14196123Y-12355317D01*
X14252006Y-12271484D01*
X14317187Y-12175426D01*
X14355079Y-12120250D01*
X14424125Y-12019081D01*
X14485450Y-11927230D01*
X14536063Y-11849344D01*
X14572971Y-11790069D01*
X14593182Y-11754051D01*
X14596101Y-11745977D01*
X14583553Y-11727184D01*
X14548863Y-11687057D01*
X14496463Y-11630093D01*
X14430784Y-11560785D01*
X14356256Y-11483631D01*
X14277313Y-11403125D01*
X14198383Y-11323763D01*
X14123900Y-11250040D01*
X14058294Y-11186452D01*
X14005996Y-11137494D01*
X13971439Y-11107661D01*
X13959878Y-11100542D01*
X13941054Y-11110553D01*
X13896031Y-11138678D01*
X13829187Y-11182054D01*
X13744899Y-11237818D01*
X13647544Y-11303106D01*
X13574107Y-11352846D01*
X13203067Y-11605151D01*
X12584495Y-11350155D01*
X12500675Y-10905531D01*
X12416854Y-10460907D01*
X11491406Y-10460907D01*
X11407586Y-10905531D01*
G36*
X14338300Y-9296400D02*
G01*
X15773400Y-9296400D01*
X15773400Y-8967437D01*
X15441084Y-8967437D01*
X15431798Y-8973289D01*
X15403386Y-8977420D01*
X15364179Y-8978900D01*
X15283042Y-8978900D01*
X15175796Y-8699719D01*
X15145261Y-8621103D01*
X15117404Y-8551034D01*
X15093583Y-8492798D01*
X15075159Y-8449679D01*
X15063489Y-8424963D01*
X15060213Y-8420319D01*
X15053333Y-8431468D01*
X15039039Y-8462438D01*
X15018942Y-8509309D01*
X14994650Y-8568157D01*
X14967773Y-8635063D01*
X14939921Y-8706104D01*
X14912702Y-8777358D01*
X14902637Y-8804275D01*
X14900905Y-8816545D01*
X14910621Y-8823265D01*
X14936791Y-8826040D01*
X14971942Y-8826500D01*
X15049500Y-8826500D01*
X15049500Y-8978900D01*
X14670881Y-8978900D01*
X14983397Y-8197850D01*
X15057724Y-8194340D01*
X15132050Y-8190830D01*
X15284450Y-8573403D01*
X15321472Y-8666362D01*
X15355506Y-8751869D01*
X15385406Y-8827039D01*
X15410025Y-8888985D01*
X15428217Y-8934822D01*
X15438833Y-8961665D01*
X15441084Y-8967437D01*
X15773400Y-8967437D01*
X15773400Y-7861300D01*
X14338300Y-7861300D01*
X14338300Y-9296400D01*
X14338300Y-9296400D01*
G37*
X14338300Y-9296400D02*
X15773400Y-9296400D01*
X15773400Y-8967437D01*
X15441084Y-8967437D01*
X15431798Y-8973289D01*
X15403386Y-8977420D01*
X15364179Y-8978900D01*
X15283042Y-8978900D01*
X15175796Y-8699719D01*
X15145261Y-8621103D01*
X15117404Y-8551034D01*
X15093583Y-8492798D01*
X15075159Y-8449679D01*
X15063489Y-8424963D01*
X15060213Y-8420319D01*
X15053333Y-8431468D01*
X15039039Y-8462438D01*
X15018942Y-8509309D01*
X14994650Y-8568157D01*
X14967773Y-8635063D01*
X14939921Y-8706104D01*
X14912702Y-8777358D01*
X14902637Y-8804275D01*
X14900905Y-8816545D01*
X14910621Y-8823265D01*
X14936791Y-8826040D01*
X14971942Y-8826500D01*
X15049500Y-8826500D01*
X15049500Y-8978900D01*
X14670881Y-8978900D01*
X14983397Y-8197850D01*
X15057724Y-8194340D01*
X15132050Y-8190830D01*
X15284450Y-8573403D01*
X15321472Y-8666362D01*
X15355506Y-8751869D01*
X15385406Y-8827039D01*
X15410025Y-8888985D01*
X15428217Y-8934822D01*
X15438833Y-8961665D01*
X15441084Y-8967437D01*
X15773400Y-8967437D01*
X15773400Y-7861300D01*
X14338300Y-7861300D01*
X14338300Y-9296400D01*
G36*
X12750800Y-9296400D02*
G01*
X14185900Y-9296400D01*
X14185900Y-8971532D01*
X13847640Y-8971532D01*
X13832392Y-8976496D01*
X13797204Y-8978648D01*
X13769576Y-8978900D01*
X13680341Y-8978900D01*
X13581154Y-8845550D01*
X13543529Y-8795915D01*
X13510909Y-8754660D01*
X13486413Y-8725601D01*
X13473159Y-8712554D01*
X13472181Y-8712200D01*
X13461373Y-8721838D01*
X13438764Y-8748202D01*
X13407477Y-8787464D01*
X13370637Y-8835798D01*
X13363773Y-8845010D01*
X13265150Y-8977820D01*
X13179425Y-8978360D01*
X13136487Y-8977710D01*
X13105733Y-8975488D01*
X13093705Y-8972172D01*
X13093700Y-8972101D01*
X13100976Y-8960243D01*
X13121157Y-8931563D01*
X13151779Y-8889457D01*
X13190374Y-8837323D01*
X13227512Y-8787788D01*
X13271633Y-8728740D01*
X13310484Y-8675770D01*
X13341406Y-8632581D01*
X13361742Y-8602873D01*
X13368636Y-8591214D01*
X13368660Y-8582760D01*
X13363043Y-8568489D01*
X13350409Y-8546402D01*
X13329381Y-8514500D01*
X13298581Y-8470782D01*
X13256632Y-8413250D01*
X13202158Y-8339903D01*
X13133780Y-8248742D01*
X13121762Y-8232775D01*
X13090686Y-8191500D01*
X13266068Y-8191500D01*
X13365254Y-8324850D01*
X13402741Y-8374405D01*
X13435049Y-8415530D01*
X13459109Y-8444436D01*
X13471855Y-8457332D01*
X13472746Y-8457660D01*
X13482996Y-8447825D01*
X13505135Y-8421309D01*
X13536085Y-8381948D01*
X13572767Y-8333584D01*
X13579673Y-8324310D01*
X13678295Y-8191500D01*
X13760648Y-8191500D01*
X13802635Y-8192456D01*
X13832304Y-8194958D01*
X13843000Y-8198298D01*
X13835741Y-8210182D01*
X13815620Y-8238866D01*
X13785126Y-8280913D01*
X13746745Y-8332887D01*
X13712055Y-8379273D01*
X13668371Y-8437558D01*
X13629752Y-8489420D01*
X13598917Y-8531185D01*
X13578580Y-8559177D01*
X13571791Y-8569025D01*
X13576217Y-8583976D01*
X13594908Y-8616516D01*
X13626285Y-8664379D01*
X13668769Y-8725301D01*
X13720780Y-8797016D01*
X13780740Y-8877261D01*
X13846492Y-8963025D01*
X13847640Y-8971532D01*
X14185900Y-8971532D01*
X14185900Y-7861300D01*
X12750800Y-7861300D01*
X12750800Y-9296400D01*
X12750800Y-9296400D01*
G37*
X12750800Y-9296400D02*
X14185900Y-9296400D01*
X14185900Y-8971532D01*
X13847640Y-8971532D01*
X13832392Y-8976496D01*
X13797204Y-8978648D01*
X13769576Y-8978900D01*
X13680341Y-8978900D01*
X13581154Y-8845550D01*
X13543529Y-8795915D01*
X13510909Y-8754660D01*
X13486413Y-8725601D01*
X13473159Y-8712554D01*
X13472181Y-8712200D01*
X13461373Y-8721838D01*
X13438764Y-8748202D01*
X13407477Y-8787464D01*
X13370637Y-8835798D01*
X13363773Y-8845010D01*
X13265150Y-8977820D01*
X13179425Y-8978360D01*
X13136487Y-8977710D01*
X13105733Y-8975488D01*
X13093705Y-8972172D01*
X13093700Y-8972101D01*
X13100976Y-8960243D01*
X13121157Y-8931563D01*
X13151779Y-8889457D01*
X13190374Y-8837323D01*
X13227512Y-8787788D01*
X13271633Y-8728740D01*
X13310484Y-8675770D01*
X13341406Y-8632581D01*
X13361742Y-8602873D01*
X13368636Y-8591214D01*
X13368660Y-8582760D01*
X13363043Y-8568489D01*
X13350409Y-8546402D01*
X13329381Y-8514500D01*
X13298581Y-8470782D01*
X13256632Y-8413250D01*
X13202158Y-8339903D01*
X13133780Y-8248742D01*
X13121762Y-8232775D01*
X13090686Y-8191500D01*
X13266068Y-8191500D01*
X13365254Y-8324850D01*
X13402741Y-8374405D01*
X13435049Y-8415530D01*
X13459109Y-8444436D01*
X13471855Y-8457332D01*
X13472746Y-8457660D01*
X13482996Y-8447825D01*
X13505135Y-8421309D01*
X13536085Y-8381948D01*
X13572767Y-8333584D01*
X13579673Y-8324310D01*
X13678295Y-8191500D01*
X13760648Y-8191500D01*
X13802635Y-8192456D01*
X13832304Y-8194958D01*
X13843000Y-8198298D01*
X13835741Y-8210182D01*
X13815620Y-8238866D01*
X13785126Y-8280913D01*
X13746745Y-8332887D01*
X13712055Y-8379273D01*
X13668371Y-8437558D01*
X13629752Y-8489420D01*
X13598917Y-8531185D01*
X13578580Y-8559177D01*
X13571791Y-8569025D01*
X13576217Y-8583976D01*
X13594908Y-8616516D01*
X13626285Y-8664379D01*
X13668769Y-8725301D01*
X13720780Y-8797016D01*
X13780740Y-8877261D01*
X13846492Y-8963025D01*
X13847640Y-8971532D01*
X14185900Y-8971532D01*
X14185900Y-7861300D01*
X12750800Y-7861300D01*
X12750800Y-9296400D01*
G36*
X11163300Y-9296400D02*
G01*
X12598400Y-9296400D01*
X12598400Y-8191500D01*
X12280900Y-8191500D01*
X12280900Y-8343900D01*
X11963400Y-8343900D01*
X11963400Y-8978900D01*
X11811000Y-8978900D01*
X11811000Y-8343900D01*
X11493500Y-8343900D01*
X11493500Y-8191500D01*
X12280900Y-8191500D01*
X12598400Y-8191500D01*
X12598400Y-7861300D01*
X11163300Y-7861300D01*
X11163300Y-9296400D01*
X11163300Y-9296400D01*
G37*
X11163300Y-9296400D02*
X12598400Y-9296400D01*
X12598400Y-8191500D01*
X12280900Y-8191500D01*
X12280900Y-8343900D01*
X11963400Y-8343900D01*
X11963400Y-8978900D01*
X11811000Y-8978900D01*
X11811000Y-8343900D01*
X11493500Y-8343900D01*
X11493500Y-8191500D01*
X12280900Y-8191500D01*
X12598400Y-8191500D01*
X12598400Y-7861300D01*
X11163300Y-7861300D01*
X11163300Y-9296400D01*
G36*
X9575800Y-9296400D02*
G01*
X11010900Y-9296400D01*
X11010900Y-8191500D01*
X10693400Y-8191500D01*
X10693400Y-8978900D01*
X9906000Y-8978900D01*
X9906000Y-8826500D01*
X10541000Y-8826500D01*
X10541000Y-8661400D01*
X10058400Y-8661400D01*
X10058400Y-8509000D01*
X10541000Y-8509000D01*
X10541000Y-8343900D01*
X9906000Y-8343900D01*
X9906000Y-8191500D01*
X10693400Y-8191500D01*
X11010900Y-8191500D01*
X11010900Y-7861300D01*
X9575800Y-7861300D01*
X9575800Y-9296400D01*
X9575800Y-9296400D01*
G37*
X9575800Y-9296400D02*
X11010900Y-9296400D01*
X11010900Y-8191500D01*
X10693400Y-8191500D01*
X10693400Y-8978900D01*
X9906000Y-8978900D01*
X9906000Y-8826500D01*
X10541000Y-8826500D01*
X10541000Y-8661400D01*
X10058400Y-8661400D01*
X10058400Y-8509000D01*
X10541000Y-8509000D01*
X10541000Y-8343900D01*
X9906000Y-8343900D01*
X9906000Y-8191500D01*
X10693400Y-8191500D01*
X11010900Y-8191500D01*
X11010900Y-7861300D01*
X9575800Y-7861300D01*
X9575800Y-9296400D01*
G36*
X7988300Y-9296400D02*
G01*
X9423400Y-9296400D01*
X9423400Y-8191500D01*
X9105900Y-8191500D01*
X9105900Y-8978900D01*
X8318500Y-8978900D01*
X8318500Y-8826500D01*
X8953500Y-8826500D01*
X8953500Y-8343900D01*
X8318500Y-8343900D01*
X8318500Y-8191500D01*
X9105900Y-8191500D01*
X9423400Y-8191500D01*
X9423400Y-7861300D01*
X7988300Y-7861300D01*
X7988300Y-9296400D01*
X7988300Y-9296400D01*
G37*
X7988300Y-9296400D02*
X9423400Y-9296400D01*
X9423400Y-8191500D01*
X9105900Y-8191500D01*
X9105900Y-8978900D01*
X8318500Y-8978900D01*
X8318500Y-8826500D01*
X8953500Y-8826500D01*
X8953500Y-8343900D01*
X8318500Y-8343900D01*
X8318500Y-8191500D01*
X9105900Y-8191500D01*
X9423400Y-8191500D01*
X9423400Y-7861300D01*
X7988300Y-7861300D01*
X7988300Y-9296400D01*
D13*
X-1125000Y-5196400D02*
X-4325000Y-5196400D01*
X21727000Y-5061600D02*
X24927000Y-5061600D01*
X24927000Y-14661600D02*
X24927000Y-14361600D01*
X24927000Y-5061600D02*
X24927000Y-5361600D01*
D14*
X26427000Y-6161600D02*
G75*
G03X26427000Y-6361600I0J-100000D01*
G01*
D13*
X-4325000Y-5196400D02*
X-4325000Y-5496400D01*
X21727000Y-5361600D02*
X21727000Y-5061600D01*
X21727000Y-14661600D02*
X24927000Y-14661600D01*
D14*
X-5825000Y-13696400D02*
G75*
G03X-5825000Y-13496400I0J100000D01*
G01*
D13*
X-1125000Y-14496400D02*
X-1125000Y-14796400D01*
X-1125000Y-5496400D02*
X-1125000Y-5196400D01*
X-4325000Y-14796400D02*
X-4325000Y-14496400D01*
X-1125000Y-14796400D02*
X-4325000Y-14796400D01*
D14*
X-5825000Y-13496400D02*
G75*
G03X-5825000Y-13696400I0J-100000D01*
G01*
X26427000Y-6361600D02*
G75*
G03X26427000Y-6161600I0J100000D01*
G01*
D13*
X21727000Y-14361600D02*
X21727000Y-14661600D01*
D15*
X4050000Y12850000D02*
G75*
G03X4050000Y12850000I-700000J0D01*
G01*
X7600000Y8200000D02*
G75*
G03X7600000Y8200000I-700000J0D01*
G01*
X35650400Y-3200400D02*
G75*
G03X35650400Y-3200400I-700000J0D01*
G01*
X28350000Y-12650000D02*
G75*
G03X28350000Y-12650000I-700000J0D01*
G01*
X23050000Y-16400000D02*
G75*
G03X23050000Y-16400000I-700000J0D01*
G01*
X31050000Y-14800000D02*
G75*
G03X31050000Y-14800000I-700000J0D01*
G01*
X-5700000Y-20700000D02*
G75*
G03X-5700000Y-20700000I-700000J0D01*
G01*
X450000Y-5200000D02*
G75*
G03X450000Y-5200000I-700000J0D01*
G01*
X20050000Y6900000D02*
G75*
G03X20050000Y6900000I-700000J0D01*
G01*
X30350000Y-2200000D02*
G75*
G03X30350000Y-2200000I-700000J0D01*
G01*
X-5750000Y-17000000D02*
G75*
G03X-5750000Y-17000000I-700000J0D01*
G01*
X19350000Y-27350000D02*
G75*
G03X19350000Y-27350000I-700000J0D01*
G01*
X-100000Y-28850000D02*
G75*
G03X-100000Y-28850000I-700000J0D01*
G01*
X-13950000Y-3450000D02*
G75*
G03X-13950000Y-3450000I-700000J0D01*
G01*
X900000Y12200000D02*
G75*
G03X900000Y12200000I-700000J0D01*
G01*
D16*
X20823333Y-4592380D02*
X20823333Y-5306666D01*
X20870952Y-5449523D01*
X20966190Y-5544761D01*
X21109047Y-5592380D01*
X21204285Y-5592380D01*
X19823333Y-5592380D02*
X20394761Y-5592380D01*
X20109047Y-5592380D02*
X20109047Y-4592380D01*
X20204285Y-4735238D01*
X20299523Y-4830476D01*
X20394761Y-4878095D01*
X7538095Y14927619D02*
X6966666Y14927619D01*
X7252380Y13927619D02*
X7252380Y14927619D01*
X6633333Y13927619D02*
X6633333Y14927619D01*
X6252380Y14927619D01*
X6157142Y14880000D01*
X6109523Y14832380D01*
X6061904Y14737142D01*
X6061904Y14594285D01*
X6109523Y14499047D01*
X6157142Y14451428D01*
X6252380Y14403809D01*
X6633333Y14403809D01*
X5109523Y13927619D02*
X5680952Y13927619D01*
X5395238Y13927619D02*
X5395238Y14927619D01*
X5490476Y14784761D01*
X5585714Y14689523D01*
X5680952Y14641904D01*
X4252380Y14927619D02*
X4442857Y14927619D01*
X4538095Y14880000D01*
X4585714Y14832380D01*
X4680952Y14689523D01*
X4728571Y14499047D01*
X4728571Y14118095D01*
X4680952Y14022857D01*
X4633333Y13975238D01*
X4538095Y13927619D01*
X4347619Y13927619D01*
X4252380Y13975238D01*
X4204761Y14022857D01*
X4157142Y14118095D01*
X4157142Y14356190D01*
X4204761Y14451428D01*
X4252380Y14499047D01*
X4347619Y14546666D01*
X4538095Y14546666D01*
X4633333Y14499047D01*
X4680952Y14451428D01*
X4728571Y14356190D01*
X6178095Y10137619D02*
X5606666Y10137619D01*
X5892380Y9137619D02*
X5892380Y10137619D01*
X5273333Y9137619D02*
X5273333Y10137619D01*
X4892380Y10137619D01*
X4797142Y10090000D01*
X4749523Y10042380D01*
X4701904Y9947142D01*
X4701904Y9804285D01*
X4749523Y9709047D01*
X4797142Y9661428D01*
X4892380Y9613809D01*
X5273333Y9613809D01*
X3749523Y9137619D02*
X4320952Y9137619D01*
X4035238Y9137619D02*
X4035238Y10137619D01*
X4130476Y9994761D01*
X4225714Y9899523D01*
X4320952Y9851904D01*
X2844761Y10137619D02*
X3320952Y10137619D01*
X3368571Y9661428D01*
X3320952Y9709047D01*
X3225714Y9756666D01*
X2987619Y9756666D01*
X2892380Y9709047D01*
X2844761Y9661428D01*
X2797142Y9566190D01*
X2797142Y9328095D01*
X2844761Y9232857D01*
X2892380Y9185238D01*
X2987619Y9137619D01*
X3225714Y9137619D01*
X3320952Y9185238D01*
X3368571Y9232857D01*
X36238495Y-4192780D02*
X35667066Y-4192780D01*
X35952780Y-5192780D02*
X35952780Y-4192780D01*
X35333733Y-5192780D02*
X35333733Y-4192780D01*
X34952780Y-4192780D01*
X34857542Y-4240400D01*
X34809923Y-4288019D01*
X34762304Y-4383257D01*
X34762304Y-4526114D01*
X34809923Y-4621352D01*
X34857542Y-4668971D01*
X34952780Y-4716590D01*
X35333733Y-4716590D01*
X33809923Y-5192780D02*
X34381352Y-5192780D01*
X34095638Y-5192780D02*
X34095638Y-4192780D01*
X34190876Y-4335638D01*
X34286114Y-4430876D01*
X34381352Y-4478495D01*
X32952780Y-4526114D02*
X32952780Y-5192780D01*
X33190876Y-4145161D02*
X33428971Y-4859447D01*
X32809923Y-4859447D01*
X32108095Y-10602380D02*
X31536666Y-10602380D01*
X31822380Y-11602380D02*
X31822380Y-10602380D01*
X31203333Y-11602380D02*
X31203333Y-10602380D01*
X30822380Y-10602380D01*
X30727142Y-10650000D01*
X30679523Y-10697619D01*
X30631904Y-10792857D01*
X30631904Y-10935714D01*
X30679523Y-11030952D01*
X30727142Y-11078571D01*
X30822380Y-11126190D01*
X31203333Y-11126190D01*
X29679523Y-11602380D02*
X30250952Y-11602380D01*
X29965238Y-11602380D02*
X29965238Y-10602380D01*
X30060476Y-10745238D01*
X30155714Y-10840476D01*
X30250952Y-10888095D01*
X29346190Y-10602380D02*
X28727142Y-10602380D01*
X29060476Y-10983333D01*
X28917619Y-10983333D01*
X28822380Y-11030952D01*
X28774761Y-11078571D01*
X28727142Y-11173809D01*
X28727142Y-11411904D01*
X28774761Y-11507142D01*
X28822380Y-11554761D01*
X28917619Y-11602380D01*
X29203333Y-11602380D01*
X29298571Y-11554761D01*
X29346190Y-11507142D01*
X24088095Y-17300380D02*
X23516666Y-17300380D01*
X23802380Y-18300380D02*
X23802380Y-17300380D01*
X23183333Y-18300380D02*
X23183333Y-17300380D01*
X22802380Y-17300380D01*
X22707142Y-17348000D01*
X22659523Y-17395619D01*
X22611904Y-17490857D01*
X22611904Y-17633714D01*
X22659523Y-17728952D01*
X22707142Y-17776571D01*
X22802380Y-17824190D01*
X23183333Y-17824190D01*
X21659523Y-18300380D02*
X22230952Y-18300380D01*
X21945238Y-18300380D02*
X21945238Y-17300380D01*
X22040476Y-17443238D01*
X22135714Y-17538476D01*
X22230952Y-17586095D01*
X21278571Y-17395619D02*
X21230952Y-17348000D01*
X21135714Y-17300380D01*
X20897619Y-17300380D01*
X20802380Y-17348000D01*
X20754761Y-17395619D01*
X20707142Y-17490857D01*
X20707142Y-17586095D01*
X20754761Y-17728952D01*
X21326190Y-18300380D01*
X20707142Y-18300380D01*
X32088095Y-15700380D02*
X31516666Y-15700380D01*
X31802380Y-16700380D02*
X31802380Y-15700380D01*
X31183333Y-16700380D02*
X31183333Y-15700380D01*
X30802380Y-15700380D01*
X30707142Y-15748000D01*
X30659523Y-15795619D01*
X30611904Y-15890857D01*
X30611904Y-16033714D01*
X30659523Y-16128952D01*
X30707142Y-16176571D01*
X30802380Y-16224190D01*
X31183333Y-16224190D01*
X29659523Y-16700380D02*
X30230952Y-16700380D01*
X29945238Y-16700380D02*
X29945238Y-15700380D01*
X30040476Y-15843238D01*
X30135714Y-15938476D01*
X30230952Y-15986095D01*
X28707142Y-16700380D02*
X29278571Y-16700380D01*
X28992857Y-16700380D02*
X28992857Y-15700380D01*
X29088095Y-15843238D01*
X29183333Y-15938476D01*
X29278571Y-15986095D01*
X-4661904Y-21600380D02*
X-5233333Y-21600380D01*
X-4947619Y-22600380D02*
X-4947619Y-21600380D01*
X-5566666Y-22600380D02*
X-5566666Y-21600380D01*
X-5947619Y-21600380D01*
X-6042857Y-21648000D01*
X-6090476Y-21695619D01*
X-6138095Y-21790857D01*
X-6138095Y-21933714D01*
X-6090476Y-22028952D01*
X-6042857Y-22076571D01*
X-5947619Y-22124190D01*
X-5566666Y-22124190D01*
X-7090476Y-22600380D02*
X-6519047Y-22600380D01*
X-6804761Y-22600380D02*
X-6804761Y-21600380D01*
X-6709523Y-21743238D01*
X-6614285Y-21838476D01*
X-6519047Y-21886095D01*
X-7709523Y-21600380D02*
X-7804761Y-21600380D01*
X-7900000Y-21648000D01*
X-7947619Y-21695619D01*
X-7995238Y-21790857D01*
X-8042857Y-21981333D01*
X-8042857Y-22219428D01*
X-7995238Y-22409904D01*
X-7947619Y-22505142D01*
X-7900000Y-22552761D01*
X-7804761Y-22600380D01*
X-7709523Y-22600380D01*
X-7614285Y-22552761D01*
X-7566666Y-22505142D01*
X-7519047Y-22409904D01*
X-7471428Y-22219428D01*
X-7471428Y-21981333D01*
X-7519047Y-21790857D01*
X-7566666Y-21695619D01*
X-7614285Y-21648000D01*
X-7709523Y-21600380D01*
X891904Y-2022380D02*
X320476Y-2022380D01*
X606190Y-3022380D02*
X606190Y-2022380D01*
X-12857Y-3022380D02*
X-12857Y-2022380D01*
X-393809Y-2022380D01*
X-489047Y-2070000D01*
X-536666Y-2117619D01*
X-584285Y-2212857D01*
X-584285Y-2355714D01*
X-536666Y-2450952D01*
X-489047Y-2498571D01*
X-393809Y-2546190D01*
X-12857Y-2546190D01*
X-1060476Y-3022380D02*
X-1250952Y-3022380D01*
X-1346190Y-2974761D01*
X-1393809Y-2927142D01*
X-1489047Y-2784285D01*
X-1536666Y-2593809D01*
X-1536666Y-2212857D01*
X-1489047Y-2117619D01*
X-1441428Y-2070000D01*
X-1346190Y-2022380D01*
X-1155714Y-2022380D01*
X-1060476Y-2070000D01*
X-1012857Y-2117619D01*
X-965238Y-2212857D01*
X-965238Y-2450952D01*
X-1012857Y-2546190D01*
X-1060476Y-2593809D01*
X-1155714Y-2641428D01*
X-1346190Y-2641428D01*
X-1441428Y-2593809D01*
X-1489047Y-2546190D01*
X-1536666Y-2450952D01*
X18331904Y8817619D02*
X17760476Y8817619D01*
X18046190Y7817619D02*
X18046190Y8817619D01*
X17427142Y7817619D02*
X17427142Y8817619D01*
X17046190Y8817619D01*
X16950952Y8770000D01*
X16903333Y8722380D01*
X16855714Y8627142D01*
X16855714Y8484285D01*
X16903333Y8389047D01*
X16950952Y8341428D01*
X17046190Y8293809D01*
X17427142Y8293809D01*
X16284285Y8389047D02*
X16379523Y8436666D01*
X16427142Y8484285D01*
X16474761Y8579523D01*
X16474761Y8627142D01*
X16427142Y8722380D01*
X16379523Y8770000D01*
X16284285Y8817619D01*
X16093809Y8817619D01*
X15998571Y8770000D01*
X15950952Y8722380D01*
X15903333Y8627142D01*
X15903333Y8579523D01*
X15950952Y8484285D01*
X15998571Y8436666D01*
X16093809Y8389047D01*
X16284285Y8389047D01*
X16379523Y8341428D01*
X16427142Y8293809D01*
X16474761Y8198571D01*
X16474761Y8008095D01*
X16427142Y7912857D01*
X16379523Y7865238D01*
X16284285Y7817619D01*
X16093809Y7817619D01*
X15998571Y7865238D01*
X15950952Y7912857D01*
X15903333Y8008095D01*
X15903333Y8198571D01*
X15950952Y8293809D01*
X15998571Y8341428D01*
X16093809Y8389047D01*
X28131904Y-1552380D02*
X27560476Y-1552380D01*
X27846190Y-2552380D02*
X27846190Y-1552380D01*
X27227142Y-2552380D02*
X27227142Y-1552380D01*
X26846190Y-1552380D01*
X26750952Y-1600000D01*
X26703333Y-1647619D01*
X26655714Y-1742857D01*
X26655714Y-1885714D01*
X26703333Y-1980952D01*
X26750952Y-2028571D01*
X26846190Y-2076190D01*
X27227142Y-2076190D01*
X25798571Y-1552380D02*
X25989047Y-1552380D01*
X26084285Y-1600000D01*
X26131904Y-1647619D01*
X26227142Y-1790476D01*
X26274761Y-1980952D01*
X26274761Y-2361904D01*
X26227142Y-2457142D01*
X26179523Y-2504761D01*
X26084285Y-2552380D01*
X25893809Y-2552380D01*
X25798571Y-2504761D01*
X25750952Y-2457142D01*
X25703333Y-2361904D01*
X25703333Y-2123809D01*
X25750952Y-2028571D01*
X25798571Y-1980952D01*
X25893809Y-1933333D01*
X26084285Y-1933333D01*
X26179523Y-1980952D01*
X26227142Y-2028571D01*
X26274761Y-2123809D01*
X-2968095Y-16502380D02*
X-3539523Y-16502380D01*
X-3253809Y-17502380D02*
X-3253809Y-16502380D01*
X-3872857Y-17502380D02*
X-3872857Y-16502380D01*
X-4253809Y-16502380D01*
X-4349047Y-16550000D01*
X-4396666Y-16597619D01*
X-4444285Y-16692857D01*
X-4444285Y-16835714D01*
X-4396666Y-16930952D01*
X-4349047Y-16978571D01*
X-4253809Y-17026190D01*
X-3872857Y-17026190D01*
X-5349047Y-16502380D02*
X-4872857Y-16502380D01*
X-4825238Y-16978571D01*
X-4872857Y-16930952D01*
X-4968095Y-16883333D01*
X-5206190Y-16883333D01*
X-5301428Y-16930952D01*
X-5349047Y-16978571D01*
X-5396666Y-17073809D01*
X-5396666Y-17311904D01*
X-5349047Y-17407142D01*
X-5301428Y-17454761D01*
X-5206190Y-17502380D01*
X-4968095Y-17502380D01*
X-4872857Y-17454761D01*
X-4825238Y-17407142D01*
X22061904Y-26802380D02*
X21490476Y-26802380D01*
X21776190Y-27802380D02*
X21776190Y-26802380D01*
X21157142Y-27802380D02*
X21157142Y-26802380D01*
X20776190Y-26802380D01*
X20680952Y-26850000D01*
X20633333Y-26897619D01*
X20585714Y-26992857D01*
X20585714Y-27135714D01*
X20633333Y-27230952D01*
X20680952Y-27278571D01*
X20776190Y-27326190D01*
X21157142Y-27326190D01*
X19728571Y-27135714D02*
X19728571Y-27802380D01*
X19966666Y-26754761D02*
X20204761Y-27469047D01*
X19585714Y-27469047D01*
X2791904Y-28302380D02*
X2220476Y-28302380D01*
X2506190Y-29302380D02*
X2506190Y-28302380D01*
X1887142Y-29302380D02*
X1887142Y-28302380D01*
X1506190Y-28302380D01*
X1410952Y-28350000D01*
X1363333Y-28397619D01*
X1315714Y-28492857D01*
X1315714Y-28635714D01*
X1363333Y-28730952D01*
X1410952Y-28778571D01*
X1506190Y-28826190D01*
X1887142Y-28826190D01*
X982380Y-28302380D02*
X363333Y-28302380D01*
X696666Y-28683333D01*
X553809Y-28683333D01*
X458571Y-28730952D01*
X410952Y-28778571D01*
X363333Y-28873809D01*
X363333Y-29111904D01*
X410952Y-29207142D01*
X458571Y-29254761D01*
X553809Y-29302380D01*
X839523Y-29302380D01*
X934761Y-29254761D01*
X982380Y-29207142D01*
X-10518095Y-1422380D02*
X-11089523Y-1422380D01*
X-10803809Y-2422380D02*
X-10803809Y-1422380D01*
X-11422857Y-2422380D02*
X-11422857Y-1422380D01*
X-11803809Y-1422380D01*
X-11899047Y-1470000D01*
X-11946666Y-1517619D01*
X-11994285Y-1612857D01*
X-11994285Y-1755714D01*
X-11946666Y-1850952D01*
X-11899047Y-1898571D01*
X-11803809Y-1946190D01*
X-11422857Y-1946190D01*
X-12375238Y-1517619D02*
X-12422857Y-1470000D01*
X-12518095Y-1422380D01*
X-12756190Y-1422380D01*
X-12851428Y-1470000D01*
X-12899047Y-1517619D01*
X-12946666Y-1612857D01*
X-12946666Y-1708095D01*
X-12899047Y-1850952D01*
X-12327619Y-2422380D01*
X-12946666Y-2422380D01*
X-698095Y12747619D02*
X-1269523Y12747619D01*
X-983809Y11747619D02*
X-983809Y12747619D01*
X-1602857Y11747619D02*
X-1602857Y12747619D01*
X-1983809Y12747619D01*
X-2079047Y12700000D01*
X-2126666Y12652380D01*
X-2174285Y12557142D01*
X-2174285Y12414285D01*
X-2126666Y12319047D01*
X-2079047Y12271428D01*
X-1983809Y12223809D01*
X-1602857Y12223809D01*
X-3126666Y11747619D02*
X-2555238Y11747619D01*
X-2840952Y11747619D02*
X-2840952Y12747619D01*
X-2745714Y12604761D01*
X-2650476Y12509523D01*
X-2555238Y12461904D01*
M02*
