M48
; DRILL file {KiCad (5.1.0)-1} date 21-Jun-19 14:41:18
; FORMAT={-:-/ absolute / metric / decimal}
; #@! TF.CreationDate,2019-06-21T14:41:18-03:00
; #@! TF.GenerationSoftware,Kicad,Pcbnew,(5.1.0)-1
; #@! TF.FileFunction,Plated,1,2,PTH
FMAT,2
METRIC
T1C0.300
T2C0.400
T3C0.500
T4C1.000
T5C3.200
%
G90
G05
T1
X7.4Y13.865
X7.4Y12.865
X8.3Y13.865
X8.3Y12.865
X9.2Y13.865
X9.2Y12.865
T2
X-13.513Y-7.798
X-13.489Y-8.808
X-13.489Y-9.906
X-12.6Y-7.8
X-12.6Y-8.8
X-12.6Y-9.9
X-12.243Y-12.446
X-12.243Y-13.36
X-11.938Y-14.224
X-11.6Y-11.8
X-11.532Y-12.903
X-9.906Y-8.433
X-9.2Y-7.29
X-9.1Y-4.3
X-9.042Y-8.433
X-7.9Y-1.7
X-7.725Y-7.975
X-6.7Y-4.3
X-6.3Y-10.3
X-6.1Y-9.275
X-5.1Y-27.3
X-4.85Y-20.65
X-3.25Y-17.0
X-3.0Y-32.5
X-2.9Y-24.07
X-2.7Y-9.2
X-2.568Y-7.304
X-1.8Y10.1
X-0.8Y-27.3
X0.11Y-15.07
X0.6Y-25.5
X0.95Y-3.95
X2.2Y11.5
X2.3Y-3.95
X2.45Y14.2
X3.0Y2.9
X3.051Y0.001
X4.0Y-29.8
X4.2Y-13.2
X4.3Y14.0
X4.3Y-15.8
X4.7Y-5.0
X5.35Y14.75
X5.555Y-5.756
X6.325Y11.848
X6.4Y-33.2
X6.7Y-18.35
X6.8Y5.1
X6.825Y0.525
X7.0Y10.8
X7.4Y16.0
X7.444Y-3.756
X7.6Y-25.5
X7.7Y-18.342
X8.2Y16.0
X8.2Y10.8
X8.25Y-15.5
X8.687Y-8.179
X9.0Y-22.4
X9.0Y16.0
X9.2Y10.8
X9.225Y-15.799
X9.804Y-8.585
X11.15Y-15.0
X11.3Y11.8
X11.4Y-22.4
X12.2Y4.8
X12.5Y-25.0
X12.6Y-4.8
X12.6Y-15.65
X12.6Y-18.0
X14.75Y-0.3
X14.948Y-7.15
X15.3Y13.7
X15.837Y-7.15
X15.87Y-14.43
X15.875Y-6.096
X16.7Y-9.65
X16.75Y-7.15
X16.764Y-6.096
X16.8Y4.3
X16.9Y1.07
X17.2Y-13.3
X17.3Y-26.15
X17.653Y-6.096
X17.653Y-7.112
X18.0Y-12.5
X18.8Y5.3
X18.9Y-11.7
X19.4Y11.0
X19.939Y-6.096
X19.939Y-6.948
X19.939Y-7.8
X20.0Y-11.1
X20.1Y-2.0
X21.2Y-1.15
X21.8Y-21.0
X22.4Y-21.8
X22.871Y-12.836
X23.599Y-12.15
X23.616Y-11.05
X24.0Y-21.4
X25.273Y-5.08
X26.5Y-6.2
X26.5Y-21.7
X26.5Y-25.9
X26.502Y-7.812
X26.6Y-11.112
X27.0Y-17.4
X27.1Y-7.0
X27.95Y-15.27
X28.9Y-0.7
X28.989Y-6.511
X29.1Y-7.88
X29.7Y-3.45
X30.0Y-0.7
X30.226Y2.921
X30.632Y-6.604
X31.1Y-0.7
X31.115Y0.279
X31.115Y-1.651
X31.166Y2.794
X31.648Y-23.724
X32.2Y-0.7
X32.65Y-4.4
X32.8Y-16.6
X33.65Y-2.05
T3
X-12.5Y-18.95
T4
X-14.8Y-6.19
X-14.8Y-8.73
X-14.8Y-11.27
X-14.8Y-13.81
X-12.268Y1.501
X-9.728Y1.501
X-7.188Y1.501
X14.997Y-28.374
X14.997Y-30.914
X14.997Y-33.454
X27.132Y1.401
X29.672Y1.401
X32.212Y1.401
X34.8Y-6.19
X34.8Y-8.73
X34.8Y-11.27
X34.8Y-13.81
T5
X-2.5Y3.5
X10.0Y-30.2
X22.5Y3.5
T0
M30
