G04 #@! TF.GenerationSoftware,KiCad,Pcbnew,(5.1.0)-1*
G04 #@! TF.CreationDate,2019-06-21T14:41:16-03:00*
G04 #@! TF.ProjectId,PCB_B,5043425f-422e-46b6-9963-61645f706362,rev?*
G04 #@! TF.SameCoordinates,Original*
G04 #@! TF.FileFunction,Soldermask,Top*
G04 #@! TF.FilePolarity,Negative*
%FSLAX46Y46*%
G04 Gerber Fmt 4.6, Leading zero omitted, Abs format (unit mm)*
G04 Created by KiCad (PCBNEW (5.1.0)-1) date 2019-06-21 14:41:16*
%MOMM*%
%LPD*%
G04 APERTURE LIST*
%ADD10C,0.100000*%
G04 APERTURE END LIST*
D10*
G36*
X5378530Y-33530877D02*
G01*
X5430010Y-33546493D01*
X5477445Y-33571848D01*
X5519027Y-33605973D01*
X5553152Y-33647555D01*
X5578507Y-33694990D01*
X5594123Y-33746470D01*
X5600000Y-33806140D01*
X5600000Y-34593860D01*
X5594123Y-34653530D01*
X5578507Y-34705010D01*
X5553152Y-34752445D01*
X5519027Y-34794027D01*
X5477445Y-34828152D01*
X5430010Y-34853507D01*
X5378530Y-34869123D01*
X5318860Y-34875000D01*
X4431140Y-34875000D01*
X4371470Y-34869123D01*
X4319990Y-34853507D01*
X4272555Y-34828152D01*
X4230973Y-34794027D01*
X4196848Y-34752445D01*
X4171493Y-34705010D01*
X4155877Y-34653530D01*
X4150000Y-34593860D01*
X4150000Y-33806140D01*
X4155877Y-33746470D01*
X4171493Y-33694990D01*
X4196848Y-33647555D01*
X4230973Y-33605973D01*
X4272555Y-33571848D01*
X4319990Y-33546493D01*
X4371470Y-33530877D01*
X4431140Y-33525000D01*
X5318860Y-33525000D01*
X5378530Y-33530877D01*
X5378530Y-33530877D01*
G37*
G36*
X3628530Y-33530877D02*
G01*
X3680010Y-33546493D01*
X3727445Y-33571848D01*
X3769027Y-33605973D01*
X3803152Y-33647555D01*
X3828507Y-33694990D01*
X3844123Y-33746470D01*
X3850000Y-33806140D01*
X3850000Y-34593860D01*
X3844123Y-34653530D01*
X3828507Y-34705010D01*
X3803152Y-34752445D01*
X3769027Y-34794027D01*
X3727445Y-34828152D01*
X3680010Y-34853507D01*
X3628530Y-34869123D01*
X3568860Y-34875000D01*
X2681140Y-34875000D01*
X2621470Y-34869123D01*
X2569990Y-34853507D01*
X2522555Y-34828152D01*
X2480973Y-34794027D01*
X2446848Y-34752445D01*
X2421493Y-34705010D01*
X2405877Y-34653530D01*
X2400000Y-34593860D01*
X2400000Y-33806140D01*
X2405877Y-33746470D01*
X2421493Y-33694990D01*
X2446848Y-33647555D01*
X2480973Y-33605973D01*
X2522555Y-33571848D01*
X2569990Y-33546493D01*
X2621470Y-33530877D01*
X2681140Y-33525000D01*
X3568860Y-33525000D01*
X3628530Y-33530877D01*
X3628530Y-33530877D01*
G37*
G36*
X15125528Y-32408889D02*
G01*
X15303115Y-32444212D01*
X15494203Y-32523364D01*
X15666177Y-32638273D01*
X15812430Y-32784526D01*
X15927339Y-32956500D01*
X16006491Y-33147588D01*
X16046841Y-33350446D01*
X16046841Y-33557278D01*
X16006491Y-33760136D01*
X15927339Y-33951224D01*
X15812430Y-34123198D01*
X15666177Y-34269451D01*
X15494203Y-34384360D01*
X15303115Y-34463512D01*
X15125528Y-34498835D01*
X15100258Y-34503862D01*
X14893424Y-34503862D01*
X14868154Y-34498835D01*
X14690567Y-34463512D01*
X14499479Y-34384360D01*
X14327505Y-34269451D01*
X14181252Y-34123198D01*
X14066343Y-33951224D01*
X13987191Y-33760136D01*
X13946841Y-33557278D01*
X13946841Y-33350446D01*
X13987191Y-33147588D01*
X14066343Y-32956500D01*
X14181252Y-32784526D01*
X14327505Y-32638273D01*
X14499479Y-32523364D01*
X14690567Y-32444212D01*
X14868154Y-32408889D01*
X14893424Y-32403862D01*
X15100258Y-32403862D01*
X15125528Y-32408889D01*
X15125528Y-32408889D01*
G37*
G36*
X10643798Y-26963409D02*
G01*
X10962574Y-27026817D01*
X11563136Y-27275578D01*
X12103627Y-27636723D01*
X12563277Y-28096373D01*
X12886224Y-28579696D01*
X12924423Y-28636866D01*
X12948499Y-28694990D01*
X13124509Y-29119916D01*
X13173183Y-29237427D01*
X13298836Y-29869123D01*
X13300000Y-29874978D01*
X13300000Y-30525022D01*
X13173183Y-31162574D01*
X13108959Y-31317624D01*
X12940219Y-31725000D01*
X12924422Y-31763136D01*
X12563277Y-32303627D01*
X12103627Y-32763277D01*
X11563136Y-33124422D01*
X11563135Y-33124423D01*
X11563134Y-33124423D01*
X11507204Y-33147590D01*
X10962574Y-33373183D01*
X10643798Y-33436591D01*
X10325023Y-33500000D01*
X9674977Y-33500000D01*
X9356202Y-33436591D01*
X9037426Y-33373183D01*
X8492796Y-33147590D01*
X8436866Y-33124423D01*
X8436865Y-33124423D01*
X8436864Y-33124422D01*
X7896373Y-32763277D01*
X7436723Y-32303627D01*
X7075578Y-31763136D01*
X7059782Y-31725000D01*
X6891041Y-31317624D01*
X6826817Y-31162574D01*
X6700000Y-30525022D01*
X6700000Y-29874978D01*
X6701165Y-29869123D01*
X6826817Y-29237427D01*
X6875492Y-29119916D01*
X7051501Y-28694990D01*
X7075577Y-28636866D01*
X7113777Y-28579696D01*
X7436723Y-28096373D01*
X7896373Y-27636723D01*
X8436864Y-27275578D01*
X9037426Y-27026817D01*
X9356202Y-26963409D01*
X9674977Y-26900000D01*
X10325023Y-26900000D01*
X10643798Y-26963409D01*
X10643798Y-26963409D01*
G37*
G36*
X5378530Y-31730877D02*
G01*
X5430010Y-31746493D01*
X5477445Y-31771848D01*
X5519027Y-31805973D01*
X5553152Y-31847555D01*
X5578507Y-31894990D01*
X5594123Y-31946470D01*
X5600000Y-32006140D01*
X5600000Y-32793860D01*
X5594123Y-32853530D01*
X5578507Y-32905010D01*
X5553152Y-32952445D01*
X5519027Y-32994027D01*
X5477445Y-33028152D01*
X5430010Y-33053507D01*
X5378530Y-33069123D01*
X5318860Y-33075000D01*
X4431140Y-33075000D01*
X4371470Y-33069123D01*
X4319990Y-33053507D01*
X4272555Y-33028152D01*
X4230973Y-32994027D01*
X4196848Y-32952445D01*
X4171493Y-32905010D01*
X4155877Y-32853530D01*
X4150000Y-32793860D01*
X4150000Y-32006140D01*
X4155877Y-31946470D01*
X4171493Y-31894990D01*
X4196848Y-31847555D01*
X4230973Y-31805973D01*
X4272555Y-31771848D01*
X4319990Y-31746493D01*
X4371470Y-31730877D01*
X4431140Y-31725000D01*
X5318860Y-31725000D01*
X5378530Y-31730877D01*
X5378530Y-31730877D01*
G37*
G36*
X3628530Y-31730877D02*
G01*
X3680010Y-31746493D01*
X3727445Y-31771848D01*
X3769027Y-31805973D01*
X3803152Y-31847555D01*
X3828507Y-31894990D01*
X3844123Y-31946470D01*
X3850000Y-32006140D01*
X3850000Y-32793860D01*
X3844123Y-32853530D01*
X3828507Y-32905010D01*
X3803152Y-32952445D01*
X3769027Y-32994027D01*
X3727445Y-33028152D01*
X3680010Y-33053507D01*
X3628530Y-33069123D01*
X3568860Y-33075000D01*
X2681140Y-33075000D01*
X2621470Y-33069123D01*
X2569990Y-33053507D01*
X2522555Y-33028152D01*
X2480973Y-32994027D01*
X2446848Y-32952445D01*
X2421493Y-32905010D01*
X2405877Y-32853530D01*
X2400000Y-32793860D01*
X2400000Y-32006140D01*
X2405877Y-31946470D01*
X2421493Y-31894990D01*
X2446848Y-31847555D01*
X2480973Y-31805973D01*
X2522555Y-31771848D01*
X2569990Y-31746493D01*
X2621470Y-31730877D01*
X2681140Y-31725000D01*
X3568860Y-31725000D01*
X3628530Y-31730877D01*
X3628530Y-31730877D01*
G37*
G36*
X15125548Y-29871459D02*
G01*
X15202677Y-29879055D01*
X15400603Y-29939095D01*
X15400606Y-29939096D01*
X15583011Y-30036594D01*
X15742896Y-30167807D01*
X15874109Y-30327692D01*
X15971607Y-30510097D01*
X15971608Y-30510100D01*
X16031648Y-30708026D01*
X16051921Y-30913862D01*
X16031648Y-31119698D01*
X15984538Y-31275000D01*
X15971607Y-31317627D01*
X15874109Y-31500032D01*
X15742896Y-31659917D01*
X15583011Y-31791130D01*
X15400606Y-31888628D01*
X15400603Y-31888629D01*
X15202677Y-31948669D01*
X15125548Y-31956265D01*
X15048421Y-31963862D01*
X14945261Y-31963862D01*
X14868134Y-31956265D01*
X14791005Y-31948669D01*
X14593079Y-31888629D01*
X14593076Y-31888628D01*
X14410671Y-31791130D01*
X14250786Y-31659917D01*
X14119573Y-31500032D01*
X14022075Y-31317627D01*
X14009144Y-31275000D01*
X13962034Y-31119698D01*
X13941761Y-30913862D01*
X13962034Y-30708026D01*
X14022074Y-30510100D01*
X14022075Y-30510097D01*
X14119573Y-30327692D01*
X14250786Y-30167807D01*
X14410671Y-30036594D01*
X14593076Y-29939096D01*
X14593079Y-29939095D01*
X14791005Y-29879055D01*
X14868134Y-29871459D01*
X14945261Y-29863862D01*
X15048421Y-29863862D01*
X15125548Y-29871459D01*
X15125548Y-29871459D01*
G37*
G36*
X-1521470Y-30330877D02*
G01*
X-1469990Y-30346493D01*
X-1422555Y-30371848D01*
X-1380973Y-30405973D01*
X-1346848Y-30447555D01*
X-1321493Y-30494990D01*
X-1305877Y-30546470D01*
X-1300000Y-30606140D01*
X-1300000Y-31393860D01*
X-1305877Y-31453530D01*
X-1321493Y-31505010D01*
X-1346848Y-31552445D01*
X-1380973Y-31594027D01*
X-1422555Y-31628152D01*
X-1469990Y-31653507D01*
X-1521470Y-31669123D01*
X-1581140Y-31675000D01*
X-2468860Y-31675000D01*
X-2528530Y-31669123D01*
X-2580010Y-31653507D01*
X-2627445Y-31628152D01*
X-2669027Y-31594027D01*
X-2703152Y-31552445D01*
X-2728507Y-31505010D01*
X-2744123Y-31453530D01*
X-2750000Y-31393860D01*
X-2750000Y-30606140D01*
X-2744123Y-30546470D01*
X-2728507Y-30494990D01*
X-2703152Y-30447555D01*
X-2669027Y-30405973D01*
X-2627445Y-30371848D01*
X-2580010Y-30346493D01*
X-2528530Y-30330877D01*
X-2468860Y-30325000D01*
X-1581140Y-30325000D01*
X-1521470Y-30330877D01*
X-1521470Y-30330877D01*
G37*
G36*
X-3271470Y-30330877D02*
G01*
X-3219990Y-30346493D01*
X-3172555Y-30371848D01*
X-3130973Y-30405973D01*
X-3096848Y-30447555D01*
X-3071493Y-30494990D01*
X-3055877Y-30546470D01*
X-3050000Y-30606140D01*
X-3050000Y-31393860D01*
X-3055877Y-31453530D01*
X-3071493Y-31505010D01*
X-3096848Y-31552445D01*
X-3130973Y-31594027D01*
X-3172555Y-31628152D01*
X-3219990Y-31653507D01*
X-3271470Y-31669123D01*
X-3331140Y-31675000D01*
X-4218860Y-31675000D01*
X-4278530Y-31669123D01*
X-4330010Y-31653507D01*
X-4377445Y-31628152D01*
X-4419027Y-31594027D01*
X-4453152Y-31552445D01*
X-4478507Y-31505010D01*
X-4494123Y-31453530D01*
X-4500000Y-31393860D01*
X-4500000Y-30606140D01*
X-4494123Y-30546470D01*
X-4478507Y-30494990D01*
X-4453152Y-30447555D01*
X-4419027Y-30405973D01*
X-4377445Y-30371848D01*
X-4330010Y-30346493D01*
X-4278530Y-30330877D01*
X-4218860Y-30325000D01*
X-3331140Y-30325000D01*
X-3271470Y-30330877D01*
X-3271470Y-30330877D01*
G37*
G36*
X3630000Y-31275000D02*
G01*
X2170000Y-31275000D01*
X2170000Y-30225000D01*
X3630000Y-30225000D01*
X3630000Y-31275000D01*
X3630000Y-31275000D01*
G37*
G36*
X5830000Y-31275000D02*
G01*
X4370000Y-31275000D01*
X4370000Y-28325000D01*
X5830000Y-28325000D01*
X5830000Y-31275000D01*
X5830000Y-31275000D01*
G37*
G36*
X-1521470Y-28530877D02*
G01*
X-1469990Y-28546493D01*
X-1422555Y-28571848D01*
X-1380973Y-28605973D01*
X-1346848Y-28647555D01*
X-1321493Y-28694990D01*
X-1305877Y-28746470D01*
X-1300000Y-28806140D01*
X-1300000Y-29593860D01*
X-1305877Y-29653530D01*
X-1321493Y-29705010D01*
X-1346848Y-29752445D01*
X-1380973Y-29794027D01*
X-1422555Y-29828152D01*
X-1469990Y-29853507D01*
X-1521470Y-29869123D01*
X-1581140Y-29875000D01*
X-2468860Y-29875000D01*
X-2528530Y-29869123D01*
X-2580010Y-29853507D01*
X-2627445Y-29828152D01*
X-2669027Y-29794027D01*
X-2703152Y-29752445D01*
X-2728507Y-29705010D01*
X-2744123Y-29653530D01*
X-2750000Y-29593860D01*
X-2750000Y-28806140D01*
X-2744123Y-28746470D01*
X-2728507Y-28694990D01*
X-2703152Y-28647555D01*
X-2669027Y-28605973D01*
X-2627445Y-28571848D01*
X-2580010Y-28546493D01*
X-2528530Y-28530877D01*
X-2468860Y-28525000D01*
X-1581140Y-28525000D01*
X-1521470Y-28530877D01*
X-1521470Y-28530877D01*
G37*
G36*
X-3271470Y-28530877D02*
G01*
X-3219990Y-28546493D01*
X-3172555Y-28571848D01*
X-3130973Y-28605973D01*
X-3096848Y-28647555D01*
X-3071493Y-28694990D01*
X-3055877Y-28746470D01*
X-3050000Y-28806140D01*
X-3050000Y-29593860D01*
X-3055877Y-29653530D01*
X-3071493Y-29705010D01*
X-3096848Y-29752445D01*
X-3130973Y-29794027D01*
X-3172555Y-29828152D01*
X-3219990Y-29853507D01*
X-3271470Y-29869123D01*
X-3331140Y-29875000D01*
X-4218860Y-29875000D01*
X-4278530Y-29869123D01*
X-4330010Y-29853507D01*
X-4377445Y-29828152D01*
X-4419027Y-29794027D01*
X-4453152Y-29752445D01*
X-4478507Y-29705010D01*
X-4494123Y-29653530D01*
X-4500000Y-29593860D01*
X-4500000Y-28806140D01*
X-4494123Y-28746470D01*
X-4478507Y-28694990D01*
X-4453152Y-28647555D01*
X-4419027Y-28605973D01*
X-4377445Y-28571848D01*
X-4330010Y-28546493D01*
X-4278530Y-28530877D01*
X-4218860Y-28525000D01*
X-3331140Y-28525000D01*
X-3271470Y-28530877D01*
X-3271470Y-28530877D01*
G37*
G36*
X15125548Y-27331459D02*
G01*
X15202677Y-27339055D01*
X15383345Y-27393860D01*
X15400606Y-27399096D01*
X15583011Y-27496594D01*
X15742896Y-27627807D01*
X15874109Y-27787692D01*
X15971607Y-27970097D01*
X15971608Y-27970100D01*
X16031648Y-28168026D01*
X16051921Y-28373862D01*
X16031648Y-28579698D01*
X15985040Y-28733344D01*
X15971607Y-28777627D01*
X15874109Y-28960032D01*
X15742896Y-29119917D01*
X15583011Y-29251130D01*
X15400606Y-29348628D01*
X15400603Y-29348629D01*
X15202677Y-29408669D01*
X15125548Y-29416265D01*
X15048421Y-29423862D01*
X14945261Y-29423862D01*
X14868134Y-29416265D01*
X14791005Y-29408669D01*
X14593079Y-29348629D01*
X14593076Y-29348628D01*
X14410671Y-29251130D01*
X14250786Y-29119917D01*
X14119573Y-28960032D01*
X14022075Y-28777627D01*
X14008642Y-28733344D01*
X13962034Y-28579698D01*
X13941761Y-28373862D01*
X13962034Y-28168026D01*
X14022074Y-27970100D01*
X14022075Y-27970097D01*
X14119573Y-27787692D01*
X14250786Y-27627807D01*
X14410671Y-27496594D01*
X14593076Y-27399096D01*
X14610337Y-27393860D01*
X14791005Y-27339055D01*
X14868134Y-27331459D01*
X14945261Y-27323862D01*
X15048421Y-27323862D01*
X15125548Y-27331459D01*
X15125548Y-27331459D01*
G37*
G36*
X3630000Y-29375000D02*
G01*
X2170000Y-29375000D01*
X2170000Y-28325000D01*
X3630000Y-28325000D01*
X3630000Y-29375000D01*
X3630000Y-29375000D01*
G37*
G36*
X-3325000Y-28030000D02*
G01*
X-4375000Y-28030000D01*
X-4375000Y-26570000D01*
X-3325000Y-26570000D01*
X-3325000Y-28030000D01*
X-3325000Y-28030000D01*
G37*
G36*
X-1425000Y-28030000D02*
G01*
X-2475000Y-28030000D01*
X-2475000Y-26570000D01*
X-1425000Y-26570000D01*
X-1425000Y-28030000D01*
X-1425000Y-28030000D01*
G37*
G36*
X3628530Y-26330877D02*
G01*
X3680010Y-26346493D01*
X3727445Y-26371848D01*
X3769027Y-26405973D01*
X3803152Y-26447555D01*
X3828507Y-26494990D01*
X3844123Y-26546470D01*
X3850000Y-26606140D01*
X3850000Y-27393860D01*
X3844123Y-27453530D01*
X3828507Y-27505010D01*
X3803152Y-27552445D01*
X3769027Y-27594027D01*
X3727445Y-27628152D01*
X3680010Y-27653507D01*
X3628530Y-27669123D01*
X3568860Y-27675000D01*
X2681140Y-27675000D01*
X2621470Y-27669123D01*
X2569990Y-27653507D01*
X2522555Y-27628152D01*
X2480973Y-27594027D01*
X2446848Y-27552445D01*
X2421493Y-27505010D01*
X2405877Y-27453530D01*
X2400000Y-27393860D01*
X2400000Y-26606140D01*
X2405877Y-26546470D01*
X2421493Y-26494990D01*
X2446848Y-26447555D01*
X2480973Y-26405973D01*
X2522555Y-26371848D01*
X2569990Y-26346493D01*
X2621470Y-26330877D01*
X2681140Y-26325000D01*
X3568860Y-26325000D01*
X3628530Y-26330877D01*
X3628530Y-26330877D01*
G37*
G36*
X5378530Y-26330877D02*
G01*
X5430010Y-26346493D01*
X5477445Y-26371848D01*
X5519027Y-26405973D01*
X5553152Y-26447555D01*
X5578507Y-26494990D01*
X5594123Y-26546470D01*
X5600000Y-26606140D01*
X5600000Y-27393860D01*
X5594123Y-27453530D01*
X5578507Y-27505010D01*
X5553152Y-27552445D01*
X5519027Y-27594027D01*
X5477445Y-27628152D01*
X5430010Y-27653507D01*
X5378530Y-27669123D01*
X5318860Y-27675000D01*
X4431140Y-27675000D01*
X4371470Y-27669123D01*
X4319990Y-27653507D01*
X4272555Y-27628152D01*
X4230973Y-27594027D01*
X4196848Y-27552445D01*
X4171493Y-27505010D01*
X4155877Y-27453530D01*
X4150000Y-27393860D01*
X4150000Y-26606140D01*
X4155877Y-26546470D01*
X4171493Y-26494990D01*
X4196848Y-26447555D01*
X4230973Y-26405973D01*
X4272555Y-26371848D01*
X4319990Y-26346493D01*
X4371470Y-26330877D01*
X4431140Y-26325000D01*
X5318860Y-26325000D01*
X5378530Y-26330877D01*
X5378530Y-26330877D01*
G37*
G36*
X2953530Y-24555877D02*
G01*
X3005010Y-24571493D01*
X3052445Y-24596848D01*
X3094027Y-24630973D01*
X3128152Y-24672555D01*
X3153507Y-24719990D01*
X3169123Y-24771470D01*
X3175000Y-24831140D01*
X3175000Y-25718860D01*
X3169123Y-25778530D01*
X3153507Y-25830010D01*
X3128152Y-25877445D01*
X3094027Y-25919027D01*
X3052445Y-25953152D01*
X3005010Y-25978507D01*
X2953530Y-25994123D01*
X2893860Y-26000000D01*
X2106140Y-26000000D01*
X2046470Y-25994123D01*
X1994990Y-25978507D01*
X1947555Y-25953152D01*
X1905973Y-25919027D01*
X1871848Y-25877445D01*
X1846493Y-25830010D01*
X1830877Y-25778530D01*
X1825000Y-25718860D01*
X1825000Y-24831140D01*
X1830877Y-24771470D01*
X1846493Y-24719990D01*
X1871848Y-24672555D01*
X1905973Y-24630973D01*
X1947555Y-24596848D01*
X1994990Y-24571493D01*
X2046470Y-24555877D01*
X2106140Y-24550000D01*
X2893860Y-24550000D01*
X2953530Y-24555877D01*
X2953530Y-24555877D01*
G37*
G36*
X5953530Y-24555877D02*
G01*
X6005010Y-24571493D01*
X6052445Y-24596848D01*
X6094027Y-24630973D01*
X6128152Y-24672555D01*
X6153507Y-24719990D01*
X6169123Y-24771470D01*
X6175000Y-24831140D01*
X6175000Y-25718860D01*
X6169123Y-25778530D01*
X6153507Y-25830010D01*
X6128152Y-25877445D01*
X6094027Y-25919027D01*
X6052445Y-25953152D01*
X6005010Y-25978507D01*
X5953530Y-25994123D01*
X5893860Y-26000000D01*
X5106140Y-26000000D01*
X5046470Y-25994123D01*
X4994990Y-25978507D01*
X4947555Y-25953152D01*
X4905973Y-25919027D01*
X4871848Y-25877445D01*
X4846493Y-25830010D01*
X4830877Y-25778530D01*
X4825000Y-25718860D01*
X4825000Y-24831140D01*
X4830877Y-24771470D01*
X4846493Y-24719990D01*
X4871848Y-24672555D01*
X4905973Y-24630973D01*
X4947555Y-24596848D01*
X4994990Y-24571493D01*
X5046470Y-24555877D01*
X5106140Y-24550000D01*
X5893860Y-24550000D01*
X5953530Y-24555877D01*
X5953530Y-24555877D01*
G37*
G36*
X-1425000Y-25830000D02*
G01*
X-4375000Y-25830000D01*
X-4375000Y-24370000D01*
X-1425000Y-24370000D01*
X-1425000Y-25830000D01*
X-1425000Y-25830000D01*
G37*
G36*
X22853530Y-23955877D02*
G01*
X22905010Y-23971493D01*
X22952445Y-23996848D01*
X22994027Y-24030973D01*
X23028152Y-24072555D01*
X23053507Y-24119990D01*
X23069123Y-24171470D01*
X23075000Y-24231140D01*
X23075000Y-25118860D01*
X23069123Y-25178530D01*
X23053507Y-25230010D01*
X23028152Y-25277445D01*
X22994027Y-25319027D01*
X22952445Y-25353152D01*
X22905010Y-25378507D01*
X22853530Y-25394123D01*
X22793860Y-25400000D01*
X22006140Y-25400000D01*
X21946470Y-25394123D01*
X21894990Y-25378507D01*
X21847555Y-25353152D01*
X21805973Y-25319027D01*
X21771848Y-25277445D01*
X21746493Y-25230010D01*
X21730877Y-25178530D01*
X21725000Y-25118860D01*
X21725000Y-24231140D01*
X21730877Y-24171470D01*
X21746493Y-24119990D01*
X21771848Y-24072555D01*
X21805973Y-24030973D01*
X21847555Y-23996848D01*
X21894990Y-23971493D01*
X21946470Y-23955877D01*
X22006140Y-23950000D01*
X22793860Y-23950000D01*
X22853530Y-23955877D01*
X22853530Y-23955877D01*
G37*
G36*
X21053530Y-23955877D02*
G01*
X21105010Y-23971493D01*
X21152445Y-23996848D01*
X21194027Y-24030973D01*
X21228152Y-24072555D01*
X21253507Y-24119990D01*
X21269123Y-24171470D01*
X21275000Y-24231140D01*
X21275000Y-25118860D01*
X21269123Y-25178530D01*
X21253507Y-25230010D01*
X21228152Y-25277445D01*
X21194027Y-25319027D01*
X21152445Y-25353152D01*
X21105010Y-25378507D01*
X21053530Y-25394123D01*
X20993860Y-25400000D01*
X20206140Y-25400000D01*
X20146470Y-25394123D01*
X20094990Y-25378507D01*
X20047555Y-25353152D01*
X20005973Y-25319027D01*
X19971848Y-25277445D01*
X19946493Y-25230010D01*
X19930877Y-25178530D01*
X19925000Y-25118860D01*
X19925000Y-24231140D01*
X19930877Y-24171470D01*
X19946493Y-24119990D01*
X19971848Y-24072555D01*
X20005973Y-24030973D01*
X20047555Y-23996848D01*
X20094990Y-23971493D01*
X20146470Y-23955877D01*
X20206140Y-23950000D01*
X20993860Y-23950000D01*
X21053530Y-23955877D01*
X21053530Y-23955877D01*
G37*
G36*
X19053530Y-23955877D02*
G01*
X19105010Y-23971493D01*
X19152445Y-23996848D01*
X19194027Y-24030973D01*
X19228152Y-24072555D01*
X19253507Y-24119990D01*
X19269123Y-24171470D01*
X19275000Y-24231140D01*
X19275000Y-25118860D01*
X19269123Y-25178530D01*
X19253507Y-25230010D01*
X19228152Y-25277445D01*
X19194027Y-25319027D01*
X19152445Y-25353152D01*
X19105010Y-25378507D01*
X19053530Y-25394123D01*
X18993860Y-25400000D01*
X18206140Y-25400000D01*
X18146470Y-25394123D01*
X18094990Y-25378507D01*
X18047555Y-25353152D01*
X18005973Y-25319027D01*
X17971848Y-25277445D01*
X17946493Y-25230010D01*
X17930877Y-25178530D01*
X17925000Y-25118860D01*
X17925000Y-24231140D01*
X17930877Y-24171470D01*
X17946493Y-24119990D01*
X17971848Y-24072555D01*
X18005973Y-24030973D01*
X18047555Y-23996848D01*
X18094990Y-23971493D01*
X18146470Y-23955877D01*
X18206140Y-23950000D01*
X18993860Y-23950000D01*
X19053530Y-23955877D01*
X19053530Y-23955877D01*
G37*
G36*
X28653530Y-23755877D02*
G01*
X28705010Y-23771493D01*
X28752445Y-23796848D01*
X28794027Y-23830973D01*
X28828152Y-23872555D01*
X28853507Y-23919990D01*
X28869123Y-23971470D01*
X28875000Y-24031140D01*
X28875000Y-24918860D01*
X28869123Y-24978530D01*
X28853507Y-25030010D01*
X28828152Y-25077445D01*
X28794027Y-25119027D01*
X28752445Y-25153152D01*
X28705010Y-25178507D01*
X28653530Y-25194123D01*
X28593860Y-25200000D01*
X27806140Y-25200000D01*
X27746470Y-25194123D01*
X27694990Y-25178507D01*
X27647555Y-25153152D01*
X27605973Y-25119027D01*
X27571848Y-25077445D01*
X27546493Y-25030010D01*
X27530877Y-24978530D01*
X27525000Y-24918860D01*
X27525000Y-24031140D01*
X27530877Y-23971470D01*
X27546493Y-23919990D01*
X27571848Y-23872555D01*
X27605973Y-23830973D01*
X27647555Y-23796848D01*
X27694990Y-23771493D01*
X27746470Y-23755877D01*
X27806140Y-23750000D01*
X28593860Y-23750000D01*
X28653530Y-23755877D01*
X28653530Y-23755877D01*
G37*
G36*
X30453530Y-23755877D02*
G01*
X30505010Y-23771493D01*
X30552445Y-23796848D01*
X30594027Y-23830973D01*
X30628152Y-23872555D01*
X30653507Y-23919990D01*
X30669123Y-23971470D01*
X30675000Y-24031140D01*
X30675000Y-24918860D01*
X30669123Y-24978530D01*
X30653507Y-25030010D01*
X30628152Y-25077445D01*
X30594027Y-25119027D01*
X30552445Y-25153152D01*
X30505010Y-25178507D01*
X30453530Y-25194123D01*
X30393860Y-25200000D01*
X29606140Y-25200000D01*
X29546470Y-25194123D01*
X29494990Y-25178507D01*
X29447555Y-25153152D01*
X29405973Y-25119027D01*
X29371848Y-25077445D01*
X29346493Y-25030010D01*
X29330877Y-24978530D01*
X29325000Y-24918860D01*
X29325000Y-24031140D01*
X29330877Y-23971470D01*
X29346493Y-23919990D01*
X29371848Y-23872555D01*
X29405973Y-23830973D01*
X29447555Y-23796848D01*
X29494990Y-23771493D01*
X29546470Y-23755877D01*
X29606140Y-23750000D01*
X30393860Y-23750000D01*
X30453530Y-23755877D01*
X30453530Y-23755877D01*
G37*
G36*
X1053530Y-23755877D02*
G01*
X1105010Y-23771493D01*
X1152445Y-23796848D01*
X1194027Y-23830973D01*
X1228152Y-23872555D01*
X1253507Y-23919990D01*
X1269123Y-23971470D01*
X1275000Y-24031140D01*
X1275000Y-24918860D01*
X1269123Y-24978530D01*
X1253507Y-25030010D01*
X1228152Y-25077445D01*
X1194027Y-25119027D01*
X1152445Y-25153152D01*
X1105010Y-25178507D01*
X1053530Y-25194123D01*
X993860Y-25200000D01*
X206140Y-25200000D01*
X146470Y-25194123D01*
X94990Y-25178507D01*
X47555Y-25153152D01*
X5973Y-25119027D01*
X-28152Y-25077445D01*
X-53507Y-25030010D01*
X-69123Y-24978530D01*
X-75000Y-24918860D01*
X-75000Y-24031140D01*
X-69123Y-23971470D01*
X-53507Y-23919990D01*
X-28152Y-23872555D01*
X5973Y-23830973D01*
X47555Y-23796848D01*
X94990Y-23771493D01*
X146470Y-23755877D01*
X206140Y-23750000D01*
X993860Y-23750000D01*
X1053530Y-23755877D01*
X1053530Y-23755877D01*
G37*
G36*
X24930000Y-25125000D02*
G01*
X23470000Y-25125000D01*
X23470000Y-22175000D01*
X24930000Y-22175000D01*
X24930000Y-25125000D01*
X24930000Y-25125000D01*
G37*
G36*
X27130000Y-25125000D02*
G01*
X25670000Y-25125000D01*
X25670000Y-24075000D01*
X27130000Y-24075000D01*
X27130000Y-25125000D01*
X27130000Y-25125000D01*
G37*
G36*
X5953530Y-22805877D02*
G01*
X6005010Y-22821493D01*
X6052445Y-22846848D01*
X6094027Y-22880973D01*
X6128152Y-22922555D01*
X6153507Y-22969990D01*
X6169123Y-23021470D01*
X6175000Y-23081140D01*
X6175000Y-23968860D01*
X6169123Y-24028530D01*
X6153507Y-24080010D01*
X6128152Y-24127445D01*
X6094027Y-24169027D01*
X6052445Y-24203152D01*
X6005010Y-24228507D01*
X5953530Y-24244123D01*
X5893860Y-24250000D01*
X5106140Y-24250000D01*
X5046470Y-24244123D01*
X4994990Y-24228507D01*
X4947555Y-24203152D01*
X4905973Y-24169027D01*
X4871848Y-24127445D01*
X4846493Y-24080010D01*
X4830877Y-24028530D01*
X4825000Y-23968860D01*
X4825000Y-23081140D01*
X4830877Y-23021470D01*
X4846493Y-22969990D01*
X4871848Y-22922555D01*
X4905973Y-22880973D01*
X4947555Y-22846848D01*
X4994990Y-22821493D01*
X5046470Y-22805877D01*
X5106140Y-22800000D01*
X5893860Y-22800000D01*
X5953530Y-22805877D01*
X5953530Y-22805877D01*
G37*
G36*
X2953530Y-22805877D02*
G01*
X3005010Y-22821493D01*
X3052445Y-22846848D01*
X3094027Y-22880973D01*
X3128152Y-22922555D01*
X3153507Y-22969990D01*
X3169123Y-23021470D01*
X3175000Y-23081140D01*
X3175000Y-23968860D01*
X3169123Y-24028530D01*
X3153507Y-24080010D01*
X3128152Y-24127445D01*
X3094027Y-24169027D01*
X3052445Y-24203152D01*
X3005010Y-24228507D01*
X2953530Y-24244123D01*
X2893860Y-24250000D01*
X2106140Y-24250000D01*
X2046470Y-24244123D01*
X1994990Y-24228507D01*
X1947555Y-24203152D01*
X1905973Y-24169027D01*
X1871848Y-24127445D01*
X1846493Y-24080010D01*
X1830877Y-24028530D01*
X1825000Y-23968860D01*
X1825000Y-23081140D01*
X1830877Y-23021470D01*
X1846493Y-22969990D01*
X1871848Y-22922555D01*
X1905973Y-22880973D01*
X1947555Y-22846848D01*
X1994990Y-22821493D01*
X2046470Y-22805877D01*
X2106140Y-22800000D01*
X2893860Y-22800000D01*
X2953530Y-22805877D01*
X2953530Y-22805877D01*
G37*
G36*
X-1621470Y-22530877D02*
G01*
X-1569990Y-22546493D01*
X-1522555Y-22571848D01*
X-1480973Y-22605973D01*
X-1446848Y-22647555D01*
X-1421493Y-22694990D01*
X-1405877Y-22746470D01*
X-1400000Y-22806140D01*
X-1400000Y-23593860D01*
X-1405877Y-23653530D01*
X-1421493Y-23705010D01*
X-1446848Y-23752445D01*
X-1480973Y-23794027D01*
X-1522555Y-23828152D01*
X-1569990Y-23853507D01*
X-1621470Y-23869123D01*
X-1681140Y-23875000D01*
X-2568860Y-23875000D01*
X-2628530Y-23869123D01*
X-2680010Y-23853507D01*
X-2727445Y-23828152D01*
X-2769027Y-23794027D01*
X-2803152Y-23752445D01*
X-2828507Y-23705010D01*
X-2844123Y-23653530D01*
X-2850000Y-23593860D01*
X-2850000Y-22806140D01*
X-2844123Y-22746470D01*
X-2828507Y-22694990D01*
X-2803152Y-22647555D01*
X-2769027Y-22605973D01*
X-2727445Y-22571848D01*
X-2680010Y-22546493D01*
X-2628530Y-22530877D01*
X-2568860Y-22525000D01*
X-1681140Y-22525000D01*
X-1621470Y-22530877D01*
X-1621470Y-22530877D01*
G37*
G36*
X-3371470Y-22530877D02*
G01*
X-3319990Y-22546493D01*
X-3272555Y-22571848D01*
X-3230973Y-22605973D01*
X-3196848Y-22647555D01*
X-3171493Y-22694990D01*
X-3155877Y-22746470D01*
X-3150000Y-22806140D01*
X-3150000Y-23593860D01*
X-3155877Y-23653530D01*
X-3171493Y-23705010D01*
X-3196848Y-23752445D01*
X-3230973Y-23794027D01*
X-3272555Y-23828152D01*
X-3319990Y-23853507D01*
X-3371470Y-23869123D01*
X-3431140Y-23875000D01*
X-4318860Y-23875000D01*
X-4378530Y-23869123D01*
X-4430010Y-23853507D01*
X-4477445Y-23828152D01*
X-4519027Y-23794027D01*
X-4553152Y-23752445D01*
X-4578507Y-23705010D01*
X-4594123Y-23653530D01*
X-4600000Y-23593860D01*
X-4600000Y-22806140D01*
X-4594123Y-22746470D01*
X-4578507Y-22694990D01*
X-4553152Y-22647555D01*
X-4519027Y-22605973D01*
X-4477445Y-22571848D01*
X-4430010Y-22546493D01*
X-4378530Y-22530877D01*
X-4318860Y-22525000D01*
X-3431140Y-22525000D01*
X-3371470Y-22530877D01*
X-3371470Y-22530877D01*
G37*
G36*
X22853530Y-22205877D02*
G01*
X22905010Y-22221493D01*
X22952445Y-22246848D01*
X22994027Y-22280973D01*
X23028152Y-22322555D01*
X23053507Y-22369990D01*
X23069123Y-22421470D01*
X23075000Y-22481140D01*
X23075000Y-23368860D01*
X23069123Y-23428530D01*
X23053507Y-23480010D01*
X23028152Y-23527445D01*
X22994027Y-23569027D01*
X22952445Y-23603152D01*
X22905010Y-23628507D01*
X22853530Y-23644123D01*
X22793860Y-23650000D01*
X22006140Y-23650000D01*
X21946470Y-23644123D01*
X21894990Y-23628507D01*
X21847555Y-23603152D01*
X21805973Y-23569027D01*
X21771848Y-23527445D01*
X21746493Y-23480010D01*
X21730877Y-23428530D01*
X21725000Y-23368860D01*
X21725000Y-22481140D01*
X21730877Y-22421470D01*
X21746493Y-22369990D01*
X21771848Y-22322555D01*
X21805973Y-22280973D01*
X21847555Y-22246848D01*
X21894990Y-22221493D01*
X21946470Y-22205877D01*
X22006140Y-22200000D01*
X22793860Y-22200000D01*
X22853530Y-22205877D01*
X22853530Y-22205877D01*
G37*
G36*
X19053530Y-22205877D02*
G01*
X19105010Y-22221493D01*
X19152445Y-22246848D01*
X19194027Y-22280973D01*
X19228152Y-22322555D01*
X19253507Y-22369990D01*
X19269123Y-22421470D01*
X19275000Y-22481140D01*
X19275000Y-23368860D01*
X19269123Y-23428530D01*
X19253507Y-23480010D01*
X19228152Y-23527445D01*
X19194027Y-23569027D01*
X19152445Y-23603152D01*
X19105010Y-23628507D01*
X19053530Y-23644123D01*
X18993860Y-23650000D01*
X18206140Y-23650000D01*
X18146470Y-23644123D01*
X18094990Y-23628507D01*
X18047555Y-23603152D01*
X18005973Y-23569027D01*
X17971848Y-23527445D01*
X17946493Y-23480010D01*
X17930877Y-23428530D01*
X17925000Y-23368860D01*
X17925000Y-22481140D01*
X17930877Y-22421470D01*
X17946493Y-22369990D01*
X17971848Y-22322555D01*
X18005973Y-22280973D01*
X18047555Y-22246848D01*
X18094990Y-22221493D01*
X18146470Y-22205877D01*
X18206140Y-22200000D01*
X18993860Y-22200000D01*
X19053530Y-22205877D01*
X19053530Y-22205877D01*
G37*
G36*
X21053530Y-22205877D02*
G01*
X21105010Y-22221493D01*
X21152445Y-22246848D01*
X21194027Y-22280973D01*
X21228152Y-22322555D01*
X21253507Y-22369990D01*
X21269123Y-22421470D01*
X21275000Y-22481140D01*
X21275000Y-23368860D01*
X21269123Y-23428530D01*
X21253507Y-23480010D01*
X21228152Y-23527445D01*
X21194027Y-23569027D01*
X21152445Y-23603152D01*
X21105010Y-23628507D01*
X21053530Y-23644123D01*
X20993860Y-23650000D01*
X20206140Y-23650000D01*
X20146470Y-23644123D01*
X20094990Y-23628507D01*
X20047555Y-23603152D01*
X20005973Y-23569027D01*
X19971848Y-23527445D01*
X19946493Y-23480010D01*
X19930877Y-23428530D01*
X19925000Y-23368860D01*
X19925000Y-22481140D01*
X19930877Y-22421470D01*
X19946493Y-22369990D01*
X19971848Y-22322555D01*
X20005973Y-22280973D01*
X20047555Y-22246848D01*
X20094990Y-22221493D01*
X20146470Y-22205877D01*
X20206140Y-22200000D01*
X20993860Y-22200000D01*
X21053530Y-22205877D01*
X21053530Y-22205877D01*
G37*
G36*
X1053530Y-22005877D02*
G01*
X1105010Y-22021493D01*
X1152445Y-22046848D01*
X1194027Y-22080973D01*
X1228152Y-22122555D01*
X1253507Y-22169990D01*
X1269123Y-22221470D01*
X1275000Y-22281140D01*
X1275000Y-23168860D01*
X1269123Y-23228530D01*
X1253507Y-23280010D01*
X1228152Y-23327445D01*
X1194027Y-23369027D01*
X1152445Y-23403152D01*
X1105010Y-23428507D01*
X1053530Y-23444123D01*
X993860Y-23450000D01*
X206140Y-23450000D01*
X146470Y-23444123D01*
X94990Y-23428507D01*
X47555Y-23403152D01*
X5973Y-23369027D01*
X-28152Y-23327445D01*
X-53507Y-23280010D01*
X-69123Y-23228530D01*
X-75000Y-23168860D01*
X-75000Y-22281140D01*
X-69123Y-22221470D01*
X-53507Y-22169990D01*
X-28152Y-22122555D01*
X5973Y-22080973D01*
X47555Y-22046848D01*
X94990Y-22021493D01*
X146470Y-22005877D01*
X206140Y-22000000D01*
X993860Y-22000000D01*
X1053530Y-22005877D01*
X1053530Y-22005877D01*
G37*
G36*
X28653530Y-22005877D02*
G01*
X28705010Y-22021493D01*
X28752445Y-22046848D01*
X28794027Y-22080973D01*
X28828152Y-22122555D01*
X28853507Y-22169990D01*
X28869123Y-22221470D01*
X28875000Y-22281140D01*
X28875000Y-23168860D01*
X28869123Y-23228530D01*
X28853507Y-23280010D01*
X28828152Y-23327445D01*
X28794027Y-23369027D01*
X28752445Y-23403152D01*
X28705010Y-23428507D01*
X28653530Y-23444123D01*
X28593860Y-23450000D01*
X27806140Y-23450000D01*
X27746470Y-23444123D01*
X27694990Y-23428507D01*
X27647555Y-23403152D01*
X27605973Y-23369027D01*
X27571848Y-23327445D01*
X27546493Y-23280010D01*
X27530877Y-23228530D01*
X27525000Y-23168860D01*
X27525000Y-22281140D01*
X27530877Y-22221470D01*
X27546493Y-22169990D01*
X27571848Y-22122555D01*
X27605973Y-22080973D01*
X27647555Y-22046848D01*
X27694990Y-22021493D01*
X27746470Y-22005877D01*
X27806140Y-22000000D01*
X28593860Y-22000000D01*
X28653530Y-22005877D01*
X28653530Y-22005877D01*
G37*
G36*
X30453530Y-22005877D02*
G01*
X30505010Y-22021493D01*
X30552445Y-22046848D01*
X30594027Y-22080973D01*
X30628152Y-22122555D01*
X30653507Y-22169990D01*
X30669123Y-22221470D01*
X30675000Y-22281140D01*
X30675000Y-23168860D01*
X30669123Y-23228530D01*
X30653507Y-23280010D01*
X30628152Y-23327445D01*
X30594027Y-23369027D01*
X30552445Y-23403152D01*
X30505010Y-23428507D01*
X30453530Y-23444123D01*
X30393860Y-23450000D01*
X29606140Y-23450000D01*
X29546470Y-23444123D01*
X29494990Y-23428507D01*
X29447555Y-23403152D01*
X29405973Y-23369027D01*
X29371848Y-23327445D01*
X29346493Y-23280010D01*
X29330877Y-23228530D01*
X29325000Y-23168860D01*
X29325000Y-22281140D01*
X29330877Y-22221470D01*
X29346493Y-22169990D01*
X29371848Y-22122555D01*
X29405973Y-22080973D01*
X29447555Y-22046848D01*
X29494990Y-22021493D01*
X29546470Y-22005877D01*
X29606140Y-22000000D01*
X30393860Y-22000000D01*
X30453530Y-22005877D01*
X30453530Y-22005877D01*
G37*
G36*
X27130000Y-23225000D02*
G01*
X25670000Y-23225000D01*
X25670000Y-22175000D01*
X27130000Y-22175000D01*
X27130000Y-23225000D01*
X27130000Y-23225000D01*
G37*
G36*
X3232481Y-20130186D02*
G01*
X3277205Y-20143754D01*
X3318430Y-20165789D01*
X3354561Y-20195439D01*
X3384211Y-20231570D01*
X3406246Y-20272795D01*
X3419814Y-20317519D01*
X3425000Y-20370176D01*
X3425000Y-22029824D01*
X3419814Y-22082481D01*
X3406246Y-22127205D01*
X3384211Y-22168430D01*
X3354561Y-22204561D01*
X3318430Y-22234211D01*
X3277205Y-22256246D01*
X3232481Y-22269814D01*
X3179824Y-22275000D01*
X1845176Y-22275000D01*
X1792519Y-22269814D01*
X1747795Y-22256246D01*
X1706570Y-22234211D01*
X1670439Y-22204561D01*
X1640789Y-22168430D01*
X1618754Y-22127205D01*
X1605186Y-22082481D01*
X1600000Y-22029824D01*
X1600000Y-20370176D01*
X1605186Y-20317519D01*
X1618754Y-20272795D01*
X1640789Y-20231570D01*
X1670439Y-20195439D01*
X1706570Y-20165789D01*
X1747795Y-20143754D01*
X1792519Y-20130186D01*
X1845176Y-20125000D01*
X3179824Y-20125000D01*
X3232481Y-20130186D01*
X3232481Y-20130186D01*
G37*
G36*
X6207481Y-20130186D02*
G01*
X6252205Y-20143754D01*
X6293430Y-20165789D01*
X6329561Y-20195439D01*
X6359211Y-20231570D01*
X6381246Y-20272795D01*
X6394814Y-20317519D01*
X6400000Y-20370176D01*
X6400000Y-22029824D01*
X6394814Y-22082481D01*
X6381246Y-22127205D01*
X6359211Y-22168430D01*
X6329561Y-22204561D01*
X6293430Y-22234211D01*
X6252205Y-22256246D01*
X6207481Y-22269814D01*
X6154824Y-22275000D01*
X4820176Y-22275000D01*
X4767519Y-22269814D01*
X4722795Y-22256246D01*
X4681570Y-22234211D01*
X4645439Y-22204561D01*
X4615789Y-22168430D01*
X4593754Y-22127205D01*
X4580186Y-22082481D01*
X4575000Y-22029824D01*
X4575000Y-20370176D01*
X4580186Y-20317519D01*
X4593754Y-20272795D01*
X4615789Y-20231570D01*
X4645439Y-20195439D01*
X4681570Y-20165789D01*
X4722795Y-20143754D01*
X4767519Y-20130186D01*
X4820176Y-20125000D01*
X6154824Y-20125000D01*
X6207481Y-20130186D01*
X6207481Y-20130186D01*
G37*
G36*
X9685529Y-20555710D02*
G01*
X9735378Y-20570831D01*
X9781310Y-20595382D01*
X9821574Y-20628426D01*
X9854618Y-20668690D01*
X9879169Y-20714622D01*
X9894290Y-20764471D01*
X9900000Y-20822444D01*
X9900000Y-21827556D01*
X9894290Y-21885529D01*
X9879169Y-21935378D01*
X9854618Y-21981310D01*
X9821574Y-22021574D01*
X9781310Y-22054618D01*
X9735378Y-22079169D01*
X9685529Y-22094290D01*
X9627556Y-22100000D01*
X8372444Y-22100000D01*
X8314471Y-22094290D01*
X8264622Y-22079169D01*
X8218690Y-22054618D01*
X8178426Y-22021574D01*
X8145382Y-21981310D01*
X8120831Y-21935378D01*
X8105710Y-21885529D01*
X8100000Y-21827556D01*
X8100000Y-20822444D01*
X8105710Y-20764471D01*
X8120831Y-20714622D01*
X8145382Y-20668690D01*
X8178426Y-20628426D01*
X8218690Y-20595382D01*
X8264622Y-20570831D01*
X8314471Y-20555710D01*
X8372444Y-20550000D01*
X9627556Y-20550000D01*
X9685529Y-20555710D01*
X9685529Y-20555710D01*
G37*
G36*
X-3371470Y-20730877D02*
G01*
X-3319990Y-20746493D01*
X-3272555Y-20771848D01*
X-3230973Y-20805973D01*
X-3196848Y-20847555D01*
X-3171493Y-20894990D01*
X-3155877Y-20946470D01*
X-3150000Y-21006140D01*
X-3150000Y-21793860D01*
X-3155877Y-21853530D01*
X-3171493Y-21905010D01*
X-3196848Y-21952445D01*
X-3230973Y-21994027D01*
X-3272555Y-22028152D01*
X-3319990Y-22053507D01*
X-3371470Y-22069123D01*
X-3431140Y-22075000D01*
X-4318860Y-22075000D01*
X-4378530Y-22069123D01*
X-4430010Y-22053507D01*
X-4477445Y-22028152D01*
X-4519027Y-21994027D01*
X-4553152Y-21952445D01*
X-4578507Y-21905010D01*
X-4594123Y-21853530D01*
X-4600000Y-21793860D01*
X-4600000Y-21006140D01*
X-4594123Y-20946470D01*
X-4578507Y-20894990D01*
X-4553152Y-20847555D01*
X-4519027Y-20805973D01*
X-4477445Y-20771848D01*
X-4430010Y-20746493D01*
X-4378530Y-20730877D01*
X-4318860Y-20725000D01*
X-3431140Y-20725000D01*
X-3371470Y-20730877D01*
X-3371470Y-20730877D01*
G37*
G36*
X-1621470Y-20730877D02*
G01*
X-1569990Y-20746493D01*
X-1522555Y-20771848D01*
X-1480973Y-20805973D01*
X-1446848Y-20847555D01*
X-1421493Y-20894990D01*
X-1405877Y-20946470D01*
X-1400000Y-21006140D01*
X-1400000Y-21793860D01*
X-1405877Y-21853530D01*
X-1421493Y-21905010D01*
X-1446848Y-21952445D01*
X-1480973Y-21994027D01*
X-1522555Y-22028152D01*
X-1569990Y-22053507D01*
X-1621470Y-22069123D01*
X-1681140Y-22075000D01*
X-2568860Y-22075000D01*
X-2628530Y-22069123D01*
X-2680010Y-22053507D01*
X-2727445Y-22028152D01*
X-2769027Y-21994027D01*
X-2803152Y-21952445D01*
X-2828507Y-21905010D01*
X-2844123Y-21853530D01*
X-2850000Y-21793860D01*
X-2850000Y-21006140D01*
X-2844123Y-20946470D01*
X-2828507Y-20894990D01*
X-2803152Y-20847555D01*
X-2769027Y-20805973D01*
X-2727445Y-20771848D01*
X-2680010Y-20746493D01*
X-2628530Y-20730877D01*
X-2568860Y-20725000D01*
X-1681140Y-20725000D01*
X-1621470Y-20730877D01*
X-1621470Y-20730877D01*
G37*
G36*
X11935529Y-20105710D02*
G01*
X11985378Y-20120831D01*
X12031310Y-20145382D01*
X12071574Y-20178426D01*
X12104618Y-20218690D01*
X12129169Y-20264622D01*
X12144290Y-20314471D01*
X12150000Y-20372444D01*
X12150000Y-21627556D01*
X12144290Y-21685529D01*
X12129169Y-21735378D01*
X12104618Y-21781310D01*
X12071574Y-21821574D01*
X12031310Y-21854618D01*
X11985378Y-21879169D01*
X11935529Y-21894290D01*
X11877556Y-21900000D01*
X10872444Y-21900000D01*
X10814471Y-21894290D01*
X10764622Y-21879169D01*
X10718690Y-21854618D01*
X10678426Y-21821574D01*
X10645382Y-21781310D01*
X10620831Y-21735378D01*
X10605710Y-21685529D01*
X10600000Y-21627556D01*
X10600000Y-20372444D01*
X10605710Y-20314471D01*
X10620831Y-20264622D01*
X10645382Y-20218690D01*
X10678426Y-20178426D01*
X10718690Y-20145382D01*
X10764622Y-20120831D01*
X10814471Y-20105710D01*
X10872444Y-20100000D01*
X11877556Y-20100000D01*
X11935529Y-20105710D01*
X11935529Y-20105710D01*
G37*
G36*
X13985529Y-20105710D02*
G01*
X14035378Y-20120831D01*
X14081310Y-20145382D01*
X14121574Y-20178426D01*
X14154618Y-20218690D01*
X14179169Y-20264622D01*
X14194290Y-20314471D01*
X14200000Y-20372444D01*
X14200000Y-21627556D01*
X14194290Y-21685529D01*
X14179169Y-21735378D01*
X14154618Y-21781310D01*
X14121574Y-21821574D01*
X14081310Y-21854618D01*
X14035378Y-21879169D01*
X13985529Y-21894290D01*
X13927556Y-21900000D01*
X12922444Y-21900000D01*
X12864471Y-21894290D01*
X12814622Y-21879169D01*
X12768690Y-21854618D01*
X12728426Y-21821574D01*
X12695382Y-21781310D01*
X12670831Y-21735378D01*
X12655710Y-21685529D01*
X12650000Y-21627556D01*
X12650000Y-20372444D01*
X12655710Y-20314471D01*
X12670831Y-20264622D01*
X12695382Y-20218690D01*
X12728426Y-20178426D01*
X12768690Y-20145382D01*
X12814622Y-20120831D01*
X12864471Y-20105710D01*
X12922444Y-20100000D01*
X13927556Y-20100000D01*
X13985529Y-20105710D01*
X13985529Y-20105710D01*
G37*
G36*
X19428530Y-20330877D02*
G01*
X19480010Y-20346493D01*
X19527445Y-20371848D01*
X19569027Y-20405973D01*
X19603152Y-20447555D01*
X19628507Y-20494990D01*
X19644123Y-20546470D01*
X19650000Y-20606140D01*
X19650000Y-21393860D01*
X19644123Y-21453530D01*
X19628507Y-21505010D01*
X19603152Y-21552445D01*
X19569027Y-21594027D01*
X19527445Y-21628152D01*
X19480010Y-21653507D01*
X19428530Y-21669123D01*
X19368860Y-21675000D01*
X18481140Y-21675000D01*
X18421470Y-21669123D01*
X18369990Y-21653507D01*
X18322555Y-21628152D01*
X18280973Y-21594027D01*
X18246848Y-21552445D01*
X18221493Y-21505010D01*
X18205877Y-21453530D01*
X18200000Y-21393860D01*
X18200000Y-20606140D01*
X18205877Y-20546470D01*
X18221493Y-20494990D01*
X18246848Y-20447555D01*
X18280973Y-20405973D01*
X18322555Y-20371848D01*
X18369990Y-20346493D01*
X18421470Y-20330877D01*
X18481140Y-20325000D01*
X19368860Y-20325000D01*
X19428530Y-20330877D01*
X19428530Y-20330877D01*
G37*
G36*
X15828530Y-20330877D02*
G01*
X15880010Y-20346493D01*
X15927445Y-20371848D01*
X15969027Y-20405973D01*
X16003152Y-20447555D01*
X16028507Y-20494990D01*
X16044123Y-20546470D01*
X16050000Y-20606140D01*
X16050000Y-21393860D01*
X16044123Y-21453530D01*
X16028507Y-21505010D01*
X16003152Y-21552445D01*
X15969027Y-21594027D01*
X15927445Y-21628152D01*
X15880010Y-21653507D01*
X15828530Y-21669123D01*
X15768860Y-21675000D01*
X14881140Y-21675000D01*
X14821470Y-21669123D01*
X14769990Y-21653507D01*
X14722555Y-21628152D01*
X14680973Y-21594027D01*
X14646848Y-21552445D01*
X14621493Y-21505010D01*
X14605877Y-21453530D01*
X14600000Y-21393860D01*
X14600000Y-20606140D01*
X14605877Y-20546470D01*
X14621493Y-20494990D01*
X14646848Y-20447555D01*
X14680973Y-20405973D01*
X14722555Y-20371848D01*
X14769990Y-20346493D01*
X14821470Y-20330877D01*
X14881140Y-20325000D01*
X15768860Y-20325000D01*
X15828530Y-20330877D01*
X15828530Y-20330877D01*
G37*
G36*
X17578530Y-20330877D02*
G01*
X17630010Y-20346493D01*
X17677445Y-20371848D01*
X17719027Y-20405973D01*
X17753152Y-20447555D01*
X17778507Y-20494990D01*
X17794123Y-20546470D01*
X17800000Y-20606140D01*
X17800000Y-21393860D01*
X17794123Y-21453530D01*
X17778507Y-21505010D01*
X17753152Y-21552445D01*
X17719027Y-21594027D01*
X17677445Y-21628152D01*
X17630010Y-21653507D01*
X17578530Y-21669123D01*
X17518860Y-21675000D01*
X16631140Y-21675000D01*
X16571470Y-21669123D01*
X16519990Y-21653507D01*
X16472555Y-21628152D01*
X16430973Y-21594027D01*
X16396848Y-21552445D01*
X16371493Y-21505010D01*
X16355877Y-21453530D01*
X16350000Y-21393860D01*
X16350000Y-20606140D01*
X16355877Y-20546470D01*
X16371493Y-20494990D01*
X16396848Y-20447555D01*
X16430973Y-20405973D01*
X16472555Y-20371848D01*
X16519990Y-20346493D01*
X16571470Y-20330877D01*
X16631140Y-20325000D01*
X17518860Y-20325000D01*
X17578530Y-20330877D01*
X17578530Y-20330877D01*
G37*
G36*
X21178530Y-20330877D02*
G01*
X21230010Y-20346493D01*
X21277445Y-20371848D01*
X21319027Y-20405973D01*
X21353152Y-20447555D01*
X21378507Y-20494990D01*
X21394123Y-20546470D01*
X21400000Y-20606140D01*
X21400000Y-21393860D01*
X21394123Y-21453530D01*
X21378507Y-21505010D01*
X21353152Y-21552445D01*
X21319027Y-21594027D01*
X21277445Y-21628152D01*
X21230010Y-21653507D01*
X21178530Y-21669123D01*
X21118860Y-21675000D01*
X20231140Y-21675000D01*
X20171470Y-21669123D01*
X20119990Y-21653507D01*
X20072555Y-21628152D01*
X20030973Y-21594027D01*
X19996848Y-21552445D01*
X19971493Y-21505010D01*
X19955877Y-21453530D01*
X19950000Y-21393860D01*
X19950000Y-20606140D01*
X19955877Y-20546470D01*
X19971493Y-20494990D01*
X19996848Y-20447555D01*
X20030973Y-20405973D01*
X20072555Y-20371848D01*
X20119990Y-20346493D01*
X20171470Y-20330877D01*
X20231140Y-20325000D01*
X21118860Y-20325000D01*
X21178530Y-20330877D01*
X21178530Y-20330877D01*
G37*
G36*
X1053530Y-20080877D02*
G01*
X1105010Y-20096493D01*
X1152445Y-20121848D01*
X1194027Y-20155973D01*
X1228152Y-20197555D01*
X1253507Y-20244990D01*
X1269123Y-20296470D01*
X1275000Y-20356140D01*
X1275000Y-21243860D01*
X1269123Y-21303530D01*
X1253507Y-21355010D01*
X1228152Y-21402445D01*
X1194027Y-21444027D01*
X1152445Y-21478152D01*
X1105010Y-21503507D01*
X1053530Y-21519123D01*
X993860Y-21525000D01*
X206140Y-21525000D01*
X146470Y-21519123D01*
X94990Y-21503507D01*
X47555Y-21478152D01*
X5973Y-21444027D01*
X-28152Y-21402445D01*
X-53507Y-21355010D01*
X-69123Y-21303530D01*
X-75000Y-21243860D01*
X-75000Y-20356140D01*
X-69123Y-20296470D01*
X-53507Y-20244990D01*
X-28152Y-20197555D01*
X5973Y-20155973D01*
X47555Y-20121848D01*
X94990Y-20096493D01*
X146470Y-20080877D01*
X206140Y-20075000D01*
X993860Y-20075000D01*
X1053530Y-20080877D01*
X1053530Y-20080877D01*
G37*
G36*
X-1621470Y-18930877D02*
G01*
X-1569990Y-18946493D01*
X-1522555Y-18971848D01*
X-1480973Y-19005973D01*
X-1446848Y-19047555D01*
X-1421493Y-19094990D01*
X-1405877Y-19146470D01*
X-1400000Y-19206140D01*
X-1400000Y-19993860D01*
X-1405877Y-20053530D01*
X-1421493Y-20105010D01*
X-1446848Y-20152445D01*
X-1480973Y-20194027D01*
X-1522555Y-20228152D01*
X-1569990Y-20253507D01*
X-1621470Y-20269123D01*
X-1681140Y-20275000D01*
X-2568860Y-20275000D01*
X-2628530Y-20269123D01*
X-2680010Y-20253507D01*
X-2727445Y-20228152D01*
X-2769027Y-20194027D01*
X-2803152Y-20152445D01*
X-2828507Y-20105010D01*
X-2844123Y-20053530D01*
X-2850000Y-19993860D01*
X-2850000Y-19206140D01*
X-2844123Y-19146470D01*
X-2828507Y-19094990D01*
X-2803152Y-19047555D01*
X-2769027Y-19005973D01*
X-2727445Y-18971848D01*
X-2680010Y-18946493D01*
X-2628530Y-18930877D01*
X-2568860Y-18925000D01*
X-1681140Y-18925000D01*
X-1621470Y-18930877D01*
X-1621470Y-18930877D01*
G37*
G36*
X-3371470Y-18930877D02*
G01*
X-3319990Y-18946493D01*
X-3272555Y-18971848D01*
X-3230973Y-19005973D01*
X-3196848Y-19047555D01*
X-3171493Y-19094990D01*
X-3155877Y-19146470D01*
X-3150000Y-19206140D01*
X-3150000Y-19993860D01*
X-3155877Y-20053530D01*
X-3171493Y-20105010D01*
X-3196848Y-20152445D01*
X-3230973Y-20194027D01*
X-3272555Y-20228152D01*
X-3319990Y-20253507D01*
X-3371470Y-20269123D01*
X-3431140Y-20275000D01*
X-4318860Y-20275000D01*
X-4378530Y-20269123D01*
X-4430010Y-20253507D01*
X-4477445Y-20228152D01*
X-4519027Y-20194027D01*
X-4553152Y-20152445D01*
X-4578507Y-20105010D01*
X-4594123Y-20053530D01*
X-4600000Y-19993860D01*
X-4600000Y-19206140D01*
X-4594123Y-19146470D01*
X-4578507Y-19094990D01*
X-4553152Y-19047555D01*
X-4519027Y-19005973D01*
X-4477445Y-18971848D01*
X-4430010Y-18946493D01*
X-4378530Y-18930877D01*
X-4318860Y-18925000D01*
X-3431140Y-18925000D01*
X-3371470Y-18930877D01*
X-3371470Y-18930877D01*
G37*
G36*
X9685529Y-18505710D02*
G01*
X9735378Y-18520831D01*
X9781310Y-18545382D01*
X9821574Y-18578426D01*
X9854618Y-18618690D01*
X9879169Y-18664622D01*
X9894290Y-18714471D01*
X9900000Y-18772444D01*
X9900000Y-19777556D01*
X9894290Y-19835529D01*
X9879169Y-19885378D01*
X9854618Y-19931310D01*
X9821574Y-19971574D01*
X9781310Y-20004618D01*
X9735378Y-20029169D01*
X9685529Y-20044290D01*
X9627556Y-20050000D01*
X8372444Y-20050000D01*
X8314471Y-20044290D01*
X8264622Y-20029169D01*
X8218690Y-20004618D01*
X8178426Y-19971574D01*
X8145382Y-19931310D01*
X8120831Y-19885378D01*
X8105710Y-19835529D01*
X8100000Y-19777556D01*
X8100000Y-18772444D01*
X8105710Y-18714471D01*
X8120831Y-18664622D01*
X8145382Y-18618690D01*
X8178426Y-18578426D01*
X8218690Y-18545382D01*
X8264622Y-18520831D01*
X8314471Y-18505710D01*
X8372444Y-18500000D01*
X9627556Y-18500000D01*
X9685529Y-18505710D01*
X9685529Y-18505710D01*
G37*
G36*
X19482481Y-17980186D02*
G01*
X19527205Y-17993754D01*
X19568430Y-18015789D01*
X19604561Y-18045439D01*
X19634211Y-18081570D01*
X19656246Y-18122795D01*
X19669814Y-18167519D01*
X19675000Y-18220176D01*
X19675000Y-19554824D01*
X19669814Y-19607481D01*
X19656246Y-19652205D01*
X19634211Y-19693430D01*
X19604561Y-19729561D01*
X19568430Y-19759211D01*
X19527205Y-19781246D01*
X19482481Y-19794814D01*
X19429824Y-19800000D01*
X17770176Y-19800000D01*
X17717519Y-19794814D01*
X17672795Y-19781246D01*
X17631570Y-19759211D01*
X17595439Y-19729561D01*
X17565789Y-19693430D01*
X17543754Y-19652205D01*
X17530186Y-19607481D01*
X17525000Y-19554824D01*
X17525000Y-18220176D01*
X17530186Y-18167519D01*
X17543754Y-18122795D01*
X17565789Y-18081570D01*
X17595439Y-18045439D01*
X17631570Y-18015789D01*
X17672795Y-17993754D01*
X17717519Y-17980186D01*
X17770176Y-17975000D01*
X19429824Y-17975000D01*
X19482481Y-17980186D01*
X19482481Y-17980186D01*
G37*
G36*
X1053530Y-18330877D02*
G01*
X1105010Y-18346493D01*
X1152445Y-18371848D01*
X1194027Y-18405973D01*
X1228152Y-18447555D01*
X1253507Y-18494990D01*
X1269123Y-18546470D01*
X1275000Y-18606140D01*
X1275000Y-19493860D01*
X1269123Y-19553530D01*
X1253507Y-19605010D01*
X1228152Y-19652445D01*
X1194027Y-19694027D01*
X1152445Y-19728152D01*
X1105010Y-19753507D01*
X1053530Y-19769123D01*
X993860Y-19775000D01*
X206140Y-19775000D01*
X146470Y-19769123D01*
X94990Y-19753507D01*
X47555Y-19728152D01*
X5973Y-19694027D01*
X-28152Y-19652445D01*
X-53507Y-19605010D01*
X-69123Y-19553530D01*
X-75000Y-19493860D01*
X-75000Y-18606140D01*
X-69123Y-18546470D01*
X-53507Y-18494990D01*
X-28152Y-18447555D01*
X5973Y-18405973D01*
X47555Y-18371848D01*
X94990Y-18346493D01*
X146470Y-18330877D01*
X206140Y-18325000D01*
X993860Y-18325000D01*
X1053530Y-18330877D01*
X1053530Y-18330877D01*
G37*
G36*
X-11800000Y-19650000D02*
G01*
X-13200000Y-19650000D01*
X-13200000Y-18250000D01*
X-11800000Y-18250000D01*
X-11800000Y-19650000D01*
X-11800000Y-19650000D01*
G37*
G36*
X21228530Y-18130877D02*
G01*
X21280010Y-18146493D01*
X21327445Y-18171848D01*
X21369027Y-18205973D01*
X21403152Y-18247555D01*
X21428507Y-18294990D01*
X21444123Y-18346470D01*
X21450000Y-18406140D01*
X21450000Y-19193860D01*
X21444123Y-19253530D01*
X21428507Y-19305010D01*
X21403152Y-19352445D01*
X21369027Y-19394027D01*
X21327445Y-19428152D01*
X21280010Y-19453507D01*
X21228530Y-19469123D01*
X21168860Y-19475000D01*
X20281140Y-19475000D01*
X20221470Y-19469123D01*
X20169990Y-19453507D01*
X20122555Y-19428152D01*
X20080973Y-19394027D01*
X20046848Y-19352445D01*
X20021493Y-19305010D01*
X20005877Y-19253530D01*
X20000000Y-19193860D01*
X20000000Y-18406140D01*
X20005877Y-18346470D01*
X20021493Y-18294990D01*
X20046848Y-18247555D01*
X20080973Y-18205973D01*
X20122555Y-18171848D01*
X20169990Y-18146493D01*
X20221470Y-18130877D01*
X20281140Y-18125000D01*
X21168860Y-18125000D01*
X21228530Y-18130877D01*
X21228530Y-18130877D01*
G37*
G36*
X12100000Y-19475000D02*
G01*
X10480000Y-19475000D01*
X10480000Y-16525000D01*
X12100000Y-16525000D01*
X12100000Y-19475000D01*
X12100000Y-19475000D01*
G37*
G36*
X22978530Y-18130877D02*
G01*
X23030010Y-18146493D01*
X23077445Y-18171848D01*
X23119027Y-18205973D01*
X23153152Y-18247555D01*
X23178507Y-18294990D01*
X23194123Y-18346470D01*
X23200000Y-18406140D01*
X23200000Y-19193860D01*
X23194123Y-19253530D01*
X23178507Y-19305010D01*
X23153152Y-19352445D01*
X23119027Y-19394027D01*
X23077445Y-19428152D01*
X23030010Y-19453507D01*
X22978530Y-19469123D01*
X22918860Y-19475000D01*
X22031140Y-19475000D01*
X21971470Y-19469123D01*
X21919990Y-19453507D01*
X21872555Y-19428152D01*
X21830973Y-19394027D01*
X21796848Y-19352445D01*
X21771493Y-19305010D01*
X21755877Y-19253530D01*
X21750000Y-19193860D01*
X21750000Y-18406140D01*
X21755877Y-18346470D01*
X21771493Y-18294990D01*
X21796848Y-18247555D01*
X21830973Y-18205973D01*
X21872555Y-18171848D01*
X21919990Y-18146493D01*
X21971470Y-18130877D01*
X22031140Y-18125000D01*
X22918860Y-18125000D01*
X22978530Y-18130877D01*
X22978530Y-18130877D01*
G37*
G36*
X14720000Y-19475000D02*
G01*
X13100000Y-19475000D01*
X13100000Y-18425000D01*
X14720000Y-18425000D01*
X14720000Y-19475000D01*
X14720000Y-19475000D01*
G37*
G36*
X26575000Y-19230000D02*
G01*
X25525000Y-19230000D01*
X25525000Y-17770000D01*
X26575000Y-17770000D01*
X26575000Y-19230000D01*
X26575000Y-19230000D01*
G37*
G36*
X28475000Y-19230000D02*
G01*
X27425000Y-19230000D01*
X27425000Y-17770000D01*
X28475000Y-17770000D01*
X28475000Y-19230000D01*
X28475000Y-19230000D01*
G37*
G36*
X30253530Y-17555877D02*
G01*
X30305010Y-17571493D01*
X30352445Y-17596848D01*
X30394027Y-17630973D01*
X30428152Y-17672555D01*
X30453507Y-17719990D01*
X30469123Y-17771470D01*
X30475000Y-17831140D01*
X30475000Y-18718860D01*
X30469123Y-18778530D01*
X30453507Y-18830010D01*
X30428152Y-18877445D01*
X30394027Y-18919027D01*
X30352445Y-18953152D01*
X30305010Y-18978507D01*
X30253530Y-18994123D01*
X30193860Y-19000000D01*
X29406140Y-19000000D01*
X29346470Y-18994123D01*
X29294990Y-18978507D01*
X29247555Y-18953152D01*
X29205973Y-18919027D01*
X29171848Y-18877445D01*
X29146493Y-18830010D01*
X29130877Y-18778530D01*
X29125000Y-18718860D01*
X29125000Y-17831140D01*
X29130877Y-17771470D01*
X29146493Y-17719990D01*
X29171848Y-17672555D01*
X29205973Y-17630973D01*
X29247555Y-17596848D01*
X29294990Y-17571493D01*
X29346470Y-17555877D01*
X29406140Y-17550000D01*
X30193860Y-17550000D01*
X30253530Y-17555877D01*
X30253530Y-17555877D01*
G37*
G36*
X32053530Y-17555877D02*
G01*
X32105010Y-17571493D01*
X32152445Y-17596848D01*
X32194027Y-17630973D01*
X32228152Y-17672555D01*
X32253507Y-17719990D01*
X32269123Y-17771470D01*
X32275000Y-17831140D01*
X32275000Y-18718860D01*
X32269123Y-18778530D01*
X32253507Y-18830010D01*
X32228152Y-18877445D01*
X32194027Y-18919027D01*
X32152445Y-18953152D01*
X32105010Y-18978507D01*
X32053530Y-18994123D01*
X31993860Y-19000000D01*
X31206140Y-19000000D01*
X31146470Y-18994123D01*
X31094990Y-18978507D01*
X31047555Y-18953152D01*
X31005973Y-18919027D01*
X30971848Y-18877445D01*
X30946493Y-18830010D01*
X30930877Y-18778530D01*
X30925000Y-18718860D01*
X30925000Y-17831140D01*
X30930877Y-17771470D01*
X30946493Y-17719990D01*
X30971848Y-17672555D01*
X31005973Y-17630973D01*
X31047555Y-17596848D01*
X31094990Y-17571493D01*
X31146470Y-17555877D01*
X31206140Y-17550000D01*
X31993860Y-17550000D01*
X32053530Y-17555877D01*
X32053530Y-17555877D01*
G37*
G36*
X24653530Y-17555877D02*
G01*
X24705010Y-17571493D01*
X24752445Y-17596848D01*
X24794027Y-17630973D01*
X24828152Y-17672555D01*
X24853507Y-17719990D01*
X24869123Y-17771470D01*
X24875000Y-17831140D01*
X24875000Y-18718860D01*
X24869123Y-18778530D01*
X24853507Y-18830010D01*
X24828152Y-18877445D01*
X24794027Y-18919027D01*
X24752445Y-18953152D01*
X24705010Y-18978507D01*
X24653530Y-18994123D01*
X24593860Y-19000000D01*
X23806140Y-19000000D01*
X23746470Y-18994123D01*
X23694990Y-18978507D01*
X23647555Y-18953152D01*
X23605973Y-18919027D01*
X23571848Y-18877445D01*
X23546493Y-18830010D01*
X23530877Y-18778530D01*
X23525000Y-18718860D01*
X23525000Y-17831140D01*
X23530877Y-17771470D01*
X23546493Y-17719990D01*
X23571848Y-17672555D01*
X23605973Y-17630973D01*
X23647555Y-17596848D01*
X23694990Y-17571493D01*
X23746470Y-17555877D01*
X23806140Y-17550000D01*
X24593860Y-17550000D01*
X24653530Y-17555877D01*
X24653530Y-17555877D01*
G37*
G36*
X16685529Y-17255710D02*
G01*
X16735378Y-17270831D01*
X16781310Y-17295382D01*
X16821574Y-17328426D01*
X16854618Y-17368690D01*
X16879169Y-17414622D01*
X16894290Y-17464471D01*
X16900000Y-17522444D01*
X16900000Y-18527556D01*
X16894290Y-18585529D01*
X16879169Y-18635378D01*
X16854618Y-18681310D01*
X16821574Y-18721574D01*
X16781310Y-18754618D01*
X16735378Y-18779169D01*
X16685529Y-18794290D01*
X16627556Y-18800000D01*
X15372444Y-18800000D01*
X15314471Y-18794290D01*
X15264622Y-18779169D01*
X15218690Y-18754618D01*
X15178426Y-18721574D01*
X15145382Y-18681310D01*
X15120831Y-18635378D01*
X15105710Y-18585529D01*
X15100000Y-18527556D01*
X15100000Y-17522444D01*
X15105710Y-17464471D01*
X15120831Y-17414622D01*
X15145382Y-17368690D01*
X15178426Y-17328426D01*
X15218690Y-17295382D01*
X15264622Y-17270831D01*
X15314471Y-17255710D01*
X15372444Y-17250000D01*
X16627556Y-17250000D01*
X16685529Y-17255710D01*
X16685529Y-17255710D01*
G37*
G36*
X1985529Y-16355710D02*
G01*
X2035378Y-16370831D01*
X2081310Y-16395382D01*
X2121574Y-16428426D01*
X2154618Y-16468690D01*
X2179169Y-16514622D01*
X2194290Y-16564471D01*
X2200000Y-16622444D01*
X2200000Y-17627556D01*
X2194290Y-17685529D01*
X2179169Y-17735378D01*
X2154618Y-17781310D01*
X2121574Y-17821574D01*
X2081310Y-17854618D01*
X2035378Y-17879169D01*
X1985529Y-17894290D01*
X1927556Y-17900000D01*
X672444Y-17900000D01*
X614471Y-17894290D01*
X564622Y-17879169D01*
X518690Y-17854618D01*
X478426Y-17821574D01*
X445382Y-17781310D01*
X420831Y-17735378D01*
X405710Y-17685529D01*
X400000Y-17627556D01*
X400000Y-16622444D01*
X405710Y-16564471D01*
X420831Y-16514622D01*
X445382Y-16468690D01*
X478426Y-16428426D01*
X518690Y-16395382D01*
X564622Y-16370831D01*
X614471Y-16355710D01*
X672444Y-16350000D01*
X1927556Y-16350000D01*
X1985529Y-16355710D01*
X1985529Y-16355710D01*
G37*
G36*
X14720000Y-17575000D02*
G01*
X13100000Y-17575000D01*
X13100000Y-16525000D01*
X14720000Y-16525000D01*
X14720000Y-17575000D01*
X14720000Y-17575000D01*
G37*
G36*
X30253530Y-15805877D02*
G01*
X30305010Y-15821493D01*
X30352445Y-15846848D01*
X30394027Y-15880973D01*
X30428152Y-15922555D01*
X30453507Y-15969990D01*
X30469123Y-16021470D01*
X30475000Y-16081140D01*
X30475000Y-16968860D01*
X30469123Y-17028530D01*
X30453507Y-17080010D01*
X30428152Y-17127445D01*
X30394027Y-17169027D01*
X30352445Y-17203152D01*
X30305010Y-17228507D01*
X30253530Y-17244123D01*
X30193860Y-17250000D01*
X29406140Y-17250000D01*
X29346470Y-17244123D01*
X29294990Y-17228507D01*
X29247555Y-17203152D01*
X29205973Y-17169027D01*
X29171848Y-17127445D01*
X29146493Y-17080010D01*
X29130877Y-17028530D01*
X29125000Y-16968860D01*
X29125000Y-16081140D01*
X29130877Y-16021470D01*
X29146493Y-15969990D01*
X29171848Y-15922555D01*
X29205973Y-15880973D01*
X29247555Y-15846848D01*
X29294990Y-15821493D01*
X29346470Y-15805877D01*
X29406140Y-15800000D01*
X30193860Y-15800000D01*
X30253530Y-15805877D01*
X30253530Y-15805877D01*
G37*
G36*
X24653530Y-15805877D02*
G01*
X24705010Y-15821493D01*
X24752445Y-15846848D01*
X24794027Y-15880973D01*
X24828152Y-15922555D01*
X24853507Y-15969990D01*
X24869123Y-16021470D01*
X24875000Y-16081140D01*
X24875000Y-16968860D01*
X24869123Y-17028530D01*
X24853507Y-17080010D01*
X24828152Y-17127445D01*
X24794027Y-17169027D01*
X24752445Y-17203152D01*
X24705010Y-17228507D01*
X24653530Y-17244123D01*
X24593860Y-17250000D01*
X23806140Y-17250000D01*
X23746470Y-17244123D01*
X23694990Y-17228507D01*
X23647555Y-17203152D01*
X23605973Y-17169027D01*
X23571848Y-17127445D01*
X23546493Y-17080010D01*
X23530877Y-17028530D01*
X23525000Y-16968860D01*
X23525000Y-16081140D01*
X23530877Y-16021470D01*
X23546493Y-15969990D01*
X23571848Y-15922555D01*
X23605973Y-15880973D01*
X23647555Y-15846848D01*
X23694990Y-15821493D01*
X23746470Y-15805877D01*
X23806140Y-15800000D01*
X24593860Y-15800000D01*
X24653530Y-15805877D01*
X24653530Y-15805877D01*
G37*
G36*
X32053530Y-15805877D02*
G01*
X32105010Y-15821493D01*
X32152445Y-15846848D01*
X32194027Y-15880973D01*
X32228152Y-15922555D01*
X32253507Y-15969990D01*
X32269123Y-16021470D01*
X32275000Y-16081140D01*
X32275000Y-16968860D01*
X32269123Y-17028530D01*
X32253507Y-17080010D01*
X32228152Y-17127445D01*
X32194027Y-17169027D01*
X32152445Y-17203152D01*
X32105010Y-17228507D01*
X32053530Y-17244123D01*
X31993860Y-17250000D01*
X31206140Y-17250000D01*
X31146470Y-17244123D01*
X31094990Y-17228507D01*
X31047555Y-17203152D01*
X31005973Y-17169027D01*
X30971848Y-17127445D01*
X30946493Y-17080010D01*
X30930877Y-17028530D01*
X30925000Y-16968860D01*
X30925000Y-16081140D01*
X30930877Y-16021470D01*
X30946493Y-15969990D01*
X30971848Y-15922555D01*
X31005973Y-15880973D01*
X31047555Y-15846848D01*
X31094990Y-15821493D01*
X31146470Y-15805877D01*
X31206140Y-15800000D01*
X31993860Y-15800000D01*
X32053530Y-15805877D01*
X32053530Y-15805877D01*
G37*
G36*
X28475000Y-17030000D02*
G01*
X25525000Y-17030000D01*
X25525000Y-15570000D01*
X28475000Y-15570000D01*
X28475000Y-17030000D01*
X28475000Y-17030000D01*
G37*
G36*
X19482481Y-15005186D02*
G01*
X19527205Y-15018754D01*
X19568430Y-15040789D01*
X19604561Y-15070439D01*
X19634211Y-15106570D01*
X19656246Y-15147795D01*
X19669814Y-15192519D01*
X19675000Y-15245176D01*
X19675000Y-16579824D01*
X19669814Y-16632481D01*
X19656246Y-16677205D01*
X19634211Y-16718430D01*
X19604561Y-16754561D01*
X19568430Y-16784211D01*
X19527205Y-16806246D01*
X19482481Y-16819814D01*
X19429824Y-16825000D01*
X17770176Y-16825000D01*
X17717519Y-16819814D01*
X17672795Y-16806246D01*
X17631570Y-16784211D01*
X17595439Y-16754561D01*
X17565789Y-16718430D01*
X17543754Y-16677205D01*
X17530186Y-16632481D01*
X17525000Y-16579824D01*
X17525000Y-15245176D01*
X17530186Y-15192519D01*
X17543754Y-15147795D01*
X17565789Y-15106570D01*
X17595439Y-15070439D01*
X17631570Y-15040789D01*
X17672795Y-15018754D01*
X17717519Y-15005186D01*
X17770176Y-15000000D01*
X19429824Y-15000000D01*
X19482481Y-15005186D01*
X19482481Y-15005186D01*
G37*
G36*
X16685529Y-15205710D02*
G01*
X16735378Y-15220831D01*
X16781310Y-15245382D01*
X16821574Y-15278426D01*
X16854618Y-15318690D01*
X16879169Y-15364622D01*
X16894290Y-15414471D01*
X16900000Y-15472444D01*
X16900000Y-16477556D01*
X16894290Y-16535529D01*
X16879169Y-16585378D01*
X16854618Y-16631310D01*
X16821574Y-16671574D01*
X16781310Y-16704618D01*
X16735378Y-16729169D01*
X16685529Y-16744290D01*
X16627556Y-16750000D01*
X15372444Y-16750000D01*
X15314471Y-16744290D01*
X15264622Y-16729169D01*
X15218690Y-16704618D01*
X15178426Y-16671574D01*
X15145382Y-16631310D01*
X15120831Y-16585378D01*
X15105710Y-16535529D01*
X15100000Y-16477556D01*
X15100000Y-15472444D01*
X15105710Y-15414471D01*
X15120831Y-15364622D01*
X15145382Y-15318690D01*
X15178426Y-15278426D01*
X15218690Y-15245382D01*
X15264622Y-15220831D01*
X15314471Y-15205710D01*
X15372444Y-15200000D01*
X16627556Y-15200000D01*
X16685529Y-15205710D01*
X16685529Y-15205710D01*
G37*
G36*
X21228530Y-15130877D02*
G01*
X21280010Y-15146493D01*
X21327445Y-15171848D01*
X21369027Y-15205973D01*
X21403152Y-15247555D01*
X21428507Y-15294990D01*
X21444123Y-15346470D01*
X21450000Y-15406140D01*
X21450000Y-16193860D01*
X21444123Y-16253530D01*
X21428507Y-16305010D01*
X21403152Y-16352445D01*
X21369027Y-16394027D01*
X21327445Y-16428152D01*
X21280010Y-16453507D01*
X21228530Y-16469123D01*
X21168860Y-16475000D01*
X20281140Y-16475000D01*
X20221470Y-16469123D01*
X20169990Y-16453507D01*
X20122555Y-16428152D01*
X20080973Y-16394027D01*
X20046848Y-16352445D01*
X20021493Y-16305010D01*
X20005877Y-16253530D01*
X20000000Y-16193860D01*
X20000000Y-15406140D01*
X20005877Y-15346470D01*
X20021493Y-15294990D01*
X20046848Y-15247555D01*
X20080973Y-15205973D01*
X20122555Y-15171848D01*
X20169990Y-15146493D01*
X20221470Y-15130877D01*
X20281140Y-15125000D01*
X21168860Y-15125000D01*
X21228530Y-15130877D01*
X21228530Y-15130877D01*
G37*
G36*
X22978530Y-15130877D02*
G01*
X23030010Y-15146493D01*
X23077445Y-15171848D01*
X23119027Y-15205973D01*
X23153152Y-15247555D01*
X23178507Y-15294990D01*
X23194123Y-15346470D01*
X23200000Y-15406140D01*
X23200000Y-16193860D01*
X23194123Y-16253530D01*
X23178507Y-16305010D01*
X23153152Y-16352445D01*
X23119027Y-16394027D01*
X23077445Y-16428152D01*
X23030010Y-16453507D01*
X22978530Y-16469123D01*
X22918860Y-16475000D01*
X22031140Y-16475000D01*
X21971470Y-16469123D01*
X21919990Y-16453507D01*
X21872555Y-16428152D01*
X21830973Y-16394027D01*
X21796848Y-16352445D01*
X21771493Y-16305010D01*
X21755877Y-16253530D01*
X21750000Y-16193860D01*
X21750000Y-15406140D01*
X21755877Y-15346470D01*
X21771493Y-15294990D01*
X21796848Y-15247555D01*
X21830973Y-15205973D01*
X21872555Y-15171848D01*
X21919990Y-15146493D01*
X21971470Y-15130877D01*
X22031140Y-15125000D01*
X22918860Y-15125000D01*
X22978530Y-15130877D01*
X22978530Y-15130877D01*
G37*
G36*
X1985529Y-14305710D02*
G01*
X2035378Y-14320831D01*
X2081310Y-14345382D01*
X2121574Y-14378426D01*
X2154618Y-14418690D01*
X2179169Y-14464622D01*
X2194290Y-14514471D01*
X2200000Y-14572444D01*
X2200000Y-15577556D01*
X2194290Y-15635529D01*
X2179169Y-15685378D01*
X2154618Y-15731310D01*
X2121574Y-15771574D01*
X2081310Y-15804618D01*
X2035378Y-15829169D01*
X1985529Y-15844290D01*
X1927556Y-15850000D01*
X672444Y-15850000D01*
X614471Y-15844290D01*
X564622Y-15829169D01*
X518690Y-15804618D01*
X478426Y-15771574D01*
X445382Y-15731310D01*
X420831Y-15685378D01*
X405710Y-15635529D01*
X400000Y-15577556D01*
X400000Y-14572444D01*
X405710Y-14514471D01*
X420831Y-14464622D01*
X445382Y-14418690D01*
X478426Y-14378426D01*
X518690Y-14345382D01*
X564622Y-14320831D01*
X614471Y-14305710D01*
X672444Y-14300000D01*
X1927556Y-14300000D01*
X1985529Y-14305710D01*
X1985529Y-14305710D01*
G37*
G36*
X34928687Y-12765027D02*
G01*
X35106274Y-12800350D01*
X35297362Y-12879502D01*
X35469336Y-12994411D01*
X35615589Y-13140664D01*
X35730498Y-13312638D01*
X35809650Y-13503726D01*
X35850000Y-13706584D01*
X35850000Y-13913416D01*
X35809650Y-14116274D01*
X35730498Y-14307362D01*
X35615589Y-14479336D01*
X35469336Y-14625589D01*
X35297362Y-14740498D01*
X35106274Y-14819650D01*
X34928687Y-14854973D01*
X34903417Y-14860000D01*
X34696583Y-14860000D01*
X34671313Y-14854973D01*
X34493726Y-14819650D01*
X34302638Y-14740498D01*
X34130664Y-14625589D01*
X33984411Y-14479336D01*
X33869502Y-14307362D01*
X33790350Y-14116274D01*
X33750000Y-13913416D01*
X33750000Y-13706584D01*
X33790350Y-13503726D01*
X33869502Y-13312638D01*
X33984411Y-13140664D01*
X34130664Y-12994411D01*
X34302638Y-12879502D01*
X34493726Y-12800350D01*
X34671313Y-12765027D01*
X34696583Y-12760000D01*
X34903417Y-12760000D01*
X34928687Y-12765027D01*
X34928687Y-12765027D01*
G37*
G36*
X-14671293Y-12767596D02*
G01*
X-14594164Y-12775193D01*
X-14396238Y-12835233D01*
X-14396235Y-12835234D01*
X-14213830Y-12932732D01*
X-14053945Y-13063945D01*
X-13922732Y-13223830D01*
X-13825234Y-13406235D01*
X-13825233Y-13406238D01*
X-13765193Y-13604164D01*
X-13744920Y-13810000D01*
X-13765193Y-14015836D01*
X-13825233Y-14213762D01*
X-13825234Y-14213765D01*
X-13922732Y-14396170D01*
X-14053945Y-14556055D01*
X-14213830Y-14687268D01*
X-14396235Y-14784766D01*
X-14396238Y-14784767D01*
X-14594164Y-14844807D01*
X-14671293Y-14852403D01*
X-14748420Y-14860000D01*
X-14851580Y-14860000D01*
X-14928707Y-14852403D01*
X-15005836Y-14844807D01*
X-15203762Y-14784767D01*
X-15203765Y-14784766D01*
X-15386170Y-14687268D01*
X-15546055Y-14556055D01*
X-15677268Y-14396170D01*
X-15774766Y-14213765D01*
X-15774767Y-14213762D01*
X-15834807Y-14015836D01*
X-15855080Y-13810000D01*
X-15834807Y-13604164D01*
X-15774767Y-13406238D01*
X-15774766Y-13406235D01*
X-15677268Y-13223830D01*
X-15546055Y-13063945D01*
X-15386170Y-12932732D01*
X-15203765Y-12835234D01*
X-15203762Y-12835233D01*
X-15005836Y-12775193D01*
X-14928707Y-12767597D01*
X-14851580Y-12760000D01*
X-14748420Y-12760000D01*
X-14671293Y-12767596D01*
X-14671293Y-12767596D01*
G37*
G36*
X1915529Y-12235710D02*
G01*
X1965378Y-12250831D01*
X2011310Y-12275382D01*
X2051574Y-12308426D01*
X2084618Y-12348690D01*
X2109169Y-12394622D01*
X2124290Y-12444471D01*
X2130000Y-12502444D01*
X2130000Y-13757556D01*
X2124290Y-13815529D01*
X2109169Y-13865378D01*
X2084618Y-13911310D01*
X2051574Y-13951574D01*
X2011310Y-13984618D01*
X1965378Y-14009169D01*
X1915529Y-14024290D01*
X1857556Y-14030000D01*
X852444Y-14030000D01*
X794471Y-14024290D01*
X744622Y-14009169D01*
X698690Y-13984618D01*
X658426Y-13951574D01*
X625382Y-13911310D01*
X600831Y-13865378D01*
X585710Y-13815529D01*
X580000Y-13757556D01*
X580000Y-12502444D01*
X585710Y-12444471D01*
X600831Y-12394622D01*
X625382Y-12348690D01*
X658426Y-12308426D01*
X698690Y-12275382D01*
X744622Y-12250831D01*
X794471Y-12235710D01*
X852444Y-12230000D01*
X1857556Y-12230000D01*
X1915529Y-12235710D01*
X1915529Y-12235710D01*
G37*
G36*
X-134471Y-12235710D02*
G01*
X-84622Y-12250831D01*
X-38690Y-12275382D01*
X1574Y-12308426D01*
X34618Y-12348690D01*
X59169Y-12394622D01*
X74290Y-12444471D01*
X80000Y-12502444D01*
X80000Y-13757556D01*
X74290Y-13815529D01*
X59169Y-13865378D01*
X34618Y-13911310D01*
X1574Y-13951574D01*
X-38690Y-13984618D01*
X-84622Y-14009169D01*
X-134471Y-14024290D01*
X-192444Y-14030000D01*
X-1197556Y-14030000D01*
X-1255529Y-14024290D01*
X-1305378Y-14009169D01*
X-1351310Y-13984618D01*
X-1391574Y-13951574D01*
X-1424618Y-13911310D01*
X-1449169Y-13865378D01*
X-1464290Y-13815529D01*
X-1470000Y-13757556D01*
X-1470000Y-12502444D01*
X-1464290Y-12444471D01*
X-1449169Y-12394622D01*
X-1424618Y-12348690D01*
X-1391574Y-12308426D01*
X-1351310Y-12275382D01*
X-1305378Y-12250831D01*
X-1255529Y-12235710D01*
X-1197556Y-12230000D01*
X-192444Y-12230000D01*
X-134471Y-12235710D01*
X-134471Y-12235710D01*
G37*
G36*
X-9946470Y-12355877D02*
G01*
X-9894990Y-12371493D01*
X-9847555Y-12396848D01*
X-9805973Y-12430973D01*
X-9771848Y-12472555D01*
X-9746493Y-12519990D01*
X-9730877Y-12571470D01*
X-9725000Y-12631140D01*
X-9725000Y-13518860D01*
X-9730877Y-13578530D01*
X-9746493Y-13630010D01*
X-9771848Y-13677445D01*
X-9805973Y-13719027D01*
X-9847555Y-13753152D01*
X-9894990Y-13778507D01*
X-9946470Y-13794123D01*
X-10006140Y-13800000D01*
X-10793860Y-13800000D01*
X-10853530Y-13794123D01*
X-10905010Y-13778507D01*
X-10952445Y-13753152D01*
X-10994027Y-13719027D01*
X-11028152Y-13677445D01*
X-11053507Y-13630010D01*
X-11069123Y-13578530D01*
X-11075000Y-13518860D01*
X-11075000Y-12631140D01*
X-11069123Y-12571470D01*
X-11053507Y-12519990D01*
X-11028152Y-12472555D01*
X-10994027Y-12430973D01*
X-10952445Y-12396848D01*
X-10905010Y-12371493D01*
X-10853530Y-12355877D01*
X-10793860Y-12350000D01*
X-10006140Y-12350000D01*
X-9946470Y-12355877D01*
X-9946470Y-12355877D01*
G37*
G36*
X-6146470Y-12355877D02*
G01*
X-6094990Y-12371493D01*
X-6047555Y-12396848D01*
X-6005973Y-12430973D01*
X-5971848Y-12472555D01*
X-5946493Y-12519990D01*
X-5930877Y-12571470D01*
X-5925000Y-12631140D01*
X-5925000Y-13518860D01*
X-5930877Y-13578530D01*
X-5946493Y-13630010D01*
X-5971848Y-13677445D01*
X-6005973Y-13719027D01*
X-6047555Y-13753152D01*
X-6094990Y-13778507D01*
X-6146470Y-13794123D01*
X-6206140Y-13800000D01*
X-6993860Y-13800000D01*
X-7053530Y-13794123D01*
X-7105010Y-13778507D01*
X-7152445Y-13753152D01*
X-7194027Y-13719027D01*
X-7228152Y-13677445D01*
X-7253507Y-13630010D01*
X-7269123Y-13578530D01*
X-7275000Y-13518860D01*
X-7275000Y-12631140D01*
X-7269123Y-12571470D01*
X-7253507Y-12519990D01*
X-7228152Y-12472555D01*
X-7194027Y-12430973D01*
X-7152445Y-12396848D01*
X-7105010Y-12371493D01*
X-7053530Y-12355877D01*
X-6993860Y-12350000D01*
X-6206140Y-12350000D01*
X-6146470Y-12355877D01*
X-6146470Y-12355877D01*
G37*
G36*
X-8777251Y-10851860D02*
G01*
X-8752749Y-10851860D01*
X-8733862Y-10850000D01*
X-8296138Y-10850000D01*
X-8277251Y-10851860D01*
X-8252749Y-10851860D01*
X-8233862Y-10850000D01*
X-7796138Y-10850000D01*
X-7770608Y-10852514D01*
X-7751965Y-10858170D01*
X-7734778Y-10867357D01*
X-7719717Y-10879717D01*
X-7707357Y-10894778D01*
X-7698170Y-10911965D01*
X-7692514Y-10930608D01*
X-7690000Y-10956138D01*
X-7690000Y-11843857D01*
X-7690004Y-11843898D01*
X-7690003Y-11868402D01*
X-7689894Y-11868951D01*
X-7685000Y-11918640D01*
X-7685000Y-12481360D01*
X-7689894Y-12531052D01*
X-7690003Y-12531600D01*
X-7690004Y-12556102D01*
X-7690000Y-12556143D01*
X-7690000Y-13443862D01*
X-7692514Y-13469392D01*
X-7698170Y-13488035D01*
X-7707357Y-13505222D01*
X-7719717Y-13520283D01*
X-7734778Y-13532643D01*
X-7751965Y-13541830D01*
X-7770608Y-13547486D01*
X-7796138Y-13550000D01*
X-8233862Y-13550000D01*
X-8252749Y-13548140D01*
X-8277251Y-13548140D01*
X-8296138Y-13550000D01*
X-8733862Y-13550000D01*
X-8752749Y-13548140D01*
X-8777251Y-13548140D01*
X-8796138Y-13550000D01*
X-9233862Y-13550000D01*
X-9259392Y-13547486D01*
X-9278035Y-13541830D01*
X-9295222Y-13532643D01*
X-9310283Y-13520283D01*
X-9322643Y-13505222D01*
X-9331830Y-13488035D01*
X-9337486Y-13469392D01*
X-9340000Y-13443862D01*
X-9340000Y-12556143D01*
X-9339996Y-12556102D01*
X-9339997Y-12531598D01*
X-9340106Y-12531049D01*
X-9345000Y-12481360D01*
X-9345000Y-11918640D01*
X-9340106Y-11868948D01*
X-9339997Y-11868400D01*
X-9339996Y-11843898D01*
X-9340000Y-11843857D01*
X-9340000Y-10956138D01*
X-9337486Y-10930608D01*
X-9331830Y-10911965D01*
X-9322643Y-10894778D01*
X-9310283Y-10879717D01*
X-9295222Y-10867357D01*
X-9278035Y-10858170D01*
X-9259392Y-10852514D01*
X-9233862Y-10850000D01*
X-8796138Y-10850000D01*
X-8777251Y-10851860D01*
X-8777251Y-10851860D01*
G37*
G36*
X3800000Y-12800000D02*
G01*
X2400000Y-12800000D01*
X2400000Y-9200000D01*
X3800000Y-9200000D01*
X3800000Y-12800000D01*
X3800000Y-12800000D01*
G37*
G36*
X6000000Y-12800000D02*
G01*
X4600000Y-12800000D01*
X4600000Y-9200000D01*
X6000000Y-9200000D01*
X6000000Y-12800000D01*
X6000000Y-12800000D01*
G37*
G36*
X34928707Y-10227597D02*
G01*
X35005836Y-10235193D01*
X35203762Y-10295233D01*
X35203765Y-10295234D01*
X35386170Y-10392732D01*
X35546055Y-10523945D01*
X35677268Y-10683830D01*
X35774766Y-10866235D01*
X35774767Y-10866238D01*
X35834807Y-11064164D01*
X35855080Y-11270000D01*
X35834807Y-11475836D01*
X35774767Y-11673762D01*
X35774766Y-11673765D01*
X35677268Y-11856170D01*
X35546055Y-12016055D01*
X35386170Y-12147268D01*
X35203765Y-12244766D01*
X35203762Y-12244767D01*
X35005836Y-12304807D01*
X34928707Y-12312403D01*
X34851580Y-12320000D01*
X34748420Y-12320000D01*
X34671293Y-12312403D01*
X34594164Y-12304807D01*
X34396238Y-12244767D01*
X34396235Y-12244766D01*
X34213830Y-12147268D01*
X34053945Y-12016055D01*
X33922732Y-11856170D01*
X33825234Y-11673765D01*
X33825233Y-11673762D01*
X33765193Y-11475836D01*
X33744920Y-11270000D01*
X33765193Y-11064164D01*
X33825233Y-10866238D01*
X33825234Y-10866235D01*
X33922732Y-10683830D01*
X34053945Y-10523945D01*
X34213830Y-10392732D01*
X34396235Y-10295234D01*
X34396238Y-10295233D01*
X34594164Y-10235193D01*
X34671293Y-10227596D01*
X34748420Y-10220000D01*
X34851580Y-10220000D01*
X34928707Y-10227597D01*
X34928707Y-10227597D01*
G37*
G36*
X-14671293Y-10227597D02*
G01*
X-14594164Y-10235193D01*
X-14396238Y-10295233D01*
X-14396235Y-10295234D01*
X-14213830Y-10392732D01*
X-14053945Y-10523945D01*
X-13922732Y-10683830D01*
X-13825234Y-10866235D01*
X-13825233Y-10866238D01*
X-13765193Y-11064164D01*
X-13744920Y-11270000D01*
X-13765193Y-11475836D01*
X-13825233Y-11673762D01*
X-13825234Y-11673765D01*
X-13922732Y-11856170D01*
X-14053945Y-12016055D01*
X-14213830Y-12147268D01*
X-14396235Y-12244766D01*
X-14396238Y-12244767D01*
X-14594164Y-12304807D01*
X-14671293Y-12312403D01*
X-14748420Y-12320000D01*
X-14851580Y-12320000D01*
X-14928707Y-12312403D01*
X-15005836Y-12304807D01*
X-15203762Y-12244767D01*
X-15203765Y-12244766D01*
X-15386170Y-12147268D01*
X-15546055Y-12016055D01*
X-15677268Y-11856170D01*
X-15774766Y-11673765D01*
X-15774767Y-11673762D01*
X-15834807Y-11475836D01*
X-15855080Y-11270000D01*
X-15834807Y-11064164D01*
X-15774767Y-10866238D01*
X-15774766Y-10866235D01*
X-15677268Y-10683830D01*
X-15546055Y-10523945D01*
X-15386170Y-10392732D01*
X-15203765Y-10295234D01*
X-15203762Y-10295233D01*
X-15005836Y-10235193D01*
X-14928707Y-10227597D01*
X-14851580Y-10220000D01*
X-14748420Y-10220000D01*
X-14671293Y-10227597D01*
X-14671293Y-10227597D01*
G37*
G36*
X-7221470Y-9130877D02*
G01*
X-7169990Y-9146493D01*
X-7122555Y-9171848D01*
X-7080973Y-9205973D01*
X-7046848Y-9247555D01*
X-7021493Y-9294990D01*
X-7005877Y-9346470D01*
X-7000000Y-9406140D01*
X-7000000Y-10193860D01*
X-7005877Y-10253530D01*
X-7021493Y-10305010D01*
X-7046848Y-10352445D01*
X-7082348Y-10395702D01*
X-7095962Y-10416076D01*
X-7105339Y-10438715D01*
X-7110120Y-10462749D01*
X-7110120Y-10487253D01*
X-7105340Y-10511286D01*
X-7095962Y-10533925D01*
X-7082349Y-10554299D01*
X-7065022Y-10571626D01*
X-7044648Y-10585240D01*
X-7022009Y-10594617D01*
X-6997975Y-10599398D01*
X-6985723Y-10600000D01*
X-6206140Y-10600000D01*
X-6146470Y-10605877D01*
X-6094990Y-10621493D01*
X-6047555Y-10646848D01*
X-6005973Y-10680973D01*
X-5971848Y-10722555D01*
X-5946493Y-10769990D01*
X-5930877Y-10821470D01*
X-5925000Y-10881140D01*
X-5925000Y-11768860D01*
X-5930877Y-11828530D01*
X-5946493Y-11880010D01*
X-5971848Y-11927445D01*
X-6005973Y-11969027D01*
X-6047555Y-12003152D01*
X-6094990Y-12028507D01*
X-6146470Y-12044123D01*
X-6206140Y-12050000D01*
X-6993860Y-12050000D01*
X-7053530Y-12044123D01*
X-7105010Y-12028507D01*
X-7152445Y-12003152D01*
X-7194027Y-11969027D01*
X-7228152Y-11927445D01*
X-7253507Y-11880010D01*
X-7269123Y-11828530D01*
X-7275000Y-11768860D01*
X-7275000Y-10881140D01*
X-7269123Y-10821470D01*
X-7253507Y-10769990D01*
X-7228152Y-10722555D01*
X-7192652Y-10679298D01*
X-7179038Y-10658924D01*
X-7169661Y-10636285D01*
X-7164880Y-10612251D01*
X-7164880Y-10587747D01*
X-7169660Y-10563714D01*
X-7179038Y-10541075D01*
X-7192651Y-10520701D01*
X-7209978Y-10503374D01*
X-7230352Y-10489760D01*
X-7252991Y-10480383D01*
X-7277025Y-10475602D01*
X-7289277Y-10475000D01*
X-8168860Y-10475000D01*
X-8228530Y-10469123D01*
X-8280010Y-10453507D01*
X-8327445Y-10428152D01*
X-8369027Y-10394027D01*
X-8403152Y-10352445D01*
X-8428507Y-10305010D01*
X-8444123Y-10253530D01*
X-8450000Y-10193860D01*
X-8450000Y-9406140D01*
X-8444123Y-9346470D01*
X-8428507Y-9294990D01*
X-8403152Y-9247555D01*
X-8369027Y-9205973D01*
X-8327445Y-9171848D01*
X-8280010Y-9146493D01*
X-8228530Y-9130877D01*
X-8168860Y-9125000D01*
X-7281140Y-9125000D01*
X-7221470Y-9130877D01*
X-7221470Y-9130877D01*
G37*
G36*
X-8971470Y-9130877D02*
G01*
X-8919990Y-9146493D01*
X-8872555Y-9171848D01*
X-8830973Y-9205973D01*
X-8796848Y-9247555D01*
X-8771493Y-9294990D01*
X-8755877Y-9346470D01*
X-8750000Y-9406140D01*
X-8750000Y-10193860D01*
X-8755877Y-10253530D01*
X-8771493Y-10305010D01*
X-8796848Y-10352445D01*
X-8830973Y-10394027D01*
X-8872555Y-10428152D01*
X-8919990Y-10453507D01*
X-8971470Y-10469123D01*
X-9031140Y-10475000D01*
X-9710723Y-10475000D01*
X-9735109Y-10477402D01*
X-9758558Y-10484515D01*
X-9780169Y-10496066D01*
X-9799111Y-10511611D01*
X-9814656Y-10530553D01*
X-9826207Y-10552164D01*
X-9833320Y-10575613D01*
X-9835722Y-10599999D01*
X-9833320Y-10624385D01*
X-9826207Y-10647834D01*
X-9814656Y-10669445D01*
X-9807348Y-10679298D01*
X-9771848Y-10722555D01*
X-9746493Y-10769990D01*
X-9730877Y-10821470D01*
X-9725000Y-10881140D01*
X-9725000Y-11768860D01*
X-9730877Y-11828530D01*
X-9746493Y-11880010D01*
X-9771848Y-11927445D01*
X-9805973Y-11969027D01*
X-9847555Y-12003152D01*
X-9894990Y-12028507D01*
X-9946470Y-12044123D01*
X-10006140Y-12050000D01*
X-10793860Y-12050000D01*
X-10853530Y-12044123D01*
X-10905010Y-12028507D01*
X-10952445Y-12003152D01*
X-10994027Y-11969027D01*
X-11028152Y-11927445D01*
X-11053507Y-11880010D01*
X-11069123Y-11828530D01*
X-11075000Y-11768860D01*
X-11075000Y-10881140D01*
X-11069123Y-10821470D01*
X-11053507Y-10769990D01*
X-11028152Y-10722555D01*
X-10994027Y-10680973D01*
X-10952445Y-10646848D01*
X-10905010Y-10621493D01*
X-10853530Y-10605877D01*
X-10793860Y-10600000D01*
X-10214277Y-10600000D01*
X-10189891Y-10597598D01*
X-10166442Y-10590485D01*
X-10144831Y-10578934D01*
X-10125889Y-10563389D01*
X-10110344Y-10544447D01*
X-10098793Y-10522836D01*
X-10091680Y-10499387D01*
X-10089278Y-10475001D01*
X-10091680Y-10450615D01*
X-10098793Y-10427166D01*
X-10110344Y-10405555D01*
X-10117652Y-10395702D01*
X-10153152Y-10352445D01*
X-10178507Y-10305010D01*
X-10194123Y-10253530D01*
X-10200000Y-10193860D01*
X-10200000Y-9406140D01*
X-10194123Y-9346470D01*
X-10178507Y-9294990D01*
X-10153152Y-9247555D01*
X-10119027Y-9205973D01*
X-10077445Y-9171848D01*
X-10030010Y-9146493D01*
X-9978530Y-9130877D01*
X-9918860Y-9125000D01*
X-9031140Y-9125000D01*
X-8971470Y-9130877D01*
X-8971470Y-9130877D01*
G37*
G36*
X34928707Y-7687596D02*
G01*
X35005836Y-7695193D01*
X35203762Y-7755233D01*
X35203765Y-7755234D01*
X35386170Y-7852732D01*
X35546055Y-7983945D01*
X35677268Y-8143830D01*
X35774766Y-8326235D01*
X35774767Y-8326238D01*
X35834807Y-8524164D01*
X35855080Y-8730000D01*
X35834807Y-8935836D01*
X35777425Y-9125000D01*
X35774766Y-9133765D01*
X35677268Y-9316170D01*
X35546055Y-9476055D01*
X35386170Y-9607268D01*
X35203765Y-9704766D01*
X35203762Y-9704767D01*
X35005836Y-9764807D01*
X34928707Y-9772404D01*
X34851580Y-9780000D01*
X34748420Y-9780000D01*
X34671293Y-9772404D01*
X34594164Y-9764807D01*
X34396238Y-9704767D01*
X34396235Y-9704766D01*
X34213830Y-9607268D01*
X34053945Y-9476055D01*
X33922732Y-9316170D01*
X33825234Y-9133765D01*
X33822575Y-9125000D01*
X33765193Y-8935836D01*
X33744920Y-8730000D01*
X33765193Y-8524164D01*
X33825233Y-8326238D01*
X33825234Y-8326235D01*
X33922732Y-8143830D01*
X34053945Y-7983945D01*
X34213830Y-7852732D01*
X34396235Y-7755234D01*
X34396238Y-7755233D01*
X34594164Y-7695193D01*
X34671293Y-7687596D01*
X34748420Y-7680000D01*
X34851580Y-7680000D01*
X34928707Y-7687596D01*
X34928707Y-7687596D01*
G37*
G36*
X-14671293Y-7687596D02*
G01*
X-14594164Y-7695193D01*
X-14396238Y-7755233D01*
X-14396235Y-7755234D01*
X-14213830Y-7852732D01*
X-14053945Y-7983945D01*
X-13922732Y-8143830D01*
X-13825234Y-8326235D01*
X-13825233Y-8326238D01*
X-13765193Y-8524164D01*
X-13744920Y-8730000D01*
X-13765193Y-8935836D01*
X-13822575Y-9125000D01*
X-13825234Y-9133765D01*
X-13922732Y-9316170D01*
X-14053945Y-9476055D01*
X-14213830Y-9607268D01*
X-14396235Y-9704766D01*
X-14396238Y-9704767D01*
X-14594164Y-9764807D01*
X-14671293Y-9772404D01*
X-14748420Y-9780000D01*
X-14851580Y-9780000D01*
X-14928707Y-9772404D01*
X-15005836Y-9764807D01*
X-15203762Y-9704767D01*
X-15203765Y-9704766D01*
X-15386170Y-9607268D01*
X-15546055Y-9476055D01*
X-15677268Y-9316170D01*
X-15774766Y-9133765D01*
X-15777425Y-9125000D01*
X-15834807Y-8935836D01*
X-15855080Y-8730000D01*
X-15834807Y-8524164D01*
X-15774767Y-8326238D01*
X-15774766Y-8326235D01*
X-15677268Y-8143830D01*
X-15546055Y-7983945D01*
X-15386170Y-7852732D01*
X-15203765Y-7755234D01*
X-15203762Y-7755233D01*
X-15005836Y-7695193D01*
X-14928707Y-7687596D01*
X-14851580Y-7680000D01*
X-14748420Y-7680000D01*
X-14671293Y-7687596D01*
X-14671293Y-7687596D01*
G37*
G36*
X-3914471Y-6705710D02*
G01*
X-3864622Y-6720831D01*
X-3818690Y-6745382D01*
X-3778426Y-6778426D01*
X-3745382Y-6818690D01*
X-3720831Y-6864622D01*
X-3705710Y-6914471D01*
X-3700000Y-6972444D01*
X-3700000Y-8227556D01*
X-3705710Y-8285529D01*
X-3720831Y-8335378D01*
X-3745382Y-8381310D01*
X-3778426Y-8421574D01*
X-3818690Y-8454618D01*
X-3864622Y-8479169D01*
X-3914471Y-8494290D01*
X-3972444Y-8500000D01*
X-4977556Y-8500000D01*
X-5035529Y-8494290D01*
X-5085378Y-8479169D01*
X-5131310Y-8454618D01*
X-5171574Y-8421574D01*
X-5204618Y-8381310D01*
X-5229169Y-8335378D01*
X-5244290Y-8285529D01*
X-5250000Y-8227556D01*
X-5250000Y-6972444D01*
X-5244290Y-6914471D01*
X-5229169Y-6864622D01*
X-5204618Y-6818690D01*
X-5171574Y-6778426D01*
X-5131310Y-6745382D01*
X-5085378Y-6720831D01*
X-5035529Y-6705710D01*
X-4977556Y-6700000D01*
X-3972444Y-6700000D01*
X-3914471Y-6705710D01*
X-3914471Y-6705710D01*
G37*
G36*
X-5964471Y-6705710D02*
G01*
X-5914622Y-6720831D01*
X-5868690Y-6745382D01*
X-5828426Y-6778426D01*
X-5795382Y-6818690D01*
X-5770831Y-6864622D01*
X-5755710Y-6914471D01*
X-5750000Y-6972444D01*
X-5750000Y-8227556D01*
X-5755710Y-8285529D01*
X-5770831Y-8335378D01*
X-5795382Y-8381310D01*
X-5828426Y-8421574D01*
X-5868690Y-8454618D01*
X-5914622Y-8479169D01*
X-5964471Y-8494290D01*
X-6022444Y-8500000D01*
X-7027556Y-8500000D01*
X-7085529Y-8494290D01*
X-7135378Y-8479169D01*
X-7181310Y-8454618D01*
X-7221574Y-8421574D01*
X-7254618Y-8381310D01*
X-7279169Y-8335378D01*
X-7294290Y-8285529D01*
X-7300000Y-8227556D01*
X-7300000Y-6972444D01*
X-7294290Y-6914471D01*
X-7279169Y-6864622D01*
X-7254618Y-6818690D01*
X-7221574Y-6778426D01*
X-7181310Y-6745382D01*
X-7135378Y-6720831D01*
X-7085529Y-6705710D01*
X-7027556Y-6700000D01*
X-6022444Y-6700000D01*
X-5964471Y-6705710D01*
X-5964471Y-6705710D01*
G37*
G36*
X-14671313Y-5145027D02*
G01*
X-14493726Y-5180350D01*
X-14302638Y-5259502D01*
X-14130664Y-5374411D01*
X-13984411Y-5520664D01*
X-13869502Y-5692638D01*
X-13790350Y-5883726D01*
X-13750000Y-6086584D01*
X-13750000Y-6293416D01*
X-13790350Y-6496274D01*
X-13869502Y-6687362D01*
X-13984411Y-6859336D01*
X-14130664Y-7005589D01*
X-14302638Y-7120498D01*
X-14493726Y-7199650D01*
X-14671313Y-7234973D01*
X-14696583Y-7240000D01*
X-14903417Y-7240000D01*
X-14928687Y-7234973D01*
X-15106274Y-7199650D01*
X-15297362Y-7120498D01*
X-15469336Y-7005589D01*
X-15615589Y-6859336D01*
X-15730498Y-6687362D01*
X-15809650Y-6496274D01*
X-15850000Y-6293416D01*
X-15850000Y-6086584D01*
X-15809650Y-5883726D01*
X-15730498Y-5692638D01*
X-15615589Y-5520664D01*
X-15469336Y-5374411D01*
X-15297362Y-5259502D01*
X-15106274Y-5180350D01*
X-14928687Y-5145027D01*
X-14903417Y-5140000D01*
X-14696583Y-5140000D01*
X-14671313Y-5145027D01*
X-14671313Y-5145027D01*
G37*
G36*
X34928687Y-5145027D02*
G01*
X35106274Y-5180350D01*
X35297362Y-5259502D01*
X35469336Y-5374411D01*
X35615589Y-5520664D01*
X35730498Y-5692638D01*
X35809650Y-5883726D01*
X35850000Y-6086584D01*
X35850000Y-6293416D01*
X35809650Y-6496274D01*
X35730498Y-6687362D01*
X35615589Y-6859336D01*
X35469336Y-7005589D01*
X35297362Y-7120498D01*
X35106274Y-7199650D01*
X34928687Y-7234973D01*
X34903417Y-7240000D01*
X34696583Y-7240000D01*
X34671313Y-7234973D01*
X34493726Y-7199650D01*
X34302638Y-7120498D01*
X34130664Y-7005589D01*
X33984411Y-6859336D01*
X33869502Y-6687362D01*
X33790350Y-6496274D01*
X33750000Y-6293416D01*
X33750000Y-6086584D01*
X33790350Y-5883726D01*
X33869502Y-5692638D01*
X33984411Y-5520664D01*
X34130664Y-5374411D01*
X34302638Y-5259502D01*
X34493726Y-5180350D01*
X34671313Y-5145027D01*
X34696583Y-5140000D01*
X34903417Y-5140000D01*
X34928687Y-5145027D01*
X34928687Y-5145027D01*
G37*
G36*
X-8900000Y-6100000D02*
G01*
X-12500000Y-6100000D01*
X-12500000Y-4700000D01*
X-8900000Y-4700000D01*
X-8900000Y-6100000D01*
X-8900000Y-6100000D01*
G37*
G36*
X14298654Y-2780397D02*
G01*
X14345440Y-2794589D01*
X14388555Y-2817635D01*
X14426349Y-2848651D01*
X14457365Y-2886445D01*
X14480411Y-2929560D01*
X14494603Y-2976346D01*
X14500000Y-3031142D01*
X14500000Y-4218858D01*
X14494603Y-4273654D01*
X14480411Y-4320440D01*
X14457365Y-4363555D01*
X14426349Y-4401349D01*
X14388555Y-4432365D01*
X14345440Y-4455411D01*
X14298654Y-4469603D01*
X14243858Y-4475000D01*
X10956142Y-4475000D01*
X10901346Y-4469603D01*
X10854560Y-4455411D01*
X10811445Y-4432365D01*
X10773651Y-4401349D01*
X10742635Y-4363555D01*
X10719589Y-4320440D01*
X10705397Y-4273654D01*
X10700000Y-4218858D01*
X10700000Y-3031142D01*
X10705397Y-2976346D01*
X10719589Y-2929560D01*
X10742635Y-2886445D01*
X10773651Y-2848651D01*
X10811445Y-2817635D01*
X10854560Y-2794589D01*
X10901346Y-2780397D01*
X10956142Y-2775000D01*
X14243858Y-2775000D01*
X14298654Y-2780397D01*
X14298654Y-2780397D01*
G37*
G36*
X-8900000Y-3900000D02*
G01*
X-12500000Y-3900000D01*
X-12500000Y-2500000D01*
X-8900000Y-2500000D01*
X-8900000Y-3900000D01*
X-8900000Y-3900000D01*
G37*
G36*
X18103530Y-1730877D02*
G01*
X18155010Y-1746493D01*
X18202445Y-1771848D01*
X18244027Y-1805973D01*
X18278152Y-1847555D01*
X18303507Y-1894990D01*
X18319123Y-1946470D01*
X18325000Y-2006140D01*
X18325000Y-2793860D01*
X18319123Y-2853530D01*
X18303507Y-2905010D01*
X18278152Y-2952445D01*
X18244027Y-2994027D01*
X18202445Y-3028152D01*
X18155010Y-3053507D01*
X18103530Y-3069123D01*
X18043860Y-3075000D01*
X17156140Y-3075000D01*
X17096470Y-3069123D01*
X17044990Y-3053507D01*
X16997555Y-3028152D01*
X16955973Y-2994027D01*
X16921848Y-2952445D01*
X16896493Y-2905010D01*
X16880877Y-2853530D01*
X16875000Y-2793860D01*
X16875000Y-2006140D01*
X16880877Y-1946470D01*
X16896493Y-1894990D01*
X16921848Y-1847555D01*
X16955973Y-1805973D01*
X16997555Y-1771848D01*
X17044990Y-1746493D01*
X17096470Y-1730877D01*
X17156140Y-1725000D01*
X18043860Y-1725000D01*
X18103530Y-1730877D01*
X18103530Y-1730877D01*
G37*
G36*
X16353530Y-1730877D02*
G01*
X16405010Y-1746493D01*
X16452445Y-1771848D01*
X16494027Y-1805973D01*
X16528152Y-1847555D01*
X16553507Y-1894990D01*
X16569123Y-1946470D01*
X16575000Y-2006140D01*
X16575000Y-2793860D01*
X16569123Y-2853530D01*
X16553507Y-2905010D01*
X16528152Y-2952445D01*
X16494027Y-2994027D01*
X16452445Y-3028152D01*
X16405010Y-3053507D01*
X16353530Y-3069123D01*
X16293860Y-3075000D01*
X15406140Y-3075000D01*
X15346470Y-3069123D01*
X15294990Y-3053507D01*
X15247555Y-3028152D01*
X15205973Y-2994027D01*
X15171848Y-2952445D01*
X15146493Y-2905010D01*
X15130877Y-2853530D01*
X15125000Y-2793860D01*
X15125000Y-2006140D01*
X15130877Y-1946470D01*
X15146493Y-1894990D01*
X15171848Y-1847555D01*
X15205973Y-1805973D01*
X15247555Y-1771848D01*
X15294990Y-1746493D01*
X15346470Y-1730877D01*
X15406140Y-1725000D01*
X16293860Y-1725000D01*
X16353530Y-1730877D01*
X16353530Y-1730877D01*
G37*
G36*
X-4114471Y-805710D02*
G01*
X-4064622Y-820831D01*
X-4018690Y-845382D01*
X-3978426Y-878426D01*
X-3945382Y-918690D01*
X-3920831Y-964622D01*
X-3905710Y-1014471D01*
X-3900000Y-1072444D01*
X-3900000Y-2327556D01*
X-3905710Y-2385529D01*
X-3920831Y-2435378D01*
X-3945382Y-2481310D01*
X-3978426Y-2521574D01*
X-4018690Y-2554618D01*
X-4064622Y-2579169D01*
X-4114471Y-2594290D01*
X-4172444Y-2600000D01*
X-5177556Y-2600000D01*
X-5235529Y-2594290D01*
X-5285378Y-2579169D01*
X-5331310Y-2554618D01*
X-5371574Y-2521574D01*
X-5404618Y-2481310D01*
X-5429169Y-2435378D01*
X-5444290Y-2385529D01*
X-5450000Y-2327556D01*
X-5450000Y-1072444D01*
X-5444290Y-1014471D01*
X-5429169Y-964622D01*
X-5404618Y-918690D01*
X-5371574Y-878426D01*
X-5331310Y-845382D01*
X-5285378Y-820831D01*
X-5235529Y-805710D01*
X-5177556Y-800000D01*
X-4172444Y-800000D01*
X-4114471Y-805710D01*
X-4114471Y-805710D01*
G37*
G36*
X-6164471Y-805710D02*
G01*
X-6114622Y-820831D01*
X-6068690Y-845382D01*
X-6028426Y-878426D01*
X-5995382Y-918690D01*
X-5970831Y-964622D01*
X-5955710Y-1014471D01*
X-5950000Y-1072444D01*
X-5950000Y-2327556D01*
X-5955710Y-2385529D01*
X-5970831Y-2435378D01*
X-5995382Y-2481310D01*
X-6028426Y-2521574D01*
X-6068690Y-2554618D01*
X-6114622Y-2579169D01*
X-6164471Y-2594290D01*
X-6222444Y-2600000D01*
X-7227556Y-2600000D01*
X-7285529Y-2594290D01*
X-7335378Y-2579169D01*
X-7381310Y-2554618D01*
X-7421574Y-2521574D01*
X-7454618Y-2481310D01*
X-7479169Y-2435378D01*
X-7494290Y-2385529D01*
X-7500000Y-2327556D01*
X-7500000Y-1072444D01*
X-7494290Y-1014471D01*
X-7479169Y-964622D01*
X-7454618Y-918690D01*
X-7421574Y-878426D01*
X-7381310Y-845382D01*
X-7335378Y-820831D01*
X-7285529Y-805710D01*
X-7227556Y-800000D01*
X-6222444Y-800000D01*
X-6164471Y-805710D01*
X-6164471Y-805710D01*
G37*
G36*
X18103530Y69123D02*
G01*
X18155010Y53507D01*
X18202445Y28152D01*
X18244027Y-5973D01*
X18278152Y-47555D01*
X18303507Y-94990D01*
X18319123Y-146470D01*
X18325000Y-206140D01*
X18325000Y-993860D01*
X18319123Y-1053530D01*
X18303507Y-1105010D01*
X18278152Y-1152445D01*
X18244027Y-1194027D01*
X18202445Y-1228152D01*
X18155010Y-1253507D01*
X18103530Y-1269123D01*
X18043860Y-1275000D01*
X17156140Y-1275000D01*
X17096470Y-1269123D01*
X17044990Y-1253507D01*
X16997555Y-1228152D01*
X16955973Y-1194027D01*
X16921848Y-1152445D01*
X16896493Y-1105010D01*
X16880877Y-1053530D01*
X16875000Y-993860D01*
X16875000Y-206140D01*
X16880877Y-146470D01*
X16896493Y-94990D01*
X16921848Y-47555D01*
X16955973Y-5973D01*
X16997555Y28152D01*
X17044990Y53507D01*
X17096470Y69123D01*
X17156140Y75000D01*
X18043860Y75000D01*
X18103530Y69123D01*
X18103530Y69123D01*
G37*
G36*
X16353530Y69123D02*
G01*
X16405010Y53507D01*
X16452445Y28152D01*
X16494027Y-5973D01*
X16528152Y-47555D01*
X16553507Y-94990D01*
X16569123Y-146470D01*
X16575000Y-206140D01*
X16575000Y-993860D01*
X16569123Y-1053530D01*
X16553507Y-1105010D01*
X16528152Y-1152445D01*
X16494027Y-1194027D01*
X16452445Y-1228152D01*
X16405010Y-1253507D01*
X16353530Y-1269123D01*
X16293860Y-1275000D01*
X15406140Y-1275000D01*
X15346470Y-1269123D01*
X15294990Y-1253507D01*
X15247555Y-1228152D01*
X15205973Y-1194027D01*
X15171848Y-1152445D01*
X15146493Y-1105010D01*
X15130877Y-1053530D01*
X15125000Y-993860D01*
X15125000Y-206140D01*
X15130877Y-146470D01*
X15146493Y-94990D01*
X15171848Y-47555D01*
X15205973Y-5973D01*
X15247555Y28152D01*
X15294990Y53507D01*
X15346470Y69123D01*
X15406140Y75000D01*
X16293860Y75000D01*
X16353530Y69123D01*
X16353530Y69123D01*
G37*
G36*
X6253530Y1244123D02*
G01*
X6305010Y1228507D01*
X6352445Y1203152D01*
X6394027Y1169027D01*
X6428152Y1127445D01*
X6453507Y1080010D01*
X6469123Y1028530D01*
X6475000Y968860D01*
X6475000Y81140D01*
X6469123Y21470D01*
X6453507Y-30010D01*
X6428152Y-77445D01*
X6394027Y-119027D01*
X6352445Y-153152D01*
X6305010Y-178507D01*
X6253530Y-194123D01*
X6193860Y-200000D01*
X5406140Y-200000D01*
X5346470Y-194123D01*
X5294990Y-178507D01*
X5247555Y-153152D01*
X5205973Y-119027D01*
X5171848Y-77445D01*
X5146493Y-30010D01*
X5130877Y21470D01*
X5125000Y81140D01*
X5125000Y968860D01*
X5130877Y1028530D01*
X5146493Y1080010D01*
X5171848Y1127445D01*
X5205973Y1169027D01*
X5247555Y1203152D01*
X5294990Y1228507D01*
X5346470Y1244123D01*
X5406140Y1250000D01*
X6193860Y1250000D01*
X6253530Y1244123D01*
X6253530Y1244123D01*
G37*
G36*
X8253530Y1319123D02*
G01*
X8305010Y1303507D01*
X8352445Y1278152D01*
X8394027Y1244027D01*
X8428152Y1202445D01*
X8453507Y1155010D01*
X8469123Y1103530D01*
X8475000Y1043860D01*
X8475000Y156140D01*
X8469123Y96470D01*
X8453507Y44990D01*
X8428152Y-2445D01*
X8394027Y-44027D01*
X8352445Y-78152D01*
X8305010Y-103507D01*
X8253530Y-119123D01*
X8193860Y-125000D01*
X7406140Y-125000D01*
X7346470Y-119123D01*
X7294990Y-103507D01*
X7247555Y-78152D01*
X7205973Y-44027D01*
X7171848Y-2445D01*
X7146493Y44990D01*
X7130877Y96470D01*
X7125000Y156140D01*
X7125000Y1043860D01*
X7130877Y1103530D01*
X7146493Y1155010D01*
X7171848Y1202445D01*
X7205973Y1244027D01*
X7247555Y1278152D01*
X7294990Y1303507D01*
X7346470Y1319123D01*
X7406140Y1325000D01*
X8193860Y1325000D01*
X8253530Y1319123D01*
X8253530Y1319123D01*
G37*
G36*
X14298654Y1669603D02*
G01*
X14345440Y1655411D01*
X14388555Y1632365D01*
X14426349Y1601349D01*
X14457365Y1563555D01*
X14480411Y1520440D01*
X14494603Y1473654D01*
X14500000Y1418858D01*
X14500000Y231142D01*
X14494603Y176346D01*
X14480411Y129560D01*
X14457365Y86445D01*
X14426349Y48651D01*
X14388555Y17635D01*
X14345440Y-5411D01*
X14298654Y-19603D01*
X14243858Y-25000D01*
X10956142Y-25000D01*
X10901346Y-19603D01*
X10854560Y-5411D01*
X10811445Y17635D01*
X10773651Y48651D01*
X10742635Y86445D01*
X10719589Y129560D01*
X10705397Y176346D01*
X10700000Y231142D01*
X10700000Y1418858D01*
X10705397Y1473654D01*
X10719589Y1520440D01*
X10742635Y1563555D01*
X10773651Y1601349D01*
X10811445Y1632365D01*
X10854560Y1655411D01*
X10901346Y1669603D01*
X10956142Y1675000D01*
X14243858Y1675000D01*
X14298654Y1669603D01*
X14298654Y1669603D01*
G37*
G36*
X1350000Y6600000D02*
G01*
X-697571Y6600000D01*
X-721957Y6597598D01*
X-745406Y6590485D01*
X-767017Y6578934D01*
X-785959Y6563389D01*
X-801504Y6544447D01*
X-813055Y6522836D01*
X-820168Y6499387D01*
X-822570Y6475001D01*
X-820168Y6450615D01*
X-813055Y6427166D01*
X-801504Y6405555D01*
X-785959Y6386613D01*
X-767017Y6371068D01*
X-364500Y6102115D01*
X102115Y5635500D01*
X456098Y5105727D01*
X468732Y5086818D01*
X721262Y4477158D01*
X850000Y3829948D01*
X850000Y3170052D01*
X721262Y2522842D01*
X533761Y2070176D01*
X468731Y1913180D01*
X102115Y1364500D01*
X-364500Y897885D01*
X-913180Y531269D01*
X-913181Y531268D01*
X-913182Y531268D01*
X-1522842Y278738D01*
X-2170052Y150000D01*
X-2829948Y150000D01*
X-3477158Y278738D01*
X-4086818Y531268D01*
X-4086819Y531268D01*
X-4086820Y531269D01*
X-4635500Y897885D01*
X-5102115Y1364500D01*
X-5468731Y1913180D01*
X-5533761Y2070176D01*
X-5721262Y2522842D01*
X-5850000Y3170052D01*
X-5850000Y3829948D01*
X-5721262Y4477158D01*
X-5468732Y5086818D01*
X-5456097Y5105727D01*
X-5102115Y5635500D01*
X-4635500Y6102115D01*
X-4086820Y6468731D01*
X-4012810Y6499387D01*
X-3477158Y6721262D01*
X-2829948Y6850000D01*
X-2170052Y6850000D01*
X-1522844Y6721262D01*
X-1522833Y6721258D01*
X-1499384Y6714146D01*
X-1474997Y6711744D01*
X-1450611Y6714146D01*
X-1427163Y6721260D01*
X-1405552Y6732811D01*
X-1386610Y6748356D01*
X-1371065Y6767299D01*
X-1359514Y6788909D01*
X-1352402Y6812358D01*
X-1350000Y6836743D01*
X-1350000Y9500000D01*
X1350000Y9500000D01*
X1350000Y6600000D01*
X1350000Y6600000D01*
G37*
G36*
X22989421Y6767299D02*
G01*
X23462574Y6673183D01*
X23848479Y6513336D01*
X24056512Y6427166D01*
X24063136Y6424422D01*
X24603627Y6063277D01*
X25063277Y5603627D01*
X25409578Y5085352D01*
X25424423Y5063134D01*
X25491993Y4900005D01*
X25673183Y4462574D01*
X25736592Y4143798D01*
X25800000Y3825023D01*
X25800000Y3174977D01*
X25753881Y2943121D01*
X25673183Y2537426D01*
X25607191Y2378108D01*
X25449830Y1998203D01*
X25424422Y1936864D01*
X25063277Y1396373D01*
X24603627Y936723D01*
X24063136Y575578D01*
X23462574Y326817D01*
X23143798Y263408D01*
X22825023Y200000D01*
X22174977Y200000D01*
X21856202Y263408D01*
X21537426Y326817D01*
X20936864Y575578D01*
X20396373Y936723D01*
X19936723Y1396373D01*
X19575578Y1936864D01*
X19550171Y1998203D01*
X19392809Y2378108D01*
X19326817Y2537426D01*
X19246119Y2943121D01*
X19200000Y3174977D01*
X19200000Y3825023D01*
X19263408Y4143798D01*
X19326817Y4462574D01*
X19508007Y4900005D01*
X19575577Y5063134D01*
X19590423Y5085352D01*
X19936723Y5603627D01*
X20396373Y6063277D01*
X20936864Y6424422D01*
X20943489Y6427166D01*
X21151521Y6513336D01*
X21537426Y6673183D01*
X22010579Y6767299D01*
X22174977Y6800000D01*
X22825023Y6800000D01*
X22989421Y6767299D01*
X22989421Y6767299D01*
G37*
G36*
X28182262Y350841D02*
G01*
X26082262Y350841D01*
X26082262Y2450841D01*
X28182262Y2450841D01*
X28182262Y350841D01*
X28182262Y350841D01*
G37*
G36*
X29800969Y2443245D02*
G01*
X29878098Y2435648D01*
X30076024Y2375608D01*
X30076027Y2375607D01*
X30258432Y2278109D01*
X30418317Y2146896D01*
X30549530Y1987011D01*
X30647028Y1804606D01*
X30647029Y1804603D01*
X30707069Y1606677D01*
X30727342Y1400841D01*
X30707069Y1195005D01*
X30648971Y1003481D01*
X30647028Y997076D01*
X30549530Y814671D01*
X30418317Y654786D01*
X30258432Y523573D01*
X30076027Y426075D01*
X30076024Y426074D01*
X29878098Y366034D01*
X29800969Y358437D01*
X29723842Y350841D01*
X29620682Y350841D01*
X29543555Y358437D01*
X29466426Y366034D01*
X29268500Y426074D01*
X29268497Y426075D01*
X29086092Y523573D01*
X28926207Y654786D01*
X28794994Y814671D01*
X28697496Y997076D01*
X28695553Y1003481D01*
X28637455Y1195005D01*
X28617182Y1400841D01*
X28637455Y1606677D01*
X28697495Y1804603D01*
X28697496Y1804606D01*
X28794994Y1987011D01*
X28926207Y2146896D01*
X29086092Y2278109D01*
X29268497Y2375607D01*
X29268500Y2375608D01*
X29466426Y2435648D01*
X29543555Y2443244D01*
X29620682Y2450841D01*
X29723842Y2450841D01*
X29800969Y2443245D01*
X29800969Y2443245D01*
G37*
G36*
X32340949Y2445814D02*
G01*
X32518536Y2410491D01*
X32709624Y2331339D01*
X32881598Y2216430D01*
X33027851Y2070177D01*
X33142760Y1898203D01*
X33221912Y1707115D01*
X33247346Y1579246D01*
X33262262Y1504258D01*
X33262262Y1297424D01*
X33257235Y1272154D01*
X33221912Y1094567D01*
X33142760Y903479D01*
X33027851Y731505D01*
X32881598Y585252D01*
X32709624Y470343D01*
X32518536Y391191D01*
X32340949Y355868D01*
X32315679Y350841D01*
X32108845Y350841D01*
X32083575Y355868D01*
X31905988Y391191D01*
X31714900Y470343D01*
X31542926Y585252D01*
X31396673Y731505D01*
X31281764Y903479D01*
X31202612Y1094567D01*
X31167289Y1272154D01*
X31162262Y1297424D01*
X31162262Y1504258D01*
X31177178Y1579246D01*
X31202612Y1707115D01*
X31281764Y1898203D01*
X31396673Y2070177D01*
X31542926Y2216430D01*
X31714900Y2331339D01*
X31905988Y2410491D01*
X32083575Y2445814D01*
X32108845Y2450841D01*
X32315679Y2450841D01*
X32340949Y2445814D01*
X32340949Y2445814D01*
G37*
G36*
X18275000Y370000D02*
G01*
X17225000Y370000D01*
X17225000Y1830000D01*
X18275000Y1830000D01*
X18275000Y370000D01*
X18275000Y370000D01*
G37*
G36*
X16375000Y370000D02*
G01*
X15325000Y370000D01*
X15325000Y1830000D01*
X16375000Y1830000D01*
X16375000Y370000D01*
X16375000Y370000D01*
G37*
G36*
X-9599031Y2543244D02*
G01*
X-9521902Y2535648D01*
X-9323976Y2475608D01*
X-9323973Y2475607D01*
X-9141568Y2378109D01*
X-8981683Y2246896D01*
X-8850470Y2087011D01*
X-8752972Y1904606D01*
X-8752971Y1904603D01*
X-8692931Y1706677D01*
X-8672658Y1500841D01*
X-8692931Y1295005D01*
X-8752971Y1097079D01*
X-8752972Y1097076D01*
X-8850470Y914671D01*
X-8981683Y754786D01*
X-9141568Y623573D01*
X-9323973Y526075D01*
X-9323976Y526074D01*
X-9521902Y466034D01*
X-9599031Y458437D01*
X-9676158Y450841D01*
X-9779318Y450841D01*
X-9856445Y458437D01*
X-9933574Y466034D01*
X-10131500Y526074D01*
X-10131503Y526075D01*
X-10313908Y623573D01*
X-10473793Y754786D01*
X-10605006Y914671D01*
X-10702504Y1097076D01*
X-10702505Y1097079D01*
X-10762545Y1295005D01*
X-10782818Y1500841D01*
X-10762545Y1706677D01*
X-10702505Y1904603D01*
X-10702504Y1904606D01*
X-10605006Y2087011D01*
X-10473793Y2246896D01*
X-10313908Y2378109D01*
X-10131503Y2475607D01*
X-10131500Y2475608D01*
X-9933574Y2535648D01*
X-9856445Y2543245D01*
X-9779318Y2550841D01*
X-9676158Y2550841D01*
X-9599031Y2543244D01*
X-9599031Y2543244D01*
G37*
G36*
X-12139031Y2543244D02*
G01*
X-12061902Y2535648D01*
X-11863976Y2475608D01*
X-11863973Y2475607D01*
X-11681568Y2378109D01*
X-11521683Y2246896D01*
X-11390470Y2087011D01*
X-11292972Y1904606D01*
X-11292971Y1904603D01*
X-11232931Y1706677D01*
X-11212658Y1500841D01*
X-11232931Y1295005D01*
X-11292971Y1097079D01*
X-11292972Y1097076D01*
X-11390470Y914671D01*
X-11521683Y754786D01*
X-11681568Y623573D01*
X-11863973Y526075D01*
X-11863976Y526074D01*
X-12061902Y466034D01*
X-12139031Y458437D01*
X-12216158Y450841D01*
X-12319318Y450841D01*
X-12396445Y458437D01*
X-12473574Y466034D01*
X-12671500Y526074D01*
X-12671503Y526075D01*
X-12853908Y623573D01*
X-13013793Y754786D01*
X-13145006Y914671D01*
X-13242504Y1097076D01*
X-13242505Y1097079D01*
X-13302545Y1295005D01*
X-13322818Y1500841D01*
X-13302545Y1706677D01*
X-13242505Y1904603D01*
X-13242504Y1904606D01*
X-13145006Y2087011D01*
X-13013793Y2246896D01*
X-12853908Y2378109D01*
X-12671503Y2475607D01*
X-12671500Y2475608D01*
X-12473574Y2535648D01*
X-12396445Y2543245D01*
X-12319318Y2550841D01*
X-12216158Y2550841D01*
X-12139031Y2543244D01*
X-12139031Y2543244D01*
G37*
G36*
X-7059051Y2545814D02*
G01*
X-6881464Y2510491D01*
X-6690376Y2431339D01*
X-6518402Y2316430D01*
X-6372149Y2170177D01*
X-6257240Y1998203D01*
X-6178088Y1807115D01*
X-6150736Y1669603D01*
X-6138259Y1606879D01*
X-6137738Y1604257D01*
X-6137738Y1397425D01*
X-6178088Y1194567D01*
X-6257240Y1003479D01*
X-6372149Y831505D01*
X-6518402Y685252D01*
X-6690376Y570343D01*
X-6881464Y491191D01*
X-7059051Y455868D01*
X-7084321Y450841D01*
X-7291155Y450841D01*
X-7316425Y455868D01*
X-7494012Y491191D01*
X-7685100Y570343D01*
X-7857074Y685252D01*
X-8003327Y831505D01*
X-8118236Y1003479D01*
X-8197388Y1194567D01*
X-8237738Y1397425D01*
X-8237738Y1604257D01*
X-8237216Y1606879D01*
X-8224740Y1669603D01*
X-8197388Y1807115D01*
X-8118236Y1998203D01*
X-8003327Y2170177D01*
X-7857074Y2316430D01*
X-7685100Y2431339D01*
X-7494012Y2510491D01*
X-7316425Y2545814D01*
X-7291155Y2550841D01*
X-7084321Y2550841D01*
X-7059051Y2545814D01*
X-7059051Y2545814D01*
G37*
G36*
X6253530Y2994123D02*
G01*
X6305010Y2978507D01*
X6352445Y2953152D01*
X6394027Y2919027D01*
X6428152Y2877445D01*
X6453507Y2830010D01*
X6469123Y2778530D01*
X6475000Y2718860D01*
X6475000Y1831140D01*
X6469123Y1771470D01*
X6453507Y1719990D01*
X6428152Y1672555D01*
X6394027Y1630973D01*
X6352445Y1596848D01*
X6305010Y1571493D01*
X6253530Y1555877D01*
X6193860Y1550000D01*
X5406140Y1550000D01*
X5346470Y1555877D01*
X5294990Y1571493D01*
X5247555Y1596848D01*
X5205973Y1630973D01*
X5171848Y1672555D01*
X5146493Y1719990D01*
X5130877Y1771470D01*
X5125000Y1831140D01*
X5125000Y2718860D01*
X5130877Y2778530D01*
X5146493Y2830010D01*
X5171848Y2877445D01*
X5205973Y2919027D01*
X5247555Y2953152D01*
X5294990Y2978507D01*
X5346470Y2994123D01*
X5406140Y3000000D01*
X6193860Y3000000D01*
X6253530Y2994123D01*
X6253530Y2994123D01*
G37*
G36*
X8253530Y3069123D02*
G01*
X8305010Y3053507D01*
X8352445Y3028152D01*
X8394027Y2994027D01*
X8428152Y2952445D01*
X8453507Y2905010D01*
X8469123Y2853530D01*
X8475000Y2793860D01*
X8475000Y1906140D01*
X8469123Y1846470D01*
X8453507Y1794990D01*
X8428152Y1747555D01*
X8394027Y1705973D01*
X8352445Y1671848D01*
X8305010Y1646493D01*
X8253530Y1630877D01*
X8193860Y1625000D01*
X7406140Y1625000D01*
X7346470Y1630877D01*
X7294990Y1646493D01*
X7247555Y1671848D01*
X7205973Y1705973D01*
X7171848Y1747555D01*
X7146493Y1794990D01*
X7130877Y1846470D01*
X7125000Y1906140D01*
X7125000Y2793860D01*
X7130877Y2853530D01*
X7146493Y2905010D01*
X7171848Y2952445D01*
X7205973Y2994027D01*
X7247555Y3028152D01*
X7294990Y3053507D01*
X7346470Y3069123D01*
X7406140Y3075000D01*
X8193860Y3075000D01*
X8253530Y3069123D01*
X8253530Y3069123D01*
G37*
G36*
X18275000Y2570000D02*
G01*
X15325000Y2570000D01*
X15325000Y4030000D01*
X18275000Y4030000D01*
X18275000Y2570000D01*
X18275000Y2570000D01*
G37*
G36*
X14678530Y4269123D02*
G01*
X14730010Y4253507D01*
X14777445Y4228152D01*
X14819027Y4194027D01*
X14853152Y4152445D01*
X14878507Y4105010D01*
X14894123Y4053530D01*
X14900000Y3993860D01*
X14900000Y3206140D01*
X14894123Y3146470D01*
X14878507Y3094990D01*
X14853152Y3047555D01*
X14819027Y3005973D01*
X14777445Y2971848D01*
X14730010Y2946493D01*
X14678530Y2930877D01*
X14618860Y2925000D01*
X13731140Y2925000D01*
X13671470Y2930877D01*
X13619990Y2946493D01*
X13572555Y2971848D01*
X13530973Y3005973D01*
X13496848Y3047555D01*
X13471493Y3094990D01*
X13455877Y3146470D01*
X13450000Y3206140D01*
X13450000Y3993860D01*
X13455877Y4053530D01*
X13471493Y4105010D01*
X13496848Y4152445D01*
X13530973Y4194027D01*
X13572555Y4228152D01*
X13619990Y4253507D01*
X13671470Y4269123D01*
X13731140Y4275000D01*
X14618860Y4275000D01*
X14678530Y4269123D01*
X14678530Y4269123D01*
G37*
G36*
X12928530Y4269123D02*
G01*
X12980010Y4253507D01*
X13027445Y4228152D01*
X13069027Y4194027D01*
X13103152Y4152445D01*
X13128507Y4105010D01*
X13144123Y4053530D01*
X13150000Y3993860D01*
X13150000Y3206140D01*
X13144123Y3146470D01*
X13128507Y3094990D01*
X13103152Y3047555D01*
X13069027Y3005973D01*
X13027445Y2971848D01*
X12980010Y2946493D01*
X12928530Y2930877D01*
X12868860Y2925000D01*
X11981140Y2925000D01*
X11921470Y2930877D01*
X11869990Y2946493D01*
X11822555Y2971848D01*
X11780973Y3005973D01*
X11746848Y3047555D01*
X11721493Y3094990D01*
X11705877Y3146470D01*
X11700000Y3206140D01*
X11700000Y3993860D01*
X11705877Y4053530D01*
X11721493Y4105010D01*
X11746848Y4152445D01*
X11780973Y4194027D01*
X11822555Y4228152D01*
X11869990Y4253507D01*
X11921470Y4269123D01*
X11981140Y4275000D01*
X12868860Y4275000D01*
X12928530Y4269123D01*
X12928530Y4269123D01*
G37*
G36*
X4653530Y5044123D02*
G01*
X4705010Y5028507D01*
X4752445Y5003152D01*
X4794027Y4969027D01*
X4828152Y4927445D01*
X4853507Y4880010D01*
X4869123Y4828530D01*
X4875000Y4768860D01*
X4875000Y3881140D01*
X4869123Y3821470D01*
X4853507Y3769990D01*
X4828152Y3722555D01*
X4794027Y3680973D01*
X4752445Y3646848D01*
X4705010Y3621493D01*
X4653530Y3605877D01*
X4593860Y3600000D01*
X3806140Y3600000D01*
X3746470Y3605877D01*
X3694990Y3621493D01*
X3647555Y3646848D01*
X3605973Y3680973D01*
X3571848Y3722555D01*
X3546493Y3769990D01*
X3530877Y3821470D01*
X3525000Y3881140D01*
X3525000Y4768860D01*
X3530877Y4828530D01*
X3546493Y4880010D01*
X3571848Y4927445D01*
X3605973Y4969027D01*
X3647555Y5003152D01*
X3694990Y5028507D01*
X3746470Y5044123D01*
X3806140Y5050000D01*
X4593860Y5050000D01*
X4653530Y5044123D01*
X4653530Y5044123D01*
G37*
G36*
X9653530Y5244123D02*
G01*
X9705010Y5228507D01*
X9752445Y5203152D01*
X9794027Y5169027D01*
X9828150Y5127447D01*
X9839760Y5105727D01*
X9853374Y5085352D01*
X9870701Y5068025D01*
X9891075Y5054411D01*
X9913714Y5045034D01*
X9937747Y5040253D01*
X9962251Y5040253D01*
X9986284Y5045033D01*
X10008923Y5054410D01*
X10029298Y5068024D01*
X10046625Y5085351D01*
X10060240Y5105727D01*
X10071850Y5127447D01*
X10105973Y5169027D01*
X10147555Y5203152D01*
X10194990Y5228507D01*
X10246470Y5244123D01*
X10306140Y5250000D01*
X11093860Y5250000D01*
X11153530Y5244123D01*
X11205010Y5228507D01*
X11252445Y5203152D01*
X11294027Y5169027D01*
X11328152Y5127445D01*
X11353507Y5080010D01*
X11369123Y5028530D01*
X11375000Y4968860D01*
X11375000Y4081140D01*
X11369123Y4021470D01*
X11353507Y3969990D01*
X11328152Y3922555D01*
X11294027Y3880973D01*
X11252445Y3846848D01*
X11205010Y3821493D01*
X11153530Y3805877D01*
X11093860Y3800000D01*
X10306140Y3800000D01*
X10246470Y3805877D01*
X10194990Y3821493D01*
X10147555Y3846848D01*
X10105973Y3880973D01*
X10071850Y3922553D01*
X10060240Y3944273D01*
X10046626Y3964648D01*
X10029299Y3981975D01*
X10008925Y3995589D01*
X9986286Y4004966D01*
X9962253Y4009747D01*
X9937749Y4009747D01*
X9913716Y4004967D01*
X9891077Y3995590D01*
X9870702Y3981976D01*
X9853375Y3964649D01*
X9839760Y3944273D01*
X9828150Y3922553D01*
X9794027Y3880973D01*
X9752445Y3846848D01*
X9705010Y3821493D01*
X9653530Y3805877D01*
X9593860Y3800000D01*
X8806140Y3800000D01*
X8746470Y3805877D01*
X8694990Y3821493D01*
X8647555Y3846848D01*
X8605973Y3880973D01*
X8571848Y3922555D01*
X8546493Y3969990D01*
X8530877Y4021470D01*
X8525000Y4081140D01*
X8525000Y4968860D01*
X8530877Y5028530D01*
X8546493Y5080010D01*
X8571848Y5127445D01*
X8605973Y5169027D01*
X8647555Y5203152D01*
X8694990Y5228507D01*
X8746470Y5244123D01*
X8806140Y5250000D01*
X9593860Y5250000D01*
X9653530Y5244123D01*
X9653530Y5244123D01*
G37*
G36*
X16283530Y5734123D02*
G01*
X16335010Y5718507D01*
X16382445Y5693152D01*
X16424027Y5659027D01*
X16458152Y5617445D01*
X16483507Y5570010D01*
X16499123Y5518530D01*
X16505000Y5458860D01*
X16505000Y4571140D01*
X16499123Y4511470D01*
X16483507Y4459990D01*
X16458152Y4412555D01*
X16424027Y4370973D01*
X16382445Y4336848D01*
X16335010Y4311493D01*
X16283530Y4295877D01*
X16223860Y4290000D01*
X15436140Y4290000D01*
X15376470Y4295877D01*
X15324990Y4311493D01*
X15277555Y4336848D01*
X15235973Y4370973D01*
X15201848Y4412555D01*
X15176493Y4459990D01*
X15160877Y4511470D01*
X15155000Y4571140D01*
X15155000Y5458860D01*
X15160877Y5518530D01*
X15176493Y5570010D01*
X15201848Y5617445D01*
X15235973Y5659027D01*
X15277555Y5693152D01*
X15324990Y5718507D01*
X15376470Y5734123D01*
X15436140Y5740000D01*
X16223860Y5740000D01*
X16283530Y5734123D01*
X16283530Y5734123D01*
G37*
G36*
X13979453Y7527726D02*
G01*
X13995753Y7522781D01*
X14010775Y7514751D01*
X14023944Y7503944D01*
X14034751Y7490775D01*
X14042781Y7475753D01*
X14047726Y7459453D01*
X14050000Y7436360D01*
X14050000Y6704999D01*
X14052402Y6680613D01*
X14059515Y6657164D01*
X14071066Y6635553D01*
X14086611Y6616611D01*
X14105553Y6601066D01*
X14127164Y6589515D01*
X14150613Y6582402D01*
X14174999Y6580000D01*
X14456360Y6580000D01*
X14479453Y6577726D01*
X14495753Y6572781D01*
X14510775Y6564751D01*
X14523944Y6553944D01*
X14534751Y6540775D01*
X14542781Y6525753D01*
X14547726Y6509453D01*
X14550000Y6486360D01*
X14550000Y5673640D01*
X14547726Y5650547D01*
X14542781Y5634247D01*
X14534751Y5619225D01*
X14523944Y5606056D01*
X14510775Y5595249D01*
X14495753Y5587219D01*
X14479453Y5582274D01*
X14456360Y5580000D01*
X14174999Y5580000D01*
X14150613Y5577598D01*
X14127164Y5570485D01*
X14105553Y5558934D01*
X14086611Y5543389D01*
X14071066Y5524447D01*
X14059515Y5502836D01*
X14052402Y5479387D01*
X14050000Y5455001D01*
X14050000Y4723640D01*
X14047726Y4700547D01*
X14042781Y4684247D01*
X14034751Y4669225D01*
X14023944Y4656056D01*
X14010775Y4645249D01*
X13995753Y4637219D01*
X13979453Y4632274D01*
X13956360Y4630000D01*
X12743640Y4630000D01*
X12720547Y4632274D01*
X12704247Y4637219D01*
X12689225Y4645249D01*
X12676056Y4656056D01*
X12665249Y4669225D01*
X12657219Y4684247D01*
X12652274Y4700547D01*
X12650000Y4723640D01*
X12650000Y5455001D01*
X12647598Y5479387D01*
X12640485Y5502836D01*
X12628934Y5524447D01*
X12613389Y5543389D01*
X12594447Y5558934D01*
X12572836Y5570485D01*
X12549387Y5577598D01*
X12525001Y5580000D01*
X12243640Y5580000D01*
X12220547Y5582274D01*
X12204247Y5587219D01*
X12189225Y5595249D01*
X12176056Y5606056D01*
X12165249Y5619225D01*
X12157219Y5634247D01*
X12152274Y5650547D01*
X12150000Y5673640D01*
X12150000Y6486360D01*
X12152274Y6509453D01*
X12157219Y6525753D01*
X12165249Y6540775D01*
X12176056Y6553944D01*
X12189225Y6564751D01*
X12204247Y6572781D01*
X12220547Y6577726D01*
X12243640Y6580000D01*
X12525001Y6580000D01*
X12549387Y6582402D01*
X12572836Y6589515D01*
X12594447Y6601066D01*
X12613389Y6616611D01*
X12628934Y6635553D01*
X12640485Y6657164D01*
X12647598Y6680613D01*
X12650000Y6704999D01*
X12650000Y7436360D01*
X12652274Y7459453D01*
X12657219Y7475753D01*
X12665249Y7490775D01*
X12676056Y7503944D01*
X12689225Y7514751D01*
X12704247Y7522781D01*
X12720547Y7527726D01*
X12743640Y7530000D01*
X13956360Y7530000D01*
X13979453Y7527726D01*
X13979453Y7527726D01*
G37*
G36*
X4653530Y6794123D02*
G01*
X4705010Y6778507D01*
X4752445Y6753152D01*
X4794027Y6719027D01*
X4828152Y6677445D01*
X4853507Y6630010D01*
X4869123Y6578530D01*
X4875000Y6518860D01*
X4875000Y5631140D01*
X4869123Y5571470D01*
X4853507Y5519990D01*
X4828152Y5472555D01*
X4794027Y5430973D01*
X4752445Y5396848D01*
X4705010Y5371493D01*
X4653530Y5355877D01*
X4593860Y5350000D01*
X3806140Y5350000D01*
X3746470Y5355877D01*
X3694990Y5371493D01*
X3647555Y5396848D01*
X3605973Y5430973D01*
X3571848Y5472555D01*
X3546493Y5519990D01*
X3530877Y5571470D01*
X3525000Y5631140D01*
X3525000Y6518860D01*
X3530877Y6578530D01*
X3546493Y6630010D01*
X3571848Y6677445D01*
X3605973Y6719027D01*
X3647555Y6753152D01*
X3694990Y6778507D01*
X3746470Y6794123D01*
X3806140Y6800000D01*
X4593860Y6800000D01*
X4653530Y6794123D01*
X4653530Y6794123D01*
G37*
G36*
X9653530Y6994123D02*
G01*
X9705010Y6978507D01*
X9752445Y6953152D01*
X9794027Y6919027D01*
X9828150Y6877447D01*
X9839760Y6855727D01*
X9853374Y6835352D01*
X9870701Y6818025D01*
X9891075Y6804411D01*
X9913714Y6795034D01*
X9937747Y6790253D01*
X9962251Y6790253D01*
X9986284Y6795033D01*
X10008923Y6804410D01*
X10029298Y6818024D01*
X10046625Y6835351D01*
X10060240Y6855727D01*
X10071850Y6877447D01*
X10105973Y6919027D01*
X10147555Y6953152D01*
X10194990Y6978507D01*
X10246470Y6994123D01*
X10306140Y7000000D01*
X11093860Y7000000D01*
X11153530Y6994123D01*
X11205010Y6978507D01*
X11252445Y6953152D01*
X11294027Y6919027D01*
X11328152Y6877445D01*
X11353507Y6830010D01*
X11369123Y6778530D01*
X11375000Y6718860D01*
X11375000Y5831140D01*
X11369123Y5771470D01*
X11353507Y5719990D01*
X11328152Y5672555D01*
X11294027Y5630973D01*
X11252445Y5596848D01*
X11205010Y5571493D01*
X11153530Y5555877D01*
X11093860Y5550000D01*
X10306140Y5550000D01*
X10246470Y5555877D01*
X10194990Y5571493D01*
X10147555Y5596848D01*
X10105973Y5630973D01*
X10071850Y5672553D01*
X10060240Y5694273D01*
X10046626Y5714648D01*
X10029299Y5731975D01*
X10008925Y5745589D01*
X9986286Y5754966D01*
X9962253Y5759747D01*
X9937749Y5759747D01*
X9913716Y5754967D01*
X9891077Y5745590D01*
X9870702Y5731976D01*
X9853375Y5714649D01*
X9839760Y5694273D01*
X9828150Y5672553D01*
X9794027Y5630973D01*
X9752445Y5596848D01*
X9705010Y5571493D01*
X9653530Y5555877D01*
X9593860Y5550000D01*
X8806140Y5550000D01*
X8746470Y5555877D01*
X8694990Y5571493D01*
X8647555Y5596848D01*
X8605973Y5630973D01*
X8571848Y5672555D01*
X8546493Y5719990D01*
X8530877Y5771470D01*
X8525000Y5831140D01*
X8525000Y6718860D01*
X8530877Y6778530D01*
X8546493Y6830010D01*
X8571848Y6877445D01*
X8605973Y6919027D01*
X8647555Y6953152D01*
X8694990Y6978507D01*
X8746470Y6994123D01*
X8806140Y7000000D01*
X9593860Y7000000D01*
X9653530Y6994123D01*
X9653530Y6994123D01*
G37*
G36*
X17463498Y11369958D02*
G01*
X17506825Y11356815D01*
X17546754Y11335472D01*
X17581751Y11306751D01*
X17610472Y11271754D01*
X17631815Y11231825D01*
X17644958Y11188498D01*
X17650000Y11137303D01*
X17650000Y7862697D01*
X17644958Y7811502D01*
X17631815Y7768175D01*
X17610472Y7728246D01*
X17581751Y7693249D01*
X17546754Y7664528D01*
X17506825Y7643185D01*
X17463498Y7630042D01*
X17412303Y7625000D01*
X16510211Y7625000D01*
X16485825Y7622598D01*
X16462376Y7615485D01*
X16440765Y7603934D01*
X16421823Y7588389D01*
X16406278Y7569447D01*
X16394727Y7547836D01*
X16387614Y7524387D01*
X16385212Y7500001D01*
X16387614Y7475615D01*
X16394727Y7452166D01*
X16406278Y7430555D01*
X16421823Y7411613D01*
X16422140Y7411325D01*
X16458152Y7367445D01*
X16483507Y7320010D01*
X16499123Y7268530D01*
X16505000Y7208860D01*
X16505000Y6321140D01*
X16499123Y6261470D01*
X16483507Y6209990D01*
X16458152Y6162555D01*
X16424027Y6120973D01*
X16382445Y6086848D01*
X16335010Y6061493D01*
X16283530Y6045877D01*
X16223860Y6040000D01*
X15436140Y6040000D01*
X15376470Y6045877D01*
X15324990Y6061493D01*
X15277555Y6086848D01*
X15235973Y6120973D01*
X15201848Y6162555D01*
X15176493Y6209990D01*
X15160877Y6261470D01*
X15155000Y6321140D01*
X15155000Y7208860D01*
X15160877Y7268530D01*
X15176493Y7320010D01*
X15201848Y7367445D01*
X15235973Y7409027D01*
X15277555Y7443152D01*
X15324990Y7468507D01*
X15376470Y7484123D01*
X15436140Y7490000D01*
X15695764Y7490000D01*
X15720150Y7492402D01*
X15743599Y7499515D01*
X15765210Y7511066D01*
X15784152Y7526611D01*
X15799697Y7545553D01*
X15811248Y7567164D01*
X15818361Y7590613D01*
X15820763Y7614999D01*
X15818361Y7639385D01*
X15811248Y7662834D01*
X15799697Y7684445D01*
X15792389Y7694298D01*
X15764528Y7728246D01*
X15743185Y7768175D01*
X15730042Y7811502D01*
X15725000Y7862697D01*
X15725000Y11137303D01*
X15730042Y11188498D01*
X15743185Y11231825D01*
X15764528Y11271754D01*
X15793249Y11306751D01*
X15828246Y11335472D01*
X15868175Y11356815D01*
X15911502Y11369958D01*
X15962697Y11375000D01*
X17412303Y11375000D01*
X17463498Y11369958D01*
X17463498Y11369958D01*
G37*
G36*
X9855553Y11390496D02*
G01*
X9877164Y11378945D01*
X9900613Y11371832D01*
X9937250Y11370032D01*
X9987695Y11375000D01*
X11437303Y11375000D01*
X11488498Y11369958D01*
X11531825Y11356815D01*
X11571754Y11335472D01*
X11606751Y11306751D01*
X11635472Y11271754D01*
X11656815Y11231825D01*
X11669958Y11188498D01*
X11675000Y11137303D01*
X11675000Y7862697D01*
X11669958Y7811502D01*
X11656815Y7768175D01*
X11635472Y7728246D01*
X11606751Y7693249D01*
X11571754Y7664528D01*
X11531825Y7643185D01*
X11488498Y7630042D01*
X11437303Y7625000D01*
X9987697Y7625000D01*
X9936502Y7630042D01*
X9893175Y7643185D01*
X9853246Y7664528D01*
X9818249Y7693249D01*
X9789528Y7728246D01*
X9768185Y7768175D01*
X9755042Y7811502D01*
X9750000Y7862697D01*
X9750000Y11137303D01*
X9755042Y11188498D01*
X9768185Y11231825D01*
X9789528Y11271754D01*
X9819441Y11308203D01*
X9833055Y11328577D01*
X9842432Y11351216D01*
X9847212Y11375249D01*
X9847212Y11397341D01*
X9855553Y11390496D01*
X9855553Y11390496D01*
G37*
G36*
X-2746470Y10244123D02*
G01*
X-2694990Y10228507D01*
X-2647555Y10203152D01*
X-2605973Y10169027D01*
X-2571848Y10127445D01*
X-2546493Y10080010D01*
X-2530877Y10028530D01*
X-2525000Y9968860D01*
X-2525000Y9081140D01*
X-2530877Y9021470D01*
X-2546493Y8969990D01*
X-2571848Y8922555D01*
X-2605973Y8880973D01*
X-2647555Y8846848D01*
X-2694990Y8821493D01*
X-2746470Y8805877D01*
X-2806140Y8800000D01*
X-3593860Y8800000D01*
X-3653530Y8805877D01*
X-3705010Y8821493D01*
X-3752445Y8846848D01*
X-3794027Y8880973D01*
X-3828152Y8922555D01*
X-3853507Y8969990D01*
X-3869123Y9021470D01*
X-3875000Y9081140D01*
X-3875000Y9968860D01*
X-3869123Y10028530D01*
X-3853507Y10080010D01*
X-3828152Y10127445D01*
X-3794027Y10169027D01*
X-3752445Y10203152D01*
X-3705010Y10228507D01*
X-3653530Y10244123D01*
X-3593860Y10250000D01*
X-2806140Y10250000D01*
X-2746470Y10244123D01*
X-2746470Y10244123D01*
G37*
G36*
X-2746470Y11994123D02*
G01*
X-2694990Y11978507D01*
X-2647555Y11953152D01*
X-2605973Y11919027D01*
X-2571848Y11877445D01*
X-2546493Y11830010D01*
X-2530877Y11778530D01*
X-2525000Y11718860D01*
X-2525000Y10831140D01*
X-2530877Y10771470D01*
X-2546493Y10719990D01*
X-2571848Y10672555D01*
X-2605973Y10630973D01*
X-2647555Y10596848D01*
X-2694990Y10571493D01*
X-2746470Y10555877D01*
X-2806140Y10550000D01*
X-3593860Y10550000D01*
X-3653530Y10555877D01*
X-3705010Y10571493D01*
X-3752445Y10596848D01*
X-3794027Y10630973D01*
X-3828152Y10672555D01*
X-3853507Y10719990D01*
X-3869123Y10771470D01*
X-3875000Y10831140D01*
X-3875000Y11718860D01*
X-3869123Y11778530D01*
X-3853507Y11830010D01*
X-3828152Y11877445D01*
X-3794027Y11919027D01*
X-3752445Y11953152D01*
X-3705010Y11978507D01*
X-3653530Y11994123D01*
X-3593860Y12000000D01*
X-2806140Y12000000D01*
X-2746470Y11994123D01*
X-2746470Y11994123D01*
G37*
G36*
X1350000Y10900000D02*
G01*
X-1350000Y10900000D01*
X-1350000Y13800000D01*
X1350000Y13800000D01*
X1350000Y10900000D01*
X1350000Y10900000D01*
G37*
G36*
X7600000Y14664999D02*
G01*
X7602402Y14640613D01*
X7609515Y14617164D01*
X7621066Y14595553D01*
X7636611Y14576611D01*
X7655553Y14561066D01*
X7677164Y14549515D01*
X7700613Y14542402D01*
X7724999Y14540000D01*
X8875001Y14540000D01*
X8899387Y14542402D01*
X8922836Y14549515D01*
X8944447Y14561066D01*
X8963389Y14576611D01*
X8978934Y14595553D01*
X8990485Y14617164D01*
X8997598Y14640613D01*
X9000000Y14664999D01*
X9000000Y15217500D01*
X9800000Y15217500D01*
X9800000Y14638866D01*
X9802402Y14614480D01*
X9809515Y14591031D01*
X9821066Y14569420D01*
X9836611Y14550478D01*
X9855553Y14534933D01*
X9877164Y14523382D01*
X9900613Y14516269D01*
X9924999Y14513867D01*
X9937238Y14514468D01*
X9942639Y14515000D01*
X10750000Y14515000D01*
X10750000Y14378503D01*
X10750602Y14366250D01*
X10750725Y14365000D01*
X10750602Y14363750D01*
X10750000Y14351497D01*
X10750000Y13978503D01*
X10750602Y13966250D01*
X10750725Y13965000D01*
X10750602Y13963750D01*
X10750000Y13951497D01*
X10750000Y13578503D01*
X10750602Y13566250D01*
X10750725Y13565000D01*
X10750602Y13563750D01*
X10750000Y13551497D01*
X10750000Y13178503D01*
X10750602Y13166250D01*
X10750725Y13165000D01*
X10750602Y13163750D01*
X10750000Y13151497D01*
X10750000Y12778503D01*
X10750602Y12766250D01*
X10750725Y12765000D01*
X10750602Y12763750D01*
X10750000Y12751497D01*
X10750000Y12378503D01*
X10750602Y12366250D01*
X10750725Y12365000D01*
X10750602Y12363750D01*
X10750000Y12351497D01*
X10750000Y12215000D01*
X9942639Y12215000D01*
X9937247Y12215531D01*
X9912753Y12215532D01*
X9888719Y12210752D01*
X9866080Y12201376D01*
X9845705Y12187763D01*
X9828377Y12170437D01*
X9814762Y12150063D01*
X9805384Y12127425D01*
X9800602Y12103392D01*
X9800000Y12091134D01*
X9800000Y11494429D01*
X9800937Y11484913D01*
X9781739Y11497741D01*
X9759100Y11507118D01*
X9722815Y11512500D01*
X9000000Y11512500D01*
X9000000Y12065001D01*
X8997598Y12089387D01*
X8990485Y12112836D01*
X8978934Y12134447D01*
X8963389Y12153389D01*
X8944447Y12168934D01*
X8922836Y12180485D01*
X8899387Y12187598D01*
X8875001Y12190000D01*
X7724999Y12190000D01*
X7700613Y12187598D01*
X7677164Y12180485D01*
X7655553Y12168934D01*
X7636611Y12153389D01*
X7621066Y12134447D01*
X7609515Y12112836D01*
X7602402Y12089387D01*
X7600000Y12065001D01*
X7600000Y11512500D01*
X6800000Y11512500D01*
X6800000Y12091134D01*
X6797598Y12115520D01*
X6790485Y12138969D01*
X6778934Y12160580D01*
X6763389Y12179522D01*
X6744447Y12195067D01*
X6722836Y12206618D01*
X6699387Y12213731D01*
X6675001Y12216133D01*
X6662762Y12215532D01*
X6657361Y12215000D01*
X5850000Y12215000D01*
X5850000Y12351497D01*
X5849398Y12363750D01*
X5849275Y12365000D01*
X5849398Y12366250D01*
X5850000Y12378503D01*
X5850000Y12751497D01*
X5849398Y12763750D01*
X5849275Y12765000D01*
X5849398Y12766250D01*
X5850000Y12778503D01*
X5850000Y13151497D01*
X5849398Y13163750D01*
X5849275Y13165000D01*
X5849398Y13166250D01*
X5850000Y13178503D01*
X5850000Y13551497D01*
X5849398Y13563750D01*
X5849275Y13565000D01*
X5849398Y13566250D01*
X5850000Y13578503D01*
X5850000Y13951497D01*
X5849398Y13963750D01*
X5849275Y13965000D01*
X5849398Y13966250D01*
X5850000Y13978503D01*
X5850000Y14351497D01*
X5849398Y14363750D01*
X5849275Y14365000D01*
X5849398Y14366250D01*
X5850000Y14378503D01*
X5850000Y14515000D01*
X6657361Y14515000D01*
X6662753Y14514469D01*
X6687247Y14514468D01*
X6711281Y14519248D01*
X6733920Y14528624D01*
X6754295Y14542237D01*
X6771623Y14559563D01*
X6785238Y14579937D01*
X6794616Y14602575D01*
X6799398Y14626608D01*
X6800000Y14638866D01*
X6800000Y15217500D01*
X7600000Y15217500D01*
X7600000Y14664999D01*
X7600000Y14664999D01*
G37*
G36*
X3528530Y13469123D02*
G01*
X3580010Y13453507D01*
X3627445Y13428152D01*
X3669027Y13394027D01*
X3703152Y13352445D01*
X3728507Y13305010D01*
X3744123Y13253530D01*
X3750000Y13193860D01*
X3750000Y12406140D01*
X3744123Y12346470D01*
X3728507Y12294990D01*
X3703152Y12247555D01*
X3669027Y12205973D01*
X3627445Y12171848D01*
X3580010Y12146493D01*
X3528530Y12130877D01*
X3468860Y12125000D01*
X2581140Y12125000D01*
X2521470Y12130877D01*
X2469990Y12146493D01*
X2422555Y12171848D01*
X2380973Y12205973D01*
X2346848Y12247555D01*
X2321493Y12294990D01*
X2305877Y12346470D01*
X2300000Y12406140D01*
X2300000Y13193860D01*
X2305877Y13253530D01*
X2321493Y13305010D01*
X2346848Y13352445D01*
X2380973Y13394027D01*
X2422555Y13428152D01*
X2469990Y13453507D01*
X2521470Y13469123D01*
X2581140Y13475000D01*
X3468860Y13475000D01*
X3528530Y13469123D01*
X3528530Y13469123D01*
G37*
G36*
X5278530Y13469123D02*
G01*
X5330010Y13453507D01*
X5377445Y13428152D01*
X5419027Y13394027D01*
X5453152Y13352445D01*
X5478507Y13305010D01*
X5494123Y13253530D01*
X5500000Y13193860D01*
X5500000Y12406140D01*
X5494123Y12346470D01*
X5478507Y12294990D01*
X5453152Y12247555D01*
X5419027Y12205973D01*
X5377445Y12171848D01*
X5330010Y12146493D01*
X5278530Y12130877D01*
X5218860Y12125000D01*
X4331140Y12125000D01*
X4271470Y12130877D01*
X4219990Y12146493D01*
X4172555Y12171848D01*
X4130973Y12205973D01*
X4096848Y12247555D01*
X4071493Y12294990D01*
X4055877Y12346470D01*
X4050000Y12406140D01*
X4050000Y13193860D01*
X4055877Y13253530D01*
X4071493Y13305010D01*
X4096848Y13352445D01*
X4130973Y13394027D01*
X4172555Y13428152D01*
X4219990Y13453507D01*
X4271470Y13469123D01*
X4331140Y13475000D01*
X5218860Y13475000D01*
X5278530Y13469123D01*
X5278530Y13469123D01*
G37*
G36*
X14178530Y15869123D02*
G01*
X14230010Y15853507D01*
X14277445Y15828152D01*
X14319027Y15794027D01*
X14353152Y15752445D01*
X14378507Y15705010D01*
X14394123Y15653530D01*
X14400000Y15593860D01*
X14400000Y14806140D01*
X14394123Y14746470D01*
X14378507Y14694990D01*
X14353152Y14647555D01*
X14319027Y14605973D01*
X14277447Y14571850D01*
X14255727Y14560240D01*
X14235352Y14546626D01*
X14218025Y14529299D01*
X14204411Y14508925D01*
X14195034Y14486286D01*
X14190253Y14462253D01*
X14190253Y14437749D01*
X14195033Y14413716D01*
X14204410Y14391077D01*
X14218024Y14370702D01*
X14235351Y14353375D01*
X14255727Y14339760D01*
X14277447Y14328150D01*
X14319027Y14294027D01*
X14353152Y14252445D01*
X14378507Y14205010D01*
X14394123Y14153530D01*
X14400000Y14093860D01*
X14400000Y13306140D01*
X14394123Y13246470D01*
X14378507Y13194990D01*
X14353152Y13147555D01*
X14319027Y13105973D01*
X14277445Y13071848D01*
X14230010Y13046493D01*
X14178530Y13030877D01*
X14118860Y13025000D01*
X13231140Y13025000D01*
X13171470Y13030877D01*
X13119990Y13046493D01*
X13072555Y13071848D01*
X13030973Y13105973D01*
X12996848Y13147555D01*
X12971493Y13194990D01*
X12955877Y13246470D01*
X12950000Y13306140D01*
X12950000Y14093860D01*
X12955877Y14153530D01*
X12971493Y14205010D01*
X12996848Y14252445D01*
X13030973Y14294027D01*
X13072553Y14328150D01*
X13094273Y14339760D01*
X13114648Y14353374D01*
X13131975Y14370701D01*
X13145589Y14391075D01*
X13154966Y14413714D01*
X13159747Y14437747D01*
X13159747Y14462251D01*
X13154967Y14486284D01*
X13145590Y14508923D01*
X13131976Y14529298D01*
X13114649Y14546625D01*
X13094273Y14560240D01*
X13072553Y14571850D01*
X13030973Y14605973D01*
X12996848Y14647555D01*
X12971493Y14694990D01*
X12955877Y14746470D01*
X12950000Y14806140D01*
X12950000Y15593860D01*
X12955877Y15653530D01*
X12971493Y15705010D01*
X12996848Y15752445D01*
X13030973Y15794027D01*
X13072555Y15828152D01*
X13119990Y15853507D01*
X13171470Y15869123D01*
X13231140Y15875000D01*
X14118860Y15875000D01*
X14178530Y15869123D01*
X14178530Y15869123D01*
G37*
G36*
X12428530Y15869123D02*
G01*
X12480010Y15853507D01*
X12527445Y15828152D01*
X12569027Y15794027D01*
X12603152Y15752445D01*
X12628507Y15705010D01*
X12644123Y15653530D01*
X12650000Y15593860D01*
X12650000Y14806140D01*
X12644123Y14746470D01*
X12628507Y14694990D01*
X12603152Y14647555D01*
X12569027Y14605973D01*
X12527447Y14571850D01*
X12505727Y14560240D01*
X12485352Y14546626D01*
X12468025Y14529299D01*
X12454411Y14508925D01*
X12445034Y14486286D01*
X12440253Y14462253D01*
X12440253Y14437749D01*
X12445033Y14413716D01*
X12454410Y14391077D01*
X12468024Y14370702D01*
X12485351Y14353375D01*
X12505727Y14339760D01*
X12527447Y14328150D01*
X12569027Y14294027D01*
X12603152Y14252445D01*
X12628507Y14205010D01*
X12644123Y14153530D01*
X12650000Y14093860D01*
X12650000Y13306140D01*
X12644123Y13246470D01*
X12628507Y13194990D01*
X12603152Y13147555D01*
X12569027Y13105973D01*
X12527445Y13071848D01*
X12480010Y13046493D01*
X12428530Y13030877D01*
X12368860Y13025000D01*
X11481140Y13025000D01*
X11421470Y13030877D01*
X11369990Y13046493D01*
X11322555Y13071848D01*
X11280973Y13105973D01*
X11246848Y13147555D01*
X11221493Y13194990D01*
X11205877Y13246470D01*
X11200000Y13306140D01*
X11200000Y14093860D01*
X11205877Y14153530D01*
X11221493Y14205010D01*
X11246848Y14252445D01*
X11280973Y14294027D01*
X11322553Y14328150D01*
X11344273Y14339760D01*
X11364648Y14353374D01*
X11381975Y14370701D01*
X11395589Y14391075D01*
X11404966Y14413714D01*
X11409747Y14437747D01*
X11409747Y14462251D01*
X11404967Y14486284D01*
X11395590Y14508923D01*
X11381976Y14529298D01*
X11364649Y14546625D01*
X11344273Y14560240D01*
X11322553Y14571850D01*
X11280973Y14605973D01*
X11246848Y14647555D01*
X11221493Y14694990D01*
X11205877Y14746470D01*
X11200000Y14806140D01*
X11200000Y15593860D01*
X11205877Y15653530D01*
X11221493Y15705010D01*
X11246848Y15752445D01*
X11280973Y15794027D01*
X11322555Y15828152D01*
X11369990Y15853507D01*
X11421470Y15869123D01*
X11481140Y15875000D01*
X12368860Y15875000D01*
X12428530Y15869123D01*
X12428530Y15869123D01*
G37*
M02*
