G04 #@! TF.GenerationSoftware,KiCad,Pcbnew,(5.1.0)-1*
G04 #@! TF.CreationDate,2019-06-21T14:41:16-03:00*
G04 #@! TF.ProjectId,PCB_B,5043425f-422e-46b6-9963-61645f706362,rev?*
G04 #@! TF.SameCoordinates,Original*
G04 #@! TF.FileFunction,Paste,Bot*
G04 #@! TF.FilePolarity,Positive*
%FSLAX46Y46*%
G04 Gerber Fmt 4.6, Leading zero omitted, Abs format (unit mm)*
G04 Created by KiCad (PCBNEW (5.1.0)-1) date 2019-06-21 14:41:16*
%MOMM*%
%LPD*%
G04 APERTURE LIST*
%ADD10R,1.500000X0.550000*%
G04 APERTURE END LIST*
D10*
X-825000Y-9596400D03*
X-825000Y-7196400D03*
X-825000Y-7996400D03*
X25227000Y-11061600D03*
X-825000Y-10396400D03*
X-4625000Y-7996400D03*
X25227000Y-9461600D03*
X21427000Y-6261600D03*
X-4625000Y-7196400D03*
X-825000Y-12796400D03*
X-825000Y-8796400D03*
X25227000Y-8661600D03*
X-825000Y-13596400D03*
X-4625000Y-11996400D03*
X-4625000Y-8796400D03*
X21427000Y-11861600D03*
X21427000Y-8661600D03*
X21427000Y-9461600D03*
X-825000Y-6396400D03*
X-825000Y-11196400D03*
X-4625000Y-9596400D03*
X21427000Y-11061600D03*
X-4625000Y-10396400D03*
X25227000Y-10261600D03*
X-4625000Y-12796400D03*
X-4625000Y-11196400D03*
X21427000Y-10261600D03*
X-4625000Y-6396400D03*
X21427000Y-13461600D03*
X25227000Y-7061600D03*
X25227000Y-13461600D03*
X-4625000Y-13596400D03*
X25227000Y-6261600D03*
X25227000Y-11861600D03*
X25227000Y-12661600D03*
X25227000Y-7861600D03*
X21427000Y-7061600D03*
X21427000Y-7861600D03*
X-825000Y-11996400D03*
X21427000Y-12661600D03*
M02*
