G04 #@! TF.GenerationSoftware,KiCad,Pcbnew,(5.1.0)-1*
G04 #@! TF.CreationDate,2019-06-21T17:50:41-03:00*
G04 #@! TF.ProjectId,PCB_C,5043425f-432e-46b6-9963-61645f706362,rev?*
G04 #@! TF.SameCoordinates,Original*
G04 #@! TF.FileFunction,Paste,Top*
G04 #@! TF.FilePolarity,Positive*
%FSLAX46Y46*%
G04 Gerber Fmt 4.6, Leading zero omitted, Abs format (unit mm)*
G04 Created by KiCad (PCBNEW (5.1.0)-1) date 2019-06-21 17:50:41*
%MOMM*%
%LPD*%
G04 APERTURE LIST*
%ADD10R,1.175000X1.900000*%
%ADD11R,2.375000X1.900000*%
%ADD12R,1.475000X2.100000*%
%ADD13R,0.450000X1.380000*%
%ADD14R,1.550000X0.600000*%
%ADD15C,0.100000*%
%ADD16C,0.590000*%
%ADD17C,1.150000*%
%ADD18R,1.000000X1.000000*%
%ADD19R,0.600000X0.300000*%
%ADD20R,0.300000X0.600000*%
%ADD21C,0.950000*%
%ADD22R,0.280000X0.850000*%
%ADD23R,0.850000X0.280000*%
%ADD24R,0.820000X0.820000*%
%ADD25R,1.400000X0.450000*%
%ADD26R,0.500000X0.500000*%
%ADD27R,2.500000X1.600000*%
%ADD28R,0.450000X0.850000*%
%ADD29C,0.400000*%
%ADD30C,0.600000*%
%ADD31R,1.600000X0.700000*%
%ADD32R,1.500000X0.550000*%
G04 APERTURE END LIST*
D10*
X9160000Y15246200D03*
X10840000Y15246200D03*
D11*
X7090000Y15246200D03*
X12910000Y15246200D03*
D12*
X7537500Y12946200D03*
X12462500Y12946200D03*
D13*
X8700000Y12586200D03*
X9350000Y12586200D03*
X10000000Y12586200D03*
X10650000Y12586200D03*
X11300000Y12586200D03*
D14*
X7400000Y-21395000D03*
X7400000Y-22665000D03*
X7400000Y-23935000D03*
X7400000Y-25205000D03*
X12800000Y-25205000D03*
X12800000Y-23935000D03*
X12800000Y-22665000D03*
X12800000Y-21395000D03*
D15*
G36*
X3436958Y-33090710D02*
G01*
X3451276Y-33092834D01*
X3465317Y-33096351D01*
X3478946Y-33101228D01*
X3492031Y-33107417D01*
X3504447Y-33114858D01*
X3516073Y-33123481D01*
X3526798Y-33133202D01*
X3536519Y-33143927D01*
X3545142Y-33155553D01*
X3552583Y-33167969D01*
X3558772Y-33181054D01*
X3563649Y-33194683D01*
X3567166Y-33208724D01*
X3569290Y-33223042D01*
X3570000Y-33237500D01*
X3570000Y-33532500D01*
X3569290Y-33546958D01*
X3567166Y-33561276D01*
X3563649Y-33575317D01*
X3558772Y-33588946D01*
X3552583Y-33602031D01*
X3545142Y-33614447D01*
X3536519Y-33626073D01*
X3526798Y-33636798D01*
X3516073Y-33646519D01*
X3504447Y-33655142D01*
X3492031Y-33662583D01*
X3478946Y-33668772D01*
X3465317Y-33673649D01*
X3451276Y-33677166D01*
X3436958Y-33679290D01*
X3422500Y-33680000D01*
X3077500Y-33680000D01*
X3063042Y-33679290D01*
X3048724Y-33677166D01*
X3034683Y-33673649D01*
X3021054Y-33668772D01*
X3007969Y-33662583D01*
X2995553Y-33655142D01*
X2983927Y-33646519D01*
X2973202Y-33636798D01*
X2963481Y-33626073D01*
X2954858Y-33614447D01*
X2947417Y-33602031D01*
X2941228Y-33588946D01*
X2936351Y-33575317D01*
X2932834Y-33561276D01*
X2930710Y-33546958D01*
X2930000Y-33532500D01*
X2930000Y-33237500D01*
X2930710Y-33223042D01*
X2932834Y-33208724D01*
X2936351Y-33194683D01*
X2941228Y-33181054D01*
X2947417Y-33167969D01*
X2954858Y-33155553D01*
X2963481Y-33143927D01*
X2973202Y-33133202D01*
X2983927Y-33123481D01*
X2995553Y-33114858D01*
X3007969Y-33107417D01*
X3021054Y-33101228D01*
X3034683Y-33096351D01*
X3048724Y-33092834D01*
X3063042Y-33090710D01*
X3077500Y-33090000D01*
X3422500Y-33090000D01*
X3436958Y-33090710D01*
X3436958Y-33090710D01*
G37*
D16*
X3250000Y-33385000D03*
D15*
G36*
X3436958Y-32120710D02*
G01*
X3451276Y-32122834D01*
X3465317Y-32126351D01*
X3478946Y-32131228D01*
X3492031Y-32137417D01*
X3504447Y-32144858D01*
X3516073Y-32153481D01*
X3526798Y-32163202D01*
X3536519Y-32173927D01*
X3545142Y-32185553D01*
X3552583Y-32197969D01*
X3558772Y-32211054D01*
X3563649Y-32224683D01*
X3567166Y-32238724D01*
X3569290Y-32253042D01*
X3570000Y-32267500D01*
X3570000Y-32562500D01*
X3569290Y-32576958D01*
X3567166Y-32591276D01*
X3563649Y-32605317D01*
X3558772Y-32618946D01*
X3552583Y-32632031D01*
X3545142Y-32644447D01*
X3536519Y-32656073D01*
X3526798Y-32666798D01*
X3516073Y-32676519D01*
X3504447Y-32685142D01*
X3492031Y-32692583D01*
X3478946Y-32698772D01*
X3465317Y-32703649D01*
X3451276Y-32707166D01*
X3436958Y-32709290D01*
X3422500Y-32710000D01*
X3077500Y-32710000D01*
X3063042Y-32709290D01*
X3048724Y-32707166D01*
X3034683Y-32703649D01*
X3021054Y-32698772D01*
X3007969Y-32692583D01*
X2995553Y-32685142D01*
X2983927Y-32676519D01*
X2973202Y-32666798D01*
X2963481Y-32656073D01*
X2954858Y-32644447D01*
X2947417Y-32632031D01*
X2941228Y-32618946D01*
X2936351Y-32605317D01*
X2932834Y-32591276D01*
X2930710Y-32576958D01*
X2930000Y-32562500D01*
X2930000Y-32267500D01*
X2930710Y-32253042D01*
X2932834Y-32238724D01*
X2936351Y-32224683D01*
X2941228Y-32211054D01*
X2947417Y-32197969D01*
X2954858Y-32185553D01*
X2963481Y-32173927D01*
X2973202Y-32163202D01*
X2983927Y-32153481D01*
X2995553Y-32144858D01*
X3007969Y-32137417D01*
X3021054Y-32131228D01*
X3034683Y-32126351D01*
X3048724Y-32122834D01*
X3063042Y-32120710D01*
X3077500Y-32120000D01*
X3422500Y-32120000D01*
X3436958Y-32120710D01*
X3436958Y-32120710D01*
G37*
D16*
X3250000Y-32415000D03*
D15*
G36*
X28736958Y3809290D02*
G01*
X28751276Y3807166D01*
X28765317Y3803649D01*
X28778946Y3798772D01*
X28792031Y3792583D01*
X28804447Y3785142D01*
X28816073Y3776519D01*
X28826798Y3766798D01*
X28836519Y3756073D01*
X28845142Y3744447D01*
X28852583Y3732031D01*
X28858772Y3718946D01*
X28863649Y3705317D01*
X28867166Y3691276D01*
X28869290Y3676958D01*
X28870000Y3662500D01*
X28870000Y3367500D01*
X28869290Y3353042D01*
X28867166Y3338724D01*
X28863649Y3324683D01*
X28858772Y3311054D01*
X28852583Y3297969D01*
X28845142Y3285553D01*
X28836519Y3273927D01*
X28826798Y3263202D01*
X28816073Y3253481D01*
X28804447Y3244858D01*
X28792031Y3237417D01*
X28778946Y3231228D01*
X28765317Y3226351D01*
X28751276Y3222834D01*
X28736958Y3220710D01*
X28722500Y3220000D01*
X28377500Y3220000D01*
X28363042Y3220710D01*
X28348724Y3222834D01*
X28334683Y3226351D01*
X28321054Y3231228D01*
X28307969Y3237417D01*
X28295553Y3244858D01*
X28283927Y3253481D01*
X28273202Y3263202D01*
X28263481Y3273927D01*
X28254858Y3285553D01*
X28247417Y3297969D01*
X28241228Y3311054D01*
X28236351Y3324683D01*
X28232834Y3338724D01*
X28230710Y3353042D01*
X28230000Y3367500D01*
X28230000Y3662500D01*
X28230710Y3676958D01*
X28232834Y3691276D01*
X28236351Y3705317D01*
X28241228Y3718946D01*
X28247417Y3732031D01*
X28254858Y3744447D01*
X28263481Y3756073D01*
X28273202Y3766798D01*
X28283927Y3776519D01*
X28295553Y3785142D01*
X28307969Y3792583D01*
X28321054Y3798772D01*
X28334683Y3803649D01*
X28348724Y3807166D01*
X28363042Y3809290D01*
X28377500Y3810000D01*
X28722500Y3810000D01*
X28736958Y3809290D01*
X28736958Y3809290D01*
G37*
D16*
X28550000Y3515000D03*
D15*
G36*
X28736958Y4779290D02*
G01*
X28751276Y4777166D01*
X28765317Y4773649D01*
X28778946Y4768772D01*
X28792031Y4762583D01*
X28804447Y4755142D01*
X28816073Y4746519D01*
X28826798Y4736798D01*
X28836519Y4726073D01*
X28845142Y4714447D01*
X28852583Y4702031D01*
X28858772Y4688946D01*
X28863649Y4675317D01*
X28867166Y4661276D01*
X28869290Y4646958D01*
X28870000Y4632500D01*
X28870000Y4337500D01*
X28869290Y4323042D01*
X28867166Y4308724D01*
X28863649Y4294683D01*
X28858772Y4281054D01*
X28852583Y4267969D01*
X28845142Y4255553D01*
X28836519Y4243927D01*
X28826798Y4233202D01*
X28816073Y4223481D01*
X28804447Y4214858D01*
X28792031Y4207417D01*
X28778946Y4201228D01*
X28765317Y4196351D01*
X28751276Y4192834D01*
X28736958Y4190710D01*
X28722500Y4190000D01*
X28377500Y4190000D01*
X28363042Y4190710D01*
X28348724Y4192834D01*
X28334683Y4196351D01*
X28321054Y4201228D01*
X28307969Y4207417D01*
X28295553Y4214858D01*
X28283927Y4223481D01*
X28273202Y4233202D01*
X28263481Y4243927D01*
X28254858Y4255553D01*
X28247417Y4267969D01*
X28241228Y4281054D01*
X28236351Y4294683D01*
X28232834Y4308724D01*
X28230710Y4323042D01*
X28230000Y4337500D01*
X28230000Y4632500D01*
X28230710Y4646958D01*
X28232834Y4661276D01*
X28236351Y4675317D01*
X28241228Y4688946D01*
X28247417Y4702031D01*
X28254858Y4714447D01*
X28263481Y4726073D01*
X28273202Y4736798D01*
X28283927Y4746519D01*
X28295553Y4755142D01*
X28307969Y4762583D01*
X28321054Y4768772D01*
X28334683Y4773649D01*
X28348724Y4777166D01*
X28363042Y4779290D01*
X28377500Y4780000D01*
X28722500Y4780000D01*
X28736958Y4779290D01*
X28736958Y4779290D01*
G37*
D16*
X28550000Y4485000D03*
D15*
G36*
X3336958Y-11890710D02*
G01*
X3351276Y-11892834D01*
X3365317Y-11896351D01*
X3378946Y-11901228D01*
X3392031Y-11907417D01*
X3404447Y-11914858D01*
X3416073Y-11923481D01*
X3426798Y-11933202D01*
X3436519Y-11943927D01*
X3445142Y-11955553D01*
X3452583Y-11967969D01*
X3458772Y-11981054D01*
X3463649Y-11994683D01*
X3467166Y-12008724D01*
X3469290Y-12023042D01*
X3470000Y-12037500D01*
X3470000Y-12332500D01*
X3469290Y-12346958D01*
X3467166Y-12361276D01*
X3463649Y-12375317D01*
X3458772Y-12388946D01*
X3452583Y-12402031D01*
X3445142Y-12414447D01*
X3436519Y-12426073D01*
X3426798Y-12436798D01*
X3416073Y-12446519D01*
X3404447Y-12455142D01*
X3392031Y-12462583D01*
X3378946Y-12468772D01*
X3365317Y-12473649D01*
X3351276Y-12477166D01*
X3336958Y-12479290D01*
X3322500Y-12480000D01*
X2977500Y-12480000D01*
X2963042Y-12479290D01*
X2948724Y-12477166D01*
X2934683Y-12473649D01*
X2921054Y-12468772D01*
X2907969Y-12462583D01*
X2895553Y-12455142D01*
X2883927Y-12446519D01*
X2873202Y-12436798D01*
X2863481Y-12426073D01*
X2854858Y-12414447D01*
X2847417Y-12402031D01*
X2841228Y-12388946D01*
X2836351Y-12375317D01*
X2832834Y-12361276D01*
X2830710Y-12346958D01*
X2830000Y-12332500D01*
X2830000Y-12037500D01*
X2830710Y-12023042D01*
X2832834Y-12008724D01*
X2836351Y-11994683D01*
X2841228Y-11981054D01*
X2847417Y-11967969D01*
X2854858Y-11955553D01*
X2863481Y-11943927D01*
X2873202Y-11933202D01*
X2883927Y-11923481D01*
X2895553Y-11914858D01*
X2907969Y-11907417D01*
X2921054Y-11901228D01*
X2934683Y-11896351D01*
X2948724Y-11892834D01*
X2963042Y-11890710D01*
X2977500Y-11890000D01*
X3322500Y-11890000D01*
X3336958Y-11890710D01*
X3336958Y-11890710D01*
G37*
D16*
X3150000Y-12185000D03*
D15*
G36*
X3336958Y-10920710D02*
G01*
X3351276Y-10922834D01*
X3365317Y-10926351D01*
X3378946Y-10931228D01*
X3392031Y-10937417D01*
X3404447Y-10944858D01*
X3416073Y-10953481D01*
X3426798Y-10963202D01*
X3436519Y-10973927D01*
X3445142Y-10985553D01*
X3452583Y-10997969D01*
X3458772Y-11011054D01*
X3463649Y-11024683D01*
X3467166Y-11038724D01*
X3469290Y-11053042D01*
X3470000Y-11067500D01*
X3470000Y-11362500D01*
X3469290Y-11376958D01*
X3467166Y-11391276D01*
X3463649Y-11405317D01*
X3458772Y-11418946D01*
X3452583Y-11432031D01*
X3445142Y-11444447D01*
X3436519Y-11456073D01*
X3426798Y-11466798D01*
X3416073Y-11476519D01*
X3404447Y-11485142D01*
X3392031Y-11492583D01*
X3378946Y-11498772D01*
X3365317Y-11503649D01*
X3351276Y-11507166D01*
X3336958Y-11509290D01*
X3322500Y-11510000D01*
X2977500Y-11510000D01*
X2963042Y-11509290D01*
X2948724Y-11507166D01*
X2934683Y-11503649D01*
X2921054Y-11498772D01*
X2907969Y-11492583D01*
X2895553Y-11485142D01*
X2883927Y-11476519D01*
X2873202Y-11466798D01*
X2863481Y-11456073D01*
X2854858Y-11444447D01*
X2847417Y-11432031D01*
X2841228Y-11418946D01*
X2836351Y-11405317D01*
X2832834Y-11391276D01*
X2830710Y-11376958D01*
X2830000Y-11362500D01*
X2830000Y-11067500D01*
X2830710Y-11053042D01*
X2832834Y-11038724D01*
X2836351Y-11024683D01*
X2841228Y-11011054D01*
X2847417Y-10997969D01*
X2854858Y-10985553D01*
X2863481Y-10973927D01*
X2873202Y-10963202D01*
X2883927Y-10953481D01*
X2895553Y-10944858D01*
X2907969Y-10937417D01*
X2921054Y-10931228D01*
X2934683Y-10926351D01*
X2948724Y-10922834D01*
X2963042Y-10920710D01*
X2977500Y-10920000D01*
X3322500Y-10920000D01*
X3336958Y-10920710D01*
X3336958Y-10920710D01*
G37*
D16*
X3150000Y-11215000D03*
D15*
G36*
X9086958Y-11940710D02*
G01*
X9101276Y-11942834D01*
X9115317Y-11946351D01*
X9128946Y-11951228D01*
X9142031Y-11957417D01*
X9154447Y-11964858D01*
X9166073Y-11973481D01*
X9176798Y-11983202D01*
X9186519Y-11993927D01*
X9195142Y-12005553D01*
X9202583Y-12017969D01*
X9208772Y-12031054D01*
X9213649Y-12044683D01*
X9217166Y-12058724D01*
X9219290Y-12073042D01*
X9220000Y-12087500D01*
X9220000Y-12382500D01*
X9219290Y-12396958D01*
X9217166Y-12411276D01*
X9213649Y-12425317D01*
X9208772Y-12438946D01*
X9202583Y-12452031D01*
X9195142Y-12464447D01*
X9186519Y-12476073D01*
X9176798Y-12486798D01*
X9166073Y-12496519D01*
X9154447Y-12505142D01*
X9142031Y-12512583D01*
X9128946Y-12518772D01*
X9115317Y-12523649D01*
X9101276Y-12527166D01*
X9086958Y-12529290D01*
X9072500Y-12530000D01*
X8727500Y-12530000D01*
X8713042Y-12529290D01*
X8698724Y-12527166D01*
X8684683Y-12523649D01*
X8671054Y-12518772D01*
X8657969Y-12512583D01*
X8645553Y-12505142D01*
X8633927Y-12496519D01*
X8623202Y-12486798D01*
X8613481Y-12476073D01*
X8604858Y-12464447D01*
X8597417Y-12452031D01*
X8591228Y-12438946D01*
X8586351Y-12425317D01*
X8582834Y-12411276D01*
X8580710Y-12396958D01*
X8580000Y-12382500D01*
X8580000Y-12087500D01*
X8580710Y-12073042D01*
X8582834Y-12058724D01*
X8586351Y-12044683D01*
X8591228Y-12031054D01*
X8597417Y-12017969D01*
X8604858Y-12005553D01*
X8613481Y-11993927D01*
X8623202Y-11983202D01*
X8633927Y-11973481D01*
X8645553Y-11964858D01*
X8657969Y-11957417D01*
X8671054Y-11951228D01*
X8684683Y-11946351D01*
X8698724Y-11942834D01*
X8713042Y-11940710D01*
X8727500Y-11940000D01*
X9072500Y-11940000D01*
X9086958Y-11940710D01*
X9086958Y-11940710D01*
G37*
D16*
X8900000Y-12235000D03*
D15*
G36*
X9086958Y-10970710D02*
G01*
X9101276Y-10972834D01*
X9115317Y-10976351D01*
X9128946Y-10981228D01*
X9142031Y-10987417D01*
X9154447Y-10994858D01*
X9166073Y-11003481D01*
X9176798Y-11013202D01*
X9186519Y-11023927D01*
X9195142Y-11035553D01*
X9202583Y-11047969D01*
X9208772Y-11061054D01*
X9213649Y-11074683D01*
X9217166Y-11088724D01*
X9219290Y-11103042D01*
X9220000Y-11117500D01*
X9220000Y-11412500D01*
X9219290Y-11426958D01*
X9217166Y-11441276D01*
X9213649Y-11455317D01*
X9208772Y-11468946D01*
X9202583Y-11482031D01*
X9195142Y-11494447D01*
X9186519Y-11506073D01*
X9176798Y-11516798D01*
X9166073Y-11526519D01*
X9154447Y-11535142D01*
X9142031Y-11542583D01*
X9128946Y-11548772D01*
X9115317Y-11553649D01*
X9101276Y-11557166D01*
X9086958Y-11559290D01*
X9072500Y-11560000D01*
X8727500Y-11560000D01*
X8713042Y-11559290D01*
X8698724Y-11557166D01*
X8684683Y-11553649D01*
X8671054Y-11548772D01*
X8657969Y-11542583D01*
X8645553Y-11535142D01*
X8633927Y-11526519D01*
X8623202Y-11516798D01*
X8613481Y-11506073D01*
X8604858Y-11494447D01*
X8597417Y-11482031D01*
X8591228Y-11468946D01*
X8586351Y-11455317D01*
X8582834Y-11441276D01*
X8580710Y-11426958D01*
X8580000Y-11412500D01*
X8580000Y-11117500D01*
X8580710Y-11103042D01*
X8582834Y-11088724D01*
X8586351Y-11074683D01*
X8591228Y-11061054D01*
X8597417Y-11047969D01*
X8604858Y-11035553D01*
X8613481Y-11023927D01*
X8623202Y-11013202D01*
X8633927Y-11003481D01*
X8645553Y-10994858D01*
X8657969Y-10987417D01*
X8671054Y-10981228D01*
X8684683Y-10976351D01*
X8698724Y-10972834D01*
X8713042Y-10970710D01*
X8727500Y-10970000D01*
X9072500Y-10970000D01*
X9086958Y-10970710D01*
X9086958Y-10970710D01*
G37*
D16*
X8900000Y-11265000D03*
D15*
G36*
X30236958Y3809290D02*
G01*
X30251276Y3807166D01*
X30265317Y3803649D01*
X30278946Y3798772D01*
X30292031Y3792583D01*
X30304447Y3785142D01*
X30316073Y3776519D01*
X30326798Y3766798D01*
X30336519Y3756073D01*
X30345142Y3744447D01*
X30352583Y3732031D01*
X30358772Y3718946D01*
X30363649Y3705317D01*
X30367166Y3691276D01*
X30369290Y3676958D01*
X30370000Y3662500D01*
X30370000Y3367500D01*
X30369290Y3353042D01*
X30367166Y3338724D01*
X30363649Y3324683D01*
X30358772Y3311054D01*
X30352583Y3297969D01*
X30345142Y3285553D01*
X30336519Y3273927D01*
X30326798Y3263202D01*
X30316073Y3253481D01*
X30304447Y3244858D01*
X30292031Y3237417D01*
X30278946Y3231228D01*
X30265317Y3226351D01*
X30251276Y3222834D01*
X30236958Y3220710D01*
X30222500Y3220000D01*
X29877500Y3220000D01*
X29863042Y3220710D01*
X29848724Y3222834D01*
X29834683Y3226351D01*
X29821054Y3231228D01*
X29807969Y3237417D01*
X29795553Y3244858D01*
X29783927Y3253481D01*
X29773202Y3263202D01*
X29763481Y3273927D01*
X29754858Y3285553D01*
X29747417Y3297969D01*
X29741228Y3311054D01*
X29736351Y3324683D01*
X29732834Y3338724D01*
X29730710Y3353042D01*
X29730000Y3367500D01*
X29730000Y3662500D01*
X29730710Y3676958D01*
X29732834Y3691276D01*
X29736351Y3705317D01*
X29741228Y3718946D01*
X29747417Y3732031D01*
X29754858Y3744447D01*
X29763481Y3756073D01*
X29773202Y3766798D01*
X29783927Y3776519D01*
X29795553Y3785142D01*
X29807969Y3792583D01*
X29821054Y3798772D01*
X29834683Y3803649D01*
X29848724Y3807166D01*
X29863042Y3809290D01*
X29877500Y3810000D01*
X30222500Y3810000D01*
X30236958Y3809290D01*
X30236958Y3809290D01*
G37*
D16*
X30050000Y3515000D03*
D15*
G36*
X30236958Y4779290D02*
G01*
X30251276Y4777166D01*
X30265317Y4773649D01*
X30278946Y4768772D01*
X30292031Y4762583D01*
X30304447Y4755142D01*
X30316073Y4746519D01*
X30326798Y4736798D01*
X30336519Y4726073D01*
X30345142Y4714447D01*
X30352583Y4702031D01*
X30358772Y4688946D01*
X30363649Y4675317D01*
X30367166Y4661276D01*
X30369290Y4646958D01*
X30370000Y4632500D01*
X30370000Y4337500D01*
X30369290Y4323042D01*
X30367166Y4308724D01*
X30363649Y4294683D01*
X30358772Y4281054D01*
X30352583Y4267969D01*
X30345142Y4255553D01*
X30336519Y4243927D01*
X30326798Y4233202D01*
X30316073Y4223481D01*
X30304447Y4214858D01*
X30292031Y4207417D01*
X30278946Y4201228D01*
X30265317Y4196351D01*
X30251276Y4192834D01*
X30236958Y4190710D01*
X30222500Y4190000D01*
X29877500Y4190000D01*
X29863042Y4190710D01*
X29848724Y4192834D01*
X29834683Y4196351D01*
X29821054Y4201228D01*
X29807969Y4207417D01*
X29795553Y4214858D01*
X29783927Y4223481D01*
X29773202Y4233202D01*
X29763481Y4243927D01*
X29754858Y4255553D01*
X29747417Y4267969D01*
X29741228Y4281054D01*
X29736351Y4294683D01*
X29732834Y4308724D01*
X29730710Y4323042D01*
X29730000Y4337500D01*
X29730000Y4632500D01*
X29730710Y4646958D01*
X29732834Y4661276D01*
X29736351Y4675317D01*
X29741228Y4688946D01*
X29747417Y4702031D01*
X29754858Y4714447D01*
X29763481Y4726073D01*
X29773202Y4736798D01*
X29783927Y4746519D01*
X29795553Y4755142D01*
X29807969Y4762583D01*
X29821054Y4768772D01*
X29834683Y4773649D01*
X29848724Y4777166D01*
X29863042Y4779290D01*
X29877500Y4780000D01*
X30222500Y4780000D01*
X30236958Y4779290D01*
X30236958Y4779290D01*
G37*
D16*
X30050000Y4485000D03*
D15*
G36*
X17695705Y-15969004D02*
G01*
X17719973Y-15972604D01*
X17743772Y-15978565D01*
X17766871Y-15986830D01*
X17789050Y-15997320D01*
X17810093Y-16009932D01*
X17829799Y-16024547D01*
X17847977Y-16041023D01*
X17864453Y-16059201D01*
X17879068Y-16078907D01*
X17891680Y-16099950D01*
X17902170Y-16122129D01*
X17910435Y-16145228D01*
X17916396Y-16169027D01*
X17919996Y-16193295D01*
X17921200Y-16217799D01*
X17921200Y-16867801D01*
X17919996Y-16892305D01*
X17916396Y-16916573D01*
X17910435Y-16940372D01*
X17902170Y-16963471D01*
X17891680Y-16985650D01*
X17879068Y-17006693D01*
X17864453Y-17026399D01*
X17847977Y-17044577D01*
X17829799Y-17061053D01*
X17810093Y-17075668D01*
X17789050Y-17088280D01*
X17766871Y-17098770D01*
X17743772Y-17107035D01*
X17719973Y-17112996D01*
X17695705Y-17116596D01*
X17671201Y-17117800D01*
X16771199Y-17117800D01*
X16746695Y-17116596D01*
X16722427Y-17112996D01*
X16698628Y-17107035D01*
X16675529Y-17098770D01*
X16653350Y-17088280D01*
X16632307Y-17075668D01*
X16612601Y-17061053D01*
X16594423Y-17044577D01*
X16577947Y-17026399D01*
X16563332Y-17006693D01*
X16550720Y-16985650D01*
X16540230Y-16963471D01*
X16531965Y-16940372D01*
X16526004Y-16916573D01*
X16522404Y-16892305D01*
X16521200Y-16867801D01*
X16521200Y-16217799D01*
X16522404Y-16193295D01*
X16526004Y-16169027D01*
X16531965Y-16145228D01*
X16540230Y-16122129D01*
X16550720Y-16099950D01*
X16563332Y-16078907D01*
X16577947Y-16059201D01*
X16594423Y-16041023D01*
X16612601Y-16024547D01*
X16632307Y-16009932D01*
X16653350Y-15997320D01*
X16675529Y-15986830D01*
X16698628Y-15978565D01*
X16722427Y-15972604D01*
X16746695Y-15969004D01*
X16771199Y-15967800D01*
X17671201Y-15967800D01*
X17695705Y-15969004D01*
X17695705Y-15969004D01*
G37*
D17*
X17221200Y-16542800D03*
D15*
G36*
X17695705Y-18019004D02*
G01*
X17719973Y-18022604D01*
X17743772Y-18028565D01*
X17766871Y-18036830D01*
X17789050Y-18047320D01*
X17810093Y-18059932D01*
X17829799Y-18074547D01*
X17847977Y-18091023D01*
X17864453Y-18109201D01*
X17879068Y-18128907D01*
X17891680Y-18149950D01*
X17902170Y-18172129D01*
X17910435Y-18195228D01*
X17916396Y-18219027D01*
X17919996Y-18243295D01*
X17921200Y-18267799D01*
X17921200Y-18917801D01*
X17919996Y-18942305D01*
X17916396Y-18966573D01*
X17910435Y-18990372D01*
X17902170Y-19013471D01*
X17891680Y-19035650D01*
X17879068Y-19056693D01*
X17864453Y-19076399D01*
X17847977Y-19094577D01*
X17829799Y-19111053D01*
X17810093Y-19125668D01*
X17789050Y-19138280D01*
X17766871Y-19148770D01*
X17743772Y-19157035D01*
X17719973Y-19162996D01*
X17695705Y-19166596D01*
X17671201Y-19167800D01*
X16771199Y-19167800D01*
X16746695Y-19166596D01*
X16722427Y-19162996D01*
X16698628Y-19157035D01*
X16675529Y-19148770D01*
X16653350Y-19138280D01*
X16632307Y-19125668D01*
X16612601Y-19111053D01*
X16594423Y-19094577D01*
X16577947Y-19076399D01*
X16563332Y-19056693D01*
X16550720Y-19035650D01*
X16540230Y-19013471D01*
X16531965Y-18990372D01*
X16526004Y-18966573D01*
X16522404Y-18942305D01*
X16521200Y-18917801D01*
X16521200Y-18267799D01*
X16522404Y-18243295D01*
X16526004Y-18219027D01*
X16531965Y-18195228D01*
X16540230Y-18172129D01*
X16550720Y-18149950D01*
X16563332Y-18128907D01*
X16577947Y-18109201D01*
X16594423Y-18091023D01*
X16612601Y-18074547D01*
X16632307Y-18059932D01*
X16653350Y-18047320D01*
X16675529Y-18036830D01*
X16698628Y-18028565D01*
X16722427Y-18022604D01*
X16746695Y-18019004D01*
X16771199Y-18017800D01*
X17671201Y-18017800D01*
X17695705Y-18019004D01*
X17695705Y-18019004D01*
G37*
D17*
X17221200Y-18592800D03*
D15*
G36*
X8961958Y10069290D02*
G01*
X8976276Y10067166D01*
X8990317Y10063649D01*
X9003946Y10058772D01*
X9017031Y10052583D01*
X9029447Y10045142D01*
X9041073Y10036519D01*
X9051798Y10026798D01*
X9061519Y10016073D01*
X9070142Y10004447D01*
X9077583Y9992031D01*
X9083772Y9978946D01*
X9088649Y9965317D01*
X9092166Y9951276D01*
X9094290Y9936958D01*
X9095000Y9922500D01*
X9095000Y9577500D01*
X9094290Y9563042D01*
X9092166Y9548724D01*
X9088649Y9534683D01*
X9083772Y9521054D01*
X9077583Y9507969D01*
X9070142Y9495553D01*
X9061519Y9483927D01*
X9051798Y9473202D01*
X9041073Y9463481D01*
X9029447Y9454858D01*
X9017031Y9447417D01*
X9003946Y9441228D01*
X8990317Y9436351D01*
X8976276Y9432834D01*
X8961958Y9430710D01*
X8947500Y9430000D01*
X8652500Y9430000D01*
X8638042Y9430710D01*
X8623724Y9432834D01*
X8609683Y9436351D01*
X8596054Y9441228D01*
X8582969Y9447417D01*
X8570553Y9454858D01*
X8558927Y9463481D01*
X8548202Y9473202D01*
X8538481Y9483927D01*
X8529858Y9495553D01*
X8522417Y9507969D01*
X8516228Y9521054D01*
X8511351Y9534683D01*
X8507834Y9548724D01*
X8505710Y9563042D01*
X8505000Y9577500D01*
X8505000Y9922500D01*
X8505710Y9936958D01*
X8507834Y9951276D01*
X8511351Y9965317D01*
X8516228Y9978946D01*
X8522417Y9992031D01*
X8529858Y10004447D01*
X8538481Y10016073D01*
X8548202Y10026798D01*
X8558927Y10036519D01*
X8570553Y10045142D01*
X8582969Y10052583D01*
X8596054Y10058772D01*
X8609683Y10063649D01*
X8623724Y10067166D01*
X8638042Y10069290D01*
X8652500Y10070000D01*
X8947500Y10070000D01*
X8961958Y10069290D01*
X8961958Y10069290D01*
G37*
D16*
X8800000Y9750000D03*
D15*
G36*
X7991958Y10069290D02*
G01*
X8006276Y10067166D01*
X8020317Y10063649D01*
X8033946Y10058772D01*
X8047031Y10052583D01*
X8059447Y10045142D01*
X8071073Y10036519D01*
X8081798Y10026798D01*
X8091519Y10016073D01*
X8100142Y10004447D01*
X8107583Y9992031D01*
X8113772Y9978946D01*
X8118649Y9965317D01*
X8122166Y9951276D01*
X8124290Y9936958D01*
X8125000Y9922500D01*
X8125000Y9577500D01*
X8124290Y9563042D01*
X8122166Y9548724D01*
X8118649Y9534683D01*
X8113772Y9521054D01*
X8107583Y9507969D01*
X8100142Y9495553D01*
X8091519Y9483927D01*
X8081798Y9473202D01*
X8071073Y9463481D01*
X8059447Y9454858D01*
X8047031Y9447417D01*
X8033946Y9441228D01*
X8020317Y9436351D01*
X8006276Y9432834D01*
X7991958Y9430710D01*
X7977500Y9430000D01*
X7682500Y9430000D01*
X7668042Y9430710D01*
X7653724Y9432834D01*
X7639683Y9436351D01*
X7626054Y9441228D01*
X7612969Y9447417D01*
X7600553Y9454858D01*
X7588927Y9463481D01*
X7578202Y9473202D01*
X7568481Y9483927D01*
X7559858Y9495553D01*
X7552417Y9507969D01*
X7546228Y9521054D01*
X7541351Y9534683D01*
X7537834Y9548724D01*
X7535710Y9563042D01*
X7535000Y9577500D01*
X7535000Y9922500D01*
X7535710Y9936958D01*
X7537834Y9951276D01*
X7541351Y9965317D01*
X7546228Y9978946D01*
X7552417Y9992031D01*
X7559858Y10004447D01*
X7568481Y10016073D01*
X7578202Y10026798D01*
X7588927Y10036519D01*
X7600553Y10045142D01*
X7612969Y10052583D01*
X7626054Y10058772D01*
X7639683Y10063649D01*
X7653724Y10067166D01*
X7668042Y10069290D01*
X7682500Y10070000D01*
X7977500Y10070000D01*
X7991958Y10069290D01*
X7991958Y10069290D01*
G37*
D16*
X7830000Y9750000D03*
D15*
G36*
X11846958Y10019290D02*
G01*
X11861276Y10017166D01*
X11875317Y10013649D01*
X11888946Y10008772D01*
X11902031Y10002583D01*
X11914447Y9995142D01*
X11926073Y9986519D01*
X11936798Y9976798D01*
X11946519Y9966073D01*
X11955142Y9954447D01*
X11962583Y9942031D01*
X11968772Y9928946D01*
X11973649Y9915317D01*
X11977166Y9901276D01*
X11979290Y9886958D01*
X11980000Y9872500D01*
X11980000Y9527500D01*
X11979290Y9513042D01*
X11977166Y9498724D01*
X11973649Y9484683D01*
X11968772Y9471054D01*
X11962583Y9457969D01*
X11955142Y9445553D01*
X11946519Y9433927D01*
X11936798Y9423202D01*
X11926073Y9413481D01*
X11914447Y9404858D01*
X11902031Y9397417D01*
X11888946Y9391228D01*
X11875317Y9386351D01*
X11861276Y9382834D01*
X11846958Y9380710D01*
X11832500Y9380000D01*
X11537500Y9380000D01*
X11523042Y9380710D01*
X11508724Y9382834D01*
X11494683Y9386351D01*
X11481054Y9391228D01*
X11467969Y9397417D01*
X11455553Y9404858D01*
X11443927Y9413481D01*
X11433202Y9423202D01*
X11423481Y9433927D01*
X11414858Y9445553D01*
X11407417Y9457969D01*
X11401228Y9471054D01*
X11396351Y9484683D01*
X11392834Y9498724D01*
X11390710Y9513042D01*
X11390000Y9527500D01*
X11390000Y9872500D01*
X11390710Y9886958D01*
X11392834Y9901276D01*
X11396351Y9915317D01*
X11401228Y9928946D01*
X11407417Y9942031D01*
X11414858Y9954447D01*
X11423481Y9966073D01*
X11433202Y9976798D01*
X11443927Y9986519D01*
X11455553Y9995142D01*
X11467969Y10002583D01*
X11481054Y10008772D01*
X11494683Y10013649D01*
X11508724Y10017166D01*
X11523042Y10019290D01*
X11537500Y10020000D01*
X11832500Y10020000D01*
X11846958Y10019290D01*
X11846958Y10019290D01*
G37*
D16*
X11685000Y9700000D03*
D15*
G36*
X10876958Y10019290D02*
G01*
X10891276Y10017166D01*
X10905317Y10013649D01*
X10918946Y10008772D01*
X10932031Y10002583D01*
X10944447Y9995142D01*
X10956073Y9986519D01*
X10966798Y9976798D01*
X10976519Y9966073D01*
X10985142Y9954447D01*
X10992583Y9942031D01*
X10998772Y9928946D01*
X11003649Y9915317D01*
X11007166Y9901276D01*
X11009290Y9886958D01*
X11010000Y9872500D01*
X11010000Y9527500D01*
X11009290Y9513042D01*
X11007166Y9498724D01*
X11003649Y9484683D01*
X10998772Y9471054D01*
X10992583Y9457969D01*
X10985142Y9445553D01*
X10976519Y9433927D01*
X10966798Y9423202D01*
X10956073Y9413481D01*
X10944447Y9404858D01*
X10932031Y9397417D01*
X10918946Y9391228D01*
X10905317Y9386351D01*
X10891276Y9382834D01*
X10876958Y9380710D01*
X10862500Y9380000D01*
X10567500Y9380000D01*
X10553042Y9380710D01*
X10538724Y9382834D01*
X10524683Y9386351D01*
X10511054Y9391228D01*
X10497969Y9397417D01*
X10485553Y9404858D01*
X10473927Y9413481D01*
X10463202Y9423202D01*
X10453481Y9433927D01*
X10444858Y9445553D01*
X10437417Y9457969D01*
X10431228Y9471054D01*
X10426351Y9484683D01*
X10422834Y9498724D01*
X10420710Y9513042D01*
X10420000Y9527500D01*
X10420000Y9872500D01*
X10420710Y9886958D01*
X10422834Y9901276D01*
X10426351Y9915317D01*
X10431228Y9928946D01*
X10437417Y9942031D01*
X10444858Y9954447D01*
X10453481Y9966073D01*
X10463202Y9976798D01*
X10473927Y9986519D01*
X10485553Y9995142D01*
X10497969Y10002583D01*
X10511054Y10008772D01*
X10524683Y10013649D01*
X10538724Y10017166D01*
X10553042Y10019290D01*
X10567500Y10020000D01*
X10862500Y10020000D01*
X10876958Y10019290D01*
X10876958Y10019290D01*
G37*
D16*
X10715000Y9700000D03*
D15*
G36*
X-6613042Y-23135710D02*
G01*
X-6598724Y-23137834D01*
X-6584683Y-23141351D01*
X-6571054Y-23146228D01*
X-6557969Y-23152417D01*
X-6545553Y-23159858D01*
X-6533927Y-23168481D01*
X-6523202Y-23178202D01*
X-6513481Y-23188927D01*
X-6504858Y-23200553D01*
X-6497417Y-23212969D01*
X-6491228Y-23226054D01*
X-6486351Y-23239683D01*
X-6482834Y-23253724D01*
X-6480710Y-23268042D01*
X-6480000Y-23282500D01*
X-6480000Y-23577500D01*
X-6480710Y-23591958D01*
X-6482834Y-23606276D01*
X-6486351Y-23620317D01*
X-6491228Y-23633946D01*
X-6497417Y-23647031D01*
X-6504858Y-23659447D01*
X-6513481Y-23671073D01*
X-6523202Y-23681798D01*
X-6533927Y-23691519D01*
X-6545553Y-23700142D01*
X-6557969Y-23707583D01*
X-6571054Y-23713772D01*
X-6584683Y-23718649D01*
X-6598724Y-23722166D01*
X-6613042Y-23724290D01*
X-6627500Y-23725000D01*
X-6972500Y-23725000D01*
X-6986958Y-23724290D01*
X-7001276Y-23722166D01*
X-7015317Y-23718649D01*
X-7028946Y-23713772D01*
X-7042031Y-23707583D01*
X-7054447Y-23700142D01*
X-7066073Y-23691519D01*
X-7076798Y-23681798D01*
X-7086519Y-23671073D01*
X-7095142Y-23659447D01*
X-7102583Y-23647031D01*
X-7108772Y-23633946D01*
X-7113649Y-23620317D01*
X-7117166Y-23606276D01*
X-7119290Y-23591958D01*
X-7120000Y-23577500D01*
X-7120000Y-23282500D01*
X-7119290Y-23268042D01*
X-7117166Y-23253724D01*
X-7113649Y-23239683D01*
X-7108772Y-23226054D01*
X-7102583Y-23212969D01*
X-7095142Y-23200553D01*
X-7086519Y-23188927D01*
X-7076798Y-23178202D01*
X-7066073Y-23168481D01*
X-7054447Y-23159858D01*
X-7042031Y-23152417D01*
X-7028946Y-23146228D01*
X-7015317Y-23141351D01*
X-7001276Y-23137834D01*
X-6986958Y-23135710D01*
X-6972500Y-23135000D01*
X-6627500Y-23135000D01*
X-6613042Y-23135710D01*
X-6613042Y-23135710D01*
G37*
D16*
X-6800000Y-23430000D03*
D15*
G36*
X-6613042Y-24105710D02*
G01*
X-6598724Y-24107834D01*
X-6584683Y-24111351D01*
X-6571054Y-24116228D01*
X-6557969Y-24122417D01*
X-6545553Y-24129858D01*
X-6533927Y-24138481D01*
X-6523202Y-24148202D01*
X-6513481Y-24158927D01*
X-6504858Y-24170553D01*
X-6497417Y-24182969D01*
X-6491228Y-24196054D01*
X-6486351Y-24209683D01*
X-6482834Y-24223724D01*
X-6480710Y-24238042D01*
X-6480000Y-24252500D01*
X-6480000Y-24547500D01*
X-6480710Y-24561958D01*
X-6482834Y-24576276D01*
X-6486351Y-24590317D01*
X-6491228Y-24603946D01*
X-6497417Y-24617031D01*
X-6504858Y-24629447D01*
X-6513481Y-24641073D01*
X-6523202Y-24651798D01*
X-6533927Y-24661519D01*
X-6545553Y-24670142D01*
X-6557969Y-24677583D01*
X-6571054Y-24683772D01*
X-6584683Y-24688649D01*
X-6598724Y-24692166D01*
X-6613042Y-24694290D01*
X-6627500Y-24695000D01*
X-6972500Y-24695000D01*
X-6986958Y-24694290D01*
X-7001276Y-24692166D01*
X-7015317Y-24688649D01*
X-7028946Y-24683772D01*
X-7042031Y-24677583D01*
X-7054447Y-24670142D01*
X-7066073Y-24661519D01*
X-7076798Y-24651798D01*
X-7086519Y-24641073D01*
X-7095142Y-24629447D01*
X-7102583Y-24617031D01*
X-7108772Y-24603946D01*
X-7113649Y-24590317D01*
X-7117166Y-24576276D01*
X-7119290Y-24561958D01*
X-7120000Y-24547500D01*
X-7120000Y-24252500D01*
X-7119290Y-24238042D01*
X-7117166Y-24223724D01*
X-7113649Y-24209683D01*
X-7108772Y-24196054D01*
X-7102583Y-24182969D01*
X-7095142Y-24170553D01*
X-7086519Y-24158927D01*
X-7076798Y-24148202D01*
X-7066073Y-24138481D01*
X-7054447Y-24129858D01*
X-7042031Y-24122417D01*
X-7028946Y-24116228D01*
X-7015317Y-24111351D01*
X-7001276Y-24107834D01*
X-6986958Y-24105710D01*
X-6972500Y-24105000D01*
X-6627500Y-24105000D01*
X-6613042Y-24105710D01*
X-6613042Y-24105710D01*
G37*
D16*
X-6800000Y-24400000D03*
D15*
G36*
X14711958Y-22065710D02*
G01*
X14726276Y-22067834D01*
X14740317Y-22071351D01*
X14753946Y-22076228D01*
X14767031Y-22082417D01*
X14779447Y-22089858D01*
X14791073Y-22098481D01*
X14801798Y-22108202D01*
X14811519Y-22118927D01*
X14820142Y-22130553D01*
X14827583Y-22142969D01*
X14833772Y-22156054D01*
X14838649Y-22169683D01*
X14842166Y-22183724D01*
X14844290Y-22198042D01*
X14845000Y-22212500D01*
X14845000Y-22507500D01*
X14844290Y-22521958D01*
X14842166Y-22536276D01*
X14838649Y-22550317D01*
X14833772Y-22563946D01*
X14827583Y-22577031D01*
X14820142Y-22589447D01*
X14811519Y-22601073D01*
X14801798Y-22611798D01*
X14791073Y-22621519D01*
X14779447Y-22630142D01*
X14767031Y-22637583D01*
X14753946Y-22643772D01*
X14740317Y-22648649D01*
X14726276Y-22652166D01*
X14711958Y-22654290D01*
X14697500Y-22655000D01*
X14352500Y-22655000D01*
X14338042Y-22654290D01*
X14323724Y-22652166D01*
X14309683Y-22648649D01*
X14296054Y-22643772D01*
X14282969Y-22637583D01*
X14270553Y-22630142D01*
X14258927Y-22621519D01*
X14248202Y-22611798D01*
X14238481Y-22601073D01*
X14229858Y-22589447D01*
X14222417Y-22577031D01*
X14216228Y-22563946D01*
X14211351Y-22550317D01*
X14207834Y-22536276D01*
X14205710Y-22521958D01*
X14205000Y-22507500D01*
X14205000Y-22212500D01*
X14205710Y-22198042D01*
X14207834Y-22183724D01*
X14211351Y-22169683D01*
X14216228Y-22156054D01*
X14222417Y-22142969D01*
X14229858Y-22130553D01*
X14238481Y-22118927D01*
X14248202Y-22108202D01*
X14258927Y-22098481D01*
X14270553Y-22089858D01*
X14282969Y-22082417D01*
X14296054Y-22076228D01*
X14309683Y-22071351D01*
X14323724Y-22067834D01*
X14338042Y-22065710D01*
X14352500Y-22065000D01*
X14697500Y-22065000D01*
X14711958Y-22065710D01*
X14711958Y-22065710D01*
G37*
D16*
X14525000Y-22360000D03*
D15*
G36*
X14711958Y-21095710D02*
G01*
X14726276Y-21097834D01*
X14740317Y-21101351D01*
X14753946Y-21106228D01*
X14767031Y-21112417D01*
X14779447Y-21119858D01*
X14791073Y-21128481D01*
X14801798Y-21138202D01*
X14811519Y-21148927D01*
X14820142Y-21160553D01*
X14827583Y-21172969D01*
X14833772Y-21186054D01*
X14838649Y-21199683D01*
X14842166Y-21213724D01*
X14844290Y-21228042D01*
X14845000Y-21242500D01*
X14845000Y-21537500D01*
X14844290Y-21551958D01*
X14842166Y-21566276D01*
X14838649Y-21580317D01*
X14833772Y-21593946D01*
X14827583Y-21607031D01*
X14820142Y-21619447D01*
X14811519Y-21631073D01*
X14801798Y-21641798D01*
X14791073Y-21651519D01*
X14779447Y-21660142D01*
X14767031Y-21667583D01*
X14753946Y-21673772D01*
X14740317Y-21678649D01*
X14726276Y-21682166D01*
X14711958Y-21684290D01*
X14697500Y-21685000D01*
X14352500Y-21685000D01*
X14338042Y-21684290D01*
X14323724Y-21682166D01*
X14309683Y-21678649D01*
X14296054Y-21673772D01*
X14282969Y-21667583D01*
X14270553Y-21660142D01*
X14258927Y-21651519D01*
X14248202Y-21641798D01*
X14238481Y-21631073D01*
X14229858Y-21619447D01*
X14222417Y-21607031D01*
X14216228Y-21593946D01*
X14211351Y-21580317D01*
X14207834Y-21566276D01*
X14205710Y-21551958D01*
X14205000Y-21537500D01*
X14205000Y-21242500D01*
X14205710Y-21228042D01*
X14207834Y-21213724D01*
X14211351Y-21199683D01*
X14216228Y-21186054D01*
X14222417Y-21172969D01*
X14229858Y-21160553D01*
X14238481Y-21148927D01*
X14248202Y-21138202D01*
X14258927Y-21128481D01*
X14270553Y-21119858D01*
X14282969Y-21112417D01*
X14296054Y-21106228D01*
X14309683Y-21101351D01*
X14323724Y-21097834D01*
X14338042Y-21095710D01*
X14352500Y-21095000D01*
X14697500Y-21095000D01*
X14711958Y-21095710D01*
X14711958Y-21095710D01*
G37*
D16*
X14525000Y-21390000D03*
D15*
G36*
X-11013042Y-23990710D02*
G01*
X-10998724Y-23992834D01*
X-10984683Y-23996351D01*
X-10971054Y-24001228D01*
X-10957969Y-24007417D01*
X-10945553Y-24014858D01*
X-10933927Y-24023481D01*
X-10923202Y-24033202D01*
X-10913481Y-24043927D01*
X-10904858Y-24055553D01*
X-10897417Y-24067969D01*
X-10891228Y-24081054D01*
X-10886351Y-24094683D01*
X-10882834Y-24108724D01*
X-10880710Y-24123042D01*
X-10880000Y-24137500D01*
X-10880000Y-24432500D01*
X-10880710Y-24446958D01*
X-10882834Y-24461276D01*
X-10886351Y-24475317D01*
X-10891228Y-24488946D01*
X-10897417Y-24502031D01*
X-10904858Y-24514447D01*
X-10913481Y-24526073D01*
X-10923202Y-24536798D01*
X-10933927Y-24546519D01*
X-10945553Y-24555142D01*
X-10957969Y-24562583D01*
X-10971054Y-24568772D01*
X-10984683Y-24573649D01*
X-10998724Y-24577166D01*
X-11013042Y-24579290D01*
X-11027500Y-24580000D01*
X-11372500Y-24580000D01*
X-11386958Y-24579290D01*
X-11401276Y-24577166D01*
X-11415317Y-24573649D01*
X-11428946Y-24568772D01*
X-11442031Y-24562583D01*
X-11454447Y-24555142D01*
X-11466073Y-24546519D01*
X-11476798Y-24536798D01*
X-11486519Y-24526073D01*
X-11495142Y-24514447D01*
X-11502583Y-24502031D01*
X-11508772Y-24488946D01*
X-11513649Y-24475317D01*
X-11517166Y-24461276D01*
X-11519290Y-24446958D01*
X-11520000Y-24432500D01*
X-11520000Y-24137500D01*
X-11519290Y-24123042D01*
X-11517166Y-24108724D01*
X-11513649Y-24094683D01*
X-11508772Y-24081054D01*
X-11502583Y-24067969D01*
X-11495142Y-24055553D01*
X-11486519Y-24043927D01*
X-11476798Y-24033202D01*
X-11466073Y-24023481D01*
X-11454447Y-24014858D01*
X-11442031Y-24007417D01*
X-11428946Y-24001228D01*
X-11415317Y-23996351D01*
X-11401276Y-23992834D01*
X-11386958Y-23990710D01*
X-11372500Y-23990000D01*
X-11027500Y-23990000D01*
X-11013042Y-23990710D01*
X-11013042Y-23990710D01*
G37*
D16*
X-11200000Y-24285000D03*
D15*
G36*
X-11013042Y-23020710D02*
G01*
X-10998724Y-23022834D01*
X-10984683Y-23026351D01*
X-10971054Y-23031228D01*
X-10957969Y-23037417D01*
X-10945553Y-23044858D01*
X-10933927Y-23053481D01*
X-10923202Y-23063202D01*
X-10913481Y-23073927D01*
X-10904858Y-23085553D01*
X-10897417Y-23097969D01*
X-10891228Y-23111054D01*
X-10886351Y-23124683D01*
X-10882834Y-23138724D01*
X-10880710Y-23153042D01*
X-10880000Y-23167500D01*
X-10880000Y-23462500D01*
X-10880710Y-23476958D01*
X-10882834Y-23491276D01*
X-10886351Y-23505317D01*
X-10891228Y-23518946D01*
X-10897417Y-23532031D01*
X-10904858Y-23544447D01*
X-10913481Y-23556073D01*
X-10923202Y-23566798D01*
X-10933927Y-23576519D01*
X-10945553Y-23585142D01*
X-10957969Y-23592583D01*
X-10971054Y-23598772D01*
X-10984683Y-23603649D01*
X-10998724Y-23607166D01*
X-11013042Y-23609290D01*
X-11027500Y-23610000D01*
X-11372500Y-23610000D01*
X-11386958Y-23609290D01*
X-11401276Y-23607166D01*
X-11415317Y-23603649D01*
X-11428946Y-23598772D01*
X-11442031Y-23592583D01*
X-11454447Y-23585142D01*
X-11466073Y-23576519D01*
X-11476798Y-23566798D01*
X-11486519Y-23556073D01*
X-11495142Y-23544447D01*
X-11502583Y-23532031D01*
X-11508772Y-23518946D01*
X-11513649Y-23505317D01*
X-11517166Y-23491276D01*
X-11519290Y-23476958D01*
X-11520000Y-23462500D01*
X-11520000Y-23167500D01*
X-11519290Y-23153042D01*
X-11517166Y-23138724D01*
X-11513649Y-23124683D01*
X-11508772Y-23111054D01*
X-11502583Y-23097969D01*
X-11495142Y-23085553D01*
X-11486519Y-23073927D01*
X-11476798Y-23063202D01*
X-11466073Y-23053481D01*
X-11454447Y-23044858D01*
X-11442031Y-23037417D01*
X-11428946Y-23031228D01*
X-11415317Y-23026351D01*
X-11401276Y-23022834D01*
X-11386958Y-23020710D01*
X-11372500Y-23020000D01*
X-11027500Y-23020000D01*
X-11013042Y-23020710D01*
X-11013042Y-23020710D01*
G37*
D16*
X-11200000Y-23315000D03*
D15*
G36*
X-7503042Y-1280710D02*
G01*
X-7488724Y-1282834D01*
X-7474683Y-1286351D01*
X-7461054Y-1291228D01*
X-7447969Y-1297417D01*
X-7435553Y-1304858D01*
X-7423927Y-1313481D01*
X-7413202Y-1323202D01*
X-7403481Y-1333927D01*
X-7394858Y-1345553D01*
X-7387417Y-1357969D01*
X-7381228Y-1371054D01*
X-7376351Y-1384683D01*
X-7372834Y-1398724D01*
X-7370710Y-1413042D01*
X-7370000Y-1427500D01*
X-7370000Y-1772500D01*
X-7370710Y-1786958D01*
X-7372834Y-1801276D01*
X-7376351Y-1815317D01*
X-7381228Y-1828946D01*
X-7387417Y-1842031D01*
X-7394858Y-1854447D01*
X-7403481Y-1866073D01*
X-7413202Y-1876798D01*
X-7423927Y-1886519D01*
X-7435553Y-1895142D01*
X-7447969Y-1902583D01*
X-7461054Y-1908772D01*
X-7474683Y-1913649D01*
X-7488724Y-1917166D01*
X-7503042Y-1919290D01*
X-7517500Y-1920000D01*
X-7812500Y-1920000D01*
X-7826958Y-1919290D01*
X-7841276Y-1917166D01*
X-7855317Y-1913649D01*
X-7868946Y-1908772D01*
X-7882031Y-1902583D01*
X-7894447Y-1895142D01*
X-7906073Y-1886519D01*
X-7916798Y-1876798D01*
X-7926519Y-1866073D01*
X-7935142Y-1854447D01*
X-7942583Y-1842031D01*
X-7948772Y-1828946D01*
X-7953649Y-1815317D01*
X-7957166Y-1801276D01*
X-7959290Y-1786958D01*
X-7960000Y-1772500D01*
X-7960000Y-1427500D01*
X-7959290Y-1413042D01*
X-7957166Y-1398724D01*
X-7953649Y-1384683D01*
X-7948772Y-1371054D01*
X-7942583Y-1357969D01*
X-7935142Y-1345553D01*
X-7926519Y-1333927D01*
X-7916798Y-1323202D01*
X-7906073Y-1313481D01*
X-7894447Y-1304858D01*
X-7882031Y-1297417D01*
X-7868946Y-1291228D01*
X-7855317Y-1286351D01*
X-7841276Y-1282834D01*
X-7826958Y-1280710D01*
X-7812500Y-1280000D01*
X-7517500Y-1280000D01*
X-7503042Y-1280710D01*
X-7503042Y-1280710D01*
G37*
D16*
X-7665000Y-1600000D03*
D15*
G36*
X-8473042Y-1280710D02*
G01*
X-8458724Y-1282834D01*
X-8444683Y-1286351D01*
X-8431054Y-1291228D01*
X-8417969Y-1297417D01*
X-8405553Y-1304858D01*
X-8393927Y-1313481D01*
X-8383202Y-1323202D01*
X-8373481Y-1333927D01*
X-8364858Y-1345553D01*
X-8357417Y-1357969D01*
X-8351228Y-1371054D01*
X-8346351Y-1384683D01*
X-8342834Y-1398724D01*
X-8340710Y-1413042D01*
X-8340000Y-1427500D01*
X-8340000Y-1772500D01*
X-8340710Y-1786958D01*
X-8342834Y-1801276D01*
X-8346351Y-1815317D01*
X-8351228Y-1828946D01*
X-8357417Y-1842031D01*
X-8364858Y-1854447D01*
X-8373481Y-1866073D01*
X-8383202Y-1876798D01*
X-8393927Y-1886519D01*
X-8405553Y-1895142D01*
X-8417969Y-1902583D01*
X-8431054Y-1908772D01*
X-8444683Y-1913649D01*
X-8458724Y-1917166D01*
X-8473042Y-1919290D01*
X-8487500Y-1920000D01*
X-8782500Y-1920000D01*
X-8796958Y-1919290D01*
X-8811276Y-1917166D01*
X-8825317Y-1913649D01*
X-8838946Y-1908772D01*
X-8852031Y-1902583D01*
X-8864447Y-1895142D01*
X-8876073Y-1886519D01*
X-8886798Y-1876798D01*
X-8896519Y-1866073D01*
X-8905142Y-1854447D01*
X-8912583Y-1842031D01*
X-8918772Y-1828946D01*
X-8923649Y-1815317D01*
X-8927166Y-1801276D01*
X-8929290Y-1786958D01*
X-8930000Y-1772500D01*
X-8930000Y-1427500D01*
X-8929290Y-1413042D01*
X-8927166Y-1398724D01*
X-8923649Y-1384683D01*
X-8918772Y-1371054D01*
X-8912583Y-1357969D01*
X-8905142Y-1345553D01*
X-8896519Y-1333927D01*
X-8886798Y-1323202D01*
X-8876073Y-1313481D01*
X-8864447Y-1304858D01*
X-8852031Y-1297417D01*
X-8838946Y-1291228D01*
X-8825317Y-1286351D01*
X-8811276Y-1282834D01*
X-8796958Y-1280710D01*
X-8782500Y-1280000D01*
X-8487500Y-1280000D01*
X-8473042Y-1280710D01*
X-8473042Y-1280710D01*
G37*
D16*
X-8635000Y-1600000D03*
D15*
G36*
X-10003042Y-1280710D02*
G01*
X-9988724Y-1282834D01*
X-9974683Y-1286351D01*
X-9961054Y-1291228D01*
X-9947969Y-1297417D01*
X-9935553Y-1304858D01*
X-9923927Y-1313481D01*
X-9913202Y-1323202D01*
X-9903481Y-1333927D01*
X-9894858Y-1345553D01*
X-9887417Y-1357969D01*
X-9881228Y-1371054D01*
X-9876351Y-1384683D01*
X-9872834Y-1398724D01*
X-9870710Y-1413042D01*
X-9870000Y-1427500D01*
X-9870000Y-1772500D01*
X-9870710Y-1786958D01*
X-9872834Y-1801276D01*
X-9876351Y-1815317D01*
X-9881228Y-1828946D01*
X-9887417Y-1842031D01*
X-9894858Y-1854447D01*
X-9903481Y-1866073D01*
X-9913202Y-1876798D01*
X-9923927Y-1886519D01*
X-9935553Y-1895142D01*
X-9947969Y-1902583D01*
X-9961054Y-1908772D01*
X-9974683Y-1913649D01*
X-9988724Y-1917166D01*
X-10003042Y-1919290D01*
X-10017500Y-1920000D01*
X-10312500Y-1920000D01*
X-10326958Y-1919290D01*
X-10341276Y-1917166D01*
X-10355317Y-1913649D01*
X-10368946Y-1908772D01*
X-10382031Y-1902583D01*
X-10394447Y-1895142D01*
X-10406073Y-1886519D01*
X-10416798Y-1876798D01*
X-10426519Y-1866073D01*
X-10435142Y-1854447D01*
X-10442583Y-1842031D01*
X-10448772Y-1828946D01*
X-10453649Y-1815317D01*
X-10457166Y-1801276D01*
X-10459290Y-1786958D01*
X-10460000Y-1772500D01*
X-10460000Y-1427500D01*
X-10459290Y-1413042D01*
X-10457166Y-1398724D01*
X-10453649Y-1384683D01*
X-10448772Y-1371054D01*
X-10442583Y-1357969D01*
X-10435142Y-1345553D01*
X-10426519Y-1333927D01*
X-10416798Y-1323202D01*
X-10406073Y-1313481D01*
X-10394447Y-1304858D01*
X-10382031Y-1297417D01*
X-10368946Y-1291228D01*
X-10355317Y-1286351D01*
X-10341276Y-1282834D01*
X-10326958Y-1280710D01*
X-10312500Y-1280000D01*
X-10017500Y-1280000D01*
X-10003042Y-1280710D01*
X-10003042Y-1280710D01*
G37*
D16*
X-10165000Y-1600000D03*
D15*
G36*
X-10973042Y-1280710D02*
G01*
X-10958724Y-1282834D01*
X-10944683Y-1286351D01*
X-10931054Y-1291228D01*
X-10917969Y-1297417D01*
X-10905553Y-1304858D01*
X-10893927Y-1313481D01*
X-10883202Y-1323202D01*
X-10873481Y-1333927D01*
X-10864858Y-1345553D01*
X-10857417Y-1357969D01*
X-10851228Y-1371054D01*
X-10846351Y-1384683D01*
X-10842834Y-1398724D01*
X-10840710Y-1413042D01*
X-10840000Y-1427500D01*
X-10840000Y-1772500D01*
X-10840710Y-1786958D01*
X-10842834Y-1801276D01*
X-10846351Y-1815317D01*
X-10851228Y-1828946D01*
X-10857417Y-1842031D01*
X-10864858Y-1854447D01*
X-10873481Y-1866073D01*
X-10883202Y-1876798D01*
X-10893927Y-1886519D01*
X-10905553Y-1895142D01*
X-10917969Y-1902583D01*
X-10931054Y-1908772D01*
X-10944683Y-1913649D01*
X-10958724Y-1917166D01*
X-10973042Y-1919290D01*
X-10987500Y-1920000D01*
X-11282500Y-1920000D01*
X-11296958Y-1919290D01*
X-11311276Y-1917166D01*
X-11325317Y-1913649D01*
X-11338946Y-1908772D01*
X-11352031Y-1902583D01*
X-11364447Y-1895142D01*
X-11376073Y-1886519D01*
X-11386798Y-1876798D01*
X-11396519Y-1866073D01*
X-11405142Y-1854447D01*
X-11412583Y-1842031D01*
X-11418772Y-1828946D01*
X-11423649Y-1815317D01*
X-11427166Y-1801276D01*
X-11429290Y-1786958D01*
X-11430000Y-1772500D01*
X-11430000Y-1427500D01*
X-11429290Y-1413042D01*
X-11427166Y-1398724D01*
X-11423649Y-1384683D01*
X-11418772Y-1371054D01*
X-11412583Y-1357969D01*
X-11405142Y-1345553D01*
X-11396519Y-1333927D01*
X-11386798Y-1323202D01*
X-11376073Y-1313481D01*
X-11364447Y-1304858D01*
X-11352031Y-1297417D01*
X-11338946Y-1291228D01*
X-11325317Y-1286351D01*
X-11311276Y-1282834D01*
X-11296958Y-1280710D01*
X-11282500Y-1280000D01*
X-10987500Y-1280000D01*
X-10973042Y-1280710D01*
X-10973042Y-1280710D01*
G37*
D16*
X-11135000Y-1600000D03*
D15*
G36*
X-1063042Y-33040710D02*
G01*
X-1048724Y-33042834D01*
X-1034683Y-33046351D01*
X-1021054Y-33051228D01*
X-1007969Y-33057417D01*
X-995553Y-33064858D01*
X-983927Y-33073481D01*
X-973202Y-33083202D01*
X-963481Y-33093927D01*
X-954858Y-33105553D01*
X-947417Y-33117969D01*
X-941228Y-33131054D01*
X-936351Y-33144683D01*
X-932834Y-33158724D01*
X-930710Y-33173042D01*
X-930000Y-33187500D01*
X-930000Y-33482500D01*
X-930710Y-33496958D01*
X-932834Y-33511276D01*
X-936351Y-33525317D01*
X-941228Y-33538946D01*
X-947417Y-33552031D01*
X-954858Y-33564447D01*
X-963481Y-33576073D01*
X-973202Y-33586798D01*
X-983927Y-33596519D01*
X-995553Y-33605142D01*
X-1007969Y-33612583D01*
X-1021054Y-33618772D01*
X-1034683Y-33623649D01*
X-1048724Y-33627166D01*
X-1063042Y-33629290D01*
X-1077500Y-33630000D01*
X-1422500Y-33630000D01*
X-1436958Y-33629290D01*
X-1451276Y-33627166D01*
X-1465317Y-33623649D01*
X-1478946Y-33618772D01*
X-1492031Y-33612583D01*
X-1504447Y-33605142D01*
X-1516073Y-33596519D01*
X-1526798Y-33586798D01*
X-1536519Y-33576073D01*
X-1545142Y-33564447D01*
X-1552583Y-33552031D01*
X-1558772Y-33538946D01*
X-1563649Y-33525317D01*
X-1567166Y-33511276D01*
X-1569290Y-33496958D01*
X-1570000Y-33482500D01*
X-1570000Y-33187500D01*
X-1569290Y-33173042D01*
X-1567166Y-33158724D01*
X-1563649Y-33144683D01*
X-1558772Y-33131054D01*
X-1552583Y-33117969D01*
X-1545142Y-33105553D01*
X-1536519Y-33093927D01*
X-1526798Y-33083202D01*
X-1516073Y-33073481D01*
X-1504447Y-33064858D01*
X-1492031Y-33057417D01*
X-1478946Y-33051228D01*
X-1465317Y-33046351D01*
X-1451276Y-33042834D01*
X-1436958Y-33040710D01*
X-1422500Y-33040000D01*
X-1077500Y-33040000D01*
X-1063042Y-33040710D01*
X-1063042Y-33040710D01*
G37*
D16*
X-1250000Y-33335000D03*
D15*
G36*
X-1063042Y-32070710D02*
G01*
X-1048724Y-32072834D01*
X-1034683Y-32076351D01*
X-1021054Y-32081228D01*
X-1007969Y-32087417D01*
X-995553Y-32094858D01*
X-983927Y-32103481D01*
X-973202Y-32113202D01*
X-963481Y-32123927D01*
X-954858Y-32135553D01*
X-947417Y-32147969D01*
X-941228Y-32161054D01*
X-936351Y-32174683D01*
X-932834Y-32188724D01*
X-930710Y-32203042D01*
X-930000Y-32217500D01*
X-930000Y-32512500D01*
X-930710Y-32526958D01*
X-932834Y-32541276D01*
X-936351Y-32555317D01*
X-941228Y-32568946D01*
X-947417Y-32582031D01*
X-954858Y-32594447D01*
X-963481Y-32606073D01*
X-973202Y-32616798D01*
X-983927Y-32626519D01*
X-995553Y-32635142D01*
X-1007969Y-32642583D01*
X-1021054Y-32648772D01*
X-1034683Y-32653649D01*
X-1048724Y-32657166D01*
X-1063042Y-32659290D01*
X-1077500Y-32660000D01*
X-1422500Y-32660000D01*
X-1436958Y-32659290D01*
X-1451276Y-32657166D01*
X-1465317Y-32653649D01*
X-1478946Y-32648772D01*
X-1492031Y-32642583D01*
X-1504447Y-32635142D01*
X-1516073Y-32626519D01*
X-1526798Y-32616798D01*
X-1536519Y-32606073D01*
X-1545142Y-32594447D01*
X-1552583Y-32582031D01*
X-1558772Y-32568946D01*
X-1563649Y-32555317D01*
X-1567166Y-32541276D01*
X-1569290Y-32526958D01*
X-1570000Y-32512500D01*
X-1570000Y-32217500D01*
X-1569290Y-32203042D01*
X-1567166Y-32188724D01*
X-1563649Y-32174683D01*
X-1558772Y-32161054D01*
X-1552583Y-32147969D01*
X-1545142Y-32135553D01*
X-1536519Y-32123927D01*
X-1526798Y-32113202D01*
X-1516073Y-32103481D01*
X-1504447Y-32094858D01*
X-1492031Y-32087417D01*
X-1478946Y-32081228D01*
X-1465317Y-32076351D01*
X-1451276Y-32072834D01*
X-1436958Y-32070710D01*
X-1422500Y-32070000D01*
X-1077500Y-32070000D01*
X-1063042Y-32070710D01*
X-1063042Y-32070710D01*
G37*
D16*
X-1250000Y-32365000D03*
D15*
G36*
X18261958Y-30065710D02*
G01*
X18276276Y-30067834D01*
X18290317Y-30071351D01*
X18303946Y-30076228D01*
X18317031Y-30082417D01*
X18329447Y-30089858D01*
X18341073Y-30098481D01*
X18351798Y-30108202D01*
X18361519Y-30118927D01*
X18370142Y-30130553D01*
X18377583Y-30142969D01*
X18383772Y-30156054D01*
X18388649Y-30169683D01*
X18392166Y-30183724D01*
X18394290Y-30198042D01*
X18395000Y-30212500D01*
X18395000Y-30507500D01*
X18394290Y-30521958D01*
X18392166Y-30536276D01*
X18388649Y-30550317D01*
X18383772Y-30563946D01*
X18377583Y-30577031D01*
X18370142Y-30589447D01*
X18361519Y-30601073D01*
X18351798Y-30611798D01*
X18341073Y-30621519D01*
X18329447Y-30630142D01*
X18317031Y-30637583D01*
X18303946Y-30643772D01*
X18290317Y-30648649D01*
X18276276Y-30652166D01*
X18261958Y-30654290D01*
X18247500Y-30655000D01*
X17902500Y-30655000D01*
X17888042Y-30654290D01*
X17873724Y-30652166D01*
X17859683Y-30648649D01*
X17846054Y-30643772D01*
X17832969Y-30637583D01*
X17820553Y-30630142D01*
X17808927Y-30621519D01*
X17798202Y-30611798D01*
X17788481Y-30601073D01*
X17779858Y-30589447D01*
X17772417Y-30577031D01*
X17766228Y-30563946D01*
X17761351Y-30550317D01*
X17757834Y-30536276D01*
X17755710Y-30521958D01*
X17755000Y-30507500D01*
X17755000Y-30212500D01*
X17755710Y-30198042D01*
X17757834Y-30183724D01*
X17761351Y-30169683D01*
X17766228Y-30156054D01*
X17772417Y-30142969D01*
X17779858Y-30130553D01*
X17788481Y-30118927D01*
X17798202Y-30108202D01*
X17808927Y-30098481D01*
X17820553Y-30089858D01*
X17832969Y-30082417D01*
X17846054Y-30076228D01*
X17859683Y-30071351D01*
X17873724Y-30067834D01*
X17888042Y-30065710D01*
X17902500Y-30065000D01*
X18247500Y-30065000D01*
X18261958Y-30065710D01*
X18261958Y-30065710D01*
G37*
D16*
X18075000Y-30360000D03*
D15*
G36*
X18261958Y-29095710D02*
G01*
X18276276Y-29097834D01*
X18290317Y-29101351D01*
X18303946Y-29106228D01*
X18317031Y-29112417D01*
X18329447Y-29119858D01*
X18341073Y-29128481D01*
X18351798Y-29138202D01*
X18361519Y-29148927D01*
X18370142Y-29160553D01*
X18377583Y-29172969D01*
X18383772Y-29186054D01*
X18388649Y-29199683D01*
X18392166Y-29213724D01*
X18394290Y-29228042D01*
X18395000Y-29242500D01*
X18395000Y-29537500D01*
X18394290Y-29551958D01*
X18392166Y-29566276D01*
X18388649Y-29580317D01*
X18383772Y-29593946D01*
X18377583Y-29607031D01*
X18370142Y-29619447D01*
X18361519Y-29631073D01*
X18351798Y-29641798D01*
X18341073Y-29651519D01*
X18329447Y-29660142D01*
X18317031Y-29667583D01*
X18303946Y-29673772D01*
X18290317Y-29678649D01*
X18276276Y-29682166D01*
X18261958Y-29684290D01*
X18247500Y-29685000D01*
X17902500Y-29685000D01*
X17888042Y-29684290D01*
X17873724Y-29682166D01*
X17859683Y-29678649D01*
X17846054Y-29673772D01*
X17832969Y-29667583D01*
X17820553Y-29660142D01*
X17808927Y-29651519D01*
X17798202Y-29641798D01*
X17788481Y-29631073D01*
X17779858Y-29619447D01*
X17772417Y-29607031D01*
X17766228Y-29593946D01*
X17761351Y-29580317D01*
X17757834Y-29566276D01*
X17755710Y-29551958D01*
X17755000Y-29537500D01*
X17755000Y-29242500D01*
X17755710Y-29228042D01*
X17757834Y-29213724D01*
X17761351Y-29199683D01*
X17766228Y-29186054D01*
X17772417Y-29172969D01*
X17779858Y-29160553D01*
X17788481Y-29148927D01*
X17798202Y-29138202D01*
X17808927Y-29128481D01*
X17820553Y-29119858D01*
X17832969Y-29112417D01*
X17846054Y-29106228D01*
X17859683Y-29101351D01*
X17873724Y-29097834D01*
X17888042Y-29095710D01*
X17902500Y-29095000D01*
X18247500Y-29095000D01*
X18261958Y-29095710D01*
X18261958Y-29095710D01*
G37*
D16*
X18075000Y-29390000D03*
D15*
G36*
X22026958Y-31780710D02*
G01*
X22041276Y-31782834D01*
X22055317Y-31786351D01*
X22068946Y-31791228D01*
X22082031Y-31797417D01*
X22094447Y-31804858D01*
X22106073Y-31813481D01*
X22116798Y-31823202D01*
X22126519Y-31833927D01*
X22135142Y-31845553D01*
X22142583Y-31857969D01*
X22148772Y-31871054D01*
X22153649Y-31884683D01*
X22157166Y-31898724D01*
X22159290Y-31913042D01*
X22160000Y-31927500D01*
X22160000Y-32272500D01*
X22159290Y-32286958D01*
X22157166Y-32301276D01*
X22153649Y-32315317D01*
X22148772Y-32328946D01*
X22142583Y-32342031D01*
X22135142Y-32354447D01*
X22126519Y-32366073D01*
X22116798Y-32376798D01*
X22106073Y-32386519D01*
X22094447Y-32395142D01*
X22082031Y-32402583D01*
X22068946Y-32408772D01*
X22055317Y-32413649D01*
X22041276Y-32417166D01*
X22026958Y-32419290D01*
X22012500Y-32420000D01*
X21717500Y-32420000D01*
X21703042Y-32419290D01*
X21688724Y-32417166D01*
X21674683Y-32413649D01*
X21661054Y-32408772D01*
X21647969Y-32402583D01*
X21635553Y-32395142D01*
X21623927Y-32386519D01*
X21613202Y-32376798D01*
X21603481Y-32366073D01*
X21594858Y-32354447D01*
X21587417Y-32342031D01*
X21581228Y-32328946D01*
X21576351Y-32315317D01*
X21572834Y-32301276D01*
X21570710Y-32286958D01*
X21570000Y-32272500D01*
X21570000Y-31927500D01*
X21570710Y-31913042D01*
X21572834Y-31898724D01*
X21576351Y-31884683D01*
X21581228Y-31871054D01*
X21587417Y-31857969D01*
X21594858Y-31845553D01*
X21603481Y-31833927D01*
X21613202Y-31823202D01*
X21623927Y-31813481D01*
X21635553Y-31804858D01*
X21647969Y-31797417D01*
X21661054Y-31791228D01*
X21674683Y-31786351D01*
X21688724Y-31782834D01*
X21703042Y-31780710D01*
X21717500Y-31780000D01*
X22012500Y-31780000D01*
X22026958Y-31780710D01*
X22026958Y-31780710D01*
G37*
D16*
X21865000Y-32100000D03*
D15*
G36*
X22996958Y-31780710D02*
G01*
X23011276Y-31782834D01*
X23025317Y-31786351D01*
X23038946Y-31791228D01*
X23052031Y-31797417D01*
X23064447Y-31804858D01*
X23076073Y-31813481D01*
X23086798Y-31823202D01*
X23096519Y-31833927D01*
X23105142Y-31845553D01*
X23112583Y-31857969D01*
X23118772Y-31871054D01*
X23123649Y-31884683D01*
X23127166Y-31898724D01*
X23129290Y-31913042D01*
X23130000Y-31927500D01*
X23130000Y-32272500D01*
X23129290Y-32286958D01*
X23127166Y-32301276D01*
X23123649Y-32315317D01*
X23118772Y-32328946D01*
X23112583Y-32342031D01*
X23105142Y-32354447D01*
X23096519Y-32366073D01*
X23086798Y-32376798D01*
X23076073Y-32386519D01*
X23064447Y-32395142D01*
X23052031Y-32402583D01*
X23038946Y-32408772D01*
X23025317Y-32413649D01*
X23011276Y-32417166D01*
X22996958Y-32419290D01*
X22982500Y-32420000D01*
X22687500Y-32420000D01*
X22673042Y-32419290D01*
X22658724Y-32417166D01*
X22644683Y-32413649D01*
X22631054Y-32408772D01*
X22617969Y-32402583D01*
X22605553Y-32395142D01*
X22593927Y-32386519D01*
X22583202Y-32376798D01*
X22573481Y-32366073D01*
X22564858Y-32354447D01*
X22557417Y-32342031D01*
X22551228Y-32328946D01*
X22546351Y-32315317D01*
X22542834Y-32301276D01*
X22540710Y-32286958D01*
X22540000Y-32272500D01*
X22540000Y-31927500D01*
X22540710Y-31913042D01*
X22542834Y-31898724D01*
X22546351Y-31884683D01*
X22551228Y-31871054D01*
X22557417Y-31857969D01*
X22564858Y-31845553D01*
X22573481Y-31833927D01*
X22583202Y-31823202D01*
X22593927Y-31813481D01*
X22605553Y-31804858D01*
X22617969Y-31797417D01*
X22631054Y-31791228D01*
X22644683Y-31786351D01*
X22658724Y-31782834D01*
X22673042Y-31780710D01*
X22687500Y-31780000D01*
X22982500Y-31780000D01*
X22996958Y-31780710D01*
X22996958Y-31780710D01*
G37*
D16*
X22835000Y-32100000D03*
D15*
G36*
X22771958Y-26980710D02*
G01*
X22786276Y-26982834D01*
X22800317Y-26986351D01*
X22813946Y-26991228D01*
X22827031Y-26997417D01*
X22839447Y-27004858D01*
X22851073Y-27013481D01*
X22861798Y-27023202D01*
X22871519Y-27033927D01*
X22880142Y-27045553D01*
X22887583Y-27057969D01*
X22893772Y-27071054D01*
X22898649Y-27084683D01*
X22902166Y-27098724D01*
X22904290Y-27113042D01*
X22905000Y-27127500D01*
X22905000Y-27472500D01*
X22904290Y-27486958D01*
X22902166Y-27501276D01*
X22898649Y-27515317D01*
X22893772Y-27528946D01*
X22887583Y-27542031D01*
X22880142Y-27554447D01*
X22871519Y-27566073D01*
X22861798Y-27576798D01*
X22851073Y-27586519D01*
X22839447Y-27595142D01*
X22827031Y-27602583D01*
X22813946Y-27608772D01*
X22800317Y-27613649D01*
X22786276Y-27617166D01*
X22771958Y-27619290D01*
X22757500Y-27620000D01*
X22462500Y-27620000D01*
X22448042Y-27619290D01*
X22433724Y-27617166D01*
X22419683Y-27613649D01*
X22406054Y-27608772D01*
X22392969Y-27602583D01*
X22380553Y-27595142D01*
X22368927Y-27586519D01*
X22358202Y-27576798D01*
X22348481Y-27566073D01*
X22339858Y-27554447D01*
X22332417Y-27542031D01*
X22326228Y-27528946D01*
X22321351Y-27515317D01*
X22317834Y-27501276D01*
X22315710Y-27486958D01*
X22315000Y-27472500D01*
X22315000Y-27127500D01*
X22315710Y-27113042D01*
X22317834Y-27098724D01*
X22321351Y-27084683D01*
X22326228Y-27071054D01*
X22332417Y-27057969D01*
X22339858Y-27045553D01*
X22348481Y-27033927D01*
X22358202Y-27023202D01*
X22368927Y-27013481D01*
X22380553Y-27004858D01*
X22392969Y-26997417D01*
X22406054Y-26991228D01*
X22419683Y-26986351D01*
X22433724Y-26982834D01*
X22448042Y-26980710D01*
X22462500Y-26980000D01*
X22757500Y-26980000D01*
X22771958Y-26980710D01*
X22771958Y-26980710D01*
G37*
D16*
X22610000Y-27300000D03*
D15*
G36*
X21801958Y-26980710D02*
G01*
X21816276Y-26982834D01*
X21830317Y-26986351D01*
X21843946Y-26991228D01*
X21857031Y-26997417D01*
X21869447Y-27004858D01*
X21881073Y-27013481D01*
X21891798Y-27023202D01*
X21901519Y-27033927D01*
X21910142Y-27045553D01*
X21917583Y-27057969D01*
X21923772Y-27071054D01*
X21928649Y-27084683D01*
X21932166Y-27098724D01*
X21934290Y-27113042D01*
X21935000Y-27127500D01*
X21935000Y-27472500D01*
X21934290Y-27486958D01*
X21932166Y-27501276D01*
X21928649Y-27515317D01*
X21923772Y-27528946D01*
X21917583Y-27542031D01*
X21910142Y-27554447D01*
X21901519Y-27566073D01*
X21891798Y-27576798D01*
X21881073Y-27586519D01*
X21869447Y-27595142D01*
X21857031Y-27602583D01*
X21843946Y-27608772D01*
X21830317Y-27613649D01*
X21816276Y-27617166D01*
X21801958Y-27619290D01*
X21787500Y-27620000D01*
X21492500Y-27620000D01*
X21478042Y-27619290D01*
X21463724Y-27617166D01*
X21449683Y-27613649D01*
X21436054Y-27608772D01*
X21422969Y-27602583D01*
X21410553Y-27595142D01*
X21398927Y-27586519D01*
X21388202Y-27576798D01*
X21378481Y-27566073D01*
X21369858Y-27554447D01*
X21362417Y-27542031D01*
X21356228Y-27528946D01*
X21351351Y-27515317D01*
X21347834Y-27501276D01*
X21345710Y-27486958D01*
X21345000Y-27472500D01*
X21345000Y-27127500D01*
X21345710Y-27113042D01*
X21347834Y-27098724D01*
X21351351Y-27084683D01*
X21356228Y-27071054D01*
X21362417Y-27057969D01*
X21369858Y-27045553D01*
X21378481Y-27033927D01*
X21388202Y-27023202D01*
X21398927Y-27013481D01*
X21410553Y-27004858D01*
X21422969Y-26997417D01*
X21436054Y-26991228D01*
X21449683Y-26986351D01*
X21463724Y-26982834D01*
X21478042Y-26980710D01*
X21492500Y-26980000D01*
X21787500Y-26980000D01*
X21801958Y-26980710D01*
X21801958Y-26980710D01*
G37*
D16*
X21640000Y-27300000D03*
D18*
X16650000Y-28889000D03*
X14650000Y-28889000D03*
X14650000Y-30889000D03*
X16650000Y-30889000D03*
D19*
X24000000Y-30200000D03*
X24000000Y-29700000D03*
X24000000Y-29200000D03*
D20*
X23600000Y-28550000D03*
X23100000Y-28550000D03*
X22600000Y-28550000D03*
X22100000Y-28550000D03*
X21600000Y-28550000D03*
X21100000Y-28550000D03*
X20600000Y-28550000D03*
D19*
X20200000Y-29200000D03*
X20200000Y-29700000D03*
X20200000Y-30200000D03*
D20*
X20600000Y-30850000D03*
X21100000Y-30850000D03*
X21600000Y-30850000D03*
X22100000Y-30850000D03*
X22600000Y-30850000D03*
X23100000Y-30850000D03*
X23600000Y-30850000D03*
D15*
G36*
X-1689221Y-22701144D02*
G01*
X-1666166Y-22704563D01*
X-1643557Y-22710227D01*
X-1621613Y-22718079D01*
X-1600543Y-22728044D01*
X-1580552Y-22740026D01*
X-1561832Y-22753910D01*
X-1544562Y-22769562D01*
X-1528910Y-22786832D01*
X-1515026Y-22805552D01*
X-1503044Y-22825543D01*
X-1493079Y-22846613D01*
X-1485227Y-22868557D01*
X-1479563Y-22891166D01*
X-1476144Y-22914221D01*
X-1475000Y-22937500D01*
X-1475000Y-23512500D01*
X-1476144Y-23535779D01*
X-1479563Y-23558834D01*
X-1485227Y-23581443D01*
X-1493079Y-23603387D01*
X-1503044Y-23624457D01*
X-1515026Y-23644448D01*
X-1528910Y-23663168D01*
X-1544562Y-23680438D01*
X-1561832Y-23696090D01*
X-1580552Y-23709974D01*
X-1600543Y-23721956D01*
X-1621613Y-23731921D01*
X-1643557Y-23739773D01*
X-1666166Y-23745437D01*
X-1689221Y-23748856D01*
X-1712500Y-23750000D01*
X-2187500Y-23750000D01*
X-2210779Y-23748856D01*
X-2233834Y-23745437D01*
X-2256443Y-23739773D01*
X-2278387Y-23731921D01*
X-2299457Y-23721956D01*
X-2319448Y-23709974D01*
X-2338168Y-23696090D01*
X-2355438Y-23680438D01*
X-2371090Y-23663168D01*
X-2384974Y-23644448D01*
X-2396956Y-23624457D01*
X-2406921Y-23603387D01*
X-2414773Y-23581443D01*
X-2420437Y-23558834D01*
X-2423856Y-23535779D01*
X-2425000Y-23512500D01*
X-2425000Y-22937500D01*
X-2423856Y-22914221D01*
X-2420437Y-22891166D01*
X-2414773Y-22868557D01*
X-2406921Y-22846613D01*
X-2396956Y-22825543D01*
X-2384974Y-22805552D01*
X-2371090Y-22786832D01*
X-2355438Y-22769562D01*
X-2338168Y-22753910D01*
X-2319448Y-22740026D01*
X-2299457Y-22728044D01*
X-2278387Y-22718079D01*
X-2256443Y-22710227D01*
X-2233834Y-22704563D01*
X-2210779Y-22701144D01*
X-2187500Y-22700000D01*
X-1712500Y-22700000D01*
X-1689221Y-22701144D01*
X-1689221Y-22701144D01*
G37*
D21*
X-1950000Y-23225000D03*
D15*
G36*
X-1689221Y-24451144D02*
G01*
X-1666166Y-24454563D01*
X-1643557Y-24460227D01*
X-1621613Y-24468079D01*
X-1600543Y-24478044D01*
X-1580552Y-24490026D01*
X-1561832Y-24503910D01*
X-1544562Y-24519562D01*
X-1528910Y-24536832D01*
X-1515026Y-24555552D01*
X-1503044Y-24575543D01*
X-1493079Y-24596613D01*
X-1485227Y-24618557D01*
X-1479563Y-24641166D01*
X-1476144Y-24664221D01*
X-1475000Y-24687500D01*
X-1475000Y-25262500D01*
X-1476144Y-25285779D01*
X-1479563Y-25308834D01*
X-1485227Y-25331443D01*
X-1493079Y-25353387D01*
X-1503044Y-25374457D01*
X-1515026Y-25394448D01*
X-1528910Y-25413168D01*
X-1544562Y-25430438D01*
X-1561832Y-25446090D01*
X-1580552Y-25459974D01*
X-1600543Y-25471956D01*
X-1621613Y-25481921D01*
X-1643557Y-25489773D01*
X-1666166Y-25495437D01*
X-1689221Y-25498856D01*
X-1712500Y-25500000D01*
X-2187500Y-25500000D01*
X-2210779Y-25498856D01*
X-2233834Y-25495437D01*
X-2256443Y-25489773D01*
X-2278387Y-25481921D01*
X-2299457Y-25471956D01*
X-2319448Y-25459974D01*
X-2338168Y-25446090D01*
X-2355438Y-25430438D01*
X-2371090Y-25413168D01*
X-2384974Y-25394448D01*
X-2396956Y-25374457D01*
X-2406921Y-25353387D01*
X-2414773Y-25331443D01*
X-2420437Y-25308834D01*
X-2423856Y-25285779D01*
X-2425000Y-25262500D01*
X-2425000Y-24687500D01*
X-2423856Y-24664221D01*
X-2420437Y-24641166D01*
X-2414773Y-24618557D01*
X-2406921Y-24596613D01*
X-2396956Y-24575543D01*
X-2384974Y-24555552D01*
X-2371090Y-24536832D01*
X-2355438Y-24519562D01*
X-2338168Y-24503910D01*
X-2319448Y-24490026D01*
X-2299457Y-24478044D01*
X-2278387Y-24468079D01*
X-2256443Y-24460227D01*
X-2233834Y-24454563D01*
X-2210779Y-24451144D01*
X-2187500Y-24450000D01*
X-1712500Y-24450000D01*
X-1689221Y-24451144D01*
X-1689221Y-24451144D01*
G37*
D21*
X-1950000Y-24975000D03*
D15*
G36*
X-4389221Y-24451144D02*
G01*
X-4366166Y-24454563D01*
X-4343557Y-24460227D01*
X-4321613Y-24468079D01*
X-4300543Y-24478044D01*
X-4280552Y-24490026D01*
X-4261832Y-24503910D01*
X-4244562Y-24519562D01*
X-4228910Y-24536832D01*
X-4215026Y-24555552D01*
X-4203044Y-24575543D01*
X-4193079Y-24596613D01*
X-4185227Y-24618557D01*
X-4179563Y-24641166D01*
X-4176144Y-24664221D01*
X-4175000Y-24687500D01*
X-4175000Y-25262500D01*
X-4176144Y-25285779D01*
X-4179563Y-25308834D01*
X-4185227Y-25331443D01*
X-4193079Y-25353387D01*
X-4203044Y-25374457D01*
X-4215026Y-25394448D01*
X-4228910Y-25413168D01*
X-4244562Y-25430438D01*
X-4261832Y-25446090D01*
X-4280552Y-25459974D01*
X-4300543Y-25471956D01*
X-4321613Y-25481921D01*
X-4343557Y-25489773D01*
X-4366166Y-25495437D01*
X-4389221Y-25498856D01*
X-4412500Y-25500000D01*
X-4887500Y-25500000D01*
X-4910779Y-25498856D01*
X-4933834Y-25495437D01*
X-4956443Y-25489773D01*
X-4978387Y-25481921D01*
X-4999457Y-25471956D01*
X-5019448Y-25459974D01*
X-5038168Y-25446090D01*
X-5055438Y-25430438D01*
X-5071090Y-25413168D01*
X-5084974Y-25394448D01*
X-5096956Y-25374457D01*
X-5106921Y-25353387D01*
X-5114773Y-25331443D01*
X-5120437Y-25308834D01*
X-5123856Y-25285779D01*
X-5125000Y-25262500D01*
X-5125000Y-24687500D01*
X-5123856Y-24664221D01*
X-5120437Y-24641166D01*
X-5114773Y-24618557D01*
X-5106921Y-24596613D01*
X-5096956Y-24575543D01*
X-5084974Y-24555552D01*
X-5071090Y-24536832D01*
X-5055438Y-24519562D01*
X-5038168Y-24503910D01*
X-5019448Y-24490026D01*
X-4999457Y-24478044D01*
X-4978387Y-24468079D01*
X-4956443Y-24460227D01*
X-4933834Y-24454563D01*
X-4910779Y-24451144D01*
X-4887500Y-24450000D01*
X-4412500Y-24450000D01*
X-4389221Y-24451144D01*
X-4389221Y-24451144D01*
G37*
D21*
X-4650000Y-24975000D03*
D15*
G36*
X-4389221Y-22701144D02*
G01*
X-4366166Y-22704563D01*
X-4343557Y-22710227D01*
X-4321613Y-22718079D01*
X-4300543Y-22728044D01*
X-4280552Y-22740026D01*
X-4261832Y-22753910D01*
X-4244562Y-22769562D01*
X-4228910Y-22786832D01*
X-4215026Y-22805552D01*
X-4203044Y-22825543D01*
X-4193079Y-22846613D01*
X-4185227Y-22868557D01*
X-4179563Y-22891166D01*
X-4176144Y-22914221D01*
X-4175000Y-22937500D01*
X-4175000Y-23512500D01*
X-4176144Y-23535779D01*
X-4179563Y-23558834D01*
X-4185227Y-23581443D01*
X-4193079Y-23603387D01*
X-4203044Y-23624457D01*
X-4215026Y-23644448D01*
X-4228910Y-23663168D01*
X-4244562Y-23680438D01*
X-4261832Y-23696090D01*
X-4280552Y-23709974D01*
X-4300543Y-23721956D01*
X-4321613Y-23731921D01*
X-4343557Y-23739773D01*
X-4366166Y-23745437D01*
X-4389221Y-23748856D01*
X-4412500Y-23750000D01*
X-4887500Y-23750000D01*
X-4910779Y-23748856D01*
X-4933834Y-23745437D01*
X-4956443Y-23739773D01*
X-4978387Y-23731921D01*
X-4999457Y-23721956D01*
X-5019448Y-23709974D01*
X-5038168Y-23696090D01*
X-5055438Y-23680438D01*
X-5071090Y-23663168D01*
X-5084974Y-23644448D01*
X-5096956Y-23624457D01*
X-5106921Y-23603387D01*
X-5114773Y-23581443D01*
X-5120437Y-23558834D01*
X-5123856Y-23535779D01*
X-5125000Y-23512500D01*
X-5125000Y-22937500D01*
X-5123856Y-22914221D01*
X-5120437Y-22891166D01*
X-5114773Y-22868557D01*
X-5106921Y-22846613D01*
X-5096956Y-22825543D01*
X-5084974Y-22805552D01*
X-5071090Y-22786832D01*
X-5055438Y-22769562D01*
X-5038168Y-22753910D01*
X-5019448Y-22740026D01*
X-4999457Y-22728044D01*
X-4978387Y-22718079D01*
X-4956443Y-22710227D01*
X-4933834Y-22704563D01*
X-4910779Y-22701144D01*
X-4887500Y-22700000D01*
X-4412500Y-22700000D01*
X-4389221Y-22701144D01*
X-4389221Y-22701144D01*
G37*
D21*
X-4650000Y-23225000D03*
D15*
G36*
X7360779Y8773856D02*
G01*
X7383834Y8770437D01*
X7406443Y8764773D01*
X7428387Y8756921D01*
X7449457Y8746956D01*
X7469448Y8734974D01*
X7488168Y8721090D01*
X7505438Y8705438D01*
X7521090Y8688168D01*
X7534974Y8669448D01*
X7546956Y8649457D01*
X7556921Y8628387D01*
X7564773Y8606443D01*
X7570437Y8583834D01*
X7573856Y8560779D01*
X7575000Y8537500D01*
X7575000Y8062500D01*
X7573856Y8039221D01*
X7570437Y8016166D01*
X7564773Y7993557D01*
X7556921Y7971613D01*
X7546956Y7950543D01*
X7534974Y7930552D01*
X7521090Y7911832D01*
X7505438Y7894562D01*
X7488168Y7878910D01*
X7469448Y7865026D01*
X7449457Y7853044D01*
X7428387Y7843079D01*
X7406443Y7835227D01*
X7383834Y7829563D01*
X7360779Y7826144D01*
X7337500Y7825000D01*
X6762500Y7825000D01*
X6739221Y7826144D01*
X6716166Y7829563D01*
X6693557Y7835227D01*
X6671613Y7843079D01*
X6650543Y7853044D01*
X6630552Y7865026D01*
X6611832Y7878910D01*
X6594562Y7894562D01*
X6578910Y7911832D01*
X6565026Y7930552D01*
X6553044Y7950543D01*
X6543079Y7971613D01*
X6535227Y7993557D01*
X6529563Y8016166D01*
X6526144Y8039221D01*
X6525000Y8062500D01*
X6525000Y8537500D01*
X6526144Y8560779D01*
X6529563Y8583834D01*
X6535227Y8606443D01*
X6543079Y8628387D01*
X6553044Y8649457D01*
X6565026Y8669448D01*
X6578910Y8688168D01*
X6594562Y8705438D01*
X6611832Y8721090D01*
X6630552Y8734974D01*
X6650543Y8746956D01*
X6671613Y8756921D01*
X6693557Y8764773D01*
X6716166Y8770437D01*
X6739221Y8773856D01*
X6762500Y8775000D01*
X7337500Y8775000D01*
X7360779Y8773856D01*
X7360779Y8773856D01*
G37*
D21*
X7050000Y8300000D03*
D15*
G36*
X9110779Y8773856D02*
G01*
X9133834Y8770437D01*
X9156443Y8764773D01*
X9178387Y8756921D01*
X9199457Y8746956D01*
X9219448Y8734974D01*
X9238168Y8721090D01*
X9255438Y8705438D01*
X9271090Y8688168D01*
X9284974Y8669448D01*
X9296956Y8649457D01*
X9306921Y8628387D01*
X9314773Y8606443D01*
X9320437Y8583834D01*
X9323856Y8560779D01*
X9325000Y8537500D01*
X9325000Y8062500D01*
X9323856Y8039221D01*
X9320437Y8016166D01*
X9314773Y7993557D01*
X9306921Y7971613D01*
X9296956Y7950543D01*
X9284974Y7930552D01*
X9271090Y7911832D01*
X9255438Y7894562D01*
X9238168Y7878910D01*
X9219448Y7865026D01*
X9199457Y7853044D01*
X9178387Y7843079D01*
X9156443Y7835227D01*
X9133834Y7829563D01*
X9110779Y7826144D01*
X9087500Y7825000D01*
X8512500Y7825000D01*
X8489221Y7826144D01*
X8466166Y7829563D01*
X8443557Y7835227D01*
X8421613Y7843079D01*
X8400543Y7853044D01*
X8380552Y7865026D01*
X8361832Y7878910D01*
X8344562Y7894562D01*
X8328910Y7911832D01*
X8315026Y7930552D01*
X8303044Y7950543D01*
X8293079Y7971613D01*
X8285227Y7993557D01*
X8279563Y8016166D01*
X8276144Y8039221D01*
X8275000Y8062500D01*
X8275000Y8537500D01*
X8276144Y8560779D01*
X8279563Y8583834D01*
X8285227Y8606443D01*
X8293079Y8628387D01*
X8303044Y8649457D01*
X8315026Y8669448D01*
X8328910Y8688168D01*
X8344562Y8705438D01*
X8361832Y8721090D01*
X8380552Y8734974D01*
X8400543Y8746956D01*
X8421613Y8756921D01*
X8443557Y8764773D01*
X8466166Y8770437D01*
X8489221Y8773856D01*
X8512500Y8775000D01*
X9087500Y8775000D01*
X9110779Y8773856D01*
X9110779Y8773856D01*
G37*
D21*
X8800000Y8300000D03*
D15*
G36*
X11135779Y8773856D02*
G01*
X11158834Y8770437D01*
X11181443Y8764773D01*
X11203387Y8756921D01*
X11224457Y8746956D01*
X11244448Y8734974D01*
X11263168Y8721090D01*
X11280438Y8705438D01*
X11296090Y8688168D01*
X11309974Y8669448D01*
X11321956Y8649457D01*
X11331921Y8628387D01*
X11339773Y8606443D01*
X11345437Y8583834D01*
X11348856Y8560779D01*
X11350000Y8537500D01*
X11350000Y8062500D01*
X11348856Y8039221D01*
X11345437Y8016166D01*
X11339773Y7993557D01*
X11331921Y7971613D01*
X11321956Y7950543D01*
X11309974Y7930552D01*
X11296090Y7911832D01*
X11280438Y7894562D01*
X11263168Y7878910D01*
X11244448Y7865026D01*
X11224457Y7853044D01*
X11203387Y7843079D01*
X11181443Y7835227D01*
X11158834Y7829563D01*
X11135779Y7826144D01*
X11112500Y7825000D01*
X10537500Y7825000D01*
X10514221Y7826144D01*
X10491166Y7829563D01*
X10468557Y7835227D01*
X10446613Y7843079D01*
X10425543Y7853044D01*
X10405552Y7865026D01*
X10386832Y7878910D01*
X10369562Y7894562D01*
X10353910Y7911832D01*
X10340026Y7930552D01*
X10328044Y7950543D01*
X10318079Y7971613D01*
X10310227Y7993557D01*
X10304563Y8016166D01*
X10301144Y8039221D01*
X10300000Y8062500D01*
X10300000Y8537500D01*
X10301144Y8560779D01*
X10304563Y8583834D01*
X10310227Y8606443D01*
X10318079Y8628387D01*
X10328044Y8649457D01*
X10340026Y8669448D01*
X10353910Y8688168D01*
X10369562Y8705438D01*
X10386832Y8721090D01*
X10405552Y8734974D01*
X10425543Y8746956D01*
X10446613Y8756921D01*
X10468557Y8764773D01*
X10491166Y8770437D01*
X10514221Y8773856D01*
X10537500Y8775000D01*
X11112500Y8775000D01*
X11135779Y8773856D01*
X11135779Y8773856D01*
G37*
D21*
X10825000Y8300000D03*
D15*
G36*
X12885779Y8773856D02*
G01*
X12908834Y8770437D01*
X12931443Y8764773D01*
X12953387Y8756921D01*
X12974457Y8746956D01*
X12994448Y8734974D01*
X13013168Y8721090D01*
X13030438Y8705438D01*
X13046090Y8688168D01*
X13059974Y8669448D01*
X13071956Y8649457D01*
X13081921Y8628387D01*
X13089773Y8606443D01*
X13095437Y8583834D01*
X13098856Y8560779D01*
X13100000Y8537500D01*
X13100000Y8062500D01*
X13098856Y8039221D01*
X13095437Y8016166D01*
X13089773Y7993557D01*
X13081921Y7971613D01*
X13071956Y7950543D01*
X13059974Y7930552D01*
X13046090Y7911832D01*
X13030438Y7894562D01*
X13013168Y7878910D01*
X12994448Y7865026D01*
X12974457Y7853044D01*
X12953387Y7843079D01*
X12931443Y7835227D01*
X12908834Y7829563D01*
X12885779Y7826144D01*
X12862500Y7825000D01*
X12287500Y7825000D01*
X12264221Y7826144D01*
X12241166Y7829563D01*
X12218557Y7835227D01*
X12196613Y7843079D01*
X12175543Y7853044D01*
X12155552Y7865026D01*
X12136832Y7878910D01*
X12119562Y7894562D01*
X12103910Y7911832D01*
X12090026Y7930552D01*
X12078044Y7950543D01*
X12068079Y7971613D01*
X12060227Y7993557D01*
X12054563Y8016166D01*
X12051144Y8039221D01*
X12050000Y8062500D01*
X12050000Y8537500D01*
X12051144Y8560779D01*
X12054563Y8583834D01*
X12060227Y8606443D01*
X12068079Y8628387D01*
X12078044Y8649457D01*
X12090026Y8669448D01*
X12103910Y8688168D01*
X12119562Y8705438D01*
X12136832Y8721090D01*
X12155552Y8734974D01*
X12175543Y8746956D01*
X12196613Y8756921D01*
X12218557Y8764773D01*
X12241166Y8770437D01*
X12264221Y8773856D01*
X12287500Y8775000D01*
X12862500Y8775000D01*
X12885779Y8773856D01*
X12885779Y8773856D01*
G37*
D21*
X12575000Y8300000D03*
D22*
X28550000Y2125000D03*
D23*
X27575000Y1400000D03*
X27575000Y900000D03*
X27575000Y400000D03*
X27575000Y-100000D03*
X27575000Y-600000D03*
D22*
X28550000Y-1325000D03*
X30050000Y-1325000D03*
D23*
X31025000Y-600000D03*
X31025000Y-100000D03*
X31025000Y400000D03*
X31025000Y900000D03*
X31025000Y1400000D03*
D22*
X30050000Y2125000D03*
D24*
X29860000Y-160000D03*
X28740000Y-160000D03*
X28740000Y960000D03*
X29860000Y960000D03*
D25*
X-6800000Y-21975000D03*
X-6800000Y-21325000D03*
X-6800000Y-20675000D03*
X-6800000Y-20025000D03*
X-11200000Y-20025000D03*
X-11200000Y-20675000D03*
X-11200000Y-21325000D03*
X-11200000Y-21975000D03*
D24*
X-9960000Y865000D03*
X-8840000Y865000D03*
X-8840000Y1985000D03*
X-9960000Y1985000D03*
D22*
X-10150000Y-300000D03*
D23*
X-11125000Y425000D03*
X-11125000Y925000D03*
X-11125000Y1425000D03*
X-11125000Y1925000D03*
X-11125000Y2425000D03*
D22*
X-10150000Y3150000D03*
X-8650000Y3150000D03*
D23*
X-7675000Y2425000D03*
X-7675000Y1925000D03*
X-7675000Y1425000D03*
X-7675000Y925000D03*
X-7675000Y425000D03*
D22*
X-8650000Y-300000D03*
D26*
X14550000Y1150000D03*
X11875000Y350000D03*
X10000000Y350000D03*
X8125000Y350000D03*
X14550000Y5050000D03*
X14550000Y3750000D03*
X14550000Y2450000D03*
X5450000Y1150000D03*
X6250000Y350000D03*
X5450000Y350000D03*
X6250000Y-450000D03*
X5450000Y-450000D03*
X6250000Y-1250000D03*
X5450000Y-1250000D03*
X6250000Y-2050000D03*
X5450000Y-2050000D03*
X6250000Y-2850000D03*
X5450000Y-2850000D03*
X6250000Y-3650000D03*
X5450000Y-3650000D03*
X6250000Y-4450000D03*
X5450000Y-4450000D03*
X6250000Y-5250000D03*
X5450000Y-5250000D03*
X6250000Y-6050000D03*
X5450000Y-6050000D03*
X6250000Y-6850000D03*
X5450000Y-6850000D03*
X6250000Y-7650000D03*
X5450000Y-7650000D03*
X5600000Y-8450000D03*
X6400000Y-8450000D03*
X7200000Y-7650000D03*
X7200000Y-8450000D03*
X8000000Y-7650000D03*
X8000000Y-8450000D03*
X8800000Y-7650000D03*
X8800000Y-8450000D03*
X9600000Y-7650000D03*
X9600000Y-8450000D03*
X10400000Y-7650000D03*
X10400000Y-8450000D03*
X11200000Y-7650000D03*
X11200000Y-8450000D03*
X12000000Y-7650000D03*
X12000000Y-8450000D03*
X12800000Y-7650000D03*
X12800000Y-8450000D03*
X13600000Y-8450000D03*
X14400000Y-8450000D03*
X13750000Y-7650000D03*
X14550000Y-7650000D03*
X13750000Y-6850000D03*
X14550000Y-6850000D03*
X13750000Y-6050000D03*
X14550000Y-6050000D03*
X13750000Y-5250000D03*
X14550000Y-5250000D03*
X13750000Y-4450000D03*
X14550000Y-4450000D03*
X13750000Y-3650000D03*
X14550000Y-3650000D03*
X13750000Y-2850000D03*
X14550000Y-2850000D03*
X13750000Y-2050000D03*
X14550000Y-2050000D03*
X13750000Y-1250000D03*
X14550000Y-1250000D03*
X13750000Y-450000D03*
X14550000Y-450000D03*
X13750000Y350000D03*
X14550000Y350000D03*
D27*
X-1250000Y-29650000D03*
D28*
X-250000Y-31100000D03*
X-1250000Y-31100000D03*
X-2250000Y-31100000D03*
X-2250000Y-28200000D03*
X-1250000Y-28200000D03*
X-250000Y-28200000D03*
D15*
G36*
X4359802Y-30700482D02*
G01*
X4369509Y-30701921D01*
X4379028Y-30704306D01*
X4388268Y-30707612D01*
X4397140Y-30711808D01*
X4405557Y-30716853D01*
X4413439Y-30722699D01*
X4420711Y-30729289D01*
X4427301Y-30736561D01*
X4433147Y-30744443D01*
X4438192Y-30752860D01*
X4442388Y-30761732D01*
X4445694Y-30770972D01*
X4448079Y-30780491D01*
X4449518Y-30790198D01*
X4450000Y-30800000D01*
X4450000Y-31400000D01*
X4449518Y-31409802D01*
X4448079Y-31419509D01*
X4445694Y-31429028D01*
X4442388Y-31438268D01*
X4438192Y-31447140D01*
X4433147Y-31455557D01*
X4427301Y-31463439D01*
X4420711Y-31470711D01*
X4413439Y-31477301D01*
X4405557Y-31483147D01*
X4397140Y-31488192D01*
X4388268Y-31492388D01*
X4379028Y-31495694D01*
X4369509Y-31498079D01*
X4359802Y-31499518D01*
X4350000Y-31500000D01*
X4150000Y-31500000D01*
X4140198Y-31499518D01*
X4130491Y-31498079D01*
X4120972Y-31495694D01*
X4111732Y-31492388D01*
X4102860Y-31488192D01*
X4094443Y-31483147D01*
X4086561Y-31477301D01*
X4079289Y-31470711D01*
X4072699Y-31463439D01*
X4066853Y-31455557D01*
X4061808Y-31447140D01*
X4057612Y-31438268D01*
X4054306Y-31429028D01*
X4051921Y-31419509D01*
X4050482Y-31409802D01*
X4050000Y-31400000D01*
X4050000Y-30800000D01*
X4050482Y-30790198D01*
X4051921Y-30780491D01*
X4054306Y-30770972D01*
X4057612Y-30761732D01*
X4061808Y-30752860D01*
X4066853Y-30744443D01*
X4072699Y-30736561D01*
X4079289Y-30729289D01*
X4086561Y-30722699D01*
X4094443Y-30716853D01*
X4102860Y-30711808D01*
X4111732Y-30707612D01*
X4120972Y-30704306D01*
X4130491Y-30701921D01*
X4140198Y-30700482D01*
X4150000Y-30700000D01*
X4350000Y-30700000D01*
X4359802Y-30700482D01*
X4359802Y-30700482D01*
G37*
D29*
X4250000Y-31100000D03*
D15*
G36*
X3359802Y-30700482D02*
G01*
X3369509Y-30701921D01*
X3379028Y-30704306D01*
X3388268Y-30707612D01*
X3397140Y-30711808D01*
X3405557Y-30716853D01*
X3413439Y-30722699D01*
X3420711Y-30729289D01*
X3427301Y-30736561D01*
X3433147Y-30744443D01*
X3438192Y-30752860D01*
X3442388Y-30761732D01*
X3445694Y-30770972D01*
X3448079Y-30780491D01*
X3449518Y-30790198D01*
X3450000Y-30800000D01*
X3450000Y-31400000D01*
X3449518Y-31409802D01*
X3448079Y-31419509D01*
X3445694Y-31429028D01*
X3442388Y-31438268D01*
X3438192Y-31447140D01*
X3433147Y-31455557D01*
X3427301Y-31463439D01*
X3420711Y-31470711D01*
X3413439Y-31477301D01*
X3405557Y-31483147D01*
X3397140Y-31488192D01*
X3388268Y-31492388D01*
X3379028Y-31495694D01*
X3369509Y-31498079D01*
X3359802Y-31499518D01*
X3350000Y-31500000D01*
X3150000Y-31500000D01*
X3140198Y-31499518D01*
X3130491Y-31498079D01*
X3120972Y-31495694D01*
X3111732Y-31492388D01*
X3102860Y-31488192D01*
X3094443Y-31483147D01*
X3086561Y-31477301D01*
X3079289Y-31470711D01*
X3072699Y-31463439D01*
X3066853Y-31455557D01*
X3061808Y-31447140D01*
X3057612Y-31438268D01*
X3054306Y-31429028D01*
X3051921Y-31419509D01*
X3050482Y-31409802D01*
X3050000Y-31400000D01*
X3050000Y-30800000D01*
X3050482Y-30790198D01*
X3051921Y-30780491D01*
X3054306Y-30770972D01*
X3057612Y-30761732D01*
X3061808Y-30752860D01*
X3066853Y-30744443D01*
X3072699Y-30736561D01*
X3079289Y-30729289D01*
X3086561Y-30722699D01*
X3094443Y-30716853D01*
X3102860Y-30711808D01*
X3111732Y-30707612D01*
X3120972Y-30704306D01*
X3130491Y-30701921D01*
X3140198Y-30700482D01*
X3150000Y-30700000D01*
X3350000Y-30700000D01*
X3359802Y-30700482D01*
X3359802Y-30700482D01*
G37*
D29*
X3250000Y-31100000D03*
D15*
G36*
X2359802Y-30700482D02*
G01*
X2369509Y-30701921D01*
X2379028Y-30704306D01*
X2388268Y-30707612D01*
X2397140Y-30711808D01*
X2405557Y-30716853D01*
X2413439Y-30722699D01*
X2420711Y-30729289D01*
X2427301Y-30736561D01*
X2433147Y-30744443D01*
X2438192Y-30752860D01*
X2442388Y-30761732D01*
X2445694Y-30770972D01*
X2448079Y-30780491D01*
X2449518Y-30790198D01*
X2450000Y-30800000D01*
X2450000Y-31400000D01*
X2449518Y-31409802D01*
X2448079Y-31419509D01*
X2445694Y-31429028D01*
X2442388Y-31438268D01*
X2438192Y-31447140D01*
X2433147Y-31455557D01*
X2427301Y-31463439D01*
X2420711Y-31470711D01*
X2413439Y-31477301D01*
X2405557Y-31483147D01*
X2397140Y-31488192D01*
X2388268Y-31492388D01*
X2379028Y-31495694D01*
X2369509Y-31498079D01*
X2359802Y-31499518D01*
X2350000Y-31500000D01*
X2150000Y-31500000D01*
X2140198Y-31499518D01*
X2130491Y-31498079D01*
X2120972Y-31495694D01*
X2111732Y-31492388D01*
X2102860Y-31488192D01*
X2094443Y-31483147D01*
X2086561Y-31477301D01*
X2079289Y-31470711D01*
X2072699Y-31463439D01*
X2066853Y-31455557D01*
X2061808Y-31447140D01*
X2057612Y-31438268D01*
X2054306Y-31429028D01*
X2051921Y-31419509D01*
X2050482Y-31409802D01*
X2050000Y-31400000D01*
X2050000Y-30800000D01*
X2050482Y-30790198D01*
X2051921Y-30780491D01*
X2054306Y-30770972D01*
X2057612Y-30761732D01*
X2061808Y-30752860D01*
X2066853Y-30744443D01*
X2072699Y-30736561D01*
X2079289Y-30729289D01*
X2086561Y-30722699D01*
X2094443Y-30716853D01*
X2102860Y-30711808D01*
X2111732Y-30707612D01*
X2120972Y-30704306D01*
X2130491Y-30701921D01*
X2140198Y-30700482D01*
X2150000Y-30700000D01*
X2350000Y-30700000D01*
X2359802Y-30700482D01*
X2359802Y-30700482D01*
G37*
D29*
X2250000Y-31100000D03*
D15*
G36*
X2359802Y-27800482D02*
G01*
X2369509Y-27801921D01*
X2379028Y-27804306D01*
X2388268Y-27807612D01*
X2397140Y-27811808D01*
X2405557Y-27816853D01*
X2413439Y-27822699D01*
X2420711Y-27829289D01*
X2427301Y-27836561D01*
X2433147Y-27844443D01*
X2438192Y-27852860D01*
X2442388Y-27861732D01*
X2445694Y-27870972D01*
X2448079Y-27880491D01*
X2449518Y-27890198D01*
X2450000Y-27900000D01*
X2450000Y-28500000D01*
X2449518Y-28509802D01*
X2448079Y-28519509D01*
X2445694Y-28529028D01*
X2442388Y-28538268D01*
X2438192Y-28547140D01*
X2433147Y-28555557D01*
X2427301Y-28563439D01*
X2420711Y-28570711D01*
X2413439Y-28577301D01*
X2405557Y-28583147D01*
X2397140Y-28588192D01*
X2388268Y-28592388D01*
X2379028Y-28595694D01*
X2369509Y-28598079D01*
X2359802Y-28599518D01*
X2350000Y-28600000D01*
X2150000Y-28600000D01*
X2140198Y-28599518D01*
X2130491Y-28598079D01*
X2120972Y-28595694D01*
X2111732Y-28592388D01*
X2102860Y-28588192D01*
X2094443Y-28583147D01*
X2086561Y-28577301D01*
X2079289Y-28570711D01*
X2072699Y-28563439D01*
X2066853Y-28555557D01*
X2061808Y-28547140D01*
X2057612Y-28538268D01*
X2054306Y-28529028D01*
X2051921Y-28519509D01*
X2050482Y-28509802D01*
X2050000Y-28500000D01*
X2050000Y-27900000D01*
X2050482Y-27890198D01*
X2051921Y-27880491D01*
X2054306Y-27870972D01*
X2057612Y-27861732D01*
X2061808Y-27852860D01*
X2066853Y-27844443D01*
X2072699Y-27836561D01*
X2079289Y-27829289D01*
X2086561Y-27822699D01*
X2094443Y-27816853D01*
X2102860Y-27811808D01*
X2111732Y-27807612D01*
X2120972Y-27804306D01*
X2130491Y-27801921D01*
X2140198Y-27800482D01*
X2150000Y-27800000D01*
X2350000Y-27800000D01*
X2359802Y-27800482D01*
X2359802Y-27800482D01*
G37*
D29*
X2250000Y-28200000D03*
D15*
G36*
X3359802Y-27800482D02*
G01*
X3369509Y-27801921D01*
X3379028Y-27804306D01*
X3388268Y-27807612D01*
X3397140Y-27811808D01*
X3405557Y-27816853D01*
X3413439Y-27822699D01*
X3420711Y-27829289D01*
X3427301Y-27836561D01*
X3433147Y-27844443D01*
X3438192Y-27852860D01*
X3442388Y-27861732D01*
X3445694Y-27870972D01*
X3448079Y-27880491D01*
X3449518Y-27890198D01*
X3450000Y-27900000D01*
X3450000Y-28500000D01*
X3449518Y-28509802D01*
X3448079Y-28519509D01*
X3445694Y-28529028D01*
X3442388Y-28538268D01*
X3438192Y-28547140D01*
X3433147Y-28555557D01*
X3427301Y-28563439D01*
X3420711Y-28570711D01*
X3413439Y-28577301D01*
X3405557Y-28583147D01*
X3397140Y-28588192D01*
X3388268Y-28592388D01*
X3379028Y-28595694D01*
X3369509Y-28598079D01*
X3359802Y-28599518D01*
X3350000Y-28600000D01*
X3150000Y-28600000D01*
X3140198Y-28599518D01*
X3130491Y-28598079D01*
X3120972Y-28595694D01*
X3111732Y-28592388D01*
X3102860Y-28588192D01*
X3094443Y-28583147D01*
X3086561Y-28577301D01*
X3079289Y-28570711D01*
X3072699Y-28563439D01*
X3066853Y-28555557D01*
X3061808Y-28547140D01*
X3057612Y-28538268D01*
X3054306Y-28529028D01*
X3051921Y-28519509D01*
X3050482Y-28509802D01*
X3050000Y-28500000D01*
X3050000Y-27900000D01*
X3050482Y-27890198D01*
X3051921Y-27880491D01*
X3054306Y-27870972D01*
X3057612Y-27861732D01*
X3061808Y-27852860D01*
X3066853Y-27844443D01*
X3072699Y-27836561D01*
X3079289Y-27829289D01*
X3086561Y-27822699D01*
X3094443Y-27816853D01*
X3102860Y-27811808D01*
X3111732Y-27807612D01*
X3120972Y-27804306D01*
X3130491Y-27801921D01*
X3140198Y-27800482D01*
X3150000Y-27800000D01*
X3350000Y-27800000D01*
X3359802Y-27800482D01*
X3359802Y-27800482D01*
G37*
D29*
X3250000Y-28200000D03*
D15*
G36*
X4359802Y-27800482D02*
G01*
X4369509Y-27801921D01*
X4379028Y-27804306D01*
X4388268Y-27807612D01*
X4397140Y-27811808D01*
X4405557Y-27816853D01*
X4413439Y-27822699D01*
X4420711Y-27829289D01*
X4427301Y-27836561D01*
X4433147Y-27844443D01*
X4438192Y-27852860D01*
X4442388Y-27861732D01*
X4445694Y-27870972D01*
X4448079Y-27880491D01*
X4449518Y-27890198D01*
X4450000Y-27900000D01*
X4450000Y-28500000D01*
X4449518Y-28509802D01*
X4448079Y-28519509D01*
X4445694Y-28529028D01*
X4442388Y-28538268D01*
X4438192Y-28547140D01*
X4433147Y-28555557D01*
X4427301Y-28563439D01*
X4420711Y-28570711D01*
X4413439Y-28577301D01*
X4405557Y-28583147D01*
X4397140Y-28588192D01*
X4388268Y-28592388D01*
X4379028Y-28595694D01*
X4369509Y-28598079D01*
X4359802Y-28599518D01*
X4350000Y-28600000D01*
X4150000Y-28600000D01*
X4140198Y-28599518D01*
X4130491Y-28598079D01*
X4120972Y-28595694D01*
X4111732Y-28592388D01*
X4102860Y-28588192D01*
X4094443Y-28583147D01*
X4086561Y-28577301D01*
X4079289Y-28570711D01*
X4072699Y-28563439D01*
X4066853Y-28555557D01*
X4061808Y-28547140D01*
X4057612Y-28538268D01*
X4054306Y-28529028D01*
X4051921Y-28519509D01*
X4050482Y-28509802D01*
X4050000Y-28500000D01*
X4050000Y-27900000D01*
X4050482Y-27890198D01*
X4051921Y-27880491D01*
X4054306Y-27870972D01*
X4057612Y-27861732D01*
X4061808Y-27852860D01*
X4066853Y-27844443D01*
X4072699Y-27836561D01*
X4079289Y-27829289D01*
X4086561Y-27822699D01*
X4094443Y-27816853D01*
X4102860Y-27811808D01*
X4111732Y-27807612D01*
X4120972Y-27804306D01*
X4130491Y-27801921D01*
X4140198Y-27800482D01*
X4150000Y-27800000D01*
X4350000Y-27800000D01*
X4359802Y-27800482D01*
X4359802Y-27800482D01*
G37*
D29*
X4250000Y-28200000D03*
D15*
G36*
X2999703Y-29725722D02*
G01*
X3014264Y-29727882D01*
X3028543Y-29731459D01*
X3042403Y-29736418D01*
X3055710Y-29742712D01*
X3068336Y-29750280D01*
X3080159Y-29759048D01*
X3091066Y-29768934D01*
X3100952Y-29779841D01*
X3109720Y-29791664D01*
X3117288Y-29804290D01*
X3123582Y-29817597D01*
X3128541Y-29831457D01*
X3132118Y-29845736D01*
X3134278Y-29860297D01*
X3135000Y-29875000D01*
X3135000Y-30175000D01*
X3134278Y-30189703D01*
X3132118Y-30204264D01*
X3128541Y-30218543D01*
X3123582Y-30232403D01*
X3117288Y-30245710D01*
X3109720Y-30258336D01*
X3100952Y-30270159D01*
X3091066Y-30281066D01*
X3080159Y-30290952D01*
X3068336Y-30299720D01*
X3055710Y-30307288D01*
X3042403Y-30313582D01*
X3028543Y-30318541D01*
X3014264Y-30322118D01*
X2999703Y-30324278D01*
X2985000Y-30325000D01*
X2315000Y-30325000D01*
X2300297Y-30324278D01*
X2285736Y-30322118D01*
X2271457Y-30318541D01*
X2257597Y-30313582D01*
X2244290Y-30307288D01*
X2231664Y-30299720D01*
X2219841Y-30290952D01*
X2208934Y-30281066D01*
X2199048Y-30270159D01*
X2190280Y-30258336D01*
X2182712Y-30245710D01*
X2176418Y-30232403D01*
X2171459Y-30218543D01*
X2167882Y-30204264D01*
X2165722Y-30189703D01*
X2165000Y-30175000D01*
X2165000Y-29875000D01*
X2165722Y-29860297D01*
X2167882Y-29845736D01*
X2171459Y-29831457D01*
X2176418Y-29817597D01*
X2182712Y-29804290D01*
X2190280Y-29791664D01*
X2199048Y-29779841D01*
X2208934Y-29768934D01*
X2219841Y-29759048D01*
X2231664Y-29750280D01*
X2244290Y-29742712D01*
X2257597Y-29736418D01*
X2271457Y-29731459D01*
X2285736Y-29727882D01*
X2300297Y-29725722D01*
X2315000Y-29725000D01*
X2985000Y-29725000D01*
X2999703Y-29725722D01*
X2999703Y-29725722D01*
G37*
D30*
X2650000Y-30025000D03*
D15*
G36*
X4199703Y-29725722D02*
G01*
X4214264Y-29727882D01*
X4228543Y-29731459D01*
X4242403Y-29736418D01*
X4255710Y-29742712D01*
X4268336Y-29750280D01*
X4280159Y-29759048D01*
X4291066Y-29768934D01*
X4300952Y-29779841D01*
X4309720Y-29791664D01*
X4317288Y-29804290D01*
X4323582Y-29817597D01*
X4328541Y-29831457D01*
X4332118Y-29845736D01*
X4334278Y-29860297D01*
X4335000Y-29875000D01*
X4335000Y-30175000D01*
X4334278Y-30189703D01*
X4332118Y-30204264D01*
X4328541Y-30218543D01*
X4323582Y-30232403D01*
X4317288Y-30245710D01*
X4309720Y-30258336D01*
X4300952Y-30270159D01*
X4291066Y-30281066D01*
X4280159Y-30290952D01*
X4268336Y-30299720D01*
X4255710Y-30307288D01*
X4242403Y-30313582D01*
X4228543Y-30318541D01*
X4214264Y-30322118D01*
X4199703Y-30324278D01*
X4185000Y-30325000D01*
X3515000Y-30325000D01*
X3500297Y-30324278D01*
X3485736Y-30322118D01*
X3471457Y-30318541D01*
X3457597Y-30313582D01*
X3444290Y-30307288D01*
X3431664Y-30299720D01*
X3419841Y-30290952D01*
X3408934Y-30281066D01*
X3399048Y-30270159D01*
X3390280Y-30258336D01*
X3382712Y-30245710D01*
X3376418Y-30232403D01*
X3371459Y-30218543D01*
X3367882Y-30204264D01*
X3365722Y-30189703D01*
X3365000Y-30175000D01*
X3365000Y-29875000D01*
X3365722Y-29860297D01*
X3367882Y-29845736D01*
X3371459Y-29831457D01*
X3376418Y-29817597D01*
X3382712Y-29804290D01*
X3390280Y-29791664D01*
X3399048Y-29779841D01*
X3408934Y-29768934D01*
X3419841Y-29759048D01*
X3431664Y-29750280D01*
X3444290Y-29742712D01*
X3457597Y-29736418D01*
X3471457Y-29731459D01*
X3485736Y-29727882D01*
X3500297Y-29725722D01*
X3515000Y-29725000D01*
X4185000Y-29725000D01*
X4199703Y-29725722D01*
X4199703Y-29725722D01*
G37*
D30*
X3850000Y-30025000D03*
D15*
G36*
X2999703Y-28975722D02*
G01*
X3014264Y-28977882D01*
X3028543Y-28981459D01*
X3042403Y-28986418D01*
X3055710Y-28992712D01*
X3068336Y-29000280D01*
X3080159Y-29009048D01*
X3091066Y-29018934D01*
X3100952Y-29029841D01*
X3109720Y-29041664D01*
X3117288Y-29054290D01*
X3123582Y-29067597D01*
X3128541Y-29081457D01*
X3132118Y-29095736D01*
X3134278Y-29110297D01*
X3135000Y-29125000D01*
X3135000Y-29425000D01*
X3134278Y-29439703D01*
X3132118Y-29454264D01*
X3128541Y-29468543D01*
X3123582Y-29482403D01*
X3117288Y-29495710D01*
X3109720Y-29508336D01*
X3100952Y-29520159D01*
X3091066Y-29531066D01*
X3080159Y-29540952D01*
X3068336Y-29549720D01*
X3055710Y-29557288D01*
X3042403Y-29563582D01*
X3028543Y-29568541D01*
X3014264Y-29572118D01*
X2999703Y-29574278D01*
X2985000Y-29575000D01*
X2315000Y-29575000D01*
X2300297Y-29574278D01*
X2285736Y-29572118D01*
X2271457Y-29568541D01*
X2257597Y-29563582D01*
X2244290Y-29557288D01*
X2231664Y-29549720D01*
X2219841Y-29540952D01*
X2208934Y-29531066D01*
X2199048Y-29520159D01*
X2190280Y-29508336D01*
X2182712Y-29495710D01*
X2176418Y-29482403D01*
X2171459Y-29468543D01*
X2167882Y-29454264D01*
X2165722Y-29439703D01*
X2165000Y-29425000D01*
X2165000Y-29125000D01*
X2165722Y-29110297D01*
X2167882Y-29095736D01*
X2171459Y-29081457D01*
X2176418Y-29067597D01*
X2182712Y-29054290D01*
X2190280Y-29041664D01*
X2199048Y-29029841D01*
X2208934Y-29018934D01*
X2219841Y-29009048D01*
X2231664Y-29000280D01*
X2244290Y-28992712D01*
X2257597Y-28986418D01*
X2271457Y-28981459D01*
X2285736Y-28977882D01*
X2300297Y-28975722D01*
X2315000Y-28975000D01*
X2985000Y-28975000D01*
X2999703Y-28975722D01*
X2999703Y-28975722D01*
G37*
D30*
X2650000Y-29275000D03*
D15*
G36*
X4199703Y-28975722D02*
G01*
X4214264Y-28977882D01*
X4228543Y-28981459D01*
X4242403Y-28986418D01*
X4255710Y-28992712D01*
X4268336Y-29000280D01*
X4280159Y-29009048D01*
X4291066Y-29018934D01*
X4300952Y-29029841D01*
X4309720Y-29041664D01*
X4317288Y-29054290D01*
X4323582Y-29067597D01*
X4328541Y-29081457D01*
X4332118Y-29095736D01*
X4334278Y-29110297D01*
X4335000Y-29125000D01*
X4335000Y-29425000D01*
X4334278Y-29439703D01*
X4332118Y-29454264D01*
X4328541Y-29468543D01*
X4323582Y-29482403D01*
X4317288Y-29495710D01*
X4309720Y-29508336D01*
X4300952Y-29520159D01*
X4291066Y-29531066D01*
X4280159Y-29540952D01*
X4268336Y-29549720D01*
X4255710Y-29557288D01*
X4242403Y-29563582D01*
X4228543Y-29568541D01*
X4214264Y-29572118D01*
X4199703Y-29574278D01*
X4185000Y-29575000D01*
X3515000Y-29575000D01*
X3500297Y-29574278D01*
X3485736Y-29572118D01*
X3471457Y-29568541D01*
X3457597Y-29563582D01*
X3444290Y-29557288D01*
X3431664Y-29549720D01*
X3419841Y-29540952D01*
X3408934Y-29531066D01*
X3399048Y-29520159D01*
X3390280Y-29508336D01*
X3382712Y-29495710D01*
X3376418Y-29482403D01*
X3371459Y-29468543D01*
X3367882Y-29454264D01*
X3365722Y-29439703D01*
X3365000Y-29425000D01*
X3365000Y-29125000D01*
X3365722Y-29110297D01*
X3367882Y-29095736D01*
X3371459Y-29081457D01*
X3376418Y-29067597D01*
X3382712Y-29054290D01*
X3390280Y-29041664D01*
X3399048Y-29029841D01*
X3408934Y-29018934D01*
X3419841Y-29009048D01*
X3431664Y-29000280D01*
X3444290Y-28992712D01*
X3457597Y-28986418D01*
X3471457Y-28981459D01*
X3485736Y-28977882D01*
X3500297Y-28975722D01*
X3515000Y-28975000D01*
X4185000Y-28975000D01*
X4199703Y-28975722D01*
X4199703Y-28975722D01*
G37*
D30*
X3850000Y-29275000D03*
D31*
X7150000Y-11200000D03*
X7150000Y-16700000D03*
X4850000Y-16700000D03*
X4850000Y-11200000D03*
D32*
X25227000Y-6261600D03*
X21427000Y-8661600D03*
X21427000Y-10261600D03*
X21427000Y-11061600D03*
X21427000Y-11861600D03*
X25227000Y-10261600D03*
X21427000Y-9461600D03*
X25227000Y-11061600D03*
X25227000Y-12661600D03*
X25227000Y-8661600D03*
X25227000Y-9461600D03*
X25227000Y-7861600D03*
X25227000Y-11861600D03*
X21427000Y-13461600D03*
X21427000Y-12661600D03*
X21427000Y-7061600D03*
X25227000Y-7061600D03*
X25227000Y-13461600D03*
X21427000Y-7861600D03*
X21427000Y-6261600D03*
X-4625000Y-13596400D03*
X-825000Y-11196400D03*
X-825000Y-9596400D03*
X-825000Y-8796400D03*
X-825000Y-7996400D03*
X-4625000Y-9596400D03*
X-825000Y-10396400D03*
X-4625000Y-8796400D03*
X-4625000Y-7196400D03*
X-4625000Y-11196400D03*
X-4625000Y-10396400D03*
X-4625000Y-11996400D03*
X-4625000Y-7996400D03*
X-825000Y-6396400D03*
X-825000Y-7196400D03*
X-825000Y-12796400D03*
X-4625000Y-12796400D03*
X-4625000Y-6396400D03*
X-825000Y-11996400D03*
X-825000Y-13596400D03*
M02*
