G04 #@! TF.GenerationSoftware,KiCad,Pcbnew,(5.1.0)-1*
G04 #@! TF.CreationDate,2019-06-21T17:50:41-03:00*
G04 #@! TF.ProjectId,PCB_C,5043425f-432e-46b6-9963-61645f706362,rev?*
G04 #@! TF.SameCoordinates,Original*
G04 #@! TF.FileFunction,Soldermask,Top*
G04 #@! TF.FilePolarity,Negative*
%FSLAX46Y46*%
G04 Gerber Fmt 4.6, Leading zero omitted, Abs format (unit mm)*
G04 Created by KiCad (PCBNEW (5.1.0)-1) date 2019-06-21 17:50:41*
%MOMM*%
%LPD*%
G04 APERTURE LIST*
%ADD10C,0.100000*%
G04 APERTURE END LIST*
D10*
G36*
X2539208Y-27603235D02*
G01*
X2564886Y-27611025D01*
X2588557Y-27623677D01*
X2609300Y-27640700D01*
X2626324Y-27661445D01*
X2639760Y-27686582D01*
X2653373Y-27706957D01*
X2670700Y-27724284D01*
X2691074Y-27737898D01*
X2713713Y-27747276D01*
X2737746Y-27752057D01*
X2762250Y-27752057D01*
X2786283Y-27747277D01*
X2808922Y-27737900D01*
X2829297Y-27724287D01*
X2846624Y-27706960D01*
X2860240Y-27686582D01*
X2873676Y-27661445D01*
X2890700Y-27640700D01*
X2911443Y-27623677D01*
X2935114Y-27611025D01*
X2960792Y-27603235D01*
X2993640Y-27600000D01*
X3506360Y-27600000D01*
X3539208Y-27603235D01*
X3564886Y-27611025D01*
X3588557Y-27623677D01*
X3609300Y-27640700D01*
X3626324Y-27661445D01*
X3639760Y-27686582D01*
X3653373Y-27706957D01*
X3670700Y-27724284D01*
X3691074Y-27737898D01*
X3713713Y-27747276D01*
X3737746Y-27752057D01*
X3762250Y-27752057D01*
X3786283Y-27747277D01*
X3808922Y-27737900D01*
X3829297Y-27724287D01*
X3846624Y-27706960D01*
X3860240Y-27686582D01*
X3873676Y-27661445D01*
X3890700Y-27640700D01*
X3911443Y-27623677D01*
X3935114Y-27611025D01*
X3960792Y-27603235D01*
X3993640Y-27600000D01*
X4506360Y-27600000D01*
X4539208Y-27603235D01*
X4564886Y-27611025D01*
X4588557Y-27623677D01*
X4609300Y-27640700D01*
X4626323Y-27661443D01*
X4638975Y-27685114D01*
X4646765Y-27710792D01*
X4650000Y-27743640D01*
X4650000Y-28656360D01*
X4646765Y-28689208D01*
X4638976Y-28714884D01*
X4632244Y-28727478D01*
X4622867Y-28750117D01*
X4618086Y-28774150D01*
X4618086Y-28798654D01*
X4622866Y-28822687D01*
X4631331Y-28843122D01*
X4644924Y-28887933D01*
X4650000Y-28939474D01*
X4650000Y-30360526D01*
X4644924Y-30412067D01*
X4631331Y-30456877D01*
X4622867Y-30477310D01*
X4618086Y-30501343D01*
X4618086Y-30525847D01*
X4622866Y-30549881D01*
X4632244Y-30572522D01*
X4638976Y-30585116D01*
X4646765Y-30610792D01*
X4650000Y-30643640D01*
X4650000Y-31556360D01*
X4646765Y-31589208D01*
X4638975Y-31614886D01*
X4626323Y-31638557D01*
X4609300Y-31659300D01*
X4588557Y-31676323D01*
X4564886Y-31688975D01*
X4539208Y-31696765D01*
X4506360Y-31700000D01*
X3993640Y-31700000D01*
X3960792Y-31696765D01*
X3935114Y-31688975D01*
X3911443Y-31676323D01*
X3890700Y-31659300D01*
X3873676Y-31638555D01*
X3860240Y-31613418D01*
X3846627Y-31593043D01*
X3829300Y-31575716D01*
X3808926Y-31562102D01*
X3786287Y-31552724D01*
X3762254Y-31547943D01*
X3737750Y-31547943D01*
X3713717Y-31552723D01*
X3691078Y-31562100D01*
X3670703Y-31575713D01*
X3653376Y-31593040D01*
X3639760Y-31613418D01*
X3626324Y-31638555D01*
X3609300Y-31659300D01*
X3588556Y-31676323D01*
X3565504Y-31688645D01*
X3545129Y-31702259D01*
X3527802Y-31719586D01*
X3514188Y-31739960D01*
X3504811Y-31762599D01*
X3500030Y-31786632D01*
X3500030Y-31811136D01*
X3504810Y-31835170D01*
X3514187Y-31857808D01*
X3527801Y-31878183D01*
X3545128Y-31895510D01*
X3565502Y-31909124D01*
X3588141Y-31918501D01*
X3612177Y-31923282D01*
X3620974Y-31924148D01*
X3655567Y-31934642D01*
X3687440Y-31951678D01*
X3715386Y-31974614D01*
X3738322Y-32002560D01*
X3755358Y-32034433D01*
X3765852Y-32069026D01*
X3770000Y-32111141D01*
X3770000Y-32718859D01*
X3765852Y-32760974D01*
X3755358Y-32795567D01*
X3734213Y-32835127D01*
X3730244Y-32841066D01*
X3720865Y-32863703D01*
X3716082Y-32887736D01*
X3716080Y-32912240D01*
X3720858Y-32936274D01*
X3730233Y-32958914D01*
X3734206Y-32964861D01*
X3755358Y-33004433D01*
X3765852Y-33039026D01*
X3770000Y-33081141D01*
X3770000Y-33688859D01*
X3765852Y-33730974D01*
X3755358Y-33765567D01*
X3738322Y-33797440D01*
X3715386Y-33825386D01*
X3687440Y-33848322D01*
X3655567Y-33865358D01*
X3620974Y-33875852D01*
X3578859Y-33880000D01*
X2921141Y-33880000D01*
X2879026Y-33875852D01*
X2844433Y-33865358D01*
X2812560Y-33848322D01*
X2784614Y-33825386D01*
X2761678Y-33797440D01*
X2744642Y-33765567D01*
X2734148Y-33730974D01*
X2730000Y-33688859D01*
X2730000Y-33081141D01*
X2734148Y-33039026D01*
X2744642Y-33004433D01*
X2765787Y-32964873D01*
X2769756Y-32958934D01*
X2779135Y-32936297D01*
X2783918Y-32912264D01*
X2783920Y-32887760D01*
X2779142Y-32863726D01*
X2769767Y-32841086D01*
X2765794Y-32835139D01*
X2744642Y-32795567D01*
X2734148Y-32760974D01*
X2730000Y-32718859D01*
X2730000Y-32111141D01*
X2734148Y-32069026D01*
X2744642Y-32034433D01*
X2761678Y-32002560D01*
X2784614Y-31974614D01*
X2812560Y-31951678D01*
X2844433Y-31934642D01*
X2879026Y-31924148D01*
X2887823Y-31923282D01*
X2911856Y-31918502D01*
X2934495Y-31909125D01*
X2954870Y-31895512D01*
X2972197Y-31878185D01*
X2985811Y-31857811D01*
X2995189Y-31835172D01*
X2999970Y-31811139D01*
X2999970Y-31786635D01*
X2995190Y-31762602D01*
X2985813Y-31739963D01*
X2972200Y-31719588D01*
X2954873Y-31702261D01*
X2934496Y-31688645D01*
X2911444Y-31676323D01*
X2890700Y-31659300D01*
X2873676Y-31638555D01*
X2860240Y-31613418D01*
X2846627Y-31593043D01*
X2829300Y-31575716D01*
X2808926Y-31562102D01*
X2786287Y-31552724D01*
X2762254Y-31547943D01*
X2737750Y-31547943D01*
X2713717Y-31552723D01*
X2691078Y-31562100D01*
X2670703Y-31575713D01*
X2653376Y-31593040D01*
X2639760Y-31613418D01*
X2626324Y-31638555D01*
X2609300Y-31659300D01*
X2588557Y-31676323D01*
X2564886Y-31688975D01*
X2539208Y-31696765D01*
X2506360Y-31700000D01*
X1993640Y-31700000D01*
X1960792Y-31696765D01*
X1935114Y-31688975D01*
X1911443Y-31676323D01*
X1890700Y-31659300D01*
X1873677Y-31638557D01*
X1861025Y-31614886D01*
X1853235Y-31589208D01*
X1850000Y-31556360D01*
X1850000Y-30643640D01*
X1853235Y-30610792D01*
X1861024Y-30585116D01*
X1867756Y-30572522D01*
X1877133Y-30549883D01*
X1881914Y-30525850D01*
X1881914Y-30501346D01*
X1877134Y-30477313D01*
X1868669Y-30456878D01*
X1855076Y-30412067D01*
X1850000Y-30360526D01*
X1850000Y-28939474D01*
X1855076Y-28887933D01*
X1868669Y-28843123D01*
X1877133Y-28822690D01*
X1881914Y-28798657D01*
X1881914Y-28774153D01*
X1877134Y-28750119D01*
X1867756Y-28727478D01*
X1861024Y-28714884D01*
X1853235Y-28689208D01*
X1850000Y-28656360D01*
X1850000Y-27743640D01*
X1853235Y-27710792D01*
X1861025Y-27685114D01*
X1873677Y-27661443D01*
X1890700Y-27640700D01*
X1911443Y-27623677D01*
X1935114Y-27611025D01*
X1960792Y-27603235D01*
X1993640Y-27600000D01*
X2506360Y-27600000D01*
X2539208Y-27603235D01*
X2539208Y-27603235D01*
G37*
G36*
X-879026Y-31874148D02*
G01*
X-844433Y-31884642D01*
X-812560Y-31901678D01*
X-784614Y-31924614D01*
X-761678Y-31952560D01*
X-744642Y-31984433D01*
X-734148Y-32019026D01*
X-730000Y-32061141D01*
X-730000Y-32668859D01*
X-734148Y-32710974D01*
X-744642Y-32745567D01*
X-765787Y-32785127D01*
X-769756Y-32791066D01*
X-779135Y-32813703D01*
X-783918Y-32837736D01*
X-783920Y-32862240D01*
X-779142Y-32886274D01*
X-769767Y-32908914D01*
X-765794Y-32914861D01*
X-744642Y-32954433D01*
X-734148Y-32989026D01*
X-730000Y-33031141D01*
X-730000Y-33638859D01*
X-734148Y-33680974D01*
X-744642Y-33715567D01*
X-761678Y-33747440D01*
X-784614Y-33775386D01*
X-812560Y-33798322D01*
X-844433Y-33815358D01*
X-879026Y-33825852D01*
X-921141Y-33830000D01*
X-1578859Y-33830000D01*
X-1620974Y-33825852D01*
X-1655567Y-33815358D01*
X-1687440Y-33798322D01*
X-1715386Y-33775386D01*
X-1738322Y-33747440D01*
X-1755358Y-33715567D01*
X-1765852Y-33680974D01*
X-1770000Y-33638859D01*
X-1770000Y-33031141D01*
X-1765852Y-32989026D01*
X-1755358Y-32954433D01*
X-1734213Y-32914873D01*
X-1730244Y-32908934D01*
X-1720865Y-32886297D01*
X-1716082Y-32862264D01*
X-1716080Y-32837760D01*
X-1720858Y-32813726D01*
X-1730233Y-32791086D01*
X-1734206Y-32785139D01*
X-1755358Y-32745567D01*
X-1765852Y-32710974D01*
X-1770000Y-32668859D01*
X-1770000Y-32061141D01*
X-1765852Y-32019026D01*
X-1755358Y-31984433D01*
X-1738322Y-31952560D01*
X-1715386Y-31924614D01*
X-1687440Y-31901678D01*
X-1655567Y-31884642D01*
X-1620974Y-31874148D01*
X-1578859Y-31870000D01*
X-921141Y-31870000D01*
X-879026Y-31874148D01*
X-879026Y-31874148D01*
G37*
G36*
X10643798Y-26963409D02*
G01*
X10962574Y-27026817D01*
X11563136Y-27275578D01*
X12079774Y-27620785D01*
X12103627Y-27636723D01*
X12563277Y-28096373D01*
X12924423Y-28636866D01*
X12961956Y-28727478D01*
X13110519Y-29086141D01*
X13173183Y-29237427D01*
X13300000Y-29874977D01*
X13300000Y-30525023D01*
X13248783Y-30782509D01*
X13173183Y-31162574D01*
X13010071Y-31556360D01*
X12924645Y-31762599D01*
X12924422Y-31763136D01*
X12563277Y-32303627D01*
X12103627Y-32763277D01*
X11563136Y-33124422D01*
X10962574Y-33373183D01*
X10643798Y-33436591D01*
X10325023Y-33500000D01*
X9674977Y-33500000D01*
X9356202Y-33436591D01*
X9037426Y-33373183D01*
X8436864Y-33124422D01*
X7896373Y-32763277D01*
X7436723Y-32303627D01*
X7075578Y-31763136D01*
X7075356Y-31762599D01*
X6989929Y-31556360D01*
X6826817Y-31162574D01*
X6751217Y-30782509D01*
X6700000Y-30525023D01*
X6700000Y-29874977D01*
X6826817Y-29237427D01*
X6889482Y-29086141D01*
X7038044Y-28727478D01*
X7075577Y-28636866D01*
X7436723Y-28096373D01*
X7896373Y-27636723D01*
X7920226Y-27620785D01*
X8436864Y-27275578D01*
X9037426Y-27026817D01*
X9356202Y-26963409D01*
X9674977Y-26900000D01*
X10325023Y-26900000D01*
X10643798Y-26963409D01*
X10643798Y-26963409D01*
G37*
G36*
X22210974Y-31584148D02*
G01*
X22245567Y-31594642D01*
X22285127Y-31615787D01*
X22291066Y-31619756D01*
X22313703Y-31629135D01*
X22337736Y-31633918D01*
X22362240Y-31633920D01*
X22386274Y-31629142D01*
X22408914Y-31619767D01*
X22414861Y-31615794D01*
X22454433Y-31594642D01*
X22489026Y-31584148D01*
X22531141Y-31580000D01*
X23138859Y-31580000D01*
X23180974Y-31584148D01*
X23215567Y-31594642D01*
X23247440Y-31611678D01*
X23275386Y-31634614D01*
X23298322Y-31662560D01*
X23315358Y-31694433D01*
X23325852Y-31729026D01*
X23330000Y-31771141D01*
X23330000Y-32428859D01*
X23325852Y-32470974D01*
X23315358Y-32505567D01*
X23298322Y-32537440D01*
X23275386Y-32565386D01*
X23247440Y-32588322D01*
X23215567Y-32605358D01*
X23180974Y-32615852D01*
X23138859Y-32620000D01*
X22531141Y-32620000D01*
X22489026Y-32615852D01*
X22454433Y-32605358D01*
X22414873Y-32584213D01*
X22408934Y-32580244D01*
X22386297Y-32570865D01*
X22362264Y-32566082D01*
X22337760Y-32566080D01*
X22313726Y-32570858D01*
X22291086Y-32580233D01*
X22285139Y-32584206D01*
X22245567Y-32605358D01*
X22210974Y-32615852D01*
X22168859Y-32620000D01*
X21561141Y-32620000D01*
X21519026Y-32615852D01*
X21484433Y-32605358D01*
X21452560Y-32588322D01*
X21424614Y-32565386D01*
X21401678Y-32537440D01*
X21384642Y-32505567D01*
X21374148Y-32470974D01*
X21370000Y-32428859D01*
X21370000Y-31771141D01*
X21374148Y-31729026D01*
X21384642Y-31694433D01*
X21401678Y-31662560D01*
X21424614Y-31634614D01*
X21452560Y-31611678D01*
X21484433Y-31594642D01*
X21519026Y-31584148D01*
X21561141Y-31580000D01*
X22168859Y-31580000D01*
X22210974Y-31584148D01*
X22210974Y-31584148D01*
G37*
G36*
X18445974Y-28899148D02*
G01*
X18480567Y-28909642D01*
X18512440Y-28926678D01*
X18540386Y-28949614D01*
X18563322Y-28977560D01*
X18580358Y-29009433D01*
X18590852Y-29044026D01*
X18595000Y-29086141D01*
X18595000Y-29693859D01*
X18590852Y-29735974D01*
X18580358Y-29770567D01*
X18559213Y-29810127D01*
X18555244Y-29816066D01*
X18545865Y-29838703D01*
X18541082Y-29862736D01*
X18541080Y-29887240D01*
X18545858Y-29911274D01*
X18555233Y-29933914D01*
X18559206Y-29939861D01*
X18580358Y-29979433D01*
X18590852Y-30014026D01*
X18595000Y-30056141D01*
X18595000Y-30663859D01*
X18590852Y-30705974D01*
X18580358Y-30740567D01*
X18563322Y-30772440D01*
X18540386Y-30800386D01*
X18512440Y-30823322D01*
X18480567Y-30840358D01*
X18445974Y-30850852D01*
X18403859Y-30855000D01*
X17746141Y-30855000D01*
X17704026Y-30850852D01*
X17669433Y-30840358D01*
X17637560Y-30823322D01*
X17609614Y-30800386D01*
X17586678Y-30772440D01*
X17569642Y-30740567D01*
X17559148Y-30705974D01*
X17555000Y-30663859D01*
X17555000Y-30056141D01*
X17559148Y-30014026D01*
X17569642Y-29979433D01*
X17590787Y-29939873D01*
X17594756Y-29933934D01*
X17604135Y-29911297D01*
X17608918Y-29887264D01*
X17608920Y-29862760D01*
X17604142Y-29838726D01*
X17594767Y-29816086D01*
X17590794Y-29810139D01*
X17569642Y-29770567D01*
X17559148Y-29735974D01*
X17555000Y-29693859D01*
X17555000Y-29086141D01*
X17559148Y-29044026D01*
X17569642Y-29009433D01*
X17586678Y-28977560D01*
X17609614Y-28949614D01*
X17637560Y-28926678D01*
X17669433Y-28909642D01*
X17704026Y-28899148D01*
X17746141Y-28895000D01*
X18403859Y-28895000D01*
X18445974Y-28899148D01*
X18445974Y-28899148D01*
G37*
G36*
X21985974Y-26784148D02*
G01*
X22020567Y-26794642D01*
X22060127Y-26815787D01*
X22066066Y-26819756D01*
X22088703Y-26829135D01*
X22112736Y-26833918D01*
X22137240Y-26833920D01*
X22161274Y-26829142D01*
X22183914Y-26819767D01*
X22189861Y-26815794D01*
X22229433Y-26794642D01*
X22264026Y-26784148D01*
X22306141Y-26780000D01*
X22913859Y-26780000D01*
X22955974Y-26784148D01*
X22990567Y-26794642D01*
X23022440Y-26811678D01*
X23050386Y-26834614D01*
X23073322Y-26862560D01*
X23090358Y-26894433D01*
X23100852Y-26929026D01*
X23105000Y-26971141D01*
X23105000Y-27628859D01*
X23100852Y-27670974D01*
X23090358Y-27705567D01*
X23073322Y-27737440D01*
X23050386Y-27765386D01*
X23022440Y-27788322D01*
X22990567Y-27805358D01*
X22955974Y-27815852D01*
X22913859Y-27820000D01*
X22306141Y-27820000D01*
X22264026Y-27815852D01*
X22229433Y-27805358D01*
X22189873Y-27784213D01*
X22183934Y-27780244D01*
X22161297Y-27770865D01*
X22137264Y-27766082D01*
X22112760Y-27766080D01*
X22088726Y-27770858D01*
X22066086Y-27780233D01*
X22060139Y-27784206D01*
X22020567Y-27805358D01*
X21985974Y-27815852D01*
X21943859Y-27820000D01*
X21336141Y-27820000D01*
X21294026Y-27815852D01*
X21259433Y-27805358D01*
X21227560Y-27788322D01*
X21199614Y-27765386D01*
X21176678Y-27737440D01*
X21159642Y-27705567D01*
X21149148Y-27670974D01*
X21145000Y-27628859D01*
X21145000Y-26971141D01*
X21149148Y-26929026D01*
X21159642Y-26894433D01*
X21176678Y-26862560D01*
X21199614Y-26834614D01*
X21227560Y-26811678D01*
X21259433Y-26794642D01*
X21294026Y-26784148D01*
X21336141Y-26780000D01*
X21943859Y-26780000D01*
X21985974Y-26784148D01*
X21985974Y-26784148D01*
G37*
G36*
X13775000Y-25705000D02*
G01*
X11825000Y-25705000D01*
X11825000Y-24705000D01*
X13775000Y-24705000D01*
X13775000Y-25705000D01*
X13775000Y-25705000D01*
G37*
G36*
X8375000Y-25705000D02*
G01*
X6425000Y-25705000D01*
X6425000Y-24705000D01*
X8375000Y-24705000D01*
X8375000Y-25705000D01*
X8375000Y-25705000D01*
G37*
G36*
X-4196470Y-24255877D02*
G01*
X-4144990Y-24271493D01*
X-4097555Y-24296848D01*
X-4055973Y-24330973D01*
X-4021848Y-24372555D01*
X-3996493Y-24419990D01*
X-3980877Y-24471470D01*
X-3975000Y-24531140D01*
X-3975000Y-25418860D01*
X-3980877Y-25478530D01*
X-3996493Y-25530010D01*
X-4021848Y-25577445D01*
X-4055973Y-25619027D01*
X-4097555Y-25653152D01*
X-4144990Y-25678507D01*
X-4196470Y-25694123D01*
X-4256140Y-25700000D01*
X-5043860Y-25700000D01*
X-5103530Y-25694123D01*
X-5155010Y-25678507D01*
X-5202445Y-25653152D01*
X-5244027Y-25619027D01*
X-5278152Y-25577445D01*
X-5303507Y-25530010D01*
X-5319123Y-25478530D01*
X-5325000Y-25418860D01*
X-5325000Y-24531140D01*
X-5319123Y-24471470D01*
X-5303507Y-24419990D01*
X-5278152Y-24372555D01*
X-5244027Y-24330973D01*
X-5202445Y-24296848D01*
X-5155010Y-24271493D01*
X-5103530Y-24255877D01*
X-5043860Y-24250000D01*
X-4256140Y-24250000D01*
X-4196470Y-24255877D01*
X-4196470Y-24255877D01*
G37*
G36*
X-1496470Y-24255877D02*
G01*
X-1444990Y-24271493D01*
X-1397555Y-24296848D01*
X-1355973Y-24330973D01*
X-1321848Y-24372555D01*
X-1296493Y-24419990D01*
X-1280877Y-24471470D01*
X-1275000Y-24531140D01*
X-1275000Y-25418860D01*
X-1280877Y-25478530D01*
X-1296493Y-25530010D01*
X-1321848Y-25577445D01*
X-1355973Y-25619027D01*
X-1397555Y-25653152D01*
X-1444990Y-25678507D01*
X-1496470Y-25694123D01*
X-1556140Y-25700000D01*
X-2343860Y-25700000D01*
X-2403530Y-25694123D01*
X-2455010Y-25678507D01*
X-2502445Y-25653152D01*
X-2544027Y-25619027D01*
X-2578152Y-25577445D01*
X-2603507Y-25530010D01*
X-2619123Y-25478530D01*
X-2625000Y-25418860D01*
X-2625000Y-24531140D01*
X-2619123Y-24471470D01*
X-2603507Y-24419990D01*
X-2578152Y-24372555D01*
X-2544027Y-24330973D01*
X-2502445Y-24296848D01*
X-2455010Y-24271493D01*
X-2403530Y-24255877D01*
X-2343860Y-24250000D01*
X-1556140Y-24250000D01*
X-1496470Y-24255877D01*
X-1496470Y-24255877D01*
G37*
G36*
X-6429026Y-22939148D02*
G01*
X-6394433Y-22949642D01*
X-6362560Y-22966678D01*
X-6334614Y-22989614D01*
X-6311678Y-23017560D01*
X-6294642Y-23049433D01*
X-6284148Y-23084026D01*
X-6280000Y-23126141D01*
X-6280000Y-23733859D01*
X-6284148Y-23775974D01*
X-6294642Y-23810567D01*
X-6315787Y-23850127D01*
X-6319756Y-23856066D01*
X-6329135Y-23878703D01*
X-6333918Y-23902736D01*
X-6333920Y-23927240D01*
X-6329142Y-23951274D01*
X-6319767Y-23973914D01*
X-6315794Y-23979861D01*
X-6294642Y-24019433D01*
X-6284148Y-24054026D01*
X-6280000Y-24096141D01*
X-6280000Y-24703859D01*
X-6284148Y-24745974D01*
X-6294642Y-24780567D01*
X-6311678Y-24812440D01*
X-6334614Y-24840386D01*
X-6362560Y-24863322D01*
X-6394433Y-24880358D01*
X-6429026Y-24890852D01*
X-6471141Y-24895000D01*
X-7128859Y-24895000D01*
X-7170974Y-24890852D01*
X-7205567Y-24880358D01*
X-7237440Y-24863322D01*
X-7265386Y-24840386D01*
X-7288322Y-24812440D01*
X-7305358Y-24780567D01*
X-7315852Y-24745974D01*
X-7320000Y-24703859D01*
X-7320000Y-24096141D01*
X-7315852Y-24054026D01*
X-7305358Y-24019433D01*
X-7284213Y-23979873D01*
X-7280244Y-23973934D01*
X-7270865Y-23951297D01*
X-7266082Y-23927264D01*
X-7266080Y-23902760D01*
X-7270858Y-23878726D01*
X-7280233Y-23856086D01*
X-7284206Y-23850139D01*
X-7305358Y-23810567D01*
X-7315852Y-23775974D01*
X-7320000Y-23733859D01*
X-7320000Y-23126141D01*
X-7315852Y-23084026D01*
X-7305358Y-23049433D01*
X-7288322Y-23017560D01*
X-7265386Y-22989614D01*
X-7237440Y-22966678D01*
X-7205567Y-22949642D01*
X-7170974Y-22939148D01*
X-7128859Y-22935000D01*
X-6471141Y-22935000D01*
X-6429026Y-22939148D01*
X-6429026Y-22939148D01*
G37*
G36*
X-10829026Y-22824148D02*
G01*
X-10794433Y-22834642D01*
X-10762560Y-22851678D01*
X-10734614Y-22874614D01*
X-10711678Y-22902560D01*
X-10694642Y-22934433D01*
X-10684148Y-22969026D01*
X-10680000Y-23011141D01*
X-10680000Y-23618859D01*
X-10684148Y-23660974D01*
X-10694642Y-23695567D01*
X-10715787Y-23735127D01*
X-10719756Y-23741066D01*
X-10729135Y-23763703D01*
X-10733918Y-23787736D01*
X-10733920Y-23812240D01*
X-10729142Y-23836274D01*
X-10719767Y-23858914D01*
X-10715794Y-23864861D01*
X-10694642Y-23904433D01*
X-10684148Y-23939026D01*
X-10680000Y-23981141D01*
X-10680000Y-24588859D01*
X-10684148Y-24630974D01*
X-10694642Y-24665567D01*
X-10711678Y-24697440D01*
X-10734614Y-24725386D01*
X-10762560Y-24748322D01*
X-10794433Y-24765358D01*
X-10829026Y-24775852D01*
X-10871141Y-24780000D01*
X-11528859Y-24780000D01*
X-11570974Y-24775852D01*
X-11605567Y-24765358D01*
X-11637440Y-24748322D01*
X-11665386Y-24725386D01*
X-11688322Y-24697440D01*
X-11705358Y-24665567D01*
X-11715852Y-24630974D01*
X-11720000Y-24588859D01*
X-11720000Y-23981141D01*
X-11715852Y-23939026D01*
X-11705358Y-23904433D01*
X-11684213Y-23864873D01*
X-11680244Y-23858934D01*
X-11670865Y-23836297D01*
X-11666082Y-23812264D01*
X-11666080Y-23787760D01*
X-11670858Y-23763726D01*
X-11680233Y-23741086D01*
X-11684206Y-23735139D01*
X-11705358Y-23695567D01*
X-11715852Y-23660974D01*
X-11720000Y-23618859D01*
X-11720000Y-23011141D01*
X-11715852Y-22969026D01*
X-11705358Y-22934433D01*
X-11688322Y-22902560D01*
X-11665386Y-22874614D01*
X-11637440Y-22851678D01*
X-11605567Y-22834642D01*
X-11570974Y-22824148D01*
X-11528859Y-22820000D01*
X-10871141Y-22820000D01*
X-10829026Y-22824148D01*
X-10829026Y-22824148D01*
G37*
G36*
X13775000Y-24435000D02*
G01*
X11825000Y-24435000D01*
X11825000Y-23435000D01*
X13775000Y-23435000D01*
X13775000Y-24435000D01*
X13775000Y-24435000D01*
G37*
G36*
X8375000Y-24435000D02*
G01*
X6425000Y-24435000D01*
X6425000Y-23435000D01*
X8375000Y-23435000D01*
X8375000Y-24435000D01*
X8375000Y-24435000D01*
G37*
G36*
X-4196470Y-22505877D02*
G01*
X-4144990Y-22521493D01*
X-4097555Y-22546848D01*
X-4055973Y-22580973D01*
X-4021848Y-22622555D01*
X-3996493Y-22669990D01*
X-3980877Y-22721470D01*
X-3975000Y-22781140D01*
X-3975000Y-23668860D01*
X-3980877Y-23728530D01*
X-3996493Y-23780010D01*
X-4021848Y-23827445D01*
X-4055973Y-23869027D01*
X-4097555Y-23903152D01*
X-4144990Y-23928507D01*
X-4196470Y-23944123D01*
X-4256140Y-23950000D01*
X-5043860Y-23950000D01*
X-5103530Y-23944123D01*
X-5155010Y-23928507D01*
X-5202445Y-23903152D01*
X-5244027Y-23869027D01*
X-5278152Y-23827445D01*
X-5303507Y-23780010D01*
X-5319123Y-23728530D01*
X-5325000Y-23668860D01*
X-5325000Y-22781140D01*
X-5319123Y-22721470D01*
X-5303507Y-22669990D01*
X-5278152Y-22622555D01*
X-5244027Y-22580973D01*
X-5202445Y-22546848D01*
X-5155010Y-22521493D01*
X-5103530Y-22505877D01*
X-5043860Y-22500000D01*
X-4256140Y-22500000D01*
X-4196470Y-22505877D01*
X-4196470Y-22505877D01*
G37*
G36*
X-1496470Y-22505877D02*
G01*
X-1444990Y-22521493D01*
X-1397555Y-22546848D01*
X-1355973Y-22580973D01*
X-1321848Y-22622555D01*
X-1296493Y-22669990D01*
X-1280877Y-22721470D01*
X-1275000Y-22781140D01*
X-1275000Y-23668860D01*
X-1280877Y-23728530D01*
X-1296493Y-23780010D01*
X-1321848Y-23827445D01*
X-1355973Y-23869027D01*
X-1397555Y-23903152D01*
X-1444990Y-23928507D01*
X-1496470Y-23944123D01*
X-1556140Y-23950000D01*
X-2343860Y-23950000D01*
X-2403530Y-23944123D01*
X-2455010Y-23928507D01*
X-2502445Y-23903152D01*
X-2544027Y-23869027D01*
X-2578152Y-23827445D01*
X-2603507Y-23780010D01*
X-2619123Y-23728530D01*
X-2625000Y-23668860D01*
X-2625000Y-22781140D01*
X-2619123Y-22721470D01*
X-2603507Y-22669990D01*
X-2578152Y-22622555D01*
X-2544027Y-22580973D01*
X-2502445Y-22546848D01*
X-2455010Y-22521493D01*
X-2403530Y-22505877D01*
X-2343860Y-22500000D01*
X-1556140Y-22500000D01*
X-1496470Y-22505877D01*
X-1496470Y-22505877D01*
G37*
G36*
X13775000Y-20973234D02*
G01*
X13777402Y-20997620D01*
X13784515Y-21021069D01*
X13796066Y-21042680D01*
X13811611Y-21061622D01*
X13830553Y-21077167D01*
X13852164Y-21088718D01*
X13875613Y-21095831D01*
X13899999Y-21098233D01*
X13924385Y-21095831D01*
X13947834Y-21088718D01*
X13969445Y-21077167D01*
X13988387Y-21061622D01*
X14003932Y-21042680D01*
X14015483Y-21021069D01*
X14019616Y-21009517D01*
X14019641Y-21009434D01*
X14036678Y-20977560D01*
X14059614Y-20949614D01*
X14087560Y-20926678D01*
X14119433Y-20909642D01*
X14154026Y-20899148D01*
X14196141Y-20895000D01*
X14853859Y-20895000D01*
X14895974Y-20899148D01*
X14930567Y-20909642D01*
X14962440Y-20926678D01*
X14990386Y-20949614D01*
X15013322Y-20977560D01*
X15030358Y-21009433D01*
X15040852Y-21044026D01*
X15045000Y-21086141D01*
X15045000Y-21693859D01*
X15040852Y-21735974D01*
X15030358Y-21770567D01*
X15009213Y-21810127D01*
X15005244Y-21816066D01*
X14995865Y-21838703D01*
X14991082Y-21862736D01*
X14991080Y-21887240D01*
X14995858Y-21911274D01*
X15005233Y-21933914D01*
X15009206Y-21939861D01*
X15030358Y-21979433D01*
X15040852Y-22014026D01*
X15045000Y-22056141D01*
X15045000Y-22663859D01*
X15040852Y-22705974D01*
X15030358Y-22740567D01*
X15013322Y-22772440D01*
X14990386Y-22800386D01*
X14962440Y-22823322D01*
X14930567Y-22840358D01*
X14895974Y-22850852D01*
X14853859Y-22855000D01*
X14196141Y-22855000D01*
X14154026Y-22850852D01*
X14119433Y-22840358D01*
X14087560Y-22823322D01*
X14059614Y-22800386D01*
X14036678Y-22772440D01*
X14019641Y-22740566D01*
X14019616Y-22740483D01*
X14010239Y-22717844D01*
X13996626Y-22697469D01*
X13979299Y-22680142D01*
X13958925Y-22666528D01*
X13936286Y-22657150D01*
X13912253Y-22652369D01*
X13887749Y-22652369D01*
X13863716Y-22657149D01*
X13841077Y-22666526D01*
X13820702Y-22680139D01*
X13803375Y-22697466D01*
X13789761Y-22717840D01*
X13780383Y-22740479D01*
X13775602Y-22764512D01*
X13775000Y-22776766D01*
X13775000Y-23165000D01*
X11825000Y-23165000D01*
X11825000Y-22165000D01*
X13880986Y-22165000D01*
X13905372Y-22162598D01*
X13928821Y-22155485D01*
X13950432Y-22143934D01*
X13969374Y-22128389D01*
X13984919Y-22109447D01*
X13996470Y-22087836D01*
X14003583Y-22064387D01*
X14005383Y-22052253D01*
X14007353Y-22032251D01*
X14007353Y-22007747D01*
X14007140Y-22006678D01*
X14015483Y-21991069D01*
X14019616Y-21979517D01*
X14019641Y-21979434D01*
X14040787Y-21939873D01*
X14044756Y-21933934D01*
X14054135Y-21911297D01*
X14058918Y-21887264D01*
X14058920Y-21862760D01*
X14054142Y-21838726D01*
X14044767Y-21816086D01*
X14040794Y-21810139D01*
X14019641Y-21770566D01*
X14019616Y-21770483D01*
X14010239Y-21747844D01*
X13996626Y-21727469D01*
X13979299Y-21710142D01*
X13958925Y-21696528D01*
X13936286Y-21687150D01*
X13912253Y-21682369D01*
X13887749Y-21682369D01*
X13863716Y-21687149D01*
X13841077Y-21696526D01*
X13820702Y-21710139D01*
X13803375Y-21727466D01*
X13789761Y-21747840D01*
X13780383Y-21770479D01*
X13775602Y-21794512D01*
X13775000Y-21806766D01*
X13775000Y-21895000D01*
X11825000Y-21895000D01*
X11825000Y-20895000D01*
X13775000Y-20895000D01*
X13775000Y-20973234D01*
X13775000Y-20973234D01*
G37*
G36*
X8375000Y-23165000D02*
G01*
X6425000Y-23165000D01*
X6425000Y-22165000D01*
X8375000Y-22165000D01*
X8375000Y-23165000D01*
X8375000Y-23165000D01*
G37*
G36*
X8375000Y-21895000D02*
G01*
X6425000Y-21895000D01*
X6425000Y-20895000D01*
X8375000Y-20895000D01*
X8375000Y-21895000D01*
X8375000Y-21895000D01*
G37*
G36*
X17906729Y-17823510D02*
G01*
X17956578Y-17838631D01*
X18002510Y-17863182D01*
X18042774Y-17896226D01*
X18075818Y-17936490D01*
X18100369Y-17982422D01*
X18115490Y-18032271D01*
X18121200Y-18090244D01*
X18121200Y-19095356D01*
X18115490Y-19153329D01*
X18100369Y-19203178D01*
X18075818Y-19249110D01*
X18042774Y-19289374D01*
X18002510Y-19322418D01*
X17956578Y-19346969D01*
X17906729Y-19362090D01*
X17848756Y-19367800D01*
X16593644Y-19367800D01*
X16535671Y-19362090D01*
X16485822Y-19346969D01*
X16439890Y-19322418D01*
X16399626Y-19289374D01*
X16366582Y-19249110D01*
X16342031Y-19203178D01*
X16326910Y-19153329D01*
X16321200Y-19095356D01*
X16321200Y-18090244D01*
X16326910Y-18032271D01*
X16342031Y-17982422D01*
X16366582Y-17936490D01*
X16399626Y-17896226D01*
X16439890Y-17863182D01*
X16485822Y-17838631D01*
X16535671Y-17823510D01*
X16593644Y-17817800D01*
X17848756Y-17817800D01*
X17906729Y-17823510D01*
X17906729Y-17823510D01*
G37*
G36*
X28228687Y-16575027D02*
G01*
X28406274Y-16610350D01*
X28597362Y-16689502D01*
X28769336Y-16804411D01*
X28915589Y-16950664D01*
X29030498Y-17122638D01*
X29109650Y-17313726D01*
X29150000Y-17516584D01*
X29150000Y-17723416D01*
X29109650Y-17926274D01*
X29030498Y-18117362D01*
X28915589Y-18289336D01*
X28769336Y-18435589D01*
X28597362Y-18550498D01*
X28406274Y-18629650D01*
X28228687Y-18664973D01*
X28203417Y-18670000D01*
X27996583Y-18670000D01*
X27971313Y-18664973D01*
X27793726Y-18629650D01*
X27602638Y-18550498D01*
X27430664Y-18435589D01*
X27284411Y-18289336D01*
X27169502Y-18117362D01*
X27090350Y-17926274D01*
X27050000Y-17723416D01*
X27050000Y-17516584D01*
X27090350Y-17313726D01*
X27169502Y-17122638D01*
X27284411Y-16950664D01*
X27430664Y-16804411D01*
X27602638Y-16689502D01*
X27793726Y-16610350D01*
X27971313Y-16575027D01*
X27996583Y-16570000D01*
X28203417Y-16570000D01*
X28228687Y-16575027D01*
X28228687Y-16575027D01*
G37*
G36*
X-7971313Y-16575027D02*
G01*
X-7793726Y-16610350D01*
X-7602638Y-16689502D01*
X-7430664Y-16804411D01*
X-7284411Y-16950664D01*
X-7169502Y-17122638D01*
X-7090350Y-17313726D01*
X-7050000Y-17516584D01*
X-7050000Y-17723416D01*
X-7090350Y-17926274D01*
X-7169502Y-18117362D01*
X-7284411Y-18289336D01*
X-7430664Y-18435589D01*
X-7602638Y-18550498D01*
X-7793726Y-18629650D01*
X-7971313Y-18664973D01*
X-7996583Y-18670000D01*
X-8203417Y-18670000D01*
X-8228687Y-18664973D01*
X-8406274Y-18629650D01*
X-8597362Y-18550498D01*
X-8769336Y-18435589D01*
X-8915589Y-18289336D01*
X-9030498Y-18117362D01*
X-9109650Y-17926274D01*
X-9150000Y-17723416D01*
X-9150000Y-17516584D01*
X-9109650Y-17313726D01*
X-9030498Y-17122638D01*
X-8915589Y-16950664D01*
X-8769336Y-16804411D01*
X-8597362Y-16689502D01*
X-8406274Y-16610350D01*
X-8228687Y-16575027D01*
X-8203417Y-16570000D01*
X-7996583Y-16570000D01*
X-7971313Y-16575027D01*
X-7971313Y-16575027D01*
G37*
G36*
X-4500000Y-17800000D02*
G01*
X-6400000Y-17800000D01*
X-6400000Y-15900000D01*
X-4500000Y-15900000D01*
X-4500000Y-17800000D01*
X-4500000Y-17800000D01*
G37*
G36*
X30928687Y-15305027D02*
G01*
X31106274Y-15340350D01*
X31297362Y-15419502D01*
X31469336Y-15534411D01*
X31615589Y-15680664D01*
X31730498Y-15852638D01*
X31809650Y-16043726D01*
X31850000Y-16246584D01*
X31850000Y-16453416D01*
X31809650Y-16656274D01*
X31730498Y-16847362D01*
X31615589Y-17019336D01*
X31469336Y-17165589D01*
X31297362Y-17280498D01*
X31106274Y-17359650D01*
X30928687Y-17394973D01*
X30903417Y-17400000D01*
X30696583Y-17400000D01*
X30671313Y-17394973D01*
X30493726Y-17359650D01*
X30302638Y-17280498D01*
X30130664Y-17165589D01*
X29984411Y-17019336D01*
X29869502Y-16847362D01*
X29790350Y-16656274D01*
X29750000Y-16453416D01*
X29750000Y-16246584D01*
X29790350Y-16043726D01*
X29869502Y-15852638D01*
X29984411Y-15680664D01*
X30130664Y-15534411D01*
X30302638Y-15419502D01*
X30493726Y-15340350D01*
X30671313Y-15305027D01*
X30696583Y-15300000D01*
X30903417Y-15300000D01*
X30928687Y-15305027D01*
X30928687Y-15305027D01*
G37*
G36*
X-10671313Y-15305027D02*
G01*
X-10493726Y-15340350D01*
X-10302638Y-15419502D01*
X-10130664Y-15534411D01*
X-9984411Y-15680664D01*
X-9869502Y-15852638D01*
X-9790350Y-16043726D01*
X-9750000Y-16246584D01*
X-9750000Y-16453416D01*
X-9790350Y-16656274D01*
X-9869502Y-16847362D01*
X-9984411Y-17019336D01*
X-10130664Y-17165589D01*
X-10302638Y-17280498D01*
X-10493726Y-17359650D01*
X-10671313Y-17394973D01*
X-10696583Y-17400000D01*
X-10903417Y-17400000D01*
X-10928687Y-17394973D01*
X-11106274Y-17359650D01*
X-11297362Y-17280498D01*
X-11469336Y-17165589D01*
X-11615589Y-17019336D01*
X-11730498Y-16847362D01*
X-11809650Y-16656274D01*
X-11850000Y-16453416D01*
X-11850000Y-16246584D01*
X-11809650Y-16043726D01*
X-11730498Y-15852638D01*
X-11615589Y-15680664D01*
X-11469336Y-15534411D01*
X-11297362Y-15419502D01*
X-11106274Y-15340350D01*
X-10928687Y-15305027D01*
X-10903417Y-15300000D01*
X-10696583Y-15300000D01*
X-10671313Y-15305027D01*
X-10671313Y-15305027D01*
G37*
G36*
X17906729Y-15773510D02*
G01*
X17956578Y-15788631D01*
X18002510Y-15813182D01*
X18042774Y-15846226D01*
X18075818Y-15886490D01*
X18100369Y-15932422D01*
X18115490Y-15982271D01*
X18121200Y-16040244D01*
X18121200Y-17045356D01*
X18115490Y-17103329D01*
X18100369Y-17153178D01*
X18075818Y-17199110D01*
X18042774Y-17239374D01*
X18002510Y-17272418D01*
X17956578Y-17296969D01*
X17906729Y-17312090D01*
X17848756Y-17317800D01*
X16593644Y-17317800D01*
X16535671Y-17312090D01*
X16485822Y-17296969D01*
X16439890Y-17272418D01*
X16399626Y-17239374D01*
X16366582Y-17199110D01*
X16342031Y-17153178D01*
X16326910Y-17103329D01*
X16321200Y-17045356D01*
X16321200Y-16040244D01*
X16326910Y-15982271D01*
X16342031Y-15932422D01*
X16366582Y-15886490D01*
X16399626Y-15846226D01*
X16439890Y-15813182D01*
X16485822Y-15788631D01*
X16535671Y-15773510D01*
X16593644Y-15767800D01*
X17848756Y-15767800D01*
X17906729Y-15773510D01*
X17906729Y-15773510D01*
G37*
G36*
X28228687Y-14035027D02*
G01*
X28406274Y-14070350D01*
X28597362Y-14149502D01*
X28769336Y-14264411D01*
X28915589Y-14410664D01*
X29030498Y-14582638D01*
X29109650Y-14773726D01*
X29150000Y-14976584D01*
X29150000Y-15183416D01*
X29109650Y-15386274D01*
X29030498Y-15577362D01*
X28915589Y-15749336D01*
X28769336Y-15895589D01*
X28597362Y-16010498D01*
X28406274Y-16089650D01*
X28228687Y-16124973D01*
X28203417Y-16130000D01*
X27996583Y-16130000D01*
X27971313Y-16124973D01*
X27793726Y-16089650D01*
X27602638Y-16010498D01*
X27430664Y-15895589D01*
X27284411Y-15749336D01*
X27169502Y-15577362D01*
X27090350Y-15386274D01*
X27050000Y-15183416D01*
X27050000Y-14976584D01*
X27090350Y-14773726D01*
X27169502Y-14582638D01*
X27284411Y-14410664D01*
X27430664Y-14264411D01*
X27602638Y-14149502D01*
X27793726Y-14070350D01*
X27971313Y-14035027D01*
X27996583Y-14030000D01*
X28203417Y-14030000D01*
X28228687Y-14035027D01*
X28228687Y-14035027D01*
G37*
G36*
X-7971313Y-14035027D02*
G01*
X-7793726Y-14070350D01*
X-7602638Y-14149502D01*
X-7430664Y-14264411D01*
X-7284411Y-14410664D01*
X-7169502Y-14582638D01*
X-7090350Y-14773726D01*
X-7050000Y-14976584D01*
X-7050000Y-15183416D01*
X-7090350Y-15386274D01*
X-7169502Y-15577362D01*
X-7284411Y-15749336D01*
X-7430664Y-15895589D01*
X-7602638Y-16010498D01*
X-7793726Y-16089650D01*
X-7971313Y-16124973D01*
X-7996583Y-16130000D01*
X-8203417Y-16130000D01*
X-8228687Y-16124973D01*
X-8406274Y-16089650D01*
X-8597362Y-16010498D01*
X-8769336Y-15895589D01*
X-8915589Y-15749336D01*
X-9030498Y-15577362D01*
X-9109650Y-15386274D01*
X-9150000Y-15183416D01*
X-9150000Y-14976584D01*
X-9109650Y-14773726D01*
X-9030498Y-14582638D01*
X-8915589Y-14410664D01*
X-8769336Y-14264411D01*
X-8597362Y-14149502D01*
X-8406274Y-14070350D01*
X-8228687Y-14035027D01*
X-8203417Y-14030000D01*
X-7996583Y-14030000D01*
X-7971313Y-14035027D01*
X-7971313Y-14035027D01*
G37*
G36*
X30928687Y-12765027D02*
G01*
X31106274Y-12800350D01*
X31297362Y-12879502D01*
X31469336Y-12994411D01*
X31615589Y-13140664D01*
X31730498Y-13312638D01*
X31809650Y-13503726D01*
X31850000Y-13706584D01*
X31850000Y-13913416D01*
X31809650Y-14116274D01*
X31730498Y-14307362D01*
X31615589Y-14479336D01*
X31469336Y-14625589D01*
X31297362Y-14740498D01*
X31106274Y-14819650D01*
X30928687Y-14854973D01*
X30903417Y-14860000D01*
X30696583Y-14860000D01*
X30671313Y-14854973D01*
X30493726Y-14819650D01*
X30302638Y-14740498D01*
X30130664Y-14625589D01*
X29984411Y-14479336D01*
X29869502Y-14307362D01*
X29790350Y-14116274D01*
X29750000Y-13913416D01*
X29750000Y-13706584D01*
X29790350Y-13503726D01*
X29869502Y-13312638D01*
X29984411Y-13140664D01*
X30130664Y-12994411D01*
X30302638Y-12879502D01*
X30493726Y-12800350D01*
X30671313Y-12765027D01*
X30696583Y-12760000D01*
X30903417Y-12760000D01*
X30928687Y-12765027D01*
X30928687Y-12765027D01*
G37*
G36*
X-10671313Y-12765027D02*
G01*
X-10493726Y-12800350D01*
X-10302638Y-12879502D01*
X-10130664Y-12994411D01*
X-9984411Y-13140664D01*
X-9869502Y-13312638D01*
X-9790350Y-13503726D01*
X-9750000Y-13706584D01*
X-9750000Y-13913416D01*
X-9790350Y-14116274D01*
X-9869502Y-14307362D01*
X-9984411Y-14479336D01*
X-10130664Y-14625589D01*
X-10302638Y-14740498D01*
X-10493726Y-14819650D01*
X-10671313Y-14854973D01*
X-10696583Y-14860000D01*
X-10903417Y-14860000D01*
X-10928687Y-14854973D01*
X-11106274Y-14819650D01*
X-11297362Y-14740498D01*
X-11469336Y-14625589D01*
X-11615589Y-14479336D01*
X-11730498Y-14307362D01*
X-11809650Y-14116274D01*
X-11850000Y-13913416D01*
X-11850000Y-13706584D01*
X-11809650Y-13503726D01*
X-11730498Y-13312638D01*
X-11615589Y-13140664D01*
X-11469336Y-12994411D01*
X-11297362Y-12879502D01*
X-11106274Y-12800350D01*
X-10928687Y-12765027D01*
X-10903417Y-12760000D01*
X-10696583Y-12760000D01*
X-10671313Y-12765027D01*
X-10671313Y-12765027D01*
G37*
G36*
X-7971313Y-11495027D02*
G01*
X-7793726Y-11530350D01*
X-7602638Y-11609502D01*
X-7430664Y-11724411D01*
X-7284411Y-11870664D01*
X-7169502Y-12042638D01*
X-7090350Y-12233726D01*
X-7050000Y-12436584D01*
X-7050000Y-12643416D01*
X-7090350Y-12846274D01*
X-7169502Y-13037362D01*
X-7284411Y-13209336D01*
X-7430664Y-13355589D01*
X-7602638Y-13470498D01*
X-7793726Y-13549650D01*
X-7971313Y-13584973D01*
X-7996583Y-13590000D01*
X-8203417Y-13590000D01*
X-8228687Y-13584973D01*
X-8406274Y-13549650D01*
X-8597362Y-13470498D01*
X-8769336Y-13355589D01*
X-8915589Y-13209336D01*
X-9030498Y-13037362D01*
X-9109650Y-12846274D01*
X-9150000Y-12643416D01*
X-9150000Y-12436584D01*
X-9109650Y-12233726D01*
X-9030498Y-12042638D01*
X-8915589Y-11870664D01*
X-8769336Y-11724411D01*
X-8597362Y-11609502D01*
X-8406274Y-11530350D01*
X-8228687Y-11495027D01*
X-8203417Y-11490000D01*
X-7996583Y-11490000D01*
X-7971313Y-11495027D01*
X-7971313Y-11495027D01*
G37*
G36*
X28228687Y-11495027D02*
G01*
X28406274Y-11530350D01*
X28597362Y-11609502D01*
X28769336Y-11724411D01*
X28915589Y-11870664D01*
X29030498Y-12042638D01*
X29109650Y-12233726D01*
X29150000Y-12436584D01*
X29150000Y-12643416D01*
X29109650Y-12846274D01*
X29030498Y-13037362D01*
X28915589Y-13209336D01*
X28769336Y-13355589D01*
X28597362Y-13470498D01*
X28406274Y-13549650D01*
X28228687Y-13584973D01*
X28203417Y-13590000D01*
X27996583Y-13590000D01*
X27971313Y-13584973D01*
X27793726Y-13549650D01*
X27602638Y-13470498D01*
X27430664Y-13355589D01*
X27284411Y-13209336D01*
X27169502Y-13037362D01*
X27090350Y-12846274D01*
X27050000Y-12643416D01*
X27050000Y-12436584D01*
X27090350Y-12233726D01*
X27169502Y-12042638D01*
X27284411Y-11870664D01*
X27430664Y-11724411D01*
X27602638Y-11609502D01*
X27793726Y-11530350D01*
X27971313Y-11495027D01*
X27996583Y-11490000D01*
X28203417Y-11490000D01*
X28228687Y-11495027D01*
X28228687Y-11495027D01*
G37*
G36*
X9270974Y-10774148D02*
G01*
X9305567Y-10784642D01*
X9337440Y-10801678D01*
X9365386Y-10824614D01*
X9388322Y-10852560D01*
X9405358Y-10884433D01*
X9415852Y-10919026D01*
X9420000Y-10961141D01*
X9420000Y-11568859D01*
X9415852Y-11610974D01*
X9405358Y-11645567D01*
X9384213Y-11685127D01*
X9380244Y-11691066D01*
X9370865Y-11713703D01*
X9366082Y-11737736D01*
X9366080Y-11762240D01*
X9370858Y-11786274D01*
X9380233Y-11808914D01*
X9384206Y-11814861D01*
X9405358Y-11854433D01*
X9415852Y-11889026D01*
X9420000Y-11931141D01*
X9420000Y-12538859D01*
X9415852Y-12580974D01*
X9405358Y-12615567D01*
X9388322Y-12647440D01*
X9365386Y-12675386D01*
X9337440Y-12698322D01*
X9305567Y-12715358D01*
X9270974Y-12725852D01*
X9228859Y-12730000D01*
X8571141Y-12730000D01*
X8529026Y-12725852D01*
X8494433Y-12715358D01*
X8462560Y-12698322D01*
X8434614Y-12675386D01*
X8411678Y-12647440D01*
X8394642Y-12615567D01*
X8384148Y-12580974D01*
X8380000Y-12538859D01*
X8380000Y-11931141D01*
X8384148Y-11889026D01*
X8394642Y-11854433D01*
X8415787Y-11814873D01*
X8419756Y-11808934D01*
X8429135Y-11786297D01*
X8433918Y-11762264D01*
X8433920Y-11737760D01*
X8429142Y-11713726D01*
X8419767Y-11691086D01*
X8415794Y-11685139D01*
X8394642Y-11645567D01*
X8384148Y-11610974D01*
X8380000Y-11568859D01*
X8380000Y-10961141D01*
X8384148Y-10919026D01*
X8394642Y-10884433D01*
X8411678Y-10852560D01*
X8434614Y-10824614D01*
X8462560Y-10801678D01*
X8494433Y-10784642D01*
X8529026Y-10774148D01*
X8571141Y-10770000D01*
X9228859Y-10770000D01*
X9270974Y-10774148D01*
X9270974Y-10774148D01*
G37*
G36*
X3520974Y-10724148D02*
G01*
X3555567Y-10734642D01*
X3587440Y-10751678D01*
X3615386Y-10774614D01*
X3638322Y-10802560D01*
X3655358Y-10834433D01*
X3665852Y-10869026D01*
X3670000Y-10911141D01*
X3670000Y-11518859D01*
X3665852Y-11560974D01*
X3655358Y-11595567D01*
X3634213Y-11635127D01*
X3630244Y-11641066D01*
X3620865Y-11663703D01*
X3616082Y-11687736D01*
X3616080Y-11712240D01*
X3620858Y-11736274D01*
X3630233Y-11758914D01*
X3634206Y-11764861D01*
X3655358Y-11804433D01*
X3665852Y-11839026D01*
X3670000Y-11881141D01*
X3670000Y-12488859D01*
X3665852Y-12530974D01*
X3655358Y-12565567D01*
X3638322Y-12597440D01*
X3615386Y-12625386D01*
X3587440Y-12648322D01*
X3555567Y-12665358D01*
X3520974Y-12675852D01*
X3478859Y-12680000D01*
X2821141Y-12680000D01*
X2779026Y-12675852D01*
X2744433Y-12665358D01*
X2712560Y-12648322D01*
X2684614Y-12625386D01*
X2661678Y-12597440D01*
X2644642Y-12565567D01*
X2634148Y-12530974D01*
X2630000Y-12488859D01*
X2630000Y-11881141D01*
X2634148Y-11839026D01*
X2644642Y-11804433D01*
X2665787Y-11764873D01*
X2669756Y-11758934D01*
X2679135Y-11736297D01*
X2683918Y-11712264D01*
X2683920Y-11687760D01*
X2679142Y-11663726D01*
X2669767Y-11641086D01*
X2665794Y-11635139D01*
X2644642Y-11595567D01*
X2634148Y-11560974D01*
X2630000Y-11518859D01*
X2630000Y-10911141D01*
X2634148Y-10869026D01*
X2644642Y-10834433D01*
X2661678Y-10802560D01*
X2684614Y-10774614D01*
X2712560Y-10751678D01*
X2744433Y-10734642D01*
X2779026Y-10724148D01*
X2821141Y-10720000D01*
X3478859Y-10720000D01*
X3520974Y-10724148D01*
X3520974Y-10724148D01*
G37*
G36*
X30928687Y-10225027D02*
G01*
X31106274Y-10260350D01*
X31297362Y-10339502D01*
X31469336Y-10454411D01*
X31615589Y-10600664D01*
X31730498Y-10772638D01*
X31809650Y-10963726D01*
X31850000Y-11166584D01*
X31850000Y-11373416D01*
X31809650Y-11576274D01*
X31730498Y-11767362D01*
X31615589Y-11939336D01*
X31469336Y-12085589D01*
X31297362Y-12200498D01*
X31106274Y-12279650D01*
X30928687Y-12314973D01*
X30903417Y-12320000D01*
X30696583Y-12320000D01*
X30671313Y-12314973D01*
X30493726Y-12279650D01*
X30302638Y-12200498D01*
X30130664Y-12085589D01*
X29984411Y-11939336D01*
X29869502Y-11767362D01*
X29790350Y-11576274D01*
X29750000Y-11373416D01*
X29750000Y-11166584D01*
X29790350Y-10963726D01*
X29869502Y-10772638D01*
X29984411Y-10600664D01*
X30130664Y-10454411D01*
X30302638Y-10339502D01*
X30493726Y-10260350D01*
X30671313Y-10225027D01*
X30696583Y-10220000D01*
X30903417Y-10220000D01*
X30928687Y-10225027D01*
X30928687Y-10225027D01*
G37*
G36*
X-10671313Y-10225027D02*
G01*
X-10493726Y-10260350D01*
X-10302638Y-10339502D01*
X-10130664Y-10454411D01*
X-9984411Y-10600664D01*
X-9869502Y-10772638D01*
X-9790350Y-10963726D01*
X-9750000Y-11166584D01*
X-9750000Y-11373416D01*
X-9790350Y-11576274D01*
X-9869502Y-11767362D01*
X-9984411Y-11939336D01*
X-10130664Y-12085589D01*
X-10302638Y-12200498D01*
X-10493726Y-12279650D01*
X-10671313Y-12314973D01*
X-10696583Y-12320000D01*
X-10903417Y-12320000D01*
X-10928687Y-12314973D01*
X-11106274Y-12279650D01*
X-11297362Y-12200498D01*
X-11469336Y-12085589D01*
X-11615589Y-11939336D01*
X-11730498Y-11767362D01*
X-11809650Y-11576274D01*
X-11850000Y-11373416D01*
X-11850000Y-11166584D01*
X-11809650Y-10963726D01*
X-11730498Y-10772638D01*
X-11615589Y-10600664D01*
X-11469336Y-10454411D01*
X-11297362Y-10339502D01*
X-11106274Y-10260350D01*
X-10928687Y-10225027D01*
X-10903417Y-10220000D01*
X-10696583Y-10220000D01*
X-10671313Y-10225027D01*
X-10671313Y-10225027D01*
G37*
G36*
X-7971313Y-8955027D02*
G01*
X-7793726Y-8990350D01*
X-7602638Y-9069502D01*
X-7430664Y-9184411D01*
X-7284411Y-9330664D01*
X-7169502Y-9502638D01*
X-7090350Y-9693726D01*
X-7050000Y-9896584D01*
X-7050000Y-10103416D01*
X-7090350Y-10306274D01*
X-7169502Y-10497362D01*
X-7284411Y-10669336D01*
X-7430664Y-10815589D01*
X-7602638Y-10930498D01*
X-7793726Y-11009650D01*
X-7971313Y-11044973D01*
X-7996583Y-11050000D01*
X-8203417Y-11050000D01*
X-8228687Y-11044973D01*
X-8406274Y-11009650D01*
X-8597362Y-10930498D01*
X-8769336Y-10815589D01*
X-8915589Y-10669336D01*
X-9030498Y-10497362D01*
X-9109650Y-10306274D01*
X-9150000Y-10103416D01*
X-9150000Y-9896584D01*
X-9109650Y-9693726D01*
X-9030498Y-9502638D01*
X-8915589Y-9330664D01*
X-8769336Y-9184411D01*
X-8597362Y-9069502D01*
X-8406274Y-8990350D01*
X-8228687Y-8955027D01*
X-8203417Y-8950000D01*
X-7996583Y-8950000D01*
X-7971313Y-8955027D01*
X-7971313Y-8955027D01*
G37*
G36*
X28228687Y-8955027D02*
G01*
X28406274Y-8990350D01*
X28597362Y-9069502D01*
X28769336Y-9184411D01*
X28915589Y-9330664D01*
X29030498Y-9502638D01*
X29109650Y-9693726D01*
X29150000Y-9896584D01*
X29150000Y-10103416D01*
X29109650Y-10306274D01*
X29030498Y-10497362D01*
X28915589Y-10669336D01*
X28769336Y-10815589D01*
X28597362Y-10930498D01*
X28406274Y-11009650D01*
X28228687Y-11044973D01*
X28203417Y-11050000D01*
X27996583Y-11050000D01*
X27971313Y-11044973D01*
X27793726Y-11009650D01*
X27602638Y-10930498D01*
X27430664Y-10815589D01*
X27284411Y-10669336D01*
X27169502Y-10497362D01*
X27090350Y-10306274D01*
X27050000Y-10103416D01*
X27050000Y-9896584D01*
X27090350Y-9693726D01*
X27169502Y-9502638D01*
X27284411Y-9330664D01*
X27430664Y-9184411D01*
X27602638Y-9069502D01*
X27793726Y-8990350D01*
X27971313Y-8955027D01*
X27996583Y-8950000D01*
X28203417Y-8950000D01*
X28228687Y-8955027D01*
X28228687Y-8955027D01*
G37*
G36*
X-10671313Y-7685027D02*
G01*
X-10493726Y-7720350D01*
X-10302638Y-7799502D01*
X-10130664Y-7914411D01*
X-9984411Y-8060664D01*
X-9869502Y-8232638D01*
X-9790350Y-8423726D01*
X-9750000Y-8626584D01*
X-9750000Y-8833416D01*
X-9790350Y-9036274D01*
X-9869502Y-9227362D01*
X-9984411Y-9399336D01*
X-10130664Y-9545589D01*
X-10302638Y-9660498D01*
X-10493726Y-9739650D01*
X-10671313Y-9774973D01*
X-10696583Y-9780000D01*
X-10903417Y-9780000D01*
X-10928687Y-9774973D01*
X-11106274Y-9739650D01*
X-11297362Y-9660498D01*
X-11469336Y-9545589D01*
X-11615589Y-9399336D01*
X-11730498Y-9227362D01*
X-11809650Y-9036274D01*
X-11850000Y-8833416D01*
X-11850000Y-8626584D01*
X-11809650Y-8423726D01*
X-11730498Y-8232638D01*
X-11615589Y-8060664D01*
X-11469336Y-7914411D01*
X-11297362Y-7799502D01*
X-11106274Y-7720350D01*
X-10928687Y-7685027D01*
X-10903417Y-7680000D01*
X-10696583Y-7680000D01*
X-10671313Y-7685027D01*
X-10671313Y-7685027D01*
G37*
G36*
X30928687Y-7685027D02*
G01*
X31106274Y-7720350D01*
X31297362Y-7799502D01*
X31469336Y-7914411D01*
X31615589Y-8060664D01*
X31730498Y-8232638D01*
X31809650Y-8423726D01*
X31850000Y-8626584D01*
X31850000Y-8833416D01*
X31809650Y-9036274D01*
X31730498Y-9227362D01*
X31615589Y-9399336D01*
X31469336Y-9545589D01*
X31297362Y-9660498D01*
X31106274Y-9739650D01*
X30928687Y-9774973D01*
X30903417Y-9780000D01*
X30696583Y-9780000D01*
X30671313Y-9774973D01*
X30493726Y-9739650D01*
X30302638Y-9660498D01*
X30130664Y-9545589D01*
X29984411Y-9399336D01*
X29869502Y-9227362D01*
X29790350Y-9036274D01*
X29750000Y-8833416D01*
X29750000Y-8626584D01*
X29790350Y-8423726D01*
X29869502Y-8232638D01*
X29984411Y-8060664D01*
X30130664Y-7914411D01*
X30302638Y-7799502D01*
X30493726Y-7720350D01*
X30671313Y-7685027D01*
X30696583Y-7680000D01*
X30903417Y-7680000D01*
X30928687Y-7685027D01*
X30928687Y-7685027D01*
G37*
G36*
X28228687Y-6415027D02*
G01*
X28406274Y-6450350D01*
X28597362Y-6529502D01*
X28769336Y-6644411D01*
X28915589Y-6790664D01*
X29030498Y-6962638D01*
X29109650Y-7153726D01*
X29150000Y-7356584D01*
X29150000Y-7563416D01*
X29109650Y-7766274D01*
X29030498Y-7957362D01*
X28915589Y-8129336D01*
X28769336Y-8275589D01*
X28597362Y-8390498D01*
X28406274Y-8469650D01*
X28228687Y-8504973D01*
X28203417Y-8510000D01*
X27996583Y-8510000D01*
X27971313Y-8504973D01*
X27793726Y-8469650D01*
X27602638Y-8390498D01*
X27430664Y-8275589D01*
X27284411Y-8129336D01*
X27169502Y-7957362D01*
X27090350Y-7766274D01*
X27050000Y-7563416D01*
X27050000Y-7356584D01*
X27090350Y-7153726D01*
X27169502Y-6962638D01*
X27284411Y-6790664D01*
X27430664Y-6644411D01*
X27602638Y-6529502D01*
X27793726Y-6450350D01*
X27971313Y-6415027D01*
X27996583Y-6410000D01*
X28203417Y-6410000D01*
X28228687Y-6415027D01*
X28228687Y-6415027D01*
G37*
G36*
X-7971313Y-6415027D02*
G01*
X-7793726Y-6450350D01*
X-7602638Y-6529502D01*
X-7430664Y-6644411D01*
X-7284411Y-6790664D01*
X-7169502Y-6962638D01*
X-7090350Y-7153726D01*
X-7050000Y-7356584D01*
X-7050000Y-7563416D01*
X-7090350Y-7766274D01*
X-7169502Y-7957362D01*
X-7284411Y-8129336D01*
X-7430664Y-8275589D01*
X-7602638Y-8390498D01*
X-7793726Y-8469650D01*
X-7971313Y-8504973D01*
X-7996583Y-8510000D01*
X-8203417Y-8510000D01*
X-8228687Y-8504973D01*
X-8406274Y-8469650D01*
X-8597362Y-8390498D01*
X-8769336Y-8275589D01*
X-8915589Y-8129336D01*
X-9030498Y-7957362D01*
X-9109650Y-7766274D01*
X-9150000Y-7563416D01*
X-9150000Y-7356584D01*
X-9109650Y-7153726D01*
X-9030498Y-6962638D01*
X-8915589Y-6790664D01*
X-8769336Y-6644411D01*
X-8597362Y-6529502D01*
X-8406274Y-6450350D01*
X-8228687Y-6415027D01*
X-8203417Y-6410000D01*
X-7996583Y-6410000D01*
X-7971313Y-6415027D01*
X-7971313Y-6415027D01*
G37*
G36*
X30928687Y-5145027D02*
G01*
X31106274Y-5180350D01*
X31297362Y-5259502D01*
X31469336Y-5374411D01*
X31615589Y-5520664D01*
X31730498Y-5692638D01*
X31809650Y-5883726D01*
X31850000Y-6086584D01*
X31850000Y-6293416D01*
X31809650Y-6496274D01*
X31730498Y-6687362D01*
X31615589Y-6859336D01*
X31469336Y-7005589D01*
X31297362Y-7120498D01*
X31106274Y-7199650D01*
X30928687Y-7234973D01*
X30903417Y-7240000D01*
X30696583Y-7240000D01*
X30671313Y-7234973D01*
X30493726Y-7199650D01*
X30302638Y-7120498D01*
X30130664Y-7005589D01*
X29984411Y-6859336D01*
X29869502Y-6687362D01*
X29790350Y-6496274D01*
X29750000Y-6293416D01*
X29750000Y-6086584D01*
X29790350Y-5883726D01*
X29869502Y-5692638D01*
X29984411Y-5520664D01*
X30130664Y-5374411D01*
X30302638Y-5259502D01*
X30493726Y-5180350D01*
X30671313Y-5145027D01*
X30696583Y-5140000D01*
X30903417Y-5140000D01*
X30928687Y-5145027D01*
X30928687Y-5145027D01*
G37*
G36*
X-10671313Y-5145027D02*
G01*
X-10493726Y-5180350D01*
X-10302638Y-5259502D01*
X-10130664Y-5374411D01*
X-9984411Y-5520664D01*
X-9869502Y-5692638D01*
X-9790350Y-5883726D01*
X-9750000Y-6086584D01*
X-9750000Y-6293416D01*
X-9790350Y-6496274D01*
X-9869502Y-6687362D01*
X-9984411Y-6859336D01*
X-10130664Y-7005589D01*
X-10302638Y-7120498D01*
X-10493726Y-7199650D01*
X-10671313Y-7234973D01*
X-10696583Y-7240000D01*
X-10903417Y-7240000D01*
X-10928687Y-7234973D01*
X-11106274Y-7199650D01*
X-11297362Y-7120498D01*
X-11469336Y-7005589D01*
X-11615589Y-6859336D01*
X-11730498Y-6687362D01*
X-11809650Y-6496274D01*
X-11850000Y-6293416D01*
X-11850000Y-6086584D01*
X-11809650Y-5883726D01*
X-11730498Y-5692638D01*
X-11615589Y-5520664D01*
X-11469336Y-5374411D01*
X-11297362Y-5259502D01*
X-11106274Y-5180350D01*
X-10928687Y-5145027D01*
X-10903417Y-5140000D01*
X-10696583Y-5140000D01*
X-10671313Y-5145027D01*
X-10671313Y-5145027D01*
G37*
G36*
X-7971313Y-3875027D02*
G01*
X-7793726Y-3910350D01*
X-7602638Y-3989502D01*
X-7430664Y-4104411D01*
X-7284411Y-4250664D01*
X-7169502Y-4422638D01*
X-7090350Y-4613726D01*
X-7050000Y-4816584D01*
X-7050000Y-5023416D01*
X-7090350Y-5226274D01*
X-7169502Y-5417362D01*
X-7284411Y-5589336D01*
X-7430664Y-5735589D01*
X-7602638Y-5850498D01*
X-7793726Y-5929650D01*
X-7971313Y-5964973D01*
X-7996583Y-5970000D01*
X-8203417Y-5970000D01*
X-8228687Y-5964973D01*
X-8406274Y-5929650D01*
X-8597362Y-5850498D01*
X-8769336Y-5735589D01*
X-8915589Y-5589336D01*
X-9030498Y-5417362D01*
X-9109650Y-5226274D01*
X-9150000Y-5023416D01*
X-9150000Y-4816584D01*
X-9109650Y-4613726D01*
X-9030498Y-4422638D01*
X-8915589Y-4250664D01*
X-8769336Y-4104411D01*
X-8597362Y-3989502D01*
X-8406274Y-3910350D01*
X-8228687Y-3875027D01*
X-8203417Y-3870000D01*
X-7996583Y-3870000D01*
X-7971313Y-3875027D01*
X-7971313Y-3875027D01*
G37*
G36*
X28228687Y-3875027D02*
G01*
X28406274Y-3910350D01*
X28597362Y-3989502D01*
X28769336Y-4104411D01*
X28915589Y-4250664D01*
X29030498Y-4422638D01*
X29109650Y-4613726D01*
X29150000Y-4816584D01*
X29150000Y-5023416D01*
X29109650Y-5226274D01*
X29030498Y-5417362D01*
X28915589Y-5589336D01*
X28769336Y-5735589D01*
X28597362Y-5850498D01*
X28406274Y-5929650D01*
X28228687Y-5964973D01*
X28203417Y-5970000D01*
X27996583Y-5970000D01*
X27971313Y-5964973D01*
X27793726Y-5929650D01*
X27602638Y-5850498D01*
X27430664Y-5735589D01*
X27284411Y-5589336D01*
X27169502Y-5417362D01*
X27090350Y-5226274D01*
X27050000Y-5023416D01*
X27050000Y-4816584D01*
X27090350Y-4613726D01*
X27169502Y-4422638D01*
X27284411Y-4250664D01*
X27430664Y-4104411D01*
X27602638Y-3989502D01*
X27793726Y-3910350D01*
X27971313Y-3875027D01*
X27996583Y-3870000D01*
X28203417Y-3870000D01*
X28228687Y-3875027D01*
X28228687Y-3875027D01*
G37*
G36*
X30928687Y-2605027D02*
G01*
X31106274Y-2640350D01*
X31297362Y-2719502D01*
X31469336Y-2834411D01*
X31615589Y-2980664D01*
X31730498Y-3152638D01*
X31809650Y-3343726D01*
X31850000Y-3546584D01*
X31850000Y-3753416D01*
X31809650Y-3956274D01*
X31730498Y-4147362D01*
X31615589Y-4319336D01*
X31469336Y-4465589D01*
X31297362Y-4580498D01*
X31106274Y-4659650D01*
X30928687Y-4694973D01*
X30903417Y-4700000D01*
X30696583Y-4700000D01*
X30671313Y-4694973D01*
X30493726Y-4659650D01*
X30302638Y-4580498D01*
X30130664Y-4465589D01*
X29984411Y-4319336D01*
X29869502Y-4147362D01*
X29790350Y-3956274D01*
X29750000Y-3753416D01*
X29750000Y-3546584D01*
X29790350Y-3343726D01*
X29869502Y-3152638D01*
X29984411Y-2980664D01*
X30130664Y-2834411D01*
X30302638Y-2719502D01*
X30493726Y-2640350D01*
X30671313Y-2605027D01*
X30696583Y-2600000D01*
X30903417Y-2600000D01*
X30928687Y-2605027D01*
X30928687Y-2605027D01*
G37*
G36*
X-10671313Y-2605027D02*
G01*
X-10493726Y-2640350D01*
X-10302638Y-2719502D01*
X-10130664Y-2834411D01*
X-9984411Y-2980664D01*
X-9869502Y-3152638D01*
X-9790350Y-3343726D01*
X-9750000Y-3546584D01*
X-9750000Y-3753416D01*
X-9790350Y-3956274D01*
X-9869502Y-4147362D01*
X-9984411Y-4319336D01*
X-10130664Y-4465589D01*
X-10302638Y-4580498D01*
X-10493726Y-4659650D01*
X-10671313Y-4694973D01*
X-10696583Y-4700000D01*
X-10903417Y-4700000D01*
X-10928687Y-4694973D01*
X-11106274Y-4659650D01*
X-11297362Y-4580498D01*
X-11469336Y-4465589D01*
X-11615589Y-4319336D01*
X-11730498Y-4147362D01*
X-11809650Y-3956274D01*
X-11850000Y-3753416D01*
X-11850000Y-3546584D01*
X-11809650Y-3343726D01*
X-11730498Y-3152638D01*
X-11615589Y-2980664D01*
X-11469336Y-2834411D01*
X-11297362Y-2719502D01*
X-11106274Y-2640350D01*
X-10928687Y-2605027D01*
X-10903417Y-2600000D01*
X-10696583Y-2600000D01*
X-10671313Y-2605027D01*
X-10671313Y-2605027D01*
G37*
G36*
X-9810000Y2774999D02*
G01*
X-9807598Y2750613D01*
X-9800485Y2727164D01*
X-9788934Y2705553D01*
X-9773389Y2686611D01*
X-9754447Y2671066D01*
X-9732836Y2659515D01*
X-9709387Y2652402D01*
X-9685001Y2650000D01*
X-9114999Y2650000D01*
X-9090613Y2652402D01*
X-9067164Y2659515D01*
X-9045553Y2671066D01*
X-9026611Y2686611D01*
X-9011066Y2705553D01*
X-8999515Y2727164D01*
X-8992402Y2750613D01*
X-8990000Y2774999D01*
X-8990000Y3775000D01*
X-8310000Y3775000D01*
X-8310000Y2889999D01*
X-8307598Y2865613D01*
X-8300485Y2842164D01*
X-8288934Y2820553D01*
X-8273389Y2801611D01*
X-8254447Y2786066D01*
X-8232836Y2774515D01*
X-8209387Y2767402D01*
X-8185001Y2765000D01*
X-7050000Y2765000D01*
X-7050000Y85000D01*
X-8185001Y85000D01*
X-8209387Y82598D01*
X-8232836Y75485D01*
X-8254447Y63934D01*
X-8273389Y48389D01*
X-8288934Y29447D01*
X-8300485Y7836D01*
X-8307598Y-15613D01*
X-8310000Y-39999D01*
X-8310000Y-990019D01*
X-8307598Y-1014405D01*
X-8300485Y-1037854D01*
X-8288934Y-1059465D01*
X-8273389Y-1078407D01*
X-8243926Y-1100258D01*
X-8214869Y-1115789D01*
X-8208934Y-1119756D01*
X-8186297Y-1129135D01*
X-8162264Y-1133918D01*
X-8137760Y-1133920D01*
X-8113726Y-1129142D01*
X-8091086Y-1119767D01*
X-8085139Y-1115794D01*
X-8045567Y-1094642D01*
X-8010974Y-1084148D01*
X-7968859Y-1080000D01*
X-7361141Y-1080000D01*
X-7319026Y-1084148D01*
X-7284433Y-1094642D01*
X-7252560Y-1111678D01*
X-7224614Y-1134614D01*
X-7201678Y-1162560D01*
X-7184642Y-1194433D01*
X-7174148Y-1229026D01*
X-7170000Y-1271141D01*
X-7170000Y-1928859D01*
X-7174148Y-1970974D01*
X-7184642Y-2005567D01*
X-7201678Y-2037440D01*
X-7224614Y-2065386D01*
X-7252560Y-2088322D01*
X-7284433Y-2105358D01*
X-7319026Y-2115852D01*
X-7361141Y-2120000D01*
X-7968859Y-2120000D01*
X-8010974Y-2115852D01*
X-8045567Y-2105358D01*
X-8085127Y-2084213D01*
X-8091066Y-2080244D01*
X-8113703Y-2070865D01*
X-8137736Y-2066082D01*
X-8162240Y-2066080D01*
X-8186274Y-2070858D01*
X-8208914Y-2080233D01*
X-8214861Y-2084206D01*
X-8254433Y-2105358D01*
X-8289026Y-2115852D01*
X-8331141Y-2120000D01*
X-8938859Y-2120000D01*
X-8980974Y-2115852D01*
X-9015567Y-2105358D01*
X-9047440Y-2088322D01*
X-9075386Y-2065386D01*
X-9098322Y-2037440D01*
X-9115358Y-2005567D01*
X-9125852Y-1970974D01*
X-9130000Y-1928859D01*
X-9130000Y-1271141D01*
X-9125852Y-1229026D01*
X-9115358Y-1194433D01*
X-9098322Y-1162560D01*
X-9075386Y-1134614D01*
X-9039884Y-1105477D01*
X-9035712Y-1102690D01*
X-9018383Y-1085366D01*
X-9004767Y-1064993D01*
X-8995387Y-1042355D01*
X-8990603Y-1018323D01*
X-8990000Y-1006055D01*
X-8990000Y75001D01*
X-8992402Y99387D01*
X-8999515Y122836D01*
X-9011066Y144447D01*
X-9026611Y163389D01*
X-9045553Y178934D01*
X-9067164Y190485D01*
X-9090613Y197598D01*
X-9114999Y200000D01*
X-9685001Y200000D01*
X-9709387Y197598D01*
X-9732836Y190485D01*
X-9754447Y178934D01*
X-9773389Y163389D01*
X-9788934Y144447D01*
X-9800485Y122836D01*
X-9807598Y99387D01*
X-9810000Y75001D01*
X-9810000Y-1006055D01*
X-9807598Y-1030441D01*
X-9800485Y-1053890D01*
X-9788934Y-1075501D01*
X-9773389Y-1094443D01*
X-9762005Y-1103786D01*
X-9762074Y-1103870D01*
X-9724614Y-1134614D01*
X-9701678Y-1162560D01*
X-9684642Y-1194433D01*
X-9674148Y-1229026D01*
X-9670000Y-1271141D01*
X-9670000Y-1928859D01*
X-9674148Y-1970974D01*
X-9684642Y-2005567D01*
X-9701678Y-2037440D01*
X-9724614Y-2065386D01*
X-9752560Y-2088322D01*
X-9784433Y-2105358D01*
X-9819026Y-2115852D01*
X-9861141Y-2120000D01*
X-10468859Y-2120000D01*
X-10510974Y-2115852D01*
X-10545567Y-2105358D01*
X-10585127Y-2084213D01*
X-10591066Y-2080244D01*
X-10613703Y-2070865D01*
X-10637736Y-2066082D01*
X-10662240Y-2066080D01*
X-10686274Y-2070858D01*
X-10708914Y-2080233D01*
X-10714861Y-2084206D01*
X-10754433Y-2105358D01*
X-10789026Y-2115852D01*
X-10831141Y-2120000D01*
X-11438859Y-2120000D01*
X-11480974Y-2115852D01*
X-11515567Y-2105358D01*
X-11547440Y-2088322D01*
X-11575386Y-2065386D01*
X-11598322Y-2037440D01*
X-11615358Y-2005567D01*
X-11625852Y-1970974D01*
X-11630000Y-1928859D01*
X-11630000Y-1271141D01*
X-11625852Y-1229026D01*
X-11615358Y-1194433D01*
X-11598322Y-1162560D01*
X-11575386Y-1134614D01*
X-11547440Y-1111678D01*
X-11515567Y-1094642D01*
X-11480974Y-1084148D01*
X-11438859Y-1080000D01*
X-10831141Y-1080000D01*
X-10789026Y-1084148D01*
X-10754433Y-1094642D01*
X-10714873Y-1115787D01*
X-10708934Y-1119756D01*
X-10686297Y-1129135D01*
X-10662264Y-1133918D01*
X-10637760Y-1133920D01*
X-10613726Y-1129142D01*
X-10591086Y-1119767D01*
X-10585143Y-1115796D01*
X-10556074Y-1100258D01*
X-10535700Y-1086644D01*
X-10518373Y-1069317D01*
X-10504759Y-1048942D01*
X-10495382Y-1026303D01*
X-10490000Y-990019D01*
X-10490000Y-39999D01*
X-10492402Y-15613D01*
X-10499515Y7836D01*
X-10511066Y29447D01*
X-10526611Y48389D01*
X-10545553Y63934D01*
X-10567164Y75485D01*
X-10590613Y82598D01*
X-10614999Y85000D01*
X-11750000Y85000D01*
X-11750000Y2765000D01*
X-10614999Y2765000D01*
X-10590613Y2767402D01*
X-10567164Y2774515D01*
X-10545553Y2786066D01*
X-10526611Y2801611D01*
X-10511066Y2820553D01*
X-10499515Y2842164D01*
X-10492402Y2865613D01*
X-10490000Y2889999D01*
X-10490000Y3775000D01*
X-9810000Y3775000D01*
X-9810000Y2774999D01*
X-9810000Y2774999D01*
G37*
G36*
X28890000Y1749999D02*
G01*
X28892402Y1725613D01*
X28899515Y1702164D01*
X28911066Y1680553D01*
X28926611Y1661611D01*
X28945553Y1646066D01*
X28967164Y1634515D01*
X28990613Y1627402D01*
X29014999Y1625000D01*
X29585001Y1625000D01*
X29609387Y1627402D01*
X29632836Y1634515D01*
X29654447Y1646066D01*
X29673389Y1661611D01*
X29688934Y1680553D01*
X29700485Y1702164D01*
X29707598Y1725613D01*
X29710000Y1749999D01*
X29710000Y2750000D01*
X30390000Y2750000D01*
X30390000Y1864999D01*
X30392402Y1840613D01*
X30399515Y1817164D01*
X30411066Y1795553D01*
X30426611Y1776611D01*
X30445553Y1761066D01*
X30467164Y1749515D01*
X30490613Y1742402D01*
X30514999Y1740000D01*
X31650000Y1740000D01*
X31650000Y-940000D01*
X30514999Y-940000D01*
X30490613Y-942402D01*
X30467164Y-949515D01*
X30445553Y-961066D01*
X30426611Y-976611D01*
X30411066Y-995553D01*
X30399515Y-1017164D01*
X30392402Y-1040613D01*
X30390000Y-1064999D01*
X30390000Y-1950000D01*
X29710000Y-1950000D01*
X29710000Y-949999D01*
X29707598Y-925613D01*
X29700485Y-902164D01*
X29688934Y-880553D01*
X29673389Y-861611D01*
X29654447Y-846066D01*
X29632836Y-834515D01*
X29609387Y-827402D01*
X29585001Y-825000D01*
X29014999Y-825000D01*
X28990613Y-827402D01*
X28967164Y-834515D01*
X28945553Y-846066D01*
X28926611Y-861611D01*
X28911066Y-880553D01*
X28899515Y-902164D01*
X28892402Y-925613D01*
X28890000Y-949999D01*
X28890000Y-1950000D01*
X28210000Y-1950000D01*
X28210000Y-1064999D01*
X28207598Y-1040613D01*
X28200485Y-1017164D01*
X28188934Y-995553D01*
X28173389Y-976611D01*
X28154447Y-961066D01*
X28132836Y-949515D01*
X28109387Y-942402D01*
X28085001Y-940000D01*
X26950000Y-940000D01*
X26950000Y1740000D01*
X28085001Y1740000D01*
X28109387Y1742402D01*
X28132836Y1749515D01*
X28154447Y1761066D01*
X28173389Y1776611D01*
X28188934Y1795553D01*
X28200485Y1817164D01*
X28207598Y1840613D01*
X28210000Y1864999D01*
X28210000Y2750000D01*
X28890000Y2750000D01*
X28890000Y1749999D01*
X28890000Y1749999D01*
G37*
G36*
X-1522842Y6721262D02*
G01*
X-913182Y6468732D01*
X-913180Y6468731D01*
X-846867Y6424422D01*
X-364500Y6102115D01*
X102115Y5635500D01*
X468732Y5086818D01*
X721262Y4477158D01*
X850000Y3829948D01*
X850000Y3170052D01*
X721262Y2522842D01*
X478542Y1936866D01*
X468731Y1913180D01*
X102115Y1364500D01*
X-364500Y897885D01*
X-913180Y531269D01*
X-913181Y531268D01*
X-913182Y531268D01*
X-1522842Y278738D01*
X-2170052Y150000D01*
X-2829948Y150000D01*
X-3477158Y278738D01*
X-4086818Y531268D01*
X-4086819Y531268D01*
X-4086820Y531269D01*
X-4635500Y897885D01*
X-5102115Y1364500D01*
X-5468731Y1913180D01*
X-5478542Y1936866D01*
X-5721262Y2522842D01*
X-5850000Y3170052D01*
X-5850000Y3829948D01*
X-5721262Y4477158D01*
X-5468732Y5086818D01*
X-5102115Y5635500D01*
X-4635500Y6102115D01*
X-4153133Y6424422D01*
X-4086820Y6468731D01*
X-4086818Y6468732D01*
X-3477158Y6721262D01*
X-2829948Y6850000D01*
X-2170052Y6850000D01*
X-1522842Y6721262D01*
X-1522842Y6721262D01*
G37*
G36*
X23143798Y6736592D02*
G01*
X23462574Y6673183D01*
X24063136Y6424422D01*
X24603627Y6063277D01*
X25063277Y5603627D01*
X25424422Y5063136D01*
X25673183Y4462574D01*
X25736592Y4143798D01*
X25800000Y3825023D01*
X25800000Y3174977D01*
X25770119Y3024756D01*
X25673183Y2537426D01*
X25424422Y1936864D01*
X25063277Y1396373D01*
X24603627Y936723D01*
X24063136Y575578D01*
X24063135Y575577D01*
X24063134Y575577D01*
X23956165Y531269D01*
X23462574Y326817D01*
X23143798Y263408D01*
X22825023Y200000D01*
X22174977Y200000D01*
X21856202Y263408D01*
X21537426Y326817D01*
X21043835Y531269D01*
X20936866Y575577D01*
X20936865Y575577D01*
X20936864Y575578D01*
X20396373Y936723D01*
X19936723Y1396373D01*
X19575578Y1936864D01*
X19326817Y2537426D01*
X19229881Y3024756D01*
X19200000Y3174977D01*
X19200000Y3825023D01*
X19263408Y4143798D01*
X19326817Y4462574D01*
X19575578Y5063136D01*
X19936723Y5603627D01*
X20396373Y6063277D01*
X20936864Y6424422D01*
X21537426Y6673183D01*
X21856202Y6736592D01*
X22174977Y6800000D01*
X22825023Y6800000D01*
X23143798Y6736592D01*
X23143798Y6736592D01*
G37*
G36*
X28920974Y4975852D02*
G01*
X28955567Y4965358D01*
X28987440Y4948322D01*
X29015386Y4925386D01*
X29038322Y4897440D01*
X29055358Y4865567D01*
X29065852Y4830974D01*
X29070000Y4788859D01*
X29070000Y4181141D01*
X29065852Y4139026D01*
X29055358Y4104433D01*
X29034213Y4064873D01*
X29030244Y4058934D01*
X29020865Y4036297D01*
X29016082Y4012264D01*
X29016080Y3987760D01*
X29020858Y3963726D01*
X29030233Y3941086D01*
X29034206Y3935139D01*
X29055358Y3895567D01*
X29065852Y3860974D01*
X29070000Y3818859D01*
X29070000Y3211141D01*
X29065852Y3169026D01*
X29055358Y3134433D01*
X29038322Y3102560D01*
X29015386Y3074614D01*
X28987440Y3051678D01*
X28955567Y3034642D01*
X28920974Y3024148D01*
X28878859Y3020000D01*
X28221141Y3020000D01*
X28179026Y3024148D01*
X28144433Y3034642D01*
X28112560Y3051678D01*
X28084614Y3074614D01*
X28061678Y3102560D01*
X28044642Y3134433D01*
X28034148Y3169026D01*
X28030000Y3211141D01*
X28030000Y3818859D01*
X28034148Y3860974D01*
X28044642Y3895567D01*
X28065787Y3935127D01*
X28069756Y3941066D01*
X28079135Y3963703D01*
X28083918Y3987736D01*
X28083920Y4012240D01*
X28079142Y4036274D01*
X28069767Y4058914D01*
X28065794Y4064861D01*
X28044642Y4104433D01*
X28034148Y4139026D01*
X28030000Y4181141D01*
X28030000Y4788859D01*
X28034148Y4830974D01*
X28044642Y4865567D01*
X28061678Y4897440D01*
X28084614Y4925386D01*
X28112560Y4948322D01*
X28144433Y4965358D01*
X28179026Y4975852D01*
X28221141Y4980000D01*
X28878859Y4980000D01*
X28920974Y4975852D01*
X28920974Y4975852D01*
G37*
G36*
X30420974Y4975852D02*
G01*
X30455567Y4965358D01*
X30487440Y4948322D01*
X30515386Y4925386D01*
X30538322Y4897440D01*
X30555358Y4865567D01*
X30565852Y4830974D01*
X30570000Y4788859D01*
X30570000Y4181141D01*
X30565852Y4139026D01*
X30555358Y4104433D01*
X30534213Y4064873D01*
X30530244Y4058934D01*
X30520865Y4036297D01*
X30516082Y4012264D01*
X30516080Y3987760D01*
X30520858Y3963726D01*
X30530233Y3941086D01*
X30534206Y3935139D01*
X30555358Y3895567D01*
X30565852Y3860974D01*
X30570000Y3818859D01*
X30570000Y3211141D01*
X30565852Y3169026D01*
X30555358Y3134433D01*
X30538322Y3102560D01*
X30515386Y3074614D01*
X30487440Y3051678D01*
X30455567Y3034642D01*
X30420974Y3024148D01*
X30378859Y3020000D01*
X29721141Y3020000D01*
X29679026Y3024148D01*
X29644433Y3034642D01*
X29612560Y3051678D01*
X29584614Y3074614D01*
X29561678Y3102560D01*
X29544642Y3134433D01*
X29534148Y3169026D01*
X29530000Y3211141D01*
X29530000Y3818859D01*
X29534148Y3860974D01*
X29544642Y3895567D01*
X29565787Y3935127D01*
X29569756Y3941066D01*
X29579135Y3963703D01*
X29583918Y3987736D01*
X29583920Y4012240D01*
X29579142Y4036274D01*
X29569767Y4058914D01*
X29565794Y4064861D01*
X29544642Y4104433D01*
X29534148Y4139026D01*
X29530000Y4181141D01*
X29530000Y4788859D01*
X29534148Y4830974D01*
X29544642Y4865567D01*
X29561678Y4897440D01*
X29584614Y4925386D01*
X29612560Y4948322D01*
X29644433Y4965358D01*
X29679026Y4975852D01*
X29721141Y4980000D01*
X30378859Y4980000D01*
X30420974Y4975852D01*
X30420974Y4975852D01*
G37*
G36*
X7553530Y8969123D02*
G01*
X7605010Y8953507D01*
X7652445Y8928152D01*
X7694027Y8894027D01*
X7728152Y8852445D01*
X7753507Y8805010D01*
X7769123Y8753530D01*
X7775000Y8693860D01*
X7775000Y7906140D01*
X7769123Y7846470D01*
X7753507Y7794990D01*
X7728152Y7747555D01*
X7694027Y7705973D01*
X7652445Y7671848D01*
X7605010Y7646493D01*
X7553530Y7630877D01*
X7493860Y7625000D01*
X6606140Y7625000D01*
X6546470Y7630877D01*
X6494990Y7646493D01*
X6447555Y7671848D01*
X6405973Y7705973D01*
X6371848Y7747555D01*
X6346493Y7794990D01*
X6330877Y7846470D01*
X6325000Y7906140D01*
X6325000Y8693860D01*
X6330877Y8753530D01*
X6346493Y8805010D01*
X6371848Y8852445D01*
X6405973Y8894027D01*
X6447555Y8928152D01*
X6494990Y8953507D01*
X6546470Y8969123D01*
X6606140Y8975000D01*
X7493860Y8975000D01*
X7553530Y8969123D01*
X7553530Y8969123D01*
G37*
G36*
X12074372Y9003373D02*
G01*
X12094747Y8989759D01*
X12117386Y8980382D01*
X12153670Y8975000D01*
X13018860Y8975000D01*
X13078530Y8969123D01*
X13130010Y8953507D01*
X13177445Y8928152D01*
X13219027Y8894027D01*
X13253152Y8852445D01*
X13278507Y8805010D01*
X13294123Y8753530D01*
X13300000Y8693860D01*
X13300000Y7906140D01*
X13294123Y7846470D01*
X13278507Y7794990D01*
X13253152Y7747555D01*
X13219027Y7705973D01*
X13177445Y7671848D01*
X13130010Y7646493D01*
X13078530Y7630877D01*
X13018860Y7625000D01*
X12131140Y7625000D01*
X12071470Y7630877D01*
X12019990Y7646493D01*
X11972555Y7671848D01*
X11930973Y7705973D01*
X11896848Y7747555D01*
X11871493Y7794990D01*
X11855877Y7846470D01*
X11850000Y7906140D01*
X11850000Y8693860D01*
X11855877Y8753530D01*
X11871493Y8805010D01*
X11896848Y8852445D01*
X11930973Y8894027D01*
X11972554Y8928152D01*
X12003630Y8944762D01*
X12024004Y8958375D01*
X12041331Y8975702D01*
X12054945Y8996076D01*
X12062772Y9014973D01*
X12074372Y9003373D01*
X12074372Y9003373D01*
G37*
G36*
X9303530Y8969123D02*
G01*
X9355010Y8953507D01*
X9402445Y8928152D01*
X9444027Y8894027D01*
X9478152Y8852445D01*
X9503507Y8805010D01*
X9519123Y8753530D01*
X9525000Y8693860D01*
X9525000Y7906140D01*
X9519123Y7846470D01*
X9503507Y7794990D01*
X9478152Y7747555D01*
X9444027Y7705973D01*
X9402445Y7671848D01*
X9355010Y7646493D01*
X9303530Y7630877D01*
X9243860Y7625000D01*
X8356140Y7625000D01*
X8296470Y7630877D01*
X8244990Y7646493D01*
X8197555Y7671848D01*
X8155973Y7705973D01*
X8121848Y7747555D01*
X8096493Y7794990D01*
X8080877Y7846470D01*
X8075000Y7906140D01*
X8075000Y8693860D01*
X8080877Y8753530D01*
X8096493Y8805010D01*
X8121848Y8852445D01*
X8155973Y8894027D01*
X8197555Y8928152D01*
X8244990Y8953507D01*
X8296470Y8969123D01*
X8356140Y8975000D01*
X9243860Y8975000D01*
X9303530Y8969123D01*
X9303530Y8969123D01*
G37*
G36*
X11060974Y10215852D02*
G01*
X11095567Y10205358D01*
X11135127Y10184213D01*
X11141066Y10180244D01*
X11163703Y10170865D01*
X11187736Y10166082D01*
X11212240Y10166080D01*
X11236274Y10170858D01*
X11258914Y10180233D01*
X11264861Y10184206D01*
X11304433Y10205358D01*
X11339026Y10215852D01*
X11381141Y10220000D01*
X11988859Y10220000D01*
X12030974Y10215852D01*
X12065567Y10205358D01*
X12097440Y10188322D01*
X12125386Y10165386D01*
X12148322Y10137440D01*
X12165358Y10105567D01*
X12175852Y10070974D01*
X12180000Y10028859D01*
X12180000Y9371141D01*
X12175852Y9329026D01*
X12165358Y9294433D01*
X12148322Y9262560D01*
X12125386Y9234614D01*
X12097442Y9211679D01*
X12094745Y9210238D01*
X12074371Y9196624D01*
X12057044Y9179297D01*
X12043430Y9158922D01*
X12035604Y9140027D01*
X12024005Y9151626D01*
X12003631Y9165240D01*
X11980992Y9174617D01*
X11956958Y9179398D01*
X11944706Y9180000D01*
X11455294Y9180000D01*
X11430908Y9177598D01*
X11407459Y9170485D01*
X11385848Y9158934D01*
X11366906Y9143389D01*
X11351361Y9124447D01*
X11340857Y9104794D01*
X11338927Y9124385D01*
X11331814Y9147834D01*
X11320263Y9169445D01*
X11304718Y9188387D01*
X11275255Y9210238D01*
X11264869Y9215789D01*
X11258934Y9219756D01*
X11236297Y9229135D01*
X11212264Y9233918D01*
X11187760Y9233920D01*
X11163726Y9229142D01*
X11141086Y9219767D01*
X11135143Y9215796D01*
X11124745Y9210238D01*
X11104371Y9196624D01*
X11087044Y9179297D01*
X11073430Y9158922D01*
X11064053Y9136283D01*
X11059273Y9112250D01*
X11059273Y9087746D01*
X11064054Y9063713D01*
X11073431Y9041074D01*
X11087045Y9020700D01*
X11104372Y9003373D01*
X11124747Y8989759D01*
X11147386Y8980382D01*
X11183670Y8975000D01*
X11216330Y8975000D01*
X11240716Y8977402D01*
X11264165Y8984515D01*
X11285776Y8996066D01*
X11304718Y9011611D01*
X11320263Y9030553D01*
X11330767Y9050206D01*
X11332697Y9030615D01*
X11339810Y9007166D01*
X11351361Y8985555D01*
X11366906Y8966613D01*
X11385848Y8951068D01*
X11396370Y8944762D01*
X11427446Y8928152D01*
X11469027Y8894027D01*
X11503152Y8852445D01*
X11528507Y8805010D01*
X11544123Y8753530D01*
X11550000Y8693860D01*
X11550000Y7906140D01*
X11544123Y7846470D01*
X11528507Y7794990D01*
X11503152Y7747555D01*
X11469027Y7705973D01*
X11427445Y7671848D01*
X11380010Y7646493D01*
X11328530Y7630877D01*
X11268860Y7625000D01*
X10381140Y7625000D01*
X10321470Y7630877D01*
X10269990Y7646493D01*
X10222555Y7671848D01*
X10180973Y7705973D01*
X10146848Y7747555D01*
X10121493Y7794990D01*
X10105877Y7846470D01*
X10100000Y7906140D01*
X10100000Y8693860D01*
X10105877Y8753530D01*
X10121493Y8805010D01*
X10146848Y8852445D01*
X10180973Y8894027D01*
X10222555Y8928152D01*
X10269991Y8953507D01*
X10310120Y8965680D01*
X10332759Y8975057D01*
X10353134Y8988671D01*
X10370461Y9005998D01*
X10384075Y9026372D01*
X10393452Y9049011D01*
X10398233Y9073044D01*
X10398233Y9097548D01*
X10393453Y9121581D01*
X10384076Y9144220D01*
X10370462Y9164595D01*
X10353135Y9181922D01*
X10332760Y9195536D01*
X10302560Y9211678D01*
X10274614Y9234614D01*
X10251678Y9262560D01*
X10234642Y9294433D01*
X10224148Y9329026D01*
X10220000Y9371141D01*
X10220000Y10028859D01*
X10224148Y10070974D01*
X10234642Y10105567D01*
X10251678Y10137440D01*
X10274614Y10165386D01*
X10302560Y10188322D01*
X10334433Y10205358D01*
X10369026Y10215852D01*
X10411141Y10220000D01*
X11018859Y10220000D01*
X11060974Y10215852D01*
X11060974Y10215852D01*
G37*
G36*
X8175974Y10265852D02*
G01*
X8210567Y10255358D01*
X8250127Y10234213D01*
X8256066Y10230244D01*
X8278703Y10220865D01*
X8302736Y10216082D01*
X8327240Y10216080D01*
X8351274Y10220858D01*
X8373914Y10230233D01*
X8379861Y10234206D01*
X8419433Y10255358D01*
X8454026Y10265852D01*
X8496141Y10270000D01*
X9103859Y10270000D01*
X9145974Y10265852D01*
X9180567Y10255358D01*
X9212440Y10238322D01*
X9240386Y10215386D01*
X9263322Y10187440D01*
X9280358Y10155567D01*
X9290852Y10120974D01*
X9295000Y10078859D01*
X9295000Y9421141D01*
X9290852Y9379026D01*
X9280358Y9344433D01*
X9263322Y9312560D01*
X9240386Y9284614D01*
X9212440Y9261678D01*
X9180567Y9244642D01*
X9145974Y9234148D01*
X9103859Y9230000D01*
X8496141Y9230000D01*
X8454026Y9234148D01*
X8419433Y9244642D01*
X8379873Y9265787D01*
X8373934Y9269756D01*
X8351297Y9279135D01*
X8327264Y9283918D01*
X8302760Y9283920D01*
X8278726Y9279142D01*
X8256086Y9269767D01*
X8250139Y9265794D01*
X8210567Y9244642D01*
X8175974Y9234148D01*
X8133859Y9230000D01*
X7526141Y9230000D01*
X7484026Y9234148D01*
X7449433Y9244642D01*
X7417560Y9261678D01*
X7389614Y9284614D01*
X7366678Y9312560D01*
X7349642Y9344433D01*
X7339148Y9379026D01*
X7335000Y9421141D01*
X7335000Y10078859D01*
X7339148Y10120974D01*
X7349642Y10155567D01*
X7366678Y10187440D01*
X7389614Y10215386D01*
X7417560Y10238322D01*
X7449433Y10255358D01*
X7484026Y10265852D01*
X7526141Y10270000D01*
X8133859Y10270000D01*
X8175974Y10265852D01*
X8175974Y10265852D01*
G37*
G36*
X14297500Y14096200D02*
G01*
X13524999Y14096200D01*
X13500613Y14093798D01*
X13477164Y14086685D01*
X13455553Y14075134D01*
X13436611Y14059589D01*
X13421066Y14040647D01*
X13409515Y14019036D01*
X13402402Y13995587D01*
X13400000Y13971201D01*
X13400000Y11696200D01*
X6600000Y11696200D01*
X6600000Y13971201D01*
X8475000Y13971201D01*
X8475000Y13601199D01*
X8477402Y13576813D01*
X8484515Y13553364D01*
X8496066Y13531753D01*
X8511611Y13512811D01*
X8530553Y13497266D01*
X8552164Y13485715D01*
X8575613Y13478602D01*
X8599999Y13476200D01*
X11400001Y13476200D01*
X11424387Y13478602D01*
X11447836Y13485715D01*
X11469447Y13497266D01*
X11488389Y13512811D01*
X11503934Y13531753D01*
X11515485Y13553364D01*
X11522598Y13576813D01*
X11525000Y13601199D01*
X11525000Y13971201D01*
X11522598Y13995587D01*
X11515485Y14019036D01*
X11503934Y14040647D01*
X11488389Y14059589D01*
X11469447Y14075134D01*
X11447836Y14086685D01*
X11424387Y14093798D01*
X11400001Y14096200D01*
X8599999Y14096200D01*
X8575613Y14093798D01*
X8552164Y14086685D01*
X8530553Y14075134D01*
X8511611Y14059589D01*
X8496066Y14040647D01*
X8484515Y14019036D01*
X8477402Y13995587D01*
X8475000Y13971201D01*
X6600000Y13971201D01*
X6597598Y13995587D01*
X6590485Y14019036D01*
X6578934Y14040647D01*
X6563389Y14059589D01*
X6544447Y14075134D01*
X6522836Y14086685D01*
X6499387Y14093798D01*
X6475001Y14096200D01*
X5702500Y14096200D01*
X5702500Y16396200D01*
X14297500Y16396200D01*
X14297500Y14096200D01*
X14297500Y14096200D01*
G37*
M02*
