M48
; DRILL file {KiCad (5.1.0)-1} date 21-Jun-19 17:50:42
; FORMAT={-:-/ absolute / metric / decimal}
; #@! TF.CreationDate,2019-06-21T17:50:42-03:00
; #@! TF.GenerationSoftware,Kicad,Pcbnew,(5.1.0)-1
; #@! TF.FileFunction,Plated,1,2,PTH
FMAT,2
METRIC
T1C0.300
T2C0.700
T3C0.800
T4C3.200
%
G90
G05
T1
X-12.2Y-24.3
X-10.985Y-0.765
X-10.008Y2.002
X-10.008Y0.782
X-9.5Y-19.1
X-9.5Y-21.75
X-9.398Y1.392
X-8.839Y0.782
X-8.788Y2.002
X-7.95Y-24.4
X-7.65Y-0.8
X-7.4Y3.65
X-7.366Y-13.818
X-7.264Y-11.328
X-7.264Y-16.358
X-6.858Y-15.88
X-6.807Y-16.916
X-6.761Y-13.208
X-6.69Y-13.985
X-6.523Y-14.671
X-6.452Y-15.372
X-6.3Y-1.7
X-6.25Y-8.6
X-6.25Y-11.2
X-6.142Y-12.162
X-6.142Y-12.827
X-6.132Y-13.503
X-5.984Y-14.199
X-5.903Y-14.895
X-5.537Y-15.524
X-5.329Y-14.514
X-5.2Y-19.55
X-4.973Y-15.143
X-4.65Y-26.2
X-4.633Y-14.539
X-4.375Y-20.675
X-4.375Y-21.475
X-4.237Y-15.174
X-3.375Y-31.125
X-3.35Y-5.25
X-3.35Y-16.95
X-2.3Y-5.7
X-2.1Y-14.85
X-2.1Y-16.4
X-2.1Y-33.325
X-2.075Y-32.375
X-1.95Y-26.2
X-1.25Y-27.225
X-0.88Y-25.0
X0.401Y0.254
X0.425Y-31.125
X0.55Y-25.05
X0.6Y-4.45
X0.65Y-2.0
X0.65Y-3.65
X0.726Y-2.85
X1.961Y-1.163
X2.15Y-12.2
X2.325Y-32.425
X2.325Y-33.375
X2.35Y-5.35
X2.758Y-1.158
X3.0Y-5.98
X3.2Y-6.85
X3.25Y-27.15
X3.668Y-1.179
X3.731Y-8.431
X4.044Y-9.398
X4.247Y1.199
X4.516Y-1.179
X4.525Y-8.875
X4.877Y-9.469
X4.928Y15.596
X5.029Y14.884
X5.283Y14.173
X5.436Y7.569
X5.436Y2.266
X5.842Y13.614
X5.994Y12.903
X6.045Y12.192
X6.548Y1.234
X6.7Y9.7
X6.85Y-5.25
X6.85Y-6.05
X6.85Y-6.05
X6.85Y-6.85
X6.9Y-4.45
X6.904Y-1.978
X7.082Y-1.28
X7.15Y-0.35
X7.168Y0.589
X7.2Y-9.75
X7.2Y-13.3
X7.529Y-6.434
X7.554Y-1.793
X7.8Y-2.7
X8.092Y1.331
X8.109Y-7.008
X8.12Y-15.03
X8.336Y-4.467
X8.374Y-3.6
X8.509Y-0.564
X8.75Y-25.225
X8.9Y-13.1
X8.992Y13.767
X9.088Y0.381
X9.482Y-9.4
X9.585Y-6.948
X9.875Y-4.22
X9.967Y-0.605
X9.98Y-3.18
X9.997Y1.311
X10.14Y-2.39
X10.196Y-9.995
X10.3Y-16.75
X10.358Y-7.111
X10.803Y-4.5
X10.82Y-5.28
X10.973Y13.767
X11.14Y-11.78
X11.2Y-7.0
X11.2Y-19.75
X11.2Y-23.4
X11.867Y-0.564
X11.94Y-2.97
X12.0Y-7.0
X12.4Y-11.75
X12.549Y-3.97
X12.56Y-4.75
X12.6Y9.6
X12.8Y-7.01
X12.8Y-9.475
X12.8Y-20.1
X12.807Y0.554
X12.877Y-0.354
X12.899Y-1.933
X12.9Y-1.153
X12.912Y-2.713
X13.619Y5.044
X13.619Y3.774
X13.7Y1.9
X13.8Y-16.75
X13.995Y12.979
X14.122Y13.716
X14.525Y-23.25
X14.681Y14.326
X14.7Y-9.2
X14.7Y-10.15
X14.884Y15.037
X14.935Y15.799
X14.99Y12.35
X15.509Y-22.591
X15.646Y-17.882
X15.79Y5.099
X16.0Y-13.45
X16.016Y-8.603
X16.178Y-0.178
X16.454Y-6.851
X16.55Y-21.45
X16.57Y5.12
X16.65Y-25.6
X16.655Y-8.155
X16.675Y-27.775
X16.675Y-31.975
X16.75Y-2.35
X17.1Y14.1
X17.291Y3.081
X17.35Y5.17
X17.526Y-19.863
X17.55Y-6.85
X17.56Y-2.712
X17.75Y-3.75
X17.8Y0.4
X18.25Y3.15
X18.542Y-18.593
X18.6Y2.05
X18.6Y-17.05
X18.65Y-20.9
X18.7Y-6.9
X18.85Y-29.425
X19.1Y-5.25
X19.5Y-14.3
X19.5Y-15.9
X19.5Y-25.62
X19.5Y-26.9
X19.88Y-30.85
X20.25Y-4.88
X20.269Y-6.299
X21.03Y-4.88
X21.1Y-29.9
X21.23Y-17.05
X21.3Y-1.11
X21.35Y-20.9
X21.429Y-5.55
X21.9Y12.3
X22.5Y13.2
X22.65Y-4.88
X22.65Y-1.1
X22.85Y9.25
X23.85Y-1.05
X24.05Y-28.55
X24.247Y-6.253
X24.435Y-4.653
X24.577Y-5.375
X24.675Y-30.2
X25.25Y-5.45
X25.25Y-14.55
X25.5Y-4.3
X25.928Y-5.273
X26.094Y-3.344
X26.411Y-4.404
X26.609Y-5.044
X26.75Y2.2
X27.05Y-3.5
X27.5Y4.45
X28.651Y1.036
X28.651Y-0.234
X29.277Y5.061
X29.362Y0.376
X29.921Y-0.234
X29.972Y1.036
X31.09Y4.47
T2
X-5.45Y-16.85
T3
X-10.8Y-3.65
X-10.8Y-6.19
X-10.8Y-8.73
X-10.8Y-11.27
X-10.8Y-13.81
X-10.8Y-16.35
X-8.1Y-4.92
X-8.1Y-7.46
X-8.1Y-10.0
X-8.1Y-12.54
X-8.1Y-15.08
X-8.1Y-17.62
X28.1Y-4.92
X28.1Y-7.46
X28.1Y-10.0
X28.1Y-12.54
X28.1Y-15.08
X28.1Y-17.62
X30.8Y-3.65
X30.8Y-6.19
X30.8Y-8.73
X30.8Y-11.27
X30.8Y-13.81
X30.8Y-16.35
T4
X-2.5Y3.5
X10.0Y-30.2
X22.5Y3.5
T0
M30
