G04 #@! TF.GenerationSoftware,KiCad,Pcbnew,(5.1.0)-1*
G04 #@! TF.CreationDate,2019-06-21T14:43:25-03:00*
G04 #@! TF.ProjectId,PCB_C,5043425f-432e-46b6-9963-61645f706362,rev?*
G04 #@! TF.SameCoordinates,Original*
G04 #@! TF.FileFunction,Soldermask,Bot*
G04 #@! TF.FilePolarity,Negative*
%FSLAX46Y46*%
G04 Gerber Fmt 4.6, Leading zero omitted, Abs format (unit mm)*
G04 Created by KiCad (PCBNEW (5.1.0)-1) date 2019-06-21 14:43:25*
%MOMM*%
%LPD*%
G04 APERTURE LIST*
%ADD10C,0.100000*%
G04 APERTURE END LIST*
D10*
G36*
X10643798Y-26963409D02*
G01*
X10962574Y-27026817D01*
X11563136Y-27275578D01*
X12103627Y-27636723D01*
X12563277Y-28096373D01*
X12924422Y-28636864D01*
X13173183Y-29237426D01*
X13300000Y-29874978D01*
X13300000Y-30525022D01*
X13173183Y-31162574D01*
X12924422Y-31763136D01*
X12563277Y-32303627D01*
X12103627Y-32763277D01*
X11563136Y-33124422D01*
X10962574Y-33373183D01*
X10643798Y-33436591D01*
X10325023Y-33500000D01*
X9674977Y-33500000D01*
X9356202Y-33436591D01*
X9037426Y-33373183D01*
X8436864Y-33124422D01*
X7896373Y-32763277D01*
X7436723Y-32303627D01*
X7075578Y-31763136D01*
X6826817Y-31162574D01*
X6700000Y-30525022D01*
X6700000Y-29874978D01*
X6826817Y-29237426D01*
X7075578Y-28636864D01*
X7436723Y-28096373D01*
X7896373Y-27636723D01*
X8436864Y-27275578D01*
X9037426Y-27026817D01*
X9356202Y-26963409D01*
X9674977Y-26900000D01*
X10325023Y-26900000D01*
X10643798Y-26963409D01*
X10643798Y-26963409D01*
G37*
G36*
X-2914664Y-21068254D02*
G01*
X-2822895Y-21086508D01*
X-2650006Y-21158121D01*
X-2494410Y-21262087D01*
X-2362087Y-21394410D01*
X-2258121Y-21550006D01*
X-2186508Y-21722895D01*
X-2150000Y-21906433D01*
X-2150000Y-22093567D01*
X-2186508Y-22277105D01*
X-2258121Y-22449994D01*
X-2362087Y-22605590D01*
X-2494410Y-22737913D01*
X-2650006Y-22841879D01*
X-2822895Y-22913492D01*
X-2914664Y-22931746D01*
X-3006432Y-22950000D01*
X-3193568Y-22950000D01*
X-3285336Y-22931746D01*
X-3377105Y-22913492D01*
X-3549994Y-22841879D01*
X-3705590Y-22737913D01*
X-3837913Y-22605590D01*
X-3941879Y-22449994D01*
X-4013492Y-22277105D01*
X-4050000Y-22093567D01*
X-4050000Y-21906433D01*
X-4013492Y-21722895D01*
X-3941879Y-21550006D01*
X-3837913Y-21394410D01*
X-3705590Y-21262087D01*
X-3549994Y-21158121D01*
X-3377105Y-21086508D01*
X-3285336Y-21068254D01*
X-3193568Y-21050000D01*
X-3006432Y-21050000D01*
X-2914664Y-21068254D01*
X-2914664Y-21068254D01*
G37*
G36*
X-2914664Y-18518254D02*
G01*
X-2822895Y-18536508D01*
X-2650006Y-18608121D01*
X-2494410Y-18712087D01*
X-2362087Y-18844410D01*
X-2258121Y-19000006D01*
X-2186508Y-19172895D01*
X-2186508Y-19172896D01*
X-2151279Y-19350000D01*
X-2150000Y-19356433D01*
X-2150000Y-19543567D01*
X-2186508Y-19727105D01*
X-2258121Y-19899994D01*
X-2362087Y-20055590D01*
X-2494410Y-20187913D01*
X-2650006Y-20291879D01*
X-2822895Y-20363492D01*
X-2914664Y-20381746D01*
X-3006432Y-20400000D01*
X-3193568Y-20400000D01*
X-3285336Y-20381746D01*
X-3377105Y-20363492D01*
X-3549994Y-20291879D01*
X-3705590Y-20187913D01*
X-3837913Y-20055590D01*
X-3941879Y-19899994D01*
X-4013492Y-19727105D01*
X-4050000Y-19543567D01*
X-4050000Y-19356433D01*
X-4048720Y-19350000D01*
X-4013492Y-19172896D01*
X-4013492Y-19172895D01*
X-3941879Y-19000006D01*
X-3837913Y-18844410D01*
X-3705590Y-18712087D01*
X-3549994Y-18608121D01*
X-3377105Y-18536508D01*
X-3285336Y-18518254D01*
X-3193568Y-18500000D01*
X-3006432Y-18500000D01*
X-2914664Y-18518254D01*
X-2914664Y-18518254D01*
G37*
G36*
X23935336Y-17468254D02*
G01*
X24027105Y-17486508D01*
X24199994Y-17558121D01*
X24355590Y-17662087D01*
X24487913Y-17794410D01*
X24591879Y-17950006D01*
X24661199Y-18117360D01*
X24663492Y-18122896D01*
X24700000Y-18306432D01*
X24700000Y-18493568D01*
X24688676Y-18550498D01*
X24663492Y-18677105D01*
X24591879Y-18849994D01*
X24487913Y-19005590D01*
X24355590Y-19137913D01*
X24199994Y-19241879D01*
X24027105Y-19313492D01*
X23935336Y-19331746D01*
X23843568Y-19350000D01*
X23656432Y-19350000D01*
X23564664Y-19331746D01*
X23472895Y-19313492D01*
X23300006Y-19241879D01*
X23144410Y-19137913D01*
X23012087Y-19005590D01*
X22908121Y-18849994D01*
X22836508Y-18677105D01*
X22811324Y-18550498D01*
X22800000Y-18493568D01*
X22800000Y-18306432D01*
X22836508Y-18122896D01*
X22838801Y-18117360D01*
X22908121Y-17950006D01*
X23012087Y-17794410D01*
X23144410Y-17662087D01*
X23300006Y-17558121D01*
X23472895Y-17486508D01*
X23564664Y-17468254D01*
X23656432Y-17450000D01*
X23843568Y-17450000D01*
X23935336Y-17468254D01*
X23935336Y-17468254D01*
G37*
G36*
X-7971313Y-16575027D02*
G01*
X-7793726Y-16610350D01*
X-7602638Y-16689502D01*
X-7430664Y-16804411D01*
X-7284411Y-16950664D01*
X-7169502Y-17122638D01*
X-7090350Y-17313726D01*
X-7050000Y-17516584D01*
X-7050000Y-17723416D01*
X-7090350Y-17926274D01*
X-7169502Y-18117362D01*
X-7284411Y-18289336D01*
X-7430664Y-18435589D01*
X-7602638Y-18550498D01*
X-7793726Y-18629650D01*
X-7971313Y-18664973D01*
X-7996583Y-18670000D01*
X-8203417Y-18670000D01*
X-8228687Y-18664973D01*
X-8406274Y-18629650D01*
X-8597362Y-18550498D01*
X-8769336Y-18435589D01*
X-8915589Y-18289336D01*
X-9030498Y-18117362D01*
X-9109650Y-17926274D01*
X-9150000Y-17723416D01*
X-9150000Y-17516584D01*
X-9109650Y-17313726D01*
X-9030498Y-17122638D01*
X-8915589Y-16950664D01*
X-8769336Y-16804411D01*
X-8597362Y-16689502D01*
X-8406274Y-16610350D01*
X-8228687Y-16575027D01*
X-8203417Y-16570000D01*
X-7996583Y-16570000D01*
X-7971313Y-16575027D01*
X-7971313Y-16575027D01*
G37*
G36*
X28228687Y-16575027D02*
G01*
X28406274Y-16610350D01*
X28597362Y-16689502D01*
X28769336Y-16804411D01*
X28915589Y-16950664D01*
X29030498Y-17122638D01*
X29109650Y-17313726D01*
X29150000Y-17516584D01*
X29150000Y-17723416D01*
X29109650Y-17926274D01*
X29030498Y-18117362D01*
X28915589Y-18289336D01*
X28769336Y-18435589D01*
X28597362Y-18550498D01*
X28406274Y-18629650D01*
X28228687Y-18664973D01*
X28203417Y-18670000D01*
X27996583Y-18670000D01*
X27971313Y-18664973D01*
X27793726Y-18629650D01*
X27602638Y-18550498D01*
X27430664Y-18435589D01*
X27284411Y-18289336D01*
X27169502Y-18117362D01*
X27090350Y-17926274D01*
X27050000Y-17723416D01*
X27050000Y-17516584D01*
X27090350Y-17313726D01*
X27169502Y-17122638D01*
X27284411Y-16950664D01*
X27430664Y-16804411D01*
X27602638Y-16689502D01*
X27793726Y-16610350D01*
X27971313Y-16575027D01*
X27996583Y-16570000D01*
X28203417Y-16570000D01*
X28228687Y-16575027D01*
X28228687Y-16575027D01*
G37*
G36*
X-4500000Y-17800000D02*
G01*
X-6400000Y-17800000D01*
X-6400000Y-15900000D01*
X-4500000Y-15900000D01*
X-4500000Y-17800000D01*
X-4500000Y-17800000D01*
G37*
G36*
X30928687Y-15305027D02*
G01*
X31106274Y-15340350D01*
X31297362Y-15419502D01*
X31469336Y-15534411D01*
X31615589Y-15680664D01*
X31730498Y-15852638D01*
X31809650Y-16043726D01*
X31850000Y-16246584D01*
X31850000Y-16453416D01*
X31809650Y-16656274D01*
X31730498Y-16847362D01*
X31615589Y-17019336D01*
X31469336Y-17165589D01*
X31297362Y-17280498D01*
X31106274Y-17359650D01*
X30928687Y-17394973D01*
X30903417Y-17400000D01*
X30696583Y-17400000D01*
X30671313Y-17394973D01*
X30493726Y-17359650D01*
X30302638Y-17280498D01*
X30130664Y-17165589D01*
X29984411Y-17019336D01*
X29869502Y-16847362D01*
X29790350Y-16656274D01*
X29750000Y-16453416D01*
X29750000Y-16246584D01*
X29790350Y-16043726D01*
X29869502Y-15852638D01*
X29984411Y-15680664D01*
X30130664Y-15534411D01*
X30302638Y-15419502D01*
X30493726Y-15340350D01*
X30671313Y-15305027D01*
X30696583Y-15300000D01*
X30903417Y-15300000D01*
X30928687Y-15305027D01*
X30928687Y-15305027D01*
G37*
G36*
X-10671313Y-15305027D02*
G01*
X-10493726Y-15340350D01*
X-10302638Y-15419502D01*
X-10130664Y-15534411D01*
X-9984411Y-15680664D01*
X-9869502Y-15852638D01*
X-9790350Y-16043726D01*
X-9750000Y-16246584D01*
X-9750000Y-16453416D01*
X-9790350Y-16656274D01*
X-9869502Y-16847362D01*
X-9984411Y-17019336D01*
X-10130664Y-17165589D01*
X-10302638Y-17280498D01*
X-10493726Y-17359650D01*
X-10671313Y-17394973D01*
X-10696583Y-17400000D01*
X-10903417Y-17400000D01*
X-10928687Y-17394973D01*
X-11106274Y-17359650D01*
X-11297362Y-17280498D01*
X-11469336Y-17165589D01*
X-11615589Y-17019336D01*
X-11730498Y-16847362D01*
X-11809650Y-16656274D01*
X-11850000Y-16453416D01*
X-11850000Y-16246584D01*
X-11809650Y-16043726D01*
X-11730498Y-15852638D01*
X-11615589Y-15680664D01*
X-11469336Y-15534411D01*
X-11297362Y-15419502D01*
X-11106274Y-15340350D01*
X-10928687Y-15305027D01*
X-10903417Y-15300000D01*
X-10696583Y-15300000D01*
X-10671313Y-15305027D01*
X-10671313Y-15305027D01*
G37*
G36*
X-464664Y-14718254D02*
G01*
X-372895Y-14736508D01*
X-200006Y-14808121D01*
X-44410Y-14912087D01*
X87913Y-15044410D01*
X191879Y-15200006D01*
X256673Y-15356433D01*
X263492Y-15372896D01*
X300000Y-15556432D01*
X300000Y-15743568D01*
X281746Y-15835336D01*
X263492Y-15927105D01*
X191879Y-16099994D01*
X87913Y-16255590D01*
X-44410Y-16387913D01*
X-200006Y-16491879D01*
X-372895Y-16563492D01*
X-464664Y-16581746D01*
X-556432Y-16600000D01*
X-743568Y-16600000D01*
X-835336Y-16581746D01*
X-927105Y-16563492D01*
X-1099994Y-16491879D01*
X-1255590Y-16387913D01*
X-1387913Y-16255590D01*
X-1491879Y-16099994D01*
X-1563492Y-15927105D01*
X-1581746Y-15835336D01*
X-1600000Y-15743568D01*
X-1600000Y-15556432D01*
X-1563492Y-15372896D01*
X-1556673Y-15356433D01*
X-1491879Y-15200006D01*
X-1387913Y-15044410D01*
X-1255590Y-14912087D01*
X-1099994Y-14808121D01*
X-927105Y-14736508D01*
X-835336Y-14718254D01*
X-743568Y-14700000D01*
X-556432Y-14700000D01*
X-464664Y-14718254D01*
X-464664Y-14718254D01*
G37*
G36*
X23935336Y-14518254D02*
G01*
X24027105Y-14536508D01*
X24199994Y-14608121D01*
X24355590Y-14712087D01*
X24487913Y-14844410D01*
X24591879Y-15000006D01*
X24663492Y-15172895D01*
X24700000Y-15356433D01*
X24700000Y-15543567D01*
X24663492Y-15727105D01*
X24591879Y-15899994D01*
X24487913Y-16055590D01*
X24355590Y-16187913D01*
X24199994Y-16291879D01*
X24027105Y-16363492D01*
X23935336Y-16381746D01*
X23843568Y-16400000D01*
X23656432Y-16400000D01*
X23564664Y-16381746D01*
X23472895Y-16363492D01*
X23300006Y-16291879D01*
X23144410Y-16187913D01*
X23012087Y-16055590D01*
X22908121Y-15899994D01*
X22836508Y-15727105D01*
X22800000Y-15543567D01*
X22800000Y-15356433D01*
X22836508Y-15172895D01*
X22908121Y-15000006D01*
X23012087Y-14844410D01*
X23144410Y-14712087D01*
X23300006Y-14608121D01*
X23472895Y-14536508D01*
X23564664Y-14518254D01*
X23656432Y-14500000D01*
X23843568Y-14500000D01*
X23935336Y-14518254D01*
X23935336Y-14518254D01*
G37*
G36*
X-7971313Y-14035027D02*
G01*
X-7793726Y-14070350D01*
X-7602638Y-14149502D01*
X-7430664Y-14264411D01*
X-7284411Y-14410664D01*
X-7169502Y-14582638D01*
X-7090350Y-14773726D01*
X-7050000Y-14976584D01*
X-7050000Y-15183416D01*
X-7090350Y-15386274D01*
X-7169502Y-15577362D01*
X-7284411Y-15749336D01*
X-7430664Y-15895589D01*
X-7602638Y-16010498D01*
X-7793726Y-16089650D01*
X-7971313Y-16124973D01*
X-7996583Y-16130000D01*
X-8203417Y-16130000D01*
X-8228687Y-16124973D01*
X-8406274Y-16089650D01*
X-8597362Y-16010498D01*
X-8769336Y-15895589D01*
X-8915589Y-15749336D01*
X-9030498Y-15577362D01*
X-9109650Y-15386274D01*
X-9150000Y-15183416D01*
X-9150000Y-14976584D01*
X-9109650Y-14773726D01*
X-9030498Y-14582638D01*
X-8915589Y-14410664D01*
X-8769336Y-14264411D01*
X-8597362Y-14149502D01*
X-8406274Y-14070350D01*
X-8228687Y-14035027D01*
X-8203417Y-14030000D01*
X-7996583Y-14030000D01*
X-7971313Y-14035027D01*
X-7971313Y-14035027D01*
G37*
G36*
X28228687Y-14035027D02*
G01*
X28406274Y-14070350D01*
X28597362Y-14149502D01*
X28769336Y-14264411D01*
X28915589Y-14410664D01*
X29030498Y-14582638D01*
X29109650Y-14773726D01*
X29150000Y-14976584D01*
X29150000Y-15183416D01*
X29109650Y-15386274D01*
X29030498Y-15577362D01*
X28915589Y-15749336D01*
X28769336Y-15895589D01*
X28597362Y-16010498D01*
X28406274Y-16089650D01*
X28228687Y-16124973D01*
X28203417Y-16130000D01*
X27996583Y-16130000D01*
X27971313Y-16124973D01*
X27793726Y-16089650D01*
X27602638Y-16010498D01*
X27430664Y-15895589D01*
X27284411Y-15749336D01*
X27169502Y-15577362D01*
X27090350Y-15386274D01*
X27050000Y-15183416D01*
X27050000Y-14976584D01*
X27090350Y-14773726D01*
X27169502Y-14582638D01*
X27284411Y-14410664D01*
X27430664Y-14264411D01*
X27602638Y-14149502D01*
X27793726Y-14070350D01*
X27971313Y-14035027D01*
X27996583Y-14030000D01*
X28203417Y-14030000D01*
X28228687Y-14035027D01*
X28228687Y-14035027D01*
G37*
G36*
X30928687Y-12765027D02*
G01*
X31106274Y-12800350D01*
X31297362Y-12879502D01*
X31469336Y-12994411D01*
X31615589Y-13140664D01*
X31730498Y-13312638D01*
X31809650Y-13503726D01*
X31850000Y-13706584D01*
X31850000Y-13913416D01*
X31809650Y-14116274D01*
X31730498Y-14307362D01*
X31615589Y-14479336D01*
X31469336Y-14625589D01*
X31297362Y-14740498D01*
X31106274Y-14819650D01*
X30928687Y-14854973D01*
X30903417Y-14860000D01*
X30696583Y-14860000D01*
X30671313Y-14854973D01*
X30493726Y-14819650D01*
X30302638Y-14740498D01*
X30130664Y-14625589D01*
X29984411Y-14479336D01*
X29869502Y-14307362D01*
X29790350Y-14116274D01*
X29750000Y-13913416D01*
X29750000Y-13706584D01*
X29790350Y-13503726D01*
X29869502Y-13312638D01*
X29984411Y-13140664D01*
X30130664Y-12994411D01*
X30302638Y-12879502D01*
X30493726Y-12800350D01*
X30671313Y-12765027D01*
X30696583Y-12760000D01*
X30903417Y-12760000D01*
X30928687Y-12765027D01*
X30928687Y-12765027D01*
G37*
G36*
X-10671313Y-12765027D02*
G01*
X-10493726Y-12800350D01*
X-10302638Y-12879502D01*
X-10130664Y-12994411D01*
X-9984411Y-13140664D01*
X-9869502Y-13312638D01*
X-9790350Y-13503726D01*
X-9750000Y-13706584D01*
X-9750000Y-13913416D01*
X-9790350Y-14116274D01*
X-9869502Y-14307362D01*
X-9984411Y-14479336D01*
X-10130664Y-14625589D01*
X-10302638Y-14740498D01*
X-10493726Y-14819650D01*
X-10671313Y-14854973D01*
X-10696583Y-14860000D01*
X-10903417Y-14860000D01*
X-10928687Y-14854973D01*
X-11106274Y-14819650D01*
X-11297362Y-14740498D01*
X-11469336Y-14625589D01*
X-11615589Y-14479336D01*
X-11730498Y-14307362D01*
X-11809650Y-14116274D01*
X-11850000Y-13913416D01*
X-11850000Y-13706584D01*
X-11809650Y-13503726D01*
X-11730498Y-13312638D01*
X-11615589Y-13140664D01*
X-11469336Y-12994411D01*
X-11297362Y-12879502D01*
X-11106274Y-12800350D01*
X-10928687Y-12765027D01*
X-10903417Y-12760000D01*
X-10696583Y-12760000D01*
X-10671313Y-12765027D01*
X-10671313Y-12765027D01*
G37*
G36*
X28228687Y-11495027D02*
G01*
X28406274Y-11530350D01*
X28597362Y-11609502D01*
X28769336Y-11724411D01*
X28915589Y-11870664D01*
X29030498Y-12042638D01*
X29109650Y-12233726D01*
X29150000Y-12436584D01*
X29150000Y-12643416D01*
X29109650Y-12846274D01*
X29030498Y-13037362D01*
X28915589Y-13209336D01*
X28769336Y-13355589D01*
X28597362Y-13470498D01*
X28406274Y-13549650D01*
X28228687Y-13584973D01*
X28203417Y-13590000D01*
X27996583Y-13590000D01*
X27971313Y-13584973D01*
X27793726Y-13549650D01*
X27602638Y-13470498D01*
X27430664Y-13355589D01*
X27284411Y-13209336D01*
X27169502Y-13037362D01*
X27090350Y-12846274D01*
X27050000Y-12643416D01*
X27050000Y-12436584D01*
X27090350Y-12233726D01*
X27169502Y-12042638D01*
X27284411Y-11870664D01*
X27430664Y-11724411D01*
X27602638Y-11609502D01*
X27793726Y-11530350D01*
X27971313Y-11495027D01*
X27996583Y-11490000D01*
X28203417Y-11490000D01*
X28228687Y-11495027D01*
X28228687Y-11495027D01*
G37*
G36*
X-7971313Y-11495027D02*
G01*
X-7793726Y-11530350D01*
X-7602638Y-11609502D01*
X-7430664Y-11724411D01*
X-7284411Y-11870664D01*
X-7169502Y-12042638D01*
X-7090350Y-12233726D01*
X-7050000Y-12436584D01*
X-7050000Y-12643416D01*
X-7090350Y-12846274D01*
X-7169502Y-13037362D01*
X-7284411Y-13209336D01*
X-7430664Y-13355589D01*
X-7602638Y-13470498D01*
X-7793726Y-13549650D01*
X-7971313Y-13584973D01*
X-7996583Y-13590000D01*
X-8203417Y-13590000D01*
X-8228687Y-13584973D01*
X-8406274Y-13549650D01*
X-8597362Y-13470498D01*
X-8769336Y-13355589D01*
X-8915589Y-13209336D01*
X-9030498Y-13037362D01*
X-9109650Y-12846274D01*
X-9150000Y-12643416D01*
X-9150000Y-12436584D01*
X-9109650Y-12233726D01*
X-9030498Y-12042638D01*
X-8915589Y-11870664D01*
X-8769336Y-11724411D01*
X-8597362Y-11609502D01*
X-8406274Y-11530350D01*
X-8228687Y-11495027D01*
X-8203417Y-11490000D01*
X-7996583Y-11490000D01*
X-7971313Y-11495027D01*
X-7971313Y-11495027D01*
G37*
G36*
X18911396Y-11063492D02*
G01*
X19027105Y-11086508D01*
X19199994Y-11158121D01*
X19355590Y-11262087D01*
X19487913Y-11394410D01*
X19591879Y-11550006D01*
X19663492Y-11722895D01*
X19700000Y-11906433D01*
X19700000Y-12093567D01*
X19663492Y-12277105D01*
X19591879Y-12449994D01*
X19487913Y-12605590D01*
X19355590Y-12737913D01*
X19199994Y-12841879D01*
X19027105Y-12913492D01*
X18935336Y-12931746D01*
X18843568Y-12950000D01*
X18656432Y-12950000D01*
X18564664Y-12931746D01*
X18472895Y-12913492D01*
X18300006Y-12841879D01*
X18144410Y-12737913D01*
X18012087Y-12605590D01*
X17908121Y-12449994D01*
X17836508Y-12277105D01*
X17800000Y-12093567D01*
X17800000Y-11906433D01*
X17836508Y-11722895D01*
X17908121Y-11550006D01*
X18012087Y-11394410D01*
X18144410Y-11262087D01*
X18300006Y-11158121D01*
X18472895Y-11086508D01*
X18588604Y-11063492D01*
X18656432Y-11050000D01*
X18843568Y-11050000D01*
X18911396Y-11063492D01*
X18911396Y-11063492D01*
G37*
G36*
X23011396Y-11063492D02*
G01*
X23127105Y-11086508D01*
X23299994Y-11158121D01*
X23455590Y-11262087D01*
X23587913Y-11394410D01*
X23691879Y-11550006D01*
X23763492Y-11722895D01*
X23800000Y-11906433D01*
X23800000Y-12093567D01*
X23763492Y-12277105D01*
X23691879Y-12449994D01*
X23587913Y-12605590D01*
X23455590Y-12737913D01*
X23299994Y-12841879D01*
X23127105Y-12913492D01*
X23035336Y-12931746D01*
X22943568Y-12950000D01*
X22756432Y-12950000D01*
X22664664Y-12931746D01*
X22572895Y-12913492D01*
X22400006Y-12841879D01*
X22244410Y-12737913D01*
X22112087Y-12605590D01*
X22008121Y-12449994D01*
X21936508Y-12277105D01*
X21900000Y-12093567D01*
X21900000Y-11906433D01*
X21936508Y-11722895D01*
X22008121Y-11550006D01*
X22112087Y-11394410D01*
X22244410Y-11262087D01*
X22400006Y-11158121D01*
X22572895Y-11086508D01*
X22688604Y-11063492D01*
X22756432Y-11050000D01*
X22943568Y-11050000D01*
X23011396Y-11063492D01*
X23011396Y-11063492D01*
G37*
G36*
X-10671313Y-10225027D02*
G01*
X-10493726Y-10260350D01*
X-10302638Y-10339502D01*
X-10130664Y-10454411D01*
X-9984411Y-10600664D01*
X-9869502Y-10772638D01*
X-9790350Y-10963726D01*
X-9750000Y-11166584D01*
X-9750000Y-11373416D01*
X-9790350Y-11576274D01*
X-9869502Y-11767362D01*
X-9984411Y-11939336D01*
X-10130664Y-12085589D01*
X-10302638Y-12200498D01*
X-10493726Y-12279650D01*
X-10671313Y-12314973D01*
X-10696583Y-12320000D01*
X-10903417Y-12320000D01*
X-10928687Y-12314973D01*
X-11106274Y-12279650D01*
X-11297362Y-12200498D01*
X-11469336Y-12085589D01*
X-11615589Y-11939336D01*
X-11730498Y-11767362D01*
X-11809650Y-11576274D01*
X-11850000Y-11373416D01*
X-11850000Y-11166584D01*
X-11809650Y-10963726D01*
X-11730498Y-10772638D01*
X-11615589Y-10600664D01*
X-11469336Y-10454411D01*
X-11297362Y-10339502D01*
X-11106274Y-10260350D01*
X-10928687Y-10225027D01*
X-10903417Y-10220000D01*
X-10696583Y-10220000D01*
X-10671313Y-10225027D01*
X-10671313Y-10225027D01*
G37*
G36*
X30928687Y-10225027D02*
G01*
X31106274Y-10260350D01*
X31297362Y-10339502D01*
X31469336Y-10454411D01*
X31615589Y-10600664D01*
X31730498Y-10772638D01*
X31809650Y-10963726D01*
X31850000Y-11166584D01*
X31850000Y-11373416D01*
X31809650Y-11576274D01*
X31730498Y-11767362D01*
X31615589Y-11939336D01*
X31469336Y-12085589D01*
X31297362Y-12200498D01*
X31106274Y-12279650D01*
X30928687Y-12314973D01*
X30903417Y-12320000D01*
X30696583Y-12320000D01*
X30671313Y-12314973D01*
X30493726Y-12279650D01*
X30302638Y-12200498D01*
X30130664Y-12085589D01*
X29984411Y-11939336D01*
X29869502Y-11767362D01*
X29790350Y-11576274D01*
X29750000Y-11373416D01*
X29750000Y-11166584D01*
X29790350Y-10963726D01*
X29869502Y-10772638D01*
X29984411Y-10600664D01*
X30130664Y-10454411D01*
X30302638Y-10339502D01*
X30493726Y-10260350D01*
X30671313Y-10225027D01*
X30696583Y-10220000D01*
X30903417Y-10220000D01*
X30928687Y-10225027D01*
X30928687Y-10225027D01*
G37*
G36*
X16835336Y-9218254D02*
G01*
X16927105Y-9236508D01*
X17099994Y-9308121D01*
X17255590Y-9412087D01*
X17387913Y-9544410D01*
X17491879Y-9700006D01*
X17563492Y-9872895D01*
X17563492Y-9872896D01*
X17600000Y-10056432D01*
X17600000Y-10243568D01*
X17587527Y-10306272D01*
X17563492Y-10427105D01*
X17491879Y-10599994D01*
X17387913Y-10755590D01*
X17255590Y-10887913D01*
X17099994Y-10991879D01*
X16927105Y-11063492D01*
X16835336Y-11081746D01*
X16743568Y-11100000D01*
X16556432Y-11100000D01*
X16464664Y-11081746D01*
X16372895Y-11063492D01*
X16200006Y-10991879D01*
X16044410Y-10887913D01*
X15912087Y-10755590D01*
X15808121Y-10599994D01*
X15736508Y-10427105D01*
X15712473Y-10306272D01*
X15700000Y-10243568D01*
X15700000Y-10056432D01*
X15736508Y-9872896D01*
X15736508Y-9872895D01*
X15808121Y-9700006D01*
X15912087Y-9544410D01*
X16044410Y-9412087D01*
X16200006Y-9308121D01*
X16372895Y-9236508D01*
X16464664Y-9218254D01*
X16556432Y-9200000D01*
X16743568Y-9200000D01*
X16835336Y-9218254D01*
X16835336Y-9218254D01*
G37*
G36*
X20985336Y-9218254D02*
G01*
X21077105Y-9236508D01*
X21249994Y-9308121D01*
X21405590Y-9412087D01*
X21537913Y-9544410D01*
X21641879Y-9700006D01*
X21713492Y-9872895D01*
X21713492Y-9872896D01*
X21750000Y-10056432D01*
X21750000Y-10243568D01*
X21737527Y-10306272D01*
X21713492Y-10427105D01*
X21641879Y-10599994D01*
X21537913Y-10755590D01*
X21405590Y-10887913D01*
X21249994Y-10991879D01*
X21077105Y-11063492D01*
X20985336Y-11081746D01*
X20893568Y-11100000D01*
X20706432Y-11100000D01*
X20614664Y-11081746D01*
X20522895Y-11063492D01*
X20350006Y-10991879D01*
X20194410Y-10887913D01*
X20062087Y-10755590D01*
X19958121Y-10599994D01*
X19886508Y-10427105D01*
X19862473Y-10306272D01*
X19850000Y-10243568D01*
X19850000Y-10056432D01*
X19886508Y-9872896D01*
X19886508Y-9872895D01*
X19958121Y-9700006D01*
X20062087Y-9544410D01*
X20194410Y-9412087D01*
X20350006Y-9308121D01*
X20522895Y-9236508D01*
X20614664Y-9218254D01*
X20706432Y-9200000D01*
X20893568Y-9200000D01*
X20985336Y-9218254D01*
X20985336Y-9218254D01*
G37*
G36*
X28228687Y-8955027D02*
G01*
X28406274Y-8990350D01*
X28597362Y-9069502D01*
X28769336Y-9184411D01*
X28915589Y-9330664D01*
X29030498Y-9502638D01*
X29109650Y-9693726D01*
X29150000Y-9896584D01*
X29150000Y-10103416D01*
X29109650Y-10306274D01*
X29030498Y-10497362D01*
X28915589Y-10669336D01*
X28769336Y-10815589D01*
X28597362Y-10930498D01*
X28406274Y-11009650D01*
X28228687Y-11044973D01*
X28203417Y-11050000D01*
X27996583Y-11050000D01*
X27971313Y-11044973D01*
X27793726Y-11009650D01*
X27602638Y-10930498D01*
X27430664Y-10815589D01*
X27284411Y-10669336D01*
X27169502Y-10497362D01*
X27090350Y-10306274D01*
X27050000Y-10103416D01*
X27050000Y-9896584D01*
X27090350Y-9693726D01*
X27169502Y-9502638D01*
X27284411Y-9330664D01*
X27430664Y-9184411D01*
X27602638Y-9069502D01*
X27793726Y-8990350D01*
X27971313Y-8955027D01*
X27996583Y-8950000D01*
X28203417Y-8950000D01*
X28228687Y-8955027D01*
X28228687Y-8955027D01*
G37*
G36*
X-7971313Y-8955027D02*
G01*
X-7793726Y-8990350D01*
X-7602638Y-9069502D01*
X-7430664Y-9184411D01*
X-7284411Y-9330664D01*
X-7169502Y-9502638D01*
X-7090350Y-9693726D01*
X-7050000Y-9896584D01*
X-7050000Y-10103416D01*
X-7090350Y-10306274D01*
X-7169502Y-10497362D01*
X-7284411Y-10669336D01*
X-7430664Y-10815589D01*
X-7602638Y-10930498D01*
X-7793726Y-11009650D01*
X-7971313Y-11044973D01*
X-7996583Y-11050000D01*
X-8203417Y-11050000D01*
X-8228687Y-11044973D01*
X-8406274Y-11009650D01*
X-8597362Y-10930498D01*
X-8769336Y-10815589D01*
X-8915589Y-10669336D01*
X-9030498Y-10497362D01*
X-9109650Y-10306274D01*
X-9150000Y-10103416D01*
X-9150000Y-9896584D01*
X-9109650Y-9693726D01*
X-9030498Y-9502638D01*
X-8915589Y-9330664D01*
X-8769336Y-9184411D01*
X-8597362Y-9069502D01*
X-8406274Y-8990350D01*
X-8228687Y-8955027D01*
X-8203417Y-8950000D01*
X-7996583Y-8950000D01*
X-7971313Y-8955027D01*
X-7971313Y-8955027D01*
G37*
G36*
X30928687Y-7685027D02*
G01*
X31106274Y-7720350D01*
X31297362Y-7799502D01*
X31469336Y-7914411D01*
X31615589Y-8060664D01*
X31730498Y-8232638D01*
X31809650Y-8423726D01*
X31850000Y-8626584D01*
X31850000Y-8833416D01*
X31809650Y-9036274D01*
X31730498Y-9227362D01*
X31615589Y-9399336D01*
X31469336Y-9545589D01*
X31297362Y-9660498D01*
X31106274Y-9739650D01*
X30928687Y-9774973D01*
X30903417Y-9780000D01*
X30696583Y-9780000D01*
X30671313Y-9774973D01*
X30493726Y-9739650D01*
X30302638Y-9660498D01*
X30130664Y-9545589D01*
X29984411Y-9399336D01*
X29869502Y-9227362D01*
X29790350Y-9036274D01*
X29750000Y-8833416D01*
X29750000Y-8626584D01*
X29790350Y-8423726D01*
X29869502Y-8232638D01*
X29984411Y-8060664D01*
X30130664Y-7914411D01*
X30302638Y-7799502D01*
X30493726Y-7720350D01*
X30671313Y-7685027D01*
X30696583Y-7680000D01*
X30903417Y-7680000D01*
X30928687Y-7685027D01*
X30928687Y-7685027D01*
G37*
G36*
X-10671313Y-7685027D02*
G01*
X-10493726Y-7720350D01*
X-10302638Y-7799502D01*
X-10130664Y-7914411D01*
X-9984411Y-8060664D01*
X-9869502Y-8232638D01*
X-9790350Y-8423726D01*
X-9750000Y-8626584D01*
X-9750000Y-8833416D01*
X-9790350Y-9036274D01*
X-9869502Y-9227362D01*
X-9984411Y-9399336D01*
X-10130664Y-9545589D01*
X-10302638Y-9660498D01*
X-10493726Y-9739650D01*
X-10671313Y-9774973D01*
X-10696583Y-9780000D01*
X-10903417Y-9780000D01*
X-10928687Y-9774973D01*
X-11106274Y-9739650D01*
X-11297362Y-9660498D01*
X-11469336Y-9545589D01*
X-11615589Y-9399336D01*
X-11730498Y-9227362D01*
X-11809650Y-9036274D01*
X-11850000Y-8833416D01*
X-11850000Y-8626584D01*
X-11809650Y-8423726D01*
X-11730498Y-8232638D01*
X-11615589Y-8060664D01*
X-11469336Y-7914411D01*
X-11297362Y-7799502D01*
X-11106274Y-7720350D01*
X-10928687Y-7685027D01*
X-10903417Y-7680000D01*
X-10696583Y-7680000D01*
X-10671313Y-7685027D01*
X-10671313Y-7685027D01*
G37*
G36*
X-7971313Y-6415027D02*
G01*
X-7793726Y-6450350D01*
X-7602638Y-6529502D01*
X-7430664Y-6644411D01*
X-7284411Y-6790664D01*
X-7169502Y-6962638D01*
X-7090350Y-7153726D01*
X-7050000Y-7356584D01*
X-7050000Y-7563416D01*
X-7090350Y-7766274D01*
X-7169502Y-7957362D01*
X-7284411Y-8129336D01*
X-7430664Y-8275589D01*
X-7602638Y-8390498D01*
X-7793726Y-8469650D01*
X-7971313Y-8504973D01*
X-7996583Y-8510000D01*
X-8203417Y-8510000D01*
X-8228687Y-8504973D01*
X-8406274Y-8469650D01*
X-8597362Y-8390498D01*
X-8769336Y-8275589D01*
X-8915589Y-8129336D01*
X-9030498Y-7957362D01*
X-9109650Y-7766274D01*
X-9150000Y-7563416D01*
X-9150000Y-7356584D01*
X-9109650Y-7153726D01*
X-9030498Y-6962638D01*
X-8915589Y-6790664D01*
X-8769336Y-6644411D01*
X-8597362Y-6529502D01*
X-8406274Y-6450350D01*
X-8228687Y-6415027D01*
X-8203417Y-6410000D01*
X-7996583Y-6410000D01*
X-7971313Y-6415027D01*
X-7971313Y-6415027D01*
G37*
G36*
X28228687Y-6415027D02*
G01*
X28406274Y-6450350D01*
X28597362Y-6529502D01*
X28769336Y-6644411D01*
X28915589Y-6790664D01*
X29030498Y-6962638D01*
X29109650Y-7153726D01*
X29150000Y-7356584D01*
X29150000Y-7563416D01*
X29109650Y-7766274D01*
X29030498Y-7957362D01*
X28915589Y-8129336D01*
X28769336Y-8275589D01*
X28597362Y-8390498D01*
X28406274Y-8469650D01*
X28228687Y-8504973D01*
X28203417Y-8510000D01*
X27996583Y-8510000D01*
X27971313Y-8504973D01*
X27793726Y-8469650D01*
X27602638Y-8390498D01*
X27430664Y-8275589D01*
X27284411Y-8129336D01*
X27169502Y-7957362D01*
X27090350Y-7766274D01*
X27050000Y-7563416D01*
X27050000Y-7356584D01*
X27090350Y-7153726D01*
X27169502Y-6962638D01*
X27284411Y-6790664D01*
X27430664Y-6644411D01*
X27602638Y-6529502D01*
X27793726Y-6450350D01*
X27971313Y-6415027D01*
X27996583Y-6410000D01*
X28203417Y-6410000D01*
X28228687Y-6415027D01*
X28228687Y-6415027D01*
G37*
G36*
X-10671313Y-5145027D02*
G01*
X-10493726Y-5180350D01*
X-10302638Y-5259502D01*
X-10130664Y-5374411D01*
X-9984411Y-5520664D01*
X-9869502Y-5692638D01*
X-9790350Y-5883726D01*
X-9750000Y-6086584D01*
X-9750000Y-6293416D01*
X-9790350Y-6496274D01*
X-9869502Y-6687362D01*
X-9984411Y-6859336D01*
X-10130664Y-7005589D01*
X-10302638Y-7120498D01*
X-10493726Y-7199650D01*
X-10671313Y-7234973D01*
X-10696583Y-7240000D01*
X-10903417Y-7240000D01*
X-10928687Y-7234973D01*
X-11106274Y-7199650D01*
X-11297362Y-7120498D01*
X-11469336Y-7005589D01*
X-11615589Y-6859336D01*
X-11730498Y-6687362D01*
X-11809650Y-6496274D01*
X-11850000Y-6293416D01*
X-11850000Y-6086584D01*
X-11809650Y-5883726D01*
X-11730498Y-5692638D01*
X-11615589Y-5520664D01*
X-11469336Y-5374411D01*
X-11297362Y-5259502D01*
X-11106274Y-5180350D01*
X-10928687Y-5145027D01*
X-10903417Y-5140000D01*
X-10696583Y-5140000D01*
X-10671313Y-5145027D01*
X-10671313Y-5145027D01*
G37*
G36*
X30928687Y-5145027D02*
G01*
X31106274Y-5180350D01*
X31297362Y-5259502D01*
X31469336Y-5374411D01*
X31615589Y-5520664D01*
X31730498Y-5692638D01*
X31809650Y-5883726D01*
X31850000Y-6086584D01*
X31850000Y-6293416D01*
X31809650Y-6496274D01*
X31730498Y-6687362D01*
X31615589Y-6859336D01*
X31469336Y-7005589D01*
X31297362Y-7120498D01*
X31106274Y-7199650D01*
X30928687Y-7234973D01*
X30903417Y-7240000D01*
X30696583Y-7240000D01*
X30671313Y-7234973D01*
X30493726Y-7199650D01*
X30302638Y-7120498D01*
X30130664Y-7005589D01*
X29984411Y-6859336D01*
X29869502Y-6687362D01*
X29790350Y-6496274D01*
X29750000Y-6293416D01*
X29750000Y-6086584D01*
X29790350Y-5883726D01*
X29869502Y-5692638D01*
X29984411Y-5520664D01*
X30130664Y-5374411D01*
X30302638Y-5259502D01*
X30493726Y-5180350D01*
X30671313Y-5145027D01*
X30696583Y-5140000D01*
X30903417Y-5140000D01*
X30928687Y-5145027D01*
X30928687Y-5145027D01*
G37*
G36*
X-7971313Y-3875027D02*
G01*
X-7793726Y-3910350D01*
X-7602638Y-3989502D01*
X-7430664Y-4104411D01*
X-7284411Y-4250664D01*
X-7169502Y-4422638D01*
X-7090350Y-4613726D01*
X-7050000Y-4816584D01*
X-7050000Y-5023416D01*
X-7090350Y-5226274D01*
X-7169502Y-5417362D01*
X-7284411Y-5589336D01*
X-7430664Y-5735589D01*
X-7602638Y-5850498D01*
X-7793726Y-5929650D01*
X-7971313Y-5964973D01*
X-7996583Y-5970000D01*
X-8203417Y-5970000D01*
X-8228687Y-5964973D01*
X-8406274Y-5929650D01*
X-8597362Y-5850498D01*
X-8769336Y-5735589D01*
X-8915589Y-5589336D01*
X-9030498Y-5417362D01*
X-9109650Y-5226274D01*
X-9150000Y-5023416D01*
X-9150000Y-4816584D01*
X-9109650Y-4613726D01*
X-9030498Y-4422638D01*
X-8915589Y-4250664D01*
X-8769336Y-4104411D01*
X-8597362Y-3989502D01*
X-8406274Y-3910350D01*
X-8228687Y-3875027D01*
X-8203417Y-3870000D01*
X-7996583Y-3870000D01*
X-7971313Y-3875027D01*
X-7971313Y-3875027D01*
G37*
G36*
X28228687Y-3875027D02*
G01*
X28406274Y-3910350D01*
X28597362Y-3989502D01*
X28769336Y-4104411D01*
X28915589Y-4250664D01*
X29030498Y-4422638D01*
X29109650Y-4613726D01*
X29150000Y-4816584D01*
X29150000Y-5023416D01*
X29109650Y-5226274D01*
X29030498Y-5417362D01*
X28915589Y-5589336D01*
X28769336Y-5735589D01*
X28597362Y-5850498D01*
X28406274Y-5929650D01*
X28228687Y-5964973D01*
X28203417Y-5970000D01*
X27996583Y-5970000D01*
X27971313Y-5964973D01*
X27793726Y-5929650D01*
X27602638Y-5850498D01*
X27430664Y-5735589D01*
X27284411Y-5589336D01*
X27169502Y-5417362D01*
X27090350Y-5226274D01*
X27050000Y-5023416D01*
X27050000Y-4816584D01*
X27090350Y-4613726D01*
X27169502Y-4422638D01*
X27284411Y-4250664D01*
X27430664Y-4104411D01*
X27602638Y-3989502D01*
X27793726Y-3910350D01*
X27971313Y-3875027D01*
X27996583Y-3870000D01*
X28203417Y-3870000D01*
X28228687Y-3875027D01*
X28228687Y-3875027D01*
G37*
G36*
X-10671313Y-2605027D02*
G01*
X-10493726Y-2640350D01*
X-10302638Y-2719502D01*
X-10130664Y-2834411D01*
X-9984411Y-2980664D01*
X-9869502Y-3152638D01*
X-9790350Y-3343726D01*
X-9750000Y-3546584D01*
X-9750000Y-3753416D01*
X-9790350Y-3956274D01*
X-9869502Y-4147362D01*
X-9984411Y-4319336D01*
X-10130664Y-4465589D01*
X-10302638Y-4580498D01*
X-10493726Y-4659650D01*
X-10671313Y-4694973D01*
X-10696583Y-4700000D01*
X-10903417Y-4700000D01*
X-10928687Y-4694973D01*
X-11106274Y-4659650D01*
X-11297362Y-4580498D01*
X-11469336Y-4465589D01*
X-11615589Y-4319336D01*
X-11730498Y-4147362D01*
X-11809650Y-3956274D01*
X-11850000Y-3753416D01*
X-11850000Y-3546584D01*
X-11809650Y-3343726D01*
X-11730498Y-3152638D01*
X-11615589Y-2980664D01*
X-11469336Y-2834411D01*
X-11297362Y-2719502D01*
X-11106274Y-2640350D01*
X-10928687Y-2605027D01*
X-10903417Y-2600000D01*
X-10696583Y-2600000D01*
X-10671313Y-2605027D01*
X-10671313Y-2605027D01*
G37*
G36*
X30928687Y-2605027D02*
G01*
X31106274Y-2640350D01*
X31297362Y-2719502D01*
X31469336Y-2834411D01*
X31615589Y-2980664D01*
X31730498Y-3152638D01*
X31809650Y-3343726D01*
X31850000Y-3546584D01*
X31850000Y-3753416D01*
X31809650Y-3956274D01*
X31730498Y-4147362D01*
X31615589Y-4319336D01*
X31469336Y-4465589D01*
X31297362Y-4580498D01*
X31106274Y-4659650D01*
X30928687Y-4694973D01*
X30903417Y-4700000D01*
X30696583Y-4700000D01*
X30671313Y-4694973D01*
X30493726Y-4659650D01*
X30302638Y-4580498D01*
X30130664Y-4465589D01*
X29984411Y-4319336D01*
X29869502Y-4147362D01*
X29790350Y-3956274D01*
X29750000Y-3753416D01*
X29750000Y-3546584D01*
X29790350Y-3343726D01*
X29869502Y-3152638D01*
X29984411Y-2980664D01*
X30130664Y-2834411D01*
X30302638Y-2719502D01*
X30493726Y-2640350D01*
X30671313Y-2605027D01*
X30696583Y-2600000D01*
X30903417Y-2600000D01*
X30928687Y-2605027D01*
X30928687Y-2605027D01*
G37*
G36*
X-2114664Y-2718254D02*
G01*
X-2022895Y-2736508D01*
X-1850006Y-2808121D01*
X-1694410Y-2912087D01*
X-1562087Y-3044410D01*
X-1458121Y-3200006D01*
X-1386508Y-3372895D01*
X-1386508Y-3372896D01*
X-1350000Y-3556432D01*
X-1350000Y-3743568D01*
X-1362417Y-3805990D01*
X-1386508Y-3927105D01*
X-1458121Y-4099994D01*
X-1562087Y-4255590D01*
X-1694410Y-4387913D01*
X-1850006Y-4491879D01*
X-2022895Y-4563492D01*
X-2108390Y-4580498D01*
X-2206432Y-4600000D01*
X-2393568Y-4600000D01*
X-2491610Y-4580498D01*
X-2577105Y-4563492D01*
X-2749994Y-4491879D01*
X-2905590Y-4387913D01*
X-3037913Y-4255590D01*
X-3141879Y-4099994D01*
X-3213492Y-3927105D01*
X-3237583Y-3805990D01*
X-3250000Y-3743568D01*
X-3250000Y-3556432D01*
X-3213492Y-3372896D01*
X-3213492Y-3372895D01*
X-3141879Y-3200006D01*
X-3037913Y-3044410D01*
X-2905590Y-2912087D01*
X-2749994Y-2808121D01*
X-2577105Y-2736508D01*
X-2485336Y-2718254D01*
X-2393568Y-2700000D01*
X-2206432Y-2700000D01*
X-2114664Y-2718254D01*
X-2114664Y-2718254D01*
G37*
G36*
X-4864664Y-2718254D02*
G01*
X-4772895Y-2736508D01*
X-4600006Y-2808121D01*
X-4444410Y-2912087D01*
X-4312087Y-3044410D01*
X-4208121Y-3200006D01*
X-4136508Y-3372895D01*
X-4136508Y-3372896D01*
X-4100000Y-3556432D01*
X-4100000Y-3743568D01*
X-4112417Y-3805990D01*
X-4136508Y-3927105D01*
X-4208121Y-4099994D01*
X-4312087Y-4255590D01*
X-4444410Y-4387913D01*
X-4600006Y-4491879D01*
X-4772895Y-4563492D01*
X-4858390Y-4580498D01*
X-4956432Y-4600000D01*
X-5143568Y-4600000D01*
X-5241610Y-4580498D01*
X-5327105Y-4563492D01*
X-5499994Y-4491879D01*
X-5655590Y-4387913D01*
X-5787913Y-4255590D01*
X-5891879Y-4099994D01*
X-5963492Y-3927105D01*
X-5987583Y-3805990D01*
X-6000000Y-3743568D01*
X-6000000Y-3556432D01*
X-5963492Y-3372896D01*
X-5963492Y-3372895D01*
X-5891879Y-3200006D01*
X-5787913Y-3044410D01*
X-5655590Y-2912087D01*
X-5499994Y-2808121D01*
X-5327105Y-2736508D01*
X-5235336Y-2718254D01*
X-5143568Y-2700000D01*
X-4956432Y-2700000D01*
X-4864664Y-2718254D01*
X-4864664Y-2718254D01*
G37*
G36*
X24213185Y-2263492D02*
G01*
X24330905Y-2286908D01*
X24503794Y-2358521D01*
X24659390Y-2462487D01*
X24791713Y-2594810D01*
X24895679Y-2750406D01*
X24930475Y-2834412D01*
X24967292Y-2923296D01*
X24991384Y-3044411D01*
X25003800Y-3106833D01*
X25003800Y-3293967D01*
X24967292Y-3477505D01*
X24895679Y-3650394D01*
X24791713Y-3805990D01*
X24659390Y-3938313D01*
X24503794Y-4042279D01*
X24330905Y-4113892D01*
X24239136Y-4132146D01*
X24147368Y-4150400D01*
X23960232Y-4150400D01*
X23868464Y-4132146D01*
X23776695Y-4113892D01*
X23603806Y-4042279D01*
X23448210Y-3938313D01*
X23315887Y-3805990D01*
X23211921Y-3650394D01*
X23140308Y-3477505D01*
X23103800Y-3293967D01*
X23103800Y-3106833D01*
X23116217Y-3044411D01*
X23140308Y-2923296D01*
X23177125Y-2834412D01*
X23211921Y-2750406D01*
X23315887Y-2594810D01*
X23448210Y-2462487D01*
X23603806Y-2358521D01*
X23776695Y-2286908D01*
X23894415Y-2263492D01*
X23960232Y-2250400D01*
X24147368Y-2250400D01*
X24213185Y-2263492D01*
X24213185Y-2263492D01*
G37*
G36*
X18035336Y-418254D02*
G01*
X18127105Y-436508D01*
X18299994Y-508121D01*
X18455590Y-612087D01*
X18587913Y-744410D01*
X18691879Y-900006D01*
X18763492Y-1072895D01*
X18800000Y-1256433D01*
X18800000Y-1443567D01*
X18763492Y-1627105D01*
X18691879Y-1799994D01*
X18587913Y-1955590D01*
X18455590Y-2087913D01*
X18299994Y-2191879D01*
X18127105Y-2263492D01*
X18035336Y-2281746D01*
X17943568Y-2300000D01*
X17756432Y-2300000D01*
X17664664Y-2281746D01*
X17572895Y-2263492D01*
X17400006Y-2191879D01*
X17244410Y-2087913D01*
X17112087Y-1955590D01*
X17008121Y-1799994D01*
X16936508Y-1627105D01*
X16900000Y-1443567D01*
X16900000Y-1256433D01*
X16936508Y-1072895D01*
X17008121Y-900006D01*
X17112087Y-744410D01*
X17244410Y-612087D01*
X17400006Y-508121D01*
X17572895Y-436508D01*
X17664664Y-418254D01*
X17756432Y-400000D01*
X17943568Y-400000D01*
X18035336Y-418254D01*
X18035336Y-418254D01*
G37*
G36*
X-1522842Y6721262D02*
G01*
X-913182Y6468732D01*
X-913180Y6468731D01*
X-846867Y6424422D01*
X-364500Y6102115D01*
X102115Y5635500D01*
X468732Y5086818D01*
X721262Y4477158D01*
X850000Y3829948D01*
X850000Y3170052D01*
X721262Y2522842D01*
X478542Y1936866D01*
X468731Y1913180D01*
X102115Y1364500D01*
X-364500Y897885D01*
X-913180Y531269D01*
X-913181Y531268D01*
X-913182Y531268D01*
X-1522842Y278738D01*
X-2170052Y150000D01*
X-2829948Y150000D01*
X-3477158Y278738D01*
X-4086818Y531268D01*
X-4086819Y531268D01*
X-4086820Y531269D01*
X-4635500Y897885D01*
X-5102115Y1364500D01*
X-5468731Y1913180D01*
X-5478542Y1936866D01*
X-5721262Y2522842D01*
X-5850000Y3170052D01*
X-5850000Y3829948D01*
X-5721262Y4477158D01*
X-5468732Y5086818D01*
X-5102115Y5635500D01*
X-4635500Y6102115D01*
X-4153133Y6424422D01*
X-4086820Y6468731D01*
X-4086818Y6468732D01*
X-3477158Y6721262D01*
X-2829948Y6850000D01*
X-2170052Y6850000D01*
X-1522842Y6721262D01*
X-1522842Y6721262D01*
G37*
G36*
X23143798Y6736592D02*
G01*
X23462574Y6673183D01*
X24063136Y6424422D01*
X24603627Y6063277D01*
X25063277Y5603627D01*
X25424422Y5063136D01*
X25673183Y4462574D01*
X25800000Y3825022D01*
X25800000Y3174978D01*
X25673183Y2537426D01*
X25424422Y1936864D01*
X25063277Y1396373D01*
X24603627Y936723D01*
X24063136Y575578D01*
X23462574Y326817D01*
X23143798Y263408D01*
X22825023Y200000D01*
X22174977Y200000D01*
X21856202Y263408D01*
X21537426Y326817D01*
X20936864Y575578D01*
X20396373Y936723D01*
X19936723Y1396373D01*
X19575578Y1936864D01*
X19326817Y2537426D01*
X19200000Y3174978D01*
X19200000Y3825022D01*
X19326817Y4462574D01*
X19575578Y5063136D01*
X19936723Y5603627D01*
X20396373Y6063277D01*
X20936864Y6424422D01*
X21537426Y6673183D01*
X21856202Y6736592D01*
X22174977Y6800000D01*
X22825023Y6800000D01*
X23143798Y6736592D01*
X23143798Y6736592D01*
G37*
G36*
X21510000Y7050000D02*
G01*
X15290000Y7050000D01*
X15290000Y9850000D01*
X21510000Y9850000D01*
X21510000Y7050000D01*
X21510000Y7050000D01*
G37*
G36*
X21510000Y10950000D02*
G01*
X15290000Y10950000D01*
X15290000Y13750000D01*
X21510000Y13750000D01*
X21510000Y10950000D01*
X21510000Y10950000D01*
G37*
M02*
