G04 #@! TF.GenerationSoftware,KiCad,Pcbnew,(5.1.0)-1*
G04 #@! TF.CreationDate,2019-06-21T14:43:24-03:00*
G04 #@! TF.ProjectId,PCB_C,5043425f-432e-46b6-9963-61645f706362,rev?*
G04 #@! TF.SameCoordinates,Original*
G04 #@! TF.FileFunction,Legend,Top*
G04 #@! TF.FilePolarity,Positive*
%FSLAX46Y46*%
G04 Gerber Fmt 4.6, Leading zero omitted, Abs format (unit mm)*
G04 Created by KiCad (PCBNEW (5.1.0)-1) date 2019-06-21 14:43:24*
%MOMM*%
%LPD*%
G04 APERTURE LIST*
%ADD10C,0.175000*%
%ADD11C,0.010000*%
%ADD12C,0.120000*%
%ADD13C,0.150000*%
%ADD14C,0.200000*%
%ADD15C,0.250000*%
%ADD16C,0.100000*%
%ADD17C,0.254000*%
G04 APERTURE END LIST*
D10*
X-3173733Y11103800D02*
X-3207066Y11070466D01*
X-3307066Y11037133D01*
X-3373733Y11037133D01*
X-3473733Y11070466D01*
X-3540399Y11137133D01*
X-3573733Y11203800D01*
X-3607066Y11337133D01*
X-3607066Y11437133D01*
X-3573733Y11570466D01*
X-3540399Y11637133D01*
X-3473733Y11703800D01*
X-3373733Y11737133D01*
X-3307066Y11737133D01*
X-3207066Y11703800D01*
X-3173733Y11670466D01*
X-2573733Y11037133D02*
X-2573733Y11403800D01*
X-2607066Y11470466D01*
X-2673733Y11503800D01*
X-2807066Y11503800D01*
X-2873733Y11470466D01*
X-2573733Y11070466D02*
X-2640399Y11037133D01*
X-2807066Y11037133D01*
X-2873733Y11070466D01*
X-2907066Y11137133D01*
X-2907066Y11203800D01*
X-2873733Y11270466D01*
X-2807066Y11303800D01*
X-2640399Y11303800D01*
X-2573733Y11337133D01*
X-2240399Y11503800D02*
X-2240399Y11037133D01*
X-2240399Y11437133D02*
X-2207066Y11470466D01*
X-2140399Y11503800D01*
X-2040399Y11503800D01*
X-1973733Y11470466D01*
X-1940399Y11403800D01*
X-1940399Y11037133D01*
X-1640399Y11070466D02*
X-1540399Y11037133D01*
X-1373733Y11037133D01*
X-1307066Y11070466D01*
X-1273733Y11103800D01*
X-1240399Y11170466D01*
X-1240399Y11237133D01*
X-1273733Y11303800D01*
X-1307066Y11337133D01*
X-1373733Y11370466D01*
X-1507066Y11403800D01*
X-1573733Y11437133D01*
X-1607066Y11470466D01*
X-1640399Y11537133D01*
X-1640399Y11603800D01*
X-1607066Y11670466D01*
X-1573733Y11703800D01*
X-1507066Y11737133D01*
X-1340399Y11737133D01*
X-1240399Y11703800D01*
X-640399Y11037133D02*
X-640399Y11403800D01*
X-673733Y11470466D01*
X-740399Y11503800D01*
X-873733Y11503800D01*
X-940399Y11470466D01*
X-640399Y11070466D02*
X-707066Y11037133D01*
X-873733Y11037133D01*
X-940399Y11070466D01*
X-973733Y11137133D01*
X-973733Y11203800D01*
X-940399Y11270466D01*
X-873733Y11303800D01*
X-707066Y11303800D01*
X-640399Y11337133D01*
X-407066Y11503800D02*
X-140399Y11503800D01*
X-307066Y11737133D02*
X-307066Y11137133D01*
X-273733Y11070466D01*
X-207066Y11037133D01*
X-140399Y11037133D01*
X626266Y11037133D02*
X626266Y11737133D01*
X892933Y11737133D01*
X959600Y11703800D01*
X992933Y11670466D01*
X1026266Y11603800D01*
X1026266Y11503800D01*
X992933Y11437133D01*
X959600Y11403800D01*
X892933Y11370466D01*
X626266Y11370466D01*
X1426266Y11037133D02*
X1359600Y11070466D01*
X1326266Y11137133D01*
X1326266Y11737133D01*
X1992933Y11037133D02*
X1992933Y11403800D01*
X1959600Y11470466D01*
X1892933Y11503800D01*
X1759600Y11503800D01*
X1692933Y11470466D01*
X1992933Y11070466D02*
X1926266Y11037133D01*
X1759600Y11037133D01*
X1692933Y11070466D01*
X1659600Y11137133D01*
X1659600Y11203800D01*
X1692933Y11270466D01*
X1759600Y11303800D01*
X1926266Y11303800D01*
X1992933Y11337133D01*
X2226266Y11503800D02*
X2492933Y11503800D01*
X2326266Y11737133D02*
X2326266Y11137133D01*
X2359600Y11070466D01*
X2426266Y11037133D01*
X2492933Y11037133D01*
X2626266Y11503800D02*
X2892933Y11503800D01*
X2726266Y11037133D02*
X2726266Y11637133D01*
X2759600Y11703800D01*
X2826266Y11737133D01*
X2892933Y11737133D01*
X3226266Y11037133D02*
X3159600Y11070466D01*
X3126266Y11103800D01*
X3092933Y11170466D01*
X3092933Y11370466D01*
X3126266Y11437133D01*
X3159600Y11470466D01*
X3226266Y11503800D01*
X3326266Y11503800D01*
X3392933Y11470466D01*
X3426266Y11437133D01*
X3459600Y11370466D01*
X3459600Y11170466D01*
X3426266Y11103800D01*
X3392933Y11070466D01*
X3326266Y11037133D01*
X3226266Y11037133D01*
X3759600Y11037133D02*
X3759600Y11503800D01*
X3759600Y11370466D02*
X3792933Y11437133D01*
X3826266Y11470466D01*
X3892933Y11503800D01*
X3959600Y11503800D01*
X4192933Y11037133D02*
X4192933Y11503800D01*
X4192933Y11437133D02*
X4226266Y11470466D01*
X4292933Y11503800D01*
X4392933Y11503800D01*
X4459599Y11470466D01*
X4492933Y11403800D01*
X4492933Y11037133D01*
X4492933Y11403800D02*
X4526266Y11470466D01*
X4592933Y11503800D01*
X4692933Y11503800D01*
X4759599Y11470466D01*
X4792933Y11403800D01*
X4792933Y11037133D01*
X-2202666Y9601733D02*
X-2202666Y10301733D01*
X-1936000Y10301733D01*
X-1869333Y10268400D01*
X-1836000Y10235066D01*
X-1802666Y10168400D01*
X-1802666Y10068400D01*
X-1836000Y10001733D01*
X-1869333Y9968400D01*
X-1936000Y9935066D01*
X-2202666Y9935066D01*
X-1102666Y9668400D02*
X-1136000Y9635066D01*
X-1235999Y9601733D01*
X-1302666Y9601733D01*
X-1402666Y9635066D01*
X-1469333Y9701733D01*
X-1502666Y9768400D01*
X-1536000Y9901733D01*
X-1536000Y10001733D01*
X-1502666Y10135066D01*
X-1469333Y10201733D01*
X-1402666Y10268400D01*
X-1302666Y10301733D01*
X-1235999Y10301733D01*
X-1136000Y10268400D01*
X-1102666Y10235066D01*
X-569333Y9968400D02*
X-469333Y9935066D01*
X-435999Y9901733D01*
X-402666Y9835066D01*
X-402666Y9735066D01*
X-435999Y9668400D01*
X-469333Y9635066D01*
X-535999Y9601733D01*
X-802666Y9601733D01*
X-802666Y10301733D01*
X-569333Y10301733D01*
X-502666Y10268400D01*
X-469333Y10235066D01*
X-435999Y10168400D01*
X-435999Y10101733D01*
X-469333Y10035066D01*
X-502666Y10001733D01*
X-569333Y9968400D01*
X-802666Y9968400D01*
X-269333Y9535066D02*
X264000Y9535066D01*
X830666Y9668400D02*
X797333Y9635066D01*
X697333Y9601733D01*
X630666Y9601733D01*
X530666Y9635066D01*
X464000Y9701733D01*
X430666Y9768400D01*
X397333Y9901733D01*
X397333Y10001733D01*
X430666Y10135066D01*
X464000Y10201733D01*
X530666Y10268400D01*
X630666Y10301733D01*
X697333Y10301733D01*
X797333Y10268400D01*
X830666Y10235066D01*
X1597333Y10068400D02*
X1763999Y9601733D01*
X1930666Y10068400D01*
X2163999Y10235066D02*
X2197333Y10268400D01*
X2263999Y10301733D01*
X2430666Y10301733D01*
X2497333Y10268400D01*
X2530666Y10235066D01*
X2563999Y10168400D01*
X2563999Y10101733D01*
X2530666Y10001733D01*
X2130666Y9601733D01*
X2563999Y9601733D01*
X2864000Y9668400D02*
X2897333Y9635066D01*
X2864000Y9601733D01*
X2830666Y9635066D01*
X2864000Y9668400D01*
X2864000Y9601733D01*
X3330666Y10301733D02*
X3397333Y10301733D01*
X3463999Y10268400D01*
X3497333Y10235066D01*
X3530666Y10168400D01*
X3563999Y10035066D01*
X3563999Y9868400D01*
X3530666Y9735066D01*
X3497333Y9668400D01*
X3463999Y9635066D01*
X3397333Y9601733D01*
X3330666Y9601733D01*
X3263999Y9635066D01*
X3230666Y9668400D01*
X3197333Y9735066D01*
X3163999Y9868400D01*
X3163999Y10035066D01*
X3197333Y10168400D01*
X3230666Y10235066D01*
X3263999Y10268400D01*
X3330666Y10301733D01*
D11*
G36*
X12773214Y-13140731D02*
G01*
X12857035Y-13585355D01*
X13166320Y-13712853D01*
X13475606Y-13840351D01*
X13846646Y-13588046D01*
X13950557Y-13517796D01*
X14044487Y-13455072D01*
X14124052Y-13402738D01*
X14184870Y-13363657D01*
X14222557Y-13340693D01*
X14232821Y-13335742D01*
X14251310Y-13348476D01*
X14290820Y-13383682D01*
X14346922Y-13436862D01*
X14415187Y-13503518D01*
X14491186Y-13579154D01*
X14570492Y-13659272D01*
X14648675Y-13739374D01*
X14721307Y-13814964D01*
X14783959Y-13881545D01*
X14832203Y-13934618D01*
X14861610Y-13969687D01*
X14868641Y-13981423D01*
X14858523Y-14003060D01*
X14830159Y-14050462D01*
X14786529Y-14118993D01*
X14730618Y-14204015D01*
X14665406Y-14300893D01*
X14627619Y-14356150D01*
X14558743Y-14457048D01*
X14497540Y-14548099D01*
X14446978Y-14624770D01*
X14410028Y-14682528D01*
X14389658Y-14716843D01*
X14386597Y-14724054D01*
X14393536Y-14744548D01*
X14412451Y-14792313D01*
X14440487Y-14860632D01*
X14474791Y-14942789D01*
X14512509Y-15032070D01*
X14550787Y-15121758D01*
X14586770Y-15205138D01*
X14617606Y-15275494D01*
X14640439Y-15326110D01*
X14652417Y-15350271D01*
X14653124Y-15351222D01*
X14671931Y-15355836D01*
X14722018Y-15366128D01*
X14798193Y-15381087D01*
X14895265Y-15399701D01*
X15008043Y-15420959D01*
X15073842Y-15433218D01*
X15194350Y-15456162D01*
X15303197Y-15477995D01*
X15394876Y-15497522D01*
X15463881Y-15513548D01*
X15504704Y-15524879D01*
X15512911Y-15528474D01*
X15520948Y-15552806D01*
X15527433Y-15607759D01*
X15532370Y-15686908D01*
X15535764Y-15783826D01*
X15537618Y-15892087D01*
X15537938Y-16005265D01*
X15536727Y-16116935D01*
X15533990Y-16220668D01*
X15529731Y-16310041D01*
X15523955Y-16378626D01*
X15516667Y-16419997D01*
X15512295Y-16428610D01*
X15486164Y-16438933D01*
X15430793Y-16453692D01*
X15353507Y-16471152D01*
X15261630Y-16489580D01*
X15229558Y-16495541D01*
X15074924Y-16523866D01*
X14952775Y-16546676D01*
X14859073Y-16564880D01*
X14789784Y-16579383D01*
X14740871Y-16591092D01*
X14708297Y-16600915D01*
X14688028Y-16609756D01*
X14676026Y-16618524D01*
X14674347Y-16620257D01*
X14657584Y-16648171D01*
X14632014Y-16702495D01*
X14600188Y-16776577D01*
X14564660Y-16863765D01*
X14527983Y-16957408D01*
X14492711Y-17050852D01*
X14461396Y-17137447D01*
X14436593Y-17210540D01*
X14420854Y-17263478D01*
X14416732Y-17289611D01*
X14417076Y-17290526D01*
X14431041Y-17311886D01*
X14462722Y-17358884D01*
X14508791Y-17426627D01*
X14565918Y-17510223D01*
X14630773Y-17604782D01*
X14649243Y-17631654D01*
X14715099Y-17729075D01*
X14773050Y-17817963D01*
X14819938Y-17893212D01*
X14852607Y-17949720D01*
X14867900Y-17982381D01*
X14868641Y-17986393D01*
X14855792Y-18007484D01*
X14820288Y-18049264D01*
X14766693Y-18107245D01*
X14699571Y-18176935D01*
X14623487Y-18253845D01*
X14543004Y-18333483D01*
X14462687Y-18411361D01*
X14387099Y-18482986D01*
X14320805Y-18543870D01*
X14268369Y-18589521D01*
X14234355Y-18615450D01*
X14224945Y-18619683D01*
X14203043Y-18609712D01*
X14158200Y-18582820D01*
X14097721Y-18543536D01*
X14051189Y-18511917D01*
X13966875Y-18453898D01*
X13867026Y-18385584D01*
X13766873Y-18317379D01*
X13713027Y-18280875D01*
X13530771Y-18157600D01*
X13377781Y-18240320D01*
X13308082Y-18276559D01*
X13248814Y-18304726D01*
X13208711Y-18320791D01*
X13198503Y-18323026D01*
X13186229Y-18306522D01*
X13162013Y-18259882D01*
X13127663Y-18187409D01*
X13084988Y-18093406D01*
X13035794Y-17982174D01*
X12981890Y-17858015D01*
X12925084Y-17725232D01*
X12867182Y-17588127D01*
X12809993Y-17451002D01*
X12755324Y-17318158D01*
X12704984Y-17193898D01*
X12660780Y-17082525D01*
X12624519Y-16988339D01*
X12598009Y-16915644D01*
X12583058Y-16868741D01*
X12580654Y-16852633D01*
X12599711Y-16832086D01*
X12641436Y-16798733D01*
X12697106Y-16759502D01*
X12701778Y-16756399D01*
X12845664Y-16641223D01*
X12961683Y-16506853D01*
X13048830Y-16357584D01*
X13106099Y-16197713D01*
X13132486Y-16031537D01*
X13126985Y-15863352D01*
X13088590Y-15697455D01*
X13016295Y-15538142D01*
X12995026Y-15503287D01*
X12884396Y-15362537D01*
X12753702Y-15249514D01*
X12607464Y-15164803D01*
X12450208Y-15108994D01*
X12286457Y-15082674D01*
X12120733Y-15086430D01*
X11957562Y-15120850D01*
X11801465Y-15186523D01*
X11656967Y-15284035D01*
X11612269Y-15323613D01*
X11498512Y-15447503D01*
X11415618Y-15577924D01*
X11358756Y-15724115D01*
X11327087Y-15868888D01*
X11319269Y-16031660D01*
X11345338Y-16195240D01*
X11402645Y-16354098D01*
X11488544Y-16502706D01*
X11600386Y-16635535D01*
X11735523Y-16747056D01*
X11753283Y-16758811D01*
X11809550Y-16797308D01*
X11852323Y-16830663D01*
X11872772Y-16851960D01*
X11873069Y-16852633D01*
X11868679Y-16875671D01*
X11851276Y-16927957D01*
X11822668Y-17005190D01*
X11784665Y-17103068D01*
X11739074Y-17217291D01*
X11687703Y-17343558D01*
X11632362Y-17477567D01*
X11574858Y-17615018D01*
X11517001Y-17751608D01*
X11460598Y-17883037D01*
X11407458Y-18005005D01*
X11359390Y-18113209D01*
X11318201Y-18203349D01*
X11285701Y-18271123D01*
X11263697Y-18312230D01*
X11254836Y-18323026D01*
X11227760Y-18314619D01*
X11177097Y-18292072D01*
X11111583Y-18259413D01*
X11075559Y-18240320D01*
X10922568Y-18157600D01*
X10740312Y-18280875D01*
X10647275Y-18344028D01*
X10545415Y-18413527D01*
X10449962Y-18478965D01*
X10402150Y-18511917D01*
X10334905Y-18557073D01*
X10277964Y-18592857D01*
X10238754Y-18614738D01*
X10226019Y-18619363D01*
X10207483Y-18606885D01*
X10166459Y-18572052D01*
X10106925Y-18518478D01*
X10032858Y-18449783D01*
X9948235Y-18369581D01*
X9894715Y-18318086D01*
X9801081Y-18226086D01*
X9720159Y-18143799D01*
X9655223Y-18074745D01*
X9609542Y-18022444D01*
X9586389Y-17990416D01*
X9584168Y-17983916D01*
X9594476Y-17959194D01*
X9622961Y-17909205D01*
X9666463Y-17839012D01*
X9721823Y-17753675D01*
X9785880Y-17658256D01*
X9804097Y-17631654D01*
X9870473Y-17534967D01*
X9930022Y-17447917D01*
X9979416Y-17375395D01*
X10015325Y-17322293D01*
X10034419Y-17293503D01*
X10036264Y-17290526D01*
X10033505Y-17267582D01*
X10018862Y-17217136D01*
X9994887Y-17145841D01*
X9964134Y-17060347D01*
X9929156Y-16967307D01*
X9892507Y-16873374D01*
X9856739Y-16785199D01*
X9824406Y-16709434D01*
X9798062Y-16652731D01*
X9780258Y-16621743D01*
X9778993Y-16620257D01*
X9768106Y-16611401D01*
X9749718Y-16602643D01*
X9719794Y-16593077D01*
X9674297Y-16581796D01*
X9609191Y-16567893D01*
X9520439Y-16550463D01*
X9404007Y-16528598D01*
X9255858Y-16501391D01*
X9223782Y-16495541D01*
X9128714Y-16477174D01*
X9045835Y-16459205D01*
X8982470Y-16443369D01*
X8945942Y-16431400D01*
X8941044Y-16428610D01*
X8932973Y-16403872D01*
X8926413Y-16348590D01*
X8921367Y-16269189D01*
X8917841Y-16172096D01*
X8915839Y-16063738D01*
X8915364Y-15950540D01*
X8916423Y-15838928D01*
X8919018Y-15735329D01*
X8923154Y-15646168D01*
X8928837Y-15577872D01*
X8936069Y-15536866D01*
X8940429Y-15528474D01*
X8964702Y-15520008D01*
X9019974Y-15506235D01*
X9100738Y-15488350D01*
X9201488Y-15467548D01*
X9316717Y-15445023D01*
X9379498Y-15433218D01*
X9498613Y-15410951D01*
X9604835Y-15390779D01*
X9692973Y-15373715D01*
X9757834Y-15360769D01*
X9794226Y-15352955D01*
X9800216Y-15351222D01*
X9810339Y-15331690D01*
X9831738Y-15284643D01*
X9861561Y-15216803D01*
X9896955Y-15134891D01*
X9935068Y-15045628D01*
X9973047Y-14955735D01*
X10008040Y-14871935D01*
X10037194Y-14800947D01*
X10057657Y-14749494D01*
X10066577Y-14724297D01*
X10066743Y-14723196D01*
X10056631Y-14703319D01*
X10028283Y-14657577D01*
X9984677Y-14590517D01*
X9928794Y-14506684D01*
X9863613Y-14410626D01*
X9825721Y-14355450D01*
X9756675Y-14254281D01*
X9695350Y-14162430D01*
X9644737Y-14084544D01*
X9607829Y-14025269D01*
X9587618Y-13989251D01*
X9584699Y-13981177D01*
X9597247Y-13962384D01*
X9631937Y-13922257D01*
X9684337Y-13865293D01*
X9750016Y-13795985D01*
X9824544Y-13718831D01*
X9903487Y-13638325D01*
X9982417Y-13558963D01*
X10056900Y-13485240D01*
X10122506Y-13421652D01*
X10174804Y-13372694D01*
X10209361Y-13342861D01*
X10220922Y-13335742D01*
X10239746Y-13345753D01*
X10284769Y-13373878D01*
X10351613Y-13417254D01*
X10435901Y-13473018D01*
X10533256Y-13538306D01*
X10606693Y-13588046D01*
X10977733Y-13840351D01*
X11596305Y-13585355D01*
X11680125Y-13140731D01*
X11763946Y-12696107D01*
X12689394Y-12696107D01*
X12773214Y-13140731D01*
X12773214Y-13140731D01*
G37*
X12773214Y-13140731D02*
X12857035Y-13585355D01*
X13166320Y-13712853D01*
X13475606Y-13840351D01*
X13846646Y-13588046D01*
X13950557Y-13517796D01*
X14044487Y-13455072D01*
X14124052Y-13402738D01*
X14184870Y-13363657D01*
X14222557Y-13340693D01*
X14232821Y-13335742D01*
X14251310Y-13348476D01*
X14290820Y-13383682D01*
X14346922Y-13436862D01*
X14415187Y-13503518D01*
X14491186Y-13579154D01*
X14570492Y-13659272D01*
X14648675Y-13739374D01*
X14721307Y-13814964D01*
X14783959Y-13881545D01*
X14832203Y-13934618D01*
X14861610Y-13969687D01*
X14868641Y-13981423D01*
X14858523Y-14003060D01*
X14830159Y-14050462D01*
X14786529Y-14118993D01*
X14730618Y-14204015D01*
X14665406Y-14300893D01*
X14627619Y-14356150D01*
X14558743Y-14457048D01*
X14497540Y-14548099D01*
X14446978Y-14624770D01*
X14410028Y-14682528D01*
X14389658Y-14716843D01*
X14386597Y-14724054D01*
X14393536Y-14744548D01*
X14412451Y-14792313D01*
X14440487Y-14860632D01*
X14474791Y-14942789D01*
X14512509Y-15032070D01*
X14550787Y-15121758D01*
X14586770Y-15205138D01*
X14617606Y-15275494D01*
X14640439Y-15326110D01*
X14652417Y-15350271D01*
X14653124Y-15351222D01*
X14671931Y-15355836D01*
X14722018Y-15366128D01*
X14798193Y-15381087D01*
X14895265Y-15399701D01*
X15008043Y-15420959D01*
X15073842Y-15433218D01*
X15194350Y-15456162D01*
X15303197Y-15477995D01*
X15394876Y-15497522D01*
X15463881Y-15513548D01*
X15504704Y-15524879D01*
X15512911Y-15528474D01*
X15520948Y-15552806D01*
X15527433Y-15607759D01*
X15532370Y-15686908D01*
X15535764Y-15783826D01*
X15537618Y-15892087D01*
X15537938Y-16005265D01*
X15536727Y-16116935D01*
X15533990Y-16220668D01*
X15529731Y-16310041D01*
X15523955Y-16378626D01*
X15516667Y-16419997D01*
X15512295Y-16428610D01*
X15486164Y-16438933D01*
X15430793Y-16453692D01*
X15353507Y-16471152D01*
X15261630Y-16489580D01*
X15229558Y-16495541D01*
X15074924Y-16523866D01*
X14952775Y-16546676D01*
X14859073Y-16564880D01*
X14789784Y-16579383D01*
X14740871Y-16591092D01*
X14708297Y-16600915D01*
X14688028Y-16609756D01*
X14676026Y-16618524D01*
X14674347Y-16620257D01*
X14657584Y-16648171D01*
X14632014Y-16702495D01*
X14600188Y-16776577D01*
X14564660Y-16863765D01*
X14527983Y-16957408D01*
X14492711Y-17050852D01*
X14461396Y-17137447D01*
X14436593Y-17210540D01*
X14420854Y-17263478D01*
X14416732Y-17289611D01*
X14417076Y-17290526D01*
X14431041Y-17311886D01*
X14462722Y-17358884D01*
X14508791Y-17426627D01*
X14565918Y-17510223D01*
X14630773Y-17604782D01*
X14649243Y-17631654D01*
X14715099Y-17729075D01*
X14773050Y-17817963D01*
X14819938Y-17893212D01*
X14852607Y-17949720D01*
X14867900Y-17982381D01*
X14868641Y-17986393D01*
X14855792Y-18007484D01*
X14820288Y-18049264D01*
X14766693Y-18107245D01*
X14699571Y-18176935D01*
X14623487Y-18253845D01*
X14543004Y-18333483D01*
X14462687Y-18411361D01*
X14387099Y-18482986D01*
X14320805Y-18543870D01*
X14268369Y-18589521D01*
X14234355Y-18615450D01*
X14224945Y-18619683D01*
X14203043Y-18609712D01*
X14158200Y-18582820D01*
X14097721Y-18543536D01*
X14051189Y-18511917D01*
X13966875Y-18453898D01*
X13867026Y-18385584D01*
X13766873Y-18317379D01*
X13713027Y-18280875D01*
X13530771Y-18157600D01*
X13377781Y-18240320D01*
X13308082Y-18276559D01*
X13248814Y-18304726D01*
X13208711Y-18320791D01*
X13198503Y-18323026D01*
X13186229Y-18306522D01*
X13162013Y-18259882D01*
X13127663Y-18187409D01*
X13084988Y-18093406D01*
X13035794Y-17982174D01*
X12981890Y-17858015D01*
X12925084Y-17725232D01*
X12867182Y-17588127D01*
X12809993Y-17451002D01*
X12755324Y-17318158D01*
X12704984Y-17193898D01*
X12660780Y-17082525D01*
X12624519Y-16988339D01*
X12598009Y-16915644D01*
X12583058Y-16868741D01*
X12580654Y-16852633D01*
X12599711Y-16832086D01*
X12641436Y-16798733D01*
X12697106Y-16759502D01*
X12701778Y-16756399D01*
X12845664Y-16641223D01*
X12961683Y-16506853D01*
X13048830Y-16357584D01*
X13106099Y-16197713D01*
X13132486Y-16031537D01*
X13126985Y-15863352D01*
X13088590Y-15697455D01*
X13016295Y-15538142D01*
X12995026Y-15503287D01*
X12884396Y-15362537D01*
X12753702Y-15249514D01*
X12607464Y-15164803D01*
X12450208Y-15108994D01*
X12286457Y-15082674D01*
X12120733Y-15086430D01*
X11957562Y-15120850D01*
X11801465Y-15186523D01*
X11656967Y-15284035D01*
X11612269Y-15323613D01*
X11498512Y-15447503D01*
X11415618Y-15577924D01*
X11358756Y-15724115D01*
X11327087Y-15868888D01*
X11319269Y-16031660D01*
X11345338Y-16195240D01*
X11402645Y-16354098D01*
X11488544Y-16502706D01*
X11600386Y-16635535D01*
X11735523Y-16747056D01*
X11753283Y-16758811D01*
X11809550Y-16797308D01*
X11852323Y-16830663D01*
X11872772Y-16851960D01*
X11873069Y-16852633D01*
X11868679Y-16875671D01*
X11851276Y-16927957D01*
X11822668Y-17005190D01*
X11784665Y-17103068D01*
X11739074Y-17217291D01*
X11687703Y-17343558D01*
X11632362Y-17477567D01*
X11574858Y-17615018D01*
X11517001Y-17751608D01*
X11460598Y-17883037D01*
X11407458Y-18005005D01*
X11359390Y-18113209D01*
X11318201Y-18203349D01*
X11285701Y-18271123D01*
X11263697Y-18312230D01*
X11254836Y-18323026D01*
X11227760Y-18314619D01*
X11177097Y-18292072D01*
X11111583Y-18259413D01*
X11075559Y-18240320D01*
X10922568Y-18157600D01*
X10740312Y-18280875D01*
X10647275Y-18344028D01*
X10545415Y-18413527D01*
X10449962Y-18478965D01*
X10402150Y-18511917D01*
X10334905Y-18557073D01*
X10277964Y-18592857D01*
X10238754Y-18614738D01*
X10226019Y-18619363D01*
X10207483Y-18606885D01*
X10166459Y-18572052D01*
X10106925Y-18518478D01*
X10032858Y-18449783D01*
X9948235Y-18369581D01*
X9894715Y-18318086D01*
X9801081Y-18226086D01*
X9720159Y-18143799D01*
X9655223Y-18074745D01*
X9609542Y-18022444D01*
X9586389Y-17990416D01*
X9584168Y-17983916D01*
X9594476Y-17959194D01*
X9622961Y-17909205D01*
X9666463Y-17839012D01*
X9721823Y-17753675D01*
X9785880Y-17658256D01*
X9804097Y-17631654D01*
X9870473Y-17534967D01*
X9930022Y-17447917D01*
X9979416Y-17375395D01*
X10015325Y-17322293D01*
X10034419Y-17293503D01*
X10036264Y-17290526D01*
X10033505Y-17267582D01*
X10018862Y-17217136D01*
X9994887Y-17145841D01*
X9964134Y-17060347D01*
X9929156Y-16967307D01*
X9892507Y-16873374D01*
X9856739Y-16785199D01*
X9824406Y-16709434D01*
X9798062Y-16652731D01*
X9780258Y-16621743D01*
X9778993Y-16620257D01*
X9768106Y-16611401D01*
X9749718Y-16602643D01*
X9719794Y-16593077D01*
X9674297Y-16581796D01*
X9609191Y-16567893D01*
X9520439Y-16550463D01*
X9404007Y-16528598D01*
X9255858Y-16501391D01*
X9223782Y-16495541D01*
X9128714Y-16477174D01*
X9045835Y-16459205D01*
X8982470Y-16443369D01*
X8945942Y-16431400D01*
X8941044Y-16428610D01*
X8932973Y-16403872D01*
X8926413Y-16348590D01*
X8921367Y-16269189D01*
X8917841Y-16172096D01*
X8915839Y-16063738D01*
X8915364Y-15950540D01*
X8916423Y-15838928D01*
X8919018Y-15735329D01*
X8923154Y-15646168D01*
X8928837Y-15577872D01*
X8936069Y-15536866D01*
X8940429Y-15528474D01*
X8964702Y-15520008D01*
X9019974Y-15506235D01*
X9100738Y-15488350D01*
X9201488Y-15467548D01*
X9316717Y-15445023D01*
X9379498Y-15433218D01*
X9498613Y-15410951D01*
X9604835Y-15390779D01*
X9692973Y-15373715D01*
X9757834Y-15360769D01*
X9794226Y-15352955D01*
X9800216Y-15351222D01*
X9810339Y-15331690D01*
X9831738Y-15284643D01*
X9861561Y-15216803D01*
X9896955Y-15134891D01*
X9935068Y-15045628D01*
X9973047Y-14955735D01*
X10008040Y-14871935D01*
X10037194Y-14800947D01*
X10057657Y-14749494D01*
X10066577Y-14724297D01*
X10066743Y-14723196D01*
X10056631Y-14703319D01*
X10028283Y-14657577D01*
X9984677Y-14590517D01*
X9928794Y-14506684D01*
X9863613Y-14410626D01*
X9825721Y-14355450D01*
X9756675Y-14254281D01*
X9695350Y-14162430D01*
X9644737Y-14084544D01*
X9607829Y-14025269D01*
X9587618Y-13989251D01*
X9584699Y-13981177D01*
X9597247Y-13962384D01*
X9631937Y-13922257D01*
X9684337Y-13865293D01*
X9750016Y-13795985D01*
X9824544Y-13718831D01*
X9903487Y-13638325D01*
X9982417Y-13558963D01*
X10056900Y-13485240D01*
X10122506Y-13421652D01*
X10174804Y-13372694D01*
X10209361Y-13342861D01*
X10220922Y-13335742D01*
X10239746Y-13345753D01*
X10284769Y-13373878D01*
X10351613Y-13417254D01*
X10435901Y-13473018D01*
X10533256Y-13538306D01*
X10606693Y-13588046D01*
X10977733Y-13840351D01*
X11596305Y-13585355D01*
X11680125Y-13140731D01*
X11763946Y-12696107D01*
X12689394Y-12696107D01*
X12773214Y-13140731D01*
G36*
X4559300Y7620000D02*
G01*
X3124200Y7620000D01*
X3124200Y8724900D01*
X3441700Y8724900D01*
X3441700Y7937500D01*
X4229100Y7937500D01*
X4229100Y8089900D01*
X3594100Y8089900D01*
X3594100Y8572500D01*
X4229100Y8572500D01*
X4229100Y8724900D01*
X3441700Y8724900D01*
X3124200Y8724900D01*
X3124200Y9055100D01*
X4559300Y9055100D01*
X4559300Y7620000D01*
X4559300Y7620000D01*
G37*
X4559300Y7620000D02*
X3124200Y7620000D01*
X3124200Y8724900D01*
X3441700Y8724900D01*
X3441700Y7937500D01*
X4229100Y7937500D01*
X4229100Y8089900D01*
X3594100Y8089900D01*
X3594100Y8572500D01*
X4229100Y8572500D01*
X4229100Y8724900D01*
X3441700Y8724900D01*
X3124200Y8724900D01*
X3124200Y9055100D01*
X4559300Y9055100D01*
X4559300Y7620000D01*
G36*
X2971800Y7620000D02*
G01*
X1536700Y7620000D01*
X1536700Y8724900D01*
X1854200Y8724900D01*
X1854200Y7937500D01*
X2641600Y7937500D01*
X2641600Y8089900D01*
X2006600Y8089900D01*
X2006600Y8255000D01*
X2489200Y8255000D01*
X2489200Y8407400D01*
X2006600Y8407400D01*
X2006600Y8572500D01*
X2641600Y8572500D01*
X2641600Y8724900D01*
X1854200Y8724900D01*
X1536700Y8724900D01*
X1536700Y9055100D01*
X2971800Y9055100D01*
X2971800Y7620000D01*
X2971800Y7620000D01*
G37*
X2971800Y7620000D02*
X1536700Y7620000D01*
X1536700Y8724900D01*
X1854200Y8724900D01*
X1854200Y7937500D01*
X2641600Y7937500D01*
X2641600Y8089900D01*
X2006600Y8089900D01*
X2006600Y8255000D01*
X2489200Y8255000D01*
X2489200Y8407400D01*
X2006600Y8407400D01*
X2006600Y8572500D01*
X2641600Y8572500D01*
X2641600Y8724900D01*
X1854200Y8724900D01*
X1536700Y8724900D01*
X1536700Y9055100D01*
X2971800Y9055100D01*
X2971800Y7620000D01*
G36*
X1384300Y7620000D02*
G01*
X-50800Y7620000D01*
X-50800Y8724900D01*
X266700Y8724900D01*
X266700Y8572500D01*
X584200Y8572500D01*
X584200Y7937500D01*
X736600Y7937500D01*
X736600Y8572500D01*
X1054100Y8572500D01*
X1054100Y8724900D01*
X266700Y8724900D01*
X-50800Y8724900D01*
X-50800Y9055100D01*
X1384300Y9055100D01*
X1384300Y7620000D01*
X1384300Y7620000D01*
G37*
X1384300Y7620000D02*
X-50800Y7620000D01*
X-50800Y8724900D01*
X266700Y8724900D01*
X266700Y8572500D01*
X584200Y8572500D01*
X584200Y7937500D01*
X736600Y7937500D01*
X736600Y8572500D01*
X1054100Y8572500D01*
X1054100Y8724900D01*
X266700Y8724900D01*
X-50800Y8724900D01*
X-50800Y9055100D01*
X1384300Y9055100D01*
X1384300Y7620000D01*
G36*
X-203200Y7620000D02*
G01*
X-1638300Y7620000D01*
X-1638300Y7944868D01*
X-1300040Y7944868D01*
X-1284792Y7939904D01*
X-1249604Y7937752D01*
X-1221976Y7937500D01*
X-1132741Y7937500D01*
X-1033554Y8070850D01*
X-995929Y8120485D01*
X-963309Y8161740D01*
X-938813Y8190799D01*
X-925559Y8203846D01*
X-924581Y8204200D01*
X-913773Y8194562D01*
X-891164Y8168198D01*
X-859877Y8128936D01*
X-823037Y8080602D01*
X-816173Y8071390D01*
X-717550Y7938580D01*
X-631825Y7938040D01*
X-588887Y7938690D01*
X-558133Y7940912D01*
X-546105Y7944228D01*
X-546100Y7944299D01*
X-553376Y7956157D01*
X-573557Y7984837D01*
X-604179Y8026943D01*
X-642774Y8079077D01*
X-679912Y8128612D01*
X-724033Y8187660D01*
X-762884Y8240630D01*
X-793806Y8283819D01*
X-814142Y8313527D01*
X-821036Y8325186D01*
X-821060Y8333640D01*
X-815443Y8347911D01*
X-802809Y8369998D01*
X-781781Y8401900D01*
X-750981Y8445618D01*
X-709032Y8503150D01*
X-654558Y8576497D01*
X-586180Y8667658D01*
X-574162Y8683625D01*
X-543086Y8724900D01*
X-718468Y8724900D01*
X-817654Y8591550D01*
X-855141Y8541995D01*
X-887449Y8500870D01*
X-911509Y8471964D01*
X-924255Y8459068D01*
X-925146Y8458740D01*
X-935396Y8468575D01*
X-957535Y8495091D01*
X-988485Y8534452D01*
X-1025167Y8582816D01*
X-1032073Y8592090D01*
X-1130695Y8724900D01*
X-1213048Y8724900D01*
X-1255035Y8723944D01*
X-1284704Y8721442D01*
X-1295400Y8718102D01*
X-1288141Y8706218D01*
X-1268020Y8677534D01*
X-1237526Y8635487D01*
X-1199145Y8583513D01*
X-1164455Y8537127D01*
X-1120771Y8478842D01*
X-1082152Y8426980D01*
X-1051317Y8385215D01*
X-1030980Y8357223D01*
X-1024191Y8347375D01*
X-1028617Y8332424D01*
X-1047308Y8299884D01*
X-1078685Y8252021D01*
X-1121169Y8191099D01*
X-1173180Y8119384D01*
X-1233140Y8039139D01*
X-1298892Y7953375D01*
X-1300040Y7944868D01*
X-1638300Y7944868D01*
X-1638300Y9055100D01*
X-203200Y9055100D01*
X-203200Y7620000D01*
X-203200Y7620000D01*
G37*
X-203200Y7620000D02*
X-1638300Y7620000D01*
X-1638300Y7944868D01*
X-1300040Y7944868D01*
X-1284792Y7939904D01*
X-1249604Y7937752D01*
X-1221976Y7937500D01*
X-1132741Y7937500D01*
X-1033554Y8070850D01*
X-995929Y8120485D01*
X-963309Y8161740D01*
X-938813Y8190799D01*
X-925559Y8203846D01*
X-924581Y8204200D01*
X-913773Y8194562D01*
X-891164Y8168198D01*
X-859877Y8128936D01*
X-823037Y8080602D01*
X-816173Y8071390D01*
X-717550Y7938580D01*
X-631825Y7938040D01*
X-588887Y7938690D01*
X-558133Y7940912D01*
X-546105Y7944228D01*
X-546100Y7944299D01*
X-553376Y7956157D01*
X-573557Y7984837D01*
X-604179Y8026943D01*
X-642774Y8079077D01*
X-679912Y8128612D01*
X-724033Y8187660D01*
X-762884Y8240630D01*
X-793806Y8283819D01*
X-814142Y8313527D01*
X-821036Y8325186D01*
X-821060Y8333640D01*
X-815443Y8347911D01*
X-802809Y8369998D01*
X-781781Y8401900D01*
X-750981Y8445618D01*
X-709032Y8503150D01*
X-654558Y8576497D01*
X-586180Y8667658D01*
X-574162Y8683625D01*
X-543086Y8724900D01*
X-718468Y8724900D01*
X-817654Y8591550D01*
X-855141Y8541995D01*
X-887449Y8500870D01*
X-911509Y8471964D01*
X-924255Y8459068D01*
X-925146Y8458740D01*
X-935396Y8468575D01*
X-957535Y8495091D01*
X-988485Y8534452D01*
X-1025167Y8582816D01*
X-1032073Y8592090D01*
X-1130695Y8724900D01*
X-1213048Y8724900D01*
X-1255035Y8723944D01*
X-1284704Y8721442D01*
X-1295400Y8718102D01*
X-1288141Y8706218D01*
X-1268020Y8677534D01*
X-1237526Y8635487D01*
X-1199145Y8583513D01*
X-1164455Y8537127D01*
X-1120771Y8478842D01*
X-1082152Y8426980D01*
X-1051317Y8385215D01*
X-1030980Y8357223D01*
X-1024191Y8347375D01*
X-1028617Y8332424D01*
X-1047308Y8299884D01*
X-1078685Y8252021D01*
X-1121169Y8191099D01*
X-1173180Y8119384D01*
X-1233140Y8039139D01*
X-1298892Y7953375D01*
X-1300040Y7944868D01*
X-1638300Y7944868D01*
X-1638300Y9055100D01*
X-203200Y9055100D01*
X-203200Y7620000D01*
G36*
X-1790700Y7620000D02*
G01*
X-3225800Y7620000D01*
X-3225800Y7948963D01*
X-2893484Y7948963D01*
X-2884198Y7943111D01*
X-2855786Y7938980D01*
X-2816579Y7937500D01*
X-2735442Y7937500D01*
X-2628196Y8216681D01*
X-2597661Y8295297D01*
X-2569804Y8365366D01*
X-2545983Y8423602D01*
X-2527559Y8466721D01*
X-2515889Y8491437D01*
X-2512613Y8496081D01*
X-2505733Y8484932D01*
X-2491439Y8453962D01*
X-2471342Y8407091D01*
X-2447050Y8348243D01*
X-2420173Y8281337D01*
X-2392321Y8210296D01*
X-2365102Y8139042D01*
X-2355037Y8112125D01*
X-2353305Y8099855D01*
X-2363021Y8093135D01*
X-2389191Y8090360D01*
X-2424342Y8089900D01*
X-2501900Y8089900D01*
X-2501900Y7937500D01*
X-2123281Y7937500D01*
X-2435797Y8718550D01*
X-2510124Y8722060D01*
X-2584450Y8725570D01*
X-2736850Y8342997D01*
X-2773872Y8250038D01*
X-2807906Y8164531D01*
X-2837806Y8089361D01*
X-2862425Y8027415D01*
X-2880617Y7981578D01*
X-2891233Y7954735D01*
X-2893484Y7948963D01*
X-3225800Y7948963D01*
X-3225800Y9055100D01*
X-1790700Y9055100D01*
X-1790700Y7620000D01*
X-1790700Y7620000D01*
G37*
X-1790700Y7620000D02*
X-3225800Y7620000D01*
X-3225800Y7948963D01*
X-2893484Y7948963D01*
X-2884198Y7943111D01*
X-2855786Y7938980D01*
X-2816579Y7937500D01*
X-2735442Y7937500D01*
X-2628196Y8216681D01*
X-2597661Y8295297D01*
X-2569804Y8365366D01*
X-2545983Y8423602D01*
X-2527559Y8466721D01*
X-2515889Y8491437D01*
X-2512613Y8496081D01*
X-2505733Y8484932D01*
X-2491439Y8453962D01*
X-2471342Y8407091D01*
X-2447050Y8348243D01*
X-2420173Y8281337D01*
X-2392321Y8210296D01*
X-2365102Y8139042D01*
X-2355037Y8112125D01*
X-2353305Y8099855D01*
X-2363021Y8093135D01*
X-2389191Y8090360D01*
X-2424342Y8089900D01*
X-2501900Y8089900D01*
X-2501900Y7937500D01*
X-2123281Y7937500D01*
X-2435797Y8718550D01*
X-2510124Y8722060D01*
X-2584450Y8725570D01*
X-2736850Y8342997D01*
X-2773872Y8250038D01*
X-2807906Y8164531D01*
X-2837806Y8089361D01*
X-2862425Y8027415D01*
X-2880617Y7981578D01*
X-2891233Y7954735D01*
X-2893484Y7948963D01*
X-3225800Y7948963D01*
X-3225800Y9055100D01*
X-1790700Y9055100D01*
X-1790700Y7620000D01*
D12*
X13810000Y16646200D02*
X13810000Y16386200D01*
X13810000Y14106200D02*
X13810000Y12336200D01*
X13810000Y12336200D02*
X13430000Y12336200D01*
X6190000Y12336200D02*
X6190000Y14106200D01*
X6190000Y16386200D02*
X6190000Y16646200D01*
X6190000Y12336200D02*
X6570000Y12336200D01*
D13*
X8025000Y-20725000D02*
X8025000Y-20775000D01*
X12175000Y-20725000D02*
X12175000Y-20870000D01*
X12175000Y-25875000D02*
X12175000Y-25730000D01*
X8025000Y-25875000D02*
X8025000Y-25730000D01*
X8025000Y-20725000D02*
X12175000Y-20725000D01*
X8025000Y-25875000D02*
X12175000Y-25875000D01*
X8025000Y-20775000D02*
X6625000Y-20775000D01*
D12*
X17931200Y-17306548D02*
X17931200Y-17829052D01*
X16511200Y-17306548D02*
X16511200Y-17829052D01*
D14*
X16792000Y-27951000D02*
G75*
G03X16792000Y-27951000I-40000J0D01*
G01*
D15*
X23754000Y-31960000D02*
G75*
G03X23754000Y-31960000I-125000J0D01*
G01*
D14*
X19850000Y-31200000D02*
X19850000Y-30700000D01*
X20100000Y-31200000D02*
X19850000Y-31200000D01*
X19850000Y-28200000D02*
X19850000Y-28700000D01*
X20100000Y-28200000D02*
X19850000Y-28200000D01*
X24350000Y-31200000D02*
X24350000Y-30700000D01*
X24100000Y-31200000D02*
X24350000Y-31200000D01*
X24350000Y-28400000D02*
X24350000Y-28700000D01*
X24150000Y-28200000D02*
X24350000Y-28400000D01*
X24100000Y-28200000D02*
X24150000Y-28200000D01*
D13*
X29450000Y-3570000D02*
X29450000Y-2300000D01*
X29450000Y-18970000D02*
X29450000Y-17710000D01*
X32150000Y-17700000D02*
X32150000Y-2300000D01*
X29450000Y-17700000D02*
X32150000Y-17700000D01*
X32150000Y-2300000D02*
X29450000Y-2300000D01*
X26750000Y-18970000D02*
X29450000Y-18970000D01*
X29450000Y-3570000D02*
X26750000Y-3570000D01*
X26750000Y-3570000D02*
X26750000Y-18970000D01*
X-9450000Y-17700000D02*
X-9450000Y-18970000D01*
X-12150000Y-17700000D02*
X-9450000Y-17700000D01*
X-12150000Y-2300000D02*
X-12150000Y-17700000D01*
X-9450000Y-2300000D02*
X-12150000Y-2300000D01*
X-9450000Y-3570000D02*
X-9450000Y-2300000D01*
X-6750000Y-3570000D02*
X-9450000Y-3570000D01*
X-6750000Y-18970000D02*
X-6750000Y-3570000D01*
X-9450000Y-18970000D02*
X-6750000Y-18970000D01*
D12*
X-1440000Y-24271267D02*
X-1440000Y-23928733D01*
X-2460000Y-24271267D02*
X-2460000Y-23928733D01*
X-5160000Y-24271267D02*
X-5160000Y-23928733D01*
X-4140000Y-24271267D02*
X-4140000Y-23928733D01*
X8096267Y8810000D02*
X7753733Y8810000D01*
X8096267Y7790000D02*
X7753733Y7790000D01*
X11528733Y8810000D02*
X11871267Y8810000D01*
X11528733Y7790000D02*
X11871267Y7790000D01*
X27800000Y-1850000D02*
X30800000Y-1850000D01*
X30100000Y2650000D02*
X27200000Y2650000D01*
D14*
X-7850000Y-22500000D02*
X-10150000Y-22500000D01*
X-10150000Y-22500000D02*
X-10150000Y-19500000D01*
X-10150000Y-19500000D02*
X-7850000Y-19500000D01*
X-7850000Y-19500000D02*
X-7850000Y-22500000D01*
X-6100000Y-22550000D02*
X-7500000Y-22550000D01*
D12*
X-10200000Y-825000D02*
X-7300000Y-825000D01*
X-7900000Y3675000D02*
X-10900000Y3675000D01*
D14*
X15550000Y500000D02*
G75*
G02X15550000Y300000I0J-100000D01*
G01*
X15550000Y300000D02*
G75*
G02X15550000Y500000I0J100000D01*
G01*
D16*
X15000000Y6100000D02*
X15000000Y5600000D01*
X5000000Y6100000D02*
X15000000Y6100000D01*
X5000000Y2100000D02*
X5000000Y6100000D01*
D14*
X15550000Y300000D02*
X15550000Y300000D01*
X15550000Y500000D02*
X15550000Y500000D01*
D15*
X600000Y-27775000D02*
G75*
G03X600000Y-27775000I-125000J0D01*
G01*
D12*
X1640000Y-28150000D02*
X1640000Y-31150000D01*
X4860000Y-29650000D02*
X4860000Y-31150000D01*
D17*
X3785520Y-10644000D02*
G75*
G03X3785520Y-10644000I-65520J0D01*
G01*
X7900000Y-18300000D02*
X7900000Y-17372000D01*
X4100000Y-18300000D02*
X4100000Y-17372000D01*
X4100000Y-9600000D02*
X4100000Y-10528000D01*
X7900000Y-9600000D02*
X7900000Y-10528000D01*
X4100000Y-11950000D02*
X4100000Y-15950000D01*
X7900000Y-11950000D02*
X7900000Y-15950000D01*
X7900000Y-18300000D02*
X4100000Y-18300000D01*
X6000000Y-9600000D02*
X4100000Y-9600000D01*
X6000000Y-9600000D02*
X7900000Y-9600000D01*
D16*
X21727000Y-5061600D02*
X24927000Y-5061600D01*
X24927000Y-5061600D02*
X24927000Y-5361600D01*
D14*
X26427000Y-6161600D02*
X26427000Y-6161600D01*
D16*
X21727000Y-14661600D02*
X24927000Y-14661600D01*
D14*
X26427000Y-6361600D02*
X26427000Y-6361600D01*
X26427000Y-6161600D02*
G75*
G03X26427000Y-6361600I0J-100000D01*
G01*
D16*
X21727000Y-5361600D02*
X21727000Y-5061600D01*
X21727000Y-14361600D02*
X21727000Y-14661600D01*
D14*
X26427000Y-6361600D02*
G75*
G03X26427000Y-6161600I0J100000D01*
G01*
D16*
X24927000Y-14661600D02*
X24927000Y-14361600D01*
X-1125000Y-14796400D02*
X-4325000Y-14796400D01*
X-4325000Y-14796400D02*
X-4325000Y-14496400D01*
D14*
X-5825000Y-13696400D02*
X-5825000Y-13696400D01*
D16*
X-1125000Y-5196400D02*
X-4325000Y-5196400D01*
D14*
X-5825000Y-13496400D02*
X-5825000Y-13496400D01*
X-5825000Y-13696400D02*
G75*
G03X-5825000Y-13496400I0J100000D01*
G01*
D16*
X-1125000Y-14496400D02*
X-1125000Y-14796400D01*
X-1125000Y-5496400D02*
X-1125000Y-5196400D01*
D14*
X-5825000Y-13496400D02*
G75*
G03X-5825000Y-13696400I0J-100000D01*
G01*
D16*
X-4325000Y-5196400D02*
X-4325000Y-5496400D01*
D12*
X-6400000Y-15900000D02*
X-4500000Y-15900000D01*
X-4500000Y-15900000D02*
X-4500000Y-17800000D01*
X-4500000Y-17800000D02*
X-6400000Y-17800000D01*
X-6400000Y-17800000D02*
X-6400000Y-15900000D01*
D13*
X3451266Y15406619D02*
X3451266Y14692333D01*
X3403647Y14549476D01*
X3308409Y14454238D01*
X3165552Y14406619D01*
X3070314Y14406619D01*
X4403647Y15406619D02*
X3927457Y15406619D01*
X3879838Y14930428D01*
X3927457Y14978047D01*
X4022695Y15025666D01*
X4260790Y15025666D01*
X4356028Y14978047D01*
X4403647Y14930428D01*
X4451266Y14835190D01*
X4451266Y14597095D01*
X4403647Y14501857D01*
X4356028Y14454238D01*
X4260790Y14406619D01*
X4022695Y14406619D01*
X3927457Y14454238D01*
X3879838Y14501857D01*
X9338095Y-19252380D02*
X9338095Y-20061904D01*
X9385714Y-20157142D01*
X9433333Y-20204761D01*
X9528571Y-20252380D01*
X9719047Y-20252380D01*
X9814285Y-20204761D01*
X9861904Y-20157142D01*
X9909523Y-20061904D01*
X9909523Y-19252380D01*
X10290476Y-19252380D02*
X10909523Y-19252380D01*
X10576190Y-19633333D01*
X10719047Y-19633333D01*
X10814285Y-19680952D01*
X10861904Y-19728571D01*
X10909523Y-19823809D01*
X10909523Y-20061904D01*
X10861904Y-20157142D01*
X10814285Y-20204761D01*
X10719047Y-20252380D01*
X10433333Y-20252380D01*
X10338095Y-20204761D01*
X10290476Y-20157142D01*
X876466Y1097019D02*
X876466Y2097019D01*
X1209800Y1382733D01*
X1543133Y2097019D01*
X1543133Y1097019D01*
X2019323Y1097019D02*
X2019323Y2097019D01*
X2019323Y1620828D02*
X2590752Y1620828D01*
X2590752Y1097019D02*
X2590752Y2097019D01*
X3590752Y1097019D02*
X3019323Y1097019D01*
X3305038Y1097019D02*
X3305038Y2097019D01*
X3209800Y1954161D01*
X3114561Y1858923D01*
X3019323Y1811304D01*
X4807142Y-33066666D02*
X4854761Y-33114285D01*
X4902380Y-33257142D01*
X4902380Y-33352380D01*
X4854761Y-33495238D01*
X4759523Y-33590476D01*
X4664285Y-33638095D01*
X4473809Y-33685714D01*
X4330952Y-33685714D01*
X4140476Y-33638095D01*
X4045238Y-33590476D01*
X3950000Y-33495238D01*
X3902380Y-33352380D01*
X3902380Y-33257142D01*
X3950000Y-33114285D01*
X3997619Y-33066666D01*
X4902380Y-32114285D02*
X4902380Y-32685714D01*
X4902380Y-32400000D02*
X3902380Y-32400000D01*
X4045238Y-32495238D01*
X4140476Y-32590476D01*
X4188095Y-32685714D01*
X27807142Y3833333D02*
X27854761Y3785714D01*
X27902380Y3642857D01*
X27902380Y3547619D01*
X27854761Y3404761D01*
X27759523Y3309523D01*
X27664285Y3261904D01*
X27473809Y3214285D01*
X27330952Y3214285D01*
X27140476Y3261904D01*
X27045238Y3309523D01*
X26950000Y3404761D01*
X26902380Y3547619D01*
X26902380Y3642857D01*
X26950000Y3785714D01*
X26997619Y3833333D01*
X26997619Y4214285D02*
X26950000Y4261904D01*
X26902380Y4357142D01*
X26902380Y4595238D01*
X26950000Y4690476D01*
X26997619Y4738095D01*
X27092857Y4785714D01*
X27188095Y4785714D01*
X27330952Y4738095D01*
X27902380Y4166666D01*
X27902380Y4785714D01*
X2357142Y-11916666D02*
X2404761Y-11964285D01*
X2452380Y-12107142D01*
X2452380Y-12202380D01*
X2404761Y-12345238D01*
X2309523Y-12440476D01*
X2214285Y-12488095D01*
X2023809Y-12535714D01*
X1880952Y-12535714D01*
X1690476Y-12488095D01*
X1595238Y-12440476D01*
X1500000Y-12345238D01*
X1452380Y-12202380D01*
X1452380Y-12107142D01*
X1500000Y-11964285D01*
X1547619Y-11916666D01*
X1452380Y-11583333D02*
X1452380Y-10964285D01*
X1833333Y-11297619D01*
X1833333Y-11154761D01*
X1880952Y-11059523D01*
X1928571Y-11011904D01*
X2023809Y-10964285D01*
X2261904Y-10964285D01*
X2357142Y-11011904D01*
X2404761Y-11059523D01*
X2452380Y-11154761D01*
X2452380Y-11440476D01*
X2404761Y-11535714D01*
X2357142Y-11583333D01*
X10427142Y-11916666D02*
X10474761Y-11964285D01*
X10522380Y-12107142D01*
X10522380Y-12202380D01*
X10474761Y-12345238D01*
X10379523Y-12440476D01*
X10284285Y-12488095D01*
X10093809Y-12535714D01*
X9950952Y-12535714D01*
X9760476Y-12488095D01*
X9665238Y-12440476D01*
X9570000Y-12345238D01*
X9522380Y-12202380D01*
X9522380Y-12107142D01*
X9570000Y-11964285D01*
X9617619Y-11916666D01*
X9855714Y-11059523D02*
X10522380Y-11059523D01*
X9474761Y-11297619D02*
X10189047Y-11535714D01*
X10189047Y-10916666D01*
X31607142Y3833333D02*
X31654761Y3785714D01*
X31702380Y3642857D01*
X31702380Y3547619D01*
X31654761Y3404761D01*
X31559523Y3309523D01*
X31464285Y3261904D01*
X31273809Y3214285D01*
X31130952Y3214285D01*
X30940476Y3261904D01*
X30845238Y3309523D01*
X30750000Y3404761D01*
X30702380Y3547619D01*
X30702380Y3642857D01*
X30750000Y3785714D01*
X30797619Y3833333D01*
X30702380Y4738095D02*
X30702380Y4261904D01*
X31178571Y4214285D01*
X31130952Y4261904D01*
X31083333Y4357142D01*
X31083333Y4595238D01*
X31130952Y4690476D01*
X31178571Y4738095D01*
X31273809Y4785714D01*
X31511904Y4785714D01*
X31607142Y4738095D01*
X31654761Y4690476D01*
X31702380Y4595238D01*
X31702380Y4357142D01*
X31654761Y4261904D01*
X31607142Y4214285D01*
X16954533Y-20474942D02*
X16906914Y-20522561D01*
X16764057Y-20570180D01*
X16668819Y-20570180D01*
X16525961Y-20522561D01*
X16430723Y-20427323D01*
X16383104Y-20332085D01*
X16335485Y-20141609D01*
X16335485Y-19998752D01*
X16383104Y-19808276D01*
X16430723Y-19713038D01*
X16525961Y-19617800D01*
X16668819Y-19570180D01*
X16764057Y-19570180D01*
X16906914Y-19617800D01*
X16954533Y-19665419D01*
X17811676Y-19570180D02*
X17621200Y-19570180D01*
X17525961Y-19617800D01*
X17478342Y-19665419D01*
X17383104Y-19808276D01*
X17335485Y-19998752D01*
X17335485Y-20379704D01*
X17383104Y-20474942D01*
X17430723Y-20522561D01*
X17525961Y-20570180D01*
X17716438Y-20570180D01*
X17811676Y-20522561D01*
X17859295Y-20474942D01*
X17906914Y-20379704D01*
X17906914Y-20141609D01*
X17859295Y-20046371D01*
X17811676Y-19998752D01*
X17716438Y-19951133D01*
X17525961Y-19951133D01*
X17430723Y-19998752D01*
X17383104Y-20046371D01*
X17335485Y-20141609D01*
X8139133Y10514057D02*
X8091514Y10466438D01*
X7948657Y10418819D01*
X7853419Y10418819D01*
X7710561Y10466438D01*
X7615323Y10561676D01*
X7567704Y10656914D01*
X7520085Y10847390D01*
X7520085Y10990247D01*
X7567704Y11180723D01*
X7615323Y11275961D01*
X7710561Y11371200D01*
X7853419Y11418819D01*
X7948657Y11418819D01*
X8091514Y11371200D01*
X8139133Y11323580D01*
X8472466Y11418819D02*
X9139133Y11418819D01*
X8710561Y10418819D01*
X11517333Y10463257D02*
X11469714Y10415638D01*
X11326857Y10368019D01*
X11231619Y10368019D01*
X11088761Y10415638D01*
X10993523Y10510876D01*
X10945904Y10606114D01*
X10898285Y10796590D01*
X10898285Y10939447D01*
X10945904Y11129923D01*
X10993523Y11225161D01*
X11088761Y11320400D01*
X11231619Y11368019D01*
X11326857Y11368019D01*
X11469714Y11320400D01*
X11517333Y11272780D01*
X12088761Y10939447D02*
X11993523Y10987066D01*
X11945904Y11034685D01*
X11898285Y11129923D01*
X11898285Y11177542D01*
X11945904Y11272780D01*
X11993523Y11320400D01*
X12088761Y11368019D01*
X12279238Y11368019D01*
X12374476Y11320400D01*
X12422095Y11272780D01*
X12469714Y11177542D01*
X12469714Y11129923D01*
X12422095Y11034685D01*
X12374476Y10987066D01*
X12279238Y10939447D01*
X12088761Y10939447D01*
X11993523Y10891828D01*
X11945904Y10844209D01*
X11898285Y10748971D01*
X11898285Y10558495D01*
X11945904Y10463257D01*
X11993523Y10415638D01*
X12088761Y10368019D01*
X12279238Y10368019D01*
X12374476Y10415638D01*
X12422095Y10463257D01*
X12469714Y10558495D01*
X12469714Y10748971D01*
X12422095Y10844209D01*
X12374476Y10891828D01*
X12279238Y10939447D01*
X-7642857Y-24166666D02*
X-7595238Y-24214285D01*
X-7547619Y-24357142D01*
X-7547619Y-24452380D01*
X-7595238Y-24595238D01*
X-7690476Y-24690476D01*
X-7785714Y-24738095D01*
X-7976190Y-24785714D01*
X-8119047Y-24785714D01*
X-8309523Y-24738095D01*
X-8404761Y-24690476D01*
X-8500000Y-24595238D01*
X-8547619Y-24452380D01*
X-8547619Y-24357142D01*
X-8500000Y-24214285D01*
X-8452380Y-24166666D01*
X-7547619Y-23690476D02*
X-7547619Y-23500000D01*
X-7595238Y-23404761D01*
X-7642857Y-23357142D01*
X-7785714Y-23261904D01*
X-7976190Y-23214285D01*
X-8357142Y-23214285D01*
X-8452380Y-23261904D01*
X-8500000Y-23309523D01*
X-8547619Y-23404761D01*
X-8547619Y-23595238D01*
X-8500000Y-23690476D01*
X-8452380Y-23738095D01*
X-8357142Y-23785714D01*
X-8119047Y-23785714D01*
X-8023809Y-23738095D01*
X-7976190Y-23690476D01*
X-7928571Y-23595238D01*
X-7928571Y-23404761D01*
X-7976190Y-23309523D01*
X-8023809Y-23261904D01*
X-8119047Y-23214285D01*
X16107142Y-22642857D02*
X16154761Y-22690476D01*
X16202380Y-22833333D01*
X16202380Y-22928571D01*
X16154761Y-23071428D01*
X16059523Y-23166666D01*
X15964285Y-23214285D01*
X15773809Y-23261904D01*
X15630952Y-23261904D01*
X15440476Y-23214285D01*
X15345238Y-23166666D01*
X15250000Y-23071428D01*
X15202380Y-22928571D01*
X15202380Y-22833333D01*
X15250000Y-22690476D01*
X15297619Y-22642857D01*
X16202380Y-21690476D02*
X16202380Y-22261904D01*
X16202380Y-21976190D02*
X15202380Y-21976190D01*
X15345238Y-22071428D01*
X15440476Y-22166666D01*
X15488095Y-22261904D01*
X15202380Y-21071428D02*
X15202380Y-20976190D01*
X15250000Y-20880952D01*
X15297619Y-20833333D01*
X15392857Y-20785714D01*
X15583333Y-20738095D01*
X15821428Y-20738095D01*
X16011904Y-20785714D01*
X16107142Y-20833333D01*
X16154761Y-20880952D01*
X16202380Y-20976190D01*
X16202380Y-21071428D01*
X16154761Y-21166666D01*
X16107142Y-21214285D01*
X16011904Y-21261904D01*
X15821428Y-21309523D01*
X15583333Y-21309523D01*
X15392857Y-21261904D01*
X15297619Y-21214285D01*
X15250000Y-21166666D01*
X15202380Y-21071428D01*
X-9640775Y-24372146D02*
X-9593156Y-24419765D01*
X-9545537Y-24562622D01*
X-9545537Y-24657860D01*
X-9593156Y-24800717D01*
X-9688394Y-24895955D01*
X-9783632Y-24943574D01*
X-9974108Y-24991193D01*
X-10116965Y-24991193D01*
X-10307441Y-24943574D01*
X-10402679Y-24895955D01*
X-10497918Y-24800717D01*
X-10545537Y-24657860D01*
X-10545537Y-24562622D01*
X-10497918Y-24419765D01*
X-10450298Y-24372146D01*
X-9545537Y-23419765D02*
X-9545537Y-23991193D01*
X-9545537Y-23705479D02*
X-10545537Y-23705479D01*
X-10402679Y-23800717D01*
X-10307441Y-23895955D01*
X-10259822Y-23991193D01*
X-9545537Y-22467384D02*
X-9545537Y-23038812D01*
X-9545537Y-22753098D02*
X-10545537Y-22753098D01*
X-10402679Y-22848336D01*
X-10307441Y-22943574D01*
X-10259822Y-23038812D01*
X-6492857Y-1957142D02*
X-6540476Y-2004761D01*
X-6683333Y-2052380D01*
X-6778571Y-2052380D01*
X-6921428Y-2004761D01*
X-7016666Y-1909523D01*
X-7064285Y-1814285D01*
X-7111904Y-1623809D01*
X-7111904Y-1480952D01*
X-7064285Y-1290476D01*
X-7016666Y-1195238D01*
X-6921428Y-1100000D01*
X-6778571Y-1052380D01*
X-6683333Y-1052380D01*
X-6540476Y-1100000D01*
X-6492857Y-1147619D01*
X-5540476Y-2052380D02*
X-6111904Y-2052380D01*
X-5826190Y-2052380D02*
X-5826190Y-1052380D01*
X-5921428Y-1195238D01*
X-6016666Y-1290476D01*
X-6111904Y-1338095D01*
X-5064285Y-2052380D02*
X-4873809Y-2052380D01*
X-4778571Y-2004761D01*
X-4730952Y-1957142D01*
X-4635714Y-1814285D01*
X-4588095Y-1623809D01*
X-4588095Y-1242857D01*
X-4635714Y-1147619D01*
X-4683333Y-1100000D01*
X-4778571Y-1052380D01*
X-4969047Y-1052380D01*
X-5064285Y-1100000D01*
X-5111904Y-1147619D01*
X-5159523Y-1242857D01*
X-5159523Y-1480952D01*
X-5111904Y-1576190D01*
X-5064285Y-1623809D01*
X-4969047Y-1671428D01*
X-4778571Y-1671428D01*
X-4683333Y-1623809D01*
X-4635714Y-1576190D01*
X-4588095Y-1480952D01*
X-13492857Y-1957142D02*
X-13540476Y-2004761D01*
X-13683333Y-2052380D01*
X-13778571Y-2052380D01*
X-13921428Y-2004761D01*
X-14016666Y-1909523D01*
X-14064285Y-1814285D01*
X-14111904Y-1623809D01*
X-14111904Y-1480952D01*
X-14064285Y-1290476D01*
X-14016666Y-1195238D01*
X-13921428Y-1100000D01*
X-13778571Y-1052380D01*
X-13683333Y-1052380D01*
X-13540476Y-1100000D01*
X-13492857Y-1147619D01*
X-13111904Y-1147619D02*
X-13064285Y-1100000D01*
X-12969047Y-1052380D01*
X-12730952Y-1052380D01*
X-12635714Y-1100000D01*
X-12588095Y-1147619D01*
X-12540476Y-1242857D01*
X-12540476Y-1338095D01*
X-12588095Y-1480952D01*
X-13159523Y-2052380D01*
X-12540476Y-2052380D01*
X-11588095Y-2052380D02*
X-12159523Y-2052380D01*
X-11873809Y-2052380D02*
X-11873809Y-1052380D01*
X-11969047Y-1195238D01*
X-12064285Y-1290476D01*
X-12159523Y-1338095D01*
X307142Y-33842857D02*
X354761Y-33890476D01*
X402380Y-34033333D01*
X402380Y-34128571D01*
X354761Y-34271428D01*
X259523Y-34366666D01*
X164285Y-34414285D01*
X-26190Y-34461904D01*
X-169047Y-34461904D01*
X-359523Y-34414285D01*
X-454761Y-34366666D01*
X-550000Y-34271428D01*
X-597619Y-34128571D01*
X-597619Y-34033333D01*
X-550000Y-33890476D01*
X-502380Y-33842857D01*
X-502380Y-33461904D02*
X-550000Y-33414285D01*
X-597619Y-33319047D01*
X-597619Y-33080952D01*
X-550000Y-32985714D01*
X-502380Y-32938095D01*
X-407142Y-32890476D01*
X-311904Y-32890476D01*
X-169047Y-32938095D01*
X402380Y-33509523D01*
X402380Y-32890476D01*
X-502380Y-32509523D02*
X-550000Y-32461904D01*
X-597619Y-32366666D01*
X-597619Y-32128571D01*
X-550000Y-32033333D01*
X-502380Y-31985714D01*
X-407142Y-31938095D01*
X-311904Y-31938095D01*
X-169047Y-31985714D01*
X402380Y-32557142D01*
X402380Y-31938095D01*
X18482142Y-28017857D02*
X18529761Y-28065476D01*
X18577380Y-28208333D01*
X18577380Y-28303571D01*
X18529761Y-28446428D01*
X18434523Y-28541666D01*
X18339285Y-28589285D01*
X18148809Y-28636904D01*
X18005952Y-28636904D01*
X17815476Y-28589285D01*
X17720238Y-28541666D01*
X17625000Y-28446428D01*
X17577380Y-28303571D01*
X17577380Y-28208333D01*
X17625000Y-28065476D01*
X17672619Y-28017857D01*
X17672619Y-27636904D02*
X17625000Y-27589285D01*
X17577380Y-27494047D01*
X17577380Y-27255952D01*
X17625000Y-27160714D01*
X17672619Y-27113095D01*
X17767857Y-27065476D01*
X17863095Y-27065476D01*
X18005952Y-27113095D01*
X18577380Y-27684523D01*
X18577380Y-27065476D01*
X17577380Y-26732142D02*
X17577380Y-26113095D01*
X17958333Y-26446428D01*
X17958333Y-26303571D01*
X18005952Y-26208333D01*
X18053571Y-26160714D01*
X18148809Y-26113095D01*
X18386904Y-26113095D01*
X18482142Y-26160714D01*
X18529761Y-26208333D01*
X18577380Y-26303571D01*
X18577380Y-26589285D01*
X18529761Y-26684523D01*
X18482142Y-26732142D01*
X19282142Y-32457142D02*
X19234523Y-32504761D01*
X19091666Y-32552380D01*
X18996428Y-32552380D01*
X18853571Y-32504761D01*
X18758333Y-32409523D01*
X18710714Y-32314285D01*
X18663095Y-32123809D01*
X18663095Y-31980952D01*
X18710714Y-31790476D01*
X18758333Y-31695238D01*
X18853571Y-31600000D01*
X18996428Y-31552380D01*
X19091666Y-31552380D01*
X19234523Y-31600000D01*
X19282142Y-31647619D01*
X19663095Y-31647619D02*
X19710714Y-31600000D01*
X19805952Y-31552380D01*
X20044047Y-31552380D01*
X20139285Y-31600000D01*
X20186904Y-31647619D01*
X20234523Y-31742857D01*
X20234523Y-31838095D01*
X20186904Y-31980952D01*
X19615476Y-32552380D01*
X20234523Y-32552380D01*
X21091666Y-31885714D02*
X21091666Y-32552380D01*
X20853571Y-31504761D02*
X20615476Y-32219047D01*
X21234523Y-32219047D01*
X21507142Y-26457142D02*
X21459523Y-26504761D01*
X21316666Y-26552380D01*
X21221428Y-26552380D01*
X21078571Y-26504761D01*
X20983333Y-26409523D01*
X20935714Y-26314285D01*
X20888095Y-26123809D01*
X20888095Y-25980952D01*
X20935714Y-25790476D01*
X20983333Y-25695238D01*
X21078571Y-25600000D01*
X21221428Y-25552380D01*
X21316666Y-25552380D01*
X21459523Y-25600000D01*
X21507142Y-25647619D01*
X21888095Y-25647619D02*
X21935714Y-25600000D01*
X22030952Y-25552380D01*
X22269047Y-25552380D01*
X22364285Y-25600000D01*
X22411904Y-25647619D01*
X22459523Y-25742857D01*
X22459523Y-25838095D01*
X22411904Y-25980952D01*
X21840476Y-26552380D01*
X22459523Y-26552380D01*
X23364285Y-25552380D02*
X22888095Y-25552380D01*
X22840476Y-26028571D01*
X22888095Y-25980952D01*
X22983333Y-25933333D01*
X23221428Y-25933333D01*
X23316666Y-25980952D01*
X23364285Y-26028571D01*
X23411904Y-26123809D01*
X23411904Y-26361904D01*
X23364285Y-26457142D01*
X23316666Y-26504761D01*
X23221428Y-26552380D01*
X22983333Y-26552380D01*
X22888095Y-26504761D01*
X22840476Y-26457142D01*
D17*
X14310238Y-33049523D02*
X14310238Y-31779523D01*
X15640714Y-32928571D02*
X15580238Y-32989047D01*
X15398809Y-33049523D01*
X15277857Y-33049523D01*
X15096428Y-32989047D01*
X14975476Y-32868095D01*
X14914999Y-32747142D01*
X14854523Y-32505238D01*
X14854523Y-32323809D01*
X14914999Y-32081904D01*
X14975476Y-31960952D01*
X15096428Y-31840000D01*
X15277857Y-31779523D01*
X15398809Y-31779523D01*
X15580238Y-31840000D01*
X15640714Y-31900476D01*
X16729285Y-32202857D02*
X16729285Y-33049523D01*
X16426904Y-31719047D02*
X16124523Y-32626190D01*
X16910714Y-32626190D01*
X25364923Y-27604961D02*
X24094923Y-27604961D01*
X25243971Y-26274485D02*
X25304447Y-26334961D01*
X25364923Y-26516390D01*
X25364923Y-26637342D01*
X25304447Y-26818771D01*
X25183495Y-26939723D01*
X25062542Y-27000200D01*
X24820638Y-27060676D01*
X24639209Y-27060676D01*
X24397304Y-27000200D01*
X24276352Y-26939723D01*
X24155400Y-26818771D01*
X24094923Y-26637342D01*
X24094923Y-26516390D01*
X24155400Y-26334961D01*
X24215876Y-26274485D01*
X24094923Y-25125438D02*
X24094923Y-25730200D01*
X24699685Y-25790676D01*
X24639209Y-25730200D01*
X24578733Y-25609247D01*
X24578733Y-25306866D01*
X24639209Y-25185914D01*
X24699685Y-25125438D01*
X24820638Y-25064961D01*
X25123019Y-25064961D01*
X25243971Y-25125438D01*
X25304447Y-25185914D01*
X25364923Y-25306866D01*
X25364923Y-25609247D01*
X25304447Y-25730200D01*
X25243971Y-25790676D01*
D13*
X27666666Y1547619D02*
X27666666Y833333D01*
X27619047Y690476D01*
X27523809Y595238D01*
X27380952Y547619D01*
X27285714Y547619D01*
X28571428Y1214285D02*
X28571428Y547619D01*
X28333333Y1595238D02*
X28095238Y880952D01*
X28714285Y880952D01*
X-47619Y-24166666D02*
X-523809Y-24500000D01*
X-47619Y-24738095D02*
X-1047619Y-24738095D01*
X-1047619Y-24357142D01*
X-1000000Y-24261904D01*
X-952380Y-24214285D01*
X-857142Y-24166666D01*
X-714285Y-24166666D01*
X-619047Y-24214285D01*
X-571428Y-24261904D01*
X-523809Y-24357142D01*
X-523809Y-24738095D01*
X-47619Y-23214285D02*
X-47619Y-23785714D01*
X-47619Y-23500000D02*
X-1047619Y-23500000D01*
X-904761Y-23595238D01*
X-809523Y-23690476D01*
X-761904Y-23785714D01*
X-2797619Y-24416666D02*
X-3273809Y-24750000D01*
X-2797619Y-24988095D02*
X-3797619Y-24988095D01*
X-3797619Y-24607142D01*
X-3750000Y-24511904D01*
X-3702380Y-24464285D01*
X-3607142Y-24416666D01*
X-3464285Y-24416666D01*
X-3369047Y-24464285D01*
X-3321428Y-24511904D01*
X-3273809Y-24607142D01*
X-3273809Y-24988095D01*
X-3464285Y-23559523D02*
X-2797619Y-23559523D01*
X-3845238Y-23797619D02*
X-3130952Y-24035714D01*
X-3130952Y-23416666D01*
X7758333Y6347619D02*
X7425000Y6823809D01*
X7186904Y6347619D02*
X7186904Y7347619D01*
X7567857Y7347619D01*
X7663095Y7300000D01*
X7710714Y7252380D01*
X7758333Y7157142D01*
X7758333Y7014285D01*
X7710714Y6919047D01*
X7663095Y6871428D01*
X7567857Y6823809D01*
X7186904Y6823809D01*
X8615476Y7347619D02*
X8425000Y7347619D01*
X8329761Y7300000D01*
X8282142Y7252380D01*
X8186904Y7109523D01*
X8139285Y6919047D01*
X8139285Y6538095D01*
X8186904Y6442857D01*
X8234523Y6395238D01*
X8329761Y6347619D01*
X8520238Y6347619D01*
X8615476Y6395238D01*
X8663095Y6442857D01*
X8710714Y6538095D01*
X8710714Y6776190D01*
X8663095Y6871428D01*
X8615476Y6919047D01*
X8520238Y6966666D01*
X8329761Y6966666D01*
X8234523Y6919047D01*
X8186904Y6871428D01*
X8139285Y6776190D01*
X11533333Y6347619D02*
X11200000Y6823809D01*
X10961904Y6347619D02*
X10961904Y7347619D01*
X11342857Y7347619D01*
X11438095Y7300000D01*
X11485714Y7252380D01*
X11533333Y7157142D01*
X11533333Y7014285D01*
X11485714Y6919047D01*
X11438095Y6871428D01*
X11342857Y6823809D01*
X10961904Y6823809D01*
X12104761Y6919047D02*
X12009523Y6966666D01*
X11961904Y7014285D01*
X11914285Y7109523D01*
X11914285Y7157142D01*
X11961904Y7252380D01*
X12009523Y7300000D01*
X12104761Y7347619D01*
X12295238Y7347619D01*
X12390476Y7300000D01*
X12438095Y7252380D01*
X12485714Y7157142D01*
X12485714Y7109523D01*
X12438095Y7014285D01*
X12390476Y6966666D01*
X12295238Y6919047D01*
X12104761Y6919047D01*
X12009523Y6871428D01*
X11961904Y6823809D01*
X11914285Y6728571D01*
X11914285Y6538095D01*
X11961904Y6442857D01*
X12009523Y6395238D01*
X12104761Y6347619D01*
X12295238Y6347619D01*
X12390476Y6395238D01*
X12438095Y6442857D01*
X12485714Y6538095D01*
X12485714Y6728571D01*
X12438095Y6823809D01*
X12390476Y6871428D01*
X12295238Y6919047D01*
X31938095Y747619D02*
X31938095Y-61904D01*
X31985714Y-157142D01*
X32033333Y-204761D01*
X32128571Y-252380D01*
X32319047Y-252380D01*
X32414285Y-204761D01*
X32461904Y-157142D01*
X32509523Y-61904D01*
X32509523Y747619D01*
X33509523Y-252380D02*
X32938095Y-252380D01*
X33223809Y-252380D02*
X33223809Y747619D01*
X33128571Y604761D01*
X33033333Y509523D01*
X32938095Y461904D01*
D17*
X-14217619Y-20304523D02*
X-14217619Y-21332619D01*
X-14157142Y-21453571D01*
X-14096666Y-21514047D01*
X-13975714Y-21574523D01*
X-13733809Y-21574523D01*
X-13612857Y-21514047D01*
X-13552380Y-21453571D01*
X-13491904Y-21332619D01*
X-13491904Y-20304523D01*
X-12947619Y-20425476D02*
X-12887142Y-20365000D01*
X-12766190Y-20304523D01*
X-12463809Y-20304523D01*
X-12342857Y-20365000D01*
X-12282380Y-20425476D01*
X-12221904Y-20546428D01*
X-12221904Y-20667380D01*
X-12282380Y-20848809D01*
X-13008095Y-21574523D01*
X-12221904Y-21574523D01*
D13*
X-10161904Y4972619D02*
X-10161904Y4163095D01*
X-10114285Y4067857D01*
X-10066666Y4020238D01*
X-9971428Y3972619D01*
X-9780952Y3972619D01*
X-9685714Y4020238D01*
X-9638095Y4067857D01*
X-9590476Y4163095D01*
X-9590476Y4972619D01*
X-8685714Y4639285D02*
X-8685714Y3972619D01*
X-8923809Y5020238D02*
X-9161904Y4305952D01*
X-8542857Y4305952D01*
D17*
X2432380Y5795476D02*
X2432380Y4767380D01*
X2492857Y4646428D01*
X2553333Y4585952D01*
X2674285Y4525476D01*
X2916190Y4525476D01*
X3037142Y4585952D01*
X3097619Y4646428D01*
X3158095Y4767380D01*
X3158095Y5795476D01*
X4367619Y5795476D02*
X3762857Y5795476D01*
X3702380Y5190714D01*
X3762857Y5251190D01*
X3883809Y5311666D01*
X4186190Y5311666D01*
X4307142Y5251190D01*
X4367619Y5190714D01*
X4428095Y5069761D01*
X4428095Y4767380D01*
X4367619Y4646428D01*
X4307142Y4585952D01*
X4186190Y4525476D01*
X3883809Y4525476D01*
X3762857Y4585952D01*
X3702380Y4646428D01*
X-4445476Y-30617619D02*
X-3417380Y-30617619D01*
X-3296428Y-30557142D01*
X-3235952Y-30496666D01*
X-3175476Y-30375714D01*
X-3175476Y-30133809D01*
X-3235952Y-30012857D01*
X-3296428Y-29952380D01*
X-3417380Y-29891904D01*
X-4445476Y-29891904D01*
X-4445476Y-28742857D02*
X-4445476Y-28984761D01*
X-4385000Y-29105714D01*
X-4324523Y-29166190D01*
X-4143095Y-29287142D01*
X-3901190Y-29347619D01*
X-3417380Y-29347619D01*
X-3296428Y-29287142D01*
X-3235952Y-29226666D01*
X-3175476Y-29105714D01*
X-3175476Y-28863809D01*
X-3235952Y-28742857D01*
X-3296428Y-28682380D01*
X-3417380Y-28621904D01*
X-3719761Y-28621904D01*
X-3840714Y-28682380D01*
X-3901190Y-28742857D01*
X-3961666Y-28863809D01*
X-3961666Y-29105714D01*
X-3901190Y-29226666D01*
X-3840714Y-29287142D01*
X-3719761Y-29347619D01*
D13*
X5152380Y-30361904D02*
X5961904Y-30361904D01*
X6057142Y-30314285D01*
X6104761Y-30266666D01*
X6152380Y-30171428D01*
X6152380Y-29980952D01*
X6104761Y-29885714D01*
X6057142Y-29838095D01*
X5961904Y-29790476D01*
X5152380Y-29790476D01*
X5152380Y-29409523D02*
X5152380Y-28742857D01*
X6152380Y-29171428D01*
D17*
X5845761Y-20104761D02*
X6450523Y-20104761D01*
X5180523Y-20528095D02*
X5845761Y-20104761D01*
X5180523Y-19681428D01*
X6450523Y-18592857D02*
X6450523Y-19318571D01*
X6450523Y-18955714D02*
X5180523Y-18955714D01*
X5361952Y-19076666D01*
X5482904Y-19197619D01*
X5543380Y-19318571D01*
D13*
X-533333Y-4752380D02*
X-533333Y-5466666D01*
X-580952Y-5609523D01*
X-676190Y-5704761D01*
X-819047Y-5752380D01*
X-914285Y-5752380D01*
X-152380Y-4752380D02*
X466666Y-4752380D01*
X133333Y-5133333D01*
X276190Y-5133333D01*
X371428Y-5180952D01*
X419047Y-5228571D01*
X466666Y-5323809D01*
X466666Y-5561904D01*
X419047Y-5657142D01*
X371428Y-5704761D01*
X276190Y-5752380D01*
X-9523Y-5752380D01*
X-104761Y-5704761D01*
X-152380Y-5657142D01*
X-4461904Y-16652380D02*
X-3890476Y-16652380D01*
X-4176190Y-17652380D02*
X-4176190Y-16652380D01*
X-3557142Y-17652380D02*
X-3557142Y-16652380D01*
X-3176190Y-16652380D01*
X-3080952Y-16700000D01*
X-3033333Y-16747619D01*
X-2985714Y-16842857D01*
X-2985714Y-16985714D01*
X-3033333Y-17080952D01*
X-3080952Y-17128571D01*
X-3176190Y-17176190D01*
X-3557142Y-17176190D01*
X-2080952Y-16652380D02*
X-2557142Y-16652380D01*
X-2604761Y-17128571D01*
X-2557142Y-17080952D01*
X-2461904Y-17033333D01*
X-2223809Y-17033333D01*
X-2128571Y-17080952D01*
X-2080952Y-17128571D01*
X-2033333Y-17223809D01*
X-2033333Y-17461904D01*
X-2080952Y-17557142D01*
X-2128571Y-17604761D01*
X-2223809Y-17652380D01*
X-2461904Y-17652380D01*
X-2557142Y-17604761D01*
X-2604761Y-17557142D01*
M02*
