G04 #@! TF.GenerationSoftware,KiCad,Pcbnew,(5.1.0)-1*
G04 #@! TF.CreationDate,2019-06-21T14:43:24-03:00*
G04 #@! TF.ProjectId,PCB_C,5043425f-432e-46b6-9963-61645f706362,rev?*
G04 #@! TF.SameCoordinates,Original*
G04 #@! TF.FileFunction,Legend,Bot*
G04 #@! TF.FilePolarity,Positive*
%FSLAX46Y46*%
G04 Gerber Fmt 4.6, Leading zero omitted, Abs format (unit mm)*
G04 Created by KiCad (PCBNEW (5.1.0)-1) date 2019-06-21 14:43:24*
%MOMM*%
%LPD*%
G04 APERTURE LIST*
%ADD10C,0.175000*%
%ADD11C,0.125000*%
%ADD12C,0.250000*%
%ADD13C,0.010000*%
%ADD14C,0.120000*%
%ADD15C,0.150000*%
G04 APERTURE END LIST*
D10*
X4392933Y11103800D02*
X4426266Y11070466D01*
X4526266Y11037133D01*
X4592933Y11037133D01*
X4692933Y11070466D01*
X4759599Y11137133D01*
X4792933Y11203800D01*
X4826266Y11337133D01*
X4826266Y11437133D01*
X4792933Y11570466D01*
X4759599Y11637133D01*
X4692933Y11703800D01*
X4592933Y11737133D01*
X4526266Y11737133D01*
X4426266Y11703800D01*
X4392933Y11670466D01*
X3792933Y11037133D02*
X3792933Y11403800D01*
X3826266Y11470466D01*
X3892933Y11503800D01*
X4026266Y11503800D01*
X4092933Y11470466D01*
X3792933Y11070466D02*
X3859599Y11037133D01*
X4026266Y11037133D01*
X4092933Y11070466D01*
X4126266Y11137133D01*
X4126266Y11203800D01*
X4092933Y11270466D01*
X4026266Y11303800D01*
X3859599Y11303800D01*
X3792933Y11337133D01*
X3459599Y11503800D02*
X3459599Y11037133D01*
X3459599Y11437133D02*
X3426266Y11470466D01*
X3359599Y11503800D01*
X3259599Y11503800D01*
X3192933Y11470466D01*
X3159599Y11403800D01*
X3159599Y11037133D01*
X2859600Y11070466D02*
X2759600Y11037133D01*
X2592933Y11037133D01*
X2526266Y11070466D01*
X2492933Y11103800D01*
X2459600Y11170466D01*
X2459600Y11237133D01*
X2492933Y11303800D01*
X2526266Y11337133D01*
X2592933Y11370466D01*
X2726266Y11403800D01*
X2792933Y11437133D01*
X2826266Y11470466D01*
X2859600Y11537133D01*
X2859600Y11603800D01*
X2826266Y11670466D01*
X2792933Y11703800D01*
X2726266Y11737133D01*
X2559600Y11737133D01*
X2459600Y11703800D01*
X1859599Y11037133D02*
X1859599Y11403800D01*
X1892933Y11470466D01*
X1959599Y11503800D01*
X2092933Y11503800D01*
X2159599Y11470466D01*
X1859599Y11070466D02*
X1926266Y11037133D01*
X2092933Y11037133D01*
X2159599Y11070466D01*
X2192933Y11137133D01*
X2192933Y11203800D01*
X2159599Y11270466D01*
X2092933Y11303800D01*
X1926266Y11303800D01*
X1859599Y11337133D01*
X1626266Y11503800D02*
X1359600Y11503800D01*
X1526266Y11737133D02*
X1526266Y11137133D01*
X1492933Y11070466D01*
X1426266Y11037133D01*
X1359600Y11037133D01*
X592933Y11037133D02*
X592933Y11737133D01*
X326266Y11737133D01*
X259600Y11703800D01*
X226266Y11670466D01*
X192933Y11603800D01*
X192933Y11503800D01*
X226266Y11437133D01*
X259600Y11403800D01*
X326266Y11370466D01*
X592933Y11370466D01*
X-207066Y11037133D02*
X-140400Y11070466D01*
X-107066Y11137133D01*
X-107066Y11737133D01*
X-773733Y11037133D02*
X-773733Y11403800D01*
X-740400Y11470466D01*
X-673733Y11503800D01*
X-540400Y11503800D01*
X-473733Y11470466D01*
X-773733Y11070466D02*
X-707066Y11037133D01*
X-540400Y11037133D01*
X-473733Y11070466D01*
X-440400Y11137133D01*
X-440400Y11203800D01*
X-473733Y11270466D01*
X-540400Y11303800D01*
X-707066Y11303800D01*
X-773733Y11337133D01*
X-1007066Y11503800D02*
X-1273733Y11503800D01*
X-1107066Y11737133D02*
X-1107066Y11137133D01*
X-1140400Y11070466D01*
X-1207066Y11037133D01*
X-1273733Y11037133D01*
X-1407066Y11503800D02*
X-1673733Y11503800D01*
X-1507066Y11037133D02*
X-1507066Y11637133D01*
X-1540400Y11703800D01*
X-1607066Y11737133D01*
X-1673733Y11737133D01*
X-2007066Y11037133D02*
X-1940400Y11070466D01*
X-1907066Y11103800D01*
X-1873733Y11170466D01*
X-1873733Y11370466D01*
X-1907066Y11437133D01*
X-1940400Y11470466D01*
X-2007066Y11503800D01*
X-2107066Y11503800D01*
X-2173733Y11470466D01*
X-2207066Y11437133D01*
X-2240400Y11370466D01*
X-2240400Y11170466D01*
X-2207066Y11103800D01*
X-2173733Y11070466D01*
X-2107066Y11037133D01*
X-2007066Y11037133D01*
X-2540400Y11037133D02*
X-2540400Y11503800D01*
X-2540400Y11370466D02*
X-2573733Y11437133D01*
X-2607066Y11470466D01*
X-2673733Y11503800D01*
X-2740400Y11503800D01*
X-2973733Y11037133D02*
X-2973733Y11503800D01*
X-2973733Y11437133D02*
X-3007066Y11470466D01*
X-3073733Y11503800D01*
X-3173733Y11503800D01*
X-3240400Y11470466D01*
X-3273733Y11403800D01*
X-3273733Y11037133D01*
X-3273733Y11403800D02*
X-3307066Y11470466D01*
X-3373733Y11503800D01*
X-3473733Y11503800D01*
X-3540400Y11470466D01*
X-3573733Y11403800D01*
X-3573733Y11037133D01*
D11*
X22092857Y9438095D02*
X22426190Y9438095D01*
X22140476Y9438095D02*
X22116666Y9414285D01*
X22092857Y9366666D01*
X22092857Y9295238D01*
X22116666Y9247619D01*
X22164285Y9223809D01*
X22426190Y9223809D01*
X22426190Y8700000D02*
X22188095Y8866666D01*
X22426190Y8985714D02*
X21926190Y8985714D01*
X21926190Y8795238D01*
X21950000Y8747619D01*
X21973809Y8723809D01*
X22021428Y8700000D01*
X22092857Y8700000D01*
X22140476Y8723809D01*
X22164285Y8747619D01*
X22188095Y8795238D01*
X22188095Y8985714D01*
X22164285Y8485714D02*
X22164285Y8319047D01*
X22426190Y8247619D02*
X22426190Y8485714D01*
X21926190Y8485714D01*
X21926190Y8247619D01*
X22402380Y8057142D02*
X22426190Y7985714D01*
X22426190Y7866666D01*
X22402380Y7819047D01*
X22378571Y7795238D01*
X22330952Y7771428D01*
X22283333Y7771428D01*
X22235714Y7795238D01*
X22211904Y7819047D01*
X22188095Y7866666D01*
X22164285Y7961904D01*
X22140476Y8009523D01*
X22116666Y8033333D01*
X22069047Y8057142D01*
X22021428Y8057142D01*
X21973809Y8033333D01*
X21950000Y8009523D01*
X21926190Y7961904D01*
X21926190Y7842857D01*
X21950000Y7771428D01*
X22164285Y7557142D02*
X22164285Y7390476D01*
X22426190Y7319047D02*
X22426190Y7557142D01*
X21926190Y7557142D01*
X21926190Y7319047D01*
X21926190Y7176190D02*
X21926190Y6890476D01*
X22426190Y7033333D02*
X21926190Y7033333D01*
X21950000Y12780952D02*
X21926190Y12828571D01*
X21926190Y12900000D01*
X21950000Y12971428D01*
X21997619Y13019047D01*
X22045238Y13042857D01*
X22140476Y13066666D01*
X22211904Y13066666D01*
X22307142Y13042857D01*
X22354761Y13019047D01*
X22402380Y12971428D01*
X22426190Y12900000D01*
X22426190Y12852380D01*
X22402380Y12780952D01*
X22378571Y12757142D01*
X22211904Y12757142D01*
X22211904Y12852380D01*
X22426190Y12542857D02*
X21926190Y12542857D01*
X22426190Y12257142D01*
X21926190Y12257142D01*
X22426190Y12019047D02*
X21926190Y12019047D01*
X21926190Y11900000D01*
X21950000Y11828571D01*
X21997619Y11780952D01*
X22045238Y11757142D01*
X22140476Y11733333D01*
X22211904Y11733333D01*
X22307142Y11757142D01*
X22354761Y11780952D01*
X22402380Y11828571D01*
X22426190Y11900000D01*
X22426190Y12019047D01*
X18150000Y15180952D02*
X18126190Y15228571D01*
X18126190Y15300000D01*
X18150000Y15371428D01*
X18197619Y15419047D01*
X18245238Y15442857D01*
X18340476Y15466666D01*
X18411904Y15466666D01*
X18507142Y15442857D01*
X18554761Y15419047D01*
X18602380Y15371428D01*
X18626190Y15300000D01*
X18626190Y15252380D01*
X18602380Y15180952D01*
X18578571Y15157142D01*
X18411904Y15157142D01*
X18411904Y15252380D01*
X18626190Y14942857D02*
X18126190Y14942857D01*
X18626190Y14657142D01*
X18126190Y14657142D01*
X18626190Y14419047D02*
X18126190Y14419047D01*
X18126190Y14300000D01*
X18150000Y14228571D01*
X18197619Y14180952D01*
X18245238Y14157142D01*
X18340476Y14133333D01*
X18411904Y14133333D01*
X18507142Y14157142D01*
X18554761Y14180952D01*
X18602380Y14228571D01*
X18626190Y14300000D01*
X18626190Y14419047D01*
X16950000Y15180952D02*
X16926190Y15228571D01*
X16926190Y15300000D01*
X16950000Y15371428D01*
X16997619Y15419047D01*
X17045238Y15442857D01*
X17140476Y15466666D01*
X17211904Y15466666D01*
X17307142Y15442857D01*
X17354761Y15419047D01*
X17402380Y15371428D01*
X17426190Y15300000D01*
X17426190Y15252380D01*
X17402380Y15180952D01*
X17378571Y15157142D01*
X17211904Y15157142D01*
X17211904Y15252380D01*
X17426190Y14942857D02*
X16926190Y14942857D01*
X17426190Y14657142D01*
X16926190Y14657142D01*
X17426190Y14419047D02*
X16926190Y14419047D01*
X16926190Y14300000D01*
X16950000Y14228571D01*
X16997619Y14180952D01*
X17045238Y14157142D01*
X17140476Y14133333D01*
X17211904Y14133333D01*
X17307142Y14157142D01*
X17354761Y14180952D01*
X17402380Y14228571D01*
X17426190Y14300000D01*
X17426190Y14419047D01*
X15726190Y15907142D02*
X15726190Y15597619D01*
X15916666Y15764285D01*
X15916666Y15692857D01*
X15940476Y15645238D01*
X15964285Y15621428D01*
X16011904Y15597619D01*
X16130952Y15597619D01*
X16178571Y15621428D01*
X16202380Y15645238D01*
X16226190Y15692857D01*
X16226190Y15835714D01*
X16202380Y15883333D01*
X16178571Y15907142D01*
X15726190Y15454761D02*
X16226190Y15288095D01*
X15726190Y15121428D01*
X15726190Y15002380D02*
X15726190Y14692857D01*
X15916666Y14859523D01*
X15916666Y14788095D01*
X15940476Y14740476D01*
X15964285Y14716666D01*
X16011904Y14692857D01*
X16130952Y14692857D01*
X16178571Y14716666D01*
X16202380Y14740476D01*
X16226190Y14788095D01*
X16226190Y14930952D01*
X16202380Y14978571D01*
X16178571Y15002380D01*
X16226190Y14478571D02*
X15892857Y14478571D01*
X15726190Y14478571D02*
X15750000Y14502380D01*
X15773809Y14478571D01*
X15750000Y14454761D01*
X15726190Y14478571D01*
X15773809Y14478571D01*
X15892857Y14240476D02*
X16226190Y14240476D01*
X15940476Y14240476D02*
X15916666Y14216666D01*
X15892857Y14169047D01*
X15892857Y14097619D01*
X15916666Y14049999D01*
X15964285Y14026190D01*
X16226190Y14026190D01*
X15892857Y13859523D02*
X15892857Y13669047D01*
X15726190Y13788095D02*
X16154761Y13788095D01*
X16202380Y13764285D01*
X16226190Y13716666D01*
X16226190Y13669047D01*
X18602380Y6890476D02*
X18626190Y6819047D01*
X18626190Y6700000D01*
X18602380Y6652380D01*
X18578571Y6628571D01*
X18530952Y6604761D01*
X18483333Y6604761D01*
X18435714Y6628571D01*
X18411904Y6652380D01*
X18388095Y6700000D01*
X18364285Y6795238D01*
X18340476Y6842857D01*
X18316666Y6866666D01*
X18269047Y6890476D01*
X18221428Y6890476D01*
X18173809Y6866666D01*
X18150000Y6842857D01*
X18126190Y6795238D01*
X18126190Y6676190D01*
X18150000Y6604761D01*
X18126190Y6438095D02*
X18626190Y6319047D01*
X18269047Y6223809D01*
X18626190Y6128571D01*
X18126190Y6009523D01*
X18126190Y5723809D02*
X18126190Y5628571D01*
X18150000Y5580952D01*
X18197619Y5533333D01*
X18292857Y5509523D01*
X18459523Y5509523D01*
X18554761Y5533333D01*
X18602380Y5580952D01*
X18626190Y5628571D01*
X18626190Y5723809D01*
X18602380Y5771428D01*
X18554761Y5819047D01*
X18459523Y5842857D01*
X18292857Y5842857D01*
X18197619Y5819047D01*
X18150000Y5771428D01*
X18126190Y5723809D01*
X17402380Y6980952D02*
X17426190Y6909523D01*
X17426190Y6790476D01*
X17402380Y6742857D01*
X17378571Y6719047D01*
X17330952Y6695238D01*
X17283333Y6695238D01*
X17235714Y6719047D01*
X17211904Y6742857D01*
X17188095Y6790476D01*
X17164285Y6885714D01*
X17140476Y6933333D01*
X17116666Y6957142D01*
X17069047Y6980952D01*
X17021428Y6980952D01*
X16973809Y6957142D01*
X16950000Y6933333D01*
X16926190Y6885714D01*
X16926190Y6766666D01*
X16950000Y6695238D01*
X16926190Y6528571D02*
X17426190Y6409523D01*
X17069047Y6314285D01*
X17426190Y6219047D01*
X16926190Y6100000D01*
X17426190Y5909523D02*
X16926190Y5909523D01*
X16926190Y5790476D01*
X16950000Y5719047D01*
X16997619Y5671428D01*
X17045238Y5647619D01*
X17140476Y5623809D01*
X17211904Y5623809D01*
X17307142Y5647619D01*
X17354761Y5671428D01*
X17402380Y5719047D01*
X17426190Y5790476D01*
X17426190Y5909523D01*
X17378571Y5123809D02*
X17402380Y5147619D01*
X17426190Y5219047D01*
X17426190Y5266666D01*
X17402380Y5338095D01*
X17354761Y5385714D01*
X17307142Y5409523D01*
X17211904Y5433333D01*
X17140476Y5433333D01*
X17045238Y5409523D01*
X16997619Y5385714D01*
X16950000Y5338095D01*
X16926190Y5266666D01*
X16926190Y5219047D01*
X16950000Y5147619D01*
X16973809Y5123809D01*
X17426190Y4671428D02*
X17426190Y4909523D01*
X16926190Y4909523D01*
X17426190Y4504761D02*
X16926190Y4504761D01*
X17426190Y4219047D02*
X17140476Y4433333D01*
X16926190Y4219047D02*
X17211904Y4504761D01*
X16002380Y7059523D02*
X16026190Y6988095D01*
X16026190Y6869047D01*
X16002380Y6821428D01*
X15978571Y6797619D01*
X15930952Y6773809D01*
X15883333Y6773809D01*
X15835714Y6797619D01*
X15811904Y6821428D01*
X15788095Y6869047D01*
X15764285Y6964285D01*
X15740476Y7011904D01*
X15716666Y7035714D01*
X15669047Y7059523D01*
X15621428Y7059523D01*
X15573809Y7035714D01*
X15550000Y7011904D01*
X15526190Y6964285D01*
X15526190Y6845238D01*
X15550000Y6773809D01*
X15526190Y6607142D02*
X16026190Y6488095D01*
X15669047Y6392857D01*
X16026190Y6297619D01*
X15526190Y6178571D01*
X16026190Y5988095D02*
X15526190Y5988095D01*
X15526190Y5869047D01*
X15550000Y5797619D01*
X15597619Y5750000D01*
X15645238Y5726190D01*
X15740476Y5702380D01*
X15811904Y5702380D01*
X15907142Y5726190D01*
X15954761Y5750000D01*
X16002380Y5797619D01*
X16026190Y5869047D01*
X16026190Y5988095D01*
X16026190Y5488095D02*
X15526190Y5488095D01*
X15526190Y5154761D02*
X15526190Y5059523D01*
X15550000Y5011904D01*
X15597619Y4964285D01*
X15692857Y4940476D01*
X15859523Y4940476D01*
X15954761Y4964285D01*
X16002380Y5011904D01*
X16026190Y5059523D01*
X16026190Y5154761D01*
X16002380Y5202380D01*
X15954761Y5250000D01*
X15859523Y5273809D01*
X15692857Y5273809D01*
X15597619Y5250000D01*
X15550000Y5202380D01*
X15526190Y5154761D01*
D10*
X3530666Y9601733D02*
X3530666Y10301733D01*
X3264000Y10301733D01*
X3197333Y10268400D01*
X3164000Y10235066D01*
X3130666Y10168400D01*
X3130666Y10068400D01*
X3164000Y10001733D01*
X3197333Y9968400D01*
X3264000Y9935066D01*
X3530666Y9935066D01*
X2430666Y9668400D02*
X2464000Y9635066D01*
X2564000Y9601733D01*
X2630666Y9601733D01*
X2730666Y9635066D01*
X2797333Y9701733D01*
X2830666Y9768400D01*
X2864000Y9901733D01*
X2864000Y10001733D01*
X2830666Y10135066D01*
X2797333Y10201733D01*
X2730666Y10268400D01*
X2630666Y10301733D01*
X2564000Y10301733D01*
X2464000Y10268400D01*
X2430666Y10235066D01*
X1897333Y9968400D02*
X1797333Y9935066D01*
X1764000Y9901733D01*
X1730666Y9835066D01*
X1730666Y9735066D01*
X1764000Y9668400D01*
X1797333Y9635066D01*
X1864000Y9601733D01*
X2130666Y9601733D01*
X2130666Y10301733D01*
X1897333Y10301733D01*
X1830666Y10268400D01*
X1797333Y10235066D01*
X1764000Y10168400D01*
X1764000Y10101733D01*
X1797333Y10035066D01*
X1830666Y10001733D01*
X1897333Y9968400D01*
X2130666Y9968400D01*
X1597333Y9535066D02*
X1064000Y9535066D01*
X497333Y9668400D02*
X530666Y9635066D01*
X630666Y9601733D01*
X697333Y9601733D01*
X797333Y9635066D01*
X864000Y9701733D01*
X897333Y9768400D01*
X930666Y9901733D01*
X930666Y10001733D01*
X897333Y10135066D01*
X864000Y10201733D01*
X797333Y10268400D01*
X697333Y10301733D01*
X630666Y10301733D01*
X530666Y10268400D01*
X497333Y10235066D01*
X-269333Y10068400D02*
X-435999Y9601733D01*
X-602666Y10068400D01*
X-835999Y10235066D02*
X-869333Y10268400D01*
X-935999Y10301733D01*
X-1102666Y10301733D01*
X-1169333Y10268400D01*
X-1202666Y10235066D01*
X-1235999Y10168400D01*
X-1235999Y10101733D01*
X-1202666Y10001733D01*
X-802666Y9601733D01*
X-1235999Y9601733D01*
X-1535999Y9668400D02*
X-1569333Y9635066D01*
X-1535999Y9601733D01*
X-1502666Y9635066D01*
X-1535999Y9668400D01*
X-1535999Y9601733D01*
X-2002666Y10301733D02*
X-2069333Y10301733D01*
X-2135999Y10268400D01*
X-2169333Y10235066D01*
X-2202666Y10168400D01*
X-2235999Y10035066D01*
X-2235999Y9868400D01*
X-2202666Y9735066D01*
X-2169333Y9668400D01*
X-2135999Y9635066D01*
X-2069333Y9601733D01*
X-2002666Y9601733D01*
X-1935999Y9635066D01*
X-1902666Y9668400D01*
X-1869333Y9735066D01*
X-1835999Y9868400D01*
X-1835999Y10035066D01*
X-1869333Y10168400D01*
X-1902666Y10235066D01*
X-1935999Y10268400D01*
X-2002666Y10301733D01*
D12*
X25404761Y-10976190D02*
X25452380Y-11119047D01*
X25452380Y-11357142D01*
X25404761Y-11452380D01*
X25357142Y-11500000D01*
X25261904Y-11547619D01*
X25166666Y-11547619D01*
X25071428Y-11500000D01*
X25023809Y-11452380D01*
X24976190Y-11357142D01*
X24928571Y-11166666D01*
X24880952Y-11071428D01*
X24833333Y-11023809D01*
X24738095Y-10976190D01*
X24642857Y-10976190D01*
X24547619Y-11023809D01*
X24500000Y-11071428D01*
X24452380Y-11166666D01*
X24452380Y-11404761D01*
X24500000Y-11547619D01*
X25452380Y-11976190D02*
X24452380Y-11976190D01*
X24452380Y-12214285D01*
X24500000Y-12357142D01*
X24595238Y-12452380D01*
X24690476Y-12500000D01*
X24880952Y-12547619D01*
X25023809Y-12547619D01*
X25214285Y-12500000D01*
X25309523Y-12452380D01*
X25404761Y-12357142D01*
X25452380Y-12214285D01*
X25452380Y-11976190D01*
X25452380Y-12976190D02*
X24452380Y-12976190D01*
X21357142Y-12333333D02*
X21404761Y-12285714D01*
X21452380Y-12142857D01*
X21452380Y-12047619D01*
X21404761Y-11904761D01*
X21309523Y-11809523D01*
X21214285Y-11761904D01*
X21023809Y-11714285D01*
X20880952Y-11714285D01*
X20690476Y-11761904D01*
X20595238Y-11809523D01*
X20500000Y-11904761D01*
X20452380Y-12047619D01*
X20452380Y-12142857D01*
X20500000Y-12285714D01*
X20547619Y-12333333D01*
X21404761Y-12714285D02*
X21452380Y-12857142D01*
X21452380Y-13095238D01*
X21404761Y-13190476D01*
X21357142Y-13238095D01*
X21261904Y-13285714D01*
X21166666Y-13285714D01*
X21071428Y-13238095D01*
X21023809Y-13190476D01*
X20976190Y-13095238D01*
X20928571Y-12904761D01*
X20880952Y-12809523D01*
X20833333Y-12761904D01*
X20738095Y-12714285D01*
X20642857Y-12714285D01*
X20547619Y-12761904D01*
X20500000Y-12809523D01*
X20452380Y-12904761D01*
X20452380Y-13142857D01*
X20500000Y-13285714D01*
X18904761Y-13309523D02*
X18952380Y-13452380D01*
X18952380Y-13690476D01*
X18904761Y-13785714D01*
X18857142Y-13833333D01*
X18761904Y-13880952D01*
X18666666Y-13880952D01*
X18571428Y-13833333D01*
X18523809Y-13785714D01*
X18476190Y-13690476D01*
X18428571Y-13500000D01*
X18380952Y-13404761D01*
X18333333Y-13357142D01*
X18238095Y-13309523D01*
X18142857Y-13309523D01*
X18047619Y-13357142D01*
X18000000Y-13404761D01*
X17952380Y-13500000D01*
X17952380Y-13738095D01*
X18000000Y-13880952D01*
X18857142Y-14880952D02*
X18904761Y-14833333D01*
X18952380Y-14690476D01*
X18952380Y-14595238D01*
X18904761Y-14452380D01*
X18809523Y-14357142D01*
X18714285Y-14309523D01*
X18523809Y-14261904D01*
X18380952Y-14261904D01*
X18190476Y-14309523D01*
X18095238Y-14357142D01*
X18000000Y-14452380D01*
X17952380Y-14595238D01*
X17952380Y-14690476D01*
X18000000Y-14833333D01*
X18047619Y-14880952D01*
X18952380Y-15785714D02*
X18952380Y-15309523D01*
X17952380Y-15309523D01*
X18952380Y-16119047D02*
X17952380Y-16119047D01*
X18952380Y-16690476D02*
X18380952Y-16261904D01*
X17952380Y-16690476D02*
X18523809Y-16119047D01*
X16904761Y-11690476D02*
X16952380Y-11833333D01*
X16952380Y-12071428D01*
X16904761Y-12166666D01*
X16857142Y-12214285D01*
X16761904Y-12261904D01*
X16666666Y-12261904D01*
X16571428Y-12214285D01*
X16523809Y-12166666D01*
X16476190Y-12071428D01*
X16428571Y-11880952D01*
X16380952Y-11785714D01*
X16333333Y-11738095D01*
X16238095Y-11690476D01*
X16142857Y-11690476D01*
X16047619Y-11738095D01*
X16000000Y-11785714D01*
X15952380Y-11880952D01*
X15952380Y-12119047D01*
X16000000Y-12261904D01*
X16952380Y-12690476D02*
X15952380Y-12690476D01*
X15952380Y-12928571D01*
X16000000Y-13071428D01*
X16095238Y-13166666D01*
X16190476Y-13214285D01*
X16380952Y-13261904D01*
X16523809Y-13261904D01*
X16714285Y-13214285D01*
X16809523Y-13166666D01*
X16904761Y-13071428D01*
X16952380Y-12928571D01*
X16952380Y-12690476D01*
X15952380Y-13880952D02*
X15952380Y-14071428D01*
X16000000Y-14166666D01*
X16095238Y-14261904D01*
X16285714Y-14309523D01*
X16619047Y-14309523D01*
X16809523Y-14261904D01*
X16904761Y-14166666D01*
X16952380Y-14071428D01*
X16952380Y-13880952D01*
X16904761Y-13785714D01*
X16809523Y-13690476D01*
X16619047Y-13642857D01*
X16285714Y-13642857D01*
X16095238Y-13690476D01*
X16000000Y-13785714D01*
X15952380Y-13880952D01*
X25452380Y-17809523D02*
X26452380Y-18142857D01*
X25452380Y-18476190D01*
X25928571Y-19142857D02*
X25976190Y-19285714D01*
X26023809Y-19333333D01*
X26119047Y-19380952D01*
X26261904Y-19380952D01*
X26357142Y-19333333D01*
X26404761Y-19285714D01*
X26452380Y-19190476D01*
X26452380Y-18809523D01*
X25452380Y-18809523D01*
X25452380Y-19142857D01*
X25500000Y-19238095D01*
X25547619Y-19285714D01*
X25642857Y-19333333D01*
X25738095Y-19333333D01*
X25833333Y-19285714D01*
X25880952Y-19238095D01*
X25928571Y-19142857D01*
X25928571Y-18809523D01*
X25785714Y-20238095D02*
X26452380Y-20238095D01*
X25785714Y-19809523D02*
X26309523Y-19809523D01*
X26404761Y-19857142D01*
X26452380Y-19952380D01*
X26452380Y-20095238D01*
X26404761Y-20190476D01*
X26357142Y-20238095D01*
X26404761Y-20666666D02*
X26452380Y-20761904D01*
X26452380Y-20952380D01*
X26404761Y-21047619D01*
X26309523Y-21095238D01*
X26261904Y-21095238D01*
X26166666Y-21047619D01*
X26119047Y-20952380D01*
X26119047Y-20809523D01*
X26071428Y-20714285D01*
X25976190Y-20666666D01*
X25928571Y-20666666D01*
X25833333Y-20714285D01*
X25785714Y-20809523D01*
X25785714Y-20952380D01*
X25833333Y-21047619D01*
X26357142Y-14785714D02*
X26404761Y-14738095D01*
X26452380Y-14595238D01*
X26452380Y-14500000D01*
X26404761Y-14357142D01*
X26309523Y-14261904D01*
X26214285Y-14214285D01*
X26023809Y-14166666D01*
X25880952Y-14166666D01*
X25690476Y-14214285D01*
X25595238Y-14261904D01*
X25500000Y-14357142D01*
X25452380Y-14500000D01*
X25452380Y-14595238D01*
X25500000Y-14738095D01*
X25547619Y-14785714D01*
X26452380Y-15214285D02*
X25452380Y-15214285D01*
X25928571Y-15214285D02*
X25928571Y-15785714D01*
X26452380Y-15785714D02*
X25452380Y-15785714D01*
X25500000Y-16785714D02*
X25452380Y-16690476D01*
X25452380Y-16547619D01*
X25500000Y-16404761D01*
X25595238Y-16309523D01*
X25690476Y-16261904D01*
X25880952Y-16214285D01*
X26023809Y-16214285D01*
X26214285Y-16261904D01*
X26309523Y-16309523D01*
X26404761Y-16404761D01*
X26452380Y-16547619D01*
X26452380Y-16642857D01*
X26404761Y-16785714D01*
X26357142Y-16833333D01*
X26023809Y-16833333D01*
X26023809Y-16642857D01*
X21880952Y-4452380D02*
X22214285Y-3976190D01*
X22452380Y-4452380D02*
X22452380Y-3452380D01*
X22071428Y-3452380D01*
X21976190Y-3500000D01*
X21928571Y-3547619D01*
X21880952Y-3642857D01*
X21880952Y-3785714D01*
X21928571Y-3880952D01*
X21976190Y-3928571D01*
X22071428Y-3976190D01*
X22452380Y-3976190D01*
X21547619Y-3452380D02*
X20880952Y-4452380D01*
X20880952Y-3452380D02*
X21547619Y-4452380D01*
X20071428Y-4452380D02*
X20071428Y-3928571D01*
X20119047Y-3833333D01*
X20214285Y-3785714D01*
X20404761Y-3785714D01*
X20500000Y-3833333D01*
X20071428Y-4404761D02*
X20166666Y-4452380D01*
X20404761Y-4452380D01*
X20500000Y-4404761D01*
X20547619Y-4309523D01*
X20547619Y-4214285D01*
X20500000Y-4119047D01*
X20404761Y-4071428D01*
X20166666Y-4071428D01*
X20071428Y-4023809D01*
X19595238Y-4452380D02*
X19595238Y-3785714D01*
X19595238Y-3976190D02*
X19547619Y-3880952D01*
X19500000Y-3833333D01*
X19404761Y-3785714D01*
X19309523Y-3785714D01*
X18547619Y-4452380D02*
X18547619Y-3452380D01*
X18547619Y-4404761D02*
X18642857Y-4452380D01*
X18833333Y-4452380D01*
X18928571Y-4404761D01*
X18976190Y-4357142D01*
X19023809Y-4261904D01*
X19023809Y-3976190D01*
X18976190Y-3880952D01*
X18928571Y-3833333D01*
X18833333Y-3785714D01*
X18642857Y-3785714D01*
X18547619Y-3833333D01*
X16476190Y-952380D02*
X15904761Y-952380D01*
X16190476Y-1952380D02*
X16190476Y-952380D01*
X15666666Y-952380D02*
X15000000Y-1952380D01*
X15000000Y-952380D02*
X15666666Y-1952380D01*
X14190476Y-1952380D02*
X14190476Y-1428571D01*
X14238095Y-1333333D01*
X14333333Y-1285714D01*
X14523809Y-1285714D01*
X14619047Y-1333333D01*
X14190476Y-1904761D02*
X14285714Y-1952380D01*
X14523809Y-1952380D01*
X14619047Y-1904761D01*
X14666666Y-1809523D01*
X14666666Y-1714285D01*
X14619047Y-1619047D01*
X14523809Y-1571428D01*
X14285714Y-1571428D01*
X14190476Y-1523809D01*
X13714285Y-1952380D02*
X13714285Y-1285714D01*
X13714285Y-1476190D02*
X13666666Y-1380952D01*
X13619047Y-1333333D01*
X13523809Y-1285714D01*
X13428571Y-1285714D01*
X12666666Y-1952380D02*
X12666666Y-952380D01*
X12666666Y-1904761D02*
X12761904Y-1952380D01*
X12952380Y-1952380D01*
X13047619Y-1904761D01*
X13095238Y-1857142D01*
X13142857Y-1761904D01*
X13142857Y-1476190D01*
X13095238Y-1380952D01*
X13047619Y-1333333D01*
X12952380Y-1285714D01*
X12761904Y-1285714D01*
X12666666Y-1333333D01*
X-6000000Y-13238095D02*
X-6047619Y-13142857D01*
X-6047619Y-13000000D01*
X-6000000Y-12857142D01*
X-5904761Y-12761904D01*
X-5809523Y-12714285D01*
X-5619047Y-12666666D01*
X-5476190Y-12666666D01*
X-5285714Y-12714285D01*
X-5190476Y-12761904D01*
X-5095238Y-12857142D01*
X-5047619Y-13000000D01*
X-5047619Y-13095238D01*
X-5095238Y-13238095D01*
X-5142857Y-13285714D01*
X-5476190Y-13285714D01*
X-5476190Y-13095238D01*
X-5047619Y-13714285D02*
X-6047619Y-13714285D01*
X-5047619Y-14285714D01*
X-6047619Y-14285714D01*
X-5047619Y-14761904D02*
X-6047619Y-14761904D01*
X-6047619Y-15000000D01*
X-6000000Y-15142857D01*
X-5904761Y-15238095D01*
X-5809523Y-15285714D01*
X-5619047Y-15333333D01*
X-5476190Y-15333333D01*
X-5285714Y-15285714D01*
X-5190476Y-15238095D01*
X-5095238Y-15142857D01*
X-5047619Y-15000000D01*
X-5047619Y-14761904D01*
X-4309523Y-22404761D02*
X-4452380Y-22452380D01*
X-4690476Y-22452380D01*
X-4785714Y-22404761D01*
X-4833333Y-22357142D01*
X-4880952Y-22261904D01*
X-4880952Y-22166666D01*
X-4833333Y-22071428D01*
X-4785714Y-22023809D01*
X-4690476Y-21976190D01*
X-4500000Y-21928571D01*
X-4404761Y-21880952D01*
X-4357142Y-21833333D01*
X-4309523Y-21738095D01*
X-4309523Y-21642857D01*
X-4357142Y-21547619D01*
X-4404761Y-21500000D01*
X-4500000Y-21452380D01*
X-4738095Y-21452380D01*
X-4880952Y-21500000D01*
X-5880952Y-22357142D02*
X-5833333Y-22404761D01*
X-5690476Y-22452380D01*
X-5595238Y-22452380D01*
X-5452380Y-22404761D01*
X-5357142Y-22309523D01*
X-5309523Y-22214285D01*
X-5261904Y-22023809D01*
X-5261904Y-21880952D01*
X-5309523Y-21690476D01*
X-5357142Y-21595238D01*
X-5452380Y-21500000D01*
X-5595238Y-21452380D01*
X-5690476Y-21452380D01*
X-5833333Y-21500000D01*
X-5880952Y-21547619D01*
X-6785714Y-22452380D02*
X-6309523Y-22452380D01*
X-6309523Y-21452380D01*
X-4285714Y-19904761D02*
X-4428571Y-19952380D01*
X-4666666Y-19952380D01*
X-4761904Y-19904761D01*
X-4809523Y-19857142D01*
X-4857142Y-19761904D01*
X-4857142Y-19666666D01*
X-4809523Y-19571428D01*
X-4761904Y-19523809D01*
X-4666666Y-19476190D01*
X-4476190Y-19428571D01*
X-4380952Y-19380952D01*
X-4333333Y-19333333D01*
X-4285714Y-19238095D01*
X-4285714Y-19142857D01*
X-4333333Y-19047619D01*
X-4380952Y-19000000D01*
X-4476190Y-18952380D01*
X-4714285Y-18952380D01*
X-4857142Y-19000000D01*
X-5285714Y-19952380D02*
X-5285714Y-18952380D01*
X-5523809Y-18952380D01*
X-5666666Y-19000000D01*
X-5761904Y-19095238D01*
X-5809523Y-19190476D01*
X-5857142Y-19380952D01*
X-5857142Y-19523809D01*
X-5809523Y-19714285D01*
X-5761904Y-19809523D01*
X-5666666Y-19904761D01*
X-5523809Y-19952380D01*
X-5285714Y-19952380D01*
X-6238095Y-19666666D02*
X-6714285Y-19666666D01*
X-6142857Y-19952380D02*
X-6476190Y-18952380D01*
X-6809523Y-19952380D01*
X-428571Y-10738095D02*
X-428571Y-11500000D01*
X-47619Y-11119047D02*
X-809523Y-11119047D01*
X-1047619Y-11880952D02*
X-1047619Y-12500000D01*
X-666666Y-12166666D01*
X-666666Y-12309523D01*
X-619047Y-12404761D01*
X-571428Y-12452380D01*
X-476190Y-12500000D01*
X-238095Y-12500000D01*
X-142857Y-12452380D01*
X-95238Y-12404761D01*
X-47619Y-12309523D01*
X-47619Y-12023809D01*
X-95238Y-11928571D01*
X-142857Y-11880952D01*
X-1047619Y-12785714D02*
X-47619Y-13119047D01*
X-1047619Y-13452380D01*
X-1047619Y-13690476D02*
X-1047619Y-14309523D01*
X-666666Y-13976190D01*
X-666666Y-14119047D01*
X-619047Y-14214285D01*
X-571428Y-14261904D01*
X-476190Y-14309523D01*
X-238095Y-14309523D01*
X-142857Y-14261904D01*
X-95238Y-14214285D01*
X-47619Y-14119047D01*
X-47619Y-13833333D01*
X-95238Y-13738095D01*
X-142857Y-13690476D01*
X-4928571Y-5261904D02*
X-4928571Y-6023809D01*
X-4547619Y-5642857D02*
X-5309523Y-5642857D01*
X-5547619Y-6404761D02*
X-5547619Y-7023809D01*
X-5166666Y-6690476D01*
X-5166666Y-6833333D01*
X-5119047Y-6928571D01*
X-5071428Y-6976190D01*
X-4976190Y-7023809D01*
X-4738095Y-7023809D01*
X-4642857Y-6976190D01*
X-4595238Y-6928571D01*
X-4547619Y-6833333D01*
X-4547619Y-6547619D01*
X-4595238Y-6452380D01*
X-4642857Y-6404761D01*
X-5547619Y-7309523D02*
X-4547619Y-7642857D01*
X-5547619Y-7976190D01*
X-5547619Y-8214285D02*
X-5547619Y-8833333D01*
X-5166666Y-8500000D01*
X-5166666Y-8642857D01*
X-5119047Y-8738095D01*
X-5071428Y-8785714D01*
X-4976190Y-8833333D01*
X-4738095Y-8833333D01*
X-4642857Y-8785714D01*
X-4595238Y-8738095D01*
X-4547619Y-8642857D01*
X-4547619Y-8357142D01*
X-4595238Y-8261904D01*
X-4642857Y-8214285D01*
X-4547619Y-9261904D02*
X-5214285Y-9261904D01*
X-5547619Y-9261904D02*
X-5500000Y-9214285D01*
X-5452380Y-9261904D01*
X-5500000Y-9309523D01*
X-5547619Y-9261904D01*
X-5452380Y-9261904D01*
X-5214285Y-9738095D02*
X-4547619Y-9738095D01*
X-5119047Y-9738095D02*
X-5166666Y-9785714D01*
X-5214285Y-9880952D01*
X-5214285Y-10023809D01*
X-5166666Y-10119047D01*
X-5071428Y-10166666D01*
X-4547619Y-10166666D01*
X-5214285Y-10500000D02*
X-5214285Y-10880952D01*
X-5547619Y-10642857D02*
X-4690476Y-10642857D01*
X-4595238Y-10690476D01*
X-4547619Y-10785714D01*
X-4547619Y-10880952D01*
X-2428571Y-5214285D02*
X-2428571Y-5976190D01*
X-2047619Y-5595238D02*
X-2809523Y-5595238D01*
X-3047619Y-6928571D02*
X-3047619Y-6452380D01*
X-2571428Y-6404761D01*
X-2619047Y-6452380D01*
X-2666666Y-6547619D01*
X-2666666Y-6785714D01*
X-2619047Y-6880952D01*
X-2571428Y-6928571D01*
X-2476190Y-6976190D01*
X-2238095Y-6976190D01*
X-2142857Y-6928571D01*
X-2095238Y-6880952D01*
X-2047619Y-6785714D01*
X-2047619Y-6547619D01*
X-2095238Y-6452380D01*
X-2142857Y-6404761D01*
X-3047619Y-7261904D02*
X-2047619Y-7595238D01*
X-3047619Y-7928571D01*
D13*
G36*
X11686986Y-13166131D02*
G01*
X11603165Y-13610755D01*
X11293880Y-13738253D01*
X10984594Y-13865751D01*
X10613554Y-13613446D01*
X10509643Y-13543196D01*
X10415713Y-13480472D01*
X10336148Y-13428138D01*
X10275330Y-13389057D01*
X10237643Y-13366093D01*
X10227379Y-13361142D01*
X10208890Y-13373876D01*
X10169380Y-13409082D01*
X10113278Y-13462262D01*
X10045013Y-13528918D01*
X9969014Y-13604554D01*
X9889708Y-13684672D01*
X9811525Y-13764774D01*
X9738893Y-13840364D01*
X9676241Y-13906945D01*
X9627997Y-13960018D01*
X9598590Y-13995087D01*
X9591559Y-14006823D01*
X9601677Y-14028460D01*
X9630041Y-14075862D01*
X9673671Y-14144393D01*
X9729582Y-14229415D01*
X9794794Y-14326293D01*
X9832581Y-14381550D01*
X9901457Y-14482448D01*
X9962660Y-14573499D01*
X10013222Y-14650170D01*
X10050172Y-14707928D01*
X10070542Y-14742243D01*
X10073603Y-14749454D01*
X10066664Y-14769948D01*
X10047749Y-14817713D01*
X10019713Y-14886032D01*
X9985409Y-14968189D01*
X9947691Y-15057470D01*
X9909413Y-15147158D01*
X9873430Y-15230538D01*
X9842594Y-15300894D01*
X9819761Y-15351510D01*
X9807783Y-15375671D01*
X9807076Y-15376622D01*
X9788269Y-15381236D01*
X9738182Y-15391528D01*
X9662007Y-15406487D01*
X9564935Y-15425101D01*
X9452157Y-15446359D01*
X9386358Y-15458618D01*
X9265850Y-15481562D01*
X9157003Y-15503395D01*
X9065324Y-15522922D01*
X8996319Y-15538948D01*
X8955496Y-15550279D01*
X8947289Y-15553874D01*
X8939252Y-15578206D01*
X8932767Y-15633159D01*
X8927830Y-15712308D01*
X8924436Y-15809226D01*
X8922582Y-15917487D01*
X8922262Y-16030665D01*
X8923473Y-16142335D01*
X8926210Y-16246068D01*
X8930469Y-16335441D01*
X8936245Y-16404026D01*
X8943533Y-16445397D01*
X8947905Y-16454010D01*
X8974036Y-16464333D01*
X9029407Y-16479092D01*
X9106693Y-16496552D01*
X9198570Y-16514980D01*
X9230642Y-16520941D01*
X9385276Y-16549266D01*
X9507425Y-16572076D01*
X9601127Y-16590280D01*
X9670416Y-16604783D01*
X9719329Y-16616492D01*
X9751903Y-16626315D01*
X9772172Y-16635156D01*
X9784174Y-16643924D01*
X9785853Y-16645657D01*
X9802616Y-16673571D01*
X9828186Y-16727895D01*
X9860012Y-16801977D01*
X9895540Y-16889165D01*
X9932217Y-16982808D01*
X9967489Y-17076252D01*
X9998804Y-17162847D01*
X10023607Y-17235940D01*
X10039346Y-17288878D01*
X10043468Y-17315011D01*
X10043124Y-17315926D01*
X10029159Y-17337286D01*
X9997478Y-17384284D01*
X9951409Y-17452027D01*
X9894282Y-17535623D01*
X9829427Y-17630182D01*
X9810957Y-17657054D01*
X9745101Y-17754475D01*
X9687150Y-17843363D01*
X9640262Y-17918612D01*
X9607593Y-17975120D01*
X9592300Y-18007781D01*
X9591559Y-18011793D01*
X9604408Y-18032884D01*
X9639912Y-18074664D01*
X9693507Y-18132645D01*
X9760629Y-18202335D01*
X9836713Y-18279245D01*
X9917196Y-18358883D01*
X9997513Y-18436761D01*
X10073101Y-18508386D01*
X10139395Y-18569270D01*
X10191831Y-18614921D01*
X10225845Y-18640850D01*
X10235255Y-18645083D01*
X10257157Y-18635112D01*
X10302000Y-18608220D01*
X10362479Y-18568936D01*
X10409011Y-18537317D01*
X10493325Y-18479298D01*
X10593174Y-18410984D01*
X10693327Y-18342779D01*
X10747173Y-18306275D01*
X10929429Y-18183000D01*
X11082419Y-18265720D01*
X11152118Y-18301959D01*
X11211386Y-18330126D01*
X11251489Y-18346191D01*
X11261697Y-18348426D01*
X11273971Y-18331922D01*
X11298187Y-18285282D01*
X11332537Y-18212809D01*
X11375212Y-18118806D01*
X11424406Y-18007574D01*
X11478310Y-17883415D01*
X11535116Y-17750632D01*
X11593018Y-17613527D01*
X11650207Y-17476402D01*
X11704876Y-17343558D01*
X11755216Y-17219298D01*
X11799420Y-17107925D01*
X11835681Y-17013739D01*
X11862191Y-16941044D01*
X11877142Y-16894141D01*
X11879546Y-16878033D01*
X11860489Y-16857486D01*
X11818764Y-16824133D01*
X11763094Y-16784902D01*
X11758422Y-16781799D01*
X11614536Y-16666623D01*
X11498517Y-16532253D01*
X11411370Y-16382984D01*
X11354101Y-16223113D01*
X11327714Y-16056937D01*
X11333215Y-15888752D01*
X11371610Y-15722855D01*
X11443905Y-15563542D01*
X11465174Y-15528687D01*
X11575804Y-15387937D01*
X11706498Y-15274914D01*
X11852736Y-15190203D01*
X12009992Y-15134394D01*
X12173743Y-15108074D01*
X12339467Y-15111830D01*
X12502638Y-15146250D01*
X12658735Y-15211923D01*
X12803233Y-15309435D01*
X12847931Y-15349013D01*
X12961688Y-15472903D01*
X13044582Y-15603324D01*
X13101444Y-15749515D01*
X13133113Y-15894288D01*
X13140931Y-16057060D01*
X13114862Y-16220640D01*
X13057555Y-16379498D01*
X12971656Y-16528106D01*
X12859814Y-16660935D01*
X12724677Y-16772456D01*
X12706917Y-16784211D01*
X12650650Y-16822708D01*
X12607877Y-16856063D01*
X12587428Y-16877360D01*
X12587131Y-16878033D01*
X12591521Y-16901071D01*
X12608924Y-16953357D01*
X12637532Y-17030590D01*
X12675535Y-17128468D01*
X12721126Y-17242691D01*
X12772497Y-17368958D01*
X12827838Y-17502967D01*
X12885342Y-17640418D01*
X12943199Y-17777008D01*
X12999602Y-17908437D01*
X13052742Y-18030405D01*
X13100810Y-18138609D01*
X13141999Y-18228749D01*
X13174499Y-18296523D01*
X13196503Y-18337630D01*
X13205364Y-18348426D01*
X13232440Y-18340019D01*
X13283103Y-18317472D01*
X13348617Y-18284813D01*
X13384641Y-18265720D01*
X13537632Y-18183000D01*
X13719888Y-18306275D01*
X13812925Y-18369428D01*
X13914785Y-18438927D01*
X14010238Y-18504365D01*
X14058050Y-18537317D01*
X14125295Y-18582473D01*
X14182236Y-18618257D01*
X14221446Y-18640138D01*
X14234181Y-18644763D01*
X14252717Y-18632285D01*
X14293741Y-18597452D01*
X14353275Y-18543878D01*
X14427342Y-18475183D01*
X14511965Y-18394981D01*
X14565485Y-18343486D01*
X14659119Y-18251486D01*
X14740041Y-18169199D01*
X14804977Y-18100145D01*
X14850658Y-18047844D01*
X14873811Y-18015816D01*
X14876032Y-18009316D01*
X14865724Y-17984594D01*
X14837239Y-17934605D01*
X14793737Y-17864412D01*
X14738377Y-17779075D01*
X14674320Y-17683656D01*
X14656103Y-17657054D01*
X14589727Y-17560367D01*
X14530178Y-17473317D01*
X14480784Y-17400795D01*
X14444875Y-17347693D01*
X14425781Y-17318903D01*
X14423936Y-17315926D01*
X14426695Y-17292982D01*
X14441338Y-17242536D01*
X14465313Y-17171241D01*
X14496066Y-17085747D01*
X14531044Y-16992707D01*
X14567693Y-16898774D01*
X14603461Y-16810599D01*
X14635794Y-16734834D01*
X14662138Y-16678131D01*
X14679942Y-16647143D01*
X14681207Y-16645657D01*
X14692094Y-16636801D01*
X14710482Y-16628043D01*
X14740406Y-16618477D01*
X14785903Y-16607196D01*
X14851009Y-16593293D01*
X14939761Y-16575863D01*
X15056193Y-16553998D01*
X15204342Y-16526791D01*
X15236418Y-16520941D01*
X15331486Y-16502574D01*
X15414365Y-16484605D01*
X15477730Y-16468769D01*
X15514258Y-16456800D01*
X15519156Y-16454010D01*
X15527227Y-16429272D01*
X15533787Y-16373990D01*
X15538833Y-16294589D01*
X15542359Y-16197496D01*
X15544361Y-16089138D01*
X15544836Y-15975940D01*
X15543777Y-15864328D01*
X15541182Y-15760729D01*
X15537046Y-15671568D01*
X15531363Y-15603272D01*
X15524131Y-15562266D01*
X15519771Y-15553874D01*
X15495498Y-15545408D01*
X15440226Y-15531635D01*
X15359462Y-15513750D01*
X15258712Y-15492948D01*
X15143483Y-15470423D01*
X15080702Y-15458618D01*
X14961587Y-15436351D01*
X14855365Y-15416179D01*
X14767227Y-15399115D01*
X14702366Y-15386169D01*
X14665974Y-15378355D01*
X14659984Y-15376622D01*
X14649861Y-15357090D01*
X14628462Y-15310043D01*
X14598639Y-15242203D01*
X14563245Y-15160291D01*
X14525132Y-15071028D01*
X14487153Y-14981135D01*
X14452160Y-14897335D01*
X14423006Y-14826347D01*
X14402543Y-14774894D01*
X14393623Y-14749697D01*
X14393457Y-14748596D01*
X14403569Y-14728719D01*
X14431917Y-14682977D01*
X14475523Y-14615917D01*
X14531406Y-14532084D01*
X14596587Y-14436026D01*
X14634479Y-14380850D01*
X14703525Y-14279681D01*
X14764850Y-14187830D01*
X14815463Y-14109944D01*
X14852371Y-14050669D01*
X14872582Y-14014651D01*
X14875501Y-14006577D01*
X14862953Y-13987784D01*
X14828263Y-13947657D01*
X14775863Y-13890693D01*
X14710184Y-13821385D01*
X14635656Y-13744231D01*
X14556713Y-13663725D01*
X14477783Y-13584363D01*
X14403300Y-13510640D01*
X14337694Y-13447052D01*
X14285396Y-13398094D01*
X14250839Y-13368261D01*
X14239278Y-13361142D01*
X14220454Y-13371153D01*
X14175431Y-13399278D01*
X14108587Y-13442654D01*
X14024299Y-13498418D01*
X13926944Y-13563706D01*
X13853507Y-13613446D01*
X13482467Y-13865751D01*
X12863895Y-13610755D01*
X12780075Y-13166131D01*
X12696254Y-12721507D01*
X11770806Y-12721507D01*
X11686986Y-13166131D01*
X11686986Y-13166131D01*
G37*
X11686986Y-13166131D02*
X11603165Y-13610755D01*
X11293880Y-13738253D01*
X10984594Y-13865751D01*
X10613554Y-13613446D01*
X10509643Y-13543196D01*
X10415713Y-13480472D01*
X10336148Y-13428138D01*
X10275330Y-13389057D01*
X10237643Y-13366093D01*
X10227379Y-13361142D01*
X10208890Y-13373876D01*
X10169380Y-13409082D01*
X10113278Y-13462262D01*
X10045013Y-13528918D01*
X9969014Y-13604554D01*
X9889708Y-13684672D01*
X9811525Y-13764774D01*
X9738893Y-13840364D01*
X9676241Y-13906945D01*
X9627997Y-13960018D01*
X9598590Y-13995087D01*
X9591559Y-14006823D01*
X9601677Y-14028460D01*
X9630041Y-14075862D01*
X9673671Y-14144393D01*
X9729582Y-14229415D01*
X9794794Y-14326293D01*
X9832581Y-14381550D01*
X9901457Y-14482448D01*
X9962660Y-14573499D01*
X10013222Y-14650170D01*
X10050172Y-14707928D01*
X10070542Y-14742243D01*
X10073603Y-14749454D01*
X10066664Y-14769948D01*
X10047749Y-14817713D01*
X10019713Y-14886032D01*
X9985409Y-14968189D01*
X9947691Y-15057470D01*
X9909413Y-15147158D01*
X9873430Y-15230538D01*
X9842594Y-15300894D01*
X9819761Y-15351510D01*
X9807783Y-15375671D01*
X9807076Y-15376622D01*
X9788269Y-15381236D01*
X9738182Y-15391528D01*
X9662007Y-15406487D01*
X9564935Y-15425101D01*
X9452157Y-15446359D01*
X9386358Y-15458618D01*
X9265850Y-15481562D01*
X9157003Y-15503395D01*
X9065324Y-15522922D01*
X8996319Y-15538948D01*
X8955496Y-15550279D01*
X8947289Y-15553874D01*
X8939252Y-15578206D01*
X8932767Y-15633159D01*
X8927830Y-15712308D01*
X8924436Y-15809226D01*
X8922582Y-15917487D01*
X8922262Y-16030665D01*
X8923473Y-16142335D01*
X8926210Y-16246068D01*
X8930469Y-16335441D01*
X8936245Y-16404026D01*
X8943533Y-16445397D01*
X8947905Y-16454010D01*
X8974036Y-16464333D01*
X9029407Y-16479092D01*
X9106693Y-16496552D01*
X9198570Y-16514980D01*
X9230642Y-16520941D01*
X9385276Y-16549266D01*
X9507425Y-16572076D01*
X9601127Y-16590280D01*
X9670416Y-16604783D01*
X9719329Y-16616492D01*
X9751903Y-16626315D01*
X9772172Y-16635156D01*
X9784174Y-16643924D01*
X9785853Y-16645657D01*
X9802616Y-16673571D01*
X9828186Y-16727895D01*
X9860012Y-16801977D01*
X9895540Y-16889165D01*
X9932217Y-16982808D01*
X9967489Y-17076252D01*
X9998804Y-17162847D01*
X10023607Y-17235940D01*
X10039346Y-17288878D01*
X10043468Y-17315011D01*
X10043124Y-17315926D01*
X10029159Y-17337286D01*
X9997478Y-17384284D01*
X9951409Y-17452027D01*
X9894282Y-17535623D01*
X9829427Y-17630182D01*
X9810957Y-17657054D01*
X9745101Y-17754475D01*
X9687150Y-17843363D01*
X9640262Y-17918612D01*
X9607593Y-17975120D01*
X9592300Y-18007781D01*
X9591559Y-18011793D01*
X9604408Y-18032884D01*
X9639912Y-18074664D01*
X9693507Y-18132645D01*
X9760629Y-18202335D01*
X9836713Y-18279245D01*
X9917196Y-18358883D01*
X9997513Y-18436761D01*
X10073101Y-18508386D01*
X10139395Y-18569270D01*
X10191831Y-18614921D01*
X10225845Y-18640850D01*
X10235255Y-18645083D01*
X10257157Y-18635112D01*
X10302000Y-18608220D01*
X10362479Y-18568936D01*
X10409011Y-18537317D01*
X10493325Y-18479298D01*
X10593174Y-18410984D01*
X10693327Y-18342779D01*
X10747173Y-18306275D01*
X10929429Y-18183000D01*
X11082419Y-18265720D01*
X11152118Y-18301959D01*
X11211386Y-18330126D01*
X11251489Y-18346191D01*
X11261697Y-18348426D01*
X11273971Y-18331922D01*
X11298187Y-18285282D01*
X11332537Y-18212809D01*
X11375212Y-18118806D01*
X11424406Y-18007574D01*
X11478310Y-17883415D01*
X11535116Y-17750632D01*
X11593018Y-17613527D01*
X11650207Y-17476402D01*
X11704876Y-17343558D01*
X11755216Y-17219298D01*
X11799420Y-17107925D01*
X11835681Y-17013739D01*
X11862191Y-16941044D01*
X11877142Y-16894141D01*
X11879546Y-16878033D01*
X11860489Y-16857486D01*
X11818764Y-16824133D01*
X11763094Y-16784902D01*
X11758422Y-16781799D01*
X11614536Y-16666623D01*
X11498517Y-16532253D01*
X11411370Y-16382984D01*
X11354101Y-16223113D01*
X11327714Y-16056937D01*
X11333215Y-15888752D01*
X11371610Y-15722855D01*
X11443905Y-15563542D01*
X11465174Y-15528687D01*
X11575804Y-15387937D01*
X11706498Y-15274914D01*
X11852736Y-15190203D01*
X12009992Y-15134394D01*
X12173743Y-15108074D01*
X12339467Y-15111830D01*
X12502638Y-15146250D01*
X12658735Y-15211923D01*
X12803233Y-15309435D01*
X12847931Y-15349013D01*
X12961688Y-15472903D01*
X13044582Y-15603324D01*
X13101444Y-15749515D01*
X13133113Y-15894288D01*
X13140931Y-16057060D01*
X13114862Y-16220640D01*
X13057555Y-16379498D01*
X12971656Y-16528106D01*
X12859814Y-16660935D01*
X12724677Y-16772456D01*
X12706917Y-16784211D01*
X12650650Y-16822708D01*
X12607877Y-16856063D01*
X12587428Y-16877360D01*
X12587131Y-16878033D01*
X12591521Y-16901071D01*
X12608924Y-16953357D01*
X12637532Y-17030590D01*
X12675535Y-17128468D01*
X12721126Y-17242691D01*
X12772497Y-17368958D01*
X12827838Y-17502967D01*
X12885342Y-17640418D01*
X12943199Y-17777008D01*
X12999602Y-17908437D01*
X13052742Y-18030405D01*
X13100810Y-18138609D01*
X13141999Y-18228749D01*
X13174499Y-18296523D01*
X13196503Y-18337630D01*
X13205364Y-18348426D01*
X13232440Y-18340019D01*
X13283103Y-18317472D01*
X13348617Y-18284813D01*
X13384641Y-18265720D01*
X13537632Y-18183000D01*
X13719888Y-18306275D01*
X13812925Y-18369428D01*
X13914785Y-18438927D01*
X14010238Y-18504365D01*
X14058050Y-18537317D01*
X14125295Y-18582473D01*
X14182236Y-18618257D01*
X14221446Y-18640138D01*
X14234181Y-18644763D01*
X14252717Y-18632285D01*
X14293741Y-18597452D01*
X14353275Y-18543878D01*
X14427342Y-18475183D01*
X14511965Y-18394981D01*
X14565485Y-18343486D01*
X14659119Y-18251486D01*
X14740041Y-18169199D01*
X14804977Y-18100145D01*
X14850658Y-18047844D01*
X14873811Y-18015816D01*
X14876032Y-18009316D01*
X14865724Y-17984594D01*
X14837239Y-17934605D01*
X14793737Y-17864412D01*
X14738377Y-17779075D01*
X14674320Y-17683656D01*
X14656103Y-17657054D01*
X14589727Y-17560367D01*
X14530178Y-17473317D01*
X14480784Y-17400795D01*
X14444875Y-17347693D01*
X14425781Y-17318903D01*
X14423936Y-17315926D01*
X14426695Y-17292982D01*
X14441338Y-17242536D01*
X14465313Y-17171241D01*
X14496066Y-17085747D01*
X14531044Y-16992707D01*
X14567693Y-16898774D01*
X14603461Y-16810599D01*
X14635794Y-16734834D01*
X14662138Y-16678131D01*
X14679942Y-16647143D01*
X14681207Y-16645657D01*
X14692094Y-16636801D01*
X14710482Y-16628043D01*
X14740406Y-16618477D01*
X14785903Y-16607196D01*
X14851009Y-16593293D01*
X14939761Y-16575863D01*
X15056193Y-16553998D01*
X15204342Y-16526791D01*
X15236418Y-16520941D01*
X15331486Y-16502574D01*
X15414365Y-16484605D01*
X15477730Y-16468769D01*
X15514258Y-16456800D01*
X15519156Y-16454010D01*
X15527227Y-16429272D01*
X15533787Y-16373990D01*
X15538833Y-16294589D01*
X15542359Y-16197496D01*
X15544361Y-16089138D01*
X15544836Y-15975940D01*
X15543777Y-15864328D01*
X15541182Y-15760729D01*
X15537046Y-15671568D01*
X15531363Y-15603272D01*
X15524131Y-15562266D01*
X15519771Y-15553874D01*
X15495498Y-15545408D01*
X15440226Y-15531635D01*
X15359462Y-15513750D01*
X15258712Y-15492948D01*
X15143483Y-15470423D01*
X15080702Y-15458618D01*
X14961587Y-15436351D01*
X14855365Y-15416179D01*
X14767227Y-15399115D01*
X14702366Y-15386169D01*
X14665974Y-15378355D01*
X14659984Y-15376622D01*
X14649861Y-15357090D01*
X14628462Y-15310043D01*
X14598639Y-15242203D01*
X14563245Y-15160291D01*
X14525132Y-15071028D01*
X14487153Y-14981135D01*
X14452160Y-14897335D01*
X14423006Y-14826347D01*
X14402543Y-14774894D01*
X14393623Y-14749697D01*
X14393457Y-14748596D01*
X14403569Y-14728719D01*
X14431917Y-14682977D01*
X14475523Y-14615917D01*
X14531406Y-14532084D01*
X14596587Y-14436026D01*
X14634479Y-14380850D01*
X14703525Y-14279681D01*
X14764850Y-14187830D01*
X14815463Y-14109944D01*
X14852371Y-14050669D01*
X14872582Y-14014651D01*
X14875501Y-14006577D01*
X14862953Y-13987784D01*
X14828263Y-13947657D01*
X14775863Y-13890693D01*
X14710184Y-13821385D01*
X14635656Y-13744231D01*
X14556713Y-13663725D01*
X14477783Y-13584363D01*
X14403300Y-13510640D01*
X14337694Y-13447052D01*
X14285396Y-13398094D01*
X14250839Y-13368261D01*
X14239278Y-13361142D01*
X14220454Y-13371153D01*
X14175431Y-13399278D01*
X14108587Y-13442654D01*
X14024299Y-13498418D01*
X13926944Y-13563706D01*
X13853507Y-13613446D01*
X13482467Y-13865751D01*
X12863895Y-13610755D01*
X12780075Y-13166131D01*
X12696254Y-12721507D01*
X11770806Y-12721507D01*
X11686986Y-13166131D01*
G36*
X3136900Y7594600D02*
G01*
X4572000Y7594600D01*
X4572000Y7923563D01*
X4239684Y7923563D01*
X4230398Y7917711D01*
X4201986Y7913580D01*
X4162779Y7912100D01*
X4081642Y7912100D01*
X3974396Y8191281D01*
X3943861Y8269897D01*
X3916004Y8339966D01*
X3892183Y8398202D01*
X3873759Y8441321D01*
X3862089Y8466037D01*
X3858813Y8470681D01*
X3851933Y8459532D01*
X3837639Y8428562D01*
X3817542Y8381691D01*
X3793250Y8322843D01*
X3766373Y8255937D01*
X3738521Y8184896D01*
X3711302Y8113642D01*
X3701237Y8086725D01*
X3699505Y8074455D01*
X3709221Y8067735D01*
X3735391Y8064960D01*
X3770542Y8064500D01*
X3848100Y8064500D01*
X3848100Y7912100D01*
X3469481Y7912100D01*
X3781997Y8693150D01*
X3856324Y8696660D01*
X3930650Y8700170D01*
X4083050Y8317597D01*
X4120072Y8224638D01*
X4154106Y8139131D01*
X4184006Y8063961D01*
X4208625Y8002015D01*
X4226817Y7956178D01*
X4237433Y7929335D01*
X4239684Y7923563D01*
X4572000Y7923563D01*
X4572000Y9029700D01*
X3136900Y9029700D01*
X3136900Y7594600D01*
X3136900Y7594600D01*
G37*
X3136900Y7594600D02*
X4572000Y7594600D01*
X4572000Y7923563D01*
X4239684Y7923563D01*
X4230398Y7917711D01*
X4201986Y7913580D01*
X4162779Y7912100D01*
X4081642Y7912100D01*
X3974396Y8191281D01*
X3943861Y8269897D01*
X3916004Y8339966D01*
X3892183Y8398202D01*
X3873759Y8441321D01*
X3862089Y8466037D01*
X3858813Y8470681D01*
X3851933Y8459532D01*
X3837639Y8428562D01*
X3817542Y8381691D01*
X3793250Y8322843D01*
X3766373Y8255937D01*
X3738521Y8184896D01*
X3711302Y8113642D01*
X3701237Y8086725D01*
X3699505Y8074455D01*
X3709221Y8067735D01*
X3735391Y8064960D01*
X3770542Y8064500D01*
X3848100Y8064500D01*
X3848100Y7912100D01*
X3469481Y7912100D01*
X3781997Y8693150D01*
X3856324Y8696660D01*
X3930650Y8700170D01*
X4083050Y8317597D01*
X4120072Y8224638D01*
X4154106Y8139131D01*
X4184006Y8063961D01*
X4208625Y8002015D01*
X4226817Y7956178D01*
X4237433Y7929335D01*
X4239684Y7923563D01*
X4572000Y7923563D01*
X4572000Y9029700D01*
X3136900Y9029700D01*
X3136900Y7594600D01*
G36*
X1549400Y7594600D02*
G01*
X2984500Y7594600D01*
X2984500Y7919468D01*
X2646240Y7919468D01*
X2630992Y7914504D01*
X2595804Y7912352D01*
X2568176Y7912100D01*
X2478941Y7912100D01*
X2379754Y8045450D01*
X2342129Y8095085D01*
X2309509Y8136340D01*
X2285013Y8165399D01*
X2271759Y8178446D01*
X2270781Y8178800D01*
X2259973Y8169162D01*
X2237364Y8142798D01*
X2206077Y8103536D01*
X2169237Y8055202D01*
X2162373Y8045990D01*
X2063750Y7913180D01*
X1978025Y7912640D01*
X1935087Y7913290D01*
X1904333Y7915512D01*
X1892305Y7918828D01*
X1892300Y7918899D01*
X1899576Y7930757D01*
X1919757Y7959437D01*
X1950379Y8001543D01*
X1988974Y8053677D01*
X2026112Y8103212D01*
X2070233Y8162260D01*
X2109084Y8215230D01*
X2140006Y8258419D01*
X2160342Y8288127D01*
X2167236Y8299786D01*
X2167260Y8308240D01*
X2161643Y8322511D01*
X2149009Y8344598D01*
X2127981Y8376500D01*
X2097181Y8420218D01*
X2055232Y8477750D01*
X2000758Y8551097D01*
X1932380Y8642258D01*
X1920362Y8658225D01*
X1889286Y8699500D01*
X2064668Y8699500D01*
X2163854Y8566150D01*
X2201341Y8516595D01*
X2233649Y8475470D01*
X2257709Y8446564D01*
X2270455Y8433668D01*
X2271346Y8433340D01*
X2281596Y8443175D01*
X2303735Y8469691D01*
X2334685Y8509052D01*
X2371367Y8557416D01*
X2378273Y8566690D01*
X2476895Y8699500D01*
X2559248Y8699500D01*
X2601235Y8698544D01*
X2630904Y8696042D01*
X2641600Y8692702D01*
X2634341Y8680818D01*
X2614220Y8652134D01*
X2583726Y8610087D01*
X2545345Y8558113D01*
X2510655Y8511727D01*
X2466971Y8453442D01*
X2428352Y8401580D01*
X2397517Y8359815D01*
X2377180Y8331823D01*
X2370391Y8321975D01*
X2374817Y8307024D01*
X2393508Y8274484D01*
X2424885Y8226621D01*
X2467369Y8165699D01*
X2519380Y8093984D01*
X2579340Y8013739D01*
X2645092Y7927975D01*
X2646240Y7919468D01*
X2984500Y7919468D01*
X2984500Y9029700D01*
X1549400Y9029700D01*
X1549400Y7594600D01*
X1549400Y7594600D01*
G37*
X1549400Y7594600D02*
X2984500Y7594600D01*
X2984500Y7919468D01*
X2646240Y7919468D01*
X2630992Y7914504D01*
X2595804Y7912352D01*
X2568176Y7912100D01*
X2478941Y7912100D01*
X2379754Y8045450D01*
X2342129Y8095085D01*
X2309509Y8136340D01*
X2285013Y8165399D01*
X2271759Y8178446D01*
X2270781Y8178800D01*
X2259973Y8169162D01*
X2237364Y8142798D01*
X2206077Y8103536D01*
X2169237Y8055202D01*
X2162373Y8045990D01*
X2063750Y7913180D01*
X1978025Y7912640D01*
X1935087Y7913290D01*
X1904333Y7915512D01*
X1892305Y7918828D01*
X1892300Y7918899D01*
X1899576Y7930757D01*
X1919757Y7959437D01*
X1950379Y8001543D01*
X1988974Y8053677D01*
X2026112Y8103212D01*
X2070233Y8162260D01*
X2109084Y8215230D01*
X2140006Y8258419D01*
X2160342Y8288127D01*
X2167236Y8299786D01*
X2167260Y8308240D01*
X2161643Y8322511D01*
X2149009Y8344598D01*
X2127981Y8376500D01*
X2097181Y8420218D01*
X2055232Y8477750D01*
X2000758Y8551097D01*
X1932380Y8642258D01*
X1920362Y8658225D01*
X1889286Y8699500D01*
X2064668Y8699500D01*
X2163854Y8566150D01*
X2201341Y8516595D01*
X2233649Y8475470D01*
X2257709Y8446564D01*
X2270455Y8433668D01*
X2271346Y8433340D01*
X2281596Y8443175D01*
X2303735Y8469691D01*
X2334685Y8509052D01*
X2371367Y8557416D01*
X2378273Y8566690D01*
X2476895Y8699500D01*
X2559248Y8699500D01*
X2601235Y8698544D01*
X2630904Y8696042D01*
X2641600Y8692702D01*
X2634341Y8680818D01*
X2614220Y8652134D01*
X2583726Y8610087D01*
X2545345Y8558113D01*
X2510655Y8511727D01*
X2466971Y8453442D01*
X2428352Y8401580D01*
X2397517Y8359815D01*
X2377180Y8331823D01*
X2370391Y8321975D01*
X2374817Y8307024D01*
X2393508Y8274484D01*
X2424885Y8226621D01*
X2467369Y8165699D01*
X2519380Y8093984D01*
X2579340Y8013739D01*
X2645092Y7927975D01*
X2646240Y7919468D01*
X2984500Y7919468D01*
X2984500Y9029700D01*
X1549400Y9029700D01*
X1549400Y7594600D01*
G36*
X-38100Y7594600D02*
G01*
X1397000Y7594600D01*
X1397000Y8699500D01*
X1079500Y8699500D01*
X1079500Y8547100D01*
X762000Y8547100D01*
X762000Y7912100D01*
X609600Y7912100D01*
X609600Y8547100D01*
X292100Y8547100D01*
X292100Y8699500D01*
X1079500Y8699500D01*
X1397000Y8699500D01*
X1397000Y9029700D01*
X-38100Y9029700D01*
X-38100Y7594600D01*
X-38100Y7594600D01*
G37*
X-38100Y7594600D02*
X1397000Y7594600D01*
X1397000Y8699500D01*
X1079500Y8699500D01*
X1079500Y8547100D01*
X762000Y8547100D01*
X762000Y7912100D01*
X609600Y7912100D01*
X609600Y8547100D01*
X292100Y8547100D01*
X292100Y8699500D01*
X1079500Y8699500D01*
X1397000Y8699500D01*
X1397000Y9029700D01*
X-38100Y9029700D01*
X-38100Y7594600D01*
G36*
X-1625600Y7594600D02*
G01*
X-190500Y7594600D01*
X-190500Y8699500D01*
X-508000Y8699500D01*
X-508000Y7912100D01*
X-1295400Y7912100D01*
X-1295400Y8064500D01*
X-660400Y8064500D01*
X-660400Y8229600D01*
X-1143000Y8229600D01*
X-1143000Y8382000D01*
X-660400Y8382000D01*
X-660400Y8547100D01*
X-1295400Y8547100D01*
X-1295400Y8699500D01*
X-508000Y8699500D01*
X-190500Y8699500D01*
X-190500Y9029700D01*
X-1625600Y9029700D01*
X-1625600Y7594600D01*
X-1625600Y7594600D01*
G37*
X-1625600Y7594600D02*
X-190500Y7594600D01*
X-190500Y8699500D01*
X-508000Y8699500D01*
X-508000Y7912100D01*
X-1295400Y7912100D01*
X-1295400Y8064500D01*
X-660400Y8064500D01*
X-660400Y8229600D01*
X-1143000Y8229600D01*
X-1143000Y8382000D01*
X-660400Y8382000D01*
X-660400Y8547100D01*
X-1295400Y8547100D01*
X-1295400Y8699500D01*
X-508000Y8699500D01*
X-190500Y8699500D01*
X-190500Y9029700D01*
X-1625600Y9029700D01*
X-1625600Y7594600D01*
G36*
X-3213100Y7594600D02*
G01*
X-1778000Y7594600D01*
X-1778000Y8699500D01*
X-2095500Y8699500D01*
X-2095500Y7912100D01*
X-2882900Y7912100D01*
X-2882900Y8064500D01*
X-2247900Y8064500D01*
X-2247900Y8547100D01*
X-2882900Y8547100D01*
X-2882900Y8699500D01*
X-2095500Y8699500D01*
X-1778000Y8699500D01*
X-1778000Y9029700D01*
X-3213100Y9029700D01*
X-3213100Y7594600D01*
X-3213100Y7594600D01*
G37*
X-3213100Y7594600D02*
X-1778000Y7594600D01*
X-1778000Y8699500D01*
X-2095500Y8699500D01*
X-2095500Y7912100D01*
X-2882900Y7912100D01*
X-2882900Y8064500D01*
X-2247900Y8064500D01*
X-2247900Y8547100D01*
X-2882900Y8547100D01*
X-2882900Y8699500D01*
X-2095500Y8699500D01*
X-1778000Y8699500D01*
X-1778000Y9029700D01*
X-3213100Y9029700D01*
X-3213100Y7594600D01*
D14*
X21570000Y8635000D02*
X21635000Y8635000D01*
X21570000Y12165000D02*
X21635000Y12165000D01*
X15165000Y8635000D02*
X15230000Y8635000D01*
X15165000Y12165000D02*
X15230000Y12165000D01*
X15230000Y13490000D02*
X15230000Y12165000D01*
X21635000Y12165000D02*
X21635000Y8635000D01*
X15165000Y12165000D02*
X15165000Y8635000D01*
X-4100000Y-3650000D02*
G75*
G03X-4100000Y-3650000I-950000J0D01*
G01*
X24700000Y-18400000D02*
G75*
G03X24700000Y-18400000I-950000J0D01*
G01*
X300000Y-15650000D02*
G75*
G03X300000Y-15650000I-950000J0D01*
G01*
X-1350000Y-3650000D02*
G75*
G03X-1350000Y-3650000I-950000J0D01*
G01*
X23800000Y-12000000D02*
G75*
G03X23800000Y-12000000I-950000J0D01*
G01*
X-2150000Y-19450000D02*
G75*
G03X-2150000Y-19450000I-950000J0D01*
G01*
X-2150000Y-22000000D02*
G75*
G03X-2150000Y-22000000I-950000J0D01*
G01*
X24700000Y-15450000D02*
G75*
G03X24700000Y-15450000I-950000J0D01*
G01*
X25003800Y-3200400D02*
G75*
G03X25003800Y-3200400I-950000J0D01*
G01*
X18800000Y-1350000D02*
G75*
G03X18800000Y-1350000I-950000J0D01*
G01*
X17600000Y-10150000D02*
G75*
G03X17600000Y-10150000I-950000J0D01*
G01*
X19700000Y-12000000D02*
G75*
G03X19700000Y-12000000I-950000J0D01*
G01*
X21750000Y-10150000D02*
G75*
G03X21750000Y-10150000I-950000J0D01*
G01*
D15*
X22452380Y10733333D02*
X23166666Y10733333D01*
X23309523Y10780952D01*
X23404761Y10876190D01*
X23452380Y11019047D01*
X23452380Y11114285D01*
X23452380Y9733333D02*
X23452380Y10304761D01*
X23452380Y10019047D02*
X22452380Y10019047D01*
X22595238Y10114285D01*
X22690476Y10209523D01*
X22738095Y10304761D01*
X-5647619Y161904D02*
X-5647619Y-409523D01*
X-4647619Y-123809D02*
X-5647619Y-123809D01*
X-4647619Y-742857D02*
X-5647619Y-742857D01*
X-5647619Y-1123809D01*
X-5600000Y-1219047D01*
X-5552380Y-1266666D01*
X-5457142Y-1314285D01*
X-5314285Y-1314285D01*
X-5219047Y-1266666D01*
X-5171428Y-1219047D01*
X-5123809Y-1123809D01*
X-5123809Y-742857D01*
X-4647619Y-2266666D02*
X-4647619Y-1695238D01*
X-4647619Y-1980952D02*
X-5647619Y-1980952D01*
X-5504761Y-1885714D01*
X-5409523Y-1790476D01*
X-5361904Y-1695238D01*
X22561904Y-18002380D02*
X21990476Y-18002380D01*
X22276190Y-19002380D02*
X22276190Y-18002380D01*
X21657142Y-19002380D02*
X21657142Y-18002380D01*
X21276190Y-18002380D01*
X21180952Y-18050000D01*
X21133333Y-18097619D01*
X21085714Y-18192857D01*
X21085714Y-18335714D01*
X21133333Y-18430952D01*
X21180952Y-18478571D01*
X21276190Y-18526190D01*
X21657142Y-18526190D01*
X20704761Y-18097619D02*
X20657142Y-18050000D01*
X20561904Y-18002380D01*
X20323809Y-18002380D01*
X20228571Y-18050000D01*
X20180952Y-18097619D01*
X20133333Y-18192857D01*
X20133333Y-18288095D01*
X20180952Y-18430952D01*
X20752380Y-19002380D01*
X20133333Y-19002380D01*
X2961904Y-15152380D02*
X2390476Y-15152380D01*
X2676190Y-16152380D02*
X2676190Y-15152380D01*
X2057142Y-16152380D02*
X2057142Y-15152380D01*
X1676190Y-15152380D01*
X1580952Y-15200000D01*
X1533333Y-15247619D01*
X1485714Y-15342857D01*
X1485714Y-15485714D01*
X1533333Y-15580952D01*
X1580952Y-15628571D01*
X1676190Y-15676190D01*
X2057142Y-15676190D01*
X1152380Y-15152380D02*
X533333Y-15152380D01*
X866666Y-15533333D01*
X723809Y-15533333D01*
X628571Y-15580952D01*
X580952Y-15628571D01*
X533333Y-15723809D01*
X533333Y-15961904D01*
X580952Y-16057142D01*
X628571Y-16104761D01*
X723809Y-16152380D01*
X1009523Y-16152380D01*
X1104761Y-16104761D01*
X1152380Y-16057142D01*
X-2847619Y61904D02*
X-2847619Y-509523D01*
X-1847619Y-223809D02*
X-2847619Y-223809D01*
X-1847619Y-842857D02*
X-2847619Y-842857D01*
X-2847619Y-1223809D01*
X-2800000Y-1319047D01*
X-2752380Y-1366666D01*
X-2657142Y-1414285D01*
X-2514285Y-1414285D01*
X-2419047Y-1366666D01*
X-2371428Y-1319047D01*
X-2323809Y-1223809D01*
X-2323809Y-842857D01*
X-2514285Y-2271428D02*
X-1847619Y-2271428D01*
X-2895238Y-2033333D02*
X-2180952Y-1795238D01*
X-2180952Y-2414285D01*
X22302380Y-8088095D02*
X22302380Y-8659523D01*
X23302380Y-8373809D02*
X22302380Y-8373809D01*
X23302380Y-8992857D02*
X22302380Y-8992857D01*
X22302380Y-9373809D01*
X22350000Y-9469047D01*
X22397619Y-9516666D01*
X22492857Y-9564285D01*
X22635714Y-9564285D01*
X22730952Y-9516666D01*
X22778571Y-9469047D01*
X22826190Y-9373809D01*
X22826190Y-8992857D01*
X22302380Y-10421428D02*
X22302380Y-10230952D01*
X22350000Y-10135714D01*
X22397619Y-10088095D01*
X22540476Y-9992857D01*
X22730952Y-9945238D01*
X23111904Y-9945238D01*
X23207142Y-9992857D01*
X23254761Y-10040476D01*
X23302380Y-10135714D01*
X23302380Y-10326190D01*
X23254761Y-10421428D01*
X23207142Y-10469047D01*
X23111904Y-10516666D01*
X22873809Y-10516666D01*
X22778571Y-10469047D01*
X22730952Y-10421428D01*
X22683333Y-10326190D01*
X22683333Y-10135714D01*
X22730952Y-10040476D01*
X22778571Y-9992857D01*
X22873809Y-9945238D01*
X461904Y-19052380D02*
X-109523Y-19052380D01*
X176190Y-20052380D02*
X176190Y-19052380D01*
X-442857Y-20052380D02*
X-442857Y-19052380D01*
X-823809Y-19052380D01*
X-919047Y-19100000D01*
X-966666Y-19147619D01*
X-1014285Y-19242857D01*
X-1014285Y-19385714D01*
X-966666Y-19480952D01*
X-919047Y-19528571D01*
X-823809Y-19576190D01*
X-442857Y-19576190D01*
X-1347619Y-19052380D02*
X-2014285Y-19052380D01*
X-1585714Y-20052380D01*
X361904Y-21452380D02*
X-209523Y-21452380D01*
X76190Y-22452380D02*
X76190Y-21452380D01*
X-542857Y-22452380D02*
X-542857Y-21452380D01*
X-923809Y-21452380D01*
X-1019047Y-21500000D01*
X-1066666Y-21547619D01*
X-1114285Y-21642857D01*
X-1114285Y-21785714D01*
X-1066666Y-21880952D01*
X-1019047Y-21928571D01*
X-923809Y-21976190D01*
X-542857Y-21976190D01*
X-1685714Y-21880952D02*
X-1590476Y-21833333D01*
X-1542857Y-21785714D01*
X-1495238Y-21690476D01*
X-1495238Y-21642857D01*
X-1542857Y-21547619D01*
X-1590476Y-21500000D01*
X-1685714Y-21452380D01*
X-1876190Y-21452380D01*
X-1971428Y-21500000D01*
X-2019047Y-21547619D01*
X-2066666Y-21642857D01*
X-2066666Y-21690476D01*
X-2019047Y-21785714D01*
X-1971428Y-21833333D01*
X-1876190Y-21880952D01*
X-1685714Y-21880952D01*
X-1590476Y-21928571D01*
X-1542857Y-21976190D01*
X-1495238Y-22071428D01*
X-1495238Y-22261904D01*
X-1542857Y-22357142D01*
X-1590476Y-22404761D01*
X-1685714Y-22452380D01*
X-1876190Y-22452380D01*
X-1971428Y-22404761D01*
X-2019047Y-22357142D01*
X-2066666Y-22261904D01*
X-2066666Y-22071428D01*
X-2019047Y-21976190D01*
X-1971428Y-21928571D01*
X-1876190Y-21880952D01*
X22561904Y-14952380D02*
X21990476Y-14952380D01*
X22276190Y-15952380D02*
X22276190Y-14952380D01*
X21657142Y-15952380D02*
X21657142Y-14952380D01*
X21276190Y-14952380D01*
X21180952Y-15000000D01*
X21133333Y-15047619D01*
X21085714Y-15142857D01*
X21085714Y-15285714D01*
X21133333Y-15380952D01*
X21180952Y-15428571D01*
X21276190Y-15476190D01*
X21657142Y-15476190D01*
X20609523Y-15952380D02*
X20419047Y-15952380D01*
X20323809Y-15904761D01*
X20276190Y-15857142D01*
X20180952Y-15714285D01*
X20133333Y-15523809D01*
X20133333Y-15142857D01*
X20180952Y-15047619D01*
X20228571Y-15000000D01*
X20323809Y-14952380D01*
X20514285Y-14952380D01*
X20609523Y-15000000D01*
X20657142Y-15047619D01*
X20704761Y-15142857D01*
X20704761Y-15380952D01*
X20657142Y-15476190D01*
X20609523Y-15523809D01*
X20514285Y-15571428D01*
X20323809Y-15571428D01*
X20228571Y-15523809D01*
X20180952Y-15476190D01*
X20133333Y-15380952D01*
X25791895Y-1002780D02*
X25220466Y-1002780D01*
X25506180Y-2002780D02*
X25506180Y-1002780D01*
X24887133Y-2002780D02*
X24887133Y-1002780D01*
X24506180Y-1002780D01*
X24410942Y-1050400D01*
X24363323Y-1098019D01*
X24315704Y-1193257D01*
X24315704Y-1336114D01*
X24363323Y-1431352D01*
X24410942Y-1478971D01*
X24506180Y-1526590D01*
X24887133Y-1526590D01*
X23363323Y-2002780D02*
X23934752Y-2002780D01*
X23649038Y-2002780D02*
X23649038Y-1002780D01*
X23744276Y-1145638D01*
X23839514Y-1240876D01*
X23934752Y-1288495D01*
X22744276Y-1002780D02*
X22649038Y-1002780D01*
X22553800Y-1050400D01*
X22506180Y-1098019D01*
X22458561Y-1193257D01*
X22410942Y-1383733D01*
X22410942Y-1621828D01*
X22458561Y-1812304D01*
X22506180Y-1907542D01*
X22553800Y-1955161D01*
X22649038Y-2002780D01*
X22744276Y-2002780D01*
X22839514Y-1955161D01*
X22887133Y-1907542D01*
X22934752Y-1812304D01*
X22982371Y-1621828D01*
X22982371Y-1383733D01*
X22934752Y-1193257D01*
X22887133Y-1098019D01*
X22839514Y-1050400D01*
X22744276Y-1002780D01*
X19638095Y1047619D02*
X19066666Y1047619D01*
X19352380Y47619D02*
X19352380Y1047619D01*
X18733333Y47619D02*
X18733333Y1047619D01*
X18352380Y1047619D01*
X18257142Y1000000D01*
X18209523Y952380D01*
X18161904Y857142D01*
X18161904Y714285D01*
X18209523Y619047D01*
X18257142Y571428D01*
X18352380Y523809D01*
X18733333Y523809D01*
X17209523Y47619D02*
X17780952Y47619D01*
X17495238Y47619D02*
X17495238Y1047619D01*
X17590476Y904761D01*
X17685714Y809523D01*
X17780952Y761904D01*
X16257142Y47619D02*
X16828571Y47619D01*
X16542857Y47619D02*
X16542857Y1047619D01*
X16638095Y904761D01*
X16733333Y809523D01*
X16828571Y761904D01*
X16102380Y-5461904D02*
X16102380Y-6033333D01*
X17102380Y-5747619D02*
X16102380Y-5747619D01*
X17102380Y-6366666D02*
X16102380Y-6366666D01*
X16102380Y-6747619D01*
X16150000Y-6842857D01*
X16197619Y-6890476D01*
X16292857Y-6938095D01*
X16435714Y-6938095D01*
X16530952Y-6890476D01*
X16578571Y-6842857D01*
X16626190Y-6747619D01*
X16626190Y-6366666D01*
X17102380Y-7890476D02*
X17102380Y-7319047D01*
X17102380Y-7604761D02*
X16102380Y-7604761D01*
X16245238Y-7509523D01*
X16340476Y-7414285D01*
X16388095Y-7319047D01*
X16197619Y-8271428D02*
X16150000Y-8319047D01*
X16102380Y-8414285D01*
X16102380Y-8652380D01*
X16150000Y-8747619D01*
X16197619Y-8795238D01*
X16292857Y-8842857D01*
X16388095Y-8842857D01*
X16530952Y-8795238D01*
X17102380Y-8223809D01*
X17102380Y-8842857D01*
X18202380Y-7411904D02*
X18202380Y-7983333D01*
X19202380Y-7697619D02*
X18202380Y-7697619D01*
X19202380Y-8316666D02*
X18202380Y-8316666D01*
X18202380Y-8697619D01*
X18250000Y-8792857D01*
X18297619Y-8840476D01*
X18392857Y-8888095D01*
X18535714Y-8888095D01*
X18630952Y-8840476D01*
X18678571Y-8792857D01*
X18726190Y-8697619D01*
X18726190Y-8316666D01*
X19202380Y-9840476D02*
X19202380Y-9269047D01*
X19202380Y-9554761D02*
X18202380Y-9554761D01*
X18345238Y-9459523D01*
X18440476Y-9364285D01*
X18488095Y-9269047D01*
X18202380Y-10173809D02*
X18202380Y-10792857D01*
X18583333Y-10459523D01*
X18583333Y-10602380D01*
X18630952Y-10697619D01*
X18678571Y-10745238D01*
X18773809Y-10792857D01*
X19011904Y-10792857D01*
X19107142Y-10745238D01*
X19154761Y-10697619D01*
X19202380Y-10602380D01*
X19202380Y-10316666D01*
X19154761Y-10221428D01*
X19107142Y-10173809D01*
X20252380Y-5561904D02*
X20252380Y-6133333D01*
X21252380Y-5847619D02*
X20252380Y-5847619D01*
X21252380Y-6466666D02*
X20252380Y-6466666D01*
X20252380Y-6847619D01*
X20300000Y-6942857D01*
X20347619Y-6990476D01*
X20442857Y-7038095D01*
X20585714Y-7038095D01*
X20680952Y-6990476D01*
X20728571Y-6942857D01*
X20776190Y-6847619D01*
X20776190Y-6466666D01*
X21252380Y-7990476D02*
X21252380Y-7419047D01*
X21252380Y-7704761D02*
X20252380Y-7704761D01*
X20395238Y-7609523D01*
X20490476Y-7514285D01*
X20538095Y-7419047D01*
X20585714Y-8847619D02*
X21252380Y-8847619D01*
X20204761Y-8609523D02*
X20919047Y-8371428D01*
X20919047Y-8990476D01*
M02*
