G04 #@! TF.GenerationSoftware,KiCad,Pcbnew,(5.1.0)-1*
G04 #@! TF.CreationDate,2019-06-21T14:43:25-03:00*
G04 #@! TF.ProjectId,PCB_C,5043425f-432e-46b6-9963-61645f706362,rev?*
G04 #@! TF.SameCoordinates,Original*
G04 #@! TF.FileFunction,Profile,NP*
%FSLAX46Y46*%
G04 Gerber Fmt 4.6, Leading zero omitted, Abs format (unit mm)*
G04 Created by KiCad (PCBNEW (5.1.0)-1) date 2019-06-21 14:43:25*
%MOMM*%
%LPD*%
G04 APERTURE LIST*
%ADD10C,0.100000*%
G04 APERTURE END LIST*
D10*
X-5499331Y9751839D02*
X-5470290Y9925613D01*
X-5860906Y8576221D02*
X-5792569Y8738779D01*
X-5417951Y10452486D02*
X-5412231Y10629477D01*
X-5473351Y11518152D02*
X-5503795Y11695616D01*
X-5449033Y11340405D02*
X-5473351Y11518152D01*
X-5540404Y11872650D02*
X-5583218Y12049110D01*
X-5447020Y10100409D02*
X-5429560Y10276082D01*
X-5418617Y10984639D02*
X-5430801Y11162519D01*
X-5620689Y9238099D02*
X-5574570Y9407937D01*
X-5534105Y9579232D02*
X-5499331Y9751839D01*
X-5412440Y10806910D02*
X-5418617Y10984639D01*
X-5792569Y8738779D02*
X-5729728Y8903375D01*
X-5429560Y10276082D02*
X-5417951Y10452486D01*
X-5503795Y11695616D02*
X-5540404Y11872650D01*
X-5574570Y9407937D02*
X-5534105Y9579232D01*
X-5729728Y8903375D02*
X-5672421Y9069863D01*
X-5430801Y11162519D02*
X-5449033Y11340405D01*
X-5934698Y8415845D02*
X-5860906Y8576221D01*
X-5412231Y10629477D02*
X-5412440Y10806910D01*
X-5470290Y9925613D02*
X-5447020Y10100409D01*
X-5672421Y9069863D02*
X-5620689Y9238099D01*
X8416554Y16953629D02*
X7363032Y16871200D01*
X7363032Y16871200D02*
X6312679Y16747557D01*
X15773465Y16376623D02*
X14733248Y16582696D01*
X19851963Y15140187D02*
X18847228Y15511118D01*
X23737851Y13244319D02*
X22788872Y13780108D01*
X24669724Y12667316D02*
X23737851Y13244319D01*
X20844660Y14728042D02*
X19851963Y15140187D01*
X21824052Y14274682D02*
X20844660Y14728042D01*
X-1824046Y14274691D02*
X-2788865Y13780118D01*
X17831722Y15840834D02*
X16806711Y16129336D01*
X-844653Y14728050D02*
X-1824046Y14274691D01*
X6312679Y16747557D02*
X5266760Y16582700D01*
X148044Y15140195D02*
X-844653Y14728050D01*
X1152780Y15511125D02*
X148044Y15140195D01*
X2168286Y15840840D02*
X1152780Y15511125D01*
X3193297Y16129341D02*
X2168286Y15840840D01*
X18847228Y15511118D02*
X17831722Y15840834D01*
X4226544Y16376628D02*
X3193297Y16129341D01*
X10528032Y16994843D02*
X9471976Y16994843D01*
X14733248Y16582696D02*
X13687330Y16747554D01*
X9471976Y16994843D02*
X8416554Y16953629D01*
X5266760Y16582700D02*
X4226544Y16376628D01*
X12636976Y16871198D02*
X11583455Y16953628D01*
X13687330Y16747554D02*
X12636976Y16871198D01*
X25583223Y12049098D02*
X24669724Y12667316D01*
X16806711Y16129336D02*
X15773465Y16376623D01*
X11583455Y16953628D02*
X10528032Y16994843D01*
X22788872Y13780108D02*
X21824052Y14274682D01*
X-2788865Y13780118D02*
X-3737845Y13244330D01*
X27949255Y6188419D02*
X28102212Y6098495D01*
X26716734Y7228812D02*
X26837858Y7094609D01*
X27651775Y6384124D02*
X27799061Y6283642D01*
X27228816Y6716730D02*
X27366507Y6600707D01*
X26837858Y7094609D02*
X26964044Y6964040D01*
X25430806Y11162506D02*
X25418621Y10984626D01*
X26600711Y7366503D02*
X26716734Y7228812D01*
X26188423Y7949251D02*
X26283646Y7799057D01*
X25934703Y8415832D02*
X26013912Y8257784D01*
X25574574Y9407924D02*
X25620693Y9238086D01*
X25540409Y11872638D02*
X25503800Y11695604D01*
X25470294Y9925600D02*
X25499336Y9751826D01*
X26098499Y8102208D02*
X26188423Y7949251D01*
X25860910Y8576207D02*
X25934703Y8415832D01*
X25583223Y12049098D02*
X25540409Y11872638D01*
X25412444Y10806897D02*
X25412235Y10629465D01*
X-4669719Y12667327D02*
X-5583218Y12049110D01*
X25729732Y8903362D02*
X25792573Y8738766D01*
X25447024Y10100396D02*
X25470294Y9925600D01*
X28257788Y6013908D02*
X28415836Y5934699D01*
X26964044Y6964040D02*
X27094613Y6837854D01*
X25417955Y10452474D02*
X25429565Y10276069D01*
X25499336Y9751826D02*
X25534109Y9579219D01*
X27507542Y6489825D02*
X27651775Y6384124D01*
X26489829Y7507538D02*
X26600711Y7366503D01*
X26384128Y7651771D02*
X26489829Y7507538D01*
X25672425Y9069850D02*
X25729732Y8903362D01*
X25418621Y10984626D02*
X25412444Y10806897D01*
X25412235Y10629465D02*
X25417955Y10452474D01*
X27799061Y6283642D02*
X27949255Y6188419D01*
X26283646Y7799057D02*
X26384128Y7651771D01*
X25449038Y11340393D02*
X25430806Y11162506D01*
X25473356Y11518140D02*
X25449038Y11340393D01*
X27094613Y6837854D02*
X27228816Y6716730D01*
X25534109Y9579219D02*
X25574574Y9407924D01*
X27366507Y6600707D02*
X27507542Y6489825D01*
X26013912Y8257784D02*
X26098499Y8102208D01*
X25792573Y8738766D02*
X25860910Y8576207D01*
X25620693Y9238086D02*
X25672425Y9069850D01*
X25429565Y10276069D02*
X25447024Y10100396D01*
X-3737845Y13244330D02*
X-4669719Y12667327D01*
X25503800Y11695604D02*
X25473356Y11518140D01*
X28738770Y5792569D02*
X28903366Y5729728D01*
X28576211Y5860906D02*
X28738770Y5792569D01*
X28415836Y5934699D02*
X28576211Y5860906D01*
X28102212Y6098495D02*
X28257788Y6013908D01*
X-14274682Y1824059D02*
X-14728042Y844667D01*
X-16129337Y-3193285D02*
X-16376625Y-4226532D01*
X-9407928Y-25574578D02*
X-9579223Y-25534113D01*
X-9751830Y-25499340D02*
X-9925604Y-25470298D01*
X-11162510Y-25430810D02*
X-11340397Y-25449042D01*
X-16376625Y-4226532D02*
X-16582697Y-5266749D01*
X-12049096Y5583232D02*
X-12667314Y4669733D01*
X-13780107Y2788879D02*
X-14274682Y1824059D01*
X-11340397Y-25449042D02*
X-11518144Y-25473360D01*
X-9579223Y-25534113D02*
X-9751830Y-25499340D01*
X-12667314Y4669733D02*
X-13244318Y3737859D01*
X-16129340Y-16806708D02*
X-15840838Y-17831719D01*
X-16871201Y-12636970D02*
X-16747557Y-13687324D01*
X-16953629Y-8416545D02*
X-16994844Y-9471968D01*
X-11872642Y-25540413D02*
X-12049102Y-25583227D01*
X-16582697Y-5266749D02*
X-16747556Y-6312668D01*
X-13244318Y3737859D02*
X-13780107Y2788879D01*
X-10452478Y-25417959D02*
X-10629469Y-25412239D01*
X-9069854Y-25672429D02*
X-9238090Y-25620697D01*
X-15140188Y-148031D02*
X-15511119Y-1152767D01*
X-14728042Y844667D02*
X-15140188Y-148031D01*
X-8576211Y-25860914D02*
X-8738770Y-25792577D01*
X-10276073Y-25429569D02*
X-10452478Y-25417959D01*
X-11695608Y-25503804D02*
X-11872642Y-25540413D01*
X-15511119Y-1152767D02*
X-15840835Y-2168274D01*
X-10629469Y-25412239D02*
X-10806901Y-25412448D01*
X-10806901Y-25412448D02*
X-10984630Y-25418625D01*
X-8738770Y-25792577D02*
X-8903366Y-25729736D01*
X-16953630Y-11583448D02*
X-16871201Y-12636970D01*
X-15140191Y-19851962D02*
X-14728046Y-20844660D01*
X-15840838Y-17831719D02*
X-15511122Y-18847226D01*
X-9238090Y-25620697D02*
X-9407928Y-25574578D01*
X-8903366Y-25729736D02*
X-9069854Y-25672429D01*
X-16871200Y-7363023D02*
X-16953629Y-8416545D01*
X-16582699Y-14733244D02*
X-16376627Y-15773461D01*
X-15840835Y-2168274D02*
X-16129337Y-3193285D01*
X-10984630Y-25418625D02*
X-11162510Y-25430810D01*
X-9925604Y-25470298D02*
X-10100400Y-25447028D01*
X-16376627Y-15773461D02*
X-16129340Y-16806708D01*
X-16994844Y-10528025D02*
X-16953630Y-11583448D01*
X-11518144Y-25473360D02*
X-11695608Y-25503804D01*
X-15511122Y-18847226D02*
X-15140191Y-19851962D01*
X-16747557Y-13687324D02*
X-16582699Y-14733244D01*
X-10100400Y-25447028D02*
X-10276073Y-25429569D01*
X-16994844Y-9471968D02*
X-16994844Y-10528025D01*
X-16747556Y-6312668D02*
X-16871200Y-7363023D01*
X-6013908Y8257797D02*
X-5934698Y8415845D01*
X-9069849Y5672436D02*
X-8903361Y5729742D01*
X-6098495Y8102222D02*
X-6013908Y8257797D01*
X-6188419Y7949265D02*
X-6098495Y8102222D01*
X-9238085Y5620704D02*
X-9069849Y5672436D01*
X-9579218Y5534119D02*
X-9407923Y5574585D01*
X-7094609Y6837868D02*
X-6964040Y6964054D01*
X-6283642Y7799070D02*
X-6188419Y7949265D01*
X-6384124Y7651784D02*
X-6283642Y7799070D01*
X-11340391Y5449047D02*
X-11162504Y5430816D01*
X-13780112Y-22788873D02*
X-13244323Y-23737854D01*
X-6489825Y7507551D02*
X-6384124Y7651784D01*
X-10629463Y5412246D02*
X-10452472Y5417966D01*
X-6716730Y7228826D02*
X-6600707Y7366517D01*
X-6837854Y7094623D02*
X-6716730Y7228826D01*
X-11872636Y5540418D02*
X-11695602Y5503809D01*
X-14728046Y-20844660D02*
X-14274687Y-21824053D01*
X-9407923Y5574585D02*
X-9238085Y5620704D01*
X-11695602Y5503809D02*
X-11518138Y5473365D01*
X-10452472Y5417966D02*
X-10276068Y5429575D01*
X-6964040Y6964054D02*
X-6837854Y7094623D01*
X-7507537Y6489840D02*
X-7366503Y6600721D01*
X-7799056Y6283656D02*
X-7651770Y6384138D01*
X-7366503Y6600721D02*
X-7228812Y6716744D01*
X-11162504Y5430816D02*
X-10984624Y5418631D01*
X-7228812Y6716744D02*
X-7094609Y6837868D01*
X-12667320Y-24669727D02*
X-12049102Y-25583227D01*
X-7949250Y6188434D02*
X-7799056Y6283656D01*
X-8257783Y6013923D02*
X-8102208Y6098509D01*
X-8576206Y5860920D02*
X-8415831Y5934713D01*
X-11518138Y5473365D02*
X-11340391Y5449047D01*
X-9925599Y5470305D02*
X-9751825Y5499346D01*
X-10806895Y5412454D02*
X-10629463Y5412246D01*
X-14274687Y-21824053D02*
X-13780112Y-22788873D01*
X-9751825Y5499346D02*
X-9579218Y5534119D01*
X-8738765Y5792584D02*
X-8576206Y5860920D01*
X-7651770Y6384138D02*
X-7507537Y6489840D01*
X-8415831Y5934713D02*
X-8257783Y6013923D01*
X-8903361Y5729742D02*
X-8738765Y5792584D01*
X-10276068Y5429575D02*
X-10100395Y5447035D01*
X-12049096Y5583232D02*
X-11872636Y5540418D01*
X-13244323Y-23737854D02*
X-12667320Y-24669727D01*
X-10984624Y5418631D02*
X-10806895Y5412454D01*
X-6600707Y7366517D02*
X-6489825Y7507551D01*
X-8102208Y6098509D02*
X-7949250Y6188434D01*
X-10100395Y5447035D02*
X-9925599Y5470305D01*
X-8102212Y-26098503D02*
X-8257788Y-26013916D01*
X-5620693Y-29238094D02*
X-5672425Y-29069858D01*
X-7799061Y-26283650D02*
X-7949255Y-26188427D01*
X-6964044Y-26964048D02*
X-7094613Y-26837862D01*
X-5729732Y-28903370D02*
X-5792573Y-28738774D01*
X-7651775Y-26384132D02*
X-7799061Y-26283650D01*
X-6600711Y-27366511D02*
X-6716734Y-27228820D01*
X-5860910Y-28576215D02*
X-5934703Y-28415840D01*
X-7366507Y-26600715D02*
X-7507542Y-26489833D01*
X-6489829Y-27507546D02*
X-6600711Y-27366511D01*
X-6013912Y-28257792D02*
X-6098499Y-28102216D01*
X-6098499Y-28102216D02*
X-6188423Y-27949259D01*
X-5574574Y-29407932D02*
X-5620693Y-29238094D01*
X-7094613Y-26837862D02*
X-7228816Y-26716738D01*
X-6283646Y-27799065D02*
X-6384128Y-27651779D01*
X-6384128Y-27651779D02*
X-6489829Y-27507546D01*
X-5672425Y-29069858D02*
X-5729732Y-28903370D01*
X-5534109Y-29579227D02*
X-5574574Y-29407932D01*
X-6188423Y-27949259D02*
X-6283646Y-27799065D01*
X-5934703Y-28415840D02*
X-6013912Y-28257792D01*
X-7507542Y-26489833D02*
X-7651775Y-26384132D01*
X-6716734Y-27228820D02*
X-6837858Y-27094617D01*
X-8415836Y-25934707D02*
X-8576211Y-25860914D01*
X-7949255Y-26188427D02*
X-8102212Y-26098503D01*
X-8257788Y-26013916D02*
X-8415836Y-25934707D01*
X-7228816Y-26716738D02*
X-7366507Y-26600715D01*
X-6837858Y-27094617D02*
X-6964044Y-26964048D01*
X-5792573Y-28738774D02*
X-5860910Y-28576215D01*
X13687336Y-36747560D02*
X14733255Y-36582701D01*
X-5412444Y-30806905D02*
X-5412235Y-30629473D01*
X-844656Y-34728050D02*
X148042Y-35140195D01*
X23737863Y-33244322D02*
X24669737Y-32667318D01*
X15773472Y-36376629D02*
X16806719Y-36129341D01*
X-5418621Y-30984634D02*
X-5412444Y-30806905D01*
X-5430806Y-31162514D02*
X-5418621Y-30984634D01*
X-5583223Y-32049106D02*
X-5540409Y-31872646D01*
X24669737Y-32667318D02*
X25583236Y-32049100D01*
X1152778Y-35511126D02*
X2168285Y-35840842D01*
X14733255Y-36582701D02*
X15773472Y-36376629D01*
X11583459Y-36953633D02*
X12636981Y-36871204D01*
X25473369Y-31518142D02*
X25503813Y-31695606D01*
X25792588Y-28738769D02*
X25729746Y-28903365D01*
X25534123Y-29579222D02*
X25499350Y-29751829D01*
X25620708Y-29238089D02*
X25574589Y-29407927D01*
X25412250Y-30629467D02*
X25412458Y-30806899D01*
X-5473356Y-31518148D02*
X-5449038Y-31340401D01*
X25417970Y-30452476D02*
X25412250Y-30629467D01*
X3193296Y-36129344D02*
X4226543Y-36376631D01*
X-5412235Y-30629473D02*
X-5417955Y-30452482D01*
X25418635Y-30984628D02*
X25430820Y-31162508D01*
X17831730Y-35840839D02*
X18847237Y-35511123D01*
X5266760Y-36582703D02*
X6312680Y-36747561D01*
X-3737850Y-33244327D02*
X-2788869Y-33780116D01*
X25430820Y-31162508D02*
X25449051Y-31340395D01*
X25447039Y-30100399D02*
X25429579Y-30276072D01*
X-5449038Y-31340401D02*
X-5430806Y-31162514D01*
X-1824049Y-34274691D02*
X-844656Y-34728050D01*
X18847237Y-35511123D02*
X19851973Y-35140192D01*
X10528036Y-36994848D02*
X11583459Y-36953633D01*
X6312680Y-36747561D02*
X7363034Y-36871205D01*
X-5503800Y-31695612D02*
X-5473356Y-31518148D01*
X25503813Y-31695606D02*
X25540422Y-31872640D01*
X8416556Y-36953634D02*
X9471979Y-36994848D01*
X-5583223Y-32049106D02*
X-4669723Y-32667324D01*
X25470309Y-29925603D02*
X25447039Y-30100399D01*
X-5540409Y-31872646D02*
X-5503800Y-31695612D01*
X148042Y-35140195D02*
X1152778Y-35511126D01*
X22788883Y-33780111D02*
X23737863Y-33244322D01*
X-2788869Y-33780116D02*
X-1824049Y-34274691D01*
X9471979Y-36994848D02*
X10528036Y-36994848D01*
X25449051Y-31340395D02*
X25473369Y-31518142D01*
X7363034Y-36871205D02*
X8416556Y-36953634D01*
X-4669723Y-32667324D02*
X-3737850Y-33244327D01*
X4226543Y-36376631D02*
X5266760Y-36582703D01*
X25574589Y-29407927D02*
X25534123Y-29579222D01*
X20844671Y-34728046D02*
X21824063Y-34274686D01*
X-5499336Y-29751834D02*
X-5534109Y-29579227D01*
X16806719Y-36129341D02*
X17831730Y-35840839D01*
X12636981Y-36871204D02*
X13687336Y-36747560D01*
X-5470294Y-29925608D02*
X-5499336Y-29751834D01*
X-5447024Y-30100404D02*
X-5470294Y-29925608D01*
X19851973Y-35140192D02*
X20844671Y-34728046D01*
X21824063Y-34274686D02*
X22788883Y-33780111D01*
X25412458Y-30806899D02*
X25418635Y-30984628D01*
X25429579Y-30276072D02*
X25417970Y-30452476D01*
X25499350Y-29751829D02*
X25470309Y-29925603D01*
X25540422Y-31872640D02*
X25583236Y-32049100D01*
X-5429565Y-30276077D02*
X-5447024Y-30100404D01*
X25672440Y-29069853D02*
X25620708Y-29238089D01*
X25729746Y-28903365D02*
X25672440Y-29069853D01*
X2168285Y-35840842D02*
X3193296Y-36129344D01*
X-5417955Y-30452482D02*
X-5429565Y-30276077D01*
X26098513Y-28102212D02*
X26013927Y-28257787D01*
X26489844Y-27507541D02*
X26384142Y-27651774D01*
X26600725Y-27366507D02*
X26489844Y-27507541D01*
X26716748Y-27228816D02*
X26600725Y-27366507D01*
X26964058Y-26964044D02*
X26837872Y-27094613D01*
X28257801Y-26013912D02*
X28102226Y-26098499D01*
X28738783Y-25792573D02*
X28576225Y-25860910D01*
X27366521Y-26600711D02*
X27228830Y-26716734D01*
X27507555Y-26489829D02*
X27366521Y-26600711D01*
X27094627Y-26837858D02*
X26964058Y-26964044D01*
X27799074Y-26283646D02*
X27651788Y-26384128D01*
X28903379Y-25729732D02*
X28738783Y-25792573D01*
X29238103Y-25620693D02*
X29069867Y-25672425D01*
X28576225Y-25860910D02*
X28415849Y-25934702D01*
X26013927Y-28257787D02*
X25934717Y-28415835D01*
X26188438Y-27949254D02*
X26098513Y-28102212D01*
X27949269Y-26188423D02*
X27799074Y-26283646D01*
X29407941Y-25574574D02*
X29238103Y-25620693D01*
X26283660Y-27799060D02*
X26188438Y-27949254D01*
X26384142Y-27651774D02*
X26283660Y-27799060D01*
X28415849Y-25934702D02*
X28257801Y-26013912D01*
X26837872Y-27094613D02*
X26716748Y-27228816D01*
X27228830Y-26716734D02*
X27094627Y-26837858D01*
X27651788Y-26384128D02*
X27507555Y-26489829D01*
X28102226Y-26098499D02*
X27949269Y-26188423D01*
X29069867Y-25672425D02*
X28903379Y-25729732D01*
X25860924Y-28576210D02*
X25792588Y-28738769D01*
X25934717Y-28415835D02*
X25860924Y-28576210D01*
X29751843Y-25499335D02*
X29579236Y-25534109D01*
X29925617Y-25470294D02*
X29751843Y-25499335D01*
X30100413Y-25447024D02*
X29925617Y-25470294D01*
X30984630Y5418617D02*
X31162510Y5430802D01*
X30276086Y-25429564D02*
X30100413Y-25447024D01*
X30452490Y-25417955D02*
X30276086Y-25429564D01*
X33244334Y-23737849D02*
X33780122Y-22788869D01*
X36747558Y-6312674D02*
X36582700Y-5266756D01*
X30452478Y5417951D02*
X30629469Y5412231D01*
X30806901Y5412440D02*
X30984630Y5418617D01*
X35140191Y-148041D02*
X34728046Y844656D01*
X33780122Y-22788869D02*
X34274695Y-21824050D01*
X30629481Y-25412235D02*
X30452490Y-25417955D01*
X30806914Y-25412444D02*
X30629481Y-25412235D01*
X31162523Y-25430805D02*
X30984643Y-25418621D01*
X31695620Y-25503799D02*
X31518156Y-25473355D01*
X34274686Y1824048D02*
X33780112Y2788868D01*
X29407928Y5574570D02*
X29579223Y5534105D01*
X36376632Y-15773460D02*
X36582704Y-14733244D01*
X35140199Y-19851960D02*
X35511129Y-18847224D01*
X36953632Y-8416549D02*
X36871202Y-7363028D01*
X33780112Y2788868D02*
X33244323Y3737847D01*
X35840838Y-2168282D02*
X35511122Y-1152776D01*
X34728046Y844656D02*
X34274686Y1824048D01*
X36376627Y-4226539D02*
X36129340Y-3193293D01*
X36582700Y-5266756D02*
X36376627Y-4226539D01*
X29579223Y5534105D02*
X29751830Y5499332D01*
X30629469Y5412231D02*
X30806901Y5412440D01*
X36994847Y-9471972D02*
X36953632Y-8416549D01*
X36994847Y-10528028D02*
X36994847Y-9471972D01*
X36871202Y-7363028D02*
X36747558Y-6312674D01*
X36871204Y-12636972D02*
X36953633Y-11583450D01*
X34728054Y-20844657D02*
X35140199Y-19851960D01*
X28903366Y5729728D02*
X29069854Y5672421D01*
X30984643Y-25418621D02*
X30806914Y-25412444D01*
X31872654Y-25540408D02*
X31695620Y-25503799D01*
X32049114Y-25583222D02*
X31872654Y-25540408D01*
X32049114Y-25583222D02*
X32667331Y-24669723D01*
X35511129Y-18847224D02*
X35840844Y-17831718D01*
X31340409Y-25449037D02*
X31162523Y-25430805D01*
X31518156Y-25473355D02*
X31340409Y-25449037D01*
X32667320Y4669720D02*
X32049102Y5583219D01*
X33244323Y3737847D02*
X32667320Y4669720D01*
X36747561Y-13687325D02*
X36871204Y-12636972D01*
X36582704Y-14733244D02*
X36747561Y-13687325D01*
X29238090Y5620689D02*
X29407928Y5574570D01*
X31872642Y5540405D02*
X32049102Y5583219D01*
X30100400Y5447020D02*
X30276073Y5429561D01*
X31518144Y5473352D02*
X31695608Y5503796D01*
X30276073Y5429561D02*
X30452478Y5417951D01*
X31340397Y5449034D02*
X31518144Y5473352D01*
X35511122Y-1152776D02*
X35140191Y-148041D01*
X32667331Y-24669723D02*
X33244334Y-23737849D01*
X36129340Y-3193293D02*
X35840838Y-2168282D01*
X36953633Y-11583450D02*
X36994847Y-10528028D01*
X29751830Y5499332D02*
X29925604Y5470290D01*
X34274695Y-21824050D02*
X34728054Y-20844657D01*
X31695608Y5503796D02*
X31872642Y5540405D01*
X29069854Y5672421D02*
X29238090Y5620689D01*
X35840844Y-17831718D02*
X36129345Y-16806707D01*
X31162510Y5430802D02*
X31340397Y5449034D01*
X29579236Y-25534109D02*
X29407941Y-25574574D01*
X36129345Y-16806707D02*
X36376632Y-15773460D01*
X29925604Y5470290D02*
X30100400Y5447020D01*
M02*
