G04 #@! TF.GenerationSoftware,KiCad,Pcbnew,(5.1.0)-1*
G04 #@! TF.CreationDate,2019-06-21T15:08:08-03:00*
G04 #@! TF.ProjectId,EstacionTerrena,45737461-6369-46f6-9e54-657272656e61,rev?*
G04 #@! TF.SameCoordinates,Original*
G04 #@! TF.FileFunction,Copper,L2,Bot*
G04 #@! TF.FilePolarity,Positive*
%FSLAX46Y46*%
G04 Gerber Fmt 4.6, Leading zero omitted, Abs format (unit mm)*
G04 Created by KiCad (PCBNEW (5.1.0)-1) date 2019-06-21 15:08:08*
%MOMM*%
%LPD*%
G04 APERTURE LIST*
%ADD10R,1.700000X1.700000*%
%ADD11O,1.700000X1.700000*%
%ADD12C,2.300000*%
%ADD13C,2.500000*%
%ADD14R,1.000000X1.000000*%
%ADD15C,0.600000*%
%ADD16C,1.200000*%
%ADD17C,1.000000*%
%ADD18C,0.400000*%
%ADD19C,0.700000*%
%ADD20C,0.300000*%
%ADD21C,0.250000*%
%ADD22C,0.200000*%
G04 APERTURE END LIST*
D10*
X37674520Y-8095600D03*
D11*
X35134520Y-8095600D03*
X32594520Y-8095600D03*
X30054520Y-8095600D03*
X27514520Y-8095600D03*
X24974520Y-8095600D03*
D12*
X35139600Y-14928200D03*
D13*
X32599600Y-17468200D03*
X37679600Y-17468200D03*
X37679600Y-12388200D03*
X32599600Y-12388200D03*
D14*
X9805640Y-26871280D03*
D15*
X12279600Y-11829400D03*
X11314400Y-10864200D03*
X26300400Y-3396600D03*
X26300400Y-4006200D03*
X26300400Y-6495400D03*
X26300400Y-5835000D03*
X7306280Y-6769720D03*
X9912320Y-9375760D03*
X30593000Y-25545400D03*
X31482000Y-25545400D03*
X29678600Y-25545400D03*
X30567600Y-24656400D03*
X30593000Y-26434400D03*
X29704000Y-26434400D03*
X31482000Y-26434400D03*
X31482000Y-24656400D03*
X29678600Y-24656400D03*
D16*
X3999200Y-9594200D03*
X2627600Y-9594200D03*
X3338800Y-8324200D03*
X1814800Y-8324200D03*
X1256000Y-9594200D03*
X2780000Y-20211400D03*
X4151600Y-20211400D03*
X2068800Y-21481400D03*
X3592800Y-21481400D03*
D15*
X17105600Y-20109800D03*
X16242000Y-19246200D03*
X17969200Y-19246200D03*
X17969200Y-20973400D03*
X16242000Y-20973400D03*
X9333200Y-14826600D03*
X5878800Y-16299800D03*
X16038800Y-25139000D03*
X22846000Y-20363800D03*
X18528000Y-24885000D03*
X22866320Y-22370400D03*
D16*
X1408400Y-20211400D03*
D15*
X20153600Y-28796602D03*
X14006800Y-25799398D03*
X22693600Y-2685400D03*
X24420800Y-1364600D03*
D17*
X20153600Y-3396600D03*
X29500800Y-1669400D03*
D15*
X24116000Y-4209400D03*
D17*
X30567600Y-3295000D03*
D15*
X30262800Y-1110600D03*
X30821600Y-1567800D03*
X30872400Y-2380600D03*
X30313600Y-2025000D03*
X30405051Y-4250051D03*
X29246800Y-4361800D03*
X27824400Y-4412600D03*
X19137600Y-14267800D03*
X20407600Y-14318600D03*
X26391840Y-26906840D03*
X22160200Y-18204800D03*
X5421598Y-21430600D03*
X22251640Y-24661480D03*
X11619198Y-21075000D03*
X19225000Y-28023400D03*
X12254200Y-22929172D03*
X17232600Y-14445600D03*
X26391840Y-26221040D03*
X26315640Y-23427040D03*
X26275000Y-22802200D03*
X25589200Y-22751400D03*
X25589200Y-22091000D03*
X25589200Y-21405200D03*
X25411400Y-20744800D03*
X25081200Y-20059000D03*
X24649400Y-19525600D03*
X24217600Y-18941400D03*
X26417240Y-27567240D03*
X27291000Y-27958400D03*
X28002200Y-27958400D03*
X28713400Y-27958400D03*
X31583600Y-28618800D03*
X31202600Y-29177600D03*
X30542200Y-29406200D03*
X29831000Y-29406200D03*
X29145200Y-29406200D03*
X28434000Y-29406200D03*
X23506400Y-22400880D03*
X23496240Y-23071440D03*
X22251640Y-24011240D03*
X22251640Y-25306640D03*
X22277040Y-25992440D03*
X22302440Y-26678240D03*
X22302440Y-27364040D03*
X22835840Y-23071440D03*
X22226240Y-23325440D03*
X22962840Y-27592640D03*
X23623240Y-27618040D03*
X25731440Y-27618040D03*
X21728400Y-28491800D03*
X21296600Y-27882200D03*
X21017200Y-28542600D03*
X27748200Y-29406200D03*
X27087800Y-29406200D03*
X26427400Y-29406200D03*
X25792400Y-29406200D03*
X25157400Y-29406200D03*
X24522400Y-29406200D03*
X23887400Y-29406200D03*
X23252400Y-29406200D03*
X22617400Y-29406200D03*
X21957000Y-29406200D03*
X21372800Y-29126800D03*
X22185600Y-22319600D03*
X20458400Y-21252800D03*
X21093400Y-21532200D03*
X21499800Y-22116400D03*
X20534600Y-19474800D03*
X21118800Y-19170000D03*
X21550600Y-18611200D03*
X22769800Y-18027000D03*
X23862000Y-18382600D03*
X23430200Y-17874600D03*
X28281600Y-27323400D03*
X32244000Y-28339400D03*
X32371000Y-27628200D03*
D16*
X37471320Y-21979240D03*
X37603400Y-28608640D03*
D15*
X32990760Y-28984560D03*
X34850040Y-29020120D03*
X35525680Y-29045520D03*
X36191160Y-29040440D03*
X36841400Y-29243640D03*
X38380640Y-27973640D03*
X39061360Y-27897440D03*
X38411120Y-21562680D03*
X37923440Y-21095320D03*
X37268120Y-21024200D03*
X36668680Y-21313760D03*
X36470560Y-21948760D03*
X38645830Y-22151960D03*
X35688240Y-25870520D03*
X32325280Y-29004880D03*
X21652200Y-27358960D03*
X21322000Y-25611440D03*
X25060880Y-27628200D03*
X27077640Y-27338640D03*
X26386590Y-25535240D03*
X26386590Y-24849440D03*
X26386590Y-24138240D03*
X35998120Y-21135960D03*
X35566320Y-20648280D03*
X35119280Y-20160600D03*
X34662080Y-19718640D03*
X34082960Y-19449400D03*
X33442880Y-19378280D03*
X28129200Y-18164160D03*
X26955720Y-16035640D03*
X28474640Y-13470240D03*
X31756320Y-19068400D03*
X30974000Y-18179400D03*
X30847000Y-17574880D03*
X30907960Y-16909400D03*
X30892720Y-16249000D03*
X31344840Y-15756240D03*
X31995080Y-15624160D03*
X32675800Y-15619080D03*
X33376840Y-15629240D03*
X33356520Y-14150960D03*
X32701200Y-14150960D03*
X32045880Y-14120480D03*
X31385480Y-14023960D03*
X31151800Y-13414360D03*
X30826680Y-12677760D03*
X30166280Y-12672680D03*
X29521120Y-12662520D03*
X28896280Y-12672680D03*
X28256200Y-12850480D03*
X28591480Y-14125560D03*
X29140120Y-14476080D03*
X29124880Y-15111080D03*
X28505120Y-15202520D03*
X27865040Y-15207600D03*
X27230040Y-15233000D03*
X26615360Y-15466680D03*
X27128440Y-16701120D03*
X27763440Y-16894160D03*
X28423840Y-16904320D03*
X29063920Y-16909400D03*
X29124880Y-17534240D03*
X28494960Y-17615520D03*
X28408600Y-18819480D03*
X29043600Y-18976960D03*
X29114720Y-19606880D03*
X28875960Y-20211400D03*
X20128200Y-6622400D03*
X16424880Y-8603600D03*
X31431200Y-6891640D03*
X7326600Y-2898760D03*
X10557480Y-8517240D03*
X12193240Y-5398120D03*
X19792920Y-10691480D03*
X12132280Y-7369160D03*
X20880040Y-10671160D03*
X10086000Y-19893000D03*
X15164800Y-5293000D03*
X15186000Y-4393000D03*
X12648380Y-4430620D03*
X16140400Y-24043010D03*
X19493200Y-24072200D03*
X20905600Y-22659800D03*
X15886400Y-16858600D03*
X19137600Y-17087200D03*
X19899600Y-17087200D03*
X14276058Y-23325458D03*
X12787600Y-19525600D03*
X15180280Y-6617320D03*
X20456789Y-11430231D03*
X15022800Y-22065600D03*
X20610800Y-17747600D03*
X22007800Y-15766400D03*
X13143200Y-18458800D03*
D18*
X12279600Y-11829400D02*
X11314400Y-10864200D01*
D19*
X26300400Y-3396600D02*
X26300400Y-5530200D01*
X26300400Y-5530200D02*
X26300400Y-6495400D01*
D18*
X7306280Y-6769720D02*
X9912320Y-9375760D01*
D20*
X15952440Y-6876400D02*
X15007560Y-7821280D01*
X12299920Y-3691240D02*
X15551120Y-3691240D01*
X11893241Y-4097919D02*
X12299920Y-3691240D01*
X15007560Y-7821280D02*
X15007560Y-10132680D01*
X12193240Y-5398120D02*
X11893241Y-5098121D01*
X15551120Y-3691240D02*
X15952440Y-4092560D01*
X11893241Y-5098121D02*
X11893241Y-4097919D01*
X19368656Y-10691480D02*
X19792920Y-10691480D01*
X15007560Y-10132680D02*
X15566360Y-10691480D01*
X15566360Y-10691480D02*
X19368656Y-10691480D01*
X15952440Y-4092560D02*
X15952440Y-6876400D01*
X20580041Y-10371161D02*
X20880040Y-10671160D01*
X20158680Y-9949800D02*
X20580041Y-10371161D01*
X16094680Y-9949800D02*
X20158680Y-9949800D01*
X15586680Y-8192120D02*
X15586680Y-9441800D01*
X16536640Y-7242160D02*
X15586680Y-8192120D01*
X11339800Y-6576680D02*
X11339800Y-3782680D01*
X12132280Y-7369160D02*
X11339800Y-6576680D01*
X15586680Y-9441800D02*
X16094680Y-9949800D01*
X11339800Y-3782680D02*
X12010360Y-3112120D01*
X12010360Y-3112120D02*
X15815280Y-3112120D01*
X15815280Y-3112120D02*
X16536640Y-3833480D01*
X16536640Y-3833480D02*
X16536640Y-7242160D01*
X10385999Y-19593001D02*
X10086000Y-19893000D01*
X10552400Y-19426600D02*
X10385999Y-19593001D01*
X15164800Y-5293000D02*
X13752800Y-6705000D01*
X13752800Y-6705000D02*
X13752800Y-12444080D01*
X13752800Y-12444080D02*
X13341320Y-12855560D01*
X11974800Y-12855560D02*
X10552400Y-14277960D01*
X13341320Y-12855560D02*
X11974800Y-12855560D01*
X10552400Y-14277960D02*
X10552400Y-19426600D01*
X15186000Y-4393000D02*
X12686000Y-4393000D01*
X12686000Y-4393000D02*
X12648380Y-4430620D01*
D18*
X19493200Y-24072200D02*
X20905600Y-22659800D01*
X19137600Y-16863400D02*
X19137600Y-17087200D01*
X19602364Y-16365700D02*
X18639900Y-16365700D01*
X19899600Y-16662936D02*
X19602364Y-16365700D01*
X19899600Y-17087200D02*
X19899600Y-16662936D01*
X18639900Y-16365700D02*
X19137600Y-16863400D01*
X16140400Y-24043010D02*
X14993610Y-24043010D01*
X14993610Y-24043010D02*
X14276058Y-23325458D01*
X15886400Y-16858600D02*
X13219400Y-19525600D01*
X13219400Y-19525600D02*
X13211864Y-19525600D01*
X13211864Y-19525600D02*
X12787600Y-19525600D01*
X14276058Y-21014058D02*
X13087599Y-19825599D01*
X13087599Y-19825599D02*
X12787600Y-19525600D01*
X14276058Y-23325458D02*
X14276058Y-21014058D01*
X16379300Y-16365700D02*
X15886400Y-16858600D01*
X18639900Y-16365700D02*
X16379300Y-16365700D01*
D20*
X15180280Y-6617320D02*
X14397960Y-7399640D01*
X14397960Y-10422240D02*
X15405951Y-11430231D01*
X20032525Y-11430231D02*
X20456789Y-11430231D01*
X15405951Y-11430231D02*
X20032525Y-11430231D01*
X14397960Y-7399640D02*
X14397960Y-10422240D01*
D21*
X16038800Y-17747600D02*
X20610800Y-17747600D01*
X14108400Y-19678000D02*
X16038800Y-17747600D01*
X14108400Y-20008200D02*
X14108400Y-19678000D01*
X15022800Y-22065600D02*
X15022800Y-20922600D01*
X15022800Y-20922600D02*
X14108400Y-20008200D01*
X13143200Y-18458800D02*
X15835600Y-15766400D01*
X21583536Y-15766400D02*
X22007800Y-15766400D01*
X15835600Y-15766400D02*
X21583536Y-15766400D01*
D22*
G36*
X39625000Y-29625000D02*
G01*
X375000Y-29625000D01*
X375000Y-27371280D01*
X8953946Y-27371280D01*
X8960704Y-27439892D01*
X8980717Y-27505867D01*
X9013217Y-27566671D01*
X9056955Y-27619965D01*
X9110249Y-27663703D01*
X9171053Y-27696203D01*
X9237028Y-27716216D01*
X9305640Y-27722974D01*
X9468140Y-27721280D01*
X9555640Y-27633780D01*
X9555640Y-27121280D01*
X10055640Y-27121280D01*
X10055640Y-27633780D01*
X10143140Y-27721280D01*
X10305640Y-27722974D01*
X10374252Y-27716216D01*
X10440227Y-27696203D01*
X10501031Y-27663703D01*
X10554325Y-27619965D01*
X10598063Y-27566671D01*
X10630563Y-27505867D01*
X10650576Y-27439892D01*
X10657334Y-27371280D01*
X10655640Y-27208780D01*
X10568140Y-27121280D01*
X10055640Y-27121280D01*
X9555640Y-27121280D01*
X9043140Y-27121280D01*
X8955640Y-27208780D01*
X8953946Y-27371280D01*
X375000Y-27371280D01*
X375000Y-26371280D01*
X8953946Y-26371280D01*
X8955640Y-26533780D01*
X9043140Y-26621280D01*
X9555640Y-26621280D01*
X9555640Y-26108780D01*
X10055640Y-26108780D01*
X10055640Y-26621280D01*
X10568140Y-26621280D01*
X10655640Y-26533780D01*
X10657334Y-26371280D01*
X10650576Y-26302668D01*
X10630563Y-26236693D01*
X10598063Y-26175889D01*
X10554325Y-26122595D01*
X10501031Y-26078857D01*
X10440227Y-26046357D01*
X10374252Y-26026344D01*
X10305640Y-26019586D01*
X10143140Y-26021280D01*
X10055640Y-26108780D01*
X9555640Y-26108780D01*
X9468140Y-26021280D01*
X9305640Y-26019586D01*
X9237028Y-26026344D01*
X9171053Y-26046357D01*
X9110249Y-26078857D01*
X9056955Y-26122595D01*
X9013217Y-26175889D01*
X8980717Y-26236693D01*
X8960704Y-26302668D01*
X8953946Y-26371280D01*
X375000Y-26371280D01*
X375000Y-19833905D01*
X9486000Y-19833905D01*
X9486000Y-19952095D01*
X9509058Y-20068014D01*
X9554287Y-20177207D01*
X9619950Y-20275478D01*
X9703522Y-20359050D01*
X9801793Y-20424713D01*
X9910986Y-20469942D01*
X10026905Y-20493000D01*
X10145095Y-20493000D01*
X10261014Y-20469942D01*
X10370207Y-20424713D01*
X10468478Y-20359050D01*
X10552050Y-20275478D01*
X10617713Y-20177207D01*
X10662942Y-20068014D01*
X10686000Y-19952095D01*
X10686000Y-19929395D01*
X10854966Y-19760429D01*
X10872137Y-19746337D01*
X10928371Y-19677816D01*
X10970157Y-19599641D01*
X10995889Y-19514815D01*
X11000646Y-19466505D01*
X12187600Y-19466505D01*
X12187600Y-19584695D01*
X12210658Y-19700614D01*
X12255887Y-19809807D01*
X12321550Y-19908078D01*
X12405122Y-19991650D01*
X12503393Y-20057313D01*
X12612586Y-20102542D01*
X12668573Y-20113679D01*
X12751413Y-20196519D01*
X12751418Y-20196523D01*
X13776059Y-21221166D01*
X13776058Y-22993789D01*
X13744345Y-23041251D01*
X13699116Y-23150444D01*
X13676058Y-23266363D01*
X13676058Y-23384553D01*
X13699116Y-23500472D01*
X13744345Y-23609665D01*
X13810008Y-23707936D01*
X13893580Y-23791508D01*
X13991851Y-23857171D01*
X14101044Y-23902400D01*
X14157031Y-23913537D01*
X14622690Y-24379197D01*
X14638346Y-24398274D01*
X14714481Y-24460756D01*
X14801343Y-24507185D01*
X14895593Y-24535775D01*
X14993610Y-24545429D01*
X15018170Y-24543010D01*
X15808731Y-24543010D01*
X15856193Y-24574723D01*
X15965386Y-24619952D01*
X16081305Y-24643010D01*
X16199495Y-24643010D01*
X16315414Y-24619952D01*
X16424607Y-24574723D01*
X16522878Y-24509060D01*
X16606450Y-24425488D01*
X16672113Y-24327217D01*
X16717342Y-24218024D01*
X16740400Y-24102105D01*
X16740400Y-24013105D01*
X18893200Y-24013105D01*
X18893200Y-24131295D01*
X18916258Y-24247214D01*
X18961487Y-24356407D01*
X19027150Y-24454678D01*
X19110722Y-24538250D01*
X19208993Y-24603913D01*
X19318186Y-24649142D01*
X19434105Y-24672200D01*
X19552295Y-24672200D01*
X19668214Y-24649142D01*
X19777407Y-24603913D01*
X19875678Y-24538250D01*
X19959250Y-24454678D01*
X20024913Y-24356407D01*
X20070142Y-24247214D01*
X20081279Y-24191227D01*
X21024628Y-23247878D01*
X21080614Y-23236742D01*
X21189807Y-23191513D01*
X21288078Y-23125850D01*
X21371650Y-23042278D01*
X21437313Y-22944007D01*
X21482542Y-22834814D01*
X21505600Y-22718895D01*
X21505600Y-22600705D01*
X21482542Y-22484786D01*
X21437313Y-22375593D01*
X21371650Y-22277322D01*
X21288078Y-22193750D01*
X21189807Y-22128087D01*
X21080614Y-22082858D01*
X20964695Y-22059800D01*
X20846505Y-22059800D01*
X20730586Y-22082858D01*
X20621393Y-22128087D01*
X20523122Y-22193750D01*
X20439550Y-22277322D01*
X20373887Y-22375593D01*
X20328658Y-22484786D01*
X20317522Y-22540772D01*
X19374173Y-23484121D01*
X19318186Y-23495258D01*
X19208993Y-23540487D01*
X19110722Y-23606150D01*
X19027150Y-23689722D01*
X18961487Y-23787993D01*
X18916258Y-23897186D01*
X18893200Y-24013105D01*
X16740400Y-24013105D01*
X16740400Y-23983915D01*
X16717342Y-23867996D01*
X16672113Y-23758803D01*
X16606450Y-23660532D01*
X16522878Y-23576960D01*
X16424607Y-23511297D01*
X16315414Y-23466068D01*
X16199495Y-23443010D01*
X16081305Y-23443010D01*
X15965386Y-23466068D01*
X15856193Y-23511297D01*
X15808731Y-23543010D01*
X15200717Y-23543010D01*
X14864137Y-23206431D01*
X14853000Y-23150444D01*
X14807771Y-23041251D01*
X14776058Y-22993789D01*
X14776058Y-22612831D01*
X14847786Y-22642542D01*
X14963705Y-22665600D01*
X15081895Y-22665600D01*
X15197814Y-22642542D01*
X15307007Y-22597313D01*
X15405278Y-22531650D01*
X15488850Y-22448078D01*
X15554513Y-22349807D01*
X15599742Y-22240614D01*
X15622800Y-22124695D01*
X15622800Y-22006505D01*
X15599742Y-21890586D01*
X15554513Y-21781393D01*
X15488850Y-21683122D01*
X15447800Y-21642072D01*
X15447800Y-20943467D01*
X15449855Y-20922600D01*
X15447800Y-20901733D01*
X15447800Y-20901726D01*
X15441650Y-20839286D01*
X15417348Y-20759173D01*
X15377884Y-20685340D01*
X15324774Y-20620626D01*
X15308562Y-20607321D01*
X14544340Y-19843100D01*
X15682125Y-18705315D01*
X31716038Y-18705315D01*
X31868342Y-18900016D01*
X32161726Y-19015165D01*
X32471938Y-19070865D01*
X32787055Y-19064976D01*
X33094969Y-18997724D01*
X33330858Y-18900016D01*
X33483162Y-18705315D01*
X36796038Y-18705315D01*
X36948342Y-18900016D01*
X37241726Y-19015165D01*
X37551938Y-19070865D01*
X37867055Y-19064976D01*
X38174969Y-18997724D01*
X38410858Y-18900016D01*
X38563162Y-18705315D01*
X37679600Y-17821753D01*
X36796038Y-18705315D01*
X33483162Y-18705315D01*
X32599600Y-17821753D01*
X31716038Y-18705315D01*
X15682125Y-18705315D01*
X16214841Y-18172600D01*
X20187272Y-18172600D01*
X20228322Y-18213650D01*
X20326593Y-18279313D01*
X20435786Y-18324542D01*
X20551705Y-18347600D01*
X20669895Y-18347600D01*
X20785814Y-18324542D01*
X20895007Y-18279313D01*
X20993278Y-18213650D01*
X21076850Y-18130078D01*
X21142513Y-18031807D01*
X21187742Y-17922614D01*
X21210800Y-17806695D01*
X21210800Y-17688505D01*
X21187742Y-17572586D01*
X21142513Y-17463393D01*
X21076850Y-17365122D01*
X21052266Y-17340538D01*
X30996935Y-17340538D01*
X31002824Y-17655655D01*
X31070076Y-17963569D01*
X31167784Y-18199458D01*
X31362485Y-18351762D01*
X32246047Y-17468200D01*
X32953153Y-17468200D01*
X33836715Y-18351762D01*
X34031416Y-18199458D01*
X34146565Y-17906074D01*
X34202265Y-17595862D01*
X34197494Y-17340538D01*
X36076935Y-17340538D01*
X36082824Y-17655655D01*
X36150076Y-17963569D01*
X36247784Y-18199458D01*
X36442485Y-18351762D01*
X37326047Y-17468200D01*
X38033153Y-17468200D01*
X38916715Y-18351762D01*
X39111416Y-18199458D01*
X39226565Y-17906074D01*
X39282265Y-17595862D01*
X39276376Y-17280745D01*
X39209124Y-16972831D01*
X39111416Y-16736942D01*
X38916715Y-16584638D01*
X38033153Y-17468200D01*
X37326047Y-17468200D01*
X36442485Y-16584638D01*
X36247784Y-16736942D01*
X36132635Y-17030326D01*
X36076935Y-17340538D01*
X34197494Y-17340538D01*
X34196376Y-17280745D01*
X34129124Y-16972831D01*
X34031416Y-16736942D01*
X33836715Y-16584638D01*
X32953153Y-17468200D01*
X32246047Y-17468200D01*
X31362485Y-16584638D01*
X31167784Y-16736942D01*
X31052635Y-17030326D01*
X30996935Y-17340538D01*
X21052266Y-17340538D01*
X20993278Y-17281550D01*
X20895007Y-17215887D01*
X20785814Y-17170658D01*
X20669895Y-17147600D01*
X20551705Y-17147600D01*
X20497183Y-17158445D01*
X20499600Y-17146295D01*
X20499600Y-17028105D01*
X20476542Y-16912186D01*
X20431313Y-16802993D01*
X20399600Y-16755531D01*
X20399600Y-16687493D01*
X20402019Y-16662935D01*
X20397903Y-16621150D01*
X20392365Y-16564920D01*
X20363775Y-16470669D01*
X20317346Y-16383807D01*
X20254864Y-16307672D01*
X20235776Y-16292007D01*
X20135169Y-16191400D01*
X21584272Y-16191400D01*
X21625322Y-16232450D01*
X21723593Y-16298113D01*
X21832786Y-16343342D01*
X21948705Y-16366400D01*
X22066895Y-16366400D01*
X22182814Y-16343342D01*
X22292007Y-16298113D01*
X22390278Y-16232450D01*
X22391643Y-16231085D01*
X31716038Y-16231085D01*
X32599600Y-17114647D01*
X33483162Y-16231085D01*
X33330858Y-16036384D01*
X33037474Y-15921235D01*
X32727262Y-15865535D01*
X32412145Y-15871424D01*
X32104231Y-15938676D01*
X31868342Y-16036384D01*
X31716038Y-16231085D01*
X22391643Y-16231085D01*
X22473850Y-16148878D01*
X22539513Y-16050607D01*
X22584742Y-15941414D01*
X22607800Y-15825495D01*
X22607800Y-15707305D01*
X22584742Y-15591386D01*
X22539513Y-15482193D01*
X22473850Y-15383922D01*
X22390278Y-15300350D01*
X22292007Y-15234687D01*
X22182814Y-15189458D01*
X22066895Y-15166400D01*
X21948705Y-15166400D01*
X21832786Y-15189458D01*
X21723593Y-15234687D01*
X21625322Y-15300350D01*
X21584272Y-15341400D01*
X15856474Y-15341400D01*
X15835600Y-15339344D01*
X15814726Y-15341400D01*
X15752286Y-15347550D01*
X15672173Y-15371852D01*
X15598340Y-15411316D01*
X15533626Y-15464426D01*
X15520316Y-15480644D01*
X13142160Y-17858800D01*
X13084105Y-17858800D01*
X12968186Y-17881858D01*
X12858993Y-17927087D01*
X12760722Y-17992750D01*
X12677150Y-18076322D01*
X12611487Y-18174593D01*
X12566258Y-18283786D01*
X12543200Y-18399705D01*
X12543200Y-18517895D01*
X12566258Y-18633814D01*
X12611487Y-18743007D01*
X12677150Y-18841278D01*
X12760722Y-18924850D01*
X12761844Y-18925600D01*
X12728505Y-18925600D01*
X12612586Y-18948658D01*
X12503393Y-18993887D01*
X12405122Y-19059550D01*
X12321550Y-19143122D01*
X12255887Y-19241393D01*
X12210658Y-19350586D01*
X12187600Y-19466505D01*
X11000646Y-19466505D01*
X11002400Y-19448705D01*
X11002400Y-19448694D01*
X11004576Y-19426600D01*
X11002400Y-19404506D01*
X11002400Y-14785387D01*
X33689600Y-14785387D01*
X33689600Y-15071013D01*
X33745323Y-15351149D01*
X33854627Y-15615033D01*
X34013311Y-15852521D01*
X34215279Y-16054489D01*
X34452767Y-16213173D01*
X34716651Y-16322477D01*
X34996787Y-16378200D01*
X35282413Y-16378200D01*
X35562549Y-16322477D01*
X35783189Y-16231085D01*
X36796038Y-16231085D01*
X37679600Y-17114647D01*
X38563162Y-16231085D01*
X38410858Y-16036384D01*
X38117474Y-15921235D01*
X37807262Y-15865535D01*
X37492145Y-15871424D01*
X37184231Y-15938676D01*
X36948342Y-16036384D01*
X36796038Y-16231085D01*
X35783189Y-16231085D01*
X35826433Y-16213173D01*
X36063921Y-16054489D01*
X36265889Y-15852521D01*
X36424573Y-15615033D01*
X36533877Y-15351149D01*
X36589600Y-15071013D01*
X36589600Y-14785387D01*
X36533877Y-14505251D01*
X36424573Y-14241367D01*
X36265889Y-14003879D01*
X36063921Y-13801911D01*
X35826433Y-13643227D01*
X35783190Y-13625315D01*
X36796038Y-13625315D01*
X36948342Y-13820016D01*
X37241726Y-13935165D01*
X37551938Y-13990865D01*
X37867055Y-13984976D01*
X38174969Y-13917724D01*
X38410858Y-13820016D01*
X38563162Y-13625315D01*
X37679600Y-12741753D01*
X36796038Y-13625315D01*
X35783190Y-13625315D01*
X35562549Y-13533923D01*
X35282413Y-13478200D01*
X34996787Y-13478200D01*
X34716651Y-13533923D01*
X34452767Y-13643227D01*
X34215279Y-13801911D01*
X34013311Y-14003879D01*
X33854627Y-14241367D01*
X33745323Y-14505251D01*
X33689600Y-14785387D01*
X11002400Y-14785387D01*
X11002400Y-14464355D01*
X11841440Y-13625315D01*
X31716038Y-13625315D01*
X31868342Y-13820016D01*
X32161726Y-13935165D01*
X32471938Y-13990865D01*
X32787055Y-13984976D01*
X33094969Y-13917724D01*
X33330858Y-13820016D01*
X33483162Y-13625315D01*
X32599600Y-12741753D01*
X31716038Y-13625315D01*
X11841440Y-13625315D01*
X12161196Y-13305560D01*
X13319226Y-13305560D01*
X13341320Y-13307736D01*
X13363414Y-13305560D01*
X13363425Y-13305560D01*
X13429535Y-13299049D01*
X13514361Y-13273317D01*
X13592536Y-13231531D01*
X13661057Y-13175297D01*
X13675148Y-13158127D01*
X14055372Y-12777904D01*
X14072537Y-12763817D01*
X14086624Y-12746652D01*
X14086628Y-12746648D01*
X14128771Y-12695297D01*
X14170557Y-12617121D01*
X14174433Y-12604344D01*
X14196289Y-12532295D01*
X14202800Y-12466185D01*
X14202800Y-12466174D01*
X14204976Y-12444080D01*
X14202800Y-12421986D01*
X14202800Y-12260538D01*
X30996935Y-12260538D01*
X31002824Y-12575655D01*
X31070076Y-12883569D01*
X31167784Y-13119458D01*
X31362485Y-13271762D01*
X32246047Y-12388200D01*
X32953153Y-12388200D01*
X33836715Y-13271762D01*
X34031416Y-13119458D01*
X34146565Y-12826074D01*
X34202265Y-12515862D01*
X34197494Y-12260538D01*
X36076935Y-12260538D01*
X36082824Y-12575655D01*
X36150076Y-12883569D01*
X36247784Y-13119458D01*
X36442485Y-13271762D01*
X37326047Y-12388200D01*
X38033153Y-12388200D01*
X38916715Y-13271762D01*
X39111416Y-13119458D01*
X39226565Y-12826074D01*
X39282265Y-12515862D01*
X39276376Y-12200745D01*
X39209124Y-11892831D01*
X39111416Y-11656942D01*
X38916715Y-11504638D01*
X38033153Y-12388200D01*
X37326047Y-12388200D01*
X36442485Y-11504638D01*
X36247784Y-11656942D01*
X36132635Y-11950326D01*
X36076935Y-12260538D01*
X34197494Y-12260538D01*
X34196376Y-12200745D01*
X34129124Y-11892831D01*
X34031416Y-11656942D01*
X33836715Y-11504638D01*
X32953153Y-12388200D01*
X32246047Y-12388200D01*
X31362485Y-11504638D01*
X31167784Y-11656942D01*
X31052635Y-11950326D01*
X30996935Y-12260538D01*
X14202800Y-12260538D01*
X14202800Y-10863475D01*
X15072127Y-11732803D01*
X15086214Y-11749968D01*
X15103379Y-11764055D01*
X15103383Y-11764059D01*
X15154734Y-11806202D01*
X15232910Y-11847988D01*
X15317736Y-11873720D01*
X15383846Y-11880231D01*
X15383857Y-11880231D01*
X15405951Y-11882407D01*
X15428045Y-11880231D01*
X20058261Y-11880231D01*
X20074311Y-11896281D01*
X20172582Y-11961944D01*
X20281775Y-12007173D01*
X20397694Y-12030231D01*
X20515884Y-12030231D01*
X20631803Y-12007173D01*
X20740996Y-11961944D01*
X20839267Y-11896281D01*
X20922839Y-11812709D01*
X20988502Y-11714438D01*
X21033731Y-11605245D01*
X21056789Y-11489326D01*
X21056789Y-11371136D01*
X21033731Y-11255217D01*
X21032631Y-11252562D01*
X21055054Y-11248102D01*
X21164247Y-11202873D01*
X21241752Y-11151085D01*
X31716038Y-11151085D01*
X32599600Y-12034647D01*
X33483162Y-11151085D01*
X36796038Y-11151085D01*
X37679600Y-12034647D01*
X38563162Y-11151085D01*
X38410858Y-10956384D01*
X38117474Y-10841235D01*
X37807262Y-10785535D01*
X37492145Y-10791424D01*
X37184231Y-10858676D01*
X36948342Y-10956384D01*
X36796038Y-11151085D01*
X33483162Y-11151085D01*
X33330858Y-10956384D01*
X33037474Y-10841235D01*
X32727262Y-10785535D01*
X32412145Y-10791424D01*
X32104231Y-10858676D01*
X31868342Y-10956384D01*
X31716038Y-11151085D01*
X21241752Y-11151085D01*
X21262518Y-11137210D01*
X21346090Y-11053638D01*
X21411753Y-10955367D01*
X21456982Y-10846174D01*
X21480040Y-10730255D01*
X21480040Y-10612065D01*
X21456982Y-10496146D01*
X21411753Y-10386953D01*
X21346090Y-10288682D01*
X21262518Y-10205110D01*
X21164247Y-10139447D01*
X21055054Y-10094218D01*
X20939135Y-10071160D01*
X20916435Y-10071160D01*
X20913874Y-10068599D01*
X20913869Y-10068593D01*
X20492507Y-9647232D01*
X20478417Y-9630063D01*
X20409896Y-9573829D01*
X20331721Y-9532043D01*
X20246895Y-9506311D01*
X20180785Y-9499800D01*
X20180774Y-9499800D01*
X20158680Y-9497624D01*
X20136586Y-9499800D01*
X16281076Y-9499800D01*
X16036680Y-9255405D01*
X16036680Y-8378515D01*
X16319595Y-8095600D01*
X23818956Y-8095600D01*
X23841160Y-8321039D01*
X23906918Y-8537815D01*
X24013704Y-8737597D01*
X24157413Y-8912707D01*
X24332523Y-9056416D01*
X24532305Y-9163202D01*
X24749081Y-9228960D01*
X24918028Y-9245600D01*
X25031012Y-9245600D01*
X25199959Y-9228960D01*
X25416735Y-9163202D01*
X25616517Y-9056416D01*
X25791627Y-8912707D01*
X25935336Y-8737597D01*
X26042122Y-8537815D01*
X26107880Y-8321039D01*
X26130084Y-8095600D01*
X26358956Y-8095600D01*
X26381160Y-8321039D01*
X26446918Y-8537815D01*
X26553704Y-8737597D01*
X26697413Y-8912707D01*
X26872523Y-9056416D01*
X27072305Y-9163202D01*
X27289081Y-9228960D01*
X27458028Y-9245600D01*
X27571012Y-9245600D01*
X27739959Y-9228960D01*
X27956735Y-9163202D01*
X28156517Y-9056416D01*
X28331627Y-8912707D01*
X28475336Y-8737597D01*
X28582122Y-8537815D01*
X28647880Y-8321039D01*
X28670084Y-8095600D01*
X28898956Y-8095600D01*
X28921160Y-8321039D01*
X28986918Y-8537815D01*
X29093704Y-8737597D01*
X29237413Y-8912707D01*
X29412523Y-9056416D01*
X29612305Y-9163202D01*
X29829081Y-9228960D01*
X29998028Y-9245600D01*
X30111012Y-9245600D01*
X30279959Y-9228960D01*
X30496735Y-9163202D01*
X30696517Y-9056416D01*
X30871627Y-8912707D01*
X31015336Y-8737597D01*
X31122122Y-8537815D01*
X31187880Y-8321039D01*
X31210084Y-8095600D01*
X31187880Y-7870161D01*
X31180429Y-7845598D01*
X31394520Y-7845598D01*
X31394520Y-8345602D01*
X31508339Y-8345602D01*
X31474398Y-8526126D01*
X31579912Y-8736379D01*
X31724417Y-8922007D01*
X31902360Y-9075876D01*
X32106902Y-9192074D01*
X32163996Y-9215711D01*
X32344520Y-9179646D01*
X32344520Y-8345600D01*
X32324520Y-8345600D01*
X32324520Y-7845600D01*
X32344520Y-7845600D01*
X32344520Y-7011554D01*
X32844520Y-7011554D01*
X32844520Y-7845600D01*
X32864520Y-7845600D01*
X32864520Y-8345600D01*
X32844520Y-8345600D01*
X32844520Y-9179646D01*
X33025044Y-9215711D01*
X33082138Y-9192074D01*
X33286680Y-9075876D01*
X33464623Y-8922007D01*
X33609128Y-8736379D01*
X33714642Y-8526126D01*
X33680701Y-8345602D01*
X33794520Y-8345602D01*
X33794520Y-8095600D01*
X33978956Y-8095600D01*
X34001160Y-8321039D01*
X34066918Y-8537815D01*
X34173704Y-8737597D01*
X34317413Y-8912707D01*
X34492523Y-9056416D01*
X34692305Y-9163202D01*
X34909081Y-9228960D01*
X35078028Y-9245600D01*
X35191012Y-9245600D01*
X35359959Y-9228960D01*
X35576735Y-9163202D01*
X35776517Y-9056416D01*
X35951627Y-8912707D01*
X36095336Y-8737597D01*
X36202122Y-8537815D01*
X36267880Y-8321039D01*
X36290084Y-8095600D01*
X36267880Y-7870161D01*
X36202122Y-7653385D01*
X36095336Y-7453603D01*
X35951627Y-7278493D01*
X35911547Y-7245600D01*
X36523069Y-7245600D01*
X36523069Y-8945600D01*
X36528861Y-9004410D01*
X36546016Y-9060960D01*
X36573873Y-9113077D01*
X36611362Y-9158758D01*
X36657043Y-9196247D01*
X36709160Y-9224104D01*
X36765710Y-9241259D01*
X36824520Y-9247051D01*
X38524520Y-9247051D01*
X38583330Y-9241259D01*
X38639880Y-9224104D01*
X38691997Y-9196247D01*
X38737678Y-9158758D01*
X38775167Y-9113077D01*
X38803024Y-9060960D01*
X38820179Y-9004410D01*
X38825971Y-8945600D01*
X38825971Y-7245600D01*
X38820179Y-7186790D01*
X38803024Y-7130240D01*
X38775167Y-7078123D01*
X38737678Y-7032442D01*
X38691997Y-6994953D01*
X38639880Y-6967096D01*
X38583330Y-6949941D01*
X38524520Y-6944149D01*
X36824520Y-6944149D01*
X36765710Y-6949941D01*
X36709160Y-6967096D01*
X36657043Y-6994953D01*
X36611362Y-7032442D01*
X36573873Y-7078123D01*
X36546016Y-7130240D01*
X36528861Y-7186790D01*
X36523069Y-7245600D01*
X35911547Y-7245600D01*
X35776517Y-7134784D01*
X35576735Y-7027998D01*
X35359959Y-6962240D01*
X35191012Y-6945600D01*
X35078028Y-6945600D01*
X34909081Y-6962240D01*
X34692305Y-7027998D01*
X34492523Y-7134784D01*
X34317413Y-7278493D01*
X34173704Y-7453603D01*
X34066918Y-7653385D01*
X34001160Y-7870161D01*
X33978956Y-8095600D01*
X33794520Y-8095600D01*
X33794520Y-7845598D01*
X33680701Y-7845598D01*
X33714642Y-7665074D01*
X33609128Y-7454821D01*
X33464623Y-7269193D01*
X33286680Y-7115324D01*
X33082138Y-6999126D01*
X33025044Y-6975489D01*
X32844520Y-7011554D01*
X32344520Y-7011554D01*
X32163996Y-6975489D01*
X32106902Y-6999126D01*
X31902360Y-7115324D01*
X31724417Y-7269193D01*
X31579912Y-7454821D01*
X31474398Y-7665074D01*
X31508339Y-7845598D01*
X31394520Y-7845598D01*
X31180429Y-7845598D01*
X31122122Y-7653385D01*
X31015336Y-7453603D01*
X30871627Y-7278493D01*
X30696517Y-7134784D01*
X30496735Y-7027998D01*
X30279959Y-6962240D01*
X30111012Y-6945600D01*
X29998028Y-6945600D01*
X29829081Y-6962240D01*
X29612305Y-7027998D01*
X29412523Y-7134784D01*
X29237413Y-7278493D01*
X29093704Y-7453603D01*
X28986918Y-7653385D01*
X28921160Y-7870161D01*
X28898956Y-8095600D01*
X28670084Y-8095600D01*
X28647880Y-7870161D01*
X28582122Y-7653385D01*
X28475336Y-7453603D01*
X28331627Y-7278493D01*
X28156517Y-7134784D01*
X27956735Y-7027998D01*
X27739959Y-6962240D01*
X27571012Y-6945600D01*
X27458028Y-6945600D01*
X27289081Y-6962240D01*
X27072305Y-7027998D01*
X26872523Y-7134784D01*
X26697413Y-7278493D01*
X26553704Y-7453603D01*
X26446918Y-7653385D01*
X26381160Y-7870161D01*
X26358956Y-8095600D01*
X26130084Y-8095600D01*
X26107880Y-7870161D01*
X26042122Y-7653385D01*
X25935336Y-7453603D01*
X25791627Y-7278493D01*
X25616517Y-7134784D01*
X25416735Y-7027998D01*
X25199959Y-6962240D01*
X25031012Y-6945600D01*
X24918028Y-6945600D01*
X24749081Y-6962240D01*
X24532305Y-7027998D01*
X24332523Y-7134784D01*
X24157413Y-7278493D01*
X24013704Y-7453603D01*
X23906918Y-7653385D01*
X23841160Y-7870161D01*
X23818956Y-8095600D01*
X16319595Y-8095600D01*
X16839212Y-7575984D01*
X16856377Y-7561897D01*
X16870464Y-7544732D01*
X16870468Y-7544728D01*
X16912611Y-7493377D01*
X16954397Y-7415201D01*
X16980129Y-7330375D01*
X16986640Y-7264265D01*
X16986640Y-7264253D01*
X16988816Y-7242161D01*
X16986640Y-7220069D01*
X16986640Y-3855574D01*
X16988816Y-3833479D01*
X16986640Y-3811385D01*
X16986640Y-3811375D01*
X16980129Y-3745265D01*
X16954397Y-3660439D01*
X16927244Y-3609640D01*
X16912611Y-3582263D01*
X16870468Y-3530912D01*
X16870464Y-3530908D01*
X16856377Y-3513743D01*
X16839213Y-3499657D01*
X16704225Y-3364669D01*
X25650400Y-3364669D01*
X25650401Y-5498259D01*
X25650400Y-5498269D01*
X25650401Y-6527332D01*
X25659806Y-6622822D01*
X25696974Y-6745348D01*
X25757331Y-6858268D01*
X25838558Y-6957243D01*
X25937533Y-7038470D01*
X26050453Y-7098827D01*
X26172979Y-7135995D01*
X26300400Y-7148545D01*
X26427822Y-7135995D01*
X26550348Y-7098827D01*
X26663268Y-7038470D01*
X26762243Y-6957243D01*
X26843470Y-6858268D01*
X26903827Y-6745348D01*
X26940995Y-6622822D01*
X26950400Y-6527332D01*
X26950400Y-3364668D01*
X26940995Y-3269178D01*
X26903827Y-3146652D01*
X26843470Y-3033732D01*
X26762243Y-2934757D01*
X26663267Y-2853530D01*
X26550347Y-2793173D01*
X26427821Y-2756005D01*
X26300400Y-2743455D01*
X26172978Y-2756005D01*
X26050452Y-2793173D01*
X25937532Y-2853530D01*
X25838557Y-2934757D01*
X25757330Y-3033733D01*
X25696973Y-3146653D01*
X25659805Y-3269179D01*
X25650400Y-3364669D01*
X16704225Y-3364669D01*
X16149108Y-2809553D01*
X16135017Y-2792383D01*
X16066496Y-2736149D01*
X15988321Y-2694363D01*
X15903495Y-2668631D01*
X15837385Y-2662120D01*
X15837374Y-2662120D01*
X15815280Y-2659944D01*
X15793186Y-2662120D01*
X12032454Y-2662120D01*
X12010359Y-2659944D01*
X11988265Y-2662120D01*
X11988255Y-2662120D01*
X11922145Y-2668631D01*
X11837319Y-2694363D01*
X11759143Y-2736149D01*
X11707792Y-2778292D01*
X11707788Y-2778296D01*
X11690623Y-2792383D01*
X11676536Y-2809548D01*
X11037229Y-3448856D01*
X11020064Y-3462943D01*
X11005977Y-3480108D01*
X11005972Y-3480113D01*
X10963829Y-3531464D01*
X10922043Y-3609640D01*
X10896312Y-3694465D01*
X10887624Y-3782680D01*
X10889801Y-3804784D01*
X10889800Y-6554585D01*
X10887624Y-6576680D01*
X10889800Y-6598774D01*
X10889800Y-6598784D01*
X10896311Y-6664894D01*
X10910184Y-6710625D01*
X10922043Y-6749720D01*
X10963829Y-6827896D01*
X11005972Y-6879247D01*
X11020063Y-6896417D01*
X11037233Y-6910509D01*
X11532280Y-7405556D01*
X11532280Y-7428255D01*
X11555338Y-7544174D01*
X11600567Y-7653367D01*
X11666230Y-7751638D01*
X11749802Y-7835210D01*
X11848073Y-7900873D01*
X11957266Y-7946102D01*
X12073185Y-7969160D01*
X12191375Y-7969160D01*
X12307294Y-7946102D01*
X12416487Y-7900873D01*
X12514758Y-7835210D01*
X12598330Y-7751638D01*
X12663993Y-7653367D01*
X12709222Y-7544174D01*
X12732280Y-7428255D01*
X12732280Y-7310065D01*
X12709222Y-7194146D01*
X12663993Y-7084953D01*
X12598330Y-6986682D01*
X12514758Y-6903110D01*
X12416487Y-6837447D01*
X12307294Y-6792218D01*
X12191375Y-6769160D01*
X12168676Y-6769160D01*
X11789800Y-6390285D01*
X11789800Y-5843208D01*
X11810762Y-5864170D01*
X11909033Y-5929833D01*
X12018226Y-5975062D01*
X12134145Y-5998120D01*
X12252335Y-5998120D01*
X12368254Y-5975062D01*
X12477447Y-5929833D01*
X12575718Y-5864170D01*
X12659290Y-5780598D01*
X12724953Y-5682327D01*
X12770182Y-5573134D01*
X12793240Y-5457215D01*
X12793240Y-5339025D01*
X12770182Y-5223106D01*
X12724953Y-5113913D01*
X12669298Y-5030620D01*
X12707475Y-5030620D01*
X12823394Y-5007562D01*
X12932587Y-4962333D01*
X13030858Y-4896670D01*
X13084528Y-4843000D01*
X14766272Y-4843000D01*
X14698750Y-4910522D01*
X14633087Y-5008793D01*
X14587858Y-5117986D01*
X14564800Y-5233905D01*
X14564800Y-5256604D01*
X13450234Y-6371171D01*
X13433063Y-6385263D01*
X13418972Y-6402433D01*
X13376829Y-6453784D01*
X13358292Y-6488465D01*
X13335043Y-6531960D01*
X13309311Y-6616786D01*
X13302800Y-6682896D01*
X13302800Y-6682906D01*
X13300624Y-6705000D01*
X13302800Y-6727094D01*
X13302801Y-12257683D01*
X13154925Y-12405560D01*
X12456502Y-12405560D01*
X12563807Y-12361113D01*
X12662078Y-12295450D01*
X12745650Y-12211878D01*
X12811313Y-12113607D01*
X12856542Y-12004414D01*
X12879600Y-11888495D01*
X12879600Y-11770305D01*
X12856542Y-11654386D01*
X12811313Y-11545193D01*
X12745650Y-11446922D01*
X12662078Y-11363350D01*
X12563807Y-11297687D01*
X12454614Y-11252458D01*
X12398627Y-11241321D01*
X11902479Y-10745173D01*
X11891342Y-10689186D01*
X11846113Y-10579993D01*
X11780450Y-10481722D01*
X11696878Y-10398150D01*
X11598607Y-10332487D01*
X11489414Y-10287258D01*
X11373495Y-10264200D01*
X11255305Y-10264200D01*
X11139386Y-10287258D01*
X11030193Y-10332487D01*
X10931922Y-10398150D01*
X10848350Y-10481722D01*
X10782687Y-10579993D01*
X10737458Y-10689186D01*
X10714400Y-10805105D01*
X10714400Y-10923295D01*
X10737458Y-11039214D01*
X10782687Y-11148407D01*
X10848350Y-11246678D01*
X10931922Y-11330250D01*
X11030193Y-11395913D01*
X11139386Y-11441142D01*
X11195373Y-11452279D01*
X11691521Y-11948427D01*
X11702658Y-12004414D01*
X11747887Y-12113607D01*
X11813550Y-12211878D01*
X11897122Y-12295450D01*
X11995393Y-12361113D01*
X12102698Y-12405560D01*
X11996891Y-12405560D01*
X11974799Y-12403384D01*
X11952707Y-12405560D01*
X11952695Y-12405560D01*
X11886585Y-12412071D01*
X11801759Y-12437803D01*
X11723583Y-12479589D01*
X11672232Y-12521732D01*
X11672228Y-12521736D01*
X11655063Y-12535823D01*
X11640976Y-12552988D01*
X10249834Y-13944131D01*
X10232663Y-13958223D01*
X10218572Y-13975393D01*
X10176429Y-14026744D01*
X10134644Y-14104919D01*
X10134643Y-14104920D01*
X10108911Y-14189746D01*
X10102400Y-14255856D01*
X10102400Y-14255866D01*
X10100224Y-14277960D01*
X10102400Y-14300054D01*
X10102401Y-19240204D01*
X10049605Y-19293000D01*
X10026905Y-19293000D01*
X9910986Y-19316058D01*
X9801793Y-19361287D01*
X9703522Y-19426950D01*
X9619950Y-19510522D01*
X9554287Y-19608793D01*
X9509058Y-19717986D01*
X9486000Y-19833905D01*
X375000Y-19833905D01*
X375000Y-6710625D01*
X6706280Y-6710625D01*
X6706280Y-6828815D01*
X6729338Y-6944734D01*
X6774567Y-7053927D01*
X6840230Y-7152198D01*
X6923802Y-7235770D01*
X7022073Y-7301433D01*
X7131266Y-7346662D01*
X7187254Y-7357799D01*
X9324241Y-9494787D01*
X9335378Y-9550774D01*
X9380607Y-9659967D01*
X9446270Y-9758238D01*
X9529842Y-9841810D01*
X9628113Y-9907473D01*
X9737306Y-9952702D01*
X9853225Y-9975760D01*
X9971415Y-9975760D01*
X10087334Y-9952702D01*
X10196527Y-9907473D01*
X10294798Y-9841810D01*
X10378370Y-9758238D01*
X10444033Y-9659967D01*
X10489262Y-9550774D01*
X10512320Y-9434855D01*
X10512320Y-9316665D01*
X10489262Y-9200746D01*
X10444033Y-9091553D01*
X10378370Y-8993282D01*
X10294798Y-8909710D01*
X10196527Y-8844047D01*
X10087334Y-8798818D01*
X10031347Y-8787681D01*
X7894359Y-6650694D01*
X7883222Y-6594706D01*
X7837993Y-6485513D01*
X7772330Y-6387242D01*
X7688758Y-6303670D01*
X7590487Y-6238007D01*
X7481294Y-6192778D01*
X7365375Y-6169720D01*
X7247185Y-6169720D01*
X7131266Y-6192778D01*
X7022073Y-6238007D01*
X6923802Y-6303670D01*
X6840230Y-6387242D01*
X6774567Y-6485513D01*
X6729338Y-6594706D01*
X6706280Y-6710625D01*
X375000Y-6710625D01*
X375000Y-375000D01*
X39625001Y-375000D01*
X39625000Y-29625000D01*
X39625000Y-29625000D01*
G37*
X39625000Y-29625000D02*
X375000Y-29625000D01*
X375000Y-27371280D01*
X8953946Y-27371280D01*
X8960704Y-27439892D01*
X8980717Y-27505867D01*
X9013217Y-27566671D01*
X9056955Y-27619965D01*
X9110249Y-27663703D01*
X9171053Y-27696203D01*
X9237028Y-27716216D01*
X9305640Y-27722974D01*
X9468140Y-27721280D01*
X9555640Y-27633780D01*
X9555640Y-27121280D01*
X10055640Y-27121280D01*
X10055640Y-27633780D01*
X10143140Y-27721280D01*
X10305640Y-27722974D01*
X10374252Y-27716216D01*
X10440227Y-27696203D01*
X10501031Y-27663703D01*
X10554325Y-27619965D01*
X10598063Y-27566671D01*
X10630563Y-27505867D01*
X10650576Y-27439892D01*
X10657334Y-27371280D01*
X10655640Y-27208780D01*
X10568140Y-27121280D01*
X10055640Y-27121280D01*
X9555640Y-27121280D01*
X9043140Y-27121280D01*
X8955640Y-27208780D01*
X8953946Y-27371280D01*
X375000Y-27371280D01*
X375000Y-26371280D01*
X8953946Y-26371280D01*
X8955640Y-26533780D01*
X9043140Y-26621280D01*
X9555640Y-26621280D01*
X9555640Y-26108780D01*
X10055640Y-26108780D01*
X10055640Y-26621280D01*
X10568140Y-26621280D01*
X10655640Y-26533780D01*
X10657334Y-26371280D01*
X10650576Y-26302668D01*
X10630563Y-26236693D01*
X10598063Y-26175889D01*
X10554325Y-26122595D01*
X10501031Y-26078857D01*
X10440227Y-26046357D01*
X10374252Y-26026344D01*
X10305640Y-26019586D01*
X10143140Y-26021280D01*
X10055640Y-26108780D01*
X9555640Y-26108780D01*
X9468140Y-26021280D01*
X9305640Y-26019586D01*
X9237028Y-26026344D01*
X9171053Y-26046357D01*
X9110249Y-26078857D01*
X9056955Y-26122595D01*
X9013217Y-26175889D01*
X8980717Y-26236693D01*
X8960704Y-26302668D01*
X8953946Y-26371280D01*
X375000Y-26371280D01*
X375000Y-19833905D01*
X9486000Y-19833905D01*
X9486000Y-19952095D01*
X9509058Y-20068014D01*
X9554287Y-20177207D01*
X9619950Y-20275478D01*
X9703522Y-20359050D01*
X9801793Y-20424713D01*
X9910986Y-20469942D01*
X10026905Y-20493000D01*
X10145095Y-20493000D01*
X10261014Y-20469942D01*
X10370207Y-20424713D01*
X10468478Y-20359050D01*
X10552050Y-20275478D01*
X10617713Y-20177207D01*
X10662942Y-20068014D01*
X10686000Y-19952095D01*
X10686000Y-19929395D01*
X10854966Y-19760429D01*
X10872137Y-19746337D01*
X10928371Y-19677816D01*
X10970157Y-19599641D01*
X10995889Y-19514815D01*
X11000646Y-19466505D01*
X12187600Y-19466505D01*
X12187600Y-19584695D01*
X12210658Y-19700614D01*
X12255887Y-19809807D01*
X12321550Y-19908078D01*
X12405122Y-19991650D01*
X12503393Y-20057313D01*
X12612586Y-20102542D01*
X12668573Y-20113679D01*
X12751413Y-20196519D01*
X12751418Y-20196523D01*
X13776059Y-21221166D01*
X13776058Y-22993789D01*
X13744345Y-23041251D01*
X13699116Y-23150444D01*
X13676058Y-23266363D01*
X13676058Y-23384553D01*
X13699116Y-23500472D01*
X13744345Y-23609665D01*
X13810008Y-23707936D01*
X13893580Y-23791508D01*
X13991851Y-23857171D01*
X14101044Y-23902400D01*
X14157031Y-23913537D01*
X14622690Y-24379197D01*
X14638346Y-24398274D01*
X14714481Y-24460756D01*
X14801343Y-24507185D01*
X14895593Y-24535775D01*
X14993610Y-24545429D01*
X15018170Y-24543010D01*
X15808731Y-24543010D01*
X15856193Y-24574723D01*
X15965386Y-24619952D01*
X16081305Y-24643010D01*
X16199495Y-24643010D01*
X16315414Y-24619952D01*
X16424607Y-24574723D01*
X16522878Y-24509060D01*
X16606450Y-24425488D01*
X16672113Y-24327217D01*
X16717342Y-24218024D01*
X16740400Y-24102105D01*
X16740400Y-24013105D01*
X18893200Y-24013105D01*
X18893200Y-24131295D01*
X18916258Y-24247214D01*
X18961487Y-24356407D01*
X19027150Y-24454678D01*
X19110722Y-24538250D01*
X19208993Y-24603913D01*
X19318186Y-24649142D01*
X19434105Y-24672200D01*
X19552295Y-24672200D01*
X19668214Y-24649142D01*
X19777407Y-24603913D01*
X19875678Y-24538250D01*
X19959250Y-24454678D01*
X20024913Y-24356407D01*
X20070142Y-24247214D01*
X20081279Y-24191227D01*
X21024628Y-23247878D01*
X21080614Y-23236742D01*
X21189807Y-23191513D01*
X21288078Y-23125850D01*
X21371650Y-23042278D01*
X21437313Y-22944007D01*
X21482542Y-22834814D01*
X21505600Y-22718895D01*
X21505600Y-22600705D01*
X21482542Y-22484786D01*
X21437313Y-22375593D01*
X21371650Y-22277322D01*
X21288078Y-22193750D01*
X21189807Y-22128087D01*
X21080614Y-22082858D01*
X20964695Y-22059800D01*
X20846505Y-22059800D01*
X20730586Y-22082858D01*
X20621393Y-22128087D01*
X20523122Y-22193750D01*
X20439550Y-22277322D01*
X20373887Y-22375593D01*
X20328658Y-22484786D01*
X20317522Y-22540772D01*
X19374173Y-23484121D01*
X19318186Y-23495258D01*
X19208993Y-23540487D01*
X19110722Y-23606150D01*
X19027150Y-23689722D01*
X18961487Y-23787993D01*
X18916258Y-23897186D01*
X18893200Y-24013105D01*
X16740400Y-24013105D01*
X16740400Y-23983915D01*
X16717342Y-23867996D01*
X16672113Y-23758803D01*
X16606450Y-23660532D01*
X16522878Y-23576960D01*
X16424607Y-23511297D01*
X16315414Y-23466068D01*
X16199495Y-23443010D01*
X16081305Y-23443010D01*
X15965386Y-23466068D01*
X15856193Y-23511297D01*
X15808731Y-23543010D01*
X15200717Y-23543010D01*
X14864137Y-23206431D01*
X14853000Y-23150444D01*
X14807771Y-23041251D01*
X14776058Y-22993789D01*
X14776058Y-22612831D01*
X14847786Y-22642542D01*
X14963705Y-22665600D01*
X15081895Y-22665600D01*
X15197814Y-22642542D01*
X15307007Y-22597313D01*
X15405278Y-22531650D01*
X15488850Y-22448078D01*
X15554513Y-22349807D01*
X15599742Y-22240614D01*
X15622800Y-22124695D01*
X15622800Y-22006505D01*
X15599742Y-21890586D01*
X15554513Y-21781393D01*
X15488850Y-21683122D01*
X15447800Y-21642072D01*
X15447800Y-20943467D01*
X15449855Y-20922600D01*
X15447800Y-20901733D01*
X15447800Y-20901726D01*
X15441650Y-20839286D01*
X15417348Y-20759173D01*
X15377884Y-20685340D01*
X15324774Y-20620626D01*
X15308562Y-20607321D01*
X14544340Y-19843100D01*
X15682125Y-18705315D01*
X31716038Y-18705315D01*
X31868342Y-18900016D01*
X32161726Y-19015165D01*
X32471938Y-19070865D01*
X32787055Y-19064976D01*
X33094969Y-18997724D01*
X33330858Y-18900016D01*
X33483162Y-18705315D01*
X36796038Y-18705315D01*
X36948342Y-18900016D01*
X37241726Y-19015165D01*
X37551938Y-19070865D01*
X37867055Y-19064976D01*
X38174969Y-18997724D01*
X38410858Y-18900016D01*
X38563162Y-18705315D01*
X37679600Y-17821753D01*
X36796038Y-18705315D01*
X33483162Y-18705315D01*
X32599600Y-17821753D01*
X31716038Y-18705315D01*
X15682125Y-18705315D01*
X16214841Y-18172600D01*
X20187272Y-18172600D01*
X20228322Y-18213650D01*
X20326593Y-18279313D01*
X20435786Y-18324542D01*
X20551705Y-18347600D01*
X20669895Y-18347600D01*
X20785814Y-18324542D01*
X20895007Y-18279313D01*
X20993278Y-18213650D01*
X21076850Y-18130078D01*
X21142513Y-18031807D01*
X21187742Y-17922614D01*
X21210800Y-17806695D01*
X21210800Y-17688505D01*
X21187742Y-17572586D01*
X21142513Y-17463393D01*
X21076850Y-17365122D01*
X21052266Y-17340538D01*
X30996935Y-17340538D01*
X31002824Y-17655655D01*
X31070076Y-17963569D01*
X31167784Y-18199458D01*
X31362485Y-18351762D01*
X32246047Y-17468200D01*
X32953153Y-17468200D01*
X33836715Y-18351762D01*
X34031416Y-18199458D01*
X34146565Y-17906074D01*
X34202265Y-17595862D01*
X34197494Y-17340538D01*
X36076935Y-17340538D01*
X36082824Y-17655655D01*
X36150076Y-17963569D01*
X36247784Y-18199458D01*
X36442485Y-18351762D01*
X37326047Y-17468200D01*
X38033153Y-17468200D01*
X38916715Y-18351762D01*
X39111416Y-18199458D01*
X39226565Y-17906074D01*
X39282265Y-17595862D01*
X39276376Y-17280745D01*
X39209124Y-16972831D01*
X39111416Y-16736942D01*
X38916715Y-16584638D01*
X38033153Y-17468200D01*
X37326047Y-17468200D01*
X36442485Y-16584638D01*
X36247784Y-16736942D01*
X36132635Y-17030326D01*
X36076935Y-17340538D01*
X34197494Y-17340538D01*
X34196376Y-17280745D01*
X34129124Y-16972831D01*
X34031416Y-16736942D01*
X33836715Y-16584638D01*
X32953153Y-17468200D01*
X32246047Y-17468200D01*
X31362485Y-16584638D01*
X31167784Y-16736942D01*
X31052635Y-17030326D01*
X30996935Y-17340538D01*
X21052266Y-17340538D01*
X20993278Y-17281550D01*
X20895007Y-17215887D01*
X20785814Y-17170658D01*
X20669895Y-17147600D01*
X20551705Y-17147600D01*
X20497183Y-17158445D01*
X20499600Y-17146295D01*
X20499600Y-17028105D01*
X20476542Y-16912186D01*
X20431313Y-16802993D01*
X20399600Y-16755531D01*
X20399600Y-16687493D01*
X20402019Y-16662935D01*
X20397903Y-16621150D01*
X20392365Y-16564920D01*
X20363775Y-16470669D01*
X20317346Y-16383807D01*
X20254864Y-16307672D01*
X20235776Y-16292007D01*
X20135169Y-16191400D01*
X21584272Y-16191400D01*
X21625322Y-16232450D01*
X21723593Y-16298113D01*
X21832786Y-16343342D01*
X21948705Y-16366400D01*
X22066895Y-16366400D01*
X22182814Y-16343342D01*
X22292007Y-16298113D01*
X22390278Y-16232450D01*
X22391643Y-16231085D01*
X31716038Y-16231085D01*
X32599600Y-17114647D01*
X33483162Y-16231085D01*
X33330858Y-16036384D01*
X33037474Y-15921235D01*
X32727262Y-15865535D01*
X32412145Y-15871424D01*
X32104231Y-15938676D01*
X31868342Y-16036384D01*
X31716038Y-16231085D01*
X22391643Y-16231085D01*
X22473850Y-16148878D01*
X22539513Y-16050607D01*
X22584742Y-15941414D01*
X22607800Y-15825495D01*
X22607800Y-15707305D01*
X22584742Y-15591386D01*
X22539513Y-15482193D01*
X22473850Y-15383922D01*
X22390278Y-15300350D01*
X22292007Y-15234687D01*
X22182814Y-15189458D01*
X22066895Y-15166400D01*
X21948705Y-15166400D01*
X21832786Y-15189458D01*
X21723593Y-15234687D01*
X21625322Y-15300350D01*
X21584272Y-15341400D01*
X15856474Y-15341400D01*
X15835600Y-15339344D01*
X15814726Y-15341400D01*
X15752286Y-15347550D01*
X15672173Y-15371852D01*
X15598340Y-15411316D01*
X15533626Y-15464426D01*
X15520316Y-15480644D01*
X13142160Y-17858800D01*
X13084105Y-17858800D01*
X12968186Y-17881858D01*
X12858993Y-17927087D01*
X12760722Y-17992750D01*
X12677150Y-18076322D01*
X12611487Y-18174593D01*
X12566258Y-18283786D01*
X12543200Y-18399705D01*
X12543200Y-18517895D01*
X12566258Y-18633814D01*
X12611487Y-18743007D01*
X12677150Y-18841278D01*
X12760722Y-18924850D01*
X12761844Y-18925600D01*
X12728505Y-18925600D01*
X12612586Y-18948658D01*
X12503393Y-18993887D01*
X12405122Y-19059550D01*
X12321550Y-19143122D01*
X12255887Y-19241393D01*
X12210658Y-19350586D01*
X12187600Y-19466505D01*
X11000646Y-19466505D01*
X11002400Y-19448705D01*
X11002400Y-19448694D01*
X11004576Y-19426600D01*
X11002400Y-19404506D01*
X11002400Y-14785387D01*
X33689600Y-14785387D01*
X33689600Y-15071013D01*
X33745323Y-15351149D01*
X33854627Y-15615033D01*
X34013311Y-15852521D01*
X34215279Y-16054489D01*
X34452767Y-16213173D01*
X34716651Y-16322477D01*
X34996787Y-16378200D01*
X35282413Y-16378200D01*
X35562549Y-16322477D01*
X35783189Y-16231085D01*
X36796038Y-16231085D01*
X37679600Y-17114647D01*
X38563162Y-16231085D01*
X38410858Y-16036384D01*
X38117474Y-15921235D01*
X37807262Y-15865535D01*
X37492145Y-15871424D01*
X37184231Y-15938676D01*
X36948342Y-16036384D01*
X36796038Y-16231085D01*
X35783189Y-16231085D01*
X35826433Y-16213173D01*
X36063921Y-16054489D01*
X36265889Y-15852521D01*
X36424573Y-15615033D01*
X36533877Y-15351149D01*
X36589600Y-15071013D01*
X36589600Y-14785387D01*
X36533877Y-14505251D01*
X36424573Y-14241367D01*
X36265889Y-14003879D01*
X36063921Y-13801911D01*
X35826433Y-13643227D01*
X35783190Y-13625315D01*
X36796038Y-13625315D01*
X36948342Y-13820016D01*
X37241726Y-13935165D01*
X37551938Y-13990865D01*
X37867055Y-13984976D01*
X38174969Y-13917724D01*
X38410858Y-13820016D01*
X38563162Y-13625315D01*
X37679600Y-12741753D01*
X36796038Y-13625315D01*
X35783190Y-13625315D01*
X35562549Y-13533923D01*
X35282413Y-13478200D01*
X34996787Y-13478200D01*
X34716651Y-13533923D01*
X34452767Y-13643227D01*
X34215279Y-13801911D01*
X34013311Y-14003879D01*
X33854627Y-14241367D01*
X33745323Y-14505251D01*
X33689600Y-14785387D01*
X11002400Y-14785387D01*
X11002400Y-14464355D01*
X11841440Y-13625315D01*
X31716038Y-13625315D01*
X31868342Y-13820016D01*
X32161726Y-13935165D01*
X32471938Y-13990865D01*
X32787055Y-13984976D01*
X33094969Y-13917724D01*
X33330858Y-13820016D01*
X33483162Y-13625315D01*
X32599600Y-12741753D01*
X31716038Y-13625315D01*
X11841440Y-13625315D01*
X12161196Y-13305560D01*
X13319226Y-13305560D01*
X13341320Y-13307736D01*
X13363414Y-13305560D01*
X13363425Y-13305560D01*
X13429535Y-13299049D01*
X13514361Y-13273317D01*
X13592536Y-13231531D01*
X13661057Y-13175297D01*
X13675148Y-13158127D01*
X14055372Y-12777904D01*
X14072537Y-12763817D01*
X14086624Y-12746652D01*
X14086628Y-12746648D01*
X14128771Y-12695297D01*
X14170557Y-12617121D01*
X14174433Y-12604344D01*
X14196289Y-12532295D01*
X14202800Y-12466185D01*
X14202800Y-12466174D01*
X14204976Y-12444080D01*
X14202800Y-12421986D01*
X14202800Y-12260538D01*
X30996935Y-12260538D01*
X31002824Y-12575655D01*
X31070076Y-12883569D01*
X31167784Y-13119458D01*
X31362485Y-13271762D01*
X32246047Y-12388200D01*
X32953153Y-12388200D01*
X33836715Y-13271762D01*
X34031416Y-13119458D01*
X34146565Y-12826074D01*
X34202265Y-12515862D01*
X34197494Y-12260538D01*
X36076935Y-12260538D01*
X36082824Y-12575655D01*
X36150076Y-12883569D01*
X36247784Y-13119458D01*
X36442485Y-13271762D01*
X37326047Y-12388200D01*
X38033153Y-12388200D01*
X38916715Y-13271762D01*
X39111416Y-13119458D01*
X39226565Y-12826074D01*
X39282265Y-12515862D01*
X39276376Y-12200745D01*
X39209124Y-11892831D01*
X39111416Y-11656942D01*
X38916715Y-11504638D01*
X38033153Y-12388200D01*
X37326047Y-12388200D01*
X36442485Y-11504638D01*
X36247784Y-11656942D01*
X36132635Y-11950326D01*
X36076935Y-12260538D01*
X34197494Y-12260538D01*
X34196376Y-12200745D01*
X34129124Y-11892831D01*
X34031416Y-11656942D01*
X33836715Y-11504638D01*
X32953153Y-12388200D01*
X32246047Y-12388200D01*
X31362485Y-11504638D01*
X31167784Y-11656942D01*
X31052635Y-11950326D01*
X30996935Y-12260538D01*
X14202800Y-12260538D01*
X14202800Y-10863475D01*
X15072127Y-11732803D01*
X15086214Y-11749968D01*
X15103379Y-11764055D01*
X15103383Y-11764059D01*
X15154734Y-11806202D01*
X15232910Y-11847988D01*
X15317736Y-11873720D01*
X15383846Y-11880231D01*
X15383857Y-11880231D01*
X15405951Y-11882407D01*
X15428045Y-11880231D01*
X20058261Y-11880231D01*
X20074311Y-11896281D01*
X20172582Y-11961944D01*
X20281775Y-12007173D01*
X20397694Y-12030231D01*
X20515884Y-12030231D01*
X20631803Y-12007173D01*
X20740996Y-11961944D01*
X20839267Y-11896281D01*
X20922839Y-11812709D01*
X20988502Y-11714438D01*
X21033731Y-11605245D01*
X21056789Y-11489326D01*
X21056789Y-11371136D01*
X21033731Y-11255217D01*
X21032631Y-11252562D01*
X21055054Y-11248102D01*
X21164247Y-11202873D01*
X21241752Y-11151085D01*
X31716038Y-11151085D01*
X32599600Y-12034647D01*
X33483162Y-11151085D01*
X36796038Y-11151085D01*
X37679600Y-12034647D01*
X38563162Y-11151085D01*
X38410858Y-10956384D01*
X38117474Y-10841235D01*
X37807262Y-10785535D01*
X37492145Y-10791424D01*
X37184231Y-10858676D01*
X36948342Y-10956384D01*
X36796038Y-11151085D01*
X33483162Y-11151085D01*
X33330858Y-10956384D01*
X33037474Y-10841235D01*
X32727262Y-10785535D01*
X32412145Y-10791424D01*
X32104231Y-10858676D01*
X31868342Y-10956384D01*
X31716038Y-11151085D01*
X21241752Y-11151085D01*
X21262518Y-11137210D01*
X21346090Y-11053638D01*
X21411753Y-10955367D01*
X21456982Y-10846174D01*
X21480040Y-10730255D01*
X21480040Y-10612065D01*
X21456982Y-10496146D01*
X21411753Y-10386953D01*
X21346090Y-10288682D01*
X21262518Y-10205110D01*
X21164247Y-10139447D01*
X21055054Y-10094218D01*
X20939135Y-10071160D01*
X20916435Y-10071160D01*
X20913874Y-10068599D01*
X20913869Y-10068593D01*
X20492507Y-9647232D01*
X20478417Y-9630063D01*
X20409896Y-9573829D01*
X20331721Y-9532043D01*
X20246895Y-9506311D01*
X20180785Y-9499800D01*
X20180774Y-9499800D01*
X20158680Y-9497624D01*
X20136586Y-9499800D01*
X16281076Y-9499800D01*
X16036680Y-9255405D01*
X16036680Y-8378515D01*
X16319595Y-8095600D01*
X23818956Y-8095600D01*
X23841160Y-8321039D01*
X23906918Y-8537815D01*
X24013704Y-8737597D01*
X24157413Y-8912707D01*
X24332523Y-9056416D01*
X24532305Y-9163202D01*
X24749081Y-9228960D01*
X24918028Y-9245600D01*
X25031012Y-9245600D01*
X25199959Y-9228960D01*
X25416735Y-9163202D01*
X25616517Y-9056416D01*
X25791627Y-8912707D01*
X25935336Y-8737597D01*
X26042122Y-8537815D01*
X26107880Y-8321039D01*
X26130084Y-8095600D01*
X26358956Y-8095600D01*
X26381160Y-8321039D01*
X26446918Y-8537815D01*
X26553704Y-8737597D01*
X26697413Y-8912707D01*
X26872523Y-9056416D01*
X27072305Y-9163202D01*
X27289081Y-9228960D01*
X27458028Y-9245600D01*
X27571012Y-9245600D01*
X27739959Y-9228960D01*
X27956735Y-9163202D01*
X28156517Y-9056416D01*
X28331627Y-8912707D01*
X28475336Y-8737597D01*
X28582122Y-8537815D01*
X28647880Y-8321039D01*
X28670084Y-8095600D01*
X28898956Y-8095600D01*
X28921160Y-8321039D01*
X28986918Y-8537815D01*
X29093704Y-8737597D01*
X29237413Y-8912707D01*
X29412523Y-9056416D01*
X29612305Y-9163202D01*
X29829081Y-9228960D01*
X29998028Y-9245600D01*
X30111012Y-9245600D01*
X30279959Y-9228960D01*
X30496735Y-9163202D01*
X30696517Y-9056416D01*
X30871627Y-8912707D01*
X31015336Y-8737597D01*
X31122122Y-8537815D01*
X31187880Y-8321039D01*
X31210084Y-8095600D01*
X31187880Y-7870161D01*
X31180429Y-7845598D01*
X31394520Y-7845598D01*
X31394520Y-8345602D01*
X31508339Y-8345602D01*
X31474398Y-8526126D01*
X31579912Y-8736379D01*
X31724417Y-8922007D01*
X31902360Y-9075876D01*
X32106902Y-9192074D01*
X32163996Y-9215711D01*
X32344520Y-9179646D01*
X32344520Y-8345600D01*
X32324520Y-8345600D01*
X32324520Y-7845600D01*
X32344520Y-7845600D01*
X32344520Y-7011554D01*
X32844520Y-7011554D01*
X32844520Y-7845600D01*
X32864520Y-7845600D01*
X32864520Y-8345600D01*
X32844520Y-8345600D01*
X32844520Y-9179646D01*
X33025044Y-9215711D01*
X33082138Y-9192074D01*
X33286680Y-9075876D01*
X33464623Y-8922007D01*
X33609128Y-8736379D01*
X33714642Y-8526126D01*
X33680701Y-8345602D01*
X33794520Y-8345602D01*
X33794520Y-8095600D01*
X33978956Y-8095600D01*
X34001160Y-8321039D01*
X34066918Y-8537815D01*
X34173704Y-8737597D01*
X34317413Y-8912707D01*
X34492523Y-9056416D01*
X34692305Y-9163202D01*
X34909081Y-9228960D01*
X35078028Y-9245600D01*
X35191012Y-9245600D01*
X35359959Y-9228960D01*
X35576735Y-9163202D01*
X35776517Y-9056416D01*
X35951627Y-8912707D01*
X36095336Y-8737597D01*
X36202122Y-8537815D01*
X36267880Y-8321039D01*
X36290084Y-8095600D01*
X36267880Y-7870161D01*
X36202122Y-7653385D01*
X36095336Y-7453603D01*
X35951627Y-7278493D01*
X35911547Y-7245600D01*
X36523069Y-7245600D01*
X36523069Y-8945600D01*
X36528861Y-9004410D01*
X36546016Y-9060960D01*
X36573873Y-9113077D01*
X36611362Y-9158758D01*
X36657043Y-9196247D01*
X36709160Y-9224104D01*
X36765710Y-9241259D01*
X36824520Y-9247051D01*
X38524520Y-9247051D01*
X38583330Y-9241259D01*
X38639880Y-9224104D01*
X38691997Y-9196247D01*
X38737678Y-9158758D01*
X38775167Y-9113077D01*
X38803024Y-9060960D01*
X38820179Y-9004410D01*
X38825971Y-8945600D01*
X38825971Y-7245600D01*
X38820179Y-7186790D01*
X38803024Y-7130240D01*
X38775167Y-7078123D01*
X38737678Y-7032442D01*
X38691997Y-6994953D01*
X38639880Y-6967096D01*
X38583330Y-6949941D01*
X38524520Y-6944149D01*
X36824520Y-6944149D01*
X36765710Y-6949941D01*
X36709160Y-6967096D01*
X36657043Y-6994953D01*
X36611362Y-7032442D01*
X36573873Y-7078123D01*
X36546016Y-7130240D01*
X36528861Y-7186790D01*
X36523069Y-7245600D01*
X35911547Y-7245600D01*
X35776517Y-7134784D01*
X35576735Y-7027998D01*
X35359959Y-6962240D01*
X35191012Y-6945600D01*
X35078028Y-6945600D01*
X34909081Y-6962240D01*
X34692305Y-7027998D01*
X34492523Y-7134784D01*
X34317413Y-7278493D01*
X34173704Y-7453603D01*
X34066918Y-7653385D01*
X34001160Y-7870161D01*
X33978956Y-8095600D01*
X33794520Y-8095600D01*
X33794520Y-7845598D01*
X33680701Y-7845598D01*
X33714642Y-7665074D01*
X33609128Y-7454821D01*
X33464623Y-7269193D01*
X33286680Y-7115324D01*
X33082138Y-6999126D01*
X33025044Y-6975489D01*
X32844520Y-7011554D01*
X32344520Y-7011554D01*
X32163996Y-6975489D01*
X32106902Y-6999126D01*
X31902360Y-7115324D01*
X31724417Y-7269193D01*
X31579912Y-7454821D01*
X31474398Y-7665074D01*
X31508339Y-7845598D01*
X31394520Y-7845598D01*
X31180429Y-7845598D01*
X31122122Y-7653385D01*
X31015336Y-7453603D01*
X30871627Y-7278493D01*
X30696517Y-7134784D01*
X30496735Y-7027998D01*
X30279959Y-6962240D01*
X30111012Y-6945600D01*
X29998028Y-6945600D01*
X29829081Y-6962240D01*
X29612305Y-7027998D01*
X29412523Y-7134784D01*
X29237413Y-7278493D01*
X29093704Y-7453603D01*
X28986918Y-7653385D01*
X28921160Y-7870161D01*
X28898956Y-8095600D01*
X28670084Y-8095600D01*
X28647880Y-7870161D01*
X28582122Y-7653385D01*
X28475336Y-7453603D01*
X28331627Y-7278493D01*
X28156517Y-7134784D01*
X27956735Y-7027998D01*
X27739959Y-6962240D01*
X27571012Y-6945600D01*
X27458028Y-6945600D01*
X27289081Y-6962240D01*
X27072305Y-7027998D01*
X26872523Y-7134784D01*
X26697413Y-7278493D01*
X26553704Y-7453603D01*
X26446918Y-7653385D01*
X26381160Y-7870161D01*
X26358956Y-8095600D01*
X26130084Y-8095600D01*
X26107880Y-7870161D01*
X26042122Y-7653385D01*
X25935336Y-7453603D01*
X25791627Y-7278493D01*
X25616517Y-7134784D01*
X25416735Y-7027998D01*
X25199959Y-6962240D01*
X25031012Y-6945600D01*
X24918028Y-6945600D01*
X24749081Y-6962240D01*
X24532305Y-7027998D01*
X24332523Y-7134784D01*
X24157413Y-7278493D01*
X24013704Y-7453603D01*
X23906918Y-7653385D01*
X23841160Y-7870161D01*
X23818956Y-8095600D01*
X16319595Y-8095600D01*
X16839212Y-7575984D01*
X16856377Y-7561897D01*
X16870464Y-7544732D01*
X16870468Y-7544728D01*
X16912611Y-7493377D01*
X16954397Y-7415201D01*
X16980129Y-7330375D01*
X16986640Y-7264265D01*
X16986640Y-7264253D01*
X16988816Y-7242161D01*
X16986640Y-7220069D01*
X16986640Y-3855574D01*
X16988816Y-3833479D01*
X16986640Y-3811385D01*
X16986640Y-3811375D01*
X16980129Y-3745265D01*
X16954397Y-3660439D01*
X16927244Y-3609640D01*
X16912611Y-3582263D01*
X16870468Y-3530912D01*
X16870464Y-3530908D01*
X16856377Y-3513743D01*
X16839213Y-3499657D01*
X16704225Y-3364669D01*
X25650400Y-3364669D01*
X25650401Y-5498259D01*
X25650400Y-5498269D01*
X25650401Y-6527332D01*
X25659806Y-6622822D01*
X25696974Y-6745348D01*
X25757331Y-6858268D01*
X25838558Y-6957243D01*
X25937533Y-7038470D01*
X26050453Y-7098827D01*
X26172979Y-7135995D01*
X26300400Y-7148545D01*
X26427822Y-7135995D01*
X26550348Y-7098827D01*
X26663268Y-7038470D01*
X26762243Y-6957243D01*
X26843470Y-6858268D01*
X26903827Y-6745348D01*
X26940995Y-6622822D01*
X26950400Y-6527332D01*
X26950400Y-3364668D01*
X26940995Y-3269178D01*
X26903827Y-3146652D01*
X26843470Y-3033732D01*
X26762243Y-2934757D01*
X26663267Y-2853530D01*
X26550347Y-2793173D01*
X26427821Y-2756005D01*
X26300400Y-2743455D01*
X26172978Y-2756005D01*
X26050452Y-2793173D01*
X25937532Y-2853530D01*
X25838557Y-2934757D01*
X25757330Y-3033733D01*
X25696973Y-3146653D01*
X25659805Y-3269179D01*
X25650400Y-3364669D01*
X16704225Y-3364669D01*
X16149108Y-2809553D01*
X16135017Y-2792383D01*
X16066496Y-2736149D01*
X15988321Y-2694363D01*
X15903495Y-2668631D01*
X15837385Y-2662120D01*
X15837374Y-2662120D01*
X15815280Y-2659944D01*
X15793186Y-2662120D01*
X12032454Y-2662120D01*
X12010359Y-2659944D01*
X11988265Y-2662120D01*
X11988255Y-2662120D01*
X11922145Y-2668631D01*
X11837319Y-2694363D01*
X11759143Y-2736149D01*
X11707792Y-2778292D01*
X11707788Y-2778296D01*
X11690623Y-2792383D01*
X11676536Y-2809548D01*
X11037229Y-3448856D01*
X11020064Y-3462943D01*
X11005977Y-3480108D01*
X11005972Y-3480113D01*
X10963829Y-3531464D01*
X10922043Y-3609640D01*
X10896312Y-3694465D01*
X10887624Y-3782680D01*
X10889801Y-3804784D01*
X10889800Y-6554585D01*
X10887624Y-6576680D01*
X10889800Y-6598774D01*
X10889800Y-6598784D01*
X10896311Y-6664894D01*
X10910184Y-6710625D01*
X10922043Y-6749720D01*
X10963829Y-6827896D01*
X11005972Y-6879247D01*
X11020063Y-6896417D01*
X11037233Y-6910509D01*
X11532280Y-7405556D01*
X11532280Y-7428255D01*
X11555338Y-7544174D01*
X11600567Y-7653367D01*
X11666230Y-7751638D01*
X11749802Y-7835210D01*
X11848073Y-7900873D01*
X11957266Y-7946102D01*
X12073185Y-7969160D01*
X12191375Y-7969160D01*
X12307294Y-7946102D01*
X12416487Y-7900873D01*
X12514758Y-7835210D01*
X12598330Y-7751638D01*
X12663993Y-7653367D01*
X12709222Y-7544174D01*
X12732280Y-7428255D01*
X12732280Y-7310065D01*
X12709222Y-7194146D01*
X12663993Y-7084953D01*
X12598330Y-6986682D01*
X12514758Y-6903110D01*
X12416487Y-6837447D01*
X12307294Y-6792218D01*
X12191375Y-6769160D01*
X12168676Y-6769160D01*
X11789800Y-6390285D01*
X11789800Y-5843208D01*
X11810762Y-5864170D01*
X11909033Y-5929833D01*
X12018226Y-5975062D01*
X12134145Y-5998120D01*
X12252335Y-5998120D01*
X12368254Y-5975062D01*
X12477447Y-5929833D01*
X12575718Y-5864170D01*
X12659290Y-5780598D01*
X12724953Y-5682327D01*
X12770182Y-5573134D01*
X12793240Y-5457215D01*
X12793240Y-5339025D01*
X12770182Y-5223106D01*
X12724953Y-5113913D01*
X12669298Y-5030620D01*
X12707475Y-5030620D01*
X12823394Y-5007562D01*
X12932587Y-4962333D01*
X13030858Y-4896670D01*
X13084528Y-4843000D01*
X14766272Y-4843000D01*
X14698750Y-4910522D01*
X14633087Y-5008793D01*
X14587858Y-5117986D01*
X14564800Y-5233905D01*
X14564800Y-5256604D01*
X13450234Y-6371171D01*
X13433063Y-6385263D01*
X13418972Y-6402433D01*
X13376829Y-6453784D01*
X13358292Y-6488465D01*
X13335043Y-6531960D01*
X13309311Y-6616786D01*
X13302800Y-6682896D01*
X13302800Y-6682906D01*
X13300624Y-6705000D01*
X13302800Y-6727094D01*
X13302801Y-12257683D01*
X13154925Y-12405560D01*
X12456502Y-12405560D01*
X12563807Y-12361113D01*
X12662078Y-12295450D01*
X12745650Y-12211878D01*
X12811313Y-12113607D01*
X12856542Y-12004414D01*
X12879600Y-11888495D01*
X12879600Y-11770305D01*
X12856542Y-11654386D01*
X12811313Y-11545193D01*
X12745650Y-11446922D01*
X12662078Y-11363350D01*
X12563807Y-11297687D01*
X12454614Y-11252458D01*
X12398627Y-11241321D01*
X11902479Y-10745173D01*
X11891342Y-10689186D01*
X11846113Y-10579993D01*
X11780450Y-10481722D01*
X11696878Y-10398150D01*
X11598607Y-10332487D01*
X11489414Y-10287258D01*
X11373495Y-10264200D01*
X11255305Y-10264200D01*
X11139386Y-10287258D01*
X11030193Y-10332487D01*
X10931922Y-10398150D01*
X10848350Y-10481722D01*
X10782687Y-10579993D01*
X10737458Y-10689186D01*
X10714400Y-10805105D01*
X10714400Y-10923295D01*
X10737458Y-11039214D01*
X10782687Y-11148407D01*
X10848350Y-11246678D01*
X10931922Y-11330250D01*
X11030193Y-11395913D01*
X11139386Y-11441142D01*
X11195373Y-11452279D01*
X11691521Y-11948427D01*
X11702658Y-12004414D01*
X11747887Y-12113607D01*
X11813550Y-12211878D01*
X11897122Y-12295450D01*
X11995393Y-12361113D01*
X12102698Y-12405560D01*
X11996891Y-12405560D01*
X11974799Y-12403384D01*
X11952707Y-12405560D01*
X11952695Y-12405560D01*
X11886585Y-12412071D01*
X11801759Y-12437803D01*
X11723583Y-12479589D01*
X11672232Y-12521732D01*
X11672228Y-12521736D01*
X11655063Y-12535823D01*
X11640976Y-12552988D01*
X10249834Y-13944131D01*
X10232663Y-13958223D01*
X10218572Y-13975393D01*
X10176429Y-14026744D01*
X10134644Y-14104919D01*
X10134643Y-14104920D01*
X10108911Y-14189746D01*
X10102400Y-14255856D01*
X10102400Y-14255866D01*
X10100224Y-14277960D01*
X10102400Y-14300054D01*
X10102401Y-19240204D01*
X10049605Y-19293000D01*
X10026905Y-19293000D01*
X9910986Y-19316058D01*
X9801793Y-19361287D01*
X9703522Y-19426950D01*
X9619950Y-19510522D01*
X9554287Y-19608793D01*
X9509058Y-19717986D01*
X9486000Y-19833905D01*
X375000Y-19833905D01*
X375000Y-6710625D01*
X6706280Y-6710625D01*
X6706280Y-6828815D01*
X6729338Y-6944734D01*
X6774567Y-7053927D01*
X6840230Y-7152198D01*
X6923802Y-7235770D01*
X7022073Y-7301433D01*
X7131266Y-7346662D01*
X7187254Y-7357799D01*
X9324241Y-9494787D01*
X9335378Y-9550774D01*
X9380607Y-9659967D01*
X9446270Y-9758238D01*
X9529842Y-9841810D01*
X9628113Y-9907473D01*
X9737306Y-9952702D01*
X9853225Y-9975760D01*
X9971415Y-9975760D01*
X10087334Y-9952702D01*
X10196527Y-9907473D01*
X10294798Y-9841810D01*
X10378370Y-9758238D01*
X10444033Y-9659967D01*
X10489262Y-9550774D01*
X10512320Y-9434855D01*
X10512320Y-9316665D01*
X10489262Y-9200746D01*
X10444033Y-9091553D01*
X10378370Y-8993282D01*
X10294798Y-8909710D01*
X10196527Y-8844047D01*
X10087334Y-8798818D01*
X10031347Y-8787681D01*
X7894359Y-6650694D01*
X7883222Y-6594706D01*
X7837993Y-6485513D01*
X7772330Y-6387242D01*
X7688758Y-6303670D01*
X7590487Y-6238007D01*
X7481294Y-6192778D01*
X7365375Y-6169720D01*
X7247185Y-6169720D01*
X7131266Y-6192778D01*
X7022073Y-6238007D01*
X6923802Y-6303670D01*
X6840230Y-6387242D01*
X6774567Y-6485513D01*
X6729338Y-6594706D01*
X6706280Y-6710625D01*
X375000Y-6710625D01*
X375000Y-375000D01*
X39625001Y-375000D01*
X39625000Y-29625000D01*
M02*
