M48
; DRILL file {KiCad (5.1.0)-1} date 21-Jun-19 15:08:09
; FORMAT={-:-/ absolute / metric / decimal}
; #@! TF.CreationDate,2019-06-21T15:08:09-03:00
; #@! TF.GenerationSoftware,Kicad,Pcbnew,(5.1.0)-1
; #@! TF.FileFunction,Plated,1,2,PTH
FMAT,2
METRIC
T1C0.300
T2C0.500
T3C0.600
T4C1.000
T5C1.500
T6C1.600
%
G90
G05
T1
X5.422Y-21.431
X5.879Y-16.3
X7.306Y-6.77
X7.327Y-2.899
X9.333Y-14.827
X9.912Y-9.376
X10.086Y-19.893
X10.557Y-8.517
X11.314Y-10.864
X11.619Y-21.075
X12.132Y-7.369
X12.193Y-5.398
X12.254Y-22.929
X12.28Y-11.829
X12.648Y-4.431
X12.788Y-19.526
X13.143Y-18.459
X14.007Y-25.799
X14.276Y-23.325
X15.023Y-22.066
X15.165Y-5.293
X15.18Y-6.617
X15.186Y-4.393
X15.886Y-16.859
X16.039Y-25.139
X16.14Y-24.043
X16.242Y-19.246
X16.242Y-20.973
X16.425Y-8.604
X17.106Y-20.11
X17.233Y-14.446
X17.969Y-19.246
X17.969Y-20.973
X18.528Y-24.885
X19.138Y-14.268
X19.138Y-17.087
X19.225Y-28.023
X19.493Y-24.072
X19.793Y-10.691
X19.9Y-17.087
X20.128Y-6.622
X20.154Y-28.797
X20.408Y-14.319
X20.457Y-11.43
X20.458Y-21.253
X20.535Y-19.475
X20.611Y-17.748
X20.88Y-10.671
X20.906Y-22.66
X21.017Y-28.543
X21.093Y-21.532
X21.119Y-19.17
X21.297Y-27.882
X21.322Y-25.611
X21.373Y-29.127
X21.5Y-22.116
X21.551Y-18.611
X21.652Y-27.359
X21.728Y-28.492
X21.957Y-29.406
X22.008Y-15.766
X22.16Y-18.205
X22.186Y-22.32
X22.226Y-23.325
X22.252Y-24.011
X22.252Y-24.661
X22.252Y-25.307
X22.277Y-25.992
X22.302Y-26.678
X22.302Y-27.364
X22.617Y-29.406
X22.694Y-2.685
X22.77Y-18.027
X22.836Y-23.071
X22.846Y-20.364
X22.866Y-22.37
X22.963Y-27.593
X23.252Y-29.406
X23.43Y-17.875
X23.496Y-23.071
X23.506Y-22.401
X23.623Y-27.618
X23.862Y-18.383
X23.887Y-29.406
X24.116Y-4.209
X24.218Y-18.941
X24.421Y-1.365
X24.522Y-29.406
X24.649Y-19.526
X25.061Y-27.628
X25.081Y-20.059
X25.157Y-29.406
X25.411Y-20.745
X25.589Y-21.405
X25.589Y-22.091
X25.589Y-22.751
X25.731Y-27.618
X25.792Y-29.406
X26.275Y-22.802
X26.3Y-3.397
X26.3Y-4.006
X26.3Y-5.835
X26.3Y-6.495
X26.316Y-23.427
X26.387Y-24.138
X26.387Y-24.849
X26.387Y-25.535
X26.392Y-26.221
X26.392Y-26.907
X26.417Y-27.567
X26.427Y-29.406
X26.615Y-15.467
X26.956Y-16.036
X27.078Y-27.339
X27.088Y-29.406
X27.128Y-16.701
X27.23Y-15.233
X27.291Y-27.958
X27.748Y-29.406
X27.763Y-16.894
X27.824Y-4.413
X27.865Y-15.208
X28.002Y-27.958
X28.129Y-18.164
X28.256Y-12.85
X28.282Y-27.323
X28.409Y-18.819
X28.424Y-16.904
X28.434Y-29.406
X28.475Y-13.47
X28.495Y-17.616
X28.505Y-15.203
X28.591Y-14.126
X28.713Y-27.958
X28.876Y-20.211
X28.896Y-12.673
X29.044Y-18.977
X29.064Y-16.909
X29.115Y-19.607
X29.125Y-15.111
X29.125Y-17.534
X29.14Y-14.476
X29.145Y-29.406
X29.247Y-4.362
X29.521Y-12.663
X29.679Y-24.656
X29.679Y-25.545
X29.704Y-26.434
X29.831Y-29.406
X30.166Y-12.673
X30.263Y-1.111
X30.314Y-2.025
X30.405Y-4.25
X30.542Y-29.406
X30.568Y-24.656
X30.593Y-25.545
X30.593Y-26.434
X30.822Y-1.568
X30.827Y-12.678
X30.847Y-17.575
X30.872Y-2.381
X30.893Y-16.249
X30.908Y-16.909
X30.974Y-18.179
X31.152Y-13.414
X31.203Y-29.178
X31.345Y-15.756
X31.385Y-14.024
X31.431Y-6.892
X31.482Y-24.656
X31.482Y-25.545
X31.482Y-26.434
X31.584Y-28.619
X31.756Y-19.068
X31.995Y-15.624
X32.046Y-14.12
X32.244Y-28.339
X32.325Y-29.005
X32.371Y-27.628
X32.676Y-15.619
X32.701Y-14.151
X32.991Y-28.985
X33.357Y-14.151
X33.377Y-15.629
X33.443Y-19.378
X34.083Y-19.449
X34.662Y-19.719
X34.85Y-29.02
X35.119Y-20.161
X35.526Y-29.046
X35.566Y-20.648
X35.688Y-25.871
X35.998Y-21.136
X36.191Y-29.04
X36.471Y-21.949
X36.669Y-21.314
X36.841Y-29.244
X37.268Y-21.024
X37.923Y-21.095
X38.381Y-27.974
X38.411Y-21.563
X38.646Y-22.152
X39.061Y-27.897
T2
X20.154Y-3.397
X29.501Y-1.669
X30.568Y-3.295
X9.806Y-26.871
T3
X1.256Y-9.594
X1.408Y-20.211
X1.815Y-8.324
X2.069Y-21.481
X2.628Y-9.594
X2.78Y-20.211
X3.339Y-8.324
X3.593Y-21.481
X3.999Y-9.594
X4.152Y-20.211
X37.471Y-21.979
X37.603Y-28.609
T4
X24.975Y-8.096
X27.515Y-8.096
X30.055Y-8.096
X32.595Y-8.096
X35.135Y-8.096
X37.675Y-8.096
T5
X35.14Y-14.928
T6
X32.6Y-12.388
X32.6Y-17.468
X37.68Y-12.388
X37.68Y-17.468
T0
M30
