G04 #@! TF.GenerationSoftware,KiCad,Pcbnew,(5.1.0)-1*
G04 #@! TF.CreationDate,2019-06-21T15:08:08-03:00*
G04 #@! TF.ProjectId,EstacionTerrena,45737461-6369-46f6-9e54-657272656e61,rev?*
G04 #@! TF.SameCoordinates,Original*
G04 #@! TF.FileFunction,Soldermask,Top*
G04 #@! TF.FilePolarity,Negative*
%FSLAX46Y46*%
G04 Gerber Fmt 4.6, Leading zero omitted, Abs format (unit mm)*
G04 Created by KiCad (PCBNEW (5.1.0)-1) date 2019-06-21 15:08:08*
%MOMM*%
%LPD*%
G04 APERTURE LIST*
%ADD10C,0.100000*%
G04 APERTURE END LIST*
D10*
G36*
X29892266Y-22973395D02*
G01*
X29906715Y-22977778D01*
X29930749Y-22982558D01*
X29955253Y-22982558D01*
X29979285Y-22977778D01*
X29993734Y-22973395D01*
X30024141Y-22970400D01*
X30511859Y-22970400D01*
X30542266Y-22973395D01*
X30556715Y-22977778D01*
X30580749Y-22982558D01*
X30605253Y-22982558D01*
X30629285Y-22977778D01*
X30643734Y-22973395D01*
X30674141Y-22970400D01*
X31161859Y-22970400D01*
X31192266Y-22973395D01*
X31206715Y-22977778D01*
X31230749Y-22982558D01*
X31255253Y-22982558D01*
X31279285Y-22977778D01*
X31293734Y-22973395D01*
X31324141Y-22970400D01*
X31811859Y-22970400D01*
X31842268Y-22973395D01*
X31865604Y-22980474D01*
X31887111Y-22991970D01*
X31905961Y-23007439D01*
X31921430Y-23026289D01*
X31932926Y-23047796D01*
X31940005Y-23071132D01*
X31943000Y-23101541D01*
X31943000Y-24070401D01*
X31945402Y-24094787D01*
X31952515Y-24118236D01*
X31964066Y-24139847D01*
X31979611Y-24158789D01*
X31998553Y-24174334D01*
X32020164Y-24185885D01*
X32043613Y-24192998D01*
X32067999Y-24195400D01*
X33036859Y-24195400D01*
X33067268Y-24198395D01*
X33090604Y-24205474D01*
X33112111Y-24216970D01*
X33130961Y-24232439D01*
X33146430Y-24251289D01*
X33157926Y-24272796D01*
X33165005Y-24296132D01*
X33168000Y-24326541D01*
X33168000Y-24814259D01*
X33165005Y-24844666D01*
X33160622Y-24859115D01*
X33155842Y-24883149D01*
X33155842Y-24907653D01*
X33160622Y-24931685D01*
X33165005Y-24946134D01*
X33168000Y-24976541D01*
X33168000Y-25362739D01*
X33170402Y-25387125D01*
X33177515Y-25410574D01*
X33189066Y-25432185D01*
X33204611Y-25451127D01*
X33223553Y-25466672D01*
X33245164Y-25478223D01*
X33268613Y-25485336D01*
X33292999Y-25487738D01*
X33317385Y-25485336D01*
X33340834Y-25478223D01*
X33362445Y-25466672D01*
X33389624Y-25442038D01*
X33411571Y-25415295D01*
X33439520Y-25392358D01*
X33471393Y-25375322D01*
X33505986Y-25364828D01*
X33548101Y-25360680D01*
X33808296Y-25360680D01*
X33832682Y-25358278D01*
X33856131Y-25351165D01*
X33877742Y-25339614D01*
X33896684Y-25324069D01*
X33912229Y-25305127D01*
X33923780Y-25283516D01*
X33930893Y-25260067D01*
X33933295Y-25235681D01*
X33930893Y-25211295D01*
X33923780Y-25187846D01*
X33912229Y-25166235D01*
X33887597Y-25139057D01*
X33878935Y-25131948D01*
X33855998Y-25104000D01*
X33838962Y-25072127D01*
X33828468Y-25037534D01*
X33824320Y-24995419D01*
X33824320Y-24337701D01*
X33828468Y-24295586D01*
X33838962Y-24260993D01*
X33855998Y-24229120D01*
X33878934Y-24201174D01*
X33906880Y-24178238D01*
X33938753Y-24161202D01*
X33973346Y-24150708D01*
X34015461Y-24146560D01*
X34623179Y-24146560D01*
X34665294Y-24150708D01*
X34699887Y-24161202D01*
X34739447Y-24182347D01*
X34745386Y-24186316D01*
X34768023Y-24195695D01*
X34792056Y-24200478D01*
X34816560Y-24200480D01*
X34840594Y-24195702D01*
X34863234Y-24186327D01*
X34869181Y-24182354D01*
X34908753Y-24161202D01*
X34943346Y-24150708D01*
X34985461Y-24146560D01*
X35593179Y-24146560D01*
X35635294Y-24150708D01*
X35669887Y-24161202D01*
X35701760Y-24178238D01*
X35729706Y-24201174D01*
X35752642Y-24229120D01*
X35769678Y-24260993D01*
X35780172Y-24295586D01*
X35784320Y-24337701D01*
X35784320Y-24995419D01*
X35780172Y-25037534D01*
X35769678Y-25072127D01*
X35752642Y-25104000D01*
X35729706Y-25131946D01*
X35701760Y-25154882D01*
X35669887Y-25171918D01*
X35635294Y-25182412D01*
X35593179Y-25186560D01*
X35332984Y-25186560D01*
X35308598Y-25188962D01*
X35285149Y-25196075D01*
X35263538Y-25207626D01*
X35244596Y-25223171D01*
X35229051Y-25242113D01*
X35217500Y-25263724D01*
X35210387Y-25287173D01*
X35207985Y-25311559D01*
X35210387Y-25335945D01*
X35217500Y-25359394D01*
X35229051Y-25381005D01*
X35253683Y-25408183D01*
X35262345Y-25415292D01*
X35285282Y-25443240D01*
X35302318Y-25475113D01*
X35312812Y-25509706D01*
X35316960Y-25551821D01*
X35316960Y-26209539D01*
X35312812Y-26251654D01*
X35302318Y-26286247D01*
X35285280Y-26318123D01*
X35282114Y-26321981D01*
X35268500Y-26342355D01*
X35259122Y-26364993D01*
X35254341Y-26389027D01*
X35254341Y-26413531D01*
X35259121Y-26437564D01*
X35268498Y-26460203D01*
X35282111Y-26480578D01*
X35299438Y-26497905D01*
X35319812Y-26511519D01*
X35342450Y-26520897D01*
X35366484Y-26525678D01*
X35378738Y-26526280D01*
X35417659Y-26526280D01*
X35459774Y-26530428D01*
X35494367Y-26540922D01*
X35526240Y-26557958D01*
X35554186Y-26580894D01*
X35577120Y-26608838D01*
X35587380Y-26628033D01*
X35600994Y-26648408D01*
X35618321Y-26665735D01*
X35638695Y-26679349D01*
X35661334Y-26688726D01*
X35685367Y-26693507D01*
X35709871Y-26693507D01*
X35733904Y-26688727D01*
X35756543Y-26679350D01*
X35776918Y-26665736D01*
X35794244Y-26648410D01*
X35812130Y-26626616D01*
X35840080Y-26603678D01*
X35871953Y-26586642D01*
X35906546Y-26576148D01*
X35948661Y-26572000D01*
X36606379Y-26572000D01*
X36648494Y-26576148D01*
X36683087Y-26586642D01*
X36714960Y-26603678D01*
X36742906Y-26626614D01*
X36765842Y-26654560D01*
X36773339Y-26668586D01*
X36786953Y-26688961D01*
X36804280Y-26706288D01*
X36824654Y-26719901D01*
X36847293Y-26729279D01*
X36871326Y-26734059D01*
X36895830Y-26734059D01*
X36919864Y-26729278D01*
X36942502Y-26719901D01*
X36962877Y-26706287D01*
X36980204Y-26688960D01*
X36993818Y-26668585D01*
X37010680Y-26637038D01*
X37033614Y-26609094D01*
X37061560Y-26586158D01*
X37093433Y-26569122D01*
X37128026Y-26558628D01*
X37170141Y-26554480D01*
X37777859Y-26554480D01*
X37819974Y-26558628D01*
X37854567Y-26569122D01*
X37894127Y-26590267D01*
X37900066Y-26594236D01*
X37922703Y-26603615D01*
X37946736Y-26608398D01*
X37971240Y-26608400D01*
X37995274Y-26603622D01*
X38017914Y-26594247D01*
X38023861Y-26590274D01*
X38063433Y-26569122D01*
X38098026Y-26558628D01*
X38140141Y-26554480D01*
X38747859Y-26554480D01*
X38789974Y-26558628D01*
X38824567Y-26569122D01*
X38856440Y-26586158D01*
X38884386Y-26609094D01*
X38907322Y-26637040D01*
X38924358Y-26668913D01*
X38934852Y-26703506D01*
X38939000Y-26745621D01*
X38939000Y-27403339D01*
X38934852Y-27445454D01*
X38924358Y-27480047D01*
X38907322Y-27511920D01*
X38884386Y-27539866D01*
X38856440Y-27562802D01*
X38824567Y-27579838D01*
X38789974Y-27590332D01*
X38747859Y-27594480D01*
X38140141Y-27594480D01*
X38098026Y-27590332D01*
X38063433Y-27579838D01*
X38023873Y-27558693D01*
X38017934Y-27554724D01*
X37995297Y-27545345D01*
X37971264Y-27540562D01*
X37946760Y-27540560D01*
X37922726Y-27545338D01*
X37900086Y-27554713D01*
X37894139Y-27558686D01*
X37854567Y-27579838D01*
X37819974Y-27590332D01*
X37777859Y-27594480D01*
X37170141Y-27594480D01*
X37128026Y-27590332D01*
X37093433Y-27579838D01*
X37061560Y-27562802D01*
X37033614Y-27539866D01*
X37010680Y-27511922D01*
X36989820Y-27472895D01*
X36976206Y-27452521D01*
X36958880Y-27435193D01*
X36938505Y-27421579D01*
X36915867Y-27412202D01*
X36891833Y-27407421D01*
X36867329Y-27407421D01*
X36843296Y-27412201D01*
X36820657Y-27421578D01*
X36800283Y-27435192D01*
X36782955Y-27452518D01*
X36769341Y-27472893D01*
X36761731Y-27487131D01*
X36757764Y-27493066D01*
X36748385Y-27515703D01*
X36743602Y-27539736D01*
X36743600Y-27564240D01*
X36748378Y-27588274D01*
X36757753Y-27610914D01*
X36761726Y-27616861D01*
X36782878Y-27656433D01*
X36793372Y-27691026D01*
X36797520Y-27733141D01*
X36797520Y-28340859D01*
X36793372Y-28382974D01*
X36782878Y-28417567D01*
X36765842Y-28449440D01*
X36742906Y-28477386D01*
X36714960Y-28500322D01*
X36683087Y-28517358D01*
X36648494Y-28527852D01*
X36606379Y-28532000D01*
X35948661Y-28532000D01*
X35906546Y-28527852D01*
X35871953Y-28517358D01*
X35840080Y-28500322D01*
X35812134Y-28477386D01*
X35789200Y-28449442D01*
X35778940Y-28430247D01*
X35765326Y-28409872D01*
X35747999Y-28392545D01*
X35727625Y-28378931D01*
X35704986Y-28369554D01*
X35680953Y-28364773D01*
X35656449Y-28364773D01*
X35632416Y-28369553D01*
X35609777Y-28378930D01*
X35589402Y-28392544D01*
X35572076Y-28409870D01*
X35554190Y-28431664D01*
X35526240Y-28454602D01*
X35494367Y-28471638D01*
X35459774Y-28482132D01*
X35417659Y-28486280D01*
X34759941Y-28486280D01*
X34717826Y-28482132D01*
X34683233Y-28471638D01*
X34651360Y-28454602D01*
X34615916Y-28425513D01*
X34595541Y-28411899D01*
X34572903Y-28402522D01*
X34548870Y-28397741D01*
X34524365Y-28397741D01*
X34500332Y-28402521D01*
X34477693Y-28411898D01*
X34457319Y-28425511D01*
X34439991Y-28442838D01*
X34426377Y-28463213D01*
X34417000Y-28485851D01*
X34412219Y-28509884D01*
X34412219Y-28534389D01*
X34416999Y-28558422D01*
X34426376Y-28581061D01*
X34435919Y-28598915D01*
X34446412Y-28633506D01*
X34450560Y-28675621D01*
X34450560Y-29283339D01*
X34446412Y-29325454D01*
X34435918Y-29360047D01*
X34418882Y-29391920D01*
X34395946Y-29419866D01*
X34368000Y-29442802D01*
X34336127Y-29459838D01*
X34301534Y-29470332D01*
X34259419Y-29474480D01*
X33601701Y-29474480D01*
X33559586Y-29470332D01*
X33524993Y-29459838D01*
X33493120Y-29442802D01*
X33465174Y-29419866D01*
X33442238Y-29391920D01*
X33425202Y-29360047D01*
X33414708Y-29325454D01*
X33410560Y-29283339D01*
X33410560Y-28675621D01*
X33414708Y-28633506D01*
X33425202Y-28598913D01*
X33446347Y-28559353D01*
X33450316Y-28553414D01*
X33459695Y-28530777D01*
X33464478Y-28506744D01*
X33464480Y-28482240D01*
X33459702Y-28458206D01*
X33450327Y-28435566D01*
X33446354Y-28429619D01*
X33425202Y-28390047D01*
X33414708Y-28355454D01*
X33410560Y-28313339D01*
X33410560Y-27705621D01*
X33414708Y-27663506D01*
X33425202Y-27628913D01*
X33442238Y-27597040D01*
X33465174Y-27569094D01*
X33493120Y-27546158D01*
X33524993Y-27529122D01*
X33559586Y-27518628D01*
X33601701Y-27514480D01*
X34259419Y-27514480D01*
X34301534Y-27518628D01*
X34336127Y-27529122D01*
X34368000Y-27546158D01*
X34403444Y-27575247D01*
X34423819Y-27588861D01*
X34446457Y-27598238D01*
X34470490Y-27603019D01*
X34494995Y-27603019D01*
X34519028Y-27598239D01*
X34541667Y-27588862D01*
X34562041Y-27575249D01*
X34579369Y-27557922D01*
X34592983Y-27537547D01*
X34602360Y-27514909D01*
X34607141Y-27490876D01*
X34607141Y-27466371D01*
X34602361Y-27442338D01*
X34592984Y-27419699D01*
X34583441Y-27401845D01*
X34572948Y-27367254D01*
X34568800Y-27325139D01*
X34568800Y-26717421D01*
X34572948Y-26675306D01*
X34583442Y-26640713D01*
X34600480Y-26608837D01*
X34604016Y-26604528D01*
X34617630Y-26584154D01*
X34627007Y-26561515D01*
X34631788Y-26537482D01*
X34631788Y-26512978D01*
X34627008Y-26488944D01*
X34617631Y-26466305D01*
X34604017Y-26445931D01*
X34586690Y-26428604D01*
X34566316Y-26414990D01*
X34543677Y-26405613D01*
X34519644Y-26400832D01*
X34475986Y-26396532D01*
X34441393Y-26386038D01*
X34401833Y-26364893D01*
X34395894Y-26360924D01*
X34373257Y-26351545D01*
X34349224Y-26346762D01*
X34324720Y-26346760D01*
X34300686Y-26351538D01*
X34278046Y-26360913D01*
X34272099Y-26364886D01*
X34232527Y-26386038D01*
X34197934Y-26396532D01*
X34155819Y-26400680D01*
X33548101Y-26400680D01*
X33505986Y-26396532D01*
X33471393Y-26386038D01*
X33439520Y-26369002D01*
X33411571Y-26346065D01*
X33389624Y-26319322D01*
X33372297Y-26301995D01*
X33351922Y-26288381D01*
X33329284Y-26279004D01*
X33305250Y-26274224D01*
X33280746Y-26274224D01*
X33256713Y-26279005D01*
X33234074Y-26288382D01*
X33213700Y-26301996D01*
X33196373Y-26319323D01*
X33182759Y-26339698D01*
X33173382Y-26362336D01*
X33168000Y-26398621D01*
X33168000Y-26764259D01*
X33165005Y-26794668D01*
X33157926Y-26818004D01*
X33146430Y-26839511D01*
X33130961Y-26858361D01*
X33112111Y-26873830D01*
X33090604Y-26885326D01*
X33067268Y-26892405D01*
X33036859Y-26895400D01*
X32067999Y-26895400D01*
X32043613Y-26897802D01*
X32020164Y-26904915D01*
X31998553Y-26916466D01*
X31979611Y-26932011D01*
X31964066Y-26950953D01*
X31952515Y-26972564D01*
X31945402Y-26996013D01*
X31943000Y-27020399D01*
X31943000Y-27989259D01*
X31940005Y-28019668D01*
X31932926Y-28043004D01*
X31921430Y-28064511D01*
X31905961Y-28083361D01*
X31887111Y-28098830D01*
X31865604Y-28110326D01*
X31842268Y-28117405D01*
X31811859Y-28120400D01*
X31324141Y-28120400D01*
X31293734Y-28117405D01*
X31279285Y-28113022D01*
X31255251Y-28108242D01*
X31230747Y-28108242D01*
X31206715Y-28113022D01*
X31192266Y-28117405D01*
X31161859Y-28120400D01*
X30674141Y-28120400D01*
X30643734Y-28117405D01*
X30629285Y-28113022D01*
X30605251Y-28108242D01*
X30580747Y-28108242D01*
X30556715Y-28113022D01*
X30542266Y-28117405D01*
X30511859Y-28120400D01*
X30024141Y-28120400D01*
X29993734Y-28117405D01*
X29979285Y-28113022D01*
X29955251Y-28108242D01*
X29930747Y-28108242D01*
X29906715Y-28113022D01*
X29892266Y-28117405D01*
X29861859Y-28120400D01*
X29374141Y-28120400D01*
X29343732Y-28117405D01*
X29320396Y-28110326D01*
X29298889Y-28098830D01*
X29280039Y-28083361D01*
X29264570Y-28064511D01*
X29253074Y-28043004D01*
X29245995Y-28019668D01*
X29243000Y-27989259D01*
X29243000Y-27020399D01*
X29240598Y-26996013D01*
X29233485Y-26972564D01*
X29221934Y-26950953D01*
X29206389Y-26932011D01*
X29187447Y-26916466D01*
X29165836Y-26904915D01*
X29142387Y-26897802D01*
X29118001Y-26895400D01*
X28149141Y-26895400D01*
X28118732Y-26892405D01*
X28095396Y-26885326D01*
X28073889Y-26873830D01*
X28055039Y-26858361D01*
X28039570Y-26839511D01*
X28028074Y-26818004D01*
X28020995Y-26794668D01*
X28018000Y-26764259D01*
X28018000Y-26276541D01*
X28020995Y-26246134D01*
X28025378Y-26231685D01*
X28030158Y-26207651D01*
X28030158Y-26183147D01*
X28025378Y-26159115D01*
X28020995Y-26144666D01*
X28018000Y-26114259D01*
X28018000Y-25626541D01*
X28020995Y-25596134D01*
X28025378Y-25581685D01*
X28030158Y-25557651D01*
X28030158Y-25533147D01*
X28025378Y-25509115D01*
X28020995Y-25494666D01*
X28018000Y-25464259D01*
X28018000Y-24976541D01*
X28020995Y-24946134D01*
X28025378Y-24931685D01*
X28030158Y-24907651D01*
X28030158Y-24883147D01*
X28025378Y-24859115D01*
X28020995Y-24844666D01*
X28018000Y-24814259D01*
X28018000Y-24326541D01*
X28020995Y-24296132D01*
X28028074Y-24272796D01*
X28039570Y-24251289D01*
X28055039Y-24232439D01*
X28073889Y-24216970D01*
X28095396Y-24205474D01*
X28118732Y-24198395D01*
X28149141Y-24195400D01*
X29118001Y-24195400D01*
X29142387Y-24192998D01*
X29165836Y-24185885D01*
X29187447Y-24174334D01*
X29206389Y-24158789D01*
X29221934Y-24139847D01*
X29233485Y-24118236D01*
X29240598Y-24094787D01*
X29243000Y-24070401D01*
X29243000Y-23101541D01*
X29245995Y-23071132D01*
X29253074Y-23047796D01*
X29264570Y-23026289D01*
X29280039Y-23007439D01*
X29298889Y-22991970D01*
X29320396Y-22980474D01*
X29343732Y-22973395D01*
X29374141Y-22970400D01*
X29861859Y-22970400D01*
X29892266Y-22973395D01*
X29892266Y-22973395D01*
G37*
G36*
X22884774Y-27975948D02*
G01*
X22919367Y-27986442D01*
X22958927Y-28007587D01*
X22964866Y-28011556D01*
X22987503Y-28020935D01*
X23011536Y-28025718D01*
X23036040Y-28025720D01*
X23060074Y-28020942D01*
X23082714Y-28011567D01*
X23088661Y-28007594D01*
X23128233Y-27986442D01*
X23162826Y-27975948D01*
X23204941Y-27971800D01*
X23812659Y-27971800D01*
X23854774Y-27975948D01*
X23889367Y-27986442D01*
X23921240Y-28003478D01*
X23949186Y-28026414D01*
X23972119Y-28054356D01*
X23994260Y-28095780D01*
X24007874Y-28116154D01*
X24025201Y-28133481D01*
X24045575Y-28147095D01*
X24068214Y-28156472D01*
X24092247Y-28161253D01*
X24116751Y-28161253D01*
X24140785Y-28156473D01*
X24163424Y-28147096D01*
X24183798Y-28133482D01*
X24201125Y-28116155D01*
X24214740Y-28095780D01*
X24236881Y-28054356D01*
X24259814Y-28026414D01*
X24287760Y-28003478D01*
X24319633Y-27986442D01*
X24354226Y-27975948D01*
X24396341Y-27971800D01*
X25004059Y-27971800D01*
X25046174Y-27975948D01*
X25080767Y-27986442D01*
X25120327Y-28007587D01*
X25126266Y-28011556D01*
X25148903Y-28020935D01*
X25172936Y-28025718D01*
X25197440Y-28025720D01*
X25221474Y-28020942D01*
X25244114Y-28011567D01*
X25250061Y-28007594D01*
X25289633Y-27986442D01*
X25324226Y-27975948D01*
X25366341Y-27971800D01*
X25974059Y-27971800D01*
X26016174Y-27975948D01*
X26050767Y-27986442D01*
X26082640Y-28003478D01*
X26110586Y-28026414D01*
X26133522Y-28054360D01*
X26150558Y-28086233D01*
X26161052Y-28120826D01*
X26165200Y-28162941D01*
X26165200Y-28820659D01*
X26161052Y-28862774D01*
X26150558Y-28897367D01*
X26133522Y-28929240D01*
X26110586Y-28957186D01*
X26082640Y-28980122D01*
X26050767Y-28997158D01*
X26016174Y-29007652D01*
X25974059Y-29011800D01*
X25366341Y-29011800D01*
X25324226Y-29007652D01*
X25289633Y-28997158D01*
X25250073Y-28976013D01*
X25244134Y-28972044D01*
X25221497Y-28962665D01*
X25197464Y-28957882D01*
X25172960Y-28957880D01*
X25148926Y-28962658D01*
X25126286Y-28972033D01*
X25120339Y-28976006D01*
X25080767Y-28997158D01*
X25046174Y-29007652D01*
X25004059Y-29011800D01*
X24396341Y-29011800D01*
X24354226Y-29007652D01*
X24319633Y-28997158D01*
X24287760Y-28980122D01*
X24259814Y-28957186D01*
X24236881Y-28929244D01*
X24214740Y-28887820D01*
X24201126Y-28867446D01*
X24183799Y-28850119D01*
X24163425Y-28836505D01*
X24140786Y-28827128D01*
X24116753Y-28822347D01*
X24092249Y-28822347D01*
X24068215Y-28827127D01*
X24045576Y-28836504D01*
X24025202Y-28850118D01*
X24007875Y-28867445D01*
X23994260Y-28887820D01*
X23972119Y-28929244D01*
X23949186Y-28957186D01*
X23921240Y-28980122D01*
X23889367Y-28997158D01*
X23854774Y-29007652D01*
X23812659Y-29011800D01*
X23204941Y-29011800D01*
X23162826Y-29007652D01*
X23128233Y-28997158D01*
X23088673Y-28976013D01*
X23082734Y-28972044D01*
X23060097Y-28962665D01*
X23036064Y-28957882D01*
X23011560Y-28957880D01*
X22987526Y-28962658D01*
X22964886Y-28972033D01*
X22958939Y-28976006D01*
X22919367Y-28997158D01*
X22884774Y-29007652D01*
X22842659Y-29011800D01*
X22234941Y-29011800D01*
X22192826Y-29007652D01*
X22158233Y-28997158D01*
X22126360Y-28980122D01*
X22098414Y-28957186D01*
X22075478Y-28929240D01*
X22058442Y-28897367D01*
X22047948Y-28862774D01*
X22043800Y-28820659D01*
X22043800Y-28162941D01*
X22047948Y-28120826D01*
X22058442Y-28086233D01*
X22075478Y-28054360D01*
X22098414Y-28026414D01*
X22126360Y-28003478D01*
X22158233Y-27986442D01*
X22192826Y-27975948D01*
X22234941Y-27971800D01*
X22842659Y-27971800D01*
X22884774Y-27975948D01*
X22884774Y-27975948D01*
G37*
G36*
X18958800Y-28723400D02*
G01*
X15658800Y-28723400D01*
X15658800Y-25923400D01*
X18958800Y-25923400D01*
X18958800Y-28723400D01*
X18958800Y-28723400D01*
G37*
G36*
X20524574Y-26347548D02*
G01*
X20559167Y-26358042D01*
X20591040Y-26375078D01*
X20618986Y-26398014D01*
X20641922Y-26425960D01*
X20658958Y-26457833D01*
X20669452Y-26492426D01*
X20673600Y-26534541D01*
X20673600Y-27142259D01*
X20669452Y-27184374D01*
X20658958Y-27218967D01*
X20637813Y-27258527D01*
X20633844Y-27264466D01*
X20624465Y-27287103D01*
X20619682Y-27311136D01*
X20619680Y-27335640D01*
X20624458Y-27359674D01*
X20633833Y-27382314D01*
X20637806Y-27388261D01*
X20658958Y-27427833D01*
X20669452Y-27462426D01*
X20673600Y-27504541D01*
X20673600Y-28112259D01*
X20669452Y-28154374D01*
X20658958Y-28188967D01*
X20641922Y-28220840D01*
X20618986Y-28248786D01*
X20591040Y-28271722D01*
X20559167Y-28288758D01*
X20524574Y-28299252D01*
X20482459Y-28303400D01*
X19824741Y-28303400D01*
X19782626Y-28299252D01*
X19748033Y-28288758D01*
X19716160Y-28271722D01*
X19688214Y-28248786D01*
X19665278Y-28220840D01*
X19648242Y-28188967D01*
X19637748Y-28154374D01*
X19633600Y-28112259D01*
X19633600Y-27504541D01*
X19637748Y-27462426D01*
X19648242Y-27427833D01*
X19669387Y-27388273D01*
X19673356Y-27382334D01*
X19682735Y-27359697D01*
X19687518Y-27335664D01*
X19687520Y-27311160D01*
X19682742Y-27287126D01*
X19673367Y-27264486D01*
X19669394Y-27258539D01*
X19648242Y-27218967D01*
X19637748Y-27184374D01*
X19633600Y-27142259D01*
X19633600Y-26534541D01*
X19637748Y-26492426D01*
X19648242Y-26457833D01*
X19665278Y-26425960D01*
X19688214Y-26398014D01*
X19716160Y-26375078D01*
X19748033Y-26358042D01*
X19782626Y-26347548D01*
X19824741Y-26343400D01*
X20482459Y-26343400D01*
X20524574Y-26347548D01*
X20524574Y-26347548D01*
G37*
G36*
X14377774Y-26271248D02*
G01*
X14412367Y-26281742D01*
X14444240Y-26298778D01*
X14472186Y-26321714D01*
X14495122Y-26349660D01*
X14512158Y-26381533D01*
X14522652Y-26416126D01*
X14526800Y-26458241D01*
X14526800Y-27065959D01*
X14522652Y-27108074D01*
X14512158Y-27142667D01*
X14491013Y-27182227D01*
X14487044Y-27188166D01*
X14477665Y-27210803D01*
X14472882Y-27234836D01*
X14472880Y-27259340D01*
X14477658Y-27283374D01*
X14487033Y-27306014D01*
X14491006Y-27311961D01*
X14512158Y-27351533D01*
X14522652Y-27386126D01*
X14526800Y-27428241D01*
X14526800Y-28035959D01*
X14522652Y-28078074D01*
X14512158Y-28112667D01*
X14495122Y-28144540D01*
X14472186Y-28172486D01*
X14444240Y-28195422D01*
X14412367Y-28212458D01*
X14377774Y-28222952D01*
X14335659Y-28227100D01*
X13677941Y-28227100D01*
X13635826Y-28222952D01*
X13601233Y-28212458D01*
X13569360Y-28195422D01*
X13541414Y-28172486D01*
X13518478Y-28144540D01*
X13501442Y-28112667D01*
X13490948Y-28078074D01*
X13486800Y-28035959D01*
X13486800Y-27428241D01*
X13490948Y-27386126D01*
X13501442Y-27351533D01*
X13522587Y-27311973D01*
X13526556Y-27306034D01*
X13535935Y-27283397D01*
X13540718Y-27259364D01*
X13540720Y-27234860D01*
X13535942Y-27210826D01*
X13526567Y-27188186D01*
X13522594Y-27182239D01*
X13501442Y-27142667D01*
X13490948Y-27108074D01*
X13486800Y-27065959D01*
X13486800Y-26458241D01*
X13490948Y-26416126D01*
X13501442Y-26381533D01*
X13518478Y-26349660D01*
X13541414Y-26321714D01*
X13569360Y-26298778D01*
X13601233Y-26281742D01*
X13635826Y-26271248D01*
X13677941Y-26267100D01*
X14335659Y-26267100D01*
X14377774Y-26271248D01*
X14377774Y-26271248D01*
G37*
G36*
X10505640Y-27571280D02*
G01*
X9105640Y-27571280D01*
X9105640Y-26171280D01*
X10505640Y-26171280D01*
X10505640Y-27571280D01*
X10505640Y-27571280D01*
G37*
G36*
X25015730Y-23362258D02*
G01*
X25052014Y-23367640D01*
X26059840Y-23367640D01*
X26059840Y-27231640D01*
X22659840Y-27231640D01*
X22659840Y-25631640D01*
X24934841Y-25631640D01*
X24959227Y-25629238D01*
X24982676Y-25622125D01*
X25004287Y-25610574D01*
X25023229Y-25595029D01*
X25038774Y-25576087D01*
X25050325Y-25554476D01*
X25057438Y-25531027D01*
X25059840Y-25506641D01*
X25059840Y-25106639D01*
X25057438Y-25082253D01*
X25050325Y-25058804D01*
X25038774Y-25037193D01*
X25023229Y-25018251D01*
X25004287Y-25002706D01*
X24982676Y-24991155D01*
X24959227Y-24984042D01*
X24934841Y-24981640D01*
X22659840Y-24981640D01*
X22659840Y-23381640D01*
X24934841Y-23381640D01*
X24959227Y-23379238D01*
X24982676Y-23372125D01*
X25004287Y-23360574D01*
X25006761Y-23358543D01*
X25015730Y-23362258D01*
X25015730Y-23362258D01*
G37*
G36*
X38156849Y-24561590D02*
G01*
X38206698Y-24576711D01*
X38252630Y-24601262D01*
X38292894Y-24634306D01*
X38325938Y-24674570D01*
X38350489Y-24720502D01*
X38365610Y-24770351D01*
X38371320Y-24828324D01*
X38371320Y-25833436D01*
X38365610Y-25891409D01*
X38350489Y-25941258D01*
X38325938Y-25987190D01*
X38292894Y-26027454D01*
X38252630Y-26060498D01*
X38206698Y-26085049D01*
X38156849Y-26100170D01*
X38098876Y-26105880D01*
X36843764Y-26105880D01*
X36785791Y-26100170D01*
X36735942Y-26085049D01*
X36690010Y-26060498D01*
X36649746Y-26027454D01*
X36616702Y-25987190D01*
X36592151Y-25941258D01*
X36577030Y-25891409D01*
X36571320Y-25833436D01*
X36571320Y-24828324D01*
X36577030Y-24770351D01*
X36592151Y-24720502D01*
X36616702Y-24674570D01*
X36649746Y-24634306D01*
X36690010Y-24601262D01*
X36735942Y-24576711D01*
X36785791Y-24561590D01*
X36843764Y-24555880D01*
X38098876Y-24555880D01*
X38156849Y-24561590D01*
X38156849Y-24561590D01*
G37*
G36*
X17984574Y-23451948D02*
G01*
X18019167Y-23462442D01*
X18051040Y-23479478D01*
X18078986Y-23502414D01*
X18101922Y-23530360D01*
X18118958Y-23562233D01*
X18129452Y-23596826D01*
X18133600Y-23638941D01*
X18133600Y-24246659D01*
X18129452Y-24288774D01*
X18118958Y-24323367D01*
X18097813Y-24362927D01*
X18093844Y-24368866D01*
X18084465Y-24391503D01*
X18079682Y-24415536D01*
X18079680Y-24440040D01*
X18084458Y-24464074D01*
X18093833Y-24486714D01*
X18097806Y-24492661D01*
X18118958Y-24532233D01*
X18129452Y-24566826D01*
X18133600Y-24608941D01*
X18133600Y-25216659D01*
X18129452Y-25258774D01*
X18118958Y-25293367D01*
X18101922Y-25325240D01*
X18078986Y-25353186D01*
X18051040Y-25376122D01*
X18019167Y-25393158D01*
X17984574Y-25403652D01*
X17942459Y-25407800D01*
X17284741Y-25407800D01*
X17242626Y-25403652D01*
X17208033Y-25393158D01*
X17176160Y-25376122D01*
X17148214Y-25353186D01*
X17125278Y-25325240D01*
X17108242Y-25293367D01*
X17097748Y-25258774D01*
X17093600Y-25216659D01*
X17093600Y-24608941D01*
X17097748Y-24566826D01*
X17108242Y-24532233D01*
X17129387Y-24492673D01*
X17133356Y-24486734D01*
X17142735Y-24464097D01*
X17147518Y-24440064D01*
X17147520Y-24415560D01*
X17142742Y-24391526D01*
X17133367Y-24368886D01*
X17129394Y-24362939D01*
X17108242Y-24323367D01*
X17097748Y-24288774D01*
X17093600Y-24246659D01*
X17093600Y-23638941D01*
X17097748Y-23596826D01*
X17108242Y-23562233D01*
X17125278Y-23530360D01*
X17148214Y-23502414D01*
X17176160Y-23479478D01*
X17208033Y-23462442D01*
X17242626Y-23451948D01*
X17284741Y-23447800D01*
X17942459Y-23447800D01*
X17984574Y-23451948D01*
X17984574Y-23451948D01*
G37*
G36*
X21692974Y-23248748D02*
G01*
X21727567Y-23259242D01*
X21759440Y-23276278D01*
X21787386Y-23299214D01*
X21810322Y-23327160D01*
X21827358Y-23359033D01*
X21837852Y-23393626D01*
X21842000Y-23435741D01*
X21842000Y-24043459D01*
X21837852Y-24085574D01*
X21827358Y-24120167D01*
X21806213Y-24159727D01*
X21802244Y-24165666D01*
X21792865Y-24188303D01*
X21788082Y-24212336D01*
X21788080Y-24236840D01*
X21792858Y-24260874D01*
X21802233Y-24283514D01*
X21806206Y-24289461D01*
X21827358Y-24329033D01*
X21837852Y-24363626D01*
X21842000Y-24405741D01*
X21842000Y-25013459D01*
X21837852Y-25055574D01*
X21827358Y-25090167D01*
X21810322Y-25122040D01*
X21787386Y-25149986D01*
X21759440Y-25172922D01*
X21727567Y-25189958D01*
X21692974Y-25200452D01*
X21650859Y-25204600D01*
X20993141Y-25204600D01*
X20951026Y-25200452D01*
X20916433Y-25189958D01*
X20884560Y-25172922D01*
X20856614Y-25149986D01*
X20833678Y-25122040D01*
X20816642Y-25090167D01*
X20806148Y-25055574D01*
X20802000Y-25013459D01*
X20802000Y-24405741D01*
X20806148Y-24363626D01*
X20816642Y-24329033D01*
X20837787Y-24289473D01*
X20841756Y-24283534D01*
X20851135Y-24260897D01*
X20855918Y-24236864D01*
X20855920Y-24212360D01*
X20851142Y-24188326D01*
X20841767Y-24165686D01*
X20837794Y-24159739D01*
X20816642Y-24120167D01*
X20806148Y-24085574D01*
X20802000Y-24043459D01*
X20802000Y-23435741D01*
X20806148Y-23393626D01*
X20816642Y-23359033D01*
X20833678Y-23327160D01*
X20856614Y-23299214D01*
X20884560Y-23276278D01*
X20916433Y-23259242D01*
X20951026Y-23248748D01*
X20993141Y-23244600D01*
X21650859Y-23244600D01*
X21692974Y-23248748D01*
X21692974Y-23248748D01*
G37*
G36*
X38156849Y-22511590D02*
G01*
X38206698Y-22526711D01*
X38252630Y-22551262D01*
X38292894Y-22584306D01*
X38325938Y-22624570D01*
X38350489Y-22670502D01*
X38365610Y-22720351D01*
X38371320Y-22778324D01*
X38371320Y-23783436D01*
X38365610Y-23841409D01*
X38350489Y-23891258D01*
X38325938Y-23937190D01*
X38292894Y-23977454D01*
X38252630Y-24010498D01*
X38206698Y-24035049D01*
X38156849Y-24050170D01*
X38098876Y-24055880D01*
X36843764Y-24055880D01*
X36785791Y-24050170D01*
X36735942Y-24035049D01*
X36690010Y-24010498D01*
X36649746Y-23977454D01*
X36616702Y-23937190D01*
X36592151Y-23891258D01*
X36577030Y-23841409D01*
X36571320Y-23783436D01*
X36571320Y-22778324D01*
X36577030Y-22720351D01*
X36592151Y-22670502D01*
X36616702Y-22624570D01*
X36649746Y-22584306D01*
X36690010Y-22551262D01*
X36735942Y-22526711D01*
X36785791Y-22511590D01*
X36843764Y-22505880D01*
X38098876Y-22505880D01*
X38156849Y-22511590D01*
X38156849Y-22511590D01*
G37*
G36*
X7990182Y-22619900D02*
G01*
X8117573Y-22672667D01*
X8117574Y-22672668D01*
X8232224Y-22749274D01*
X8329726Y-22846776D01*
X8355825Y-22885836D01*
X8406333Y-22961427D01*
X8459100Y-23088818D01*
X8486000Y-23224055D01*
X8486000Y-23361945D01*
X8459100Y-23497182D01*
X8406333Y-23624573D01*
X8391338Y-23647015D01*
X8329726Y-23739224D01*
X8232224Y-23836726D01*
X8186556Y-23867240D01*
X8117573Y-23913333D01*
X7990182Y-23966100D01*
X7854945Y-23993000D01*
X7717055Y-23993000D01*
X7581818Y-23966100D01*
X7454427Y-23913333D01*
X7385444Y-23867240D01*
X7339776Y-23836726D01*
X7242274Y-23739224D01*
X7180662Y-23647015D01*
X7165667Y-23624573D01*
X7112900Y-23497182D01*
X7086000Y-23361945D01*
X7086000Y-23224055D01*
X7112900Y-23088818D01*
X7165667Y-22961427D01*
X7216175Y-22885836D01*
X7242274Y-22846776D01*
X7339776Y-22749274D01*
X7454426Y-22672668D01*
X7454427Y-22672667D01*
X7581818Y-22619900D01*
X7717055Y-22593000D01*
X7854945Y-22593000D01*
X7990182Y-22619900D01*
X7990182Y-22619900D01*
G37*
G36*
X34665294Y-22850228D02*
G01*
X34699887Y-22860722D01*
X34739447Y-22881867D01*
X34745386Y-22885836D01*
X34768023Y-22895215D01*
X34792056Y-22899998D01*
X34816560Y-22900000D01*
X34840594Y-22895222D01*
X34863234Y-22885847D01*
X34869181Y-22881874D01*
X34908753Y-22860722D01*
X34943346Y-22850228D01*
X34985461Y-22846080D01*
X35593179Y-22846080D01*
X35635294Y-22850228D01*
X35669887Y-22860722D01*
X35701760Y-22877758D01*
X35729706Y-22900694D01*
X35752642Y-22928640D01*
X35769678Y-22960513D01*
X35780172Y-22995106D01*
X35784320Y-23037221D01*
X35784320Y-23694939D01*
X35780172Y-23737054D01*
X35769678Y-23771647D01*
X35752642Y-23803520D01*
X35729706Y-23831466D01*
X35701760Y-23854402D01*
X35669887Y-23871438D01*
X35635294Y-23881932D01*
X35593179Y-23886080D01*
X34985461Y-23886080D01*
X34943346Y-23881932D01*
X34908753Y-23871438D01*
X34869193Y-23850293D01*
X34863254Y-23846324D01*
X34840617Y-23836945D01*
X34816584Y-23832162D01*
X34792080Y-23832160D01*
X34768046Y-23836938D01*
X34745406Y-23846313D01*
X34739459Y-23850286D01*
X34699887Y-23871438D01*
X34665294Y-23881932D01*
X34623179Y-23886080D01*
X34015461Y-23886080D01*
X33973346Y-23881932D01*
X33938753Y-23871438D01*
X33906880Y-23854402D01*
X33878934Y-23831466D01*
X33855998Y-23803520D01*
X33838962Y-23771647D01*
X33828468Y-23737054D01*
X33824320Y-23694939D01*
X33824320Y-23037221D01*
X33828468Y-22995106D01*
X33838962Y-22960513D01*
X33855998Y-22928640D01*
X33878934Y-22900694D01*
X33906880Y-22877758D01*
X33938753Y-22860722D01*
X33973346Y-22850228D01*
X34015461Y-22846080D01*
X34623179Y-22846080D01*
X34665294Y-22850228D01*
X34665294Y-22850228D01*
G37*
G36*
X25045774Y-21165948D02*
G01*
X25080367Y-21176442D01*
X25112240Y-21193478D01*
X25140186Y-21216414D01*
X25163122Y-21244360D01*
X25180158Y-21276233D01*
X25190652Y-21310826D01*
X25194800Y-21352941D01*
X25194800Y-21960659D01*
X25190652Y-22002774D01*
X25180158Y-22037367D01*
X25159013Y-22076927D01*
X25155044Y-22082866D01*
X25145665Y-22105503D01*
X25140882Y-22129536D01*
X25140880Y-22154040D01*
X25145658Y-22178074D01*
X25155033Y-22200714D01*
X25159006Y-22206661D01*
X25180158Y-22246233D01*
X25190652Y-22280826D01*
X25194800Y-22322941D01*
X25194800Y-22930659D01*
X25190652Y-22972774D01*
X25180158Y-23007367D01*
X25163122Y-23039240D01*
X25140186Y-23067186D01*
X25112240Y-23090122D01*
X25080367Y-23107158D01*
X25045774Y-23117652D01*
X25039761Y-23118244D01*
X25015728Y-23123025D01*
X24993089Y-23132402D01*
X24989365Y-23134890D01*
X24982676Y-23131315D01*
X24959227Y-23124202D01*
X24934841Y-23121800D01*
X24345941Y-23121800D01*
X24303826Y-23117652D01*
X24269233Y-23107158D01*
X24237360Y-23090122D01*
X24209414Y-23067186D01*
X24186478Y-23039240D01*
X24169442Y-23007367D01*
X24158948Y-22972774D01*
X24154800Y-22930659D01*
X24154800Y-22322941D01*
X24158948Y-22280826D01*
X24169442Y-22246233D01*
X24190587Y-22206673D01*
X24194556Y-22200734D01*
X24203935Y-22178097D01*
X24208718Y-22154064D01*
X24208720Y-22129560D01*
X24203942Y-22105526D01*
X24194567Y-22082886D01*
X24190594Y-22076939D01*
X24169442Y-22037367D01*
X24158948Y-22002774D01*
X24154800Y-21960659D01*
X24154800Y-21352941D01*
X24158948Y-21310826D01*
X24169442Y-21276233D01*
X24186478Y-21244360D01*
X24209414Y-21216414D01*
X24237360Y-21193478D01*
X24269233Y-21176442D01*
X24303826Y-21165948D01*
X24345941Y-21161800D01*
X25003659Y-21161800D01*
X25045774Y-21165948D01*
X25045774Y-21165948D01*
G37*
G36*
X29988614Y-20543788D02*
G01*
X30023207Y-20554282D01*
X30055080Y-20571318D01*
X30083026Y-20594254D01*
X30105962Y-20622200D01*
X30122998Y-20654073D01*
X30133492Y-20688666D01*
X30137640Y-20730781D01*
X30137640Y-21338499D01*
X30133492Y-21380614D01*
X30122998Y-21415207D01*
X30101853Y-21454767D01*
X30097884Y-21460706D01*
X30088505Y-21483343D01*
X30083722Y-21507376D01*
X30083720Y-21531880D01*
X30088498Y-21555914D01*
X30097873Y-21578554D01*
X30101846Y-21584501D01*
X30122998Y-21624073D01*
X30133492Y-21658666D01*
X30137640Y-21700781D01*
X30137640Y-22308499D01*
X30133492Y-22350614D01*
X30122998Y-22385207D01*
X30105962Y-22417080D01*
X30083026Y-22445026D01*
X30055080Y-22467962D01*
X30023207Y-22484998D01*
X29988614Y-22495492D01*
X29946499Y-22499640D01*
X29288781Y-22499640D01*
X29246666Y-22495492D01*
X29212073Y-22484998D01*
X29198883Y-22477948D01*
X29176244Y-22468570D01*
X29152211Y-22463790D01*
X29127707Y-22463790D01*
X29103674Y-22468570D01*
X29081035Y-22477948D01*
X29060660Y-22491561D01*
X29043333Y-22508888D01*
X29029720Y-22529263D01*
X29020342Y-22551902D01*
X29015562Y-22575935D01*
X29014960Y-22588187D01*
X29014960Y-22656339D01*
X29010812Y-22698454D01*
X29000318Y-22733047D01*
X28983282Y-22764920D01*
X28960346Y-22792866D01*
X28932400Y-22815802D01*
X28900527Y-22832838D01*
X28865934Y-22843332D01*
X28823819Y-22847480D01*
X28166101Y-22847480D01*
X28123986Y-22843332D01*
X28089393Y-22832838D01*
X28057520Y-22815802D01*
X28029574Y-22792866D01*
X28006638Y-22764920D01*
X27989602Y-22733047D01*
X27979108Y-22698454D01*
X27974960Y-22656339D01*
X27974960Y-22048621D01*
X27979108Y-22006506D01*
X27989602Y-21971913D01*
X28010747Y-21932353D01*
X28014716Y-21926414D01*
X28024095Y-21903777D01*
X28028878Y-21879744D01*
X28028880Y-21855240D01*
X28024102Y-21831206D01*
X28014727Y-21808566D01*
X28010754Y-21802619D01*
X27989602Y-21763047D01*
X27979108Y-21728454D01*
X27974960Y-21686339D01*
X27974960Y-21078621D01*
X27979108Y-21036506D01*
X27989602Y-21001913D01*
X28006638Y-20970040D01*
X28029574Y-20942094D01*
X28057520Y-20919158D01*
X28089393Y-20902122D01*
X28123986Y-20891628D01*
X28166101Y-20887480D01*
X28823819Y-20887480D01*
X28865934Y-20891628D01*
X28900527Y-20902122D01*
X28913717Y-20909172D01*
X28936356Y-20918550D01*
X28960389Y-20923330D01*
X28984893Y-20923330D01*
X29008926Y-20918550D01*
X29031565Y-20909172D01*
X29051940Y-20895559D01*
X29069267Y-20878232D01*
X29082880Y-20857857D01*
X29092258Y-20835218D01*
X29097038Y-20811185D01*
X29097640Y-20798933D01*
X29097640Y-20730781D01*
X29101788Y-20688666D01*
X29112282Y-20654073D01*
X29129318Y-20622200D01*
X29152254Y-20594254D01*
X29180200Y-20571318D01*
X29212073Y-20554282D01*
X29246666Y-20543788D01*
X29288781Y-20539640D01*
X29946499Y-20539640D01*
X29988614Y-20543788D01*
X29988614Y-20543788D01*
G37*
G36*
X32926130Y-21267677D02*
G01*
X32977610Y-21283293D01*
X33025045Y-21308648D01*
X33066627Y-21342773D01*
X33100752Y-21384355D01*
X33126107Y-21431790D01*
X33141723Y-21483270D01*
X33147600Y-21542940D01*
X33147600Y-22430660D01*
X33141723Y-22490330D01*
X33126107Y-22541810D01*
X33100752Y-22589245D01*
X33066627Y-22630827D01*
X33025045Y-22664952D01*
X32977610Y-22690307D01*
X32926130Y-22705923D01*
X32866460Y-22711800D01*
X32078740Y-22711800D01*
X32019070Y-22705923D01*
X31967590Y-22690307D01*
X31920155Y-22664952D01*
X31878573Y-22630827D01*
X31844448Y-22589245D01*
X31819093Y-22541810D01*
X31803477Y-22490330D01*
X31797600Y-22430660D01*
X31797600Y-21542940D01*
X31803477Y-21483270D01*
X31819093Y-21431790D01*
X31844448Y-21384355D01*
X31878573Y-21342773D01*
X31920155Y-21308648D01*
X31967590Y-21283293D01*
X32019070Y-21267677D01*
X32078740Y-21261800D01*
X32866460Y-21261800D01*
X32926130Y-21267677D01*
X32926130Y-21267677D01*
G37*
G36*
X12597774Y-21625948D02*
G01*
X12632367Y-21636442D01*
X12671927Y-21657587D01*
X12677866Y-21661556D01*
X12700503Y-21670935D01*
X12724536Y-21675718D01*
X12749040Y-21675720D01*
X12773074Y-21670942D01*
X12795714Y-21661567D01*
X12801661Y-21657594D01*
X12841233Y-21636442D01*
X12875826Y-21625948D01*
X12917941Y-21621800D01*
X13525659Y-21621800D01*
X13567774Y-21625948D01*
X13602367Y-21636442D01*
X13634240Y-21653478D01*
X13662186Y-21676414D01*
X13685122Y-21704360D01*
X13702158Y-21736233D01*
X13712652Y-21770826D01*
X13716800Y-21812941D01*
X13716800Y-22470659D01*
X13712652Y-22512774D01*
X13702158Y-22547367D01*
X13685122Y-22579240D01*
X13662186Y-22607186D01*
X13634240Y-22630122D01*
X13602367Y-22647158D01*
X13567774Y-22657652D01*
X13525659Y-22661800D01*
X12917941Y-22661800D01*
X12875826Y-22657652D01*
X12841233Y-22647158D01*
X12801673Y-22626013D01*
X12795734Y-22622044D01*
X12773097Y-22612665D01*
X12749064Y-22607882D01*
X12724560Y-22607880D01*
X12700526Y-22612658D01*
X12677886Y-22622033D01*
X12671939Y-22626006D01*
X12632367Y-22647158D01*
X12597774Y-22657652D01*
X12555659Y-22661800D01*
X11947941Y-22661800D01*
X11905826Y-22657652D01*
X11871233Y-22647158D01*
X11839360Y-22630122D01*
X11811414Y-22607186D01*
X11788478Y-22579240D01*
X11771442Y-22547367D01*
X11760948Y-22512774D01*
X11756800Y-22470659D01*
X11756800Y-21812941D01*
X11760948Y-21770826D01*
X11771442Y-21736233D01*
X11788478Y-21704360D01*
X11811414Y-21676414D01*
X11839360Y-21653478D01*
X11871233Y-21636442D01*
X11905826Y-21625948D01*
X11947941Y-21621800D01*
X12555659Y-21621800D01*
X12597774Y-21625948D01*
X12597774Y-21625948D01*
G37*
G36*
X16343349Y-17561660D02*
G01*
X16367851Y-17561660D01*
X16386738Y-17559800D01*
X16824462Y-17559800D01*
X16843349Y-17561660D01*
X16867851Y-17561660D01*
X16886738Y-17559800D01*
X17324462Y-17559800D01*
X17343349Y-17561660D01*
X17367851Y-17561660D01*
X17386738Y-17559800D01*
X17824462Y-17559800D01*
X17843349Y-17561660D01*
X17867851Y-17561660D01*
X17886738Y-17559800D01*
X18324462Y-17559800D01*
X18349992Y-17562314D01*
X18368635Y-17567970D01*
X18385822Y-17577157D01*
X18400883Y-17589517D01*
X18413243Y-17604578D01*
X18422430Y-17621765D01*
X18428086Y-17640408D01*
X18430600Y-17665938D01*
X18430600Y-18600194D01*
X18433002Y-18624580D01*
X18440115Y-18648029D01*
X18451666Y-18669640D01*
X18467211Y-18688582D01*
X18476301Y-18696820D01*
X18499523Y-18715877D01*
X18518580Y-18739099D01*
X18535907Y-18756426D01*
X18556281Y-18770040D01*
X18578920Y-18779417D01*
X18602953Y-18784198D01*
X18615206Y-18784800D01*
X19549462Y-18784800D01*
X19574992Y-18787314D01*
X19593635Y-18792970D01*
X19610822Y-18802157D01*
X19625883Y-18814517D01*
X19638243Y-18829578D01*
X19647430Y-18846765D01*
X19653086Y-18865408D01*
X19655600Y-18890938D01*
X19655600Y-19328662D01*
X19653740Y-19347549D01*
X19653740Y-19372051D01*
X19655600Y-19390938D01*
X19655600Y-19828662D01*
X19653740Y-19847549D01*
X19653740Y-19872051D01*
X19655600Y-19890938D01*
X19655600Y-20328662D01*
X19653740Y-20347549D01*
X19653740Y-20372051D01*
X19655600Y-20390938D01*
X19655600Y-20828662D01*
X19653740Y-20847549D01*
X19653740Y-20872051D01*
X19655600Y-20890938D01*
X19655600Y-21328662D01*
X19653086Y-21354192D01*
X19647430Y-21372835D01*
X19638243Y-21390022D01*
X19625883Y-21405083D01*
X19610822Y-21417443D01*
X19593635Y-21426630D01*
X19574992Y-21432286D01*
X19549462Y-21434800D01*
X18615206Y-21434800D01*
X18590820Y-21437202D01*
X18567371Y-21444315D01*
X18545760Y-21455866D01*
X18526818Y-21471411D01*
X18518580Y-21480501D01*
X18499523Y-21503723D01*
X18476301Y-21522780D01*
X18458974Y-21540107D01*
X18445360Y-21560481D01*
X18435983Y-21583120D01*
X18431202Y-21607153D01*
X18430600Y-21619406D01*
X18430600Y-22553662D01*
X18428086Y-22579192D01*
X18422430Y-22597835D01*
X18413243Y-22615022D01*
X18400883Y-22630083D01*
X18385822Y-22642443D01*
X18368635Y-22651630D01*
X18349992Y-22657286D01*
X18324462Y-22659800D01*
X17886738Y-22659800D01*
X17867851Y-22657940D01*
X17843349Y-22657940D01*
X17824462Y-22659800D01*
X17386738Y-22659800D01*
X17367851Y-22657940D01*
X17343349Y-22657940D01*
X17324462Y-22659800D01*
X16886738Y-22659800D01*
X16867851Y-22657940D01*
X16843349Y-22657940D01*
X16824462Y-22659800D01*
X16386738Y-22659800D01*
X16367851Y-22657940D01*
X16343349Y-22657940D01*
X16324462Y-22659800D01*
X15886738Y-22659800D01*
X15861208Y-22657286D01*
X15842565Y-22651630D01*
X15825378Y-22642443D01*
X15810317Y-22630083D01*
X15797957Y-22615022D01*
X15788770Y-22597835D01*
X15783114Y-22579192D01*
X15780600Y-22553662D01*
X15780600Y-21619406D01*
X15778198Y-21595020D01*
X15771085Y-21571571D01*
X15759534Y-21549960D01*
X15743989Y-21531018D01*
X15734899Y-21522780D01*
X15711677Y-21503723D01*
X15692620Y-21480501D01*
X15675293Y-21463174D01*
X15654919Y-21449560D01*
X15632280Y-21440183D01*
X15608247Y-21435402D01*
X15595994Y-21434800D01*
X14661738Y-21434800D01*
X14636208Y-21432286D01*
X14617565Y-21426630D01*
X14600378Y-21417443D01*
X14585317Y-21405083D01*
X14572957Y-21390022D01*
X14563770Y-21372835D01*
X14558114Y-21354192D01*
X14555600Y-21328662D01*
X14555600Y-20890938D01*
X14557460Y-20872051D01*
X14557460Y-20847549D01*
X14555600Y-20828662D01*
X14555600Y-20390938D01*
X14557460Y-20372051D01*
X14557460Y-20347549D01*
X14555600Y-20328662D01*
X14555600Y-19890938D01*
X14557460Y-19872051D01*
X14557460Y-19847549D01*
X14555600Y-19828662D01*
X14555600Y-19390938D01*
X14557460Y-19372051D01*
X14557460Y-19347549D01*
X14555600Y-19328662D01*
X14555600Y-18890938D01*
X14558114Y-18865408D01*
X14563770Y-18846765D01*
X14572957Y-18829578D01*
X14585317Y-18814517D01*
X14600378Y-18802157D01*
X14617565Y-18792970D01*
X14636208Y-18787314D01*
X14661738Y-18784800D01*
X15595994Y-18784800D01*
X15620380Y-18782398D01*
X15643829Y-18775285D01*
X15665440Y-18763734D01*
X15684382Y-18748189D01*
X15692620Y-18739099D01*
X15711677Y-18715877D01*
X15734899Y-18696820D01*
X15752226Y-18679493D01*
X15765840Y-18659119D01*
X15775217Y-18636480D01*
X15779998Y-18612447D01*
X15780600Y-18600194D01*
X15780600Y-17665938D01*
X15783114Y-17640408D01*
X15788770Y-17621765D01*
X15797957Y-17604578D01*
X15810317Y-17589517D01*
X15825378Y-17577157D01*
X15842565Y-17567970D01*
X15861208Y-17562314D01*
X15886738Y-17559800D01*
X16324462Y-17559800D01*
X16343349Y-17561660D01*
X16343349Y-17561660D01*
G37*
G36*
X30314414Y-19248508D02*
G01*
X30349007Y-19259002D01*
X30388567Y-19280147D01*
X30394506Y-19284116D01*
X30417143Y-19293495D01*
X30441176Y-19298278D01*
X30465680Y-19298280D01*
X30489714Y-19293502D01*
X30512354Y-19284127D01*
X30518301Y-19280154D01*
X30557873Y-19259002D01*
X30592466Y-19248508D01*
X30634581Y-19244360D01*
X31242299Y-19244360D01*
X31284414Y-19248508D01*
X31319007Y-19259002D01*
X31350880Y-19276038D01*
X31378826Y-19298974D01*
X31401762Y-19326920D01*
X31418798Y-19358793D01*
X31429292Y-19393386D01*
X31433440Y-19435501D01*
X31433440Y-20093219D01*
X31429292Y-20135334D01*
X31418798Y-20169927D01*
X31401762Y-20201800D01*
X31378826Y-20229746D01*
X31350880Y-20252682D01*
X31319007Y-20269718D01*
X31284414Y-20280212D01*
X31260748Y-20282543D01*
X31236715Y-20287324D01*
X31214076Y-20296702D01*
X31193702Y-20310316D01*
X31176375Y-20327643D01*
X31162762Y-20348018D01*
X31153385Y-20370657D01*
X31148605Y-20394690D01*
X31148605Y-20419194D01*
X31153386Y-20443227D01*
X31162764Y-20465866D01*
X31176378Y-20486240D01*
X31193705Y-20503567D01*
X31214080Y-20517180D01*
X31236719Y-20526557D01*
X31260750Y-20531337D01*
X31284014Y-20533628D01*
X31318607Y-20544122D01*
X31350480Y-20561158D01*
X31378426Y-20584094D01*
X31401362Y-20612040D01*
X31418398Y-20643913D01*
X31428892Y-20678506D01*
X31433040Y-20720621D01*
X31433040Y-21328339D01*
X31428892Y-21370454D01*
X31418398Y-21405047D01*
X31397253Y-21444607D01*
X31393284Y-21450546D01*
X31383905Y-21473183D01*
X31379122Y-21497216D01*
X31379120Y-21521720D01*
X31383898Y-21545754D01*
X31393273Y-21568394D01*
X31397246Y-21574341D01*
X31418398Y-21613913D01*
X31428892Y-21648506D01*
X31433040Y-21690621D01*
X31433040Y-22298339D01*
X31428892Y-22340454D01*
X31418398Y-22375047D01*
X31401362Y-22406920D01*
X31378426Y-22434866D01*
X31350480Y-22457802D01*
X31318607Y-22474838D01*
X31284014Y-22485332D01*
X31241899Y-22489480D01*
X30584181Y-22489480D01*
X30542066Y-22485332D01*
X30507473Y-22474838D01*
X30475600Y-22457802D01*
X30447654Y-22434866D01*
X30424718Y-22406920D01*
X30407682Y-22375047D01*
X30397188Y-22340454D01*
X30393040Y-22298339D01*
X30393040Y-21690621D01*
X30397188Y-21648506D01*
X30407682Y-21613913D01*
X30428827Y-21574353D01*
X30432796Y-21568414D01*
X30442175Y-21545777D01*
X30446958Y-21521744D01*
X30446960Y-21497240D01*
X30442182Y-21473206D01*
X30432807Y-21450566D01*
X30428834Y-21444619D01*
X30407682Y-21405047D01*
X30397188Y-21370454D01*
X30393040Y-21328339D01*
X30393040Y-20720621D01*
X30397188Y-20678506D01*
X30407682Y-20643913D01*
X30424718Y-20612040D01*
X30447654Y-20584094D01*
X30475600Y-20561158D01*
X30507473Y-20544122D01*
X30542066Y-20533628D01*
X30590293Y-20528878D01*
X30590242Y-20528364D01*
X30603302Y-20527078D01*
X30626751Y-20519965D01*
X30648362Y-20508414D01*
X30667304Y-20492869D01*
X30682849Y-20473927D01*
X30694400Y-20452316D01*
X30701513Y-20428867D01*
X30703915Y-20404481D01*
X30701513Y-20380095D01*
X30694400Y-20356646D01*
X30682849Y-20335035D01*
X30667304Y-20316093D01*
X30648362Y-20300548D01*
X30626751Y-20288997D01*
X30596198Y-20281344D01*
X30557873Y-20269718D01*
X30518313Y-20248573D01*
X30512374Y-20244604D01*
X30489737Y-20235225D01*
X30465704Y-20230442D01*
X30441200Y-20230440D01*
X30417166Y-20235218D01*
X30394526Y-20244593D01*
X30388579Y-20248566D01*
X30349007Y-20269718D01*
X30314414Y-20280212D01*
X30272299Y-20284360D01*
X29664581Y-20284360D01*
X29622466Y-20280212D01*
X29587873Y-20269718D01*
X29556000Y-20252682D01*
X29528054Y-20229746D01*
X29505118Y-20201800D01*
X29488082Y-20169927D01*
X29477588Y-20135334D01*
X29473440Y-20093219D01*
X29473440Y-19435501D01*
X29477588Y-19393386D01*
X29488082Y-19358793D01*
X29505118Y-19326920D01*
X29528054Y-19298974D01*
X29556000Y-19276038D01*
X29587873Y-19259002D01*
X29622466Y-19248508D01*
X29664581Y-19244360D01*
X30272299Y-19244360D01*
X30314414Y-19248508D01*
X30314414Y-19248508D01*
G37*
G36*
X9192222Y-20824117D02*
G01*
X9240185Y-20838666D01*
X9284378Y-20862288D01*
X9323119Y-20894081D01*
X9354912Y-20932822D01*
X9378534Y-20977015D01*
X9393083Y-21024978D01*
X9398600Y-21080991D01*
X9398600Y-21831206D01*
X9393083Y-21887222D01*
X9378534Y-21935185D01*
X9354912Y-21979378D01*
X9323119Y-22018119D01*
X9284378Y-22049912D01*
X9240185Y-22073534D01*
X9192222Y-22088083D01*
X9136209Y-22093600D01*
X8310991Y-22093600D01*
X8254978Y-22088083D01*
X8207015Y-22073534D01*
X8162822Y-22049912D01*
X8124081Y-22018119D01*
X8092288Y-21979378D01*
X8068666Y-21935185D01*
X8054117Y-21887222D01*
X8048600Y-21831206D01*
X8048600Y-21080991D01*
X8054117Y-21024978D01*
X8068666Y-20977015D01*
X8092288Y-20932822D01*
X8124081Y-20894081D01*
X8162822Y-20862288D01*
X8207015Y-20838666D01*
X8254978Y-20824117D01*
X8310991Y-20818600D01*
X9136209Y-20818600D01*
X9192222Y-20824117D01*
X9192222Y-20824117D01*
G37*
G36*
X7160222Y-20824117D02*
G01*
X7208185Y-20838666D01*
X7252378Y-20862288D01*
X7291119Y-20894081D01*
X7322912Y-20932822D01*
X7346534Y-20977015D01*
X7361083Y-21024978D01*
X7366600Y-21080991D01*
X7366600Y-21831206D01*
X7361083Y-21887222D01*
X7346534Y-21935185D01*
X7322912Y-21979378D01*
X7291119Y-22018119D01*
X7252378Y-22049912D01*
X7208185Y-22073534D01*
X7160222Y-22088083D01*
X7104209Y-22093600D01*
X6278991Y-22093600D01*
X6222978Y-22088083D01*
X6175015Y-22073534D01*
X6130822Y-22049912D01*
X6092081Y-22018119D01*
X6060288Y-21979378D01*
X6036666Y-21935185D01*
X6022117Y-21887222D01*
X6016600Y-21831206D01*
X6016600Y-21080991D01*
X6022117Y-21024978D01*
X6036666Y-20977015D01*
X6060288Y-20932822D01*
X6092081Y-20894081D01*
X6130822Y-20862288D01*
X6175015Y-20838666D01*
X6222978Y-20824117D01*
X6278991Y-20818600D01*
X7104209Y-20818600D01*
X7160222Y-20824117D01*
X7160222Y-20824117D01*
G37*
G36*
X32926130Y-19517677D02*
G01*
X32977610Y-19533293D01*
X33025045Y-19558648D01*
X33066627Y-19592773D01*
X33100752Y-19634355D01*
X33126107Y-19681790D01*
X33141723Y-19733270D01*
X33147600Y-19792940D01*
X33147600Y-20680660D01*
X33141723Y-20740330D01*
X33126107Y-20791810D01*
X33100752Y-20839245D01*
X33066627Y-20880827D01*
X33025045Y-20914952D01*
X32977610Y-20940307D01*
X32926130Y-20955923D01*
X32866460Y-20961800D01*
X32078740Y-20961800D01*
X32019070Y-20955923D01*
X31967590Y-20940307D01*
X31920155Y-20914952D01*
X31878573Y-20880827D01*
X31844448Y-20839245D01*
X31819093Y-20791810D01*
X31803477Y-20740330D01*
X31797600Y-20680660D01*
X31797600Y-19792940D01*
X31803477Y-19733270D01*
X31819093Y-19681790D01*
X31844448Y-19634355D01*
X31878573Y-19592773D01*
X31920155Y-19558648D01*
X31967590Y-19533293D01*
X32019070Y-19517677D01*
X32078740Y-19511800D01*
X32866460Y-19511800D01*
X32926130Y-19517677D01*
X32926130Y-19517677D01*
G37*
G36*
X12597774Y-19847948D02*
G01*
X12632367Y-19858442D01*
X12671927Y-19879587D01*
X12677866Y-19883556D01*
X12700503Y-19892935D01*
X12724536Y-19897718D01*
X12749040Y-19897720D01*
X12773074Y-19892942D01*
X12795714Y-19883567D01*
X12801661Y-19879594D01*
X12841233Y-19858442D01*
X12875826Y-19847948D01*
X12917941Y-19843800D01*
X13525659Y-19843800D01*
X13567774Y-19847948D01*
X13602367Y-19858442D01*
X13634240Y-19875478D01*
X13662186Y-19898414D01*
X13685122Y-19926360D01*
X13702158Y-19958233D01*
X13712652Y-19992826D01*
X13716800Y-20034941D01*
X13716800Y-20692659D01*
X13712652Y-20734774D01*
X13702158Y-20769367D01*
X13685122Y-20801240D01*
X13662186Y-20829186D01*
X13634240Y-20852122D01*
X13602367Y-20869158D01*
X13567774Y-20879652D01*
X13525659Y-20883800D01*
X12917941Y-20883800D01*
X12875826Y-20879652D01*
X12841233Y-20869158D01*
X12801673Y-20848013D01*
X12795734Y-20844044D01*
X12773097Y-20834665D01*
X12749064Y-20829882D01*
X12724560Y-20829880D01*
X12700526Y-20834658D01*
X12677886Y-20844033D01*
X12671939Y-20848006D01*
X12632367Y-20869158D01*
X12597774Y-20879652D01*
X12555659Y-20883800D01*
X11947941Y-20883800D01*
X11905826Y-20879652D01*
X11871233Y-20869158D01*
X11839360Y-20852122D01*
X11811414Y-20829186D01*
X11788478Y-20801240D01*
X11771442Y-20769367D01*
X11760948Y-20734774D01*
X11756800Y-20692659D01*
X11756800Y-20034941D01*
X11760948Y-19992826D01*
X11771442Y-19958233D01*
X11788478Y-19926360D01*
X11811414Y-19898414D01*
X11839360Y-19875478D01*
X11871233Y-19858442D01*
X11905826Y-19847948D01*
X11947941Y-19843800D01*
X12555659Y-19843800D01*
X12597774Y-19847948D01*
X12597774Y-19847948D01*
G37*
G36*
X9192222Y-19249117D02*
G01*
X9240185Y-19263666D01*
X9284378Y-19287288D01*
X9323119Y-19319081D01*
X9354912Y-19357822D01*
X9378534Y-19402015D01*
X9393083Y-19449978D01*
X9398600Y-19505991D01*
X9398600Y-20256209D01*
X9393083Y-20312222D01*
X9378534Y-20360185D01*
X9354912Y-20404378D01*
X9323119Y-20443119D01*
X9284378Y-20474912D01*
X9240185Y-20498534D01*
X9192222Y-20513083D01*
X9136209Y-20518600D01*
X8310991Y-20518600D01*
X8254978Y-20513083D01*
X8207015Y-20498534D01*
X8162822Y-20474912D01*
X8124081Y-20443119D01*
X8092288Y-20404378D01*
X8068666Y-20360185D01*
X8054117Y-20312222D01*
X8048600Y-20256209D01*
X8048600Y-19505991D01*
X8054117Y-19449978D01*
X8068666Y-19402015D01*
X8092288Y-19357822D01*
X8124081Y-19319081D01*
X8162822Y-19287288D01*
X8207015Y-19263666D01*
X8254978Y-19249117D01*
X8310991Y-19243600D01*
X9136209Y-19243600D01*
X9192222Y-19249117D01*
X9192222Y-19249117D01*
G37*
G36*
X7160222Y-19249117D02*
G01*
X7208185Y-19263666D01*
X7252378Y-19287288D01*
X7291119Y-19319081D01*
X7322912Y-19357822D01*
X7346534Y-19402015D01*
X7361083Y-19449978D01*
X7366600Y-19505991D01*
X7366600Y-20256209D01*
X7361083Y-20312222D01*
X7346534Y-20360185D01*
X7322912Y-20404378D01*
X7291119Y-20443119D01*
X7252378Y-20474912D01*
X7208185Y-20498534D01*
X7160222Y-20513083D01*
X7104209Y-20518600D01*
X6278991Y-20518600D01*
X6222978Y-20513083D01*
X6175015Y-20498534D01*
X6130822Y-20474912D01*
X6092081Y-20443119D01*
X6060288Y-20404378D01*
X6036666Y-20360185D01*
X6022117Y-20312222D01*
X6016600Y-20256209D01*
X6016600Y-19505991D01*
X6022117Y-19449978D01*
X6036666Y-19402015D01*
X6060288Y-19357822D01*
X6092081Y-19319081D01*
X6130822Y-19287288D01*
X6175015Y-19263666D01*
X6222978Y-19249117D01*
X6278991Y-19243600D01*
X7104209Y-19243600D01*
X7160222Y-19249117D01*
X7160222Y-19249117D01*
G37*
G36*
X2679200Y-11479401D02*
G01*
X2681602Y-11503787D01*
X2688715Y-11527236D01*
X2700266Y-11548847D01*
X2715811Y-11567789D01*
X2734753Y-11583334D01*
X2756364Y-11594885D01*
X2779813Y-11601998D01*
X2804199Y-11604400D01*
X5079200Y-11604400D01*
X5079200Y-18404400D01*
X2804199Y-18404400D01*
X2779813Y-18406802D01*
X2756364Y-18413915D01*
X2734753Y-18425466D01*
X2715811Y-18441011D01*
X2700266Y-18459953D01*
X2688715Y-18481564D01*
X2681602Y-18505013D01*
X2679200Y-18529399D01*
X2679200Y-19301900D01*
X379200Y-19301900D01*
X379200Y-13604399D01*
X2679200Y-13604399D01*
X2679200Y-16404401D01*
X2681602Y-16428787D01*
X2688715Y-16452236D01*
X2700266Y-16473847D01*
X2715811Y-16492789D01*
X2734753Y-16508334D01*
X2756364Y-16519885D01*
X2779813Y-16526998D01*
X2804199Y-16529400D01*
X3174201Y-16529400D01*
X3198587Y-16526998D01*
X3222036Y-16519885D01*
X3243647Y-16508334D01*
X3262589Y-16492789D01*
X3278134Y-16473847D01*
X3289685Y-16452236D01*
X3296798Y-16428787D01*
X3299200Y-16404401D01*
X3299200Y-13604399D01*
X3296798Y-13580013D01*
X3289685Y-13556564D01*
X3278134Y-13534953D01*
X3262589Y-13516011D01*
X3243647Y-13500466D01*
X3222036Y-13488915D01*
X3198587Y-13481802D01*
X3174201Y-13479400D01*
X2804199Y-13479400D01*
X2779813Y-13481802D01*
X2756364Y-13488915D01*
X2734753Y-13500466D01*
X2715811Y-13516011D01*
X2700266Y-13534953D01*
X2688715Y-13556564D01*
X2681602Y-13580013D01*
X2679200Y-13604399D01*
X379200Y-13604399D01*
X379200Y-10706900D01*
X2679200Y-10706900D01*
X2679200Y-11479401D01*
X2679200Y-11479401D01*
G37*
G36*
X33022548Y-16073922D02*
G01*
X33286431Y-16183226D01*
X33286433Y-16183227D01*
X33523921Y-16341911D01*
X33725889Y-16543879D01*
X33874238Y-16765900D01*
X33884574Y-16781369D01*
X33993878Y-17045252D01*
X34049600Y-17325386D01*
X34049600Y-17611014D01*
X33993878Y-17891148D01*
X33974728Y-17937380D01*
X33884573Y-18155033D01*
X33725889Y-18392521D01*
X33523921Y-18594489D01*
X33286433Y-18753173D01*
X33286432Y-18753174D01*
X33286431Y-18753174D01*
X33022548Y-18862478D01*
X32742414Y-18918200D01*
X32456786Y-18918200D01*
X32176652Y-18862478D01*
X31912769Y-18753174D01*
X31912768Y-18753174D01*
X31912767Y-18753173D01*
X31675279Y-18594489D01*
X31473311Y-18392521D01*
X31314627Y-18155033D01*
X31224472Y-17937380D01*
X31205322Y-17891148D01*
X31149600Y-17611014D01*
X31149600Y-17325386D01*
X31205322Y-17045252D01*
X31314626Y-16781369D01*
X31324962Y-16765900D01*
X31473311Y-16543879D01*
X31675279Y-16341911D01*
X31912767Y-16183227D01*
X31912769Y-16183226D01*
X32176652Y-16073922D01*
X32456786Y-16018200D01*
X32742414Y-16018200D01*
X33022548Y-16073922D01*
X33022548Y-16073922D01*
G37*
G36*
X38102548Y-16073922D02*
G01*
X38366431Y-16183226D01*
X38366433Y-16183227D01*
X38603921Y-16341911D01*
X38805889Y-16543879D01*
X38954238Y-16765900D01*
X38964574Y-16781369D01*
X39073878Y-17045252D01*
X39129600Y-17325386D01*
X39129600Y-17611014D01*
X39073878Y-17891148D01*
X39054728Y-17937380D01*
X38964573Y-18155033D01*
X38805889Y-18392521D01*
X38603921Y-18594489D01*
X38366433Y-18753173D01*
X38366432Y-18753174D01*
X38366431Y-18753174D01*
X38102548Y-18862478D01*
X37822414Y-18918200D01*
X37536786Y-18918200D01*
X37256652Y-18862478D01*
X36992769Y-18753174D01*
X36992768Y-18753174D01*
X36992767Y-18753173D01*
X36755279Y-18594489D01*
X36553311Y-18392521D01*
X36394627Y-18155033D01*
X36304472Y-17937380D01*
X36285322Y-17891148D01*
X36229600Y-17611014D01*
X36229600Y-17325386D01*
X36285322Y-17045252D01*
X36394626Y-16781369D01*
X36404962Y-16765900D01*
X36553311Y-16543879D01*
X36755279Y-16341911D01*
X36992767Y-16183227D01*
X36992769Y-16183226D01*
X37256652Y-16073922D01*
X37536786Y-16018200D01*
X37822414Y-16018200D01*
X38102548Y-16073922D01*
X38102548Y-16073922D01*
G37*
G36*
X6624930Y-17510277D02*
G01*
X6676410Y-17525893D01*
X6723845Y-17551248D01*
X6765427Y-17585373D01*
X6799552Y-17626955D01*
X6824907Y-17674390D01*
X6840523Y-17725870D01*
X6846400Y-17785540D01*
X6846400Y-18573260D01*
X6840523Y-18632930D01*
X6824907Y-18684410D01*
X6799552Y-18731845D01*
X6765427Y-18773427D01*
X6723845Y-18807552D01*
X6676410Y-18832907D01*
X6624930Y-18848523D01*
X6565260Y-18854400D01*
X5677540Y-18854400D01*
X5617870Y-18848523D01*
X5566390Y-18832907D01*
X5518955Y-18807552D01*
X5477373Y-18773427D01*
X5443248Y-18731845D01*
X5417893Y-18684410D01*
X5402277Y-18632930D01*
X5396400Y-18573260D01*
X5396400Y-17785540D01*
X5402277Y-17725870D01*
X5417893Y-17674390D01*
X5443248Y-17626955D01*
X5477373Y-17585373D01*
X5518955Y-17551248D01*
X5566390Y-17525893D01*
X5617870Y-17510277D01*
X5677540Y-17504400D01*
X6565260Y-17504400D01*
X6624930Y-17510277D01*
X6624930Y-17510277D01*
G37*
G36*
X8374930Y-17510277D02*
G01*
X8426410Y-17525893D01*
X8473845Y-17551248D01*
X8515427Y-17585373D01*
X8549552Y-17626955D01*
X8574907Y-17674390D01*
X8590523Y-17725870D01*
X8596400Y-17785540D01*
X8596400Y-18573260D01*
X8590523Y-18632930D01*
X8574907Y-18684410D01*
X8549552Y-18731845D01*
X8515427Y-18773427D01*
X8473845Y-18807552D01*
X8426410Y-18832907D01*
X8374930Y-18848523D01*
X8315260Y-18854400D01*
X7427540Y-18854400D01*
X7367870Y-18848523D01*
X7316390Y-18832907D01*
X7268955Y-18807552D01*
X7227373Y-18773427D01*
X7193248Y-18731845D01*
X7167893Y-18684410D01*
X7152277Y-18632930D01*
X7146400Y-18573260D01*
X7146400Y-17785540D01*
X7152277Y-17725870D01*
X7167893Y-17674390D01*
X7193248Y-17626955D01*
X7227373Y-17585373D01*
X7268955Y-17551248D01*
X7316390Y-17525893D01*
X7367870Y-17510277D01*
X7427540Y-17504400D01*
X8315260Y-17504400D01*
X8374930Y-17510277D01*
X8374930Y-17510277D01*
G37*
G36*
X10231730Y-17510277D02*
G01*
X10283210Y-17525893D01*
X10330645Y-17551248D01*
X10372227Y-17585373D01*
X10406352Y-17626955D01*
X10431707Y-17674390D01*
X10447323Y-17725870D01*
X10453200Y-17785540D01*
X10453200Y-18573260D01*
X10447323Y-18632930D01*
X10431707Y-18684410D01*
X10406352Y-18731845D01*
X10372227Y-18773427D01*
X10330645Y-18807552D01*
X10283210Y-18832907D01*
X10231730Y-18848523D01*
X10172060Y-18854400D01*
X9284340Y-18854400D01*
X9224670Y-18848523D01*
X9173190Y-18832907D01*
X9125755Y-18807552D01*
X9084173Y-18773427D01*
X9050048Y-18731845D01*
X9024693Y-18684410D01*
X9009077Y-18632930D01*
X9003200Y-18573260D01*
X9003200Y-17785540D01*
X9009077Y-17725870D01*
X9024693Y-17674390D01*
X9050048Y-17626955D01*
X9084173Y-17585373D01*
X9125755Y-17551248D01*
X9173190Y-17525893D01*
X9224670Y-17510277D01*
X9284340Y-17504400D01*
X10172060Y-17504400D01*
X10231730Y-17510277D01*
X10231730Y-17510277D01*
G37*
G36*
X11981730Y-17510277D02*
G01*
X12033210Y-17525893D01*
X12080645Y-17551248D01*
X12122227Y-17585373D01*
X12156352Y-17626955D01*
X12181707Y-17674390D01*
X12197323Y-17725870D01*
X12203200Y-17785540D01*
X12203200Y-18573260D01*
X12197323Y-18632930D01*
X12181707Y-18684410D01*
X12156352Y-18731845D01*
X12122227Y-18773427D01*
X12080645Y-18807552D01*
X12033210Y-18832907D01*
X11981730Y-18848523D01*
X11922060Y-18854400D01*
X11034340Y-18854400D01*
X10974670Y-18848523D01*
X10923190Y-18832907D01*
X10875755Y-18807552D01*
X10834173Y-18773427D01*
X10800048Y-18731845D01*
X10774693Y-18684410D01*
X10759077Y-18632930D01*
X10753200Y-18573260D01*
X10753200Y-17785540D01*
X10759077Y-17725870D01*
X10774693Y-17674390D01*
X10800048Y-17626955D01*
X10834173Y-17585373D01*
X10875755Y-17551248D01*
X10923190Y-17525893D01*
X10974670Y-17510277D01*
X11034340Y-17504400D01*
X11922060Y-17504400D01*
X11981730Y-17510277D01*
X11981730Y-17510277D01*
G37*
G36*
X30311734Y-14402188D02*
G01*
X30346327Y-14412682D01*
X30385887Y-14433827D01*
X30391826Y-14437796D01*
X30414463Y-14447175D01*
X30438496Y-14451958D01*
X30463000Y-14451960D01*
X30487034Y-14447182D01*
X30509674Y-14437807D01*
X30515621Y-14433834D01*
X30555193Y-14412682D01*
X30589786Y-14402188D01*
X30631901Y-14398040D01*
X31239619Y-14398040D01*
X31281734Y-14402188D01*
X31316327Y-14412682D01*
X31348200Y-14429718D01*
X31376146Y-14452654D01*
X31399082Y-14480600D01*
X31416118Y-14512473D01*
X31426612Y-14547066D01*
X31430760Y-14589181D01*
X31430760Y-15246899D01*
X31426612Y-15289014D01*
X31416118Y-15323607D01*
X31399082Y-15355480D01*
X31376146Y-15383426D01*
X31348200Y-15406362D01*
X31316327Y-15423398D01*
X31281734Y-15433892D01*
X31239619Y-15438040D01*
X30631901Y-15438040D01*
X30589785Y-15433892D01*
X30577754Y-15430242D01*
X30553721Y-15425461D01*
X30529216Y-15425461D01*
X30505183Y-15430241D01*
X30482544Y-15439618D01*
X30462170Y-15453232D01*
X30444843Y-15470559D01*
X30431229Y-15490933D01*
X30421852Y-15513572D01*
X30417071Y-15537605D01*
X30417071Y-15562110D01*
X30421851Y-15586143D01*
X30431228Y-15608782D01*
X30444843Y-15629158D01*
X30446322Y-15630960D01*
X30463358Y-15662833D01*
X30473852Y-15697426D01*
X30478000Y-15739541D01*
X30478000Y-16347259D01*
X30473852Y-16389374D01*
X30463358Y-16423967D01*
X30442213Y-16463527D01*
X30438244Y-16469466D01*
X30428865Y-16492103D01*
X30424082Y-16516136D01*
X30424080Y-16540640D01*
X30428858Y-16564674D01*
X30438233Y-16587314D01*
X30442206Y-16593261D01*
X30463358Y-16632833D01*
X30473852Y-16667426D01*
X30478000Y-16709541D01*
X30478000Y-17317259D01*
X30473852Y-17359374D01*
X30463358Y-17393967D01*
X30446322Y-17425840D01*
X30423386Y-17453786D01*
X30395442Y-17476720D01*
X30363895Y-17493582D01*
X30343520Y-17507196D01*
X30326193Y-17524523D01*
X30312579Y-17544897D01*
X30303202Y-17567536D01*
X30298421Y-17591569D01*
X30298421Y-17616073D01*
X30303201Y-17640106D01*
X30312578Y-17662745D01*
X30326192Y-17683120D01*
X30343519Y-17700447D01*
X30363894Y-17714061D01*
X30377920Y-17721558D01*
X30405866Y-17744494D01*
X30428802Y-17772440D01*
X30445838Y-17804313D01*
X30456332Y-17838906D01*
X30460480Y-17881021D01*
X30460480Y-18538739D01*
X30456332Y-18580854D01*
X30445838Y-18615447D01*
X30428802Y-18647320D01*
X30405866Y-18675266D01*
X30377920Y-18698202D01*
X30346047Y-18715238D01*
X30311454Y-18725732D01*
X30269339Y-18729880D01*
X29661621Y-18729880D01*
X29619506Y-18725732D01*
X29584913Y-18715238D01*
X29545353Y-18694093D01*
X29539414Y-18690124D01*
X29516777Y-18680745D01*
X29492744Y-18675962D01*
X29468240Y-18675960D01*
X29444206Y-18680738D01*
X29421566Y-18690113D01*
X29415619Y-18694086D01*
X29376047Y-18715238D01*
X29341454Y-18725732D01*
X29299339Y-18729880D01*
X28691621Y-18729880D01*
X28649506Y-18725732D01*
X28614913Y-18715238D01*
X28583040Y-18698202D01*
X28555094Y-18675266D01*
X28532158Y-18647320D01*
X28515122Y-18615447D01*
X28504628Y-18580854D01*
X28500480Y-18538739D01*
X28500480Y-17881021D01*
X28504628Y-17838906D01*
X28515122Y-17804313D01*
X28532158Y-17772440D01*
X28555094Y-17744494D01*
X28583040Y-17721558D01*
X28614913Y-17704522D01*
X28649506Y-17694028D01*
X28691621Y-17689880D01*
X29299339Y-17689880D01*
X29341454Y-17694028D01*
X29376047Y-17704522D01*
X29415607Y-17725667D01*
X29421546Y-17729636D01*
X29444183Y-17739015D01*
X29468216Y-17743798D01*
X29492720Y-17743800D01*
X29516754Y-17739022D01*
X29539394Y-17729647D01*
X29545337Y-17725676D01*
X29559587Y-17718059D01*
X29579962Y-17704445D01*
X29597288Y-17687118D01*
X29610902Y-17666743D01*
X29620279Y-17644104D01*
X29625059Y-17620071D01*
X29625059Y-17595567D01*
X29620278Y-17571533D01*
X29610901Y-17548895D01*
X29597287Y-17528520D01*
X29579960Y-17511194D01*
X29559585Y-17497580D01*
X29520558Y-17476720D01*
X29492614Y-17453786D01*
X29469678Y-17425840D01*
X29452642Y-17393967D01*
X29442148Y-17359374D01*
X29438000Y-17317259D01*
X29438000Y-16709541D01*
X29442148Y-16667424D01*
X29453054Y-16631471D01*
X29457834Y-16607438D01*
X29457834Y-16582934D01*
X29453053Y-16558901D01*
X29443675Y-16536262D01*
X29430061Y-16515888D01*
X29412734Y-16498561D01*
X29392359Y-16484948D01*
X29369720Y-16475571D01*
X29345687Y-16470791D01*
X29321183Y-16470791D01*
X29297150Y-16475572D01*
X29274511Y-16484950D01*
X29254137Y-16498564D01*
X29217003Y-16529040D01*
X29185127Y-16546078D01*
X29150534Y-16556572D01*
X29108419Y-16560720D01*
X28500701Y-16560720D01*
X28458586Y-16556572D01*
X28423993Y-16546078D01*
X28384433Y-16524933D01*
X28378494Y-16520964D01*
X28355857Y-16511585D01*
X28331824Y-16506802D01*
X28307320Y-16506800D01*
X28283286Y-16511578D01*
X28260646Y-16520953D01*
X28254699Y-16524926D01*
X28215127Y-16546078D01*
X28180534Y-16556572D01*
X28138419Y-16560720D01*
X27530701Y-16560720D01*
X27488586Y-16556572D01*
X27453993Y-16546078D01*
X27422120Y-16529042D01*
X27394174Y-16506106D01*
X27371238Y-16478160D01*
X27354202Y-16446287D01*
X27343708Y-16411694D01*
X27339560Y-16369579D01*
X27339560Y-15711861D01*
X27343708Y-15669746D01*
X27354202Y-15635153D01*
X27371238Y-15603280D01*
X27394174Y-15575334D01*
X27422120Y-15552398D01*
X27453993Y-15535362D01*
X27488586Y-15524868D01*
X27530701Y-15520720D01*
X28138419Y-15520720D01*
X28180534Y-15524868D01*
X28215127Y-15535362D01*
X28254687Y-15556507D01*
X28260626Y-15560476D01*
X28283263Y-15569855D01*
X28307296Y-15574638D01*
X28331800Y-15574640D01*
X28355834Y-15569862D01*
X28378474Y-15560487D01*
X28384421Y-15556514D01*
X28423993Y-15535362D01*
X28458586Y-15524868D01*
X28500701Y-15520720D01*
X29108419Y-15520720D01*
X29150534Y-15524868D01*
X29185127Y-15535362D01*
X29217000Y-15552398D01*
X29244946Y-15575334D01*
X29267879Y-15603277D01*
X29268245Y-15603961D01*
X29281858Y-15624335D01*
X29299184Y-15641663D01*
X29319558Y-15655277D01*
X29342197Y-15664655D01*
X29366230Y-15669437D01*
X29390734Y-15669437D01*
X29414768Y-15664658D01*
X29437407Y-15655281D01*
X29457781Y-15641668D01*
X29475111Y-15624340D01*
X29492614Y-15603014D01*
X29525039Y-15576402D01*
X29542366Y-15559074D01*
X29555979Y-15538700D01*
X29565356Y-15516061D01*
X29570136Y-15492027D01*
X29570136Y-15467523D01*
X29565355Y-15443490D01*
X29555978Y-15420851D01*
X29542364Y-15400477D01*
X29525649Y-15383762D01*
X29502438Y-15355480D01*
X29485402Y-15323607D01*
X29474908Y-15289014D01*
X29470760Y-15246899D01*
X29470760Y-14589181D01*
X29474908Y-14547066D01*
X29485402Y-14512473D01*
X29502438Y-14480600D01*
X29525374Y-14452654D01*
X29553320Y-14429718D01*
X29585193Y-14412682D01*
X29619786Y-14402188D01*
X29661901Y-14398040D01*
X30269619Y-14398040D01*
X30311734Y-14402188D01*
X30311734Y-14402188D01*
G37*
G36*
X13575982Y-15347300D02*
G01*
X13703373Y-15400067D01*
X13748533Y-15430242D01*
X13818024Y-15476674D01*
X13915526Y-15574176D01*
X13946740Y-15620891D01*
X13992133Y-15688827D01*
X14044900Y-15816218D01*
X14071800Y-15951455D01*
X14071800Y-16089345D01*
X14044900Y-16224582D01*
X13992133Y-16351973D01*
X13992132Y-16351974D01*
X13915526Y-16466624D01*
X13818024Y-16564126D01*
X13788416Y-16583909D01*
X13703373Y-16640733D01*
X13575982Y-16693500D01*
X13440745Y-16720400D01*
X13302855Y-16720400D01*
X13167618Y-16693500D01*
X13040227Y-16640733D01*
X12955184Y-16583909D01*
X12925576Y-16564126D01*
X12828074Y-16466624D01*
X12751468Y-16351974D01*
X12751467Y-16351973D01*
X12698700Y-16224582D01*
X12671800Y-16089345D01*
X12671800Y-15951455D01*
X12698700Y-15816218D01*
X12751467Y-15688827D01*
X12796860Y-15620891D01*
X12828074Y-15574176D01*
X12925576Y-15476674D01*
X12995067Y-15430242D01*
X13040227Y-15400067D01*
X13167618Y-15347300D01*
X13302855Y-15320400D01*
X13440745Y-15320400D01*
X13575982Y-15347300D01*
X13575982Y-15347300D01*
G37*
G36*
X16968574Y-14700548D02*
G01*
X17003167Y-14711042D01*
X17035040Y-14728078D01*
X17062986Y-14751014D01*
X17085922Y-14778960D01*
X17102958Y-14810833D01*
X17112983Y-14843881D01*
X17122360Y-14866520D01*
X17135974Y-14886895D01*
X17153301Y-14904222D01*
X17173675Y-14917836D01*
X17196314Y-14927213D01*
X17220347Y-14931994D01*
X17244851Y-14931994D01*
X17268884Y-14927214D01*
X17291523Y-14917837D01*
X17311898Y-14904223D01*
X17329225Y-14886896D01*
X17342839Y-14866522D01*
X17352217Y-14843881D01*
X17362242Y-14810833D01*
X17379278Y-14778960D01*
X17402214Y-14751014D01*
X17430160Y-14728078D01*
X17462033Y-14711042D01*
X17496626Y-14700548D01*
X17538741Y-14696400D01*
X18196459Y-14696400D01*
X18238574Y-14700548D01*
X18273167Y-14711042D01*
X18305040Y-14728078D01*
X18332986Y-14751014D01*
X18355922Y-14778960D01*
X18372958Y-14810833D01*
X18385076Y-14850781D01*
X18394453Y-14873420D01*
X18408067Y-14893795D01*
X18425394Y-14911122D01*
X18445768Y-14924736D01*
X18468407Y-14934113D01*
X18492440Y-14938894D01*
X18516944Y-14938894D01*
X18540977Y-14934114D01*
X18563616Y-14924737D01*
X18583991Y-14911123D01*
X18601318Y-14893796D01*
X18614932Y-14873422D01*
X18624310Y-14850781D01*
X18632242Y-14824633D01*
X18649278Y-14792760D01*
X18672214Y-14764814D01*
X18700160Y-14741878D01*
X18732033Y-14724842D01*
X18766626Y-14714348D01*
X18808741Y-14710200D01*
X19466459Y-14710200D01*
X19508574Y-14714348D01*
X19543167Y-14724842D01*
X19575040Y-14741878D01*
X19602986Y-14764814D01*
X19625922Y-14792760D01*
X19642958Y-14824633D01*
X19652983Y-14857681D01*
X19662360Y-14880320D01*
X19675974Y-14900695D01*
X19693301Y-14918022D01*
X19713675Y-14931636D01*
X19736314Y-14941013D01*
X19760347Y-14945794D01*
X19784851Y-14945794D01*
X19808884Y-14941014D01*
X19831523Y-14931637D01*
X19851898Y-14918023D01*
X19869225Y-14900696D01*
X19882839Y-14880322D01*
X19892217Y-14857681D01*
X19902242Y-14824633D01*
X19919278Y-14792760D01*
X19942214Y-14764814D01*
X19970160Y-14741878D01*
X20002033Y-14724842D01*
X20036626Y-14714348D01*
X20078741Y-14710200D01*
X20736459Y-14710200D01*
X20778574Y-14714348D01*
X20813167Y-14724842D01*
X20845040Y-14741878D01*
X20872986Y-14764814D01*
X20895922Y-14792760D01*
X20912958Y-14824633D01*
X20923452Y-14859226D01*
X20927600Y-14901341D01*
X20927600Y-15509059D01*
X20923452Y-15551174D01*
X20912958Y-15585767D01*
X20891813Y-15625327D01*
X20887844Y-15631266D01*
X20878465Y-15653903D01*
X20873682Y-15677936D01*
X20873680Y-15702440D01*
X20878458Y-15726474D01*
X20887833Y-15749114D01*
X20891806Y-15755061D01*
X20912958Y-15794633D01*
X20923452Y-15829226D01*
X20927600Y-15871341D01*
X20927600Y-16479059D01*
X20923452Y-16521174D01*
X20912958Y-16555767D01*
X20895922Y-16587640D01*
X20872986Y-16615586D01*
X20845040Y-16638522D01*
X20813167Y-16655558D01*
X20778574Y-16666052D01*
X20736459Y-16670200D01*
X20078741Y-16670200D01*
X20036626Y-16666052D01*
X20002033Y-16655558D01*
X19970160Y-16638522D01*
X19942214Y-16615586D01*
X19919278Y-16587640D01*
X19902242Y-16555767D01*
X19892217Y-16522719D01*
X19882840Y-16500080D01*
X19869226Y-16479705D01*
X19851899Y-16462378D01*
X19831525Y-16448764D01*
X19808886Y-16439387D01*
X19784853Y-16434606D01*
X19760349Y-16434606D01*
X19736316Y-16439386D01*
X19713677Y-16448763D01*
X19693302Y-16462377D01*
X19675975Y-16479704D01*
X19662361Y-16500078D01*
X19652983Y-16522719D01*
X19642958Y-16555767D01*
X19625922Y-16587640D01*
X19602986Y-16615586D01*
X19575040Y-16638522D01*
X19543167Y-16655558D01*
X19508574Y-16666052D01*
X19466459Y-16670200D01*
X18808741Y-16670200D01*
X18766626Y-16666052D01*
X18732033Y-16655558D01*
X18700160Y-16638522D01*
X18672214Y-16615586D01*
X18649278Y-16587640D01*
X18632242Y-16555767D01*
X18620124Y-16515819D01*
X18610747Y-16493180D01*
X18597133Y-16472805D01*
X18579806Y-16455478D01*
X18559432Y-16441864D01*
X18536793Y-16432487D01*
X18512760Y-16427706D01*
X18488256Y-16427706D01*
X18464223Y-16432486D01*
X18441584Y-16441863D01*
X18421209Y-16455477D01*
X18403882Y-16472804D01*
X18390268Y-16493178D01*
X18380890Y-16515819D01*
X18372958Y-16541967D01*
X18355922Y-16573840D01*
X18332986Y-16601786D01*
X18305040Y-16624722D01*
X18273167Y-16641758D01*
X18238574Y-16652252D01*
X18196459Y-16656400D01*
X17538741Y-16656400D01*
X17496626Y-16652252D01*
X17462033Y-16641758D01*
X17430160Y-16624722D01*
X17402214Y-16601786D01*
X17379278Y-16573840D01*
X17362242Y-16541967D01*
X17352217Y-16508919D01*
X17342840Y-16486280D01*
X17329226Y-16465905D01*
X17311899Y-16448578D01*
X17291525Y-16434964D01*
X17268886Y-16425587D01*
X17244853Y-16420806D01*
X17220349Y-16420806D01*
X17196316Y-16425586D01*
X17173677Y-16434963D01*
X17153302Y-16448577D01*
X17135975Y-16465904D01*
X17122361Y-16486278D01*
X17112983Y-16508919D01*
X17102958Y-16541967D01*
X17085922Y-16573840D01*
X17062986Y-16601786D01*
X17035040Y-16624722D01*
X17003167Y-16641758D01*
X16968574Y-16652252D01*
X16926459Y-16656400D01*
X16268741Y-16656400D01*
X16226626Y-16652252D01*
X16192033Y-16641758D01*
X16160160Y-16624722D01*
X16132214Y-16601786D01*
X16109278Y-16573840D01*
X16092242Y-16541967D01*
X16081748Y-16507374D01*
X16077600Y-16465259D01*
X16077600Y-15857541D01*
X16081748Y-15815426D01*
X16092242Y-15780833D01*
X16113387Y-15741273D01*
X16117356Y-15735334D01*
X16126735Y-15712697D01*
X16131518Y-15688664D01*
X16131518Y-15688640D01*
X17063680Y-15688640D01*
X17068458Y-15712674D01*
X17077833Y-15735314D01*
X17081806Y-15741261D01*
X17102958Y-15780833D01*
X17112983Y-15813881D01*
X17122360Y-15836520D01*
X17135974Y-15856895D01*
X17153301Y-15874222D01*
X17173675Y-15887836D01*
X17196314Y-15897213D01*
X17220347Y-15901994D01*
X17244851Y-15901994D01*
X17268884Y-15897214D01*
X17291523Y-15887837D01*
X17311898Y-15874223D01*
X17329225Y-15856896D01*
X17342839Y-15836522D01*
X17352217Y-15813881D01*
X17362242Y-15780833D01*
X17383387Y-15741273D01*
X17387356Y-15735334D01*
X17396735Y-15712697D01*
X17401518Y-15688664D01*
X17401518Y-15688640D01*
X18333680Y-15688640D01*
X18338458Y-15712674D01*
X18347833Y-15735314D01*
X18351806Y-15741261D01*
X18372958Y-15780833D01*
X18385076Y-15820781D01*
X18394453Y-15843420D01*
X18408067Y-15863795D01*
X18425394Y-15881122D01*
X18445768Y-15894736D01*
X18468407Y-15904113D01*
X18492440Y-15908894D01*
X18516944Y-15908894D01*
X18540977Y-15904114D01*
X18563616Y-15894737D01*
X18583991Y-15881123D01*
X18601318Y-15863796D01*
X18614932Y-15843422D01*
X18624310Y-15820781D01*
X18632242Y-15794633D01*
X18653387Y-15755073D01*
X18657356Y-15749134D01*
X18666735Y-15726497D01*
X18671518Y-15702464D01*
X18671518Y-15702440D01*
X19603680Y-15702440D01*
X19608458Y-15726474D01*
X19617833Y-15749114D01*
X19621806Y-15755061D01*
X19642958Y-15794633D01*
X19652983Y-15827681D01*
X19662360Y-15850320D01*
X19675974Y-15870695D01*
X19693301Y-15888022D01*
X19713675Y-15901636D01*
X19736314Y-15911013D01*
X19760347Y-15915794D01*
X19784851Y-15915794D01*
X19808884Y-15911014D01*
X19831523Y-15901637D01*
X19851898Y-15888023D01*
X19869225Y-15870696D01*
X19882839Y-15850322D01*
X19892217Y-15827681D01*
X19902242Y-15794633D01*
X19923387Y-15755073D01*
X19927356Y-15749134D01*
X19936735Y-15726497D01*
X19941518Y-15702464D01*
X19941520Y-15677960D01*
X19936742Y-15653926D01*
X19927367Y-15631286D01*
X19923394Y-15625339D01*
X19902242Y-15585767D01*
X19892217Y-15552719D01*
X19882840Y-15530080D01*
X19869226Y-15509705D01*
X19851899Y-15492378D01*
X19831525Y-15478764D01*
X19808886Y-15469387D01*
X19784853Y-15464606D01*
X19760349Y-15464606D01*
X19736316Y-15469386D01*
X19713677Y-15478763D01*
X19693302Y-15492377D01*
X19675975Y-15509704D01*
X19662361Y-15530078D01*
X19652983Y-15552719D01*
X19642958Y-15585767D01*
X19621813Y-15625327D01*
X19617844Y-15631266D01*
X19608465Y-15653903D01*
X19603682Y-15677936D01*
X19603680Y-15702440D01*
X18671518Y-15702440D01*
X18671520Y-15677960D01*
X18666742Y-15653926D01*
X18657367Y-15631286D01*
X18653394Y-15625339D01*
X18632242Y-15585767D01*
X18620124Y-15545819D01*
X18610747Y-15523180D01*
X18597133Y-15502805D01*
X18579806Y-15485478D01*
X18559432Y-15471864D01*
X18536793Y-15462487D01*
X18512760Y-15457706D01*
X18488256Y-15457706D01*
X18464223Y-15462486D01*
X18441584Y-15471863D01*
X18421209Y-15485477D01*
X18403882Y-15502804D01*
X18390268Y-15523178D01*
X18380890Y-15545819D01*
X18372958Y-15571967D01*
X18351813Y-15611527D01*
X18347844Y-15617466D01*
X18338465Y-15640103D01*
X18333682Y-15664136D01*
X18333680Y-15688640D01*
X17401518Y-15688640D01*
X17401520Y-15664160D01*
X17396742Y-15640126D01*
X17387367Y-15617486D01*
X17383394Y-15611539D01*
X17362242Y-15571967D01*
X17352217Y-15538919D01*
X17342840Y-15516280D01*
X17329226Y-15495905D01*
X17311899Y-15478578D01*
X17291525Y-15464964D01*
X17268886Y-15455587D01*
X17244853Y-15450806D01*
X17220349Y-15450806D01*
X17196316Y-15455586D01*
X17173677Y-15464963D01*
X17153302Y-15478577D01*
X17135975Y-15495904D01*
X17122361Y-15516278D01*
X17112983Y-15538919D01*
X17102958Y-15571967D01*
X17081813Y-15611527D01*
X17077844Y-15617466D01*
X17068465Y-15640103D01*
X17063682Y-15664136D01*
X17063680Y-15688640D01*
X16131518Y-15688640D01*
X16131520Y-15664160D01*
X16126742Y-15640126D01*
X16117367Y-15617486D01*
X16113394Y-15611539D01*
X16092242Y-15571967D01*
X16081748Y-15537374D01*
X16077600Y-15495259D01*
X16077600Y-14887541D01*
X16081748Y-14845426D01*
X16092242Y-14810833D01*
X16109278Y-14778960D01*
X16132214Y-14751014D01*
X16160160Y-14728078D01*
X16192033Y-14711042D01*
X16226626Y-14700548D01*
X16268741Y-14696400D01*
X16926459Y-14696400D01*
X16968574Y-14700548D01*
X16968574Y-14700548D01*
G37*
G36*
X35533379Y-13630079D02*
G01*
X35745662Y-13718010D01*
X35779065Y-13731846D01*
X35854841Y-13782478D01*
X36000174Y-13879586D01*
X36188214Y-14067626D01*
X36335955Y-14288737D01*
X36437721Y-14534421D01*
X36489600Y-14795235D01*
X36489600Y-15061165D01*
X36437721Y-15321979D01*
X36345003Y-15545819D01*
X36335954Y-15567665D01*
X36265233Y-15673506D01*
X36196485Y-15776396D01*
X36188213Y-15788775D01*
X36000175Y-15976813D01*
X35779065Y-16124554D01*
X35779064Y-16124555D01*
X35779063Y-16124555D01*
X35533379Y-16226321D01*
X35272565Y-16278200D01*
X35006635Y-16278200D01*
X34745821Y-16226321D01*
X34500137Y-16124555D01*
X34500136Y-16124555D01*
X34500135Y-16124554D01*
X34279025Y-15976813D01*
X34090987Y-15788775D01*
X34082716Y-15776396D01*
X34013967Y-15673506D01*
X33943246Y-15567665D01*
X33934197Y-15545819D01*
X33841479Y-15321979D01*
X33789600Y-15061165D01*
X33789600Y-14795235D01*
X33841479Y-14534421D01*
X33943245Y-14288737D01*
X34090986Y-14067626D01*
X34279026Y-13879586D01*
X34424359Y-13782478D01*
X34500135Y-13731846D01*
X34533538Y-13718010D01*
X34745821Y-13630079D01*
X35006635Y-13578200D01*
X35272565Y-13578200D01*
X35533379Y-13630079D01*
X35533379Y-13630079D01*
G37*
G36*
X7331000Y-15194000D02*
G01*
X6481000Y-15194000D01*
X6481000Y-13494000D01*
X7331000Y-13494000D01*
X7331000Y-15194000D01*
X7331000Y-15194000D01*
G37*
G36*
X8731000Y-15194000D02*
G01*
X7881000Y-15194000D01*
X7881000Y-14494000D01*
X8731000Y-14494000D01*
X8731000Y-15194000D01*
X8731000Y-15194000D01*
G37*
G36*
X12190182Y-13819900D02*
G01*
X12317573Y-13872667D01*
X12331322Y-13881854D01*
X12432224Y-13949274D01*
X12529726Y-14046776D01*
X12562019Y-14095106D01*
X12606333Y-14161427D01*
X12659100Y-14288818D01*
X12686000Y-14424055D01*
X12686000Y-14561945D01*
X12659100Y-14697182D01*
X12606333Y-14824573D01*
X12573694Y-14873420D01*
X12529726Y-14939224D01*
X12432224Y-15036726D01*
X12402031Y-15056900D01*
X12317573Y-15113333D01*
X12190182Y-15166100D01*
X12054945Y-15193000D01*
X11917055Y-15193000D01*
X11781818Y-15166100D01*
X11654427Y-15113333D01*
X11569969Y-15056900D01*
X11539776Y-15036726D01*
X11442274Y-14939224D01*
X11398306Y-14873420D01*
X11365667Y-14824573D01*
X11312900Y-14697182D01*
X11286000Y-14561945D01*
X11286000Y-14424055D01*
X11312900Y-14288818D01*
X11365667Y-14161427D01*
X11409981Y-14095106D01*
X11442274Y-14046776D01*
X11539776Y-13949274D01*
X11640678Y-13881854D01*
X11654427Y-13872667D01*
X11781818Y-13819900D01*
X11917055Y-13793000D01*
X12054945Y-13793000D01*
X12190182Y-13819900D01*
X12190182Y-13819900D01*
G37*
G36*
X8731000Y-14194000D02*
G01*
X7881000Y-14194000D01*
X7881000Y-13494000D01*
X8731000Y-13494000D01*
X8731000Y-14194000D01*
X8731000Y-14194000D01*
G37*
G36*
X25605205Y-12255893D02*
G01*
X25642908Y-12267330D01*
X25657078Y-12274904D01*
X25679717Y-12284280D01*
X25703751Y-12289060D01*
X25728255Y-12289060D01*
X25752288Y-12284279D01*
X25774922Y-12274904D01*
X25789092Y-12267330D01*
X25826795Y-12255893D01*
X25872140Y-12251427D01*
X26359860Y-12251427D01*
X26378197Y-12253233D01*
X26390449Y-12253835D01*
X26408869Y-12253835D01*
X26460358Y-12258906D01*
X26544439Y-12275631D01*
X26560403Y-12280474D01*
X26588048Y-12288859D01*
X26588054Y-12288861D01*
X26593960Y-12290653D01*
X26673158Y-12323457D01*
X26718791Y-12347848D01*
X26790076Y-12395479D01*
X26794847Y-12399395D01*
X26794849Y-12399396D01*
X26825303Y-12424389D01*
X26825309Y-12424395D01*
X26830072Y-12428304D01*
X26890696Y-12488928D01*
X26894605Y-12493691D01*
X26894611Y-12493697D01*
X26919604Y-12524151D01*
X26923521Y-12528924D01*
X26971152Y-12600209D01*
X26995543Y-12645842D01*
X27028347Y-12725040D01*
X27030139Y-12730946D01*
X27030141Y-12730952D01*
X27036623Y-12752322D01*
X27043369Y-12774561D01*
X27060094Y-12858642D01*
X27065165Y-12910131D01*
X27065165Y-12928551D01*
X27065767Y-12940803D01*
X27067573Y-12959140D01*
X27067573Y-13446860D01*
X27065767Y-13465197D01*
X27065165Y-13477449D01*
X27065165Y-13495869D01*
X27060094Y-13547358D01*
X27043369Y-13631439D01*
X27041576Y-13637349D01*
X27030141Y-13675048D01*
X27030139Y-13675054D01*
X27028347Y-13680960D01*
X26995543Y-13760158D01*
X26971152Y-13805791D01*
X26923521Y-13877076D01*
X26919605Y-13881847D01*
X26919604Y-13881849D01*
X26894611Y-13912303D01*
X26894605Y-13912309D01*
X26890696Y-13917072D01*
X26830072Y-13977696D01*
X26825309Y-13981605D01*
X26825303Y-13981611D01*
X26803868Y-13999202D01*
X26790076Y-14010521D01*
X26718791Y-14058152D01*
X26673158Y-14082543D01*
X26593960Y-14115347D01*
X26588054Y-14117139D01*
X26588048Y-14117141D01*
X26560403Y-14125526D01*
X26544439Y-14130369D01*
X26460358Y-14147094D01*
X26408869Y-14152165D01*
X26390449Y-14152165D01*
X26378197Y-14152767D01*
X26359860Y-14154573D01*
X25872140Y-14154573D01*
X25826795Y-14150107D01*
X25789092Y-14138670D01*
X25774922Y-14131096D01*
X25752283Y-14121720D01*
X25728249Y-14116940D01*
X25703745Y-14116940D01*
X25679712Y-14121721D01*
X25657078Y-14131096D01*
X25642908Y-14138670D01*
X25605205Y-14150107D01*
X25559860Y-14154573D01*
X25072140Y-14154573D01*
X25053803Y-14152767D01*
X25041551Y-14152165D01*
X25023131Y-14152165D01*
X24971642Y-14147094D01*
X24887561Y-14130369D01*
X24871597Y-14125526D01*
X24843952Y-14117141D01*
X24843946Y-14117139D01*
X24838040Y-14115347D01*
X24758842Y-14082543D01*
X24713209Y-14058152D01*
X24641924Y-14010521D01*
X24628132Y-13999202D01*
X24606697Y-13981611D01*
X24606691Y-13981605D01*
X24601928Y-13977696D01*
X24541304Y-13917072D01*
X24537395Y-13912309D01*
X24537389Y-13912303D01*
X24512396Y-13881849D01*
X24512395Y-13881847D01*
X24508479Y-13877076D01*
X24460848Y-13805791D01*
X24436457Y-13760158D01*
X24403653Y-13680960D01*
X24401861Y-13675054D01*
X24401859Y-13675048D01*
X24390424Y-13637349D01*
X24388631Y-13631439D01*
X24371906Y-13547358D01*
X24366835Y-13495869D01*
X24366835Y-13477449D01*
X24366233Y-13465197D01*
X24364427Y-13446860D01*
X24364427Y-12959140D01*
X24366233Y-12940803D01*
X24366835Y-12928551D01*
X24366835Y-12910131D01*
X24371906Y-12858642D01*
X24388631Y-12774561D01*
X24395377Y-12752322D01*
X24401859Y-12730952D01*
X24401861Y-12730946D01*
X24403653Y-12725040D01*
X24436457Y-12645842D01*
X24460848Y-12600209D01*
X24508479Y-12528924D01*
X24512396Y-12524151D01*
X24537389Y-12493697D01*
X24537395Y-12493691D01*
X24541304Y-12488928D01*
X24601928Y-12428304D01*
X24606691Y-12424395D01*
X24606697Y-12424389D01*
X24637151Y-12399396D01*
X24637153Y-12399395D01*
X24641924Y-12395479D01*
X24713209Y-12347848D01*
X24758842Y-12323457D01*
X24838040Y-12290653D01*
X24843946Y-12288861D01*
X24843952Y-12288859D01*
X24871597Y-12280474D01*
X24887561Y-12275631D01*
X24971642Y-12258906D01*
X25023131Y-12253835D01*
X25041551Y-12253835D01*
X25053803Y-12253233D01*
X25072140Y-12251427D01*
X25559860Y-12251427D01*
X25605205Y-12255893D01*
X25605205Y-12255893D01*
G37*
G36*
X29702134Y-12995028D02*
G01*
X29736727Y-13005522D01*
X29776287Y-13026667D01*
X29782226Y-13030636D01*
X29804863Y-13040015D01*
X29828896Y-13044798D01*
X29853400Y-13044800D01*
X29877434Y-13040022D01*
X29900074Y-13030647D01*
X29906021Y-13026674D01*
X29945593Y-13005522D01*
X29980186Y-12995028D01*
X30022301Y-12990880D01*
X30630019Y-12990880D01*
X30672134Y-12995028D01*
X30706727Y-13005522D01*
X30738600Y-13022558D01*
X30766546Y-13045494D01*
X30789482Y-13073440D01*
X30806518Y-13105313D01*
X30817012Y-13139906D01*
X30821160Y-13182021D01*
X30821160Y-13839739D01*
X30817012Y-13881854D01*
X30806518Y-13916447D01*
X30789482Y-13948320D01*
X30766546Y-13976266D01*
X30738600Y-13999202D01*
X30706727Y-14016238D01*
X30672134Y-14026732D01*
X30630019Y-14030880D01*
X30022301Y-14030880D01*
X29980186Y-14026732D01*
X29945593Y-14016238D01*
X29906033Y-13995093D01*
X29900094Y-13991124D01*
X29877457Y-13981745D01*
X29853424Y-13976962D01*
X29828920Y-13976960D01*
X29804886Y-13981738D01*
X29782246Y-13991113D01*
X29776299Y-13995086D01*
X29736727Y-14016238D01*
X29702134Y-14026732D01*
X29660019Y-14030880D01*
X29052301Y-14030880D01*
X29010186Y-14026732D01*
X28975593Y-14016238D01*
X28943720Y-13999202D01*
X28915774Y-13976266D01*
X28892838Y-13948320D01*
X28875802Y-13916447D01*
X28865308Y-13881854D01*
X28861160Y-13839739D01*
X28861160Y-13182021D01*
X28865308Y-13139906D01*
X28875802Y-13105313D01*
X28892838Y-13073440D01*
X28915774Y-13045494D01*
X28943720Y-13022558D01*
X28975593Y-13005522D01*
X29010186Y-12995028D01*
X29052301Y-12990880D01*
X29660019Y-12990880D01*
X29702134Y-12995028D01*
X29702134Y-12995028D01*
G37*
G36*
X23794530Y-12543877D02*
G01*
X23846010Y-12559493D01*
X23893445Y-12584848D01*
X23935027Y-12618973D01*
X23969152Y-12660555D01*
X23994507Y-12707990D01*
X24010123Y-12759470D01*
X24016000Y-12819140D01*
X24016000Y-13606860D01*
X24010123Y-13666530D01*
X23994507Y-13718010D01*
X23969152Y-13765445D01*
X23935027Y-13807027D01*
X23893445Y-13841152D01*
X23846010Y-13866507D01*
X23794530Y-13882123D01*
X23734860Y-13888000D01*
X22847140Y-13888000D01*
X22787470Y-13882123D01*
X22735990Y-13866507D01*
X22688555Y-13841152D01*
X22646973Y-13807027D01*
X22612848Y-13765445D01*
X22587493Y-13718010D01*
X22571877Y-13666530D01*
X22566000Y-13606860D01*
X22566000Y-12819140D01*
X22571877Y-12759470D01*
X22587493Y-12707990D01*
X22612848Y-12660555D01*
X22646973Y-12618973D01*
X22688555Y-12584848D01*
X22735990Y-12559493D01*
X22787470Y-12543877D01*
X22847140Y-12538000D01*
X23734860Y-12538000D01*
X23794530Y-12543877D01*
X23794530Y-12543877D01*
G37*
G36*
X22044530Y-12543877D02*
G01*
X22096010Y-12559493D01*
X22143445Y-12584848D01*
X22185027Y-12618973D01*
X22219152Y-12660555D01*
X22244507Y-12707990D01*
X22260123Y-12759470D01*
X22266000Y-12819140D01*
X22266000Y-13606860D01*
X22260123Y-13666530D01*
X22244507Y-13718010D01*
X22219152Y-13765445D01*
X22185027Y-13807027D01*
X22143445Y-13841152D01*
X22096010Y-13866507D01*
X22044530Y-13882123D01*
X21984860Y-13888000D01*
X21097140Y-13888000D01*
X21037470Y-13882123D01*
X20985990Y-13866507D01*
X20938555Y-13841152D01*
X20896973Y-13807027D01*
X20862848Y-13765445D01*
X20837493Y-13718010D01*
X20821877Y-13666530D01*
X20816000Y-13606860D01*
X20816000Y-12819140D01*
X20821877Y-12759470D01*
X20837493Y-12707990D01*
X20862848Y-12660555D01*
X20896973Y-12618973D01*
X20938555Y-12584848D01*
X20985990Y-12559493D01*
X21037470Y-12543877D01*
X21097140Y-12538000D01*
X21984860Y-12538000D01*
X22044530Y-12543877D01*
X22044530Y-12543877D01*
G37*
G36*
X33022548Y-10993922D02*
G01*
X33286431Y-11103226D01*
X33286433Y-11103227D01*
X33523921Y-11261911D01*
X33725889Y-11463879D01*
X33860256Y-11664974D01*
X33884574Y-11701369D01*
X33993878Y-11965252D01*
X34049600Y-12245386D01*
X34049600Y-12531014D01*
X33993878Y-12811148D01*
X33889404Y-13063371D01*
X33884573Y-13075033D01*
X33725889Y-13312521D01*
X33523921Y-13514489D01*
X33286433Y-13673173D01*
X33286432Y-13673174D01*
X33286431Y-13673174D01*
X33022548Y-13782478D01*
X32742414Y-13838200D01*
X32456786Y-13838200D01*
X32176652Y-13782478D01*
X31912769Y-13673174D01*
X31912768Y-13673174D01*
X31912767Y-13673173D01*
X31675279Y-13514489D01*
X31473311Y-13312521D01*
X31314627Y-13075033D01*
X31309796Y-13063371D01*
X31205322Y-12811148D01*
X31149600Y-12531014D01*
X31149600Y-12245386D01*
X31205322Y-11965252D01*
X31314626Y-11701369D01*
X31338944Y-11664974D01*
X31473311Y-11463879D01*
X31675279Y-11261911D01*
X31912767Y-11103227D01*
X31912769Y-11103226D01*
X32176652Y-10993922D01*
X32456786Y-10938200D01*
X32742414Y-10938200D01*
X33022548Y-10993922D01*
X33022548Y-10993922D01*
G37*
G36*
X38102548Y-10993922D02*
G01*
X38366431Y-11103226D01*
X38366433Y-11103227D01*
X38603921Y-11261911D01*
X38805889Y-11463879D01*
X38940256Y-11664974D01*
X38964574Y-11701369D01*
X39073878Y-11965252D01*
X39129600Y-12245386D01*
X39129600Y-12531014D01*
X39073878Y-12811148D01*
X38969404Y-13063371D01*
X38964573Y-13075033D01*
X38805889Y-13312521D01*
X38603921Y-13514489D01*
X38366433Y-13673173D01*
X38366432Y-13673174D01*
X38366431Y-13673174D01*
X38102548Y-13782478D01*
X37822414Y-13838200D01*
X37536786Y-13838200D01*
X37256652Y-13782478D01*
X36992769Y-13673174D01*
X36992768Y-13673174D01*
X36992767Y-13673173D01*
X36755279Y-13514489D01*
X36553311Y-13312521D01*
X36394627Y-13075033D01*
X36389796Y-13063371D01*
X36285322Y-12811148D01*
X36229600Y-12531014D01*
X36229600Y-12245386D01*
X36285322Y-11965252D01*
X36394626Y-11701369D01*
X36418944Y-11664974D01*
X36553311Y-11463879D01*
X36755279Y-11261911D01*
X36992767Y-11103227D01*
X36992769Y-11103226D01*
X37256652Y-10993922D01*
X37536786Y-10938200D01*
X37822414Y-10938200D01*
X38102548Y-10993922D01*
X38102548Y-10993922D01*
G37*
G36*
X18126814Y-10828148D02*
G01*
X18161407Y-10838642D01*
X18193280Y-10855678D01*
X18221226Y-10878614D01*
X18244162Y-10906560D01*
X18261198Y-10938433D01*
X18271692Y-10973026D01*
X18275840Y-11015141D01*
X18275840Y-11622859D01*
X18271692Y-11664974D01*
X18261198Y-11699567D01*
X18240053Y-11739127D01*
X18236084Y-11745066D01*
X18226705Y-11767703D01*
X18221922Y-11791736D01*
X18221920Y-11816240D01*
X18226698Y-11840274D01*
X18236073Y-11862914D01*
X18240046Y-11868861D01*
X18261198Y-11908433D01*
X18271692Y-11943026D01*
X18275840Y-11985141D01*
X18275840Y-12592859D01*
X18271692Y-12634974D01*
X18261198Y-12669567D01*
X18244162Y-12701440D01*
X18221226Y-12729386D01*
X18193280Y-12752322D01*
X18161407Y-12769358D01*
X18126814Y-12779852D01*
X18084699Y-12784000D01*
X17426981Y-12784000D01*
X17384866Y-12779852D01*
X17350273Y-12769358D01*
X17318400Y-12752322D01*
X17290454Y-12729386D01*
X17267518Y-12701440D01*
X17250482Y-12669567D01*
X17239988Y-12634974D01*
X17235840Y-12592859D01*
X17235840Y-11985141D01*
X17239988Y-11943026D01*
X17250482Y-11908433D01*
X17271627Y-11868873D01*
X17275596Y-11862934D01*
X17284975Y-11840297D01*
X17289758Y-11816264D01*
X17289760Y-11791760D01*
X17284982Y-11767726D01*
X17275607Y-11745086D01*
X17271634Y-11739139D01*
X17250482Y-11699567D01*
X17239988Y-11664974D01*
X17235840Y-11622859D01*
X17235840Y-11015141D01*
X17239988Y-10973026D01*
X17250482Y-10938433D01*
X17267518Y-10906560D01*
X17290454Y-10878614D01*
X17318400Y-10855678D01*
X17350273Y-10838642D01*
X17384866Y-10828148D01*
X17426981Y-10824000D01*
X18084699Y-10824000D01*
X18126814Y-10828148D01*
X18126814Y-10828148D01*
G37*
G36*
X16242982Y-11003900D02*
G01*
X16370373Y-11056667D01*
X16370374Y-11056668D01*
X16485024Y-11133274D01*
X16582526Y-11230776D01*
X16621089Y-11288490D01*
X16659133Y-11345427D01*
X16711900Y-11472818D01*
X16738800Y-11608055D01*
X16738800Y-11745945D01*
X16711900Y-11881182D01*
X16659133Y-12008573D01*
X16659132Y-12008574D01*
X16582526Y-12123224D01*
X16485024Y-12220726D01*
X16448117Y-12245386D01*
X16370373Y-12297333D01*
X16242982Y-12350100D01*
X16107745Y-12377000D01*
X15969855Y-12377000D01*
X15834618Y-12350100D01*
X15707227Y-12297333D01*
X15629483Y-12245386D01*
X15592576Y-12220726D01*
X15495074Y-12123224D01*
X15418468Y-12008574D01*
X15418467Y-12008573D01*
X15365700Y-11881182D01*
X15338800Y-11745945D01*
X15338800Y-11608055D01*
X15365700Y-11472818D01*
X15418467Y-11345427D01*
X15456511Y-11288490D01*
X15495074Y-11230776D01*
X15592576Y-11133274D01*
X15707226Y-11056668D01*
X15707227Y-11056667D01*
X15834618Y-11003900D01*
X15969855Y-10977000D01*
X16107745Y-10977000D01*
X16242982Y-11003900D01*
X16242982Y-11003900D01*
G37*
G36*
X16850822Y-9026317D02*
G01*
X16898785Y-9040866D01*
X16942978Y-9064488D01*
X16981719Y-9096281D01*
X17013512Y-9135022D01*
X17037134Y-9179215D01*
X17051683Y-9227178D01*
X17057200Y-9283191D01*
X17057200Y-10108409D01*
X17051683Y-10164422D01*
X17037134Y-10212385D01*
X17013512Y-10256578D01*
X16981719Y-10295319D01*
X16942978Y-10327112D01*
X16898785Y-10350734D01*
X16850822Y-10365283D01*
X16794809Y-10370800D01*
X16044591Y-10370800D01*
X15988578Y-10365283D01*
X15940615Y-10350734D01*
X15896422Y-10327112D01*
X15857681Y-10295319D01*
X15825888Y-10256578D01*
X15802266Y-10212385D01*
X15787717Y-10164422D01*
X15782200Y-10108409D01*
X15782200Y-9283191D01*
X15787717Y-9227178D01*
X15802266Y-9179215D01*
X15825888Y-9135022D01*
X15857681Y-9096281D01*
X15896422Y-9064488D01*
X15940615Y-9040866D01*
X15988578Y-9026317D01*
X16044591Y-9020800D01*
X16794809Y-9020800D01*
X16850822Y-9026317D01*
X16850822Y-9026317D01*
G37*
G36*
X18425822Y-9026317D02*
G01*
X18473785Y-9040866D01*
X18517978Y-9064488D01*
X18556719Y-9096281D01*
X18588512Y-9135022D01*
X18612134Y-9179215D01*
X18626683Y-9227178D01*
X18632200Y-9283191D01*
X18632200Y-10108409D01*
X18626683Y-10164422D01*
X18612134Y-10212385D01*
X18588512Y-10256578D01*
X18556719Y-10295319D01*
X18517978Y-10327112D01*
X18473785Y-10350734D01*
X18425822Y-10365283D01*
X18369809Y-10370800D01*
X17619591Y-10370800D01*
X17563578Y-10365283D01*
X17515615Y-10350734D01*
X17471422Y-10327112D01*
X17432681Y-10295319D01*
X17400888Y-10256578D01*
X17377266Y-10212385D01*
X17362717Y-10164422D01*
X17357200Y-10108409D01*
X17357200Y-9283191D01*
X17362717Y-9227178D01*
X17377266Y-9179215D01*
X17400888Y-9135022D01*
X17432681Y-9096281D01*
X17471422Y-9064488D01*
X17515615Y-9040866D01*
X17563578Y-9026317D01*
X17619591Y-9020800D01*
X18369809Y-9020800D01*
X18425822Y-9026317D01*
X18425822Y-9026317D01*
G37*
G36*
X35263227Y-7053196D02*
G01*
X35340356Y-7060793D01*
X35538282Y-7120833D01*
X35538285Y-7120834D01*
X35720690Y-7218332D01*
X35880575Y-7349545D01*
X36011788Y-7509430D01*
X36109286Y-7691835D01*
X36109287Y-7691838D01*
X36169327Y-7889764D01*
X36189600Y-8095600D01*
X36169327Y-8301436D01*
X36109287Y-8499362D01*
X36109286Y-8499365D01*
X36011788Y-8681770D01*
X35880575Y-8841655D01*
X35720690Y-8972868D01*
X35538285Y-9070366D01*
X35538282Y-9070367D01*
X35340356Y-9130407D01*
X35263227Y-9138003D01*
X35186100Y-9145600D01*
X35082940Y-9145600D01*
X35005813Y-9138003D01*
X34928684Y-9130407D01*
X34730758Y-9070367D01*
X34730755Y-9070366D01*
X34548350Y-8972868D01*
X34388465Y-8841655D01*
X34257252Y-8681770D01*
X34159754Y-8499365D01*
X34159753Y-8499362D01*
X34099713Y-8301436D01*
X34079440Y-8095600D01*
X34099713Y-7889764D01*
X34159753Y-7691838D01*
X34159754Y-7691835D01*
X34257252Y-7509430D01*
X34388465Y-7349545D01*
X34548350Y-7218332D01*
X34730755Y-7120834D01*
X34730758Y-7120833D01*
X34928684Y-7060793D01*
X35005813Y-7053196D01*
X35082940Y-7045600D01*
X35186100Y-7045600D01*
X35263227Y-7053196D01*
X35263227Y-7053196D01*
G37*
G36*
X38724520Y-9145600D02*
G01*
X36624520Y-9145600D01*
X36624520Y-7045600D01*
X38724520Y-7045600D01*
X38724520Y-9145600D01*
X38724520Y-9145600D01*
G37*
G36*
X32723227Y-7053196D02*
G01*
X32800356Y-7060793D01*
X32998282Y-7120833D01*
X32998285Y-7120834D01*
X33180690Y-7218332D01*
X33340575Y-7349545D01*
X33471788Y-7509430D01*
X33569286Y-7691835D01*
X33569287Y-7691838D01*
X33629327Y-7889764D01*
X33649600Y-8095600D01*
X33629327Y-8301436D01*
X33569287Y-8499362D01*
X33569286Y-8499365D01*
X33471788Y-8681770D01*
X33340575Y-8841655D01*
X33180690Y-8972868D01*
X32998285Y-9070366D01*
X32998282Y-9070367D01*
X32800356Y-9130407D01*
X32723227Y-9138003D01*
X32646100Y-9145600D01*
X32542940Y-9145600D01*
X32465813Y-9138003D01*
X32388684Y-9130407D01*
X32190758Y-9070367D01*
X32190755Y-9070366D01*
X32008350Y-8972868D01*
X31848465Y-8841655D01*
X31717252Y-8681770D01*
X31619754Y-8499365D01*
X31619753Y-8499362D01*
X31559713Y-8301436D01*
X31539440Y-8095600D01*
X31559713Y-7889764D01*
X31619753Y-7691838D01*
X31619754Y-7691835D01*
X31717252Y-7509430D01*
X31848465Y-7349545D01*
X32008350Y-7218332D01*
X32190755Y-7120834D01*
X32190758Y-7120833D01*
X32388684Y-7060793D01*
X32465813Y-7053196D01*
X32542940Y-7045600D01*
X32646100Y-7045600D01*
X32723227Y-7053196D01*
X32723227Y-7053196D01*
G37*
G36*
X30183227Y-7053196D02*
G01*
X30260356Y-7060793D01*
X30458282Y-7120833D01*
X30458285Y-7120834D01*
X30640690Y-7218332D01*
X30800575Y-7349545D01*
X30931788Y-7509430D01*
X31029286Y-7691835D01*
X31029287Y-7691838D01*
X31089327Y-7889764D01*
X31109600Y-8095600D01*
X31089327Y-8301436D01*
X31029287Y-8499362D01*
X31029286Y-8499365D01*
X30931788Y-8681770D01*
X30800575Y-8841655D01*
X30640690Y-8972868D01*
X30458285Y-9070366D01*
X30458282Y-9070367D01*
X30260356Y-9130407D01*
X30183227Y-9138003D01*
X30106100Y-9145600D01*
X30002940Y-9145600D01*
X29925813Y-9138003D01*
X29848684Y-9130407D01*
X29650758Y-9070367D01*
X29650755Y-9070366D01*
X29468350Y-8972868D01*
X29308465Y-8841655D01*
X29177252Y-8681770D01*
X29079754Y-8499365D01*
X29079753Y-8499362D01*
X29019713Y-8301436D01*
X28999440Y-8095600D01*
X29019713Y-7889764D01*
X29079753Y-7691838D01*
X29079754Y-7691835D01*
X29177252Y-7509430D01*
X29308465Y-7349545D01*
X29468350Y-7218332D01*
X29650755Y-7120834D01*
X29650758Y-7120833D01*
X29848684Y-7060793D01*
X29925813Y-7053196D01*
X30002940Y-7045600D01*
X30106100Y-7045600D01*
X30183227Y-7053196D01*
X30183227Y-7053196D01*
G37*
G36*
X27643227Y-7053196D02*
G01*
X27720356Y-7060793D01*
X27918282Y-7120833D01*
X27918285Y-7120834D01*
X28100690Y-7218332D01*
X28260575Y-7349545D01*
X28391788Y-7509430D01*
X28489286Y-7691835D01*
X28489287Y-7691838D01*
X28549327Y-7889764D01*
X28569600Y-8095600D01*
X28549327Y-8301436D01*
X28489287Y-8499362D01*
X28489286Y-8499365D01*
X28391788Y-8681770D01*
X28260575Y-8841655D01*
X28100690Y-8972868D01*
X27918285Y-9070366D01*
X27918282Y-9070367D01*
X27720356Y-9130407D01*
X27643227Y-9138003D01*
X27566100Y-9145600D01*
X27462940Y-9145600D01*
X27385813Y-9138003D01*
X27308684Y-9130407D01*
X27110758Y-9070367D01*
X27110755Y-9070366D01*
X26928350Y-8972868D01*
X26768465Y-8841655D01*
X26637252Y-8681770D01*
X26539754Y-8499365D01*
X26539753Y-8499362D01*
X26479713Y-8301436D01*
X26459440Y-8095600D01*
X26479713Y-7889764D01*
X26539753Y-7691838D01*
X26539754Y-7691835D01*
X26637252Y-7509430D01*
X26768465Y-7349545D01*
X26928350Y-7218332D01*
X27110755Y-7120834D01*
X27110758Y-7120833D01*
X27308684Y-7060793D01*
X27385813Y-7053196D01*
X27462940Y-7045600D01*
X27566100Y-7045600D01*
X27643227Y-7053196D01*
X27643227Y-7053196D01*
G37*
G36*
X25103227Y-7053196D02*
G01*
X25180356Y-7060793D01*
X25378282Y-7120833D01*
X25378285Y-7120834D01*
X25560690Y-7218332D01*
X25720575Y-7349545D01*
X25851788Y-7509430D01*
X25949286Y-7691835D01*
X25949287Y-7691838D01*
X26009327Y-7889764D01*
X26029600Y-8095600D01*
X26009327Y-8301436D01*
X25949287Y-8499362D01*
X25949286Y-8499365D01*
X25851788Y-8681770D01*
X25720575Y-8841655D01*
X25560690Y-8972868D01*
X25378285Y-9070366D01*
X25378282Y-9070367D01*
X25180356Y-9130407D01*
X25103227Y-9138003D01*
X25026100Y-9145600D01*
X24922940Y-9145600D01*
X24845813Y-9138003D01*
X24768684Y-9130407D01*
X24570758Y-9070367D01*
X24570755Y-9070366D01*
X24388350Y-8972868D01*
X24228465Y-8841655D01*
X24097252Y-8681770D01*
X23999754Y-8499365D01*
X23999753Y-8499362D01*
X23939713Y-8301436D01*
X23919440Y-8095600D01*
X23939713Y-7889764D01*
X23999753Y-7691838D01*
X23999754Y-7691835D01*
X24097252Y-7509430D01*
X24228465Y-7349545D01*
X24388350Y-7218332D01*
X24570755Y-7120834D01*
X24570758Y-7120833D01*
X24768684Y-7060793D01*
X24845813Y-7053196D01*
X24922940Y-7045600D01*
X25026100Y-7045600D01*
X25103227Y-7053196D01*
X25103227Y-7053196D01*
G37*
G36*
X22827600Y-8247800D02*
G01*
X20527600Y-8247800D01*
X20527600Y-7447800D01*
X22827600Y-7447800D01*
X22827600Y-8247800D01*
X22827600Y-8247800D01*
G37*
G36*
X11634200Y-8118200D02*
G01*
X9484200Y-8118200D01*
X9484200Y-1418200D01*
X11634200Y-1418200D01*
X11634200Y-8118200D01*
X11634200Y-8118200D01*
G37*
G36*
X18834200Y-8118200D02*
G01*
X16684200Y-8118200D01*
X16684200Y-1418200D01*
X18834200Y-1418200D01*
X18834200Y-8118200D01*
X18834200Y-8118200D01*
G37*
G36*
X22827600Y-7047800D02*
G01*
X20527600Y-7047800D01*
X20527600Y-6247800D01*
X22827600Y-6247800D01*
X22827600Y-7047800D01*
X22827600Y-7047800D01*
G37*
G36*
X7790142Y-5030397D02*
G01*
X7838105Y-5044946D01*
X7882298Y-5068568D01*
X7921039Y-5100361D01*
X7952832Y-5139102D01*
X7976454Y-5183295D01*
X7991003Y-5231258D01*
X7996520Y-5287271D01*
X7996520Y-6037489D01*
X7991003Y-6093502D01*
X7976454Y-6141465D01*
X7952832Y-6185658D01*
X7921039Y-6224399D01*
X7882298Y-6256192D01*
X7838105Y-6279814D01*
X7790142Y-6294363D01*
X7734129Y-6299880D01*
X6908911Y-6299880D01*
X6852898Y-6294363D01*
X6804935Y-6279814D01*
X6760742Y-6256192D01*
X6722001Y-6224399D01*
X6690208Y-6185658D01*
X6666586Y-6141465D01*
X6652037Y-6093502D01*
X6646520Y-6037489D01*
X6646520Y-5287271D01*
X6652037Y-5231258D01*
X6666586Y-5183295D01*
X6690208Y-5139102D01*
X6722001Y-5100361D01*
X6760742Y-5068568D01*
X6804935Y-5044946D01*
X6852898Y-5030397D01*
X6908911Y-5024880D01*
X7734129Y-5024880D01*
X7790142Y-5030397D01*
X7790142Y-5030397D01*
G37*
G36*
X22827600Y-5847800D02*
G01*
X20527600Y-5847800D01*
X20527600Y-5047800D01*
X22827600Y-5047800D01*
X22827600Y-5847800D01*
X22827600Y-5847800D01*
G37*
G36*
X7790142Y-3455397D02*
G01*
X7838105Y-3469946D01*
X7882298Y-3493568D01*
X7921039Y-3525361D01*
X7952832Y-3564102D01*
X7976454Y-3608295D01*
X7991003Y-3656258D01*
X7996520Y-3712271D01*
X7996520Y-4462489D01*
X7991003Y-4518502D01*
X7976454Y-4566465D01*
X7952832Y-4610658D01*
X7921039Y-4649399D01*
X7882298Y-4681192D01*
X7838105Y-4704814D01*
X7790142Y-4719363D01*
X7734129Y-4724880D01*
X6908911Y-4724880D01*
X6852898Y-4719363D01*
X6804935Y-4704814D01*
X6760742Y-4681192D01*
X6722001Y-4649399D01*
X6690208Y-4610658D01*
X6666586Y-4566465D01*
X6652037Y-4518502D01*
X6646520Y-4462489D01*
X6646520Y-3712271D01*
X6652037Y-3656258D01*
X6666586Y-3608295D01*
X6690208Y-3564102D01*
X6722001Y-3525361D01*
X6760742Y-3493568D01*
X6804935Y-3469946D01*
X6852898Y-3455397D01*
X6908911Y-3449880D01*
X7734129Y-3449880D01*
X7790142Y-3455397D01*
X7790142Y-3455397D01*
G37*
G36*
X21993822Y-2739317D02*
G01*
X22041785Y-2753866D01*
X22085978Y-2777488D01*
X22124719Y-2809281D01*
X22156512Y-2848022D01*
X22180134Y-2892215D01*
X22194683Y-2940178D01*
X22200200Y-2996191D01*
X22200200Y-3746409D01*
X22194683Y-3802422D01*
X22180134Y-3850385D01*
X22156512Y-3894578D01*
X22124719Y-3933319D01*
X22085978Y-3965112D01*
X22041785Y-3988734D01*
X21993822Y-4003283D01*
X21937809Y-4008800D01*
X21112591Y-4008800D01*
X21056578Y-4003283D01*
X21008615Y-3988734D01*
X20964422Y-3965112D01*
X20925681Y-3933319D01*
X20893888Y-3894578D01*
X20870266Y-3850385D01*
X20855717Y-3802422D01*
X20850200Y-3746409D01*
X20850200Y-2996191D01*
X20855717Y-2940178D01*
X20870266Y-2892215D01*
X20893888Y-2848022D01*
X20925681Y-2809281D01*
X20964422Y-2777488D01*
X21008615Y-2753866D01*
X21056578Y-2739317D01*
X21112591Y-2733800D01*
X21937809Y-2733800D01*
X21993822Y-2739317D01*
X21993822Y-2739317D01*
G37*
G36*
X28077622Y-2625517D02*
G01*
X28125585Y-2640066D01*
X28169778Y-2663688D01*
X28208519Y-2695481D01*
X28240312Y-2734222D01*
X28263934Y-2778415D01*
X28278483Y-2826378D01*
X28284000Y-2882391D01*
X28284000Y-3707609D01*
X28278483Y-3763622D01*
X28263934Y-3811585D01*
X28240312Y-3855778D01*
X28208519Y-3894519D01*
X28169778Y-3926312D01*
X28125585Y-3949934D01*
X28077622Y-3964483D01*
X28021609Y-3970000D01*
X27271391Y-3970000D01*
X27215378Y-3964483D01*
X27167415Y-3949934D01*
X27123222Y-3926312D01*
X27084481Y-3894519D01*
X27052688Y-3855778D01*
X27029066Y-3811585D01*
X27014517Y-3763622D01*
X27009000Y-3707609D01*
X27009000Y-2882391D01*
X27014517Y-2826378D01*
X27029066Y-2778415D01*
X27052688Y-2734222D01*
X27084481Y-2695481D01*
X27123222Y-2663688D01*
X27167415Y-2640066D01*
X27215378Y-2625517D01*
X27271391Y-2620000D01*
X28021609Y-2620000D01*
X28077622Y-2625517D01*
X28077622Y-2625517D01*
G37*
G36*
X29652622Y-2625517D02*
G01*
X29700585Y-2640066D01*
X29744778Y-2663688D01*
X29783519Y-2695481D01*
X29815312Y-2734222D01*
X29838934Y-2778415D01*
X29853483Y-2826378D01*
X29859000Y-2882391D01*
X29859000Y-3707609D01*
X29853483Y-3763622D01*
X29838934Y-3811585D01*
X29815312Y-3855778D01*
X29783519Y-3894519D01*
X29744778Y-3926312D01*
X29700585Y-3949934D01*
X29652622Y-3964483D01*
X29596609Y-3970000D01*
X28846391Y-3970000D01*
X28790378Y-3964483D01*
X28742415Y-3949934D01*
X28698222Y-3926312D01*
X28659481Y-3894519D01*
X28627688Y-3855778D01*
X28604066Y-3811585D01*
X28589517Y-3763622D01*
X28584000Y-3707609D01*
X28584000Y-2882391D01*
X28589517Y-2826378D01*
X28604066Y-2778415D01*
X28627688Y-2734222D01*
X28659481Y-2695481D01*
X28698222Y-2663688D01*
X28742415Y-2640066D01*
X28790378Y-2625517D01*
X28846391Y-2620000D01*
X29596609Y-2620000D01*
X29652622Y-2625517D01*
X29652622Y-2625517D01*
G37*
G36*
X24751852Y-1860294D02*
G01*
X24752400Y-1860403D01*
X24776902Y-1860404D01*
X24776943Y-1860400D01*
X25664662Y-1860400D01*
X25690192Y-1862914D01*
X25708835Y-1868570D01*
X25726022Y-1877757D01*
X25741083Y-1890117D01*
X25753443Y-1905178D01*
X25762630Y-1922365D01*
X25768286Y-1941008D01*
X25770800Y-1966538D01*
X25770800Y-2404262D01*
X25768940Y-2423149D01*
X25768940Y-2447651D01*
X25770800Y-2466538D01*
X25770800Y-2904262D01*
X25768940Y-2923149D01*
X25768940Y-2947651D01*
X25770800Y-2966538D01*
X25770800Y-3404262D01*
X25768286Y-3429792D01*
X25762630Y-3448435D01*
X25753443Y-3465622D01*
X25741083Y-3480683D01*
X25726022Y-3493043D01*
X25708835Y-3502230D01*
X25690192Y-3507886D01*
X25664662Y-3510400D01*
X24776943Y-3510400D01*
X24776902Y-3510396D01*
X24752398Y-3510397D01*
X24751849Y-3510506D01*
X24702160Y-3515400D01*
X24139440Y-3515400D01*
X24089748Y-3510506D01*
X24089200Y-3510397D01*
X24064698Y-3510396D01*
X24064657Y-3510400D01*
X23176938Y-3510400D01*
X23151408Y-3507886D01*
X23132765Y-3502230D01*
X23115578Y-3493043D01*
X23100517Y-3480683D01*
X23088157Y-3465622D01*
X23078970Y-3448435D01*
X23073314Y-3429792D01*
X23070800Y-3404262D01*
X23070800Y-2966538D01*
X23072660Y-2947651D01*
X23072660Y-2923149D01*
X23070800Y-2904262D01*
X23070800Y-2466538D01*
X23072660Y-2447651D01*
X23072660Y-2423149D01*
X23070800Y-2404262D01*
X23070800Y-1966538D01*
X23073314Y-1941008D01*
X23078970Y-1922365D01*
X23088157Y-1905178D01*
X23100517Y-1890117D01*
X23115578Y-1877757D01*
X23132765Y-1868570D01*
X23151408Y-1862914D01*
X23176938Y-1860400D01*
X24064657Y-1860400D01*
X24064698Y-1860404D01*
X24089202Y-1860403D01*
X24089751Y-1860294D01*
X24139440Y-1855400D01*
X24702160Y-1855400D01*
X24751852Y-1860294D01*
X24751852Y-1860294D01*
G37*
G36*
X21993822Y-1164317D02*
G01*
X22041785Y-1178866D01*
X22085978Y-1202488D01*
X22124719Y-1234281D01*
X22156512Y-1273022D01*
X22180134Y-1317215D01*
X22194683Y-1365178D01*
X22200200Y-1421191D01*
X22200200Y-2171409D01*
X22194683Y-2227422D01*
X22180134Y-2275385D01*
X22156512Y-2319578D01*
X22124719Y-2358319D01*
X22085978Y-2390112D01*
X22041785Y-2413734D01*
X21993822Y-2428283D01*
X21937809Y-2433800D01*
X21112591Y-2433800D01*
X21056578Y-2428283D01*
X21008615Y-2413734D01*
X20964422Y-2390112D01*
X20925681Y-2358319D01*
X20893888Y-2319578D01*
X20870266Y-2275385D01*
X20855717Y-2227422D01*
X20850200Y-2171409D01*
X20850200Y-1421191D01*
X20855717Y-1365178D01*
X20870266Y-1317215D01*
X20893888Y-1273022D01*
X20925681Y-1234281D01*
X20964422Y-1202488D01*
X21008615Y-1178866D01*
X21056578Y-1164317D01*
X21112591Y-1158800D01*
X21937809Y-1158800D01*
X21993822Y-1164317D01*
X21993822Y-1164317D01*
G37*
G36*
X28789022Y-999917D02*
G01*
X28836985Y-1014466D01*
X28881178Y-1038088D01*
X28919919Y-1069881D01*
X28951712Y-1108622D01*
X28975334Y-1152815D01*
X28989883Y-1200778D01*
X28995400Y-1256791D01*
X28995400Y-2082009D01*
X28989883Y-2138022D01*
X28975334Y-2185985D01*
X28951712Y-2230178D01*
X28919919Y-2268919D01*
X28881178Y-2300712D01*
X28836985Y-2324334D01*
X28789022Y-2338883D01*
X28733009Y-2344400D01*
X27982791Y-2344400D01*
X27926778Y-2338883D01*
X27878815Y-2324334D01*
X27834622Y-2300712D01*
X27795881Y-2268919D01*
X27764088Y-2230178D01*
X27740466Y-2185985D01*
X27725917Y-2138022D01*
X27720400Y-2082009D01*
X27720400Y-1256791D01*
X27725917Y-1200778D01*
X27740466Y-1152815D01*
X27764088Y-1108622D01*
X27795881Y-1069881D01*
X27834622Y-1038088D01*
X27878815Y-1014466D01*
X27926778Y-999917D01*
X27982791Y-994400D01*
X28733009Y-994400D01*
X28789022Y-999917D01*
X28789022Y-999917D01*
G37*
G36*
X27214022Y-999917D02*
G01*
X27261985Y-1014466D01*
X27306178Y-1038088D01*
X27344919Y-1069881D01*
X27376712Y-1108622D01*
X27400334Y-1152815D01*
X27414883Y-1200778D01*
X27420400Y-1256791D01*
X27420400Y-2082009D01*
X27414883Y-2138022D01*
X27400334Y-2185985D01*
X27376712Y-2230178D01*
X27344919Y-2268919D01*
X27306178Y-2300712D01*
X27261985Y-2324334D01*
X27214022Y-2338883D01*
X27158009Y-2344400D01*
X26407791Y-2344400D01*
X26351778Y-2338883D01*
X26303815Y-2324334D01*
X26259622Y-2300712D01*
X26220881Y-2268919D01*
X26189088Y-2230178D01*
X26165466Y-2185985D01*
X26150917Y-2138022D01*
X26145400Y-2082009D01*
X26145400Y-1256791D01*
X26150917Y-1200778D01*
X26165466Y-1152815D01*
X26189088Y-1108622D01*
X26220881Y-1069881D01*
X26259622Y-1038088D01*
X26303815Y-1014466D01*
X26351778Y-999917D01*
X26407791Y-994400D01*
X27158009Y-994400D01*
X27214022Y-999917D01*
X27214022Y-999917D01*
G37*
G36*
X7962582Y-945500D02*
G01*
X8089973Y-998267D01*
X8120498Y-1018663D01*
X8204624Y-1074874D01*
X8302126Y-1172376D01*
X8321103Y-1200778D01*
X8378733Y-1287027D01*
X8431500Y-1414418D01*
X8458400Y-1549655D01*
X8458400Y-1687545D01*
X8431500Y-1822782D01*
X8378733Y-1950173D01*
X8367798Y-1966538D01*
X8302126Y-2064824D01*
X8204624Y-2162326D01*
X8191030Y-2171409D01*
X8089973Y-2238933D01*
X7962582Y-2291700D01*
X7827345Y-2318600D01*
X7689455Y-2318600D01*
X7554218Y-2291700D01*
X7426827Y-2238933D01*
X7325770Y-2171409D01*
X7312176Y-2162326D01*
X7214674Y-2064824D01*
X7149002Y-1966538D01*
X7138067Y-1950173D01*
X7085300Y-1822782D01*
X7058400Y-1687545D01*
X7058400Y-1549655D01*
X7085300Y-1414418D01*
X7138067Y-1287027D01*
X7195697Y-1200778D01*
X7214674Y-1172376D01*
X7312176Y-1074874D01*
X7396302Y-1018663D01*
X7426827Y-998267D01*
X7554218Y-945500D01*
X7689455Y-918600D01*
X7827345Y-918600D01*
X7962582Y-945500D01*
X7962582Y-945500D01*
G37*
M02*
