G04 #@! TF.GenerationSoftware,KiCad,Pcbnew,(5.1.0)-1*
G04 #@! TF.CreationDate,2019-06-21T15:08:08-03:00*
G04 #@! TF.ProjectId,EstacionTerrena,45737461-6369-46f6-9e54-657272656e61,rev?*
G04 #@! TF.SameCoordinates,Original*
G04 #@! TF.FileFunction,Soldermask,Bot*
G04 #@! TF.FilePolarity,Negative*
%FSLAX46Y46*%
G04 Gerber Fmt 4.6, Leading zero omitted, Abs format (unit mm)*
G04 Created by KiCad (PCBNEW (5.1.0)-1) date 2019-06-21 15:08:08*
%MOMM*%
%LPD*%
G04 APERTURE LIST*
%ADD10C,0.100000*%
G04 APERTURE END LIST*
D10*
G36*
X10505640Y-27571280D02*
G01*
X9105640Y-27571280D01*
X9105640Y-26171280D01*
X10505640Y-26171280D01*
X10505640Y-27571280D01*
X10505640Y-27571280D01*
G37*
G36*
X38102548Y-16073922D02*
G01*
X38366431Y-16183226D01*
X38366433Y-16183227D01*
X38603921Y-16341911D01*
X38805889Y-16543879D01*
X38964573Y-16781367D01*
X38964574Y-16781369D01*
X39073878Y-17045252D01*
X39129600Y-17325386D01*
X39129600Y-17611014D01*
X39073878Y-17891148D01*
X38964574Y-18155031D01*
X38964573Y-18155033D01*
X38805889Y-18392521D01*
X38603921Y-18594489D01*
X38366433Y-18753173D01*
X38366432Y-18753174D01*
X38366431Y-18753174D01*
X38102548Y-18862478D01*
X37822414Y-18918200D01*
X37536786Y-18918200D01*
X37256652Y-18862478D01*
X36992769Y-18753174D01*
X36992768Y-18753174D01*
X36992767Y-18753173D01*
X36755279Y-18594489D01*
X36553311Y-18392521D01*
X36394627Y-18155033D01*
X36394626Y-18155031D01*
X36285322Y-17891148D01*
X36229600Y-17611014D01*
X36229600Y-17325386D01*
X36285322Y-17045252D01*
X36394626Y-16781369D01*
X36394627Y-16781367D01*
X36553311Y-16543879D01*
X36755279Y-16341911D01*
X36992767Y-16183227D01*
X36992769Y-16183226D01*
X37256652Y-16073922D01*
X37536786Y-16018200D01*
X37822414Y-16018200D01*
X38102548Y-16073922D01*
X38102548Y-16073922D01*
G37*
G36*
X33022548Y-16073922D02*
G01*
X33286431Y-16183226D01*
X33286433Y-16183227D01*
X33523921Y-16341911D01*
X33725889Y-16543879D01*
X33884573Y-16781367D01*
X33884574Y-16781369D01*
X33993878Y-17045252D01*
X34049600Y-17325386D01*
X34049600Y-17611014D01*
X33993878Y-17891148D01*
X33884574Y-18155031D01*
X33884573Y-18155033D01*
X33725889Y-18392521D01*
X33523921Y-18594489D01*
X33286433Y-18753173D01*
X33286432Y-18753174D01*
X33286431Y-18753174D01*
X33022548Y-18862478D01*
X32742414Y-18918200D01*
X32456786Y-18918200D01*
X32176652Y-18862478D01*
X31912769Y-18753174D01*
X31912768Y-18753174D01*
X31912767Y-18753173D01*
X31675279Y-18594489D01*
X31473311Y-18392521D01*
X31314627Y-18155033D01*
X31314626Y-18155031D01*
X31205322Y-17891148D01*
X31149600Y-17611014D01*
X31149600Y-17325386D01*
X31205322Y-17045252D01*
X31314626Y-16781369D01*
X31314627Y-16781367D01*
X31473311Y-16543879D01*
X31675279Y-16341911D01*
X31912767Y-16183227D01*
X31912769Y-16183226D01*
X32176652Y-16073922D01*
X32456786Y-16018200D01*
X32742414Y-16018200D01*
X33022548Y-16073922D01*
X33022548Y-16073922D01*
G37*
G36*
X35533379Y-13630079D02*
G01*
X35779063Y-13731845D01*
X35779065Y-13731846D01*
X35854841Y-13782478D01*
X36000174Y-13879586D01*
X36188214Y-14067626D01*
X36335955Y-14288737D01*
X36437721Y-14534421D01*
X36489600Y-14795235D01*
X36489600Y-15061165D01*
X36437721Y-15321979D01*
X36335955Y-15567663D01*
X36335954Y-15567665D01*
X36188213Y-15788775D01*
X36000175Y-15976813D01*
X35779065Y-16124554D01*
X35779064Y-16124555D01*
X35779063Y-16124555D01*
X35533379Y-16226321D01*
X35272565Y-16278200D01*
X35006635Y-16278200D01*
X34745821Y-16226321D01*
X34500137Y-16124555D01*
X34500136Y-16124555D01*
X34500135Y-16124554D01*
X34279025Y-15976813D01*
X34090987Y-15788775D01*
X33943246Y-15567665D01*
X33943245Y-15567663D01*
X33841479Y-15321979D01*
X33789600Y-15061165D01*
X33789600Y-14795235D01*
X33841479Y-14534421D01*
X33943245Y-14288737D01*
X34090986Y-14067626D01*
X34279026Y-13879586D01*
X34424359Y-13782478D01*
X34500135Y-13731846D01*
X34500137Y-13731845D01*
X34745821Y-13630079D01*
X35006635Y-13578200D01*
X35272565Y-13578200D01*
X35533379Y-13630079D01*
X35533379Y-13630079D01*
G37*
G36*
X33022548Y-10993922D02*
G01*
X33286431Y-11103226D01*
X33286433Y-11103227D01*
X33523921Y-11261911D01*
X33725889Y-11463879D01*
X33884573Y-11701367D01*
X33884574Y-11701369D01*
X33993878Y-11965252D01*
X34049600Y-12245386D01*
X34049600Y-12531014D01*
X33993878Y-12811148D01*
X33884574Y-13075031D01*
X33884573Y-13075033D01*
X33725889Y-13312521D01*
X33523921Y-13514489D01*
X33286433Y-13673173D01*
X33286432Y-13673174D01*
X33286431Y-13673174D01*
X33022548Y-13782478D01*
X32742414Y-13838200D01*
X32456786Y-13838200D01*
X32176652Y-13782478D01*
X31912769Y-13673174D01*
X31912768Y-13673174D01*
X31912767Y-13673173D01*
X31675279Y-13514489D01*
X31473311Y-13312521D01*
X31314627Y-13075033D01*
X31314626Y-13075031D01*
X31205322Y-12811148D01*
X31149600Y-12531014D01*
X31149600Y-12245386D01*
X31205322Y-11965252D01*
X31314626Y-11701369D01*
X31314627Y-11701367D01*
X31473311Y-11463879D01*
X31675279Y-11261911D01*
X31912767Y-11103227D01*
X31912769Y-11103226D01*
X32176652Y-10993922D01*
X32456786Y-10938200D01*
X32742414Y-10938200D01*
X33022548Y-10993922D01*
X33022548Y-10993922D01*
G37*
G36*
X38102548Y-10993922D02*
G01*
X38366431Y-11103226D01*
X38366433Y-11103227D01*
X38603921Y-11261911D01*
X38805889Y-11463879D01*
X38964573Y-11701367D01*
X38964574Y-11701369D01*
X39073878Y-11965252D01*
X39129600Y-12245386D01*
X39129600Y-12531014D01*
X39073878Y-12811148D01*
X38964574Y-13075031D01*
X38964573Y-13075033D01*
X38805889Y-13312521D01*
X38603921Y-13514489D01*
X38366433Y-13673173D01*
X38366432Y-13673174D01*
X38366431Y-13673174D01*
X38102548Y-13782478D01*
X37822414Y-13838200D01*
X37536786Y-13838200D01*
X37256652Y-13782478D01*
X36992769Y-13673174D01*
X36992768Y-13673174D01*
X36992767Y-13673173D01*
X36755279Y-13514489D01*
X36553311Y-13312521D01*
X36394627Y-13075033D01*
X36394626Y-13075031D01*
X36285322Y-12811148D01*
X36229600Y-12531014D01*
X36229600Y-12245386D01*
X36285322Y-11965252D01*
X36394626Y-11701369D01*
X36394627Y-11701367D01*
X36553311Y-11463879D01*
X36755279Y-11261911D01*
X36992767Y-11103227D01*
X36992769Y-11103226D01*
X37256652Y-10993922D01*
X37536786Y-10938200D01*
X37822414Y-10938200D01*
X38102548Y-10993922D01*
X38102548Y-10993922D01*
G37*
G36*
X32723227Y-7053196D02*
G01*
X32800356Y-7060793D01*
X32998282Y-7120833D01*
X32998285Y-7120834D01*
X33180690Y-7218332D01*
X33340575Y-7349545D01*
X33471788Y-7509430D01*
X33569286Y-7691835D01*
X33569287Y-7691838D01*
X33629327Y-7889764D01*
X33649600Y-8095600D01*
X33629327Y-8301436D01*
X33569287Y-8499362D01*
X33569286Y-8499365D01*
X33471788Y-8681770D01*
X33340575Y-8841655D01*
X33180690Y-8972868D01*
X32998285Y-9070366D01*
X32998282Y-9070367D01*
X32800356Y-9130407D01*
X32723227Y-9138003D01*
X32646100Y-9145600D01*
X32542940Y-9145600D01*
X32465813Y-9138003D01*
X32388684Y-9130407D01*
X32190758Y-9070367D01*
X32190755Y-9070366D01*
X32008350Y-8972868D01*
X31848465Y-8841655D01*
X31717252Y-8681770D01*
X31619754Y-8499365D01*
X31619753Y-8499362D01*
X31559713Y-8301436D01*
X31539440Y-8095600D01*
X31559713Y-7889764D01*
X31619753Y-7691838D01*
X31619754Y-7691835D01*
X31717252Y-7509430D01*
X31848465Y-7349545D01*
X32008350Y-7218332D01*
X32190755Y-7120834D01*
X32190758Y-7120833D01*
X32388684Y-7060793D01*
X32465813Y-7053196D01*
X32542940Y-7045600D01*
X32646100Y-7045600D01*
X32723227Y-7053196D01*
X32723227Y-7053196D01*
G37*
G36*
X25103227Y-7053196D02*
G01*
X25180356Y-7060793D01*
X25378282Y-7120833D01*
X25378285Y-7120834D01*
X25560690Y-7218332D01*
X25720575Y-7349545D01*
X25851788Y-7509430D01*
X25949286Y-7691835D01*
X25949287Y-7691838D01*
X26009327Y-7889764D01*
X26029600Y-8095600D01*
X26009327Y-8301436D01*
X25949287Y-8499362D01*
X25949286Y-8499365D01*
X25851788Y-8681770D01*
X25720575Y-8841655D01*
X25560690Y-8972868D01*
X25378285Y-9070366D01*
X25378282Y-9070367D01*
X25180356Y-9130407D01*
X25103227Y-9138003D01*
X25026100Y-9145600D01*
X24922940Y-9145600D01*
X24845813Y-9138003D01*
X24768684Y-9130407D01*
X24570758Y-9070367D01*
X24570755Y-9070366D01*
X24388350Y-8972868D01*
X24228465Y-8841655D01*
X24097252Y-8681770D01*
X23999754Y-8499365D01*
X23999753Y-8499362D01*
X23939713Y-8301436D01*
X23919440Y-8095600D01*
X23939713Y-7889764D01*
X23999753Y-7691838D01*
X23999754Y-7691835D01*
X24097252Y-7509430D01*
X24228465Y-7349545D01*
X24388350Y-7218332D01*
X24570755Y-7120834D01*
X24570758Y-7120833D01*
X24768684Y-7060793D01*
X24845813Y-7053196D01*
X24922940Y-7045600D01*
X25026100Y-7045600D01*
X25103227Y-7053196D01*
X25103227Y-7053196D01*
G37*
G36*
X27643227Y-7053196D02*
G01*
X27720356Y-7060793D01*
X27918282Y-7120833D01*
X27918285Y-7120834D01*
X28100690Y-7218332D01*
X28260575Y-7349545D01*
X28391788Y-7509430D01*
X28489286Y-7691835D01*
X28489287Y-7691838D01*
X28549327Y-7889764D01*
X28569600Y-8095600D01*
X28549327Y-8301436D01*
X28489287Y-8499362D01*
X28489286Y-8499365D01*
X28391788Y-8681770D01*
X28260575Y-8841655D01*
X28100690Y-8972868D01*
X27918285Y-9070366D01*
X27918282Y-9070367D01*
X27720356Y-9130407D01*
X27643227Y-9138003D01*
X27566100Y-9145600D01*
X27462940Y-9145600D01*
X27385813Y-9138003D01*
X27308684Y-9130407D01*
X27110758Y-9070367D01*
X27110755Y-9070366D01*
X26928350Y-8972868D01*
X26768465Y-8841655D01*
X26637252Y-8681770D01*
X26539754Y-8499365D01*
X26539753Y-8499362D01*
X26479713Y-8301436D01*
X26459440Y-8095600D01*
X26479713Y-7889764D01*
X26539753Y-7691838D01*
X26539754Y-7691835D01*
X26637252Y-7509430D01*
X26768465Y-7349545D01*
X26928350Y-7218332D01*
X27110755Y-7120834D01*
X27110758Y-7120833D01*
X27308684Y-7060793D01*
X27385813Y-7053196D01*
X27462940Y-7045600D01*
X27566100Y-7045600D01*
X27643227Y-7053196D01*
X27643227Y-7053196D01*
G37*
G36*
X30183227Y-7053196D02*
G01*
X30260356Y-7060793D01*
X30458282Y-7120833D01*
X30458285Y-7120834D01*
X30640690Y-7218332D01*
X30800575Y-7349545D01*
X30931788Y-7509430D01*
X31029286Y-7691835D01*
X31029287Y-7691838D01*
X31089327Y-7889764D01*
X31109600Y-8095600D01*
X31089327Y-8301436D01*
X31029287Y-8499362D01*
X31029286Y-8499365D01*
X30931788Y-8681770D01*
X30800575Y-8841655D01*
X30640690Y-8972868D01*
X30458285Y-9070366D01*
X30458282Y-9070367D01*
X30260356Y-9130407D01*
X30183227Y-9138003D01*
X30106100Y-9145600D01*
X30002940Y-9145600D01*
X29925813Y-9138003D01*
X29848684Y-9130407D01*
X29650758Y-9070367D01*
X29650755Y-9070366D01*
X29468350Y-8972868D01*
X29308465Y-8841655D01*
X29177252Y-8681770D01*
X29079754Y-8499365D01*
X29079753Y-8499362D01*
X29019713Y-8301436D01*
X28999440Y-8095600D01*
X29019713Y-7889764D01*
X29079753Y-7691838D01*
X29079754Y-7691835D01*
X29177252Y-7509430D01*
X29308465Y-7349545D01*
X29468350Y-7218332D01*
X29650755Y-7120834D01*
X29650758Y-7120833D01*
X29848684Y-7060793D01*
X29925813Y-7053196D01*
X30002940Y-7045600D01*
X30106100Y-7045600D01*
X30183227Y-7053196D01*
X30183227Y-7053196D01*
G37*
G36*
X35263227Y-7053196D02*
G01*
X35340356Y-7060793D01*
X35538282Y-7120833D01*
X35538285Y-7120834D01*
X35720690Y-7218332D01*
X35880575Y-7349545D01*
X36011788Y-7509430D01*
X36109286Y-7691835D01*
X36109287Y-7691838D01*
X36169327Y-7889764D01*
X36189600Y-8095600D01*
X36169327Y-8301436D01*
X36109287Y-8499362D01*
X36109286Y-8499365D01*
X36011788Y-8681770D01*
X35880575Y-8841655D01*
X35720690Y-8972868D01*
X35538285Y-9070366D01*
X35538282Y-9070367D01*
X35340356Y-9130407D01*
X35263227Y-9138003D01*
X35186100Y-9145600D01*
X35082940Y-9145600D01*
X35005813Y-9138003D01*
X34928684Y-9130407D01*
X34730758Y-9070367D01*
X34730755Y-9070366D01*
X34548350Y-8972868D01*
X34388465Y-8841655D01*
X34257252Y-8681770D01*
X34159754Y-8499365D01*
X34159753Y-8499362D01*
X34099713Y-8301436D01*
X34079440Y-8095600D01*
X34099713Y-7889764D01*
X34159753Y-7691838D01*
X34159754Y-7691835D01*
X34257252Y-7509430D01*
X34388465Y-7349545D01*
X34548350Y-7218332D01*
X34730755Y-7120834D01*
X34730758Y-7120833D01*
X34928684Y-7060793D01*
X35005813Y-7053196D01*
X35082940Y-7045600D01*
X35186100Y-7045600D01*
X35263227Y-7053196D01*
X35263227Y-7053196D01*
G37*
G36*
X38724520Y-9145600D02*
G01*
X36624520Y-9145600D01*
X36624520Y-7045600D01*
X38724520Y-7045600D01*
X38724520Y-9145600D01*
X38724520Y-9145600D01*
G37*
M02*
