G04 #@! TF.GenerationSoftware,KiCad,Pcbnew,(5.1.0)-1*
G04 #@! TF.CreationDate,2019-06-21T14:44:27-03:00*
G04 #@! TF.ProjectId,PCB_D,5043425f-442e-46b6-9963-61645f706362,rev?*
G04 #@! TF.SameCoordinates,Original*
G04 #@! TF.FileFunction,Paste,Top*
G04 #@! TF.FilePolarity,Positive*
%FSLAX46Y46*%
G04 Gerber Fmt 4.6, Leading zero omitted, Abs format (unit mm)*
G04 Created by KiCad (PCBNEW (5.1.0)-1) date 2019-06-21 14:44:27*
%MOMM*%
%LPD*%
G04 APERTURE LIST*
%ADD10R,1.175000X1.900000*%
%ADD11R,2.375000X1.900000*%
%ADD12R,1.475000X2.100000*%
%ADD13R,0.450000X1.380000*%
%ADD14R,1.700000X1.300000*%
%ADD15R,0.400000X1.200000*%
%ADD16C,1.300000*%
%ADD17C,0.100000*%
%ADD18R,1.800000X2.500000*%
%ADD19R,0.450000X0.300000*%
%ADD20C,0.950000*%
%ADD21C,1.150000*%
%ADD22C,0.875000*%
%ADD23C,0.550000*%
%ADD24C,0.400000*%
%ADD25R,0.800000X0.900000*%
G04 APERTURE END LIST*
D10*
X-840000Y21647000D03*
X840000Y21647000D03*
D11*
X-2910000Y21647000D03*
X2910000Y21647000D03*
D12*
X-2462500Y19347000D03*
X2462500Y19347000D03*
D13*
X-1300000Y18987000D03*
X-650000Y18987000D03*
X0Y18987000D03*
X650000Y18987000D03*
X1300000Y18987000D03*
D14*
X-8026400Y20571400D03*
X-8026400Y17071400D03*
D15*
X-6157500Y15200000D03*
X-5522500Y15200000D03*
X-4887500Y15200000D03*
X-4252500Y15200000D03*
X-3617500Y15200000D03*
X-2982500Y15200000D03*
X-2347500Y15200000D03*
X-1712500Y15200000D03*
X-1077500Y15200000D03*
X-442500Y15200000D03*
X-442500Y10000000D03*
X-1077500Y10000000D03*
X-1712500Y10000000D03*
X-2347500Y10000000D03*
X-2982500Y10000000D03*
X-3617500Y10000000D03*
X-4252500Y10000000D03*
X-4887500Y10000000D03*
X-5522500Y10000000D03*
X-6157500Y10000000D03*
D14*
X10160000Y-6322000D03*
X10160000Y-2822000D03*
D16*
X8008163Y6368237D03*
D17*
G36*
X6947503Y6226816D02*
G01*
X8149584Y7428897D01*
X9068823Y6509658D01*
X7866742Y5307577D01*
X6947503Y6226816D01*
X6947503Y6226816D01*
G37*
D16*
X10483037Y3893363D03*
D17*
G36*
X9422377Y3751942D02*
G01*
X10624458Y4954023D01*
X11543697Y4034784D01*
X10341616Y2832703D01*
X9422377Y3751942D01*
X9422377Y3751942D01*
G37*
D18*
X7289800Y10515600D03*
X7289800Y14515600D03*
D19*
X2900000Y15700000D03*
X4300000Y15200000D03*
X2900000Y14700000D03*
X4300000Y15700000D03*
X4300000Y14700000D03*
D17*
G36*
X7141606Y4985505D02*
G01*
X7164661Y4982086D01*
X7187270Y4976422D01*
X7209214Y4968570D01*
X7230284Y4958605D01*
X7250275Y4946623D01*
X7268995Y4932739D01*
X7286265Y4917087D01*
X7692851Y4510501D01*
X7708503Y4493231D01*
X7722387Y4474511D01*
X7734369Y4454520D01*
X7744334Y4433450D01*
X7752186Y4411506D01*
X7757850Y4388897D01*
X7761269Y4365842D01*
X7762413Y4342563D01*
X7761269Y4319284D01*
X7757850Y4296229D01*
X7752186Y4273620D01*
X7744334Y4251676D01*
X7734369Y4230606D01*
X7722387Y4210615D01*
X7708503Y4191895D01*
X7692851Y4174625D01*
X7356975Y3838749D01*
X7339705Y3823097D01*
X7320985Y3809213D01*
X7300994Y3797231D01*
X7279924Y3787266D01*
X7257980Y3779414D01*
X7235371Y3773750D01*
X7212316Y3770331D01*
X7189037Y3769187D01*
X7165758Y3770331D01*
X7142703Y3773750D01*
X7120094Y3779414D01*
X7098150Y3787266D01*
X7077080Y3797231D01*
X7057089Y3809213D01*
X7038369Y3823097D01*
X7021099Y3838749D01*
X6614513Y4245335D01*
X6598861Y4262605D01*
X6584977Y4281325D01*
X6572995Y4301316D01*
X6563030Y4322386D01*
X6555178Y4344330D01*
X6549514Y4366939D01*
X6546095Y4389994D01*
X6544951Y4413273D01*
X6546095Y4436552D01*
X6549514Y4459607D01*
X6555178Y4482216D01*
X6563030Y4504160D01*
X6572995Y4525230D01*
X6584977Y4545221D01*
X6598861Y4563941D01*
X6614513Y4581211D01*
X6950389Y4917087D01*
X6967659Y4932739D01*
X6986379Y4946623D01*
X7006370Y4958605D01*
X7027440Y4968570D01*
X7049384Y4976422D01*
X7071993Y4982086D01*
X7095048Y4985505D01*
X7118327Y4986649D01*
X7141606Y4985505D01*
X7141606Y4985505D01*
G37*
D20*
X7153682Y4377918D03*
D17*
G36*
X8379042Y3748069D02*
G01*
X8402097Y3744650D01*
X8424706Y3738986D01*
X8446650Y3731134D01*
X8467720Y3721169D01*
X8487711Y3709187D01*
X8506431Y3695303D01*
X8523701Y3679651D01*
X8930287Y3273065D01*
X8945939Y3255795D01*
X8959823Y3237075D01*
X8971805Y3217084D01*
X8981770Y3196014D01*
X8989622Y3174070D01*
X8995286Y3151461D01*
X8998705Y3128406D01*
X8999849Y3105127D01*
X8998705Y3081848D01*
X8995286Y3058793D01*
X8989622Y3036184D01*
X8981770Y3014240D01*
X8971805Y2993170D01*
X8959823Y2973179D01*
X8945939Y2954459D01*
X8930287Y2937189D01*
X8594411Y2601313D01*
X8577141Y2585661D01*
X8558421Y2571777D01*
X8538430Y2559795D01*
X8517360Y2549830D01*
X8495416Y2541978D01*
X8472807Y2536314D01*
X8449752Y2532895D01*
X8426473Y2531751D01*
X8403194Y2532895D01*
X8380139Y2536314D01*
X8357530Y2541978D01*
X8335586Y2549830D01*
X8314516Y2559795D01*
X8294525Y2571777D01*
X8275805Y2585661D01*
X8258535Y2601313D01*
X7851949Y3007899D01*
X7836297Y3025169D01*
X7822413Y3043889D01*
X7810431Y3063880D01*
X7800466Y3084950D01*
X7792614Y3106894D01*
X7786950Y3129503D01*
X7783531Y3152558D01*
X7782387Y3175837D01*
X7783531Y3199116D01*
X7786950Y3222171D01*
X7792614Y3244780D01*
X7800466Y3266724D01*
X7810431Y3287794D01*
X7822413Y3307785D01*
X7836297Y3326505D01*
X7851949Y3343775D01*
X8187825Y3679651D01*
X8205095Y3695303D01*
X8223815Y3709187D01*
X8243806Y3721169D01*
X8264876Y3731134D01*
X8286820Y3738986D01*
X8309429Y3744650D01*
X8332484Y3748069D01*
X8355763Y3749213D01*
X8379042Y3748069D01*
X8379042Y3748069D01*
G37*
D20*
X8391118Y3140482D03*
D17*
G36*
X-4422648Y2326305D02*
G01*
X-4399593Y2322886D01*
X-4376984Y2317222D01*
X-4355040Y2309370D01*
X-4333970Y2299405D01*
X-4313979Y2287423D01*
X-4295259Y2273539D01*
X-4277989Y2257887D01*
X-3942113Y1922011D01*
X-3926461Y1904741D01*
X-3912577Y1886021D01*
X-3900595Y1866030D01*
X-3890630Y1844960D01*
X-3882778Y1823016D01*
X-3877114Y1800407D01*
X-3873695Y1777352D01*
X-3872551Y1754073D01*
X-3873695Y1730794D01*
X-3877114Y1707739D01*
X-3882778Y1685130D01*
X-3890630Y1663186D01*
X-3900595Y1642116D01*
X-3912577Y1622125D01*
X-3926461Y1603405D01*
X-3942113Y1586135D01*
X-4348699Y1179549D01*
X-4365969Y1163897D01*
X-4384689Y1150013D01*
X-4404680Y1138031D01*
X-4425750Y1128066D01*
X-4447694Y1120214D01*
X-4470303Y1114550D01*
X-4493358Y1111131D01*
X-4516637Y1109987D01*
X-4539916Y1111131D01*
X-4562971Y1114550D01*
X-4585580Y1120214D01*
X-4607524Y1128066D01*
X-4628594Y1138031D01*
X-4648585Y1150013D01*
X-4667305Y1163897D01*
X-4684575Y1179549D01*
X-5020451Y1515425D01*
X-5036103Y1532695D01*
X-5049987Y1551415D01*
X-5061969Y1571406D01*
X-5071934Y1592476D01*
X-5079786Y1614420D01*
X-5085450Y1637029D01*
X-5088869Y1660084D01*
X-5090013Y1683363D01*
X-5088869Y1706642D01*
X-5085450Y1729697D01*
X-5079786Y1752306D01*
X-5071934Y1774250D01*
X-5061969Y1795320D01*
X-5049987Y1815311D01*
X-5036103Y1834031D01*
X-5020451Y1851301D01*
X-4613865Y2257887D01*
X-4596595Y2273539D01*
X-4577875Y2287423D01*
X-4557884Y2299405D01*
X-4536814Y2309370D01*
X-4514870Y2317222D01*
X-4492261Y2322886D01*
X-4469206Y2326305D01*
X-4445927Y2327449D01*
X-4422648Y2326305D01*
X-4422648Y2326305D01*
G37*
D20*
X-4481282Y1718718D03*
D17*
G36*
X-5660084Y1088869D02*
G01*
X-5637029Y1085450D01*
X-5614420Y1079786D01*
X-5592476Y1071934D01*
X-5571406Y1061969D01*
X-5551415Y1049987D01*
X-5532695Y1036103D01*
X-5515425Y1020451D01*
X-5179549Y684575D01*
X-5163897Y667305D01*
X-5150013Y648585D01*
X-5138031Y628594D01*
X-5128066Y607524D01*
X-5120214Y585580D01*
X-5114550Y562971D01*
X-5111131Y539916D01*
X-5109987Y516637D01*
X-5111131Y493358D01*
X-5114550Y470303D01*
X-5120214Y447694D01*
X-5128066Y425750D01*
X-5138031Y404680D01*
X-5150013Y384689D01*
X-5163897Y365969D01*
X-5179549Y348699D01*
X-5586135Y-57887D01*
X-5603405Y-73539D01*
X-5622125Y-87423D01*
X-5642116Y-99405D01*
X-5663186Y-109370D01*
X-5685130Y-117222D01*
X-5707739Y-122886D01*
X-5730794Y-126305D01*
X-5754073Y-127449D01*
X-5777352Y-126305D01*
X-5800407Y-122886D01*
X-5823016Y-117222D01*
X-5844960Y-109370D01*
X-5866030Y-99405D01*
X-5886021Y-87423D01*
X-5904741Y-73539D01*
X-5922011Y-57887D01*
X-6257887Y277989D01*
X-6273539Y295259D01*
X-6287423Y313979D01*
X-6299405Y333970D01*
X-6309370Y355040D01*
X-6317222Y376984D01*
X-6322886Y399593D01*
X-6326305Y422648D01*
X-6327449Y445927D01*
X-6326305Y469206D01*
X-6322886Y492261D01*
X-6317222Y514870D01*
X-6309370Y536814D01*
X-6299405Y557884D01*
X-6287423Y577875D01*
X-6273539Y596595D01*
X-6257887Y613865D01*
X-5851301Y1020451D01*
X-5834031Y1036103D01*
X-5815311Y1049987D01*
X-5795320Y1061969D01*
X-5774250Y1071934D01*
X-5752306Y1079786D01*
X-5729697Y1085450D01*
X-5706642Y1088869D01*
X-5683363Y1090013D01*
X-5660084Y1088869D01*
X-5660084Y1088869D01*
G37*
D20*
X-5718718Y481282D03*
D17*
G36*
X-643022Y7738256D02*
G01*
X-619967Y7734837D01*
X-597358Y7729173D01*
X-575414Y7721321D01*
X-554344Y7711356D01*
X-534353Y7699374D01*
X-515633Y7685490D01*
X-498363Y7669838D01*
X-482711Y7652568D01*
X-468827Y7633848D01*
X-456845Y7613857D01*
X-446880Y7592787D01*
X-439028Y7570843D01*
X-433364Y7548234D01*
X-429945Y7525179D01*
X-428801Y7501900D01*
X-428801Y7026900D01*
X-429945Y7003621D01*
X-433364Y6980566D01*
X-439028Y6957957D01*
X-446880Y6936013D01*
X-456845Y6914943D01*
X-468827Y6894952D01*
X-482711Y6876232D01*
X-498363Y6858962D01*
X-515633Y6843310D01*
X-534353Y6829426D01*
X-554344Y6817444D01*
X-575414Y6807479D01*
X-597358Y6799627D01*
X-619967Y6793963D01*
X-643022Y6790544D01*
X-666301Y6789400D01*
X-1241301Y6789400D01*
X-1264580Y6790544D01*
X-1287635Y6793963D01*
X-1310244Y6799627D01*
X-1332188Y6807479D01*
X-1353258Y6817444D01*
X-1373249Y6829426D01*
X-1391969Y6843310D01*
X-1409239Y6858962D01*
X-1424891Y6876232D01*
X-1438775Y6894952D01*
X-1450757Y6914943D01*
X-1460722Y6936013D01*
X-1468574Y6957957D01*
X-1474238Y6980566D01*
X-1477657Y7003621D01*
X-1478801Y7026900D01*
X-1478801Y7501900D01*
X-1477657Y7525179D01*
X-1474238Y7548234D01*
X-1468574Y7570843D01*
X-1460722Y7592787D01*
X-1450757Y7613857D01*
X-1438775Y7633848D01*
X-1424891Y7652568D01*
X-1409239Y7669838D01*
X-1391969Y7685490D01*
X-1373249Y7699374D01*
X-1353258Y7711356D01*
X-1332188Y7721321D01*
X-1310244Y7729173D01*
X-1287635Y7734837D01*
X-1264580Y7738256D01*
X-1241301Y7739400D01*
X-666301Y7739400D01*
X-643022Y7738256D01*
X-643022Y7738256D01*
G37*
D20*
X-953801Y7264400D03*
D17*
G36*
X-2393020Y7738256D02*
G01*
X-2369965Y7734837D01*
X-2347356Y7729173D01*
X-2325412Y7721321D01*
X-2304342Y7711356D01*
X-2284351Y7699374D01*
X-2265631Y7685490D01*
X-2248361Y7669838D01*
X-2232709Y7652568D01*
X-2218825Y7633848D01*
X-2206843Y7613857D01*
X-2196878Y7592787D01*
X-2189026Y7570843D01*
X-2183362Y7548234D01*
X-2179943Y7525179D01*
X-2178799Y7501900D01*
X-2178799Y7026900D01*
X-2179943Y7003621D01*
X-2183362Y6980566D01*
X-2189026Y6957957D01*
X-2196878Y6936013D01*
X-2206843Y6914943D01*
X-2218825Y6894952D01*
X-2232709Y6876232D01*
X-2248361Y6858962D01*
X-2265631Y6843310D01*
X-2284351Y6829426D01*
X-2304342Y6817444D01*
X-2325412Y6807479D01*
X-2347356Y6799627D01*
X-2369965Y6793963D01*
X-2393020Y6790544D01*
X-2416299Y6789400D01*
X-2991299Y6789400D01*
X-3014578Y6790544D01*
X-3037633Y6793963D01*
X-3060242Y6799627D01*
X-3082186Y6807479D01*
X-3103256Y6817444D01*
X-3123247Y6829426D01*
X-3141967Y6843310D01*
X-3159237Y6858962D01*
X-3174889Y6876232D01*
X-3188773Y6894952D01*
X-3200755Y6914943D01*
X-3210720Y6936013D01*
X-3218572Y6957957D01*
X-3224236Y6980566D01*
X-3227655Y7003621D01*
X-3228799Y7026900D01*
X-3228799Y7501900D01*
X-3227655Y7525179D01*
X-3224236Y7548234D01*
X-3218572Y7570843D01*
X-3210720Y7592787D01*
X-3200755Y7613857D01*
X-3188773Y7633848D01*
X-3174889Y7652568D01*
X-3159237Y7669838D01*
X-3141967Y7685490D01*
X-3123247Y7699374D01*
X-3103256Y7711356D01*
X-3082186Y7721321D01*
X-3060242Y7729173D01*
X-3037633Y7734837D01*
X-3014578Y7738256D01*
X-2991299Y7739400D01*
X-2416299Y7739400D01*
X-2393020Y7738256D01*
X-2393020Y7738256D01*
G37*
D20*
X-2703799Y7264400D03*
D17*
G36*
X-9848421Y20347256D02*
G01*
X-9825366Y20343837D01*
X-9802757Y20338173D01*
X-9780813Y20330321D01*
X-9759743Y20320356D01*
X-9739752Y20308374D01*
X-9721032Y20294490D01*
X-9703762Y20278838D01*
X-9688110Y20261568D01*
X-9674226Y20242848D01*
X-9662244Y20222857D01*
X-9652279Y20201787D01*
X-9644427Y20179843D01*
X-9638763Y20157234D01*
X-9635344Y20134179D01*
X-9634200Y20110900D01*
X-9634200Y19535900D01*
X-9635344Y19512621D01*
X-9638763Y19489566D01*
X-9644427Y19466957D01*
X-9652279Y19445013D01*
X-9662244Y19423943D01*
X-9674226Y19403952D01*
X-9688110Y19385232D01*
X-9703762Y19367962D01*
X-9721032Y19352310D01*
X-9739752Y19338426D01*
X-9759743Y19326444D01*
X-9780813Y19316479D01*
X-9802757Y19308627D01*
X-9825366Y19302963D01*
X-9848421Y19299544D01*
X-9871700Y19298400D01*
X-10346700Y19298400D01*
X-10369979Y19299544D01*
X-10393034Y19302963D01*
X-10415643Y19308627D01*
X-10437587Y19316479D01*
X-10458657Y19326444D01*
X-10478648Y19338426D01*
X-10497368Y19352310D01*
X-10514638Y19367962D01*
X-10530290Y19385232D01*
X-10544174Y19403952D01*
X-10556156Y19423943D01*
X-10566121Y19445013D01*
X-10573973Y19466957D01*
X-10579637Y19489566D01*
X-10583056Y19512621D01*
X-10584200Y19535900D01*
X-10584200Y20110900D01*
X-10583056Y20134179D01*
X-10579637Y20157234D01*
X-10573973Y20179843D01*
X-10566121Y20201787D01*
X-10556156Y20222857D01*
X-10544174Y20242848D01*
X-10530290Y20261568D01*
X-10514638Y20278838D01*
X-10497368Y20294490D01*
X-10478648Y20308374D01*
X-10458657Y20320356D01*
X-10437587Y20330321D01*
X-10415643Y20338173D01*
X-10393034Y20343837D01*
X-10369979Y20347256D01*
X-10346700Y20348400D01*
X-9871700Y20348400D01*
X-9848421Y20347256D01*
X-9848421Y20347256D01*
G37*
D20*
X-10109200Y19823400D03*
D17*
G36*
X-9848421Y18597256D02*
G01*
X-9825366Y18593837D01*
X-9802757Y18588173D01*
X-9780813Y18580321D01*
X-9759743Y18570356D01*
X-9739752Y18558374D01*
X-9721032Y18544490D01*
X-9703762Y18528838D01*
X-9688110Y18511568D01*
X-9674226Y18492848D01*
X-9662244Y18472857D01*
X-9652279Y18451787D01*
X-9644427Y18429843D01*
X-9638763Y18407234D01*
X-9635344Y18384179D01*
X-9634200Y18360900D01*
X-9634200Y17785900D01*
X-9635344Y17762621D01*
X-9638763Y17739566D01*
X-9644427Y17716957D01*
X-9652279Y17695013D01*
X-9662244Y17673943D01*
X-9674226Y17653952D01*
X-9688110Y17635232D01*
X-9703762Y17617962D01*
X-9721032Y17602310D01*
X-9739752Y17588426D01*
X-9759743Y17576444D01*
X-9780813Y17566479D01*
X-9802757Y17558627D01*
X-9825366Y17552963D01*
X-9848421Y17549544D01*
X-9871700Y17548400D01*
X-10346700Y17548400D01*
X-10369979Y17549544D01*
X-10393034Y17552963D01*
X-10415643Y17558627D01*
X-10437587Y17566479D01*
X-10458657Y17576444D01*
X-10478648Y17588426D01*
X-10497368Y17602310D01*
X-10514638Y17617962D01*
X-10530290Y17635232D01*
X-10544174Y17653952D01*
X-10556156Y17673943D01*
X-10566121Y17695013D01*
X-10573973Y17716957D01*
X-10579637Y17739566D01*
X-10583056Y17762621D01*
X-10584200Y17785900D01*
X-10584200Y18360900D01*
X-10583056Y18384179D01*
X-10579637Y18407234D01*
X-10573973Y18429843D01*
X-10566121Y18451787D01*
X-10556156Y18472857D01*
X-10544174Y18492848D01*
X-10530290Y18511568D01*
X-10514638Y18528838D01*
X-10497368Y18544490D01*
X-10478648Y18558374D01*
X-10458657Y18570356D01*
X-10437587Y18580321D01*
X-10415643Y18588173D01*
X-10393034Y18593837D01*
X-10369979Y18597256D01*
X-10346700Y18598400D01*
X-9871700Y18598400D01*
X-9848421Y18597256D01*
X-9848421Y18597256D01*
G37*
D20*
X-10109200Y18073400D03*
D17*
G36*
X7944779Y20260456D02*
G01*
X7967834Y20257037D01*
X7990443Y20251373D01*
X8012387Y20243521D01*
X8033457Y20233556D01*
X8053448Y20221574D01*
X8072168Y20207690D01*
X8089438Y20192038D01*
X8105090Y20174768D01*
X8118974Y20156048D01*
X8130956Y20136057D01*
X8140921Y20114987D01*
X8148773Y20093043D01*
X8154437Y20070434D01*
X8157856Y20047379D01*
X8159000Y20024100D01*
X8159000Y19549100D01*
X8157856Y19525821D01*
X8154437Y19502766D01*
X8148773Y19480157D01*
X8140921Y19458213D01*
X8130956Y19437143D01*
X8118974Y19417152D01*
X8105090Y19398432D01*
X8089438Y19381162D01*
X8072168Y19365510D01*
X8053448Y19351626D01*
X8033457Y19339644D01*
X8012387Y19329679D01*
X7990443Y19321827D01*
X7967834Y19316163D01*
X7944779Y19312744D01*
X7921500Y19311600D01*
X7346500Y19311600D01*
X7323221Y19312744D01*
X7300166Y19316163D01*
X7277557Y19321827D01*
X7255613Y19329679D01*
X7234543Y19339644D01*
X7214552Y19351626D01*
X7195832Y19365510D01*
X7178562Y19381162D01*
X7162910Y19398432D01*
X7149026Y19417152D01*
X7137044Y19437143D01*
X7127079Y19458213D01*
X7119227Y19480157D01*
X7113563Y19502766D01*
X7110144Y19525821D01*
X7109000Y19549100D01*
X7109000Y20024100D01*
X7110144Y20047379D01*
X7113563Y20070434D01*
X7119227Y20093043D01*
X7127079Y20114987D01*
X7137044Y20136057D01*
X7149026Y20156048D01*
X7162910Y20174768D01*
X7178562Y20192038D01*
X7195832Y20207690D01*
X7214552Y20221574D01*
X7234543Y20233556D01*
X7255613Y20243521D01*
X7277557Y20251373D01*
X7300166Y20257037D01*
X7323221Y20260456D01*
X7346500Y20261600D01*
X7921500Y20261600D01*
X7944779Y20260456D01*
X7944779Y20260456D01*
G37*
D20*
X7634000Y19786600D03*
D17*
G36*
X9694779Y20260456D02*
G01*
X9717834Y20257037D01*
X9740443Y20251373D01*
X9762387Y20243521D01*
X9783457Y20233556D01*
X9803448Y20221574D01*
X9822168Y20207690D01*
X9839438Y20192038D01*
X9855090Y20174768D01*
X9868974Y20156048D01*
X9880956Y20136057D01*
X9890921Y20114987D01*
X9898773Y20093043D01*
X9904437Y20070434D01*
X9907856Y20047379D01*
X9909000Y20024100D01*
X9909000Y19549100D01*
X9907856Y19525821D01*
X9904437Y19502766D01*
X9898773Y19480157D01*
X9890921Y19458213D01*
X9880956Y19437143D01*
X9868974Y19417152D01*
X9855090Y19398432D01*
X9839438Y19381162D01*
X9822168Y19365510D01*
X9803448Y19351626D01*
X9783457Y19339644D01*
X9762387Y19329679D01*
X9740443Y19321827D01*
X9717834Y19316163D01*
X9694779Y19312744D01*
X9671500Y19311600D01*
X9096500Y19311600D01*
X9073221Y19312744D01*
X9050166Y19316163D01*
X9027557Y19321827D01*
X9005613Y19329679D01*
X8984543Y19339644D01*
X8964552Y19351626D01*
X8945832Y19365510D01*
X8928562Y19381162D01*
X8912910Y19398432D01*
X8899026Y19417152D01*
X8887044Y19437143D01*
X8877079Y19458213D01*
X8869227Y19480157D01*
X8863563Y19502766D01*
X8860144Y19525821D01*
X8859000Y19549100D01*
X8859000Y20024100D01*
X8860144Y20047379D01*
X8863563Y20070434D01*
X8869227Y20093043D01*
X8877079Y20114987D01*
X8887044Y20136057D01*
X8899026Y20156048D01*
X8912910Y20174768D01*
X8928562Y20192038D01*
X8945832Y20207690D01*
X8964552Y20221574D01*
X8984543Y20233556D01*
X9005613Y20243521D01*
X9027557Y20251373D01*
X9050166Y20257037D01*
X9073221Y20260456D01*
X9096500Y20261600D01*
X9671500Y20261600D01*
X9694779Y20260456D01*
X9694779Y20260456D01*
G37*
D20*
X9384000Y19786600D03*
D17*
G36*
X7569206Y1835905D02*
G01*
X7592261Y1832486D01*
X7614870Y1826822D01*
X7636814Y1818970D01*
X7657884Y1809005D01*
X7677875Y1797023D01*
X7696595Y1783139D01*
X7713865Y1767487D01*
X8120451Y1360901D01*
X8136103Y1343631D01*
X8149987Y1324911D01*
X8161969Y1304920D01*
X8171934Y1283850D01*
X8179786Y1261906D01*
X8185450Y1239297D01*
X8188869Y1216242D01*
X8190013Y1192963D01*
X8188869Y1169684D01*
X8185450Y1146629D01*
X8179786Y1124020D01*
X8171934Y1102076D01*
X8161969Y1081006D01*
X8149987Y1061015D01*
X8136103Y1042295D01*
X8120451Y1025025D01*
X7784575Y689149D01*
X7767305Y673497D01*
X7748585Y659613D01*
X7728594Y647631D01*
X7707524Y637666D01*
X7685580Y629814D01*
X7662971Y624150D01*
X7639916Y620731D01*
X7616637Y619587D01*
X7593358Y620731D01*
X7570303Y624150D01*
X7547694Y629814D01*
X7525750Y637666D01*
X7504680Y647631D01*
X7484689Y659613D01*
X7465969Y673497D01*
X7448699Y689149D01*
X7042113Y1095735D01*
X7026461Y1113005D01*
X7012577Y1131725D01*
X7000595Y1151716D01*
X6990630Y1172786D01*
X6982778Y1194730D01*
X6977114Y1217339D01*
X6973695Y1240394D01*
X6972551Y1263673D01*
X6973695Y1286952D01*
X6977114Y1310007D01*
X6982778Y1332616D01*
X6990630Y1354560D01*
X7000595Y1375630D01*
X7012577Y1395621D01*
X7026461Y1414341D01*
X7042113Y1431611D01*
X7377989Y1767487D01*
X7395259Y1783139D01*
X7413979Y1797023D01*
X7433970Y1809005D01*
X7455040Y1818970D01*
X7476984Y1826822D01*
X7499593Y1832486D01*
X7522648Y1835905D01*
X7545927Y1837049D01*
X7569206Y1835905D01*
X7569206Y1835905D01*
G37*
D20*
X7581282Y1228318D03*
D17*
G36*
X8806642Y598469D02*
G01*
X8829697Y595050D01*
X8852306Y589386D01*
X8874250Y581534D01*
X8895320Y571569D01*
X8915311Y559587D01*
X8934031Y545703D01*
X8951301Y530051D01*
X9357887Y123465D01*
X9373539Y106195D01*
X9387423Y87475D01*
X9399405Y67484D01*
X9409370Y46414D01*
X9417222Y24470D01*
X9422886Y1861D01*
X9426305Y-21194D01*
X9427449Y-44473D01*
X9426305Y-67752D01*
X9422886Y-90807D01*
X9417222Y-113416D01*
X9409370Y-135360D01*
X9399405Y-156430D01*
X9387423Y-176421D01*
X9373539Y-195141D01*
X9357887Y-212411D01*
X9022011Y-548287D01*
X9004741Y-563939D01*
X8986021Y-577823D01*
X8966030Y-589805D01*
X8944960Y-599770D01*
X8923016Y-607622D01*
X8900407Y-613286D01*
X8877352Y-616705D01*
X8854073Y-617849D01*
X8830794Y-616705D01*
X8807739Y-613286D01*
X8785130Y-607622D01*
X8763186Y-599770D01*
X8742116Y-589805D01*
X8722125Y-577823D01*
X8703405Y-563939D01*
X8686135Y-548287D01*
X8279549Y-141701D01*
X8263897Y-124431D01*
X8250013Y-105711D01*
X8238031Y-85720D01*
X8228066Y-64650D01*
X8220214Y-42706D01*
X8214550Y-20097D01*
X8211131Y2958D01*
X8209987Y26237D01*
X8211131Y49516D01*
X8214550Y72571D01*
X8220214Y95180D01*
X8228066Y117124D01*
X8238031Y138194D01*
X8250013Y158185D01*
X8263897Y176905D01*
X8279549Y194175D01*
X8615425Y530051D01*
X8632695Y545703D01*
X8651415Y559587D01*
X8671406Y571569D01*
X8692476Y581534D01*
X8714420Y589386D01*
X8737029Y595050D01*
X8760084Y598469D01*
X8783363Y599613D01*
X8806642Y598469D01*
X8806642Y598469D01*
G37*
D20*
X8818718Y-9118D03*
D17*
G36*
X7206642Y-1111131D02*
G01*
X7229697Y-1114550D01*
X7252306Y-1120214D01*
X7274250Y-1128066D01*
X7295320Y-1138031D01*
X7315311Y-1150013D01*
X7334031Y-1163897D01*
X7351301Y-1179549D01*
X7757887Y-1586135D01*
X7773539Y-1603405D01*
X7787423Y-1622125D01*
X7799405Y-1642116D01*
X7809370Y-1663186D01*
X7817222Y-1685130D01*
X7822886Y-1707739D01*
X7826305Y-1730794D01*
X7827449Y-1754073D01*
X7826305Y-1777352D01*
X7822886Y-1800407D01*
X7817222Y-1823016D01*
X7809370Y-1844960D01*
X7799405Y-1866030D01*
X7787423Y-1886021D01*
X7773539Y-1904741D01*
X7757887Y-1922011D01*
X7422011Y-2257887D01*
X7404741Y-2273539D01*
X7386021Y-2287423D01*
X7366030Y-2299405D01*
X7344960Y-2309370D01*
X7323016Y-2317222D01*
X7300407Y-2322886D01*
X7277352Y-2326305D01*
X7254073Y-2327449D01*
X7230794Y-2326305D01*
X7207739Y-2322886D01*
X7185130Y-2317222D01*
X7163186Y-2309370D01*
X7142116Y-2299405D01*
X7122125Y-2287423D01*
X7103405Y-2273539D01*
X7086135Y-2257887D01*
X6679549Y-1851301D01*
X6663897Y-1834031D01*
X6650013Y-1815311D01*
X6638031Y-1795320D01*
X6628066Y-1774250D01*
X6620214Y-1752306D01*
X6614550Y-1729697D01*
X6611131Y-1706642D01*
X6609987Y-1683363D01*
X6611131Y-1660084D01*
X6614550Y-1637029D01*
X6620214Y-1614420D01*
X6628066Y-1592476D01*
X6638031Y-1571406D01*
X6650013Y-1551415D01*
X6663897Y-1532695D01*
X6679549Y-1515425D01*
X7015425Y-1179549D01*
X7032695Y-1163897D01*
X7051415Y-1150013D01*
X7071406Y-1138031D01*
X7092476Y-1128066D01*
X7114420Y-1120214D01*
X7137029Y-1114550D01*
X7160084Y-1111131D01*
X7183363Y-1109987D01*
X7206642Y-1111131D01*
X7206642Y-1111131D01*
G37*
D20*
X7218718Y-1718718D03*
D17*
G36*
X5969206Y126305D02*
G01*
X5992261Y122886D01*
X6014870Y117222D01*
X6036814Y109370D01*
X6057884Y99405D01*
X6077875Y87423D01*
X6096595Y73539D01*
X6113865Y57887D01*
X6520451Y-348699D01*
X6536103Y-365969D01*
X6549987Y-384689D01*
X6561969Y-404680D01*
X6571934Y-425750D01*
X6579786Y-447694D01*
X6585450Y-470303D01*
X6588869Y-493358D01*
X6590013Y-516637D01*
X6588869Y-539916D01*
X6585450Y-562971D01*
X6579786Y-585580D01*
X6571934Y-607524D01*
X6561969Y-628594D01*
X6549987Y-648585D01*
X6536103Y-667305D01*
X6520451Y-684575D01*
X6184575Y-1020451D01*
X6167305Y-1036103D01*
X6148585Y-1049987D01*
X6128594Y-1061969D01*
X6107524Y-1071934D01*
X6085580Y-1079786D01*
X6062971Y-1085450D01*
X6039916Y-1088869D01*
X6016637Y-1090013D01*
X5993358Y-1088869D01*
X5970303Y-1085450D01*
X5947694Y-1079786D01*
X5925750Y-1071934D01*
X5904680Y-1061969D01*
X5884689Y-1049987D01*
X5865969Y-1036103D01*
X5848699Y-1020451D01*
X5442113Y-613865D01*
X5426461Y-596595D01*
X5412577Y-577875D01*
X5400595Y-557884D01*
X5390630Y-536814D01*
X5382778Y-514870D01*
X5377114Y-492261D01*
X5373695Y-469206D01*
X5372551Y-445927D01*
X5373695Y-422648D01*
X5377114Y-399593D01*
X5382778Y-376984D01*
X5390630Y-355040D01*
X5400595Y-333970D01*
X5412577Y-313979D01*
X5426461Y-295259D01*
X5442113Y-277989D01*
X5777989Y57887D01*
X5795259Y73539D01*
X5813979Y87423D01*
X5833970Y99405D01*
X5855040Y109370D01*
X5876984Y117222D01*
X5899593Y122886D01*
X5922648Y126305D01*
X5945927Y127449D01*
X5969206Y126305D01*
X5969206Y126305D01*
G37*
D20*
X5981282Y-481282D03*
D17*
G36*
X4860779Y11208856D02*
G01*
X4883834Y11205437D01*
X4906443Y11199773D01*
X4928387Y11191921D01*
X4949457Y11181956D01*
X4969448Y11169974D01*
X4988168Y11156090D01*
X5005438Y11140438D01*
X5021090Y11123168D01*
X5034974Y11104448D01*
X5046956Y11084457D01*
X5056921Y11063387D01*
X5064773Y11041443D01*
X5070437Y11018834D01*
X5073856Y10995779D01*
X5075000Y10972500D01*
X5075000Y10397500D01*
X5073856Y10374221D01*
X5070437Y10351166D01*
X5064773Y10328557D01*
X5056921Y10306613D01*
X5046956Y10285543D01*
X5034974Y10265552D01*
X5021090Y10246832D01*
X5005438Y10229562D01*
X4988168Y10213910D01*
X4969448Y10200026D01*
X4949457Y10188044D01*
X4928387Y10178079D01*
X4906443Y10170227D01*
X4883834Y10164563D01*
X4860779Y10161144D01*
X4837500Y10160000D01*
X4362500Y10160000D01*
X4339221Y10161144D01*
X4316166Y10164563D01*
X4293557Y10170227D01*
X4271613Y10178079D01*
X4250543Y10188044D01*
X4230552Y10200026D01*
X4211832Y10213910D01*
X4194562Y10229562D01*
X4178910Y10246832D01*
X4165026Y10265552D01*
X4153044Y10285543D01*
X4143079Y10306613D01*
X4135227Y10328557D01*
X4129563Y10351166D01*
X4126144Y10374221D01*
X4125000Y10397500D01*
X4125000Y10972500D01*
X4126144Y10995779D01*
X4129563Y11018834D01*
X4135227Y11041443D01*
X4143079Y11063387D01*
X4153044Y11084457D01*
X4165026Y11104448D01*
X4178910Y11123168D01*
X4194562Y11140438D01*
X4211832Y11156090D01*
X4230552Y11169974D01*
X4250543Y11181956D01*
X4271613Y11191921D01*
X4293557Y11199773D01*
X4316166Y11205437D01*
X4339221Y11208856D01*
X4362500Y11210000D01*
X4837500Y11210000D01*
X4860779Y11208856D01*
X4860779Y11208856D01*
G37*
D20*
X4600000Y10685000D03*
D17*
G36*
X4860779Y12958856D02*
G01*
X4883834Y12955437D01*
X4906443Y12949773D01*
X4928387Y12941921D01*
X4949457Y12931956D01*
X4969448Y12919974D01*
X4988168Y12906090D01*
X5005438Y12890438D01*
X5021090Y12873168D01*
X5034974Y12854448D01*
X5046956Y12834457D01*
X5056921Y12813387D01*
X5064773Y12791443D01*
X5070437Y12768834D01*
X5073856Y12745779D01*
X5075000Y12722500D01*
X5075000Y12147500D01*
X5073856Y12124221D01*
X5070437Y12101166D01*
X5064773Y12078557D01*
X5056921Y12056613D01*
X5046956Y12035543D01*
X5034974Y12015552D01*
X5021090Y11996832D01*
X5005438Y11979562D01*
X4988168Y11963910D01*
X4969448Y11950026D01*
X4949457Y11938044D01*
X4928387Y11928079D01*
X4906443Y11920227D01*
X4883834Y11914563D01*
X4860779Y11911144D01*
X4837500Y11910000D01*
X4362500Y11910000D01*
X4339221Y11911144D01*
X4316166Y11914563D01*
X4293557Y11920227D01*
X4271613Y11928079D01*
X4250543Y11938044D01*
X4230552Y11950026D01*
X4211832Y11963910D01*
X4194562Y11979562D01*
X4178910Y11996832D01*
X4165026Y12015552D01*
X4153044Y12035543D01*
X4143079Y12056613D01*
X4135227Y12078557D01*
X4129563Y12101166D01*
X4126144Y12124221D01*
X4125000Y12147500D01*
X4125000Y12722500D01*
X4126144Y12745779D01*
X4129563Y12768834D01*
X4135227Y12791443D01*
X4143079Y12813387D01*
X4153044Y12834457D01*
X4165026Y12854448D01*
X4178910Y12873168D01*
X4194562Y12890438D01*
X4211832Y12906090D01*
X4230552Y12919974D01*
X4250543Y12931956D01*
X4271613Y12941921D01*
X4293557Y12949773D01*
X4316166Y12955437D01*
X4339221Y12958856D01*
X4362500Y12960000D01*
X4837500Y12960000D01*
X4860779Y12958856D01*
X4860779Y12958856D01*
G37*
D20*
X4600000Y12435000D03*
D17*
G36*
X3124505Y10958796D02*
G01*
X3148773Y10955196D01*
X3172572Y10949235D01*
X3195671Y10940970D01*
X3217850Y10930480D01*
X3238893Y10917868D01*
X3258599Y10903253D01*
X3276777Y10886777D01*
X3293253Y10868599D01*
X3307868Y10848893D01*
X3320480Y10827850D01*
X3330970Y10805671D01*
X3339235Y10782572D01*
X3345196Y10758773D01*
X3348796Y10734505D01*
X3350000Y10710001D01*
X3350000Y10059999D01*
X3348796Y10035495D01*
X3345196Y10011227D01*
X3339235Y9987428D01*
X3330970Y9964329D01*
X3320480Y9942150D01*
X3307868Y9921107D01*
X3293253Y9901401D01*
X3276777Y9883223D01*
X3258599Y9866747D01*
X3238893Y9852132D01*
X3217850Y9839520D01*
X3195671Y9829030D01*
X3172572Y9820765D01*
X3148773Y9814804D01*
X3124505Y9811204D01*
X3100001Y9810000D01*
X2199999Y9810000D01*
X2175495Y9811204D01*
X2151227Y9814804D01*
X2127428Y9820765D01*
X2104329Y9829030D01*
X2082150Y9839520D01*
X2061107Y9852132D01*
X2041401Y9866747D01*
X2023223Y9883223D01*
X2006747Y9901401D01*
X1992132Y9921107D01*
X1979520Y9942150D01*
X1969030Y9964329D01*
X1960765Y9987428D01*
X1954804Y10011227D01*
X1951204Y10035495D01*
X1950000Y10059999D01*
X1950000Y10710001D01*
X1951204Y10734505D01*
X1954804Y10758773D01*
X1960765Y10782572D01*
X1969030Y10805671D01*
X1979520Y10827850D01*
X1992132Y10848893D01*
X2006747Y10868599D01*
X2023223Y10886777D01*
X2041401Y10903253D01*
X2061107Y10917868D01*
X2082150Y10930480D01*
X2104329Y10940970D01*
X2127428Y10949235D01*
X2151227Y10955196D01*
X2175495Y10958796D01*
X2199999Y10960000D01*
X3100001Y10960000D01*
X3124505Y10958796D01*
X3124505Y10958796D01*
G37*
D21*
X2650000Y10385000D03*
D17*
G36*
X3124505Y13008796D02*
G01*
X3148773Y13005196D01*
X3172572Y12999235D01*
X3195671Y12990970D01*
X3217850Y12980480D01*
X3238893Y12967868D01*
X3258599Y12953253D01*
X3276777Y12936777D01*
X3293253Y12918599D01*
X3307868Y12898893D01*
X3320480Y12877850D01*
X3330970Y12855671D01*
X3339235Y12832572D01*
X3345196Y12808773D01*
X3348796Y12784505D01*
X3350000Y12760001D01*
X3350000Y12109999D01*
X3348796Y12085495D01*
X3345196Y12061227D01*
X3339235Y12037428D01*
X3330970Y12014329D01*
X3320480Y11992150D01*
X3307868Y11971107D01*
X3293253Y11951401D01*
X3276777Y11933223D01*
X3258599Y11916747D01*
X3238893Y11902132D01*
X3217850Y11889520D01*
X3195671Y11879030D01*
X3172572Y11870765D01*
X3148773Y11864804D01*
X3124505Y11861204D01*
X3100001Y11860000D01*
X2199999Y11860000D01*
X2175495Y11861204D01*
X2151227Y11864804D01*
X2127428Y11870765D01*
X2104329Y11879030D01*
X2082150Y11889520D01*
X2061107Y11902132D01*
X2041401Y11916747D01*
X2023223Y11933223D01*
X2006747Y11951401D01*
X1992132Y11971107D01*
X1979520Y11992150D01*
X1969030Y12014329D01*
X1960765Y12037428D01*
X1954804Y12061227D01*
X1951204Y12085495D01*
X1950000Y12109999D01*
X1950000Y12760001D01*
X1951204Y12784505D01*
X1954804Y12808773D01*
X1960765Y12832572D01*
X1969030Y12855671D01*
X1979520Y12877850D01*
X1992132Y12898893D01*
X2006747Y12918599D01*
X2023223Y12936777D01*
X2041401Y12953253D01*
X2061107Y12967868D01*
X2082150Y12980480D01*
X2104329Y12990970D01*
X2127428Y12999235D01*
X2151227Y13005196D01*
X2175495Y13008796D01*
X2199999Y13010000D01*
X3100001Y13010000D01*
X3124505Y13008796D01*
X3124505Y13008796D01*
G37*
D21*
X2650000Y12435000D03*
D17*
G36*
X6018091Y20197747D02*
G01*
X6039326Y20194597D01*
X6060150Y20189381D01*
X6080362Y20182149D01*
X6099768Y20172970D01*
X6118181Y20161934D01*
X6135424Y20149146D01*
X6151330Y20134730D01*
X6165746Y20118824D01*
X6178534Y20101581D01*
X6189570Y20083168D01*
X6198749Y20063762D01*
X6205981Y20043550D01*
X6211197Y20022726D01*
X6214347Y20001491D01*
X6215400Y19980050D01*
X6215400Y19542550D01*
X6214347Y19521109D01*
X6211197Y19499874D01*
X6205981Y19479050D01*
X6198749Y19458838D01*
X6189570Y19439432D01*
X6178534Y19421019D01*
X6165746Y19403776D01*
X6151330Y19387870D01*
X6135424Y19373454D01*
X6118181Y19360666D01*
X6099768Y19349630D01*
X6080362Y19340451D01*
X6060150Y19333219D01*
X6039326Y19328003D01*
X6018091Y19324853D01*
X5996650Y19323800D01*
X5484150Y19323800D01*
X5462709Y19324853D01*
X5441474Y19328003D01*
X5420650Y19333219D01*
X5400438Y19340451D01*
X5381032Y19349630D01*
X5362619Y19360666D01*
X5345376Y19373454D01*
X5329470Y19387870D01*
X5315054Y19403776D01*
X5302266Y19421019D01*
X5291230Y19439432D01*
X5282051Y19458838D01*
X5274819Y19479050D01*
X5269603Y19499874D01*
X5266453Y19521109D01*
X5265400Y19542550D01*
X5265400Y19980050D01*
X5266453Y20001491D01*
X5269603Y20022726D01*
X5274819Y20043550D01*
X5282051Y20063762D01*
X5291230Y20083168D01*
X5302266Y20101581D01*
X5315054Y20118824D01*
X5329470Y20134730D01*
X5345376Y20149146D01*
X5362619Y20161934D01*
X5381032Y20172970D01*
X5400438Y20182149D01*
X5420650Y20189381D01*
X5441474Y20194597D01*
X5462709Y20197747D01*
X5484150Y20198800D01*
X5996650Y20198800D01*
X6018091Y20197747D01*
X6018091Y20197747D01*
G37*
D22*
X5740400Y19761300D03*
D17*
G36*
X6018091Y18622747D02*
G01*
X6039326Y18619597D01*
X6060150Y18614381D01*
X6080362Y18607149D01*
X6099768Y18597970D01*
X6118181Y18586934D01*
X6135424Y18574146D01*
X6151330Y18559730D01*
X6165746Y18543824D01*
X6178534Y18526581D01*
X6189570Y18508168D01*
X6198749Y18488762D01*
X6205981Y18468550D01*
X6211197Y18447726D01*
X6214347Y18426491D01*
X6215400Y18405050D01*
X6215400Y17967550D01*
X6214347Y17946109D01*
X6211197Y17924874D01*
X6205981Y17904050D01*
X6198749Y17883838D01*
X6189570Y17864432D01*
X6178534Y17846019D01*
X6165746Y17828776D01*
X6151330Y17812870D01*
X6135424Y17798454D01*
X6118181Y17785666D01*
X6099768Y17774630D01*
X6080362Y17765451D01*
X6060150Y17758219D01*
X6039326Y17753003D01*
X6018091Y17749853D01*
X5996650Y17748800D01*
X5484150Y17748800D01*
X5462709Y17749853D01*
X5441474Y17753003D01*
X5420650Y17758219D01*
X5400438Y17765451D01*
X5381032Y17774630D01*
X5362619Y17785666D01*
X5345376Y17798454D01*
X5329470Y17812870D01*
X5315054Y17828776D01*
X5302266Y17846019D01*
X5291230Y17864432D01*
X5282051Y17883838D01*
X5274819Y17904050D01*
X5269603Y17924874D01*
X5266453Y17946109D01*
X5265400Y17967550D01*
X5265400Y18405050D01*
X5266453Y18426491D01*
X5269603Y18447726D01*
X5274819Y18468550D01*
X5282051Y18488762D01*
X5291230Y18508168D01*
X5302266Y18526581D01*
X5315054Y18543824D01*
X5329470Y18559730D01*
X5345376Y18574146D01*
X5362619Y18586934D01*
X5381032Y18597970D01*
X5400438Y18607149D01*
X5420650Y18614381D01*
X5441474Y18619597D01*
X5462709Y18622747D01*
X5484150Y18623800D01*
X5996650Y18623800D01*
X6018091Y18622747D01*
X6018091Y18622747D01*
G37*
D22*
X5740400Y18186300D03*
D17*
G36*
X-5437309Y20197747D02*
G01*
X-5416074Y20194597D01*
X-5395250Y20189381D01*
X-5375038Y20182149D01*
X-5355632Y20172970D01*
X-5337219Y20161934D01*
X-5319976Y20149146D01*
X-5304070Y20134730D01*
X-5289654Y20118824D01*
X-5276866Y20101581D01*
X-5265830Y20083168D01*
X-5256651Y20063762D01*
X-5249419Y20043550D01*
X-5244203Y20022726D01*
X-5241053Y20001491D01*
X-5240000Y19980050D01*
X-5240000Y19542550D01*
X-5241053Y19521109D01*
X-5244203Y19499874D01*
X-5249419Y19479050D01*
X-5256651Y19458838D01*
X-5265830Y19439432D01*
X-5276866Y19421019D01*
X-5289654Y19403776D01*
X-5304070Y19387870D01*
X-5319976Y19373454D01*
X-5337219Y19360666D01*
X-5355632Y19349630D01*
X-5375038Y19340451D01*
X-5395250Y19333219D01*
X-5416074Y19328003D01*
X-5437309Y19324853D01*
X-5458750Y19323800D01*
X-5971250Y19323800D01*
X-5992691Y19324853D01*
X-6013926Y19328003D01*
X-6034750Y19333219D01*
X-6054962Y19340451D01*
X-6074368Y19349630D01*
X-6092781Y19360666D01*
X-6110024Y19373454D01*
X-6125930Y19387870D01*
X-6140346Y19403776D01*
X-6153134Y19421019D01*
X-6164170Y19439432D01*
X-6173349Y19458838D01*
X-6180581Y19479050D01*
X-6185797Y19499874D01*
X-6188947Y19521109D01*
X-6190000Y19542550D01*
X-6190000Y19980050D01*
X-6188947Y20001491D01*
X-6185797Y20022726D01*
X-6180581Y20043550D01*
X-6173349Y20063762D01*
X-6164170Y20083168D01*
X-6153134Y20101581D01*
X-6140346Y20118824D01*
X-6125930Y20134730D01*
X-6110024Y20149146D01*
X-6092781Y20161934D01*
X-6074368Y20172970D01*
X-6054962Y20182149D01*
X-6034750Y20189381D01*
X-6013926Y20194597D01*
X-5992691Y20197747D01*
X-5971250Y20198800D01*
X-5458750Y20198800D01*
X-5437309Y20197747D01*
X-5437309Y20197747D01*
G37*
D22*
X-5715000Y19761300D03*
D17*
G36*
X-5437309Y18622747D02*
G01*
X-5416074Y18619597D01*
X-5395250Y18614381D01*
X-5375038Y18607149D01*
X-5355632Y18597970D01*
X-5337219Y18586934D01*
X-5319976Y18574146D01*
X-5304070Y18559730D01*
X-5289654Y18543824D01*
X-5276866Y18526581D01*
X-5265830Y18508168D01*
X-5256651Y18488762D01*
X-5249419Y18468550D01*
X-5244203Y18447726D01*
X-5241053Y18426491D01*
X-5240000Y18405050D01*
X-5240000Y17967550D01*
X-5241053Y17946109D01*
X-5244203Y17924874D01*
X-5249419Y17904050D01*
X-5256651Y17883838D01*
X-5265830Y17864432D01*
X-5276866Y17846019D01*
X-5289654Y17828776D01*
X-5304070Y17812870D01*
X-5319976Y17798454D01*
X-5337219Y17785666D01*
X-5355632Y17774630D01*
X-5375038Y17765451D01*
X-5395250Y17758219D01*
X-5416074Y17753003D01*
X-5437309Y17749853D01*
X-5458750Y17748800D01*
X-5971250Y17748800D01*
X-5992691Y17749853D01*
X-6013926Y17753003D01*
X-6034750Y17758219D01*
X-6054962Y17765451D01*
X-6074368Y17774630D01*
X-6092781Y17785666D01*
X-6110024Y17798454D01*
X-6125930Y17812870D01*
X-6140346Y17828776D01*
X-6153134Y17846019D01*
X-6164170Y17864432D01*
X-6173349Y17883838D01*
X-6180581Y17904050D01*
X-6185797Y17924874D01*
X-6188947Y17946109D01*
X-6190000Y17967550D01*
X-6190000Y18405050D01*
X-6188947Y18426491D01*
X-6185797Y18447726D01*
X-6180581Y18468550D01*
X-6173349Y18488762D01*
X-6164170Y18508168D01*
X-6153134Y18526581D01*
X-6140346Y18543824D01*
X-6125930Y18559730D01*
X-6110024Y18574146D01*
X-6092781Y18586934D01*
X-6074368Y18597970D01*
X-6054962Y18607149D01*
X-6034750Y18614381D01*
X-6013926Y18619597D01*
X-5992691Y18622747D01*
X-5971250Y18623800D01*
X-5458750Y18623800D01*
X-5437309Y18622747D01*
X-5437309Y18622747D01*
G37*
D22*
X-5715000Y18186300D03*
D23*
X4985103Y-5825305D03*
D17*
G36*
X4224963Y-5454074D02*
G01*
X4613872Y-5065165D01*
X5745243Y-6196536D01*
X5356334Y-6585445D01*
X4224963Y-5454074D01*
X4224963Y-5454074D01*
G37*
D23*
X4419417Y-6390990D03*
D17*
G36*
X3659277Y-6019759D02*
G01*
X4048186Y-5630850D01*
X5179557Y-6762221D01*
X4790648Y-7151130D01*
X3659277Y-6019759D01*
X3659277Y-6019759D01*
G37*
D23*
X3853732Y-6956676D03*
D17*
G36*
X3093592Y-6585445D02*
G01*
X3482501Y-6196536D01*
X4613872Y-7327907D01*
X4224963Y-7716816D01*
X3093592Y-6585445D01*
X3093592Y-6585445D01*
G37*
D23*
X3288047Y-7522361D03*
D17*
G36*
X2527907Y-7151130D02*
G01*
X2916816Y-6762221D01*
X4048187Y-7893592D01*
X3659278Y-8282501D01*
X2527907Y-7151130D01*
X2527907Y-7151130D01*
G37*
D23*
X2722361Y-8088047D03*
D17*
G36*
X1962221Y-7716816D02*
G01*
X2351130Y-7327907D01*
X3482501Y-8459278D01*
X3093592Y-8848187D01*
X1962221Y-7716816D01*
X1962221Y-7716816D01*
G37*
D23*
X2156676Y-8653732D03*
D17*
G36*
X1396536Y-8282501D02*
G01*
X1785445Y-7893592D01*
X2916816Y-9024963D01*
X2527907Y-9413872D01*
X1396536Y-8282501D01*
X1396536Y-8282501D01*
G37*
D23*
X1590990Y-9219417D03*
D17*
G36*
X830850Y-8848186D02*
G01*
X1219759Y-8459277D01*
X2351130Y-9590648D01*
X1962221Y-9979557D01*
X830850Y-8848186D01*
X830850Y-8848186D01*
G37*
D23*
X1025305Y-9785103D03*
D17*
G36*
X265165Y-9413872D02*
G01*
X654074Y-9024963D01*
X1785445Y-10156334D01*
X1396536Y-10545243D01*
X265165Y-9413872D01*
X265165Y-9413872D01*
G37*
D23*
X-1025305Y-9785103D03*
D17*
G36*
X-654074Y-9024963D02*
G01*
X-265165Y-9413872D01*
X-1396536Y-10545243D01*
X-1785445Y-10156334D01*
X-654074Y-9024963D01*
X-654074Y-9024963D01*
G37*
D23*
X-1590990Y-9219417D03*
D17*
G36*
X-1219759Y-8459277D02*
G01*
X-830850Y-8848186D01*
X-1962221Y-9979557D01*
X-2351130Y-9590648D01*
X-1219759Y-8459277D01*
X-1219759Y-8459277D01*
G37*
D23*
X-2156676Y-8653732D03*
D17*
G36*
X-1785445Y-7893592D02*
G01*
X-1396536Y-8282501D01*
X-2527907Y-9413872D01*
X-2916816Y-9024963D01*
X-1785445Y-7893592D01*
X-1785445Y-7893592D01*
G37*
D23*
X-2722361Y-8088047D03*
D17*
G36*
X-2351130Y-7327907D02*
G01*
X-1962221Y-7716816D01*
X-3093592Y-8848187D01*
X-3482501Y-8459278D01*
X-2351130Y-7327907D01*
X-2351130Y-7327907D01*
G37*
D23*
X-3288047Y-7522361D03*
D17*
G36*
X-2916816Y-6762221D02*
G01*
X-2527907Y-7151130D01*
X-3659278Y-8282501D01*
X-4048187Y-7893592D01*
X-2916816Y-6762221D01*
X-2916816Y-6762221D01*
G37*
D23*
X-3853732Y-6956676D03*
D17*
G36*
X-3482501Y-6196536D02*
G01*
X-3093592Y-6585445D01*
X-4224963Y-7716816D01*
X-4613872Y-7327907D01*
X-3482501Y-6196536D01*
X-3482501Y-6196536D01*
G37*
D23*
X-4419417Y-6390990D03*
D17*
G36*
X-4048186Y-5630850D02*
G01*
X-3659277Y-6019759D01*
X-4790648Y-7151130D01*
X-5179557Y-6762221D01*
X-4048186Y-5630850D01*
X-4048186Y-5630850D01*
G37*
D23*
X-4985103Y-5825305D03*
D17*
G36*
X-4613872Y-5065165D02*
G01*
X-4224963Y-5454074D01*
X-5356334Y-6585445D01*
X-5745243Y-6196536D01*
X-4613872Y-5065165D01*
X-4613872Y-5065165D01*
G37*
D23*
X-4985103Y-3774695D03*
D17*
G36*
X-5745243Y-3403464D02*
G01*
X-5356334Y-3014555D01*
X-4224963Y-4145926D01*
X-4613872Y-4534835D01*
X-5745243Y-3403464D01*
X-5745243Y-3403464D01*
G37*
D23*
X-4419417Y-3209010D03*
D17*
G36*
X-5179557Y-2837779D02*
G01*
X-4790648Y-2448870D01*
X-3659277Y-3580241D01*
X-4048186Y-3969150D01*
X-5179557Y-2837779D01*
X-5179557Y-2837779D01*
G37*
D23*
X-3853732Y-2643324D03*
D17*
G36*
X-4613872Y-2272093D02*
G01*
X-4224963Y-1883184D01*
X-3093592Y-3014555D01*
X-3482501Y-3403464D01*
X-4613872Y-2272093D01*
X-4613872Y-2272093D01*
G37*
D23*
X-3288047Y-2077639D03*
D17*
G36*
X-4048187Y-1706408D02*
G01*
X-3659278Y-1317499D01*
X-2527907Y-2448870D01*
X-2916816Y-2837779D01*
X-4048187Y-1706408D01*
X-4048187Y-1706408D01*
G37*
D23*
X-2722361Y-1511953D03*
D17*
G36*
X-3482501Y-1140722D02*
G01*
X-3093592Y-751813D01*
X-1962221Y-1883184D01*
X-2351130Y-2272093D01*
X-3482501Y-1140722D01*
X-3482501Y-1140722D01*
G37*
D23*
X-2156676Y-946268D03*
D17*
G36*
X-2916816Y-575037D02*
G01*
X-2527907Y-186128D01*
X-1396536Y-1317499D01*
X-1785445Y-1706408D01*
X-2916816Y-575037D01*
X-2916816Y-575037D01*
G37*
D23*
X-1590990Y-380583D03*
D17*
G36*
X-2351130Y-9352D02*
G01*
X-1962221Y379557D01*
X-830850Y-751814D01*
X-1219759Y-1140723D01*
X-2351130Y-9352D01*
X-2351130Y-9352D01*
G37*
D23*
X-1025305Y185103D03*
D17*
G36*
X-1785445Y556334D02*
G01*
X-1396536Y945243D01*
X-265165Y-186128D01*
X-654074Y-575037D01*
X-1785445Y556334D01*
X-1785445Y556334D01*
G37*
D23*
X1025305Y185103D03*
D17*
G36*
X1396536Y945243D02*
G01*
X1785445Y556334D01*
X654074Y-575037D01*
X265165Y-186128D01*
X1396536Y945243D01*
X1396536Y945243D01*
G37*
D23*
X1590990Y-380583D03*
D17*
G36*
X1962221Y379557D02*
G01*
X2351130Y-9352D01*
X1219759Y-1140723D01*
X830850Y-751814D01*
X1962221Y379557D01*
X1962221Y379557D01*
G37*
D23*
X2156676Y-946268D03*
D17*
G36*
X2527907Y-186128D02*
G01*
X2916816Y-575037D01*
X1785445Y-1706408D01*
X1396536Y-1317499D01*
X2527907Y-186128D01*
X2527907Y-186128D01*
G37*
D23*
X2722361Y-1511953D03*
D17*
G36*
X3093592Y-751813D02*
G01*
X3482501Y-1140722D01*
X2351130Y-2272093D01*
X1962221Y-1883184D01*
X3093592Y-751813D01*
X3093592Y-751813D01*
G37*
D23*
X3288047Y-2077639D03*
D17*
G36*
X3659278Y-1317499D02*
G01*
X4048187Y-1706408D01*
X2916816Y-2837779D01*
X2527907Y-2448870D01*
X3659278Y-1317499D01*
X3659278Y-1317499D01*
G37*
D23*
X3853732Y-2643324D03*
D17*
G36*
X4224963Y-1883184D02*
G01*
X4613872Y-2272093D01*
X3482501Y-3403464D01*
X3093592Y-3014555D01*
X4224963Y-1883184D01*
X4224963Y-1883184D01*
G37*
D23*
X4419417Y-3209010D03*
D17*
G36*
X4790648Y-2448870D02*
G01*
X5179557Y-2837779D01*
X4048186Y-3969150D01*
X3659277Y-3580241D01*
X4790648Y-2448870D01*
X4790648Y-2448870D01*
G37*
D23*
X4985103Y-3774695D03*
D17*
G36*
X5356334Y-3014555D02*
G01*
X5745243Y-3403464D01*
X4613872Y-4534835D01*
X4224963Y-4145926D01*
X5356334Y-3014555D01*
X5356334Y-3014555D01*
G37*
D24*
X4797057Y1802943D03*
D17*
G36*
X3983884Y1272613D02*
G01*
X5327387Y2616116D01*
X5610230Y2333273D01*
X4266727Y989770D01*
X3983884Y1272613D01*
X3983884Y1272613D01*
G37*
D24*
X3948528Y2651471D03*
D17*
G36*
X3135355Y2121141D02*
G01*
X4478858Y3464644D01*
X4761701Y3181801D01*
X3418198Y1838298D01*
X3135355Y2121141D01*
X3135355Y2121141D01*
G37*
D24*
X3100000Y3500000D03*
D17*
G36*
X2286827Y2969670D02*
G01*
X3630330Y4313173D01*
X3913173Y4030330D01*
X2569670Y2686827D01*
X2286827Y2969670D01*
X2286827Y2969670D01*
G37*
G36*
X-17860084Y13868869D02*
G01*
X-17837029Y13865450D01*
X-17814420Y13859786D01*
X-17792476Y13851934D01*
X-17771406Y13841969D01*
X-17751415Y13829987D01*
X-17732695Y13816103D01*
X-17715425Y13800451D01*
X-17379549Y13464575D01*
X-17363897Y13447305D01*
X-17350013Y13428585D01*
X-17338031Y13408594D01*
X-17328066Y13387524D01*
X-17320214Y13365580D01*
X-17314550Y13342971D01*
X-17311131Y13319916D01*
X-17309987Y13296637D01*
X-17311131Y13273358D01*
X-17314550Y13250303D01*
X-17320214Y13227694D01*
X-17328066Y13205750D01*
X-17338031Y13184680D01*
X-17350013Y13164689D01*
X-17363897Y13145969D01*
X-17379549Y13128699D01*
X-17786135Y12722113D01*
X-17803405Y12706461D01*
X-17822125Y12692577D01*
X-17842116Y12680595D01*
X-17863186Y12670630D01*
X-17885130Y12662778D01*
X-17907739Y12657114D01*
X-17930794Y12653695D01*
X-17954073Y12652551D01*
X-17977352Y12653695D01*
X-18000407Y12657114D01*
X-18023016Y12662778D01*
X-18044960Y12670630D01*
X-18066030Y12680595D01*
X-18086021Y12692577D01*
X-18104741Y12706461D01*
X-18122011Y12722113D01*
X-18457887Y13057989D01*
X-18473539Y13075259D01*
X-18487423Y13093979D01*
X-18499405Y13113970D01*
X-18509370Y13135040D01*
X-18517222Y13156984D01*
X-18522886Y13179593D01*
X-18526305Y13202648D01*
X-18527449Y13225927D01*
X-18526305Y13249206D01*
X-18522886Y13272261D01*
X-18517222Y13294870D01*
X-18509370Y13316814D01*
X-18499405Y13337884D01*
X-18487423Y13357875D01*
X-18473539Y13376595D01*
X-18457887Y13393865D01*
X-18051301Y13800451D01*
X-18034031Y13816103D01*
X-18015311Y13829987D01*
X-17995320Y13841969D01*
X-17974250Y13851934D01*
X-17952306Y13859786D01*
X-17929697Y13865450D01*
X-17906642Y13868869D01*
X-17883363Y13870013D01*
X-17860084Y13868869D01*
X-17860084Y13868869D01*
G37*
D20*
X-17918718Y13261282D03*
D17*
G36*
X-16622648Y15106305D02*
G01*
X-16599593Y15102886D01*
X-16576984Y15097222D01*
X-16555040Y15089370D01*
X-16533970Y15079405D01*
X-16513979Y15067423D01*
X-16495259Y15053539D01*
X-16477989Y15037887D01*
X-16142113Y14702011D01*
X-16126461Y14684741D01*
X-16112577Y14666021D01*
X-16100595Y14646030D01*
X-16090630Y14624960D01*
X-16082778Y14603016D01*
X-16077114Y14580407D01*
X-16073695Y14557352D01*
X-16072551Y14534073D01*
X-16073695Y14510794D01*
X-16077114Y14487739D01*
X-16082778Y14465130D01*
X-16090630Y14443186D01*
X-16100595Y14422116D01*
X-16112577Y14402125D01*
X-16126461Y14383405D01*
X-16142113Y14366135D01*
X-16548699Y13959549D01*
X-16565969Y13943897D01*
X-16584689Y13930013D01*
X-16604680Y13918031D01*
X-16625750Y13908066D01*
X-16647694Y13900214D01*
X-16670303Y13894550D01*
X-16693358Y13891131D01*
X-16716637Y13889987D01*
X-16739916Y13891131D01*
X-16762971Y13894550D01*
X-16785580Y13900214D01*
X-16807524Y13908066D01*
X-16828594Y13918031D01*
X-16848585Y13930013D01*
X-16867305Y13943897D01*
X-16884575Y13959549D01*
X-17220451Y14295425D01*
X-17236103Y14312695D01*
X-17249987Y14331415D01*
X-17261969Y14351406D01*
X-17271934Y14372476D01*
X-17279786Y14394420D01*
X-17285450Y14417029D01*
X-17288869Y14440084D01*
X-17290013Y14463363D01*
X-17288869Y14486642D01*
X-17285450Y14509697D01*
X-17279786Y14532306D01*
X-17271934Y14554250D01*
X-17261969Y14575320D01*
X-17249987Y14595311D01*
X-17236103Y14614031D01*
X-17220451Y14631301D01*
X-16813865Y15037887D01*
X-16796595Y15053539D01*
X-16777875Y15067423D01*
X-16757884Y15079405D01*
X-16736814Y15089370D01*
X-16714870Y15097222D01*
X-16692261Y15102886D01*
X-16669206Y15106305D01*
X-16645927Y15107449D01*
X-16622648Y15106305D01*
X-16622648Y15106305D01*
G37*
D20*
X-16681282Y14498718D03*
D25*
X-19330000Y9240000D03*
X-17430000Y9240000D03*
X-18380000Y11240000D03*
D17*
G36*
X-14864221Y9773856D02*
G01*
X-14841166Y9770437D01*
X-14818557Y9764773D01*
X-14796613Y9756921D01*
X-14775543Y9746956D01*
X-14755552Y9734974D01*
X-14736832Y9721090D01*
X-14719562Y9705438D01*
X-14703910Y9688168D01*
X-14690026Y9669448D01*
X-14678044Y9649457D01*
X-14668079Y9628387D01*
X-14660227Y9606443D01*
X-14654563Y9583834D01*
X-14651144Y9560779D01*
X-14650000Y9537500D01*
X-14650000Y9062500D01*
X-14651144Y9039221D01*
X-14654563Y9016166D01*
X-14660227Y8993557D01*
X-14668079Y8971613D01*
X-14678044Y8950543D01*
X-14690026Y8930552D01*
X-14703910Y8911832D01*
X-14719562Y8894562D01*
X-14736832Y8878910D01*
X-14755552Y8865026D01*
X-14775543Y8853044D01*
X-14796613Y8843079D01*
X-14818557Y8835227D01*
X-14841166Y8829563D01*
X-14864221Y8826144D01*
X-14887500Y8825000D01*
X-15462500Y8825000D01*
X-15485779Y8826144D01*
X-15508834Y8829563D01*
X-15531443Y8835227D01*
X-15553387Y8843079D01*
X-15574457Y8853044D01*
X-15594448Y8865026D01*
X-15613168Y8878910D01*
X-15630438Y8894562D01*
X-15646090Y8911832D01*
X-15659974Y8930552D01*
X-15671956Y8950543D01*
X-15681921Y8971613D01*
X-15689773Y8993557D01*
X-15695437Y9016166D01*
X-15698856Y9039221D01*
X-15700000Y9062500D01*
X-15700000Y9537500D01*
X-15698856Y9560779D01*
X-15695437Y9583834D01*
X-15689773Y9606443D01*
X-15681921Y9628387D01*
X-15671956Y9649457D01*
X-15659974Y9669448D01*
X-15646090Y9688168D01*
X-15630438Y9705438D01*
X-15613168Y9721090D01*
X-15594448Y9734974D01*
X-15574457Y9746956D01*
X-15553387Y9756921D01*
X-15531443Y9764773D01*
X-15508834Y9770437D01*
X-15485779Y9773856D01*
X-15462500Y9775000D01*
X-14887500Y9775000D01*
X-14864221Y9773856D01*
X-14864221Y9773856D01*
G37*
D20*
X-15175000Y9300000D03*
D17*
G36*
X-13114221Y9773856D02*
G01*
X-13091166Y9770437D01*
X-13068557Y9764773D01*
X-13046613Y9756921D01*
X-13025543Y9746956D01*
X-13005552Y9734974D01*
X-12986832Y9721090D01*
X-12969562Y9705438D01*
X-12953910Y9688168D01*
X-12940026Y9669448D01*
X-12928044Y9649457D01*
X-12918079Y9628387D01*
X-12910227Y9606443D01*
X-12904563Y9583834D01*
X-12901144Y9560779D01*
X-12900000Y9537500D01*
X-12900000Y9062500D01*
X-12901144Y9039221D01*
X-12904563Y9016166D01*
X-12910227Y8993557D01*
X-12918079Y8971613D01*
X-12928044Y8950543D01*
X-12940026Y8930552D01*
X-12953910Y8911832D01*
X-12969562Y8894562D01*
X-12986832Y8878910D01*
X-13005552Y8865026D01*
X-13025543Y8853044D01*
X-13046613Y8843079D01*
X-13068557Y8835227D01*
X-13091166Y8829563D01*
X-13114221Y8826144D01*
X-13137500Y8825000D01*
X-13712500Y8825000D01*
X-13735779Y8826144D01*
X-13758834Y8829563D01*
X-13781443Y8835227D01*
X-13803387Y8843079D01*
X-13824457Y8853044D01*
X-13844448Y8865026D01*
X-13863168Y8878910D01*
X-13880438Y8894562D01*
X-13896090Y8911832D01*
X-13909974Y8930552D01*
X-13921956Y8950543D01*
X-13931921Y8971613D01*
X-13939773Y8993557D01*
X-13945437Y9016166D01*
X-13948856Y9039221D01*
X-13950000Y9062500D01*
X-13950000Y9537500D01*
X-13948856Y9560779D01*
X-13945437Y9583834D01*
X-13939773Y9606443D01*
X-13931921Y9628387D01*
X-13921956Y9649457D01*
X-13909974Y9669448D01*
X-13896090Y9688168D01*
X-13880438Y9705438D01*
X-13863168Y9721090D01*
X-13844448Y9734974D01*
X-13824457Y9746956D01*
X-13803387Y9756921D01*
X-13781443Y9764773D01*
X-13758834Y9770437D01*
X-13735779Y9773856D01*
X-13712500Y9775000D01*
X-13137500Y9775000D01*
X-13114221Y9773856D01*
X-13114221Y9773856D01*
G37*
D20*
X-13425000Y9300000D03*
D17*
G36*
X-18284221Y7953856D02*
G01*
X-18261166Y7950437D01*
X-18238557Y7944773D01*
X-18216613Y7936921D01*
X-18195543Y7926956D01*
X-18175552Y7914974D01*
X-18156832Y7901090D01*
X-18139562Y7885438D01*
X-18123910Y7868168D01*
X-18110026Y7849448D01*
X-18098044Y7829457D01*
X-18088079Y7808387D01*
X-18080227Y7786443D01*
X-18074563Y7763834D01*
X-18071144Y7740779D01*
X-18070000Y7717500D01*
X-18070000Y7242500D01*
X-18071144Y7219221D01*
X-18074563Y7196166D01*
X-18080227Y7173557D01*
X-18088079Y7151613D01*
X-18098044Y7130543D01*
X-18110026Y7110552D01*
X-18123910Y7091832D01*
X-18139562Y7074562D01*
X-18156832Y7058910D01*
X-18175552Y7045026D01*
X-18195543Y7033044D01*
X-18216613Y7023079D01*
X-18238557Y7015227D01*
X-18261166Y7009563D01*
X-18284221Y7006144D01*
X-18307500Y7005000D01*
X-18882500Y7005000D01*
X-18905779Y7006144D01*
X-18928834Y7009563D01*
X-18951443Y7015227D01*
X-18973387Y7023079D01*
X-18994457Y7033044D01*
X-19014448Y7045026D01*
X-19033168Y7058910D01*
X-19050438Y7074562D01*
X-19066090Y7091832D01*
X-19079974Y7110552D01*
X-19091956Y7130543D01*
X-19101921Y7151613D01*
X-19109773Y7173557D01*
X-19115437Y7196166D01*
X-19118856Y7219221D01*
X-19120000Y7242500D01*
X-19120000Y7717500D01*
X-19118856Y7740779D01*
X-19115437Y7763834D01*
X-19109773Y7786443D01*
X-19101921Y7808387D01*
X-19091956Y7829457D01*
X-19079974Y7849448D01*
X-19066090Y7868168D01*
X-19050438Y7885438D01*
X-19033168Y7901090D01*
X-19014448Y7914974D01*
X-18994457Y7926956D01*
X-18973387Y7936921D01*
X-18951443Y7944773D01*
X-18928834Y7950437D01*
X-18905779Y7953856D01*
X-18882500Y7955000D01*
X-18307500Y7955000D01*
X-18284221Y7953856D01*
X-18284221Y7953856D01*
G37*
D20*
X-18595000Y7480000D03*
D17*
G36*
X-16534221Y7953856D02*
G01*
X-16511166Y7950437D01*
X-16488557Y7944773D01*
X-16466613Y7936921D01*
X-16445543Y7926956D01*
X-16425552Y7914974D01*
X-16406832Y7901090D01*
X-16389562Y7885438D01*
X-16373910Y7868168D01*
X-16360026Y7849448D01*
X-16348044Y7829457D01*
X-16338079Y7808387D01*
X-16330227Y7786443D01*
X-16324563Y7763834D01*
X-16321144Y7740779D01*
X-16320000Y7717500D01*
X-16320000Y7242500D01*
X-16321144Y7219221D01*
X-16324563Y7196166D01*
X-16330227Y7173557D01*
X-16338079Y7151613D01*
X-16348044Y7130543D01*
X-16360026Y7110552D01*
X-16373910Y7091832D01*
X-16389562Y7074562D01*
X-16406832Y7058910D01*
X-16425552Y7045026D01*
X-16445543Y7033044D01*
X-16466613Y7023079D01*
X-16488557Y7015227D01*
X-16511166Y7009563D01*
X-16534221Y7006144D01*
X-16557500Y7005000D01*
X-17132500Y7005000D01*
X-17155779Y7006144D01*
X-17178834Y7009563D01*
X-17201443Y7015227D01*
X-17223387Y7023079D01*
X-17244457Y7033044D01*
X-17264448Y7045026D01*
X-17283168Y7058910D01*
X-17300438Y7074562D01*
X-17316090Y7091832D01*
X-17329974Y7110552D01*
X-17341956Y7130543D01*
X-17351921Y7151613D01*
X-17359773Y7173557D01*
X-17365437Y7196166D01*
X-17368856Y7219221D01*
X-17370000Y7242500D01*
X-17370000Y7717500D01*
X-17368856Y7740779D01*
X-17365437Y7763834D01*
X-17359773Y7786443D01*
X-17351921Y7808387D01*
X-17341956Y7829457D01*
X-17329974Y7849448D01*
X-17316090Y7868168D01*
X-17300438Y7885438D01*
X-17283168Y7901090D01*
X-17264448Y7914974D01*
X-17244457Y7926956D01*
X-17223387Y7936921D01*
X-17201443Y7944773D01*
X-17178834Y7950437D01*
X-17155779Y7953856D01*
X-17132500Y7955000D01*
X-16557500Y7955000D01*
X-16534221Y7953856D01*
X-16534221Y7953856D01*
G37*
D20*
X-16845000Y7480000D03*
M02*
