G04 #@! TF.GenerationSoftware,KiCad,Pcbnew,(5.1.0)-1*
G04 #@! TF.CreationDate,2019-06-25T19:20:06-03:00*
G04 #@! TF.ProjectId,PCB_D,5043425f-442e-46b6-9963-61645f706362,rev?*
G04 #@! TF.SameCoordinates,Original*
G04 #@! TF.FileFunction,Soldermask,Top*
G04 #@! TF.FilePolarity,Negative*
%FSLAX46Y46*%
G04 Gerber Fmt 4.6, Leading zero omitted, Abs format (unit mm)*
G04 Created by KiCad (PCBNEW (5.1.0)-1) date 2019-06-25 19:20:06*
%MOMM*%
%LPD*%
G04 APERTURE LIST*
%ADD10C,0.100000*%
G04 APERTURE END LIST*
D10*
G36*
X605085Y-16955708D02*
G01*
X962574Y-17026817D01*
X1387234Y-17202717D01*
X1472792Y-17238156D01*
X1563136Y-17275578D01*
X2103627Y-17636723D01*
X2563277Y-18096373D01*
X2924422Y-18636864D01*
X3173183Y-19237426D01*
X3300000Y-19874978D01*
X3300000Y-20525022D01*
X3173183Y-21162574D01*
X2924422Y-21763136D01*
X2563277Y-22303627D01*
X2103627Y-22763277D01*
X1563136Y-23124422D01*
X962574Y-23373183D01*
X643798Y-23436591D01*
X325023Y-23500000D01*
X-325023Y-23500000D01*
X-643798Y-23436591D01*
X-962574Y-23373183D01*
X-1563136Y-23124422D01*
X-2103627Y-22763277D01*
X-2563277Y-22303627D01*
X-2924422Y-21763136D01*
X-3173183Y-21162574D01*
X-3300000Y-20525022D01*
X-3300000Y-19874978D01*
X-3173183Y-19237426D01*
X-2924422Y-18636864D01*
X-2563277Y-18096373D01*
X-2103627Y-17636723D01*
X-1563136Y-17275578D01*
X-1472791Y-17238156D01*
X-1387234Y-17202717D01*
X-962574Y-17026817D01*
X-605085Y-16955708D01*
X-325023Y-16900000D01*
X325023Y-16900000D01*
X605085Y-16955708D01*
X605085Y-16955708D01*
G37*
G36*
X7297600Y-20925200D02*
G01*
X5097600Y-20925200D01*
X5097600Y-18025200D01*
X7297600Y-18025200D01*
X7297600Y-20925200D01*
X7297600Y-20925200D01*
G37*
G36*
X-9879191Y-15449698D02*
G01*
X-9802062Y-15457295D01*
X-9624288Y-15511222D01*
X-9604133Y-15517336D01*
X-9421728Y-15614834D01*
X-9261843Y-15746047D01*
X-9130630Y-15905932D01*
X-9033132Y-16088337D01*
X-9033131Y-16088340D01*
X-8973091Y-16286266D01*
X-8952818Y-16492102D01*
X-8973091Y-16697938D01*
X-9018124Y-16846391D01*
X-9033132Y-16895867D01*
X-9130630Y-17078272D01*
X-9261843Y-17238157D01*
X-9421728Y-17369370D01*
X-9604133Y-17466868D01*
X-9604136Y-17466869D01*
X-9802062Y-17526909D01*
X-9879191Y-17534505D01*
X-9956318Y-17542102D01*
X-10059478Y-17542102D01*
X-10136605Y-17534505D01*
X-10213734Y-17526909D01*
X-10411660Y-17466869D01*
X-10411663Y-17466868D01*
X-10594068Y-17369370D01*
X-10753953Y-17238157D01*
X-10885166Y-17078272D01*
X-10982664Y-16895867D01*
X-10997672Y-16846391D01*
X-11042705Y-16697938D01*
X-11062978Y-16492102D01*
X-11042705Y-16286266D01*
X-10982665Y-16088340D01*
X-10982664Y-16088337D01*
X-10885166Y-15905932D01*
X-10753953Y-15746047D01*
X-10594068Y-15614834D01*
X-10411663Y-15517336D01*
X-10391508Y-15511222D01*
X-10213734Y-15457295D01*
X-10136605Y-15449698D01*
X-10059478Y-15442102D01*
X-9956318Y-15442102D01*
X-9879191Y-15449698D01*
X-9879191Y-15449698D01*
G37*
G36*
X14742729Y-15260110D02*
G01*
X14792578Y-15275231D01*
X14838510Y-15299782D01*
X14878774Y-15332826D01*
X14911818Y-15373090D01*
X14936369Y-15419022D01*
X14951490Y-15468871D01*
X14957200Y-15526844D01*
X14957200Y-16781956D01*
X14951490Y-16839929D01*
X14936369Y-16889778D01*
X14911818Y-16935710D01*
X14878774Y-16975974D01*
X14838510Y-17009018D01*
X14792578Y-17033569D01*
X14742729Y-17048690D01*
X14684756Y-17054400D01*
X13679644Y-17054400D01*
X13621671Y-17048690D01*
X13571822Y-17033569D01*
X13525890Y-17009018D01*
X13485626Y-16975974D01*
X13452582Y-16935710D01*
X13428031Y-16889778D01*
X13412910Y-16839929D01*
X13407200Y-16781956D01*
X13407200Y-15526844D01*
X13412910Y-15468871D01*
X13428031Y-15419022D01*
X13452582Y-15373090D01*
X13485626Y-15332826D01*
X13525890Y-15299782D01*
X13571822Y-15275231D01*
X13621671Y-15260110D01*
X13679644Y-15254400D01*
X14684756Y-15254400D01*
X14742729Y-15260110D01*
X14742729Y-15260110D01*
G37*
G36*
X12692729Y-15260110D02*
G01*
X12742578Y-15275231D01*
X12788510Y-15299782D01*
X12828774Y-15332826D01*
X12861818Y-15373090D01*
X12886369Y-15419022D01*
X12901490Y-15468871D01*
X12907200Y-15526844D01*
X12907200Y-16781956D01*
X12901490Y-16839929D01*
X12886369Y-16889778D01*
X12861818Y-16935710D01*
X12828774Y-16975974D01*
X12788510Y-17009018D01*
X12742578Y-17033569D01*
X12692729Y-17048690D01*
X12634756Y-17054400D01*
X11629644Y-17054400D01*
X11571671Y-17048690D01*
X11521822Y-17033569D01*
X11475890Y-17009018D01*
X11435626Y-16975974D01*
X11402582Y-16935710D01*
X11378031Y-16889778D01*
X11362910Y-16839929D01*
X11357200Y-16781956D01*
X11357200Y-15526844D01*
X11362910Y-15468871D01*
X11378031Y-15419022D01*
X11402582Y-15373090D01*
X11435626Y-15332826D01*
X11475890Y-15299782D01*
X11521822Y-15275231D01*
X11571671Y-15260110D01*
X11629644Y-15254400D01*
X12634756Y-15254400D01*
X12692729Y-15260110D01*
X12692729Y-15260110D01*
G37*
G36*
X7297600Y-16925200D02*
G01*
X5097600Y-16925200D01*
X5097600Y-14025200D01*
X7297600Y-14025200D01*
X7297600Y-16925200D01*
X7297600Y-16925200D01*
G37*
G36*
X10489929Y-15352310D02*
G01*
X10539778Y-15367431D01*
X10585710Y-15391982D01*
X10625974Y-15425026D01*
X10659018Y-15465290D01*
X10683569Y-15511222D01*
X10698690Y-15561071D01*
X10704400Y-15619044D01*
X10704400Y-16624156D01*
X10698690Y-16682129D01*
X10683569Y-16731978D01*
X10659018Y-16777910D01*
X10625974Y-16818174D01*
X10585710Y-16851218D01*
X10539778Y-16875769D01*
X10489929Y-16890890D01*
X10431956Y-16896600D01*
X9176844Y-16896600D01*
X9118871Y-16890890D01*
X9069022Y-16875769D01*
X9023090Y-16851218D01*
X8982826Y-16818174D01*
X8949782Y-16777910D01*
X8925231Y-16731978D01*
X8910110Y-16682129D01*
X8904400Y-16624156D01*
X8904400Y-15619044D01*
X8910110Y-15561071D01*
X8925231Y-15511222D01*
X8949782Y-15465290D01*
X8982826Y-15425026D01*
X9023090Y-15391982D01*
X9069022Y-15367431D01*
X9118871Y-15352310D01*
X9176844Y-15346600D01*
X10431956Y-15346600D01*
X10489929Y-15352310D01*
X10489929Y-15352310D01*
G37*
G36*
X-11675242Y-13653648D02*
G01*
X-11598113Y-13661244D01*
X-11400187Y-13721284D01*
X-11400184Y-13721285D01*
X-11217779Y-13818783D01*
X-11057894Y-13949996D01*
X-10926681Y-14109881D01*
X-10829183Y-14292286D01*
X-10829182Y-14292289D01*
X-10769142Y-14490215D01*
X-10748869Y-14696051D01*
X-10769142Y-14901887D01*
X-10829182Y-15099813D01*
X-10829183Y-15099816D01*
X-10926681Y-15282221D01*
X-11057894Y-15442106D01*
X-11217779Y-15573319D01*
X-11400184Y-15670817D01*
X-11400187Y-15670818D01*
X-11598113Y-15730858D01*
X-11675242Y-15738455D01*
X-11752369Y-15746051D01*
X-11855529Y-15746051D01*
X-11932656Y-15738455D01*
X-12009785Y-15730858D01*
X-12207711Y-15670818D01*
X-12207714Y-15670817D01*
X-12390119Y-15573319D01*
X-12550004Y-15442106D01*
X-12681217Y-15282221D01*
X-12778715Y-15099816D01*
X-12778716Y-15099813D01*
X-12838756Y-14901887D01*
X-12859029Y-14696051D01*
X-12838756Y-14490215D01*
X-12778716Y-14292289D01*
X-12778715Y-14292286D01*
X-12681217Y-14109881D01*
X-12550004Y-13949996D01*
X-12390119Y-13818783D01*
X-12207714Y-13721285D01*
X-12207711Y-13721284D01*
X-12009785Y-13661244D01*
X-11932656Y-13653648D01*
X-11855529Y-13646051D01*
X-11752369Y-13646051D01*
X-11675242Y-13653648D01*
X-11675242Y-13653648D01*
G37*
G36*
X-8083139Y-13653648D02*
G01*
X-8006010Y-13661244D01*
X-7808084Y-13721284D01*
X-7808081Y-13721285D01*
X-7625676Y-13818783D01*
X-7465791Y-13949996D01*
X-7334578Y-14109881D01*
X-7237080Y-14292286D01*
X-7237079Y-14292289D01*
X-7177039Y-14490215D01*
X-7156766Y-14696051D01*
X-7177039Y-14901887D01*
X-7237079Y-15099813D01*
X-7237080Y-15099816D01*
X-7334578Y-15282221D01*
X-7465791Y-15442106D01*
X-7625676Y-15573319D01*
X-7808081Y-15670817D01*
X-7808084Y-15670818D01*
X-8006010Y-15730858D01*
X-8083139Y-15738455D01*
X-8160266Y-15746051D01*
X-8263426Y-15746051D01*
X-8340553Y-15738455D01*
X-8417682Y-15730858D01*
X-8615608Y-15670818D01*
X-8615611Y-15670817D01*
X-8798016Y-15573319D01*
X-8957901Y-15442106D01*
X-9089114Y-15282221D01*
X-9186612Y-15099816D01*
X-9186613Y-15099813D01*
X-9246653Y-14901887D01*
X-9266926Y-14696051D01*
X-9246653Y-14490215D01*
X-9186613Y-14292289D01*
X-9186612Y-14292286D01*
X-9089114Y-14109881D01*
X-8957901Y-13949996D01*
X-8798016Y-13818783D01*
X-8615611Y-13721285D01*
X-8615608Y-13721284D01*
X-8417682Y-13661244D01*
X-8340553Y-13653648D01*
X-8263426Y-13646051D01*
X-8160266Y-13646051D01*
X-8083139Y-13653648D01*
X-8083139Y-13653648D01*
G37*
G36*
X10489929Y-13302310D02*
G01*
X10539778Y-13317431D01*
X10585710Y-13341982D01*
X10625974Y-13375026D01*
X10659018Y-13415290D01*
X10683569Y-13461222D01*
X10698690Y-13511071D01*
X10704400Y-13569044D01*
X10704400Y-14574156D01*
X10698690Y-14632129D01*
X10683569Y-14681978D01*
X10659018Y-14727910D01*
X10625974Y-14768174D01*
X10585710Y-14801218D01*
X10539778Y-14825769D01*
X10489929Y-14840890D01*
X10431956Y-14846600D01*
X9176844Y-14846600D01*
X9118871Y-14840890D01*
X9069022Y-14825769D01*
X9023090Y-14801218D01*
X8982826Y-14768174D01*
X8949782Y-14727910D01*
X8925231Y-14681978D01*
X8910110Y-14632129D01*
X8904400Y-14574156D01*
X8904400Y-13569044D01*
X8910110Y-13511071D01*
X8925231Y-13461222D01*
X8949782Y-13415290D01*
X8982826Y-13375026D01*
X9023090Y-13341982D01*
X9069022Y-13317431D01*
X9118871Y-13302310D01*
X9176844Y-13296600D01*
X10431956Y-13296600D01*
X10489929Y-13302310D01*
X10489929Y-13302310D01*
G37*
G36*
X12833800Y-14566000D02*
G01*
X11783800Y-14566000D01*
X11783800Y-12946000D01*
X12833800Y-12946000D01*
X12833800Y-14566000D01*
X12833800Y-14566000D01*
G37*
G36*
X14733800Y-14566000D02*
G01*
X13683800Y-14566000D01*
X13683800Y-12946000D01*
X14733800Y-12946000D01*
X14733800Y-14566000D01*
X14733800Y-14566000D01*
G37*
G36*
X-12115076Y-12900000D02*
G01*
X-13600000Y-14384924D01*
X-15084924Y-12900000D01*
X-13600000Y-11415076D01*
X-12115076Y-12900000D01*
X-12115076Y-12900000D01*
G37*
G36*
X-2019025Y-12796051D02*
G01*
X-3503949Y-14280975D01*
X-4988873Y-12796051D01*
X-3503949Y-11311127D01*
X-2019025Y-12796051D01*
X-2019025Y-12796051D01*
G37*
G36*
X-9879191Y-11857596D02*
G01*
X-9802062Y-11865193D01*
X-9665858Y-11906510D01*
X-9604133Y-11925234D01*
X-9421728Y-12022732D01*
X-9261843Y-12153945D01*
X-9130630Y-12313830D01*
X-9033132Y-12496235D01*
X-9033131Y-12496238D01*
X-8973091Y-12694164D01*
X-8952818Y-12900000D01*
X-8973091Y-13105836D01*
X-9032691Y-13302310D01*
X-9033132Y-13303765D01*
X-9130630Y-13486170D01*
X-9261843Y-13646055D01*
X-9421728Y-13777268D01*
X-9604133Y-13874766D01*
X-9604136Y-13874767D01*
X-9802062Y-13934807D01*
X-9879191Y-13942404D01*
X-9956318Y-13950000D01*
X-10059478Y-13950000D01*
X-10136605Y-13942404D01*
X-10213734Y-13934807D01*
X-10411660Y-13874767D01*
X-10411663Y-13874766D01*
X-10594068Y-13777268D01*
X-10753953Y-13646055D01*
X-10885166Y-13486170D01*
X-10982664Y-13303765D01*
X-10983105Y-13302310D01*
X-11042705Y-13105836D01*
X-11062978Y-12900000D01*
X-11042705Y-12694164D01*
X-10982665Y-12496238D01*
X-10982664Y-12496235D01*
X-10885166Y-12313830D01*
X-10753953Y-12153945D01*
X-10594068Y-12022732D01*
X-10411663Y-11925234D01*
X-10349938Y-11906510D01*
X-10213734Y-11865193D01*
X-10136605Y-11857596D01*
X-10059478Y-11850000D01*
X-9956318Y-11850000D01*
X-9879191Y-11857596D01*
X-9879191Y-11857596D01*
G37*
G36*
X-11675242Y-10061546D02*
G01*
X-11598113Y-10069142D01*
X-11421450Y-10122732D01*
X-11400184Y-10129183D01*
X-11217779Y-10226681D01*
X-11057894Y-10357894D01*
X-10926681Y-10517779D01*
X-10829183Y-10700184D01*
X-10829182Y-10700187D01*
X-10769142Y-10898113D01*
X-10748869Y-11103949D01*
X-10769142Y-11309785D01*
X-10801082Y-11415076D01*
X-10829183Y-11507714D01*
X-10926681Y-11690119D01*
X-11057894Y-11850004D01*
X-11217779Y-11981217D01*
X-11400184Y-12078715D01*
X-11400187Y-12078716D01*
X-11598113Y-12138756D01*
X-11675242Y-12146353D01*
X-11752369Y-12153949D01*
X-11855529Y-12153949D01*
X-11932656Y-12146353D01*
X-12009785Y-12138756D01*
X-12207711Y-12078716D01*
X-12207714Y-12078715D01*
X-12390119Y-11981217D01*
X-12550004Y-11850004D01*
X-12681217Y-11690119D01*
X-12778715Y-11507714D01*
X-12806816Y-11415076D01*
X-12838756Y-11309785D01*
X-12859029Y-11103949D01*
X-12838756Y-10898113D01*
X-12778716Y-10700187D01*
X-12778715Y-10700184D01*
X-12681217Y-10517779D01*
X-12550004Y-10357894D01*
X-12390119Y-10226681D01*
X-12207714Y-10129183D01*
X-12186448Y-10122732D01*
X-12009785Y-10069142D01*
X-11932656Y-10061546D01*
X-11855529Y-10053949D01*
X-11752369Y-10053949D01*
X-11675242Y-10061546D01*
X-11675242Y-10061546D01*
G37*
G36*
X-5171293Y-9957597D02*
G01*
X-5094164Y-9965193D01*
X-4896238Y-10025233D01*
X-4896235Y-10025234D01*
X-4713830Y-10122732D01*
X-4553945Y-10253945D01*
X-4422732Y-10413830D01*
X-4325234Y-10596235D01*
X-4325233Y-10596238D01*
X-4265193Y-10794164D01*
X-4244920Y-11000000D01*
X-4265193Y-11205836D01*
X-4297133Y-11311127D01*
X-4325234Y-11403765D01*
X-4422732Y-11586170D01*
X-4553945Y-11746055D01*
X-4713830Y-11877268D01*
X-4896235Y-11974766D01*
X-4896238Y-11974767D01*
X-5094164Y-12034807D01*
X-5171293Y-12042403D01*
X-5248420Y-12050000D01*
X-5351580Y-12050000D01*
X-5428707Y-12042403D01*
X-5505836Y-12034807D01*
X-5703762Y-11974767D01*
X-5703765Y-11974766D01*
X-5886170Y-11877268D01*
X-6046055Y-11746055D01*
X-6177268Y-11586170D01*
X-6274766Y-11403765D01*
X-6302867Y-11311127D01*
X-6334807Y-11205836D01*
X-6355080Y-11000000D01*
X-6334807Y-10794164D01*
X-6274767Y-10596238D01*
X-6274766Y-10596235D01*
X-6177268Y-10413830D01*
X-6046055Y-10253945D01*
X-5886170Y-10122732D01*
X-5703765Y-10025234D01*
X-5703762Y-10025233D01*
X-5505836Y-9965193D01*
X-5428707Y-9957597D01*
X-5351580Y-9950000D01*
X-5248420Y-9950000D01*
X-5171293Y-9957597D01*
X-5171293Y-9957597D01*
G37*
G36*
X18968129Y-10230910D02*
G01*
X19017978Y-10246031D01*
X19063910Y-10270582D01*
X19104174Y-10303626D01*
X19137218Y-10343890D01*
X19161769Y-10389822D01*
X19176890Y-10439671D01*
X19182600Y-10497644D01*
X19182600Y-11752756D01*
X19176890Y-11810729D01*
X19161769Y-11860578D01*
X19137218Y-11906510D01*
X19104174Y-11946774D01*
X19063910Y-11979818D01*
X19017978Y-12004369D01*
X18968129Y-12019490D01*
X18910156Y-12025200D01*
X17905044Y-12025200D01*
X17847071Y-12019490D01*
X17797222Y-12004369D01*
X17751290Y-11979818D01*
X17711026Y-11946774D01*
X17677982Y-11906510D01*
X17653431Y-11860578D01*
X17638310Y-11810729D01*
X17632600Y-11752756D01*
X17632600Y-10497644D01*
X17638310Y-10439671D01*
X17653431Y-10389822D01*
X17677982Y-10343890D01*
X17711026Y-10303626D01*
X17751290Y-10270582D01*
X17797222Y-10246031D01*
X17847071Y-10230910D01*
X17905044Y-10225200D01*
X18910156Y-10225200D01*
X18968129Y-10230910D01*
X18968129Y-10230910D01*
G37*
G36*
X16918129Y-10230910D02*
G01*
X16967978Y-10246031D01*
X17013910Y-10270582D01*
X17054174Y-10303626D01*
X17087218Y-10343890D01*
X17111769Y-10389822D01*
X17126890Y-10439671D01*
X17132600Y-10497644D01*
X17132600Y-11752756D01*
X17126890Y-11810729D01*
X17111769Y-11860578D01*
X17087218Y-11906510D01*
X17054174Y-11946774D01*
X17013910Y-11979818D01*
X16967978Y-12004369D01*
X16918129Y-12019490D01*
X16860156Y-12025200D01*
X15855044Y-12025200D01*
X15797071Y-12019490D01*
X15747222Y-12004369D01*
X15701290Y-11979818D01*
X15661026Y-11946774D01*
X15627982Y-11906510D01*
X15603431Y-11860578D01*
X15588310Y-11810729D01*
X15582600Y-11752756D01*
X15582600Y-10497644D01*
X15588310Y-10439671D01*
X15603431Y-10389822D01*
X15627982Y-10343890D01*
X15661026Y-10303626D01*
X15701290Y-10270582D01*
X15747222Y-10246031D01*
X15797071Y-10230910D01*
X15855044Y-10225200D01*
X16860156Y-10225200D01*
X16918129Y-10230910D01*
X16918129Y-10230910D01*
G37*
G36*
X14733800Y-11946000D02*
G01*
X11783800Y-11946000D01*
X11783800Y-10326000D01*
X14733800Y-10326000D01*
X14733800Y-11946000D01*
X14733800Y-11946000D01*
G37*
G36*
X4896715Y-2272093D02*
G01*
X4896715Y-2272094D01*
X5356334Y-2731713D01*
X5356334Y-2731712D01*
X6028086Y-3403464D01*
X4719932Y-4711618D01*
X4704392Y-4730554D01*
X4692841Y-4752165D01*
X4685728Y-4775614D01*
X4683326Y-4800000D01*
X4685728Y-4824386D01*
X4692841Y-4847835D01*
X4704392Y-4869446D01*
X4719932Y-4888382D01*
X6028086Y-6196536D01*
X1396536Y-10828086D01*
X88382Y-9519932D01*
X69446Y-9504392D01*
X47835Y-9492841D01*
X24386Y-9485728D01*
X0Y-9483326D01*
X-24386Y-9485728D01*
X-47835Y-9492841D01*
X-69446Y-9504392D01*
X-88382Y-9519932D01*
X-1396536Y-10828086D01*
X-6028086Y-6196536D01*
X-4719932Y-4888382D01*
X-4704392Y-4869446D01*
X-4692841Y-4847835D01*
X-4685728Y-4824386D01*
X-4683326Y-4800000D01*
X-4544418Y-4800000D01*
X-4542016Y-4824386D01*
X-4534903Y-4847835D01*
X-4523352Y-4869446D01*
X-4507812Y-4888382D01*
X-4136564Y-5259630D01*
X-4048187Y-5348008D01*
X-4048186Y-5348007D01*
X-3376434Y-6019759D01*
X-3376435Y-6019760D01*
X-3005203Y-6390991D01*
X-1308141Y-8088053D01*
X-1219760Y-8176435D01*
X-1219759Y-8176434D01*
X-548007Y-8848186D01*
X-548008Y-8848187D01*
X-88382Y-9307812D01*
X-69446Y-9323352D01*
X-47835Y-9334903D01*
X-24386Y-9342016D01*
X0Y-9344418D01*
X24386Y-9342016D01*
X47835Y-9334903D01*
X69446Y-9323352D01*
X88382Y-9307812D01*
X548008Y-8848187D01*
X548007Y-8848186D01*
X1219759Y-8176434D01*
X1219760Y-8176435D01*
X1308137Y-8088057D01*
X2916816Y-6479378D01*
X3376435Y-6019760D01*
X3376434Y-6019759D01*
X4048186Y-5348007D01*
X4048187Y-5348008D01*
X4136564Y-5259630D01*
X4507812Y-4888382D01*
X4523352Y-4869446D01*
X4534903Y-4847835D01*
X4542016Y-4824386D01*
X4544418Y-4800000D01*
X4542016Y-4775614D01*
X4534903Y-4752165D01*
X4523352Y-4730554D01*
X4507812Y-4711618D01*
X4048187Y-4251993D01*
X4048186Y-4251993D01*
X3376434Y-3580241D01*
X3376435Y-3580241D01*
X1219760Y-1423566D01*
X1219759Y-1423566D01*
X548007Y-751814D01*
X548008Y-751814D01*
X88382Y-292188D01*
X69446Y-276648D01*
X47835Y-265097D01*
X24386Y-257984D01*
X0Y-255582D01*
X-24386Y-257984D01*
X-47835Y-265097D01*
X-69446Y-276648D01*
X-88382Y-292188D01*
X-548008Y-751814D01*
X-548007Y-751814D01*
X-1219759Y-1423566D01*
X-1219760Y-1423566D01*
X-3376435Y-3580241D01*
X-3376434Y-3580241D01*
X-4048186Y-4251993D01*
X-4048187Y-4251993D01*
X-4507812Y-4711618D01*
X-4523352Y-4730554D01*
X-4534903Y-4752165D01*
X-4542016Y-4775614D01*
X-4544418Y-4800000D01*
X-4683326Y-4800000D01*
X-4685728Y-4775614D01*
X-4692841Y-4752165D01*
X-4704392Y-4730554D01*
X-4719932Y-4711618D01*
X-6028086Y-3403464D01*
X-5356334Y-2731712D01*
X-5356334Y-2731713D01*
X-4896715Y-2272094D01*
X-4896715Y-2272093D01*
X-1396536Y1228086D01*
X-88382Y-80068D01*
X-69446Y-95608D01*
X-47835Y-107159D01*
X-24386Y-114272D01*
X0Y-116674D01*
X24386Y-114272D01*
X47835Y-107159D01*
X69446Y-95608D01*
X88382Y-80068D01*
X1396536Y1228086D01*
X4896715Y-2272093D01*
X4896715Y-2272093D01*
G37*
G36*
X-6967344Y-8161545D02*
G01*
X-6890215Y-8169142D01*
X-6692289Y-8229182D01*
X-6692286Y-8229183D01*
X-6509881Y-8326681D01*
X-6349996Y-8457894D01*
X-6218783Y-8617779D01*
X-6121285Y-8800184D01*
X-6121284Y-8800187D01*
X-6061244Y-8998113D01*
X-6040971Y-9203949D01*
X-6061244Y-9409785D01*
X-6084281Y-9485728D01*
X-6121285Y-9607714D01*
X-6218783Y-9790119D01*
X-6349996Y-9950004D01*
X-6509881Y-10081217D01*
X-6692286Y-10178715D01*
X-6692289Y-10178716D01*
X-6890215Y-10238756D01*
X-6964080Y-10246031D01*
X-7044471Y-10253949D01*
X-7147631Y-10253949D01*
X-7228022Y-10246031D01*
X-7301887Y-10238756D01*
X-7499813Y-10178716D01*
X-7499816Y-10178715D01*
X-7682221Y-10081217D01*
X-7842106Y-9950004D01*
X-7973319Y-9790119D01*
X-8070817Y-9607714D01*
X-8107821Y-9485728D01*
X-8130858Y-9409785D01*
X-8151131Y-9203949D01*
X-8130858Y-8998113D01*
X-8070818Y-8800187D01*
X-8070817Y-8800184D01*
X-7973319Y-8617779D01*
X-7842106Y-8457894D01*
X-7682221Y-8326681D01*
X-7499816Y-8229183D01*
X-7499813Y-8229182D01*
X-7301887Y-8169142D01*
X-7224758Y-8161545D01*
X-7147631Y-8153949D01*
X-7044471Y-8153949D01*
X-6967344Y-8161545D01*
X-6967344Y-8161545D01*
G37*
G36*
X-17971313Y-6575027D02*
G01*
X-17793726Y-6610350D01*
X-17602638Y-6689502D01*
X-17430664Y-6804411D01*
X-17284411Y-6950664D01*
X-17169502Y-7122638D01*
X-17090350Y-7313726D01*
X-17050000Y-7516584D01*
X-17050000Y-7723416D01*
X-17090350Y-7926274D01*
X-17169502Y-8117362D01*
X-17284411Y-8289336D01*
X-17430664Y-8435589D01*
X-17602638Y-8550498D01*
X-17793726Y-8629650D01*
X-17971313Y-8664973D01*
X-17996583Y-8670000D01*
X-18203417Y-8670000D01*
X-18228687Y-8664973D01*
X-18406274Y-8629650D01*
X-18597362Y-8550498D01*
X-18769336Y-8435589D01*
X-18915589Y-8289336D01*
X-19030498Y-8117362D01*
X-19109650Y-7926274D01*
X-19150000Y-7723416D01*
X-19150000Y-7516584D01*
X-19109650Y-7313726D01*
X-19030498Y-7122638D01*
X-18915589Y-6950664D01*
X-18769336Y-6804411D01*
X-18597362Y-6689502D01*
X-18406274Y-6610350D01*
X-18228687Y-6575027D01*
X-18203417Y-6570000D01*
X-17996583Y-6570000D01*
X-17971313Y-6575027D01*
X-17971313Y-6575027D01*
G37*
G36*
X18228687Y-6575027D02*
G01*
X18406274Y-6610350D01*
X18597362Y-6689502D01*
X18769336Y-6804411D01*
X18915589Y-6950664D01*
X19030498Y-7122638D01*
X19109650Y-7313726D01*
X19150000Y-7516584D01*
X19150000Y-7723416D01*
X19109650Y-7926274D01*
X19030498Y-8117362D01*
X18915589Y-8289336D01*
X18769336Y-8435589D01*
X18597362Y-8550498D01*
X18406274Y-8629650D01*
X18228687Y-8664973D01*
X18203417Y-8670000D01*
X17996583Y-8670000D01*
X17971313Y-8664973D01*
X17793726Y-8629650D01*
X17602638Y-8550498D01*
X17430664Y-8435589D01*
X17284411Y-8289336D01*
X17169502Y-8117362D01*
X17090350Y-7926274D01*
X17050000Y-7723416D01*
X17050000Y-7516584D01*
X17090350Y-7313726D01*
X17169502Y-7122638D01*
X17284411Y-6950664D01*
X17430664Y-6804411D01*
X17602638Y-6689502D01*
X17793726Y-6610350D01*
X17971313Y-6575027D01*
X17996583Y-6570000D01*
X18203417Y-6570000D01*
X18228687Y-6575027D01*
X18228687Y-6575027D01*
G37*
G36*
X-20671313Y-5305027D02*
G01*
X-20493726Y-5340350D01*
X-20302638Y-5419502D01*
X-20130664Y-5534411D01*
X-19984411Y-5680664D01*
X-19869502Y-5852638D01*
X-19790350Y-6043726D01*
X-19750000Y-6246584D01*
X-19750000Y-6453416D01*
X-19790350Y-6656274D01*
X-19869502Y-6847362D01*
X-19984411Y-7019336D01*
X-20130664Y-7165589D01*
X-20302638Y-7280498D01*
X-20493726Y-7359650D01*
X-20671313Y-7394973D01*
X-20696583Y-7400000D01*
X-20903417Y-7400000D01*
X-20928687Y-7394973D01*
X-21106274Y-7359650D01*
X-21297362Y-7280498D01*
X-21469336Y-7165589D01*
X-21615589Y-7019336D01*
X-21730498Y-6847362D01*
X-21809650Y-6656274D01*
X-21850000Y-6453416D01*
X-21850000Y-6246584D01*
X-21809650Y-6043726D01*
X-21730498Y-5852638D01*
X-21615589Y-5680664D01*
X-21469336Y-5534411D01*
X-21297362Y-5419502D01*
X-21106274Y-5340350D01*
X-20928687Y-5305027D01*
X-20903417Y-5300000D01*
X-20696583Y-5300000D01*
X-20671313Y-5305027D01*
X-20671313Y-5305027D01*
G37*
G36*
X20928687Y-5305027D02*
G01*
X21106274Y-5340350D01*
X21297362Y-5419502D01*
X21469336Y-5534411D01*
X21615589Y-5680664D01*
X21730498Y-5852638D01*
X21809650Y-6043726D01*
X21850000Y-6246584D01*
X21850000Y-6453416D01*
X21809650Y-6656274D01*
X21730498Y-6847362D01*
X21615589Y-7019336D01*
X21469336Y-7165589D01*
X21297362Y-7280498D01*
X21106274Y-7359650D01*
X20928687Y-7394973D01*
X20903417Y-7400000D01*
X20696583Y-7400000D01*
X20671313Y-7394973D01*
X20493726Y-7359650D01*
X20302638Y-7280498D01*
X20130664Y-7165589D01*
X19984411Y-7019336D01*
X19869502Y-6847362D01*
X19790350Y-6656274D01*
X19750000Y-6453416D01*
X19750000Y-6246584D01*
X19790350Y-6043726D01*
X19869502Y-5852638D01*
X19984411Y-5680664D01*
X20130664Y-5534411D01*
X20302638Y-5419502D01*
X20493726Y-5340350D01*
X20671313Y-5305027D01*
X20696583Y-5300000D01*
X20903417Y-5300000D01*
X20928687Y-5305027D01*
X20928687Y-5305027D01*
G37*
G36*
X11210000Y-7172000D02*
G01*
X9110000Y-7172000D01*
X9110000Y-5472000D01*
X11210000Y-5472000D01*
X11210000Y-7172000D01*
X11210000Y-7172000D01*
G37*
G36*
X-17971313Y-4035027D02*
G01*
X-17793726Y-4070350D01*
X-17602638Y-4149502D01*
X-17430664Y-4264411D01*
X-17284411Y-4410664D01*
X-17169502Y-4582638D01*
X-17090350Y-4773726D01*
X-17050000Y-4976584D01*
X-17050000Y-5183416D01*
X-17090350Y-5386274D01*
X-17169502Y-5577362D01*
X-17284411Y-5749336D01*
X-17430664Y-5895589D01*
X-17602638Y-6010498D01*
X-17793726Y-6089650D01*
X-17971313Y-6124973D01*
X-17996583Y-6130000D01*
X-18203417Y-6130000D01*
X-18228687Y-6124973D01*
X-18406274Y-6089650D01*
X-18597362Y-6010498D01*
X-18769336Y-5895589D01*
X-18915589Y-5749336D01*
X-19030498Y-5577362D01*
X-19109650Y-5386274D01*
X-19150000Y-5183416D01*
X-19150000Y-4976584D01*
X-19109650Y-4773726D01*
X-19030498Y-4582638D01*
X-18915589Y-4410664D01*
X-18769336Y-4264411D01*
X-18597362Y-4149502D01*
X-18406274Y-4070350D01*
X-18228687Y-4035027D01*
X-18203417Y-4030000D01*
X-17996583Y-4030000D01*
X-17971313Y-4035027D01*
X-17971313Y-4035027D01*
G37*
G36*
X18228687Y-4035027D02*
G01*
X18406274Y-4070350D01*
X18597362Y-4149502D01*
X18769336Y-4264411D01*
X18915589Y-4410664D01*
X19030498Y-4582638D01*
X19109650Y-4773726D01*
X19150000Y-4976584D01*
X19150000Y-5183416D01*
X19109650Y-5386274D01*
X19030498Y-5577362D01*
X18915589Y-5749336D01*
X18769336Y-5895589D01*
X18597362Y-6010498D01*
X18406274Y-6089650D01*
X18228687Y-6124973D01*
X18203417Y-6130000D01*
X17996583Y-6130000D01*
X17971313Y-6124973D01*
X17793726Y-6089650D01*
X17602638Y-6010498D01*
X17430664Y-5895589D01*
X17284411Y-5749336D01*
X17169502Y-5577362D01*
X17090350Y-5386274D01*
X17050000Y-5183416D01*
X17050000Y-4976584D01*
X17090350Y-4773726D01*
X17169502Y-4582638D01*
X17284411Y-4410664D01*
X17430664Y-4264411D01*
X17602638Y-4149502D01*
X17793726Y-4070350D01*
X17971313Y-4035027D01*
X17996583Y-4030000D01*
X18203417Y-4030000D01*
X18228687Y-4035027D01*
X18228687Y-4035027D01*
G37*
G36*
X-20671313Y-2765027D02*
G01*
X-20493726Y-2800350D01*
X-20302638Y-2879502D01*
X-20130664Y-2994411D01*
X-19984411Y-3140664D01*
X-19869502Y-3312638D01*
X-19790350Y-3503726D01*
X-19750000Y-3706584D01*
X-19750000Y-3913416D01*
X-19790350Y-4116274D01*
X-19869502Y-4307362D01*
X-19984411Y-4479336D01*
X-20130664Y-4625589D01*
X-20302638Y-4740498D01*
X-20493726Y-4819650D01*
X-20671313Y-4854973D01*
X-20696583Y-4860000D01*
X-20903417Y-4860000D01*
X-20928687Y-4854973D01*
X-21106274Y-4819650D01*
X-21297362Y-4740498D01*
X-21469336Y-4625589D01*
X-21615589Y-4479336D01*
X-21730498Y-4307362D01*
X-21809650Y-4116274D01*
X-21850000Y-3913416D01*
X-21850000Y-3706584D01*
X-21809650Y-3503726D01*
X-21730498Y-3312638D01*
X-21615589Y-3140664D01*
X-21469336Y-2994411D01*
X-21297362Y-2879502D01*
X-21106274Y-2800350D01*
X-20928687Y-2765027D01*
X-20903417Y-2760000D01*
X-20696583Y-2760000D01*
X-20671313Y-2765027D01*
X-20671313Y-2765027D01*
G37*
G36*
X20928687Y-2765027D02*
G01*
X21106274Y-2800350D01*
X21297362Y-2879502D01*
X21469336Y-2994411D01*
X21615589Y-3140664D01*
X21730498Y-3312638D01*
X21809650Y-3503726D01*
X21850000Y-3706584D01*
X21850000Y-3913416D01*
X21809650Y-4116274D01*
X21730498Y-4307362D01*
X21615589Y-4479336D01*
X21469336Y-4625589D01*
X21297362Y-4740498D01*
X21106274Y-4819650D01*
X20928687Y-4854973D01*
X20903417Y-4860000D01*
X20696583Y-4860000D01*
X20671313Y-4854973D01*
X20493726Y-4819650D01*
X20302638Y-4740498D01*
X20130664Y-4625589D01*
X19984411Y-4479336D01*
X19869502Y-4307362D01*
X19790350Y-4116274D01*
X19750000Y-3913416D01*
X19750000Y-3706584D01*
X19790350Y-3503726D01*
X19869502Y-3312638D01*
X19984411Y-3140664D01*
X20130664Y-2994411D01*
X20302638Y-2879502D01*
X20493726Y-2800350D01*
X20671313Y-2765027D01*
X20696583Y-2760000D01*
X20903417Y-2760000D01*
X20928687Y-2765027D01*
X20928687Y-2765027D01*
G37*
G36*
X11210000Y-3672000D02*
G01*
X9110000Y-3672000D01*
X9110000Y-1972000D01*
X11210000Y-1972000D01*
X11210000Y-3672000D01*
X11210000Y-3672000D01*
G37*
G36*
X18228687Y-1495027D02*
G01*
X18406274Y-1530350D01*
X18597362Y-1609502D01*
X18769336Y-1724411D01*
X18915589Y-1870664D01*
X19030498Y-2042638D01*
X19109650Y-2233726D01*
X19150000Y-2436584D01*
X19150000Y-2643416D01*
X19109650Y-2846274D01*
X19030498Y-3037362D01*
X18915589Y-3209336D01*
X18769336Y-3355589D01*
X18597362Y-3470498D01*
X18406274Y-3549650D01*
X18228687Y-3584973D01*
X18203417Y-3590000D01*
X17996583Y-3590000D01*
X17971313Y-3584973D01*
X17793726Y-3549650D01*
X17602638Y-3470498D01*
X17430664Y-3355589D01*
X17284411Y-3209336D01*
X17169502Y-3037362D01*
X17090350Y-2846274D01*
X17050000Y-2643416D01*
X17050000Y-2436584D01*
X17090350Y-2233726D01*
X17169502Y-2042638D01*
X17284411Y-1870664D01*
X17430664Y-1724411D01*
X17602638Y-1609502D01*
X17793726Y-1530350D01*
X17971313Y-1495027D01*
X17996583Y-1490000D01*
X18203417Y-1490000D01*
X18228687Y-1495027D01*
X18228687Y-1495027D01*
G37*
G36*
X-17971313Y-1495027D02*
G01*
X-17793726Y-1530350D01*
X-17602638Y-1609502D01*
X-17430664Y-1724411D01*
X-17284411Y-1870664D01*
X-17169502Y-2042638D01*
X-17090350Y-2233726D01*
X-17050000Y-2436584D01*
X-17050000Y-2643416D01*
X-17090350Y-2846274D01*
X-17169502Y-3037362D01*
X-17284411Y-3209336D01*
X-17430664Y-3355589D01*
X-17602638Y-3470498D01*
X-17793726Y-3549650D01*
X-17971313Y-3584973D01*
X-17996583Y-3590000D01*
X-18203417Y-3590000D01*
X-18228687Y-3584973D01*
X-18406274Y-3549650D01*
X-18597362Y-3470498D01*
X-18769336Y-3355589D01*
X-18915589Y-3209336D01*
X-19030498Y-3037362D01*
X-19109650Y-2846274D01*
X-19150000Y-2643416D01*
X-19150000Y-2436584D01*
X-19109650Y-2233726D01*
X-19030498Y-2042638D01*
X-18915589Y-1870664D01*
X-18769336Y-1724411D01*
X-18597362Y-1609502D01*
X-18406274Y-1530350D01*
X-18228687Y-1495027D01*
X-18203417Y-1490000D01*
X-17996583Y-1490000D01*
X-17971313Y-1495027D01*
X-17971313Y-1495027D01*
G37*
G36*
X7236893Y-848554D02*
G01*
X7288373Y-864170D01*
X7335808Y-889525D01*
X7382155Y-927561D01*
X7422006Y-967412D01*
X7422012Y-967417D01*
X7970019Y-1515424D01*
X7970024Y-1515430D01*
X8009875Y-1555281D01*
X8047911Y-1601628D01*
X8073266Y-1649063D01*
X8088882Y-1700543D01*
X8094154Y-1754073D01*
X8088882Y-1807603D01*
X8073266Y-1859083D01*
X8047911Y-1906518D01*
X8009875Y-1952865D01*
X7970024Y-1992716D01*
X7970019Y-1992722D01*
X7492722Y-2470019D01*
X7492716Y-2470024D01*
X7452865Y-2509875D01*
X7406518Y-2547911D01*
X7359083Y-2573266D01*
X7307603Y-2588882D01*
X7254073Y-2594154D01*
X7200543Y-2588882D01*
X7149063Y-2573266D01*
X7101628Y-2547911D01*
X7055281Y-2509875D01*
X7015430Y-2470024D01*
X7015424Y-2470019D01*
X6467417Y-1922012D01*
X6467412Y-1922006D01*
X6427561Y-1882155D01*
X6389525Y-1835808D01*
X6364170Y-1788373D01*
X6348554Y-1736893D01*
X6343282Y-1683363D01*
X6348554Y-1629833D01*
X6364170Y-1578353D01*
X6389525Y-1530918D01*
X6427561Y-1484571D01*
X6467412Y-1444720D01*
X6467417Y-1444714D01*
X6944714Y-967417D01*
X6944720Y-967412D01*
X6984571Y-927561D01*
X7030918Y-889525D01*
X7078353Y-864170D01*
X7129833Y-848554D01*
X7183363Y-843282D01*
X7236893Y-848554D01*
X7236893Y-848554D01*
G37*
G36*
X-20671313Y-225027D02*
G01*
X-20493726Y-260350D01*
X-20302638Y-339502D01*
X-20130664Y-454411D01*
X-19984411Y-600664D01*
X-19869502Y-772638D01*
X-19790350Y-963726D01*
X-19750000Y-1166584D01*
X-19750000Y-1373416D01*
X-19790350Y-1576274D01*
X-19869502Y-1767362D01*
X-19984411Y-1939336D01*
X-20130664Y-2085589D01*
X-20302638Y-2200498D01*
X-20493726Y-2279650D01*
X-20671313Y-2314973D01*
X-20696583Y-2320000D01*
X-20903417Y-2320000D01*
X-20928687Y-2314973D01*
X-21106274Y-2279650D01*
X-21297362Y-2200498D01*
X-21469336Y-2085589D01*
X-21615589Y-1939336D01*
X-21730498Y-1767362D01*
X-21809650Y-1576274D01*
X-21850000Y-1373416D01*
X-21850000Y-1166584D01*
X-21809650Y-963726D01*
X-21730498Y-772638D01*
X-21615589Y-600664D01*
X-21469336Y-454411D01*
X-21297362Y-339502D01*
X-21106274Y-260350D01*
X-20928687Y-225027D01*
X-20903417Y-220000D01*
X-20696583Y-220000D01*
X-20671313Y-225027D01*
X-20671313Y-225027D01*
G37*
G36*
X20928687Y-225027D02*
G01*
X21106274Y-260350D01*
X21297362Y-339502D01*
X21469336Y-454411D01*
X21615589Y-600664D01*
X21730498Y-772638D01*
X21809650Y-963726D01*
X21850000Y-1166584D01*
X21850000Y-1373416D01*
X21809650Y-1576274D01*
X21730498Y-1767362D01*
X21615589Y-1939336D01*
X21469336Y-2085589D01*
X21297362Y-2200498D01*
X21106274Y-2279650D01*
X20928687Y-2314973D01*
X20903417Y-2320000D01*
X20696583Y-2320000D01*
X20671313Y-2314973D01*
X20493726Y-2279650D01*
X20302638Y-2200498D01*
X20130664Y-2085589D01*
X19984411Y-1939336D01*
X19869502Y-1767362D01*
X19790350Y-1576274D01*
X19750000Y-1373416D01*
X19750000Y-1166584D01*
X19790350Y-963726D01*
X19869502Y-772638D01*
X19984411Y-600664D01*
X20130664Y-454411D01*
X20302638Y-339502D01*
X20493726Y-260350D01*
X20671313Y-225027D01*
X20696583Y-220000D01*
X20903417Y-220000D01*
X20928687Y-225027D01*
X20928687Y-225027D01*
G37*
G36*
X5999457Y388882D02*
G01*
X6050937Y373266D01*
X6098372Y347911D01*
X6144719Y309875D01*
X6184570Y270024D01*
X6184576Y270019D01*
X6732583Y-277988D01*
X6732588Y-277994D01*
X6772439Y-317845D01*
X6810475Y-364192D01*
X6835830Y-411627D01*
X6851446Y-463107D01*
X6856718Y-516637D01*
X6851446Y-570167D01*
X6835830Y-621647D01*
X6810475Y-669082D01*
X6772439Y-715429D01*
X6732588Y-755280D01*
X6732583Y-755286D01*
X6255286Y-1232583D01*
X6255280Y-1232588D01*
X6215429Y-1272439D01*
X6169082Y-1310475D01*
X6121647Y-1335830D01*
X6070167Y-1351446D01*
X6016637Y-1356718D01*
X5963107Y-1351446D01*
X5911627Y-1335830D01*
X5864192Y-1310475D01*
X5817845Y-1272439D01*
X5777994Y-1232588D01*
X5777988Y-1232583D01*
X5229981Y-684576D01*
X5229976Y-684570D01*
X5190125Y-644719D01*
X5152089Y-598372D01*
X5126734Y-550937D01*
X5111118Y-499457D01*
X5105846Y-445927D01*
X5111118Y-392397D01*
X5126734Y-340917D01*
X5152089Y-293482D01*
X5190125Y-247135D01*
X5229976Y-207284D01*
X5229981Y-207278D01*
X5707278Y270019D01*
X5707284Y270024D01*
X5747135Y309875D01*
X5793482Y347911D01*
X5840917Y373266D01*
X5892397Y388882D01*
X5945927Y394154D01*
X5999457Y388882D01*
X5999457Y388882D01*
G37*
G36*
X18228687Y1044973D02*
G01*
X18406274Y1009650D01*
X18597362Y930498D01*
X18769336Y815589D01*
X18915589Y669336D01*
X19030498Y497362D01*
X19109650Y306274D01*
X19131947Y194176D01*
X19150000Y103417D01*
X19150000Y-103417D01*
X19144973Y-128687D01*
X19109650Y-306274D01*
X19030498Y-497362D01*
X18915589Y-669336D01*
X18769336Y-815589D01*
X18597362Y-930498D01*
X18406274Y-1009650D01*
X18228687Y-1044973D01*
X18203417Y-1050000D01*
X17996583Y-1050000D01*
X17971313Y-1044973D01*
X17793726Y-1009650D01*
X17602638Y-930498D01*
X17430664Y-815589D01*
X17284411Y-669336D01*
X17169502Y-497362D01*
X17090350Y-306274D01*
X17055027Y-128687D01*
X17050000Y-103417D01*
X17050000Y103417D01*
X17068053Y194176D01*
X17090350Y306274D01*
X17169502Y497362D01*
X17284411Y669336D01*
X17430664Y815589D01*
X17602638Y930498D01*
X17793726Y1009650D01*
X17971313Y1044973D01*
X17996583Y1050000D01*
X18203417Y1050000D01*
X18228687Y1044973D01*
X18228687Y1044973D01*
G37*
G36*
X-17971313Y1044973D02*
G01*
X-17793726Y1009650D01*
X-17602638Y930498D01*
X-17430664Y815589D01*
X-17284411Y669336D01*
X-17169502Y497362D01*
X-17090350Y306274D01*
X-17068053Y194176D01*
X-17050000Y103417D01*
X-17050000Y-103417D01*
X-17055027Y-128687D01*
X-17090350Y-306274D01*
X-17169502Y-497362D01*
X-17284411Y-669336D01*
X-17430664Y-815589D01*
X-17602638Y-930498D01*
X-17793726Y-1009650D01*
X-17971313Y-1044973D01*
X-17996583Y-1050000D01*
X-18203417Y-1050000D01*
X-18228687Y-1044973D01*
X-18406274Y-1009650D01*
X-18597362Y-930498D01*
X-18769336Y-815589D01*
X-18915589Y-669336D01*
X-19030498Y-497362D01*
X-19109650Y-306274D01*
X-19144973Y-128687D01*
X-19150000Y-103417D01*
X-19150000Y103417D01*
X-19131947Y194176D01*
X-19109650Y306274D01*
X-19030498Y497362D01*
X-18915589Y669336D01*
X-18769336Y815589D01*
X-18597362Y930498D01*
X-18406274Y1009650D01*
X-18228687Y1044973D01*
X-18203417Y1050000D01*
X-17996583Y1050000D01*
X-17971313Y1044973D01*
X-17971313Y1044973D01*
G37*
G36*
X8836893Y861046D02*
G01*
X8888373Y845430D01*
X8935808Y820075D01*
X8982155Y782039D01*
X9022006Y742188D01*
X9022012Y742183D01*
X9570019Y194176D01*
X9570024Y194170D01*
X9609875Y154319D01*
X9647911Y107972D01*
X9673266Y60537D01*
X9688882Y9057D01*
X9694154Y-44473D01*
X9688882Y-98003D01*
X9673266Y-149483D01*
X9647911Y-196918D01*
X9609875Y-243265D01*
X9570024Y-283116D01*
X9570019Y-283122D01*
X9092722Y-760419D01*
X9092716Y-760424D01*
X9052865Y-800275D01*
X9006518Y-838311D01*
X8959083Y-863666D01*
X8907603Y-879282D01*
X8854073Y-884554D01*
X8800543Y-879282D01*
X8749063Y-863666D01*
X8701628Y-838311D01*
X8655281Y-800275D01*
X8615430Y-760424D01*
X8615424Y-760419D01*
X8067417Y-212412D01*
X8067412Y-212406D01*
X8027561Y-172555D01*
X7989525Y-126208D01*
X7964170Y-78773D01*
X7948554Y-27293D01*
X7943282Y26237D01*
X7948554Y79767D01*
X7964170Y131247D01*
X7989525Y178682D01*
X8027561Y225029D01*
X8067412Y264880D01*
X8067417Y264886D01*
X8544714Y742183D01*
X8544720Y742188D01*
X8584571Y782039D01*
X8630918Y820075D01*
X8678353Y845430D01*
X8729833Y861046D01*
X8783363Y866318D01*
X8836893Y861046D01*
X8836893Y861046D01*
G37*
G36*
X-5629833Y1351446D02*
G01*
X-5578353Y1335830D01*
X-5530918Y1310475D01*
X-5484571Y1272439D01*
X-5444720Y1232588D01*
X-5444714Y1232583D01*
X-4967417Y755286D01*
X-4967412Y755280D01*
X-4927561Y715429D01*
X-4889525Y669082D01*
X-4864170Y621647D01*
X-4848554Y570167D01*
X-4843282Y516637D01*
X-4848554Y463107D01*
X-4864170Y411627D01*
X-4889525Y364192D01*
X-4927561Y317845D01*
X-4967412Y277994D01*
X-4967417Y277988D01*
X-5515424Y-270019D01*
X-5515430Y-270024D01*
X-5555281Y-309875D01*
X-5601628Y-347911D01*
X-5649063Y-373266D01*
X-5700543Y-388882D01*
X-5754073Y-394154D01*
X-5807603Y-388882D01*
X-5859083Y-373266D01*
X-5906518Y-347911D01*
X-5952865Y-309875D01*
X-5992716Y-270024D01*
X-5992722Y-270019D01*
X-6470019Y207278D01*
X-6470024Y207284D01*
X-6509875Y247135D01*
X-6547911Y293482D01*
X-6573266Y340917D01*
X-6588882Y392397D01*
X-6594154Y445927D01*
X-6588882Y499457D01*
X-6573266Y550937D01*
X-6547911Y598372D01*
X-6509875Y644719D01*
X-6470024Y684570D01*
X-6470019Y684576D01*
X-5922012Y1232583D01*
X-5922006Y1232588D01*
X-5882155Y1272439D01*
X-5835808Y1310475D01*
X-5788373Y1335830D01*
X-5736893Y1351446D01*
X-5683363Y1356718D01*
X-5629833Y1351446D01*
X-5629833Y1351446D01*
G37*
G36*
X-8285974Y2322285D02*
G01*
X-8072174Y2233726D01*
X-8067587Y2231826D01*
X-7871045Y2100501D01*
X-7703899Y1933355D01*
X-7572627Y1736893D01*
X-7572573Y1736811D01*
X-7482115Y1518426D01*
X-7436000Y1286591D01*
X-7436000Y1050209D01*
X-7482115Y818374D01*
X-7572573Y599989D01*
X-7572574Y599987D01*
X-7703899Y403445D01*
X-7871045Y236299D01*
X-8067587Y104974D01*
X-8067588Y104973D01*
X-8067589Y104973D01*
X-8285974Y14515D01*
X-8517809Y-31600D01*
X-8754191Y-31600D01*
X-8986026Y14515D01*
X-9204411Y104973D01*
X-9204412Y104973D01*
X-9204413Y104974D01*
X-9400955Y236299D01*
X-9568101Y403445D01*
X-9699426Y599987D01*
X-9699427Y599989D01*
X-9789885Y818374D01*
X-9836000Y1050209D01*
X-9836000Y1286591D01*
X-9789885Y1518426D01*
X-9699427Y1736811D01*
X-9699372Y1736893D01*
X-9568101Y1933355D01*
X-9400955Y2100501D01*
X-9204413Y2231826D01*
X-9199826Y2233726D01*
X-8986026Y2322285D01*
X-8754191Y2368400D01*
X-8517809Y2368400D01*
X-8285974Y2322285D01*
X-8285974Y2322285D01*
G37*
G36*
X-20676580Y2316021D02*
G01*
X-20493726Y2279650D01*
X-20302638Y2200498D01*
X-20130664Y2085589D01*
X-19984411Y1939336D01*
X-19869502Y1767362D01*
X-19790350Y1576274D01*
X-19764182Y1444714D01*
X-19750000Y1373417D01*
X-19750000Y1166583D01*
X-19755027Y1141313D01*
X-19790350Y963726D01*
X-19869502Y772638D01*
X-19984411Y600664D01*
X-20130664Y454411D01*
X-20302638Y339502D01*
X-20493726Y260350D01*
X-20671301Y225029D01*
X-20696583Y220000D01*
X-20903417Y220000D01*
X-20928699Y225029D01*
X-21106274Y260350D01*
X-21297362Y339502D01*
X-21469336Y454411D01*
X-21615589Y600664D01*
X-21730498Y772638D01*
X-21809650Y963726D01*
X-21844973Y1141313D01*
X-21850000Y1166583D01*
X-21850000Y1373417D01*
X-21835818Y1444714D01*
X-21809650Y1576274D01*
X-21730498Y1767362D01*
X-21615589Y1939336D01*
X-21469336Y2085589D01*
X-21297362Y2200498D01*
X-21106274Y2279650D01*
X-20923420Y2316021D01*
X-20903417Y2320000D01*
X-20696583Y2320000D01*
X-20676580Y2316021D01*
X-20676580Y2316021D01*
G37*
G36*
X20923420Y2316021D02*
G01*
X21106274Y2279650D01*
X21297362Y2200498D01*
X21469336Y2085589D01*
X21615589Y1939336D01*
X21730498Y1767362D01*
X21809650Y1576274D01*
X21835818Y1444714D01*
X21850000Y1373417D01*
X21850000Y1166583D01*
X21844973Y1141313D01*
X21809650Y963726D01*
X21730498Y772638D01*
X21615589Y600664D01*
X21469336Y454411D01*
X21297362Y339502D01*
X21106274Y260350D01*
X20928699Y225029D01*
X20903417Y220000D01*
X20696583Y220000D01*
X20671301Y225029D01*
X20493726Y260350D01*
X20302638Y339502D01*
X20130664Y454411D01*
X19984411Y600664D01*
X19869502Y772638D01*
X19790350Y963726D01*
X19755027Y1141313D01*
X19750000Y1166583D01*
X19750000Y1373417D01*
X19764182Y1444714D01*
X19790350Y1576274D01*
X19869502Y1767362D01*
X19984411Y1939336D01*
X20130664Y2085589D01*
X20302638Y2200498D01*
X20493726Y2279650D01*
X20676580Y2316021D01*
X20696583Y2320000D01*
X20903417Y2320000D01*
X20923420Y2316021D01*
X20923420Y2316021D01*
G37*
G36*
X7599457Y2098482D02*
G01*
X7650937Y2082866D01*
X7698372Y2057511D01*
X7744719Y2019475D01*
X7784570Y1979624D01*
X7784576Y1979619D01*
X8332583Y1431612D01*
X8332588Y1431606D01*
X8372439Y1391755D01*
X8410475Y1345408D01*
X8435830Y1297973D01*
X8451446Y1246493D01*
X8456718Y1192963D01*
X8451446Y1139433D01*
X8435830Y1087953D01*
X8410475Y1040518D01*
X8372439Y994171D01*
X8332588Y954320D01*
X8332583Y954314D01*
X7855286Y477017D01*
X7855280Y477012D01*
X7815429Y437161D01*
X7769082Y399125D01*
X7721647Y373770D01*
X7670167Y358154D01*
X7616637Y352882D01*
X7563107Y358154D01*
X7511627Y373770D01*
X7464192Y399125D01*
X7417845Y437161D01*
X7377994Y477012D01*
X7377988Y477017D01*
X6829981Y1025024D01*
X6829976Y1025030D01*
X6790125Y1064881D01*
X6752089Y1111228D01*
X6726734Y1158663D01*
X6711118Y1210143D01*
X6705846Y1263673D01*
X6711118Y1317203D01*
X6726734Y1368683D01*
X6752089Y1416118D01*
X6790125Y1462465D01*
X6829976Y1502316D01*
X6829981Y1502322D01*
X7307278Y1979619D01*
X7307284Y1979624D01*
X7347135Y2019475D01*
X7393482Y2057511D01*
X7440917Y2082866D01*
X7492397Y2098482D01*
X7545927Y2103754D01*
X7599457Y2098482D01*
X7599457Y2098482D01*
G37*
G36*
X5893073Y2333273D02*
G01*
X4266727Y706927D01*
X3701041Y1272613D01*
X5327387Y2898959D01*
X5893073Y2333273D01*
X5893073Y2333273D01*
G37*
G36*
X-4392397Y2588882D02*
G01*
X-4340917Y2573266D01*
X-4293482Y2547911D01*
X-4247135Y2509875D01*
X-4207284Y2470024D01*
X-4207278Y2470019D01*
X-3729981Y1992722D01*
X-3729976Y1992716D01*
X-3690125Y1952865D01*
X-3652089Y1906518D01*
X-3626734Y1859083D01*
X-3611118Y1807603D01*
X-3605846Y1754073D01*
X-3611118Y1700543D01*
X-3626734Y1649063D01*
X-3652089Y1601628D01*
X-3690125Y1555281D01*
X-3729976Y1515430D01*
X-3729981Y1515424D01*
X-4277988Y967417D01*
X-4277994Y967412D01*
X-4317845Y927561D01*
X-4364192Y889525D01*
X-4411627Y864170D01*
X-4463107Y848554D01*
X-4516637Y843282D01*
X-4570167Y848554D01*
X-4621647Y864170D01*
X-4669082Y889525D01*
X-4715429Y927561D01*
X-4755280Y967412D01*
X-4755286Y967417D01*
X-5232583Y1444714D01*
X-5232588Y1444720D01*
X-5272439Y1484571D01*
X-5310475Y1530918D01*
X-5335830Y1578353D01*
X-5351446Y1629833D01*
X-5356718Y1683363D01*
X-5351446Y1736893D01*
X-5335830Y1788373D01*
X-5310475Y1835808D01*
X-5272439Y1882155D01*
X-5232588Y1922006D01*
X-5232583Y1922012D01*
X-4684576Y2470019D01*
X-4684570Y2470024D01*
X-4644719Y2509875D01*
X-4598372Y2547911D01*
X-4550937Y2573266D01*
X-4499457Y2588882D01*
X-4445927Y2594154D01*
X-4392397Y2588882D01*
X-4392397Y2588882D01*
G37*
G36*
X-17980300Y3586761D02*
G01*
X-17793726Y3549650D01*
X-17602638Y3470498D01*
X-17430664Y3355589D01*
X-17284411Y3209336D01*
X-17169502Y3037362D01*
X-17090350Y2846274D01*
X-17050000Y2643416D01*
X-17050000Y2436584D01*
X-17090350Y2233726D01*
X-17169502Y2042638D01*
X-17284411Y1870664D01*
X-17430664Y1724411D01*
X-17602638Y1609502D01*
X-17793726Y1530350D01*
X-17967133Y1495858D01*
X-17996583Y1490000D01*
X-18203417Y1490000D01*
X-18232867Y1495858D01*
X-18406274Y1530350D01*
X-18597362Y1609502D01*
X-18769336Y1724411D01*
X-18915589Y1870664D01*
X-19030498Y2042638D01*
X-19109650Y2233726D01*
X-19150000Y2436584D01*
X-19150000Y2643416D01*
X-19109650Y2846274D01*
X-19030498Y3037362D01*
X-18915589Y3209336D01*
X-18769336Y3355589D01*
X-18597362Y3470498D01*
X-18406274Y3549650D01*
X-18219700Y3586761D01*
X-18203417Y3590000D01*
X-17996583Y3590000D01*
X-17980300Y3586761D01*
X-17980300Y3586761D01*
G37*
G36*
X18219700Y3586761D02*
G01*
X18406274Y3549650D01*
X18597362Y3470498D01*
X18769336Y3355589D01*
X18915589Y3209336D01*
X19030498Y3037362D01*
X19109650Y2846274D01*
X19150000Y2643416D01*
X19150000Y2436584D01*
X19109650Y2233726D01*
X19030498Y2042638D01*
X18915589Y1870664D01*
X18769336Y1724411D01*
X18597362Y1609502D01*
X18406274Y1530350D01*
X18232867Y1495858D01*
X18203417Y1490000D01*
X17996583Y1490000D01*
X17967133Y1495858D01*
X17793726Y1530350D01*
X17602638Y1609502D01*
X17430664Y1724411D01*
X17284411Y1870664D01*
X17169502Y2042638D01*
X17090350Y2233726D01*
X17050000Y2436584D01*
X17050000Y2643416D01*
X17090350Y2846274D01*
X17169502Y3037362D01*
X17284411Y3209336D01*
X17430664Y3355589D01*
X17602638Y3470498D01*
X17793726Y3549650D01*
X17980300Y3586761D01*
X17996583Y3590000D01*
X18203417Y3590000D01*
X18219700Y3586761D01*
X18219700Y3586761D01*
G37*
G36*
X5044544Y3181801D02*
G01*
X3418198Y1555455D01*
X2852512Y2121141D01*
X4478858Y3747487D01*
X5044544Y3181801D01*
X5044544Y3181801D01*
G37*
G36*
X8409293Y4010646D02*
G01*
X8460773Y3995030D01*
X8508208Y3969675D01*
X8554555Y3931639D01*
X8594406Y3891788D01*
X8594412Y3891783D01*
X9142419Y3343776D01*
X9142424Y3343770D01*
X9182275Y3303919D01*
X9220311Y3257572D01*
X9245666Y3210137D01*
X9261282Y3158657D01*
X9266554Y3105127D01*
X9261282Y3051597D01*
X9245666Y3000117D01*
X9220311Y2952682D01*
X9182275Y2906335D01*
X9142424Y2866484D01*
X9142419Y2866478D01*
X8665122Y2389181D01*
X8665116Y2389176D01*
X8625265Y2349325D01*
X8578918Y2311289D01*
X8531483Y2285934D01*
X8480003Y2270318D01*
X8426473Y2265046D01*
X8372943Y2270318D01*
X8321463Y2285934D01*
X8274028Y2311289D01*
X8227681Y2349325D01*
X8187830Y2389176D01*
X8187824Y2389181D01*
X7639817Y2937188D01*
X7639812Y2937194D01*
X7599961Y2977045D01*
X7561925Y3023392D01*
X7536570Y3070827D01*
X7520954Y3122307D01*
X7515682Y3175837D01*
X7520954Y3229367D01*
X7536570Y3280847D01*
X7561925Y3328282D01*
X7599961Y3374629D01*
X7639812Y3414480D01*
X7639817Y3414486D01*
X8117114Y3891783D01*
X8117120Y3891788D01*
X8156971Y3931639D01*
X8203318Y3969675D01*
X8250753Y3995030D01*
X8302233Y4010646D01*
X8355763Y4015918D01*
X8409293Y4010646D01*
X8409293Y4010646D01*
G37*
G36*
X4196016Y4030330D02*
G01*
X2569670Y2403984D01*
X2003984Y2969670D01*
X3630330Y4596016D01*
X4196016Y4030330D01*
X4196016Y4030330D01*
G37*
G36*
X11826540Y4034784D02*
G01*
X10341616Y2549860D01*
X9139534Y3751942D01*
X10624458Y5236866D01*
X11826540Y4034784D01*
X11826540Y4034784D01*
G37*
G36*
X20928687Y4854973D02*
G01*
X21106274Y4819650D01*
X21297362Y4740498D01*
X21469336Y4625589D01*
X21615589Y4479336D01*
X21730498Y4307362D01*
X21809650Y4116274D01*
X21850000Y3913416D01*
X21850000Y3706584D01*
X21809650Y3503726D01*
X21730498Y3312638D01*
X21615589Y3140664D01*
X21469336Y2994411D01*
X21297362Y2879502D01*
X21106274Y2800350D01*
X20928687Y2765027D01*
X20903417Y2760000D01*
X20696583Y2760000D01*
X20671313Y2765027D01*
X20493726Y2800350D01*
X20302638Y2879502D01*
X20130664Y2994411D01*
X19984411Y3140664D01*
X19869502Y3312638D01*
X19790350Y3503726D01*
X19750000Y3706584D01*
X19750000Y3913416D01*
X19790350Y4116274D01*
X19869502Y4307362D01*
X19984411Y4479336D01*
X20130664Y4625589D01*
X20302638Y4740498D01*
X20493726Y4819650D01*
X20671313Y4854973D01*
X20696583Y4860000D01*
X20903417Y4860000D01*
X20928687Y4854973D01*
X20928687Y4854973D01*
G37*
G36*
X-20671313Y4854973D02*
G01*
X-20493726Y4819650D01*
X-20302638Y4740498D01*
X-20130664Y4625589D01*
X-19984411Y4479336D01*
X-19869502Y4307362D01*
X-19790350Y4116274D01*
X-19750000Y3913416D01*
X-19750000Y3706584D01*
X-19790350Y3503726D01*
X-19869502Y3312638D01*
X-19984411Y3140664D01*
X-20130664Y2994411D01*
X-20302638Y2879502D01*
X-20493726Y2800350D01*
X-20671313Y2765027D01*
X-20696583Y2760000D01*
X-20903417Y2760000D01*
X-20928687Y2765027D01*
X-21106274Y2800350D01*
X-21297362Y2879502D01*
X-21469336Y2994411D01*
X-21615589Y3140664D01*
X-21730498Y3312638D01*
X-21809650Y3503726D01*
X-21850000Y3706584D01*
X-21850000Y3913416D01*
X-21809650Y4116274D01*
X-21730498Y4307362D01*
X-21615589Y4479336D01*
X-21469336Y4625589D01*
X-21297362Y4740498D01*
X-21106274Y4819650D01*
X-20928687Y4854973D01*
X-20903417Y4860000D01*
X-20696583Y4860000D01*
X-20671313Y4854973D01*
X-20671313Y4854973D01*
G37*
G36*
X-5103993Y5504266D02*
G01*
X-4885608Y5413808D01*
X-4885606Y5413807D01*
X-4689064Y5282482D01*
X-4521918Y5115336D01*
X-4429206Y4976583D01*
X-4390592Y4918792D01*
X-4300134Y4700407D01*
X-4254019Y4468572D01*
X-4254019Y4232190D01*
X-4300134Y4000355D01*
X-4345106Y3891783D01*
X-4390593Y3781968D01*
X-4521918Y3585426D01*
X-4689064Y3418280D01*
X-4885606Y3286955D01*
X-4885607Y3286954D01*
X-4885608Y3286954D01*
X-5103993Y3196496D01*
X-5335828Y3150381D01*
X-5572210Y3150381D01*
X-5804045Y3196496D01*
X-6022430Y3286954D01*
X-6022431Y3286954D01*
X-6022432Y3286955D01*
X-6218974Y3418280D01*
X-6386120Y3585426D01*
X-6517445Y3781968D01*
X-6562932Y3891783D01*
X-6607904Y4000355D01*
X-6654019Y4232190D01*
X-6654019Y4468572D01*
X-6607904Y4700407D01*
X-6517446Y4918792D01*
X-6478831Y4976583D01*
X-6386120Y5115336D01*
X-6218974Y5282482D01*
X-6022432Y5413807D01*
X-6022430Y5413808D01*
X-5804045Y5504266D01*
X-5572210Y5550381D01*
X-5335828Y5550381D01*
X-5103993Y5504266D01*
X-5103993Y5504266D01*
G37*
G36*
X7171857Y5248082D02*
G01*
X7223337Y5232466D01*
X7270772Y5207111D01*
X7317119Y5169075D01*
X7356970Y5129224D01*
X7356976Y5129219D01*
X7904983Y4581212D01*
X7904988Y4581206D01*
X7944839Y4541355D01*
X7982875Y4495008D01*
X8008230Y4447573D01*
X8023846Y4396093D01*
X8029118Y4342563D01*
X8023846Y4289033D01*
X8008230Y4237553D01*
X7982875Y4190118D01*
X7944839Y4143771D01*
X7904988Y4103920D01*
X7904983Y4103914D01*
X7427686Y3626617D01*
X7427680Y3626612D01*
X7387829Y3586761D01*
X7341482Y3548725D01*
X7294047Y3523370D01*
X7242567Y3507754D01*
X7189037Y3502482D01*
X7135507Y3507754D01*
X7084027Y3523370D01*
X7036592Y3548725D01*
X6990245Y3586761D01*
X6950394Y3626612D01*
X6950388Y3626617D01*
X6402381Y4174624D01*
X6402376Y4174630D01*
X6362525Y4214481D01*
X6324489Y4260828D01*
X6299134Y4308263D01*
X6283518Y4359743D01*
X6278246Y4413273D01*
X6283518Y4466803D01*
X6299134Y4518283D01*
X6324489Y4565718D01*
X6362525Y4612065D01*
X6402376Y4651916D01*
X6402381Y4651922D01*
X6879678Y5129219D01*
X6879684Y5129224D01*
X6919535Y5169075D01*
X6965882Y5207111D01*
X7013317Y5232466D01*
X7064797Y5248082D01*
X7118327Y5253354D01*
X7171857Y5248082D01*
X7171857Y5248082D01*
G37*
G36*
X-17971313Y6124973D02*
G01*
X-17793726Y6089650D01*
X-17602638Y6010498D01*
X-17430664Y5895589D01*
X-17284411Y5749336D01*
X-17169502Y5577362D01*
X-17090350Y5386274D01*
X-17050000Y5183416D01*
X-17050000Y4976584D01*
X-17090350Y4773726D01*
X-17169502Y4582638D01*
X-17284411Y4410664D01*
X-17430664Y4264411D01*
X-17602638Y4149502D01*
X-17793726Y4070350D01*
X-17971313Y4035027D01*
X-17996583Y4030000D01*
X-18203417Y4030000D01*
X-18228687Y4035027D01*
X-18406274Y4070350D01*
X-18597362Y4149502D01*
X-18769336Y4264411D01*
X-18915589Y4410664D01*
X-19030498Y4582638D01*
X-19109650Y4773726D01*
X-19150000Y4976584D01*
X-19150000Y5183416D01*
X-19109650Y5386274D01*
X-19030498Y5577362D01*
X-18915589Y5749336D01*
X-18769336Y5895589D01*
X-18597362Y6010498D01*
X-18406274Y6089650D01*
X-18228687Y6124973D01*
X-18203417Y6130000D01*
X-17996583Y6130000D01*
X-17971313Y6124973D01*
X-17971313Y6124973D01*
G37*
G36*
X18228687Y6124973D02*
G01*
X18406274Y6089650D01*
X18597362Y6010498D01*
X18769336Y5895589D01*
X18915589Y5749336D01*
X19030498Y5577362D01*
X19109650Y5386274D01*
X19150000Y5183416D01*
X19150000Y4976584D01*
X19109650Y4773726D01*
X19030498Y4582638D01*
X18915589Y4410664D01*
X18769336Y4264411D01*
X18597362Y4149502D01*
X18406274Y4070350D01*
X18228687Y4035027D01*
X18203417Y4030000D01*
X17996583Y4030000D01*
X17971313Y4035027D01*
X17793726Y4070350D01*
X17602638Y4149502D01*
X17430664Y4264411D01*
X17284411Y4410664D01*
X17169502Y4582638D01*
X17090350Y4773726D01*
X17050000Y4976584D01*
X17050000Y5183416D01*
X17090350Y5386274D01*
X17169502Y5577362D01*
X17284411Y5749336D01*
X17430664Y5895589D01*
X17602638Y6010498D01*
X17793726Y6089650D01*
X17971313Y6124973D01*
X17996583Y6130000D01*
X18203417Y6130000D01*
X18228687Y6124973D01*
X18228687Y6124973D01*
G37*
G36*
X-12882168Y6918479D02*
G01*
X-12670229Y6830691D01*
X-12663781Y6828020D01*
X-12618470Y6797744D01*
X-12467239Y6696695D01*
X-12300093Y6529549D01*
X-12168767Y6333005D01*
X-12078309Y6114620D01*
X-12032194Y5882785D01*
X-12032194Y5646403D01*
X-12078309Y5414568D01*
X-12166201Y5202379D01*
X-12168768Y5196181D01*
X-12300093Y4999639D01*
X-12467239Y4832493D01*
X-12663781Y4701168D01*
X-12663782Y4701167D01*
X-12663783Y4701167D01*
X-12882168Y4610709D01*
X-13114003Y4564594D01*
X-13350385Y4564594D01*
X-13582220Y4610709D01*
X-13800605Y4701167D01*
X-13800606Y4701167D01*
X-13800607Y4701168D01*
X-13997149Y4832493D01*
X-14164295Y4999639D01*
X-14295620Y5196181D01*
X-14298187Y5202379D01*
X-14386079Y5414568D01*
X-14432194Y5646403D01*
X-14432194Y5882785D01*
X-14386079Y6114620D01*
X-14295621Y6333005D01*
X-14164295Y6529549D01*
X-13997149Y6696695D01*
X-13845918Y6797744D01*
X-13800607Y6828020D01*
X-13794159Y6830691D01*
X-13582220Y6918479D01*
X-13350385Y6964594D01*
X-13114003Y6964594D01*
X-12882168Y6918479D01*
X-12882168Y6918479D01*
G37*
G36*
X9351666Y6509658D02*
G01*
X7866742Y5024734D01*
X6664660Y6226816D01*
X8149584Y7711740D01*
X9351666Y6509658D01*
X9351666Y6509658D01*
G37*
G36*
X-20671313Y7394973D02*
G01*
X-20493726Y7359650D01*
X-20302638Y7280498D01*
X-20130664Y7165589D01*
X-19984411Y7019336D01*
X-19869502Y6847362D01*
X-19790350Y6656274D01*
X-19750000Y6453416D01*
X-19750000Y6246584D01*
X-19790350Y6043726D01*
X-19869502Y5852638D01*
X-19984411Y5680664D01*
X-20130664Y5534411D01*
X-20302638Y5419502D01*
X-20493726Y5340350D01*
X-20671313Y5305027D01*
X-20696583Y5300000D01*
X-20903417Y5300000D01*
X-20928687Y5305027D01*
X-21106274Y5340350D01*
X-21297362Y5419502D01*
X-21469336Y5534411D01*
X-21615589Y5680664D01*
X-21730498Y5852638D01*
X-21809650Y6043726D01*
X-21850000Y6246584D01*
X-21850000Y6453416D01*
X-21809650Y6656274D01*
X-21730498Y6847362D01*
X-21615589Y7019336D01*
X-21469336Y7165589D01*
X-21297362Y7280498D01*
X-21106274Y7359650D01*
X-20928687Y7394973D01*
X-20903417Y7400000D01*
X-20696583Y7400000D01*
X-20671313Y7394973D01*
X-20671313Y7394973D01*
G37*
G36*
X20928687Y7394973D02*
G01*
X21106274Y7359650D01*
X21297362Y7280498D01*
X21469336Y7165589D01*
X21615589Y7019336D01*
X21730498Y6847362D01*
X21809650Y6656274D01*
X21850000Y6453416D01*
X21850000Y6246584D01*
X21809650Y6043726D01*
X21730498Y5852638D01*
X21615589Y5680664D01*
X21469336Y5534411D01*
X21297362Y5419502D01*
X21106274Y5340350D01*
X20928687Y5305027D01*
X20903417Y5300000D01*
X20696583Y5300000D01*
X20671313Y5305027D01*
X20493726Y5340350D01*
X20302638Y5419502D01*
X20130664Y5534411D01*
X19984411Y5680664D01*
X19869502Y5852638D01*
X19790350Y6043726D01*
X19750000Y6246584D01*
X19750000Y6453416D01*
X19790350Y6656274D01*
X19869502Y6847362D01*
X19984411Y7019336D01*
X20130664Y7165589D01*
X20302638Y7280498D01*
X20493726Y7359650D01*
X20671313Y7394973D01*
X20696583Y7400000D01*
X20903417Y7400000D01*
X20928687Y7394973D01*
X20928687Y7394973D01*
G37*
G36*
X-2200269Y7933523D02*
G01*
X-2148789Y7917907D01*
X-2101354Y7892552D01*
X-2059772Y7858427D01*
X-2025647Y7816845D01*
X-2000292Y7769410D01*
X-1984676Y7717930D01*
X-1978799Y7658260D01*
X-1978799Y6870540D01*
X-1984676Y6810870D01*
X-2000292Y6759390D01*
X-2025647Y6711955D01*
X-2059772Y6670373D01*
X-2101354Y6636248D01*
X-2148789Y6610893D01*
X-2200269Y6595277D01*
X-2259939Y6589400D01*
X-3147659Y6589400D01*
X-3207329Y6595277D01*
X-3258809Y6610893D01*
X-3306244Y6636248D01*
X-3347826Y6670373D01*
X-3381951Y6711955D01*
X-3407306Y6759390D01*
X-3422922Y6810870D01*
X-3428799Y6870540D01*
X-3428799Y7658260D01*
X-3422922Y7717930D01*
X-3407306Y7769410D01*
X-3381951Y7816845D01*
X-3347826Y7858427D01*
X-3306244Y7892552D01*
X-3258809Y7917907D01*
X-3207329Y7933523D01*
X-3147659Y7939400D01*
X-2259939Y7939400D01*
X-2200269Y7933523D01*
X-2200269Y7933523D01*
G37*
G36*
X-450271Y7933523D02*
G01*
X-398791Y7917907D01*
X-351356Y7892552D01*
X-309774Y7858427D01*
X-275649Y7816845D01*
X-250294Y7769410D01*
X-234678Y7717930D01*
X-228801Y7658260D01*
X-228801Y6870540D01*
X-234678Y6810870D01*
X-250294Y6759390D01*
X-275649Y6711955D01*
X-309774Y6670373D01*
X-351356Y6636248D01*
X-398791Y6610893D01*
X-450271Y6595277D01*
X-509941Y6589400D01*
X-1397661Y6589400D01*
X-1457331Y6595277D01*
X-1508811Y6610893D01*
X-1556246Y6636248D01*
X-1597828Y6670373D01*
X-1631953Y6711955D01*
X-1657308Y6759390D01*
X-1672924Y6810870D01*
X-1678801Y6870540D01*
X-1678801Y7658260D01*
X-1672924Y7717930D01*
X-1657308Y7769410D01*
X-1631953Y7816845D01*
X-1597828Y7858427D01*
X-1556246Y7892552D01*
X-1508811Y7917907D01*
X-1457331Y7933523D01*
X-1397661Y7939400D01*
X-509941Y7939400D01*
X-450271Y7933523D01*
X-450271Y7933523D01*
G37*
G36*
X-18091470Y8149123D02*
G01*
X-18039990Y8133507D01*
X-17992555Y8108152D01*
X-17950973Y8074027D01*
X-17916848Y8032445D01*
X-17891493Y7985010D01*
X-17875877Y7933530D01*
X-17870000Y7873860D01*
X-17870000Y7086140D01*
X-17875877Y7026470D01*
X-17891493Y6974990D01*
X-17916848Y6927555D01*
X-17950973Y6885973D01*
X-17992555Y6851848D01*
X-18039990Y6826493D01*
X-18091470Y6810877D01*
X-18151140Y6805000D01*
X-19038860Y6805000D01*
X-19098530Y6810877D01*
X-19150010Y6826493D01*
X-19197445Y6851848D01*
X-19239027Y6885973D01*
X-19273152Y6927555D01*
X-19298507Y6974990D01*
X-19314123Y7026470D01*
X-19320000Y7086140D01*
X-19320000Y7873860D01*
X-19314123Y7933530D01*
X-19298507Y7985010D01*
X-19273152Y8032445D01*
X-19239027Y8074027D01*
X-19197445Y8108152D01*
X-19150010Y8133507D01*
X-19098530Y8149123D01*
X-19038860Y8155000D01*
X-18151140Y8155000D01*
X-18091470Y8149123D01*
X-18091470Y8149123D01*
G37*
G36*
X-16341470Y8149123D02*
G01*
X-16289990Y8133507D01*
X-16242555Y8108152D01*
X-16200973Y8074027D01*
X-16166848Y8032445D01*
X-16141493Y7985010D01*
X-16125877Y7933530D01*
X-16120000Y7873860D01*
X-16120000Y7086140D01*
X-16125877Y7026470D01*
X-16141493Y6974990D01*
X-16166848Y6927555D01*
X-16200973Y6885973D01*
X-16242555Y6851848D01*
X-16289990Y6826493D01*
X-16341470Y6810877D01*
X-16401140Y6805000D01*
X-17288860Y6805000D01*
X-17348530Y6810877D01*
X-17400010Y6826493D01*
X-17447445Y6851848D01*
X-17489027Y6885973D01*
X-17523152Y6927555D01*
X-17548507Y6974990D01*
X-17564123Y7026470D01*
X-17570000Y7086140D01*
X-17570000Y7873860D01*
X-17564123Y7933530D01*
X-17548507Y7985010D01*
X-17523152Y8032445D01*
X-17489027Y8074027D01*
X-17447445Y8108152D01*
X-17400010Y8133507D01*
X-17348530Y8149123D01*
X-17288860Y8155000D01*
X-16401140Y8155000D01*
X-16341470Y8149123D01*
X-16341470Y8149123D01*
G37*
G36*
X-9700188Y10100460D02*
G01*
X-9481803Y10010002D01*
X-9481801Y10010001D01*
X-9285259Y9878676D01*
X-9118113Y9711530D01*
X-9054599Y9616475D01*
X-8986787Y9514986D01*
X-8896329Y9296601D01*
X-8850214Y9064766D01*
X-8850214Y8828384D01*
X-8896329Y8596549D01*
X-8899042Y8590000D01*
X-8986788Y8378162D01*
X-9118113Y8181620D01*
X-9285259Y8014474D01*
X-9481801Y7883149D01*
X-9481802Y7883148D01*
X-9481803Y7883148D01*
X-9700188Y7792690D01*
X-9932023Y7746575D01*
X-10168405Y7746575D01*
X-10400240Y7792690D01*
X-10618625Y7883148D01*
X-10618626Y7883148D01*
X-10618627Y7883149D01*
X-10815169Y8014474D01*
X-10982315Y8181620D01*
X-11113640Y8378162D01*
X-11201386Y8590000D01*
X-11204099Y8596549D01*
X-11250214Y8828384D01*
X-11250214Y9064766D01*
X-11204099Y9296601D01*
X-11113641Y9514986D01*
X-11045828Y9616475D01*
X-10982315Y9711530D01*
X-10815169Y9878676D01*
X-10618627Y10010001D01*
X-10618625Y10010002D01*
X-10400240Y10100460D01*
X-10168405Y10146575D01*
X-9932023Y10146575D01*
X-9700188Y10100460D01*
X-9700188Y10100460D01*
G37*
G36*
X20300000Y7950000D02*
G01*
X18200000Y7950000D01*
X18200000Y10050000D01*
X20300000Y10050000D01*
X20300000Y7950000D01*
X20300000Y7950000D01*
G37*
G36*
X16838707Y10042404D02*
G01*
X16915836Y10034807D01*
X17112994Y9975000D01*
X17113765Y9974766D01*
X17296170Y9877268D01*
X17456055Y9746055D01*
X17587268Y9586170D01*
X17684766Y9403765D01*
X17684767Y9403762D01*
X17744807Y9205836D01*
X17765080Y9000000D01*
X17744807Y8794164D01*
X17693492Y8625000D01*
X17684766Y8596235D01*
X17587268Y8413830D01*
X17456055Y8253945D01*
X17296170Y8122732D01*
X17113765Y8025234D01*
X17113762Y8025233D01*
X16915836Y7965193D01*
X16838707Y7957596D01*
X16761580Y7950000D01*
X16658420Y7950000D01*
X16581293Y7957596D01*
X16504164Y7965193D01*
X16306238Y8025233D01*
X16306235Y8025234D01*
X16123830Y8122732D01*
X15963945Y8253945D01*
X15832732Y8413830D01*
X15735234Y8596235D01*
X15726508Y8625000D01*
X15675193Y8794164D01*
X15654920Y9000000D01*
X15675193Y9205836D01*
X15735233Y9403762D01*
X15735234Y9403765D01*
X15832732Y9586170D01*
X15963945Y9746055D01*
X16123830Y9877268D01*
X16306235Y9974766D01*
X16307006Y9975000D01*
X16504164Y10034807D01*
X16581293Y10042404D01*
X16658420Y10050000D01*
X16761580Y10050000D01*
X16838707Y10042404D01*
X16838707Y10042404D01*
G37*
G36*
X14298707Y10042404D02*
G01*
X14375836Y10034807D01*
X14572994Y9975000D01*
X14573765Y9974766D01*
X14756170Y9877268D01*
X14916055Y9746055D01*
X15047268Y9586170D01*
X15144766Y9403765D01*
X15144767Y9403762D01*
X15204807Y9205836D01*
X15225080Y9000000D01*
X15204807Y8794164D01*
X15153492Y8625000D01*
X15144766Y8596235D01*
X15047268Y8413830D01*
X14916055Y8253945D01*
X14756170Y8122732D01*
X14573765Y8025234D01*
X14573762Y8025233D01*
X14375836Y7965193D01*
X14298707Y7957596D01*
X14221580Y7950000D01*
X14118420Y7950000D01*
X14041293Y7957596D01*
X13964164Y7965193D01*
X13766238Y8025233D01*
X13766235Y8025234D01*
X13583830Y8122732D01*
X13423945Y8253945D01*
X13292732Y8413830D01*
X13195234Y8596235D01*
X13186508Y8625000D01*
X13135193Y8794164D01*
X13114920Y9000000D01*
X13135193Y9205836D01*
X13195233Y9403762D01*
X13195234Y9403765D01*
X13292732Y9586170D01*
X13423945Y9746055D01*
X13583830Y9877268D01*
X13766235Y9974766D01*
X13767006Y9975000D01*
X13964164Y10034807D01*
X14041293Y10042404D01*
X14118420Y10050000D01*
X14221580Y10050000D01*
X14298707Y10042404D01*
X14298707Y10042404D01*
G37*
G36*
X-16830000Y8590000D02*
G01*
X-18030000Y8590000D01*
X-18030000Y9890000D01*
X-16830000Y9890000D01*
X-16830000Y8590000D01*
X-16830000Y8590000D01*
G37*
G36*
X-18730000Y8590000D02*
G01*
X-19930000Y8590000D01*
X-19930000Y9890000D01*
X-18730000Y9890000D01*
X-18730000Y8590000D01*
X-18730000Y8590000D01*
G37*
G36*
X-14671470Y9969123D02*
G01*
X-14619990Y9953507D01*
X-14572555Y9928152D01*
X-14530973Y9894027D01*
X-14496848Y9852445D01*
X-14471493Y9805010D01*
X-14455877Y9753530D01*
X-14450000Y9693860D01*
X-14450000Y8906140D01*
X-14455877Y8846470D01*
X-14471493Y8794990D01*
X-14496848Y8747555D01*
X-14530973Y8705973D01*
X-14572555Y8671848D01*
X-14619990Y8646493D01*
X-14671470Y8630877D01*
X-14731140Y8625000D01*
X-15618860Y8625000D01*
X-15678530Y8630877D01*
X-15730010Y8646493D01*
X-15777445Y8671848D01*
X-15819027Y8705973D01*
X-15853152Y8747555D01*
X-15878507Y8794990D01*
X-15894123Y8846470D01*
X-15900000Y8906140D01*
X-15900000Y9693860D01*
X-15894123Y9753530D01*
X-15878507Y9805010D01*
X-15853152Y9852445D01*
X-15819027Y9894027D01*
X-15777445Y9928152D01*
X-15730010Y9953507D01*
X-15678530Y9969123D01*
X-15618860Y9975000D01*
X-14731140Y9975000D01*
X-14671470Y9969123D01*
X-14671470Y9969123D01*
G37*
G36*
X-11522842Y16721262D02*
G01*
X-10913182Y16468732D01*
X-10913180Y16468731D01*
X-10364500Y16102115D01*
X-9897885Y15635500D01*
X-9709302Y15353266D01*
X-9531268Y15086818D01*
X-9278738Y14477158D01*
X-9150000Y13829948D01*
X-9150000Y13170052D01*
X-9278738Y12522842D01*
X-9523693Y11931470D01*
X-9531269Y11913180D01*
X-9897885Y11364500D01*
X-10364500Y10897885D01*
X-10913180Y10531269D01*
X-10913181Y10531268D01*
X-10913182Y10531268D01*
X-11522842Y10278738D01*
X-12170052Y10150000D01*
X-12743529Y10150000D01*
X-12767915Y10147598D01*
X-12791364Y10140485D01*
X-12812975Y10128934D01*
X-12831917Y10113389D01*
X-12847462Y10094447D01*
X-12859013Y10072836D01*
X-12866126Y10049387D01*
X-12868528Y10025001D01*
X-12866126Y10000615D01*
X-12859013Y9977166D01*
X-12847462Y9955555D01*
X-12831917Y9936613D01*
X-12822827Y9928375D01*
X-12780973Y9894026D01*
X-12746848Y9852445D01*
X-12721493Y9805010D01*
X-12705877Y9753530D01*
X-12700000Y9693860D01*
X-12700000Y8906140D01*
X-12705877Y8846470D01*
X-12721493Y8794990D01*
X-12746848Y8747555D01*
X-12780973Y8705973D01*
X-12822555Y8671848D01*
X-12869990Y8646493D01*
X-12921470Y8630877D01*
X-12981140Y8625000D01*
X-13868860Y8625000D01*
X-13928530Y8630877D01*
X-13980010Y8646493D01*
X-14027445Y8671848D01*
X-14069027Y8705973D01*
X-14103152Y8747555D01*
X-14128507Y8794990D01*
X-14144123Y8846470D01*
X-14150000Y8906140D01*
X-14150000Y9693860D01*
X-14144123Y9753530D01*
X-14128507Y9805010D01*
X-14103152Y9852445D01*
X-14069027Y9894027D01*
X-14027445Y9928152D01*
X-13980010Y9953507D01*
X-13928530Y9969123D01*
X-13868860Y9975000D01*
X-13219299Y9975000D01*
X-13194913Y9977402D01*
X-13171464Y9984515D01*
X-13149853Y9996066D01*
X-13130911Y10011611D01*
X-13115366Y10030553D01*
X-13103815Y10052164D01*
X-13096702Y10075613D01*
X-13094300Y10099999D01*
X-13096702Y10124385D01*
X-13103815Y10147834D01*
X-13115366Y10169445D01*
X-13130911Y10188387D01*
X-13149853Y10203932D01*
X-13171464Y10215483D01*
X-13194913Y10222596D01*
X-13477158Y10278738D01*
X-14086818Y10531268D01*
X-14086819Y10531268D01*
X-14086820Y10531269D01*
X-14635500Y10897885D01*
X-15102115Y11364500D01*
X-15468731Y11913180D01*
X-15476307Y11931470D01*
X-15721262Y12522842D01*
X-15850000Y13170052D01*
X-15850000Y13829948D01*
X-15794952Y14106695D01*
X-15792550Y14131081D01*
X-15794952Y14155467D01*
X-15802065Y14178916D01*
X-15813616Y14200527D01*
X-15829161Y14219469D01*
X-15848103Y14235014D01*
X-15869714Y14246565D01*
X-15893163Y14253678D01*
X-15917549Y14256080D01*
X-15941935Y14253678D01*
X-15965384Y14246565D01*
X-15986995Y14235014D01*
X-16005931Y14219474D01*
X-16477988Y13747417D01*
X-16477994Y13747412D01*
X-16517845Y13707561D01*
X-16564192Y13669525D01*
X-16611627Y13644170D01*
X-16663107Y13628554D01*
X-16716637Y13623282D01*
X-16770167Y13628554D01*
X-16821647Y13644170D01*
X-16869082Y13669525D01*
X-16915429Y13707561D01*
X-16955280Y13747412D01*
X-16955286Y13747417D01*
X-17432583Y14224714D01*
X-17432588Y14224720D01*
X-17472439Y14264571D01*
X-17510475Y14310918D01*
X-17535830Y14358353D01*
X-17551446Y14409833D01*
X-17556718Y14463363D01*
X-17551446Y14516893D01*
X-17535830Y14568373D01*
X-17510475Y14615808D01*
X-17472439Y14662155D01*
X-17432588Y14702006D01*
X-17432583Y14702012D01*
X-16884576Y15250019D01*
X-16884570Y15250024D01*
X-16844719Y15289875D01*
X-16798372Y15327911D01*
X-16750937Y15353266D01*
X-16699457Y15368882D01*
X-16645927Y15374154D01*
X-16592397Y15368882D01*
X-16540917Y15353266D01*
X-16493482Y15327911D01*
X-16447135Y15289875D01*
X-16407284Y15250024D01*
X-16407278Y15250019D01*
X-15929981Y14772722D01*
X-15929976Y14772716D01*
X-15890125Y14732865D01*
X-15849375Y14683211D01*
X-15840498Y14669925D01*
X-15823172Y14652597D01*
X-15802798Y14638982D01*
X-15780160Y14629604D01*
X-15756127Y14624822D01*
X-15731623Y14624821D01*
X-15707589Y14629601D01*
X-15684950Y14638977D01*
X-15664575Y14652590D01*
X-15647247Y14669916D01*
X-15633632Y14690290D01*
X-15628385Y14701384D01*
X-15468732Y15086818D01*
X-15290697Y15353266D01*
X-15102115Y15635500D01*
X-14635500Y16102115D01*
X-14086820Y16468731D01*
X-14086818Y16468732D01*
X-13477158Y16721262D01*
X-12829948Y16850000D01*
X-12170052Y16850000D01*
X-11522842Y16721262D01*
X-11522842Y16721262D01*
G37*
G36*
X8389800Y9065600D02*
G01*
X6189800Y9065600D01*
X6189800Y11965600D01*
X8389800Y11965600D01*
X8389800Y9065600D01*
X8389800Y9065600D01*
G37*
G36*
X-42500Y9200000D02*
G01*
X-6557500Y9200000D01*
X-6557500Y10800000D01*
X-42500Y10800000D01*
X-42500Y9200000D01*
X-42500Y9200000D01*
G37*
G36*
X3335529Y11154290D02*
G01*
X3385378Y11139169D01*
X3431310Y11114618D01*
X3471574Y11081574D01*
X3504618Y11041310D01*
X3529169Y10995378D01*
X3544290Y10945529D01*
X3550000Y10887556D01*
X3550000Y9882444D01*
X3544290Y9824471D01*
X3529169Y9774622D01*
X3504618Y9728690D01*
X3471574Y9688426D01*
X3431310Y9655382D01*
X3385378Y9630831D01*
X3335529Y9615710D01*
X3277556Y9610000D01*
X2022444Y9610000D01*
X1964471Y9615710D01*
X1914622Y9630831D01*
X1868690Y9655382D01*
X1828426Y9688426D01*
X1795382Y9728690D01*
X1770831Y9774622D01*
X1755710Y9824471D01*
X1750000Y9882444D01*
X1750000Y10887556D01*
X1755710Y10945529D01*
X1770831Y10995378D01*
X1795382Y11041310D01*
X1828426Y11081574D01*
X1868690Y11114618D01*
X1914622Y11139169D01*
X1964471Y11154290D01*
X2022444Y11160000D01*
X3277556Y11160000D01*
X3335529Y11154290D01*
X3335529Y11154290D01*
G37*
G36*
X5053530Y11404123D02*
G01*
X5105010Y11388507D01*
X5152445Y11363152D01*
X5194027Y11329027D01*
X5228152Y11287445D01*
X5253507Y11240010D01*
X5269123Y11188530D01*
X5275000Y11128860D01*
X5275000Y10241140D01*
X5269123Y10181470D01*
X5253507Y10129990D01*
X5228152Y10082555D01*
X5194027Y10040973D01*
X5152445Y10006848D01*
X5105010Y9981493D01*
X5053530Y9965877D01*
X4993860Y9960000D01*
X4206140Y9960000D01*
X4146470Y9965877D01*
X4094990Y9981493D01*
X4047555Y10006848D01*
X4005973Y10040973D01*
X3971848Y10082555D01*
X3946493Y10129990D01*
X3930877Y10181470D01*
X3925000Y10241140D01*
X3925000Y11128860D01*
X3930877Y11188530D01*
X3946493Y11240010D01*
X3971848Y11287445D01*
X4005973Y11329027D01*
X4047555Y11363152D01*
X4094990Y11388507D01*
X4146470Y11404123D01*
X4206140Y11410000D01*
X4993860Y11410000D01*
X5053530Y11404123D01*
X5053530Y11404123D01*
G37*
G36*
X13143798Y16736591D02*
G01*
X13462574Y16673183D01*
X14063136Y16424422D01*
X14603627Y16063277D01*
X15063277Y15603627D01*
X15424422Y15063136D01*
X15673183Y14462574D01*
X15720496Y14224714D01*
X15800000Y13825023D01*
X15800000Y13174977D01*
X15752968Y12938530D01*
X15673183Y12537426D01*
X15424422Y11936864D01*
X15063277Y11396373D01*
X14603627Y10936723D01*
X14063136Y10575578D01*
X13462574Y10326817D01*
X13143798Y10263409D01*
X12825023Y10200000D01*
X12174977Y10200000D01*
X11856202Y10263409D01*
X11537426Y10326817D01*
X10936864Y10575578D01*
X10396373Y10936723D01*
X9936723Y11396373D01*
X9575578Y11936864D01*
X9326817Y12537426D01*
X9247032Y12938530D01*
X9200000Y13174977D01*
X9200000Y13825023D01*
X9279504Y14224714D01*
X9326817Y14462574D01*
X9575578Y15063136D01*
X9936723Y15603627D01*
X10396373Y16063277D01*
X10936864Y16424422D01*
X11537426Y16673183D01*
X11856202Y16736591D01*
X12174977Y16800000D01*
X12825023Y16800000D01*
X13143798Y16736591D01*
X13143798Y16736591D01*
G37*
G36*
X-17780000Y10590000D02*
G01*
X-18980000Y10590000D01*
X-18980000Y11890000D01*
X-17780000Y11890000D01*
X-17780000Y10590000D01*
X-17780000Y10590000D01*
G37*
G36*
X3335529Y13204290D02*
G01*
X3385378Y13189169D01*
X3431310Y13164618D01*
X3471574Y13131574D01*
X3504618Y13091310D01*
X3529169Y13045378D01*
X3544290Y12995529D01*
X3550000Y12937556D01*
X3550000Y11932444D01*
X3544290Y11874471D01*
X3529169Y11824622D01*
X3504618Y11778690D01*
X3471574Y11738426D01*
X3431310Y11705382D01*
X3385378Y11680831D01*
X3335529Y11665710D01*
X3277556Y11660000D01*
X2022444Y11660000D01*
X1964471Y11665710D01*
X1914622Y11680831D01*
X1868690Y11705382D01*
X1828426Y11738426D01*
X1795382Y11778690D01*
X1770831Y11824622D01*
X1755710Y11874471D01*
X1750000Y11932444D01*
X1750000Y12937556D01*
X1755710Y12995529D01*
X1770831Y13045378D01*
X1795382Y13091310D01*
X1828426Y13131574D01*
X1868690Y13164618D01*
X1914622Y13189169D01*
X1964471Y13204290D01*
X2022444Y13210000D01*
X3277556Y13210000D01*
X3335529Y13204290D01*
X3335529Y13204290D01*
G37*
G36*
X5053530Y13154123D02*
G01*
X5105010Y13138507D01*
X5152445Y13113152D01*
X5194027Y13079027D01*
X5228152Y13037445D01*
X5253507Y12990010D01*
X5269123Y12938530D01*
X5275000Y12878860D01*
X5275000Y11991140D01*
X5269123Y11931470D01*
X5253507Y11879990D01*
X5228152Y11832555D01*
X5194027Y11790973D01*
X5152445Y11756848D01*
X5105010Y11731493D01*
X5053530Y11715877D01*
X4993860Y11710000D01*
X4206140Y11710000D01*
X4146470Y11715877D01*
X4094990Y11731493D01*
X4047555Y11756848D01*
X4005973Y11790973D01*
X3971848Y11832555D01*
X3946493Y11879990D01*
X3930877Y11931470D01*
X3925000Y11991140D01*
X3925000Y12878860D01*
X3930877Y12938530D01*
X3946493Y12990010D01*
X3971848Y13037445D01*
X4005973Y13079027D01*
X4047555Y13113152D01*
X4094990Y13138507D01*
X4146470Y13154123D01*
X4206140Y13160000D01*
X4993860Y13160000D01*
X5053530Y13154123D01*
X5053530Y13154123D01*
G37*
G36*
X-17829833Y14131446D02*
G01*
X-17778353Y14115830D01*
X-17730918Y14090475D01*
X-17684571Y14052439D01*
X-17644720Y14012588D01*
X-17644714Y14012583D01*
X-17167417Y13535286D01*
X-17167412Y13535280D01*
X-17127561Y13495429D01*
X-17089525Y13449082D01*
X-17064170Y13401647D01*
X-17048554Y13350167D01*
X-17043282Y13296637D01*
X-17048554Y13243107D01*
X-17064170Y13191627D01*
X-17089525Y13144192D01*
X-17127561Y13097845D01*
X-17167412Y13057994D01*
X-17167417Y13057988D01*
X-17715424Y12509981D01*
X-17715430Y12509976D01*
X-17755281Y12470125D01*
X-17801628Y12432089D01*
X-17849063Y12406734D01*
X-17900543Y12391118D01*
X-17954073Y12385846D01*
X-18007603Y12391118D01*
X-18059083Y12406734D01*
X-18106518Y12432089D01*
X-18152865Y12470125D01*
X-18192716Y12509976D01*
X-18192722Y12509981D01*
X-18670019Y12987278D01*
X-18670024Y12987284D01*
X-18709875Y13027135D01*
X-18747911Y13073482D01*
X-18773266Y13120917D01*
X-18788882Y13172397D01*
X-18794154Y13225927D01*
X-18788882Y13279457D01*
X-18773266Y13330937D01*
X-18747911Y13378372D01*
X-18709875Y13424719D01*
X-18670024Y13464570D01*
X-18670019Y13464576D01*
X-18122012Y14012583D01*
X-18122006Y14012588D01*
X-18082155Y14052439D01*
X-18035808Y14090475D01*
X-17988373Y14115830D01*
X-17936893Y14131446D01*
X-17883363Y14136718D01*
X-17829833Y14131446D01*
X-17829833Y14131446D01*
G37*
G36*
X8389800Y13065600D02*
G01*
X6189800Y13065600D01*
X6189800Y15965600D01*
X8389800Y15965600D01*
X8389800Y13065600D01*
X8389800Y13065600D01*
G37*
G36*
X3325000Y14350000D02*
G01*
X2475000Y14350000D01*
X2475000Y15050000D01*
X3325000Y15050000D01*
X3325000Y14350000D01*
X3325000Y14350000D01*
G37*
G36*
X4725000Y14350000D02*
G01*
X3875000Y14350000D01*
X3875000Y16050000D01*
X4725000Y16050000D01*
X4725000Y14350000D01*
X4725000Y14350000D01*
G37*
G36*
X-42500Y14400000D02*
G01*
X-6557500Y14400000D01*
X-6557500Y16000000D01*
X-42500Y16000000D01*
X-42500Y14400000D01*
X-42500Y14400000D01*
G37*
G36*
X3325000Y15350000D02*
G01*
X2475000Y15350000D01*
X2475000Y16050000D01*
X3325000Y16050000D01*
X3325000Y15350000D01*
X3325000Y15350000D01*
G37*
G36*
X-6976400Y16221400D02*
G01*
X-9076400Y16221400D01*
X-9076400Y17921400D01*
X-6976400Y17921400D01*
X-6976400Y16221400D01*
X-6976400Y16221400D01*
G37*
G36*
X-9655670Y18792523D02*
G01*
X-9604190Y18776907D01*
X-9556755Y18751552D01*
X-9515173Y18717427D01*
X-9481048Y18675845D01*
X-9455693Y18628410D01*
X-9440077Y18576930D01*
X-9434200Y18517260D01*
X-9434200Y17629540D01*
X-9440077Y17569870D01*
X-9455693Y17518390D01*
X-9481048Y17470955D01*
X-9515173Y17429373D01*
X-9556755Y17395248D01*
X-9604190Y17369893D01*
X-9655670Y17354277D01*
X-9715340Y17348400D01*
X-10503060Y17348400D01*
X-10562730Y17354277D01*
X-10614210Y17369893D01*
X-10661645Y17395248D01*
X-10703227Y17429373D01*
X-10737352Y17470955D01*
X-10762707Y17518390D01*
X-10778323Y17569870D01*
X-10784200Y17629540D01*
X-10784200Y18517260D01*
X-10778323Y18576930D01*
X-10762707Y18628410D01*
X-10737352Y18675845D01*
X-10703227Y18717427D01*
X-10661645Y18751552D01*
X-10614210Y18776907D01*
X-10562730Y18792523D01*
X-10503060Y18798400D01*
X-9715340Y18798400D01*
X-9655670Y18792523D01*
X-9655670Y18792523D01*
G37*
G36*
X-5246378Y18818283D02*
G01*
X-5198415Y18803734D01*
X-5154222Y18780112D01*
X-5115481Y18748319D01*
X-5083688Y18709578D01*
X-5060066Y18665385D01*
X-5045517Y18617422D01*
X-5040000Y18561409D01*
X-5040000Y17811191D01*
X-5045517Y17755178D01*
X-5060066Y17707215D01*
X-5083688Y17663022D01*
X-5115481Y17624281D01*
X-5154222Y17592488D01*
X-5198415Y17568866D01*
X-5246378Y17554317D01*
X-5302391Y17548800D01*
X-6127609Y17548800D01*
X-6183622Y17554317D01*
X-6231585Y17568866D01*
X-6275778Y17592488D01*
X-6314519Y17624281D01*
X-6346312Y17663022D01*
X-6369934Y17707215D01*
X-6384483Y17755178D01*
X-6390000Y17811191D01*
X-6390000Y18561409D01*
X-6384483Y18617422D01*
X-6369934Y18665385D01*
X-6346312Y18709578D01*
X-6314519Y18748319D01*
X-6275778Y18780112D01*
X-6231585Y18803734D01*
X-6183622Y18818283D01*
X-6127609Y18823800D01*
X-5302391Y18823800D01*
X-5246378Y18818283D01*
X-5246378Y18818283D01*
G37*
G36*
X6209022Y18818283D02*
G01*
X6256985Y18803734D01*
X6301178Y18780112D01*
X6339919Y18748319D01*
X6371712Y18709578D01*
X6395334Y18665385D01*
X6409883Y18617422D01*
X6415400Y18561409D01*
X6415400Y17811191D01*
X6409883Y17755178D01*
X6395334Y17707215D01*
X6371712Y17663022D01*
X6339919Y17624281D01*
X6301178Y17592488D01*
X6256985Y17568866D01*
X6209022Y17554317D01*
X6153009Y17548800D01*
X5327791Y17548800D01*
X5271778Y17554317D01*
X5223815Y17568866D01*
X5179622Y17592488D01*
X5140881Y17624281D01*
X5109088Y17663022D01*
X5085466Y17707215D01*
X5070917Y17755178D01*
X5065400Y17811191D01*
X5065400Y18561409D01*
X5070917Y18617422D01*
X5085466Y18665385D01*
X5109088Y18709578D01*
X5140881Y18748319D01*
X5179622Y18780112D01*
X5223815Y18803734D01*
X5271778Y18818283D01*
X5327791Y18823800D01*
X6153009Y18823800D01*
X6209022Y18818283D01*
X6209022Y18818283D01*
G37*
G36*
X4297500Y20497000D02*
G01*
X3524999Y20497000D01*
X3500613Y20494598D01*
X3477164Y20487485D01*
X3455553Y20475934D01*
X3436611Y20460389D01*
X3421066Y20441447D01*
X3409515Y20419836D01*
X3402402Y20396387D01*
X3400000Y20372001D01*
X3400000Y18097000D01*
X-3400000Y18097000D01*
X-3400000Y20372001D01*
X-1525000Y20372001D01*
X-1525000Y20001999D01*
X-1522598Y19977613D01*
X-1515485Y19954164D01*
X-1503934Y19932553D01*
X-1488389Y19913611D01*
X-1469447Y19898066D01*
X-1447836Y19886515D01*
X-1424387Y19879402D01*
X-1400001Y19877000D01*
X1400001Y19877000D01*
X1424387Y19879402D01*
X1447836Y19886515D01*
X1469447Y19898066D01*
X1488389Y19913611D01*
X1503934Y19932553D01*
X1515485Y19954164D01*
X1522598Y19977613D01*
X1525000Y20001999D01*
X1525000Y20372001D01*
X1522598Y20396387D01*
X1515485Y20419836D01*
X1503934Y20441447D01*
X1488389Y20460389D01*
X1469447Y20475934D01*
X1447836Y20487485D01*
X1424387Y20494598D01*
X1400001Y20497000D01*
X-1400001Y20497000D01*
X-1424387Y20494598D01*
X-1447836Y20487485D01*
X-1469447Y20475934D01*
X-1488389Y20460389D01*
X-1503934Y20441447D01*
X-1515485Y20419836D01*
X-1522598Y20396387D01*
X-1525000Y20372001D01*
X-3400000Y20372001D01*
X-3402402Y20396387D01*
X-3409515Y20419836D01*
X-3421066Y20441447D01*
X-3436611Y20460389D01*
X-3455553Y20475934D01*
X-3477164Y20487485D01*
X-3500613Y20494598D01*
X-3524999Y20497000D01*
X-4297500Y20497000D01*
X-4297500Y22797000D01*
X4297500Y22797000D01*
X4297500Y20497000D01*
X4297500Y20497000D01*
G37*
G36*
X-9655670Y20542523D02*
G01*
X-9604190Y20526907D01*
X-9556755Y20501552D01*
X-9515173Y20467427D01*
X-9481048Y20425845D01*
X-9455693Y20378410D01*
X-9440077Y20326930D01*
X-9434200Y20267260D01*
X-9434200Y19379540D01*
X-9440077Y19319870D01*
X-9455693Y19268390D01*
X-9481048Y19220955D01*
X-9515173Y19179373D01*
X-9556755Y19145248D01*
X-9604190Y19119893D01*
X-9655670Y19104277D01*
X-9715340Y19098400D01*
X-10503060Y19098400D01*
X-10562730Y19104277D01*
X-10614210Y19119893D01*
X-10661645Y19145248D01*
X-10703227Y19179373D01*
X-10737352Y19220955D01*
X-10762707Y19268390D01*
X-10778323Y19319870D01*
X-10784200Y19379540D01*
X-10784200Y20267260D01*
X-10778323Y20326930D01*
X-10762707Y20378410D01*
X-10737352Y20425845D01*
X-10703227Y20467427D01*
X-10661645Y20501552D01*
X-10614210Y20526907D01*
X-10562730Y20542523D01*
X-10503060Y20548400D01*
X-9715340Y20548400D01*
X-9655670Y20542523D01*
X-9655670Y20542523D01*
G37*
G36*
X9887530Y20455723D02*
G01*
X9939010Y20440107D01*
X9986445Y20414752D01*
X10028027Y20380627D01*
X10062152Y20339045D01*
X10087507Y20291610D01*
X10103123Y20240130D01*
X10109000Y20180460D01*
X10109000Y19392740D01*
X10103123Y19333070D01*
X10087507Y19281590D01*
X10062152Y19234155D01*
X10028027Y19192573D01*
X9986445Y19158448D01*
X9939010Y19133093D01*
X9887530Y19117477D01*
X9827860Y19111600D01*
X8940140Y19111600D01*
X8880470Y19117477D01*
X8828990Y19133093D01*
X8781555Y19158448D01*
X8739973Y19192573D01*
X8705848Y19234155D01*
X8680493Y19281590D01*
X8664877Y19333070D01*
X8659000Y19392740D01*
X8659000Y20180460D01*
X8664877Y20240130D01*
X8680493Y20291610D01*
X8705848Y20339045D01*
X8739973Y20380627D01*
X8781555Y20414752D01*
X8828990Y20440107D01*
X8880470Y20455723D01*
X8940140Y20461600D01*
X9827860Y20461600D01*
X9887530Y20455723D01*
X9887530Y20455723D01*
G37*
G36*
X8137530Y20455723D02*
G01*
X8189010Y20440107D01*
X8236445Y20414752D01*
X8278027Y20380627D01*
X8312152Y20339045D01*
X8337507Y20291610D01*
X8353123Y20240130D01*
X8359000Y20180460D01*
X8359000Y19392740D01*
X8353123Y19333070D01*
X8337507Y19281590D01*
X8312152Y19234155D01*
X8278027Y19192573D01*
X8236445Y19158448D01*
X8189010Y19133093D01*
X8137530Y19117477D01*
X8077860Y19111600D01*
X7190140Y19111600D01*
X7130470Y19117477D01*
X7078990Y19133093D01*
X7031555Y19158448D01*
X6989973Y19192573D01*
X6955848Y19234155D01*
X6930493Y19281590D01*
X6914877Y19333070D01*
X6909000Y19392740D01*
X6909000Y20180460D01*
X6914877Y20240130D01*
X6930493Y20291610D01*
X6955848Y20339045D01*
X6989973Y20380627D01*
X7031555Y20414752D01*
X7078990Y20440107D01*
X7130470Y20455723D01*
X7190140Y20461600D01*
X8077860Y20461600D01*
X8137530Y20455723D01*
X8137530Y20455723D01*
G37*
G36*
X6209022Y20393283D02*
G01*
X6256985Y20378734D01*
X6301178Y20355112D01*
X6339919Y20323319D01*
X6371712Y20284578D01*
X6395334Y20240385D01*
X6409883Y20192422D01*
X6415400Y20136409D01*
X6415400Y19386191D01*
X6409883Y19330178D01*
X6395334Y19282215D01*
X6371712Y19238022D01*
X6339919Y19199281D01*
X6301178Y19167488D01*
X6256985Y19143866D01*
X6209022Y19129317D01*
X6153009Y19123800D01*
X5327791Y19123800D01*
X5271778Y19129317D01*
X5223815Y19143866D01*
X5179622Y19167488D01*
X5140881Y19199281D01*
X5109088Y19238022D01*
X5085466Y19282215D01*
X5070917Y19330178D01*
X5065400Y19386191D01*
X5065400Y20136409D01*
X5070917Y20192422D01*
X5085466Y20240385D01*
X5109088Y20284578D01*
X5140881Y20323319D01*
X5179622Y20355112D01*
X5223815Y20378734D01*
X5271778Y20393283D01*
X5327791Y20398800D01*
X6153009Y20398800D01*
X6209022Y20393283D01*
X6209022Y20393283D01*
G37*
G36*
X-5246378Y20393283D02*
G01*
X-5198415Y20378734D01*
X-5154222Y20355112D01*
X-5115481Y20323319D01*
X-5083688Y20284578D01*
X-5060066Y20240385D01*
X-5045517Y20192422D01*
X-5040000Y20136409D01*
X-5040000Y19386191D01*
X-5045517Y19330178D01*
X-5060066Y19282215D01*
X-5083688Y19238022D01*
X-5115481Y19199281D01*
X-5154222Y19167488D01*
X-5198415Y19143866D01*
X-5246378Y19129317D01*
X-5302391Y19123800D01*
X-6127609Y19123800D01*
X-6183622Y19129317D01*
X-6231585Y19143866D01*
X-6275778Y19167488D01*
X-6314519Y19199281D01*
X-6346312Y19238022D01*
X-6369934Y19282215D01*
X-6384483Y19330178D01*
X-6390000Y19386191D01*
X-6390000Y20136409D01*
X-6384483Y20192422D01*
X-6369934Y20240385D01*
X-6346312Y20284578D01*
X-6314519Y20323319D01*
X-6275778Y20355112D01*
X-6231585Y20378734D01*
X-6183622Y20393283D01*
X-6127609Y20398800D01*
X-5302391Y20398800D01*
X-5246378Y20393283D01*
X-5246378Y20393283D01*
G37*
G36*
X-6976400Y19721400D02*
G01*
X-9076400Y19721400D01*
X-9076400Y21421400D01*
X-6976400Y21421400D01*
X-6976400Y19721400D01*
X-6976400Y19721400D01*
G37*
M02*
