G04 #@! TF.GenerationSoftware,KiCad,Pcbnew,(5.1.0)-1*
G04 #@! TF.CreationDate,2019-06-21T14:44:27-03:00*
G04 #@! TF.ProjectId,PCB_D,5043425f-442e-46b6-9963-61645f706362,rev?*
G04 #@! TF.SameCoordinates,Original*
G04 #@! TF.FileFunction,Copper,L2,Bot*
G04 #@! TF.FilePolarity,Positive*
%FSLAX46Y46*%
G04 Gerber Fmt 4.6, Leading zero omitted, Abs format (unit mm)*
G04 Created by KiCad (PCBNEW (5.1.0)-1) date 2019-06-21 14:44:27*
%MOMM*%
%LPD*%
G04 APERTURE LIST*
%ADD10C,2.000000*%
%ADD11C,1.700000*%
%ADD12C,1.700000*%
%ADD13C,0.100000*%
%ADD14C,6.200000*%
%ADD15C,6.300000*%
%ADD16R,1.700000X1.700000*%
%ADD17O,1.700000X1.700000*%
%ADD18C,0.800000*%
%ADD19C,0.600000*%
%ADD20C,0.500000*%
%ADD21C,0.400000*%
%ADD22C,0.300000*%
%ADD23C,0.200000*%
G04 APERTURE END LIST*
D10*
X-5454019Y4350381D03*
X-8636000Y1168400D03*
X-10050214Y8946575D03*
X-13232194Y5764594D03*
D11*
X-7096051Y-9203949D03*
D12*
X-7096051Y-9203949D02*
X-7096051Y-9203949D01*
D11*
X-5300000Y-11000000D03*
D12*
X-5300000Y-11000000D02*
X-5300000Y-11000000D01*
D11*
X-3503949Y-12796051D03*
D13*
G36*
X-3503949Y-11593969D02*
G01*
X-2301867Y-12796051D01*
X-3503949Y-13998133D01*
X-4706031Y-12796051D01*
X-3503949Y-11593969D01*
X-3503949Y-11593969D01*
G37*
D11*
X-8211846Y-14696051D03*
D12*
X-8211846Y-14696051D02*
X-8211846Y-14696051D01*
D11*
X-10007898Y-16492102D03*
D12*
X-10007898Y-16492102D02*
X-10007898Y-16492102D01*
D11*
X-10007898Y-12900000D03*
D12*
X-10007898Y-12900000D02*
X-10007898Y-12900000D01*
D11*
X-11803949Y-14696051D03*
D12*
X-11803949Y-14696051D02*
X-11803949Y-14696051D01*
D11*
X-11803949Y-11103949D03*
D12*
X-11803949Y-11103949D02*
X-11803949Y-11103949D01*
D11*
X-13600000Y-12900000D03*
D13*
G36*
X-13600000Y-14102082D02*
G01*
X-14802082Y-12900000D01*
X-13600000Y-11697918D01*
X-12397918Y-12900000D01*
X-13600000Y-14102082D01*
X-13600000Y-14102082D01*
G37*
D11*
X18100000Y-7620000D03*
X18100000Y-5080000D03*
X18100000Y-2540000D03*
X18100000Y0D03*
X18100000Y2540000D03*
X18100000Y5080000D03*
X20800000Y-6350000D03*
X20800000Y-3810000D03*
X20800000Y-1270000D03*
X20800000Y1270000D03*
X20800000Y3810000D03*
X20800000Y6350000D03*
X-18100000Y-7620000D03*
X-18100000Y-5080000D03*
X-18100000Y-2540000D03*
X-18100000Y0D03*
X-18100000Y2540000D03*
X-18100000Y5080000D03*
X-20800000Y-6350000D03*
X-20800000Y-3810000D03*
X-20800000Y-1270000D03*
X-20800000Y1270000D03*
X-20800000Y3810000D03*
X-20800000Y6350000D03*
D14*
X0Y-20200000D03*
D15*
X-12500000Y13500000D03*
D14*
X12500000Y13500000D03*
D16*
X19250000Y9000000D03*
D17*
X16710000Y9000000D03*
X14170000Y9000000D03*
D18*
X-11800000Y-8300000D03*
X-7600000Y-7000000D03*
X-15000000Y470000D03*
X-13700000Y-3300000D03*
X6553200Y2286000D03*
X6146800Y5435600D03*
X-8661400Y6553200D03*
X-10020300Y5194300D03*
X-14980000Y6480000D03*
X5100000Y3800000D03*
X-16700000Y-10600000D03*
X-4100000Y-20200000D03*
X1665686Y-3700000D03*
X-1420000Y-6785686D03*
X-16020000Y-7700000D03*
X-3200000Y12480000D03*
X640000Y11310000D03*
X1625600Y15494000D03*
X8015036Y-812800D03*
X-5181600Y21310600D03*
X4622800Y21412200D03*
X4953000Y22326600D03*
X-4927600Y22250400D03*
X-1295400Y17449800D03*
X-5943600Y21767800D03*
X5638800Y21513800D03*
X-2463800Y17602200D03*
X4038600Y19354800D03*
X4089400Y18364200D03*
X-4038600Y19812000D03*
X2489200Y17703800D03*
X-16300000Y8600000D03*
X1100000Y-5400000D03*
X-4000000Y-400000D03*
X7700000Y-14600000D03*
X7700000Y-11199955D03*
X-3048000Y2895600D03*
X-1371600Y4572004D03*
X-8702404Y-2540000D03*
X-10210800Y355600D03*
X-8991600Y-609600D03*
X-6502400Y-2387600D03*
X-7199989Y-3900000D03*
X-11430000Y-2895600D03*
X-15520000Y7450000D03*
X-15900000Y1270000D03*
X6300000Y-11200000D03*
X6300000Y-15500006D03*
X4900000Y-11200000D03*
X4900000Y-16300000D03*
X10500000Y-8299999D03*
X7700000Y-8300000D03*
X19100000Y7300000D03*
X19800000Y5100000D03*
X12090400Y5638800D03*
X10871200Y9245604D03*
X-5900000Y11500000D03*
X-7100000Y12700000D03*
X-2000000Y16400000D03*
X-7100000Y15302800D03*
X-64086Y13818086D03*
X1828800Y14376400D03*
X14274800Y4673600D03*
X9753598Y9245600D03*
X9372600Y18262600D03*
X7797800Y17297400D03*
X-2747850Y13965350D03*
X-9067800Y15544800D03*
X13100001Y-8800000D03*
X13665200Y-5079998D03*
X14500000Y-2500000D03*
X14450000Y-8800000D03*
X15800000Y0D03*
X15800000Y-8800000D03*
X15800000Y2500000D03*
X15750000Y6750008D03*
X14500000Y0D03*
X11931107Y2546893D03*
X7300002Y-3800000D03*
X13665200Y-3759200D03*
X14500000Y-1300000D03*
X8128000Y-2641600D03*
X8300000Y-7300000D03*
X12192000Y-7264400D03*
X3098800Y7162800D03*
X4216400Y6045200D03*
D19*
X-13700000Y-3300000D02*
X-13700000Y-6100000D01*
X-13700000Y-6100000D02*
X-12800000Y-7000000D01*
X-11800000Y-7100000D02*
X-11800000Y-8300000D01*
X-11700000Y-7000000D02*
X-11800000Y-7100000D01*
X-11700000Y-7000000D02*
X-7600000Y-7000000D01*
X-12800000Y-7000000D02*
X-11700000Y-7000000D01*
D20*
X6604000Y4978400D02*
X6146800Y5435600D01*
X6553200Y2286000D02*
X6604000Y2336800D01*
X6604000Y2336800D02*
X6604000Y4978400D01*
X-8661400Y6553200D02*
X-10020300Y5194300D01*
D19*
X-15000000Y470000D02*
X-15000000Y6460000D01*
X-15000000Y6460000D02*
X-14980000Y6480000D01*
D21*
X-3999994Y-400000D02*
X-4000000Y-400000D01*
X7700000Y-14600000D02*
X7700000Y-11199955D01*
X1000000Y-5400000D02*
X1100000Y-5400000D01*
X-4000000Y-400000D02*
X1000000Y-5400000D01*
D20*
X-3048000Y2895600D02*
X-1371600Y4572000D01*
X-1371600Y4572000D02*
X-1371600Y4572004D01*
D21*
X-10210800Y-210085D02*
X-10210800Y355600D01*
X-10210800Y-1031604D02*
X-10210800Y-210085D01*
X-8702404Y-2540000D02*
X-10210800Y-1031604D01*
X-8991600Y-609600D02*
X-8280400Y-609600D01*
X-8280400Y-609600D02*
X-6902399Y-1987601D01*
X-6902399Y-1987601D02*
X-6502400Y-2387600D01*
X-7199989Y-3900000D02*
X-10425600Y-3900000D01*
X-10425600Y-3900000D02*
X-11030001Y-3295599D01*
X-11030001Y-3295599D02*
X-11430000Y-2895600D01*
X-15919999Y1289999D02*
X-15900000Y1270000D01*
X-15520000Y7450000D02*
X-15919999Y7050001D01*
X-15919999Y7050001D02*
X-15919999Y1289999D01*
X6300000Y-11200000D02*
X6300000Y-15500006D01*
X4900000Y-11200000D02*
X4900000Y-16300000D01*
X10500000Y-8299999D02*
X7700001Y-8299999D01*
X7700001Y-8299999D02*
X7700000Y-8300000D01*
X19499999Y5400001D02*
X19800000Y5100000D01*
X19100000Y7300000D02*
X19499999Y6900001D01*
X19499999Y6900001D02*
X19499999Y5400001D01*
X10871200Y8679919D02*
X10871200Y9245604D01*
X10871200Y6858000D02*
X10871200Y8679919D01*
X12090400Y5638800D02*
X10871200Y6858000D01*
X-5900000Y11500000D02*
X-7100000Y12700000D01*
X-6002800Y16400000D02*
X-2000000Y16400000D01*
X-7100000Y15302800D02*
X-6002800Y16400000D01*
D22*
X-64086Y13818086D02*
X1270486Y13818086D01*
X1270486Y13818086D02*
X1828800Y14376400D01*
D21*
X11582400Y4673600D02*
X9753598Y6502402D01*
X9753598Y6502402D02*
X9753598Y8679915D01*
X9753598Y8679915D02*
X9753598Y9245600D01*
X14274800Y4673600D02*
X11582400Y4673600D01*
X9372600Y18262600D02*
X8763000Y18262600D01*
X8763000Y18262600D02*
X7797800Y17297400D01*
X-2747850Y13965350D02*
X-7488350Y13965350D01*
X-7488350Y13965350D02*
X-9067800Y15544800D01*
X13100001Y-8800001D02*
X13665200Y-8234802D01*
X13665200Y-8234802D02*
X13665200Y-5645683D01*
X13665200Y-5645683D02*
X13665200Y-5079998D01*
X14500000Y-2500000D02*
X14500000Y-8800000D01*
X15800000Y0D02*
X15800000Y-8900000D01*
X15800000Y2500000D02*
X15800000Y6700008D01*
X15800000Y6700008D02*
X15750000Y6750008D01*
X11953107Y2546893D02*
X11931107Y2546893D01*
X14500000Y0D02*
X11953107Y2546893D01*
X13624400Y-3800000D02*
X13665200Y-3759200D01*
X7300002Y-3800000D02*
X13624400Y-3800000D01*
X13158400Y-2641600D02*
X14500000Y-1300000D01*
X8128000Y-2641600D02*
X13158400Y-2641600D01*
X12156400Y-7300000D02*
X12192000Y-7264400D01*
X8300000Y-7300000D02*
X12156400Y-7300000D01*
X3098800Y7162800D02*
X4216400Y6045200D01*
D23*
G36*
X2169197Y22947703D02*
G01*
X4042203Y22692798D01*
X5888025Y22285279D01*
X7694248Y21727886D01*
X9448726Y21024369D01*
X11139659Y20179457D01*
X12755675Y19198835D01*
X14285907Y18089095D01*
X15720062Y16857703D01*
X17048497Y15512938D01*
X18262276Y14063846D01*
X19353238Y12520171D01*
X20314045Y10892295D01*
X21138235Y9191166D01*
X21820265Y7428224D01*
X22355550Y5615326D01*
X22740488Y3764663D01*
X22972492Y1888683D01*
X23050000Y0D01*
X23022481Y-1125987D01*
X22852804Y-3008629D01*
X22529436Y-4871037D01*
X22054553Y-6700686D01*
X21431348Y-8485271D01*
X20664012Y-10212791D01*
X19757706Y-11871628D01*
X18718525Y-13450625D01*
X17553458Y-14939164D01*
X16270340Y-16327233D01*
X14877800Y-17605498D01*
X13385203Y-18765363D01*
X11802588Y-19799026D01*
X10140598Y-20699536D01*
X8410410Y-21460837D01*
X6623660Y-22077809D01*
X4792364Y-22546302D01*
X2928839Y-22863167D01*
X1045617Y-23026272D01*
X-844637Y-23034519D01*
X-2729211Y-22887855D01*
X-4595431Y-22587264D01*
X-6430745Y-22134769D01*
X-8222811Y-21533413D01*
X-9959577Y-20787240D01*
X-11629362Y-19901267D01*
X-13220937Y-18881455D01*
X-14723598Y-17734660D01*
X-16101178Y-16492102D01*
X-11213704Y-16492102D01*
X-11190535Y-16727343D01*
X-11121917Y-16953544D01*
X-11010489Y-17162012D01*
X-10860532Y-17344736D01*
X-10677808Y-17494693D01*
X-10469340Y-17606121D01*
X-10243139Y-17674739D01*
X-10066848Y-17692102D01*
X-9948948Y-17692102D01*
X-9772657Y-17674739D01*
X-9546456Y-17606121D01*
X-9337988Y-17494693D01*
X-9155264Y-17344736D01*
X-9005307Y-17162012D01*
X-8893879Y-16953544D01*
X-8825261Y-16727343D01*
X-8802092Y-16492102D01*
X-8825261Y-16256861D01*
X-8893879Y-16030660D01*
X-9005307Y-15822192D01*
X-9155264Y-15639468D01*
X-9189572Y-15611312D01*
X-8844265Y-15611312D01*
X-8745520Y-15770850D01*
X-8594482Y-15833422D01*
X-8365239Y-15886216D01*
X-8130102Y-15893273D01*
X-7898106Y-15854321D01*
X-7678167Y-15770858D01*
X-7578473Y-15612267D01*
X-8211846Y-14978894D01*
X-8844265Y-15611312D01*
X-9189572Y-15611312D01*
X-9337988Y-15489511D01*
X-9546456Y-15378083D01*
X-9772657Y-15309465D01*
X-9948948Y-15292102D01*
X-10066848Y-15292102D01*
X-10243139Y-15309465D01*
X-10469340Y-15378083D01*
X-10677808Y-15489511D01*
X-10860532Y-15639468D01*
X-11010489Y-15822192D01*
X-11121917Y-16030660D01*
X-11190535Y-16256861D01*
X-11213704Y-16492102D01*
X-16101178Y-16492102D01*
X-16127240Y-16468595D01*
X-17422422Y-15091776D01*
X-17737760Y-14696051D01*
X-13009755Y-14696051D01*
X-12986586Y-14931292D01*
X-12917968Y-15157493D01*
X-12806540Y-15365961D01*
X-12656583Y-15548685D01*
X-12473859Y-15698642D01*
X-12265391Y-15810070D01*
X-12039190Y-15878688D01*
X-11862899Y-15896051D01*
X-11744999Y-15896051D01*
X-11568708Y-15878688D01*
X-11342507Y-15810070D01*
X-11134039Y-15698642D01*
X-10951315Y-15548685D01*
X-10801358Y-15365961D01*
X-10689930Y-15157493D01*
X-10621312Y-14931292D01*
X-10598143Y-14696051D01*
X-10606194Y-14614307D01*
X-9409068Y-14614307D01*
X-9402011Y-14849444D01*
X-9349217Y-15078687D01*
X-9286645Y-15229725D01*
X-9127107Y-15328470D01*
X-8494689Y-14696051D01*
X-7929003Y-14696051D01*
X-7295630Y-15329424D01*
X-7137039Y-15229730D01*
X-7053576Y-15009791D01*
X-7014624Y-14777795D01*
X-7021681Y-14542658D01*
X-7074475Y-14313415D01*
X-7137047Y-14162377D01*
X-7296585Y-14063632D01*
X-7929003Y-14696051D01*
X-8494689Y-14696051D01*
X-9128062Y-14062678D01*
X-9286653Y-14162372D01*
X-9370116Y-14382311D01*
X-9409068Y-14614307D01*
X-10606194Y-14614307D01*
X-10621312Y-14460810D01*
X-10689930Y-14234609D01*
X-10801358Y-14026141D01*
X-10951315Y-13843417D01*
X-11134039Y-13693460D01*
X-11342507Y-13582032D01*
X-11568708Y-13513414D01*
X-11744999Y-13496051D01*
X-11862899Y-13496051D01*
X-12039190Y-13513414D01*
X-12265391Y-13582032D01*
X-12473859Y-13693460D01*
X-12656583Y-13843417D01*
X-12806540Y-14026141D01*
X-12917968Y-14234609D01*
X-12986586Y-14460810D01*
X-13009755Y-14696051D01*
X-17737760Y-14696051D01*
X-18600435Y-13613461D01*
X-19078957Y-12900000D01*
X-15153775Y-12900000D01*
X-15147017Y-12968612D01*
X-15127004Y-13034587D01*
X-15094504Y-13095390D01*
X-15050767Y-13148685D01*
X-13848685Y-14350767D01*
X-13795390Y-14394504D01*
X-13734587Y-14427004D01*
X-13668612Y-14447017D01*
X-13600000Y-14453775D01*
X-13531388Y-14447017D01*
X-13465413Y-14427004D01*
X-13404610Y-14394504D01*
X-13351315Y-14350767D01*
X-12149233Y-13148685D01*
X-12105496Y-13095390D01*
X-12072996Y-13034587D01*
X-12052983Y-12968612D01*
X-12046225Y-12900000D01*
X-11213704Y-12900000D01*
X-11190535Y-13135241D01*
X-11121917Y-13361442D01*
X-11010489Y-13569910D01*
X-10860532Y-13752634D01*
X-10677808Y-13902591D01*
X-10469340Y-14014019D01*
X-10243139Y-14082637D01*
X-10066848Y-14100000D01*
X-9948948Y-14100000D01*
X-9772657Y-14082637D01*
X-9546456Y-14014019D01*
X-9337988Y-13902591D01*
X-9188409Y-13779835D01*
X-8845219Y-13779835D01*
X-8211846Y-14413208D01*
X-7579427Y-13780790D01*
X-7614496Y-13724129D01*
X-4149184Y-13724129D01*
X-4149184Y-13847872D01*
X-3752634Y-14246818D01*
X-3699340Y-14290555D01*
X-3638537Y-14323055D01*
X-3572561Y-14343069D01*
X-3503949Y-14349826D01*
X-3435337Y-14343069D01*
X-3369361Y-14323055D01*
X-3308558Y-14290555D01*
X-3255264Y-14246818D01*
X-2858714Y-13847872D01*
X-2858714Y-13724129D01*
X-3503949Y-13078894D01*
X-4149184Y-13724129D01*
X-7614496Y-13724129D01*
X-7678172Y-13621252D01*
X-7829210Y-13558680D01*
X-8058453Y-13505886D01*
X-8293590Y-13498829D01*
X-8525586Y-13537781D01*
X-8745525Y-13621244D01*
X-8845219Y-13779835D01*
X-9188409Y-13779835D01*
X-9155264Y-13752634D01*
X-9005307Y-13569910D01*
X-8893879Y-13361442D01*
X-8825261Y-13135241D01*
X-8802092Y-12900000D01*
X-8812329Y-12796051D01*
X-5057724Y-12796051D01*
X-5050967Y-12864663D01*
X-5030953Y-12930639D01*
X-4998453Y-12991442D01*
X-4954716Y-13044736D01*
X-4555770Y-13441286D01*
X-4432027Y-13441286D01*
X-3786792Y-12796051D01*
X-3221106Y-12796051D01*
X-2575871Y-13441286D01*
X-2452128Y-13441286D01*
X-2053182Y-13044736D01*
X-2009445Y-12991442D01*
X-1976945Y-12930639D01*
X-1956931Y-12864663D01*
X-1950174Y-12796051D01*
X-1956931Y-12727439D01*
X-1976945Y-12661463D01*
X-2009445Y-12600660D01*
X-2053182Y-12547366D01*
X-2452128Y-12150816D01*
X-2575871Y-12150816D01*
X-3221106Y-12796051D01*
X-3786792Y-12796051D01*
X-4432027Y-12150816D01*
X-4555770Y-12150816D01*
X-4954716Y-12547366D01*
X-4998453Y-12600660D01*
X-5030953Y-12661463D01*
X-5050967Y-12727439D01*
X-5057724Y-12796051D01*
X-8812329Y-12796051D01*
X-8825261Y-12664759D01*
X-8893879Y-12438558D01*
X-9005307Y-12230090D01*
X-9155264Y-12047366D01*
X-9337988Y-11897409D01*
X-9546456Y-11785981D01*
X-9772657Y-11717363D01*
X-9948948Y-11700000D01*
X-10066848Y-11700000D01*
X-10243139Y-11717363D01*
X-10469340Y-11785981D01*
X-10677808Y-11897409D01*
X-10860532Y-12047366D01*
X-11010489Y-12230090D01*
X-11121917Y-12438558D01*
X-11190535Y-12664759D01*
X-11213704Y-12900000D01*
X-12046225Y-12900000D01*
X-12052983Y-12831388D01*
X-12072996Y-12765413D01*
X-12105496Y-12704610D01*
X-12149233Y-12651315D01*
X-13351315Y-11449233D01*
X-13404610Y-11405496D01*
X-13465413Y-11372996D01*
X-13531388Y-11352983D01*
X-13600000Y-11346225D01*
X-13668612Y-11352983D01*
X-13734587Y-11372996D01*
X-13795390Y-11405496D01*
X-13848685Y-11449233D01*
X-15050767Y-12651315D01*
X-15094504Y-12704610D01*
X-15127004Y-12765413D01*
X-15147017Y-12831388D01*
X-15153775Y-12900000D01*
X-19078957Y-12900000D01*
X-19653356Y-12043592D01*
X-20177428Y-11103949D01*
X-13009755Y-11103949D01*
X-12986586Y-11339190D01*
X-12917968Y-11565391D01*
X-12806540Y-11773859D01*
X-12656583Y-11956583D01*
X-12473859Y-12106540D01*
X-12265391Y-12217968D01*
X-12039190Y-12286586D01*
X-11862899Y-12303949D01*
X-11744999Y-12303949D01*
X-11568708Y-12286586D01*
X-11342507Y-12217968D01*
X-11134039Y-12106540D01*
X-10951315Y-11956583D01*
X-10801358Y-11773859D01*
X-10689930Y-11565391D01*
X-10621312Y-11339190D01*
X-10598143Y-11103949D01*
X-10608380Y-11000000D01*
X-6505806Y-11000000D01*
X-6482637Y-11235241D01*
X-6414019Y-11461442D01*
X-6302591Y-11669910D01*
X-6152634Y-11852634D01*
X-5969910Y-12002591D01*
X-5761442Y-12114019D01*
X-5535241Y-12182637D01*
X-5358950Y-12200000D01*
X-5241050Y-12200000D01*
X-5064759Y-12182637D01*
X-4838558Y-12114019D01*
X-4630090Y-12002591D01*
X-4447366Y-11852634D01*
X-4358402Y-11744230D01*
X-4149184Y-11744230D01*
X-4149184Y-11867973D01*
X-3503949Y-12513208D01*
X-2858714Y-11867973D01*
X-2858714Y-11744230D01*
X-3255264Y-11345284D01*
X-3308558Y-11301547D01*
X-3369361Y-11269047D01*
X-3435337Y-11249033D01*
X-3503949Y-11242276D01*
X-3572561Y-11249033D01*
X-3638537Y-11269047D01*
X-3699340Y-11301547D01*
X-3752634Y-11345284D01*
X-4149184Y-11744230D01*
X-4358402Y-11744230D01*
X-4297409Y-11669910D01*
X-4185981Y-11461442D01*
X-4117363Y-11235241D01*
X-4106617Y-11126131D01*
X4150000Y-11126131D01*
X4150000Y-11273869D01*
X4178822Y-11418767D01*
X4235359Y-11555258D01*
X4317437Y-11678097D01*
X4350000Y-11710660D01*
X4350001Y-15789339D01*
X4317437Y-15821903D01*
X4235359Y-15944742D01*
X4178822Y-16081233D01*
X4150000Y-16226131D01*
X4150000Y-16373869D01*
X4178822Y-16518767D01*
X4235359Y-16655258D01*
X4317437Y-16778097D01*
X4421903Y-16882563D01*
X4544742Y-16964641D01*
X4681233Y-17021178D01*
X4826131Y-17050000D01*
X4973869Y-17050000D01*
X5118767Y-17021178D01*
X5255258Y-16964641D01*
X5378097Y-16882563D01*
X5482563Y-16778097D01*
X5564641Y-16655258D01*
X5621178Y-16518767D01*
X5650000Y-16373869D01*
X5650000Y-16226131D01*
X5621178Y-16081233D01*
X5564641Y-15944742D01*
X5482563Y-15821903D01*
X5450000Y-15789340D01*
X5450000Y-11710660D01*
X5482563Y-11678097D01*
X5564641Y-11555258D01*
X5600000Y-11469895D01*
X5635359Y-11555258D01*
X5717437Y-11678097D01*
X5750000Y-11710660D01*
X5750001Y-14989345D01*
X5717437Y-15021909D01*
X5635359Y-15144748D01*
X5578822Y-15281239D01*
X5550000Y-15426137D01*
X5550000Y-15573875D01*
X5578822Y-15718773D01*
X5635359Y-15855264D01*
X5717437Y-15978103D01*
X5821903Y-16082569D01*
X5944742Y-16164647D01*
X6081233Y-16221184D01*
X6226131Y-16250006D01*
X6373869Y-16250006D01*
X6518767Y-16221184D01*
X6655258Y-16164647D01*
X6778097Y-16082569D01*
X6882563Y-15978103D01*
X6964641Y-15855264D01*
X7021178Y-15718773D01*
X7050000Y-15573875D01*
X7050000Y-15426137D01*
X7021178Y-15281239D01*
X6964641Y-15144748D01*
X6882563Y-15021909D01*
X6850000Y-14989346D01*
X6850000Y-11710660D01*
X6882563Y-11678097D01*
X6964641Y-11555258D01*
X7000009Y-11469872D01*
X7035359Y-11555213D01*
X7117437Y-11678052D01*
X7150001Y-11710616D01*
X7150000Y-14089340D01*
X7117437Y-14121903D01*
X7035359Y-14244742D01*
X6978822Y-14381233D01*
X6950000Y-14526131D01*
X6950000Y-14673869D01*
X6978822Y-14818767D01*
X7035359Y-14955258D01*
X7117437Y-15078097D01*
X7221903Y-15182563D01*
X7344742Y-15264641D01*
X7481233Y-15321178D01*
X7626131Y-15350000D01*
X7773869Y-15350000D01*
X7918767Y-15321178D01*
X8055258Y-15264641D01*
X8178097Y-15182563D01*
X8282563Y-15078097D01*
X8364641Y-14955258D01*
X8421178Y-14818767D01*
X8450000Y-14673869D01*
X8450000Y-14526131D01*
X8421178Y-14381233D01*
X8364641Y-14244742D01*
X8282563Y-14121903D01*
X8250000Y-14089340D01*
X8250000Y-11710615D01*
X8282563Y-11678052D01*
X8364641Y-11555213D01*
X8421178Y-11418722D01*
X8450000Y-11273824D01*
X8450000Y-11126086D01*
X8421178Y-10981188D01*
X8364641Y-10844697D01*
X8282563Y-10721858D01*
X8178097Y-10617392D01*
X8055258Y-10535314D01*
X7918767Y-10478777D01*
X7773869Y-10449955D01*
X7626131Y-10449955D01*
X7481233Y-10478777D01*
X7344742Y-10535314D01*
X7221903Y-10617392D01*
X7117437Y-10721858D01*
X7035359Y-10844697D01*
X6999991Y-10930083D01*
X6964641Y-10844742D01*
X6882563Y-10721903D01*
X6778097Y-10617437D01*
X6655258Y-10535359D01*
X6518767Y-10478822D01*
X6373869Y-10450000D01*
X6226131Y-10450000D01*
X6081233Y-10478822D01*
X5944742Y-10535359D01*
X5821903Y-10617437D01*
X5717437Y-10721903D01*
X5635359Y-10844742D01*
X5600000Y-10930105D01*
X5564641Y-10844742D01*
X5482563Y-10721903D01*
X5378097Y-10617437D01*
X5255258Y-10535359D01*
X5118767Y-10478822D01*
X4973869Y-10450000D01*
X4826131Y-10450000D01*
X4681233Y-10478822D01*
X4544742Y-10535359D01*
X4421903Y-10617437D01*
X4317437Y-10721903D01*
X4235359Y-10844742D01*
X4178822Y-10981233D01*
X4150000Y-11126131D01*
X-4106617Y-11126131D01*
X-4094194Y-11000000D01*
X-4117363Y-10764759D01*
X-4185981Y-10538558D01*
X-4297409Y-10330090D01*
X-4447366Y-10147366D01*
X-4630090Y-9997409D01*
X-4838558Y-9885981D01*
X-5064759Y-9817363D01*
X-5241050Y-9800000D01*
X-5358950Y-9800000D01*
X-5535241Y-9817363D01*
X-5761442Y-9885981D01*
X-5969910Y-9997409D01*
X-6152634Y-10147366D01*
X-6302591Y-10330090D01*
X-6414019Y-10538558D01*
X-6482637Y-10764759D01*
X-6505806Y-11000000D01*
X-10608380Y-11000000D01*
X-10621312Y-10868708D01*
X-10689930Y-10642507D01*
X-10801358Y-10434039D01*
X-10951315Y-10251315D01*
X-11134039Y-10101358D01*
X-11342507Y-9989930D01*
X-11568708Y-9921312D01*
X-11744999Y-9903949D01*
X-11862899Y-9903949D01*
X-12039190Y-9921312D01*
X-12265391Y-9989930D01*
X-12473859Y-10101358D01*
X-12656583Y-10251315D01*
X-12806540Y-10434039D01*
X-12917968Y-10642507D01*
X-12986586Y-10868708D01*
X-13009755Y-11103949D01*
X-20177428Y-11103949D01*
X-20574103Y-10392727D01*
X-21114608Y-9203949D01*
X-8301857Y-9203949D01*
X-8278688Y-9439190D01*
X-8210070Y-9665391D01*
X-8098642Y-9873859D01*
X-7948685Y-10056583D01*
X-7765961Y-10206540D01*
X-7557493Y-10317968D01*
X-7331292Y-10386586D01*
X-7155001Y-10403949D01*
X-7037101Y-10403949D01*
X-6860810Y-10386586D01*
X-6634609Y-10317968D01*
X-6426141Y-10206540D01*
X-6243417Y-10056583D01*
X-6093460Y-9873859D01*
X-5982032Y-9665391D01*
X-5913414Y-9439190D01*
X-5890245Y-9203949D01*
X-5913414Y-8968708D01*
X-5982032Y-8742507D01*
X-6093460Y-8534039D01*
X-6243417Y-8351315D01*
X-6395954Y-8226131D01*
X6950000Y-8226131D01*
X6950000Y-8373869D01*
X6978822Y-8518767D01*
X7035359Y-8655258D01*
X7117437Y-8778097D01*
X7221903Y-8882563D01*
X7344742Y-8964641D01*
X7481233Y-9021178D01*
X7626131Y-9050000D01*
X7773869Y-9050000D01*
X7918767Y-9021178D01*
X8055258Y-8964641D01*
X8178097Y-8882563D01*
X8210661Y-8849999D01*
X9989340Y-8849999D01*
X10021903Y-8882562D01*
X10144742Y-8964640D01*
X10281233Y-9021177D01*
X10426131Y-9049999D01*
X10573869Y-9049999D01*
X10718767Y-9021177D01*
X10855258Y-8964640D01*
X10978097Y-8882562D01*
X11082563Y-8778096D01*
X11164641Y-8655257D01*
X11221178Y-8518766D01*
X11250000Y-8373868D01*
X11250000Y-8226130D01*
X11221178Y-8081232D01*
X11164641Y-7944741D01*
X11101337Y-7850000D01*
X11718448Y-7850000D01*
X11836742Y-7929041D01*
X11973233Y-7985578D01*
X12118131Y-8014400D01*
X12265869Y-8014400D01*
X12410767Y-7985578D01*
X12547258Y-7929041D01*
X12670097Y-7846963D01*
X12774563Y-7742497D01*
X12856641Y-7619658D01*
X12913178Y-7483167D01*
X12942000Y-7338269D01*
X12942000Y-7190531D01*
X12913178Y-7045633D01*
X12856641Y-6909142D01*
X12774563Y-6786303D01*
X12670097Y-6681837D01*
X12547258Y-6599759D01*
X12410767Y-6543222D01*
X12265869Y-6514400D01*
X12118131Y-6514400D01*
X11973233Y-6543222D01*
X11836742Y-6599759D01*
X11713903Y-6681837D01*
X11645740Y-6750000D01*
X8810660Y-6750000D01*
X8778097Y-6717437D01*
X8655258Y-6635359D01*
X8518767Y-6578822D01*
X8373869Y-6550000D01*
X8226131Y-6550000D01*
X8081233Y-6578822D01*
X7944742Y-6635359D01*
X7821903Y-6717437D01*
X7717437Y-6821903D01*
X7635359Y-6944742D01*
X7578822Y-7081233D01*
X7550000Y-7226131D01*
X7550000Y-7373869D01*
X7578822Y-7518767D01*
X7594376Y-7556317D01*
X7481233Y-7578822D01*
X7344742Y-7635359D01*
X7221903Y-7717437D01*
X7117437Y-7821903D01*
X7035359Y-7944742D01*
X6978822Y-8081233D01*
X6950000Y-8226131D01*
X-6395954Y-8226131D01*
X-6426141Y-8201358D01*
X-6634609Y-8089930D01*
X-6860810Y-8021312D01*
X-7037101Y-8003949D01*
X-7155001Y-8003949D01*
X-7331292Y-8021312D01*
X-7557493Y-8089930D01*
X-7765961Y-8201358D01*
X-7948685Y-8351315D01*
X-8098642Y-8534039D01*
X-8210070Y-8742507D01*
X-8278688Y-8968708D01*
X-8301857Y-9203949D01*
X-21114608Y-9203949D01*
X-21356485Y-8671969D01*
X-21404069Y-8539434D01*
X-18736591Y-8539434D01*
X-18637134Y-8699563D01*
X-18416200Y-8783609D01*
X-18183115Y-8822938D01*
X-17946836Y-8816039D01*
X-17716444Y-8763177D01*
X-17562866Y-8699563D01*
X-17463409Y-8539434D01*
X-18100000Y-7902843D01*
X-18736591Y-8539434D01*
X-21404069Y-8539434D01*
X-21995240Y-6892890D01*
X-22172994Y-6231810D01*
X-22000000Y-6231810D01*
X-22000000Y-6468190D01*
X-21953884Y-6700027D01*
X-21863426Y-6918413D01*
X-21732101Y-7114955D01*
X-21564955Y-7282101D01*
X-21368413Y-7413426D01*
X-21150027Y-7503884D01*
X-20918190Y-7550000D01*
X-20681810Y-7550000D01*
X-20615878Y-7536885D01*
X-19302938Y-7536885D01*
X-19296039Y-7773164D01*
X-19243177Y-8003556D01*
X-19179563Y-8157134D01*
X-19019434Y-8256591D01*
X-18382843Y-7620000D01*
X-17817157Y-7620000D01*
X-17180566Y-8256591D01*
X-17020437Y-8157134D01*
X-16936391Y-7936200D01*
X-16897062Y-7703115D01*
X-16903961Y-7466836D01*
X-16956823Y-7236444D01*
X-17020437Y-7082866D01*
X-17180566Y-6983409D01*
X-17817157Y-7620000D01*
X-18382843Y-7620000D01*
X-19019434Y-6983409D01*
X-19179563Y-7082866D01*
X-19263609Y-7303800D01*
X-19302938Y-7536885D01*
X-20615878Y-7536885D01*
X-20449973Y-7503884D01*
X-20231587Y-7413426D01*
X-20035045Y-7282101D01*
X-19867899Y-7114955D01*
X-19736574Y-6918413D01*
X-19646340Y-6700566D01*
X-18736591Y-6700566D01*
X-18100000Y-7337157D01*
X-17463409Y-6700566D01*
X-17562866Y-6540437D01*
X-17783800Y-6456391D01*
X-18016885Y-6417062D01*
X-18253164Y-6423961D01*
X-18483556Y-6476823D01*
X-18637134Y-6540437D01*
X-18736591Y-6700566D01*
X-19646340Y-6700566D01*
X-19646116Y-6700027D01*
X-19600000Y-6468190D01*
X-19600000Y-6231810D01*
X-19646116Y-5999973D01*
X-19646339Y-5999434D01*
X-18736591Y-5999434D01*
X-18637134Y-6159563D01*
X-18416200Y-6243609D01*
X-18183115Y-6282938D01*
X-17946836Y-6276039D01*
X-17716444Y-6223177D01*
X-17562866Y-6159563D01*
X-17463409Y-5999434D01*
X-18100000Y-5362843D01*
X-18736591Y-5999434D01*
X-19646339Y-5999434D01*
X-19736574Y-5781587D01*
X-19867899Y-5585045D01*
X-20035045Y-5417899D01*
X-20231587Y-5286574D01*
X-20449973Y-5196116D01*
X-20681810Y-5150000D01*
X-20918190Y-5150000D01*
X-21150027Y-5196116D01*
X-21368413Y-5286574D01*
X-21564955Y-5417899D01*
X-21732101Y-5585045D01*
X-21863426Y-5781587D01*
X-21953884Y-5999973D01*
X-22000000Y-6231810D01*
X-22172994Y-6231810D01*
X-22486071Y-5067455D01*
X-22737308Y-3691810D01*
X-22000000Y-3691810D01*
X-22000000Y-3928190D01*
X-21953884Y-4160027D01*
X-21863426Y-4378413D01*
X-21732101Y-4574955D01*
X-21564955Y-4742101D01*
X-21368413Y-4873426D01*
X-21150027Y-4963884D01*
X-20918190Y-5010000D01*
X-20681810Y-5010000D01*
X-20615878Y-4996885D01*
X-19302938Y-4996885D01*
X-19296039Y-5233164D01*
X-19243177Y-5463556D01*
X-19179563Y-5617134D01*
X-19019434Y-5716591D01*
X-18382843Y-5080000D01*
X-17817157Y-5080000D01*
X-17180566Y-5716591D01*
X-17020437Y-5617134D01*
X-16936391Y-5396200D01*
X-16897062Y-5163115D01*
X-16903961Y-4926836D01*
X-16956823Y-4696444D01*
X-17020437Y-4542866D01*
X-17180566Y-4443409D01*
X-17817157Y-5080000D01*
X-18382843Y-5080000D01*
X-19019434Y-4443409D01*
X-19179563Y-4542866D01*
X-19263609Y-4763800D01*
X-19302938Y-4996885D01*
X-20615878Y-4996885D01*
X-20449973Y-4963884D01*
X-20231587Y-4873426D01*
X-20035045Y-4742101D01*
X-19867899Y-4574955D01*
X-19736574Y-4378413D01*
X-19646340Y-4160566D01*
X-18736591Y-4160566D01*
X-18100000Y-4797157D01*
X-17463409Y-4160566D01*
X-17562866Y-4000437D01*
X-17783800Y-3916391D01*
X-18016885Y-3877062D01*
X-18253164Y-3883961D01*
X-18483556Y-3936823D01*
X-18637134Y-4000437D01*
X-18736591Y-4160566D01*
X-19646340Y-4160566D01*
X-19646116Y-4160027D01*
X-19600000Y-3928190D01*
X-19600000Y-3691810D01*
X-19646116Y-3459973D01*
X-19646339Y-3459434D01*
X-18736591Y-3459434D01*
X-18637134Y-3619563D01*
X-18416200Y-3703609D01*
X-18183115Y-3742938D01*
X-17946836Y-3736039D01*
X-17716444Y-3683177D01*
X-17562866Y-3619563D01*
X-17463409Y-3459434D01*
X-17696712Y-3226131D01*
X-14450000Y-3226131D01*
X-14450000Y-3373869D01*
X-14421178Y-3518767D01*
X-14364641Y-3655258D01*
X-14350000Y-3677170D01*
X-14349999Y-6068069D01*
X-14353144Y-6100000D01*
X-14340594Y-6227422D01*
X-14303427Y-6349947D01*
X-14243070Y-6462868D01*
X-14182198Y-6537040D01*
X-14182195Y-6537043D01*
X-14161842Y-6561843D01*
X-14137043Y-6582195D01*
X-13282196Y-7437043D01*
X-13261843Y-7461843D01*
X-13237043Y-7482196D01*
X-13237041Y-7482198D01*
X-13210616Y-7503884D01*
X-13162868Y-7543070D01*
X-13049948Y-7603427D01*
X-12927422Y-7640595D01*
X-12831932Y-7650000D01*
X-12831922Y-7650000D01*
X-12800001Y-7653144D01*
X-12768080Y-7650000D01*
X-12450000Y-7650000D01*
X-12449999Y-7922829D01*
X-12464641Y-7944742D01*
X-12521178Y-8081233D01*
X-12550000Y-8226131D01*
X-12550000Y-8373869D01*
X-12521178Y-8518767D01*
X-12464641Y-8655258D01*
X-12382563Y-8778097D01*
X-12278097Y-8882563D01*
X-12155258Y-8964641D01*
X-12018767Y-9021178D01*
X-11873869Y-9050000D01*
X-11726131Y-9050000D01*
X-11581233Y-9021178D01*
X-11444742Y-8964641D01*
X-11321903Y-8882563D01*
X-11217437Y-8778097D01*
X-11135359Y-8655258D01*
X-11078822Y-8518767D01*
X-11050000Y-8373869D01*
X-11050000Y-8226131D01*
X-11078822Y-8081233D01*
X-11135359Y-7944742D01*
X-11150000Y-7922830D01*
X-11150000Y-7650000D01*
X-7977170Y-7650000D01*
X-7955258Y-7664641D01*
X-7818767Y-7721178D01*
X-7673869Y-7750000D01*
X-7526131Y-7750000D01*
X-7381233Y-7721178D01*
X-7244742Y-7664641D01*
X-7121903Y-7582563D01*
X-7017437Y-7478097D01*
X-6935359Y-7355258D01*
X-6878822Y-7218767D01*
X-6850000Y-7073869D01*
X-6850000Y-6926131D01*
X-6878822Y-6781233D01*
X-6935359Y-6644742D01*
X-7017437Y-6521903D01*
X-7121903Y-6417437D01*
X-7244742Y-6335359D01*
X-7381233Y-6278822D01*
X-7526131Y-6250000D01*
X-7673869Y-6250000D01*
X-7818767Y-6278822D01*
X-7955258Y-6335359D01*
X-7977170Y-6350000D01*
X-11668080Y-6350000D01*
X-11700001Y-6346856D01*
X-11731922Y-6350000D01*
X-12530761Y-6350000D01*
X-13050000Y-5830762D01*
X-13050000Y-3677170D01*
X-13035359Y-3655258D01*
X-12978822Y-3518767D01*
X-12950000Y-3373869D01*
X-12950000Y-3226131D01*
X-12978822Y-3081233D01*
X-13035359Y-2944742D01*
X-13117437Y-2821903D01*
X-13117609Y-2821731D01*
X-12180000Y-2821731D01*
X-12180000Y-2969469D01*
X-12151178Y-3114367D01*
X-12094641Y-3250858D01*
X-12012563Y-3373697D01*
X-11908097Y-3478163D01*
X-11785258Y-3560241D01*
X-11648767Y-3616778D01*
X-11503869Y-3645600D01*
X-11457818Y-3645600D01*
X-11399806Y-3703612D01*
X-11399801Y-3703616D01*
X-10833608Y-4269809D01*
X-10816390Y-4290790D01*
X-10795410Y-4308008D01*
X-10795405Y-4308013D01*
X-10732643Y-4359521D01*
X-10689533Y-4382563D01*
X-10637094Y-4410592D01*
X-10533419Y-4442042D01*
X-10452618Y-4450000D01*
X-10452609Y-4450000D01*
X-10425601Y-4452660D01*
X-10398593Y-4450000D01*
X-7710649Y-4450000D01*
X-7678086Y-4482563D01*
X-7555247Y-4564641D01*
X-7418756Y-4621178D01*
X-7273858Y-4650000D01*
X-7126120Y-4650000D01*
X-6981222Y-4621178D01*
X-6844731Y-4564641D01*
X-6721892Y-4482563D01*
X-6617426Y-4378097D01*
X-6535348Y-4255258D01*
X-6478811Y-4118767D01*
X-6449989Y-3973869D01*
X-6449989Y-3826131D01*
X-6478811Y-3681233D01*
X-6535348Y-3544742D01*
X-6617426Y-3421903D01*
X-6721892Y-3317437D01*
X-6844731Y-3235359D01*
X-6981222Y-3178822D01*
X-7126120Y-3150000D01*
X-7273858Y-3150000D01*
X-7418756Y-3178822D01*
X-7555247Y-3235359D01*
X-7678086Y-3317437D01*
X-7710649Y-3350000D01*
X-10197782Y-3350000D01*
X-10621984Y-2925799D01*
X-10621988Y-2925794D01*
X-10680000Y-2867782D01*
X-10680000Y-2821731D01*
X-10708822Y-2676833D01*
X-10765359Y-2540342D01*
X-10847437Y-2417503D01*
X-10951903Y-2313037D01*
X-11074742Y-2230959D01*
X-11211233Y-2174422D01*
X-11356131Y-2145600D01*
X-11503869Y-2145600D01*
X-11648767Y-2174422D01*
X-11785258Y-2230959D01*
X-11908097Y-2313037D01*
X-12012563Y-2417503D01*
X-12094641Y-2540342D01*
X-12151178Y-2676833D01*
X-12180000Y-2821731D01*
X-13117609Y-2821731D01*
X-13221903Y-2717437D01*
X-13344742Y-2635359D01*
X-13481233Y-2578822D01*
X-13626131Y-2550000D01*
X-13773869Y-2550000D01*
X-13918767Y-2578822D01*
X-14055258Y-2635359D01*
X-14178097Y-2717437D01*
X-14282563Y-2821903D01*
X-14364641Y-2944742D01*
X-14421178Y-3081233D01*
X-14450000Y-3226131D01*
X-17696712Y-3226131D01*
X-18100000Y-2822843D01*
X-18736591Y-3459434D01*
X-19646339Y-3459434D01*
X-19736574Y-3241587D01*
X-19867899Y-3045045D01*
X-20035045Y-2877899D01*
X-20231587Y-2746574D01*
X-20449973Y-2656116D01*
X-20681810Y-2610000D01*
X-20918190Y-2610000D01*
X-21150027Y-2656116D01*
X-21368413Y-2746574D01*
X-21564955Y-2877899D01*
X-21732101Y-3045045D01*
X-21863426Y-3241587D01*
X-21953884Y-3459973D01*
X-22000000Y-3691810D01*
X-22737308Y-3691810D01*
X-22825679Y-3207940D01*
X-23011779Y-1326851D01*
X-23014681Y-1151810D01*
X-22000000Y-1151810D01*
X-22000000Y-1388190D01*
X-21953884Y-1620027D01*
X-21863426Y-1838413D01*
X-21732101Y-2034955D01*
X-21564955Y-2202101D01*
X-21368413Y-2333426D01*
X-21150027Y-2423884D01*
X-20918190Y-2470000D01*
X-20681810Y-2470000D01*
X-20615878Y-2456885D01*
X-19302938Y-2456885D01*
X-19296039Y-2693164D01*
X-19243177Y-2923556D01*
X-19179563Y-3077134D01*
X-19019434Y-3176591D01*
X-18382843Y-2540000D01*
X-17817157Y-2540000D01*
X-17180566Y-3176591D01*
X-17020437Y-3077134D01*
X-16936391Y-2856200D01*
X-16897062Y-2623115D01*
X-16903961Y-2386836D01*
X-16956823Y-2156444D01*
X-17020437Y-2002866D01*
X-17180566Y-1903409D01*
X-17817157Y-2540000D01*
X-18382843Y-2540000D01*
X-19019434Y-1903409D01*
X-19179563Y-2002866D01*
X-19263609Y-2223800D01*
X-19302938Y-2456885D01*
X-20615878Y-2456885D01*
X-20449973Y-2423884D01*
X-20231587Y-2333426D01*
X-20035045Y-2202101D01*
X-19867899Y-2034955D01*
X-19736574Y-1838413D01*
X-19646340Y-1620566D01*
X-18736591Y-1620566D01*
X-18100000Y-2257157D01*
X-17463409Y-1620566D01*
X-17562866Y-1460437D01*
X-17783800Y-1376391D01*
X-18016885Y-1337062D01*
X-18253164Y-1343961D01*
X-18483556Y-1396823D01*
X-18637134Y-1460437D01*
X-18736591Y-1620566D01*
X-19646340Y-1620566D01*
X-19646116Y-1620027D01*
X-19600000Y-1388190D01*
X-19600000Y-1151810D01*
X-19646116Y-919973D01*
X-19736574Y-701587D01*
X-19867899Y-505045D01*
X-20035045Y-337899D01*
X-20231587Y-206574D01*
X-20449973Y-116116D01*
X-20681810Y-70000D01*
X-20918190Y-70000D01*
X-21150027Y-116116D01*
X-21368413Y-206574D01*
X-21564955Y-337899D01*
X-21732101Y-505045D01*
X-21863426Y-701587D01*
X-21953884Y-919973D01*
X-22000000Y-1151810D01*
X-23014681Y-1151810D01*
X-23043119Y563162D01*
X-22989045Y1388190D01*
X-22000000Y1388190D01*
X-22000000Y1151810D01*
X-21953884Y919973D01*
X-21863426Y701587D01*
X-21732101Y505045D01*
X-21564955Y337899D01*
X-21368413Y206574D01*
X-21150027Y116116D01*
X-20918190Y70000D01*
X-20681810Y70000D01*
X-20449973Y116116D01*
X-20444966Y118190D01*
X-19300000Y118190D01*
X-19300000Y-118190D01*
X-19253884Y-350027D01*
X-19163426Y-568413D01*
X-19032101Y-764955D01*
X-18864955Y-932101D01*
X-18668413Y-1063426D01*
X-18450027Y-1153884D01*
X-18218190Y-1200000D01*
X-17981810Y-1200000D01*
X-17749973Y-1153884D01*
X-17531587Y-1063426D01*
X-17335045Y-932101D01*
X-17167899Y-764955D01*
X-17036574Y-568413D01*
X-16946116Y-350027D01*
X-16900000Y-118190D01*
X-16900000Y118190D01*
X-16946116Y350027D01*
X-17036574Y568413D01*
X-17167899Y764955D01*
X-17335045Y932101D01*
X-17531587Y1063426D01*
X-17749973Y1153884D01*
X-17981810Y1200000D01*
X-18218190Y1200000D01*
X-18450027Y1153884D01*
X-18668413Y1063426D01*
X-18864955Y932101D01*
X-19032101Y764955D01*
X-19163426Y568413D01*
X-19253884Y350027D01*
X-19300000Y118190D01*
X-20444966Y118190D01*
X-20231587Y206574D01*
X-20035045Y337899D01*
X-19867899Y505045D01*
X-19736574Y701587D01*
X-19646116Y919973D01*
X-19600000Y1151810D01*
X-19600000Y1388190D01*
X-19646116Y1620027D01*
X-19736574Y1838413D01*
X-19867899Y2034955D01*
X-20035045Y2202101D01*
X-20231587Y2333426D01*
X-20449973Y2423884D01*
X-20681810Y2470000D01*
X-20918190Y2470000D01*
X-21150027Y2423884D01*
X-21368413Y2333426D01*
X-21564955Y2202101D01*
X-21732101Y2034955D01*
X-21863426Y1838413D01*
X-21953884Y1620027D01*
X-22000000Y1388190D01*
X-22989045Y1388190D01*
X-22919490Y2449387D01*
X-22699801Y3928190D01*
X-22000000Y3928190D01*
X-22000000Y3691810D01*
X-21953884Y3459973D01*
X-21863426Y3241587D01*
X-21732101Y3045045D01*
X-21564955Y2877899D01*
X-21368413Y2746574D01*
X-21150027Y2656116D01*
X-20918190Y2610000D01*
X-20681810Y2610000D01*
X-20449973Y2656116D01*
X-20444966Y2658190D01*
X-19300000Y2658190D01*
X-19300000Y2421810D01*
X-19253884Y2189973D01*
X-19163426Y1971587D01*
X-19032101Y1775045D01*
X-18864955Y1607899D01*
X-18668413Y1476574D01*
X-18450027Y1386116D01*
X-18218190Y1340000D01*
X-17981810Y1340000D01*
X-17962360Y1343869D01*
X-16650000Y1343869D01*
X-16650000Y1196131D01*
X-16621178Y1051233D01*
X-16564641Y914742D01*
X-16482563Y791903D01*
X-16378097Y687437D01*
X-16255258Y605359D01*
X-16118767Y548822D01*
X-15973869Y520000D01*
X-15826131Y520000D01*
X-15750000Y535143D01*
X-15750000Y396131D01*
X-15721178Y251233D01*
X-15664641Y114742D01*
X-15582563Y-8097D01*
X-15478097Y-112563D01*
X-15355258Y-194641D01*
X-15218767Y-251178D01*
X-15073869Y-280000D01*
X-14926131Y-280000D01*
X-14781233Y-251178D01*
X-14644742Y-194641D01*
X-14521903Y-112563D01*
X-14417437Y-8097D01*
X-14335359Y114742D01*
X-14278822Y251233D01*
X-14250000Y396131D01*
X-14250000Y429469D01*
X-10960800Y429469D01*
X-10960800Y281731D01*
X-10931978Y136833D01*
X-10875441Y342D01*
X-10793363Y-122497D01*
X-10760800Y-155060D01*
X-10760800Y-1004596D01*
X-10763460Y-1031604D01*
X-10760800Y-1058612D01*
X-10760800Y-1058621D01*
X-10752842Y-1139422D01*
X-10721392Y-1243097D01*
X-10670321Y-1338646D01*
X-10601590Y-1422394D01*
X-10580604Y-1439617D01*
X-9452404Y-2567818D01*
X-9452404Y-2613869D01*
X-9423582Y-2758767D01*
X-9367045Y-2895258D01*
X-9284967Y-3018097D01*
X-9180501Y-3122563D01*
X-9057662Y-3204641D01*
X-8921171Y-3261178D01*
X-8776273Y-3290000D01*
X-8628535Y-3290000D01*
X-8483637Y-3261178D01*
X-8347146Y-3204641D01*
X-8224307Y-3122563D01*
X-8119841Y-3018097D01*
X-8037763Y-2895258D01*
X-7981226Y-2758767D01*
X-7952404Y-2613869D01*
X-7952404Y-2466131D01*
X-7981226Y-2321233D01*
X-8037763Y-2184742D01*
X-8119841Y-2061903D01*
X-8224307Y-1957437D01*
X-8347146Y-1875359D01*
X-8483637Y-1818822D01*
X-8628535Y-1790000D01*
X-8674586Y-1790000D01*
X-9114799Y-1349788D01*
X-9065469Y-1359600D01*
X-8917731Y-1359600D01*
X-8772833Y-1330778D01*
X-8636342Y-1274241D01*
X-8513503Y-1192163D01*
X-8494579Y-1173239D01*
X-7310412Y-2357405D01*
X-7252400Y-2415417D01*
X-7252400Y-2461469D01*
X-7223578Y-2606367D01*
X-7167041Y-2742858D01*
X-7084963Y-2865697D01*
X-6980497Y-2970163D01*
X-6857658Y-3052241D01*
X-6721167Y-3108778D01*
X-6576269Y-3137600D01*
X-6428531Y-3137600D01*
X-6283633Y-3108778D01*
X-6147142Y-3052241D01*
X-6024303Y-2970163D01*
X-5919837Y-2865697D01*
X-5837759Y-2742858D01*
X-5781222Y-2606367D01*
X-5752400Y-2461469D01*
X-5752400Y-2313731D01*
X-5781222Y-2168833D01*
X-5837759Y-2032342D01*
X-5919837Y-1909503D01*
X-6024303Y-1805037D01*
X-6147142Y-1722959D01*
X-6283633Y-1666422D01*
X-6428531Y-1637600D01*
X-6474583Y-1637600D01*
X-7786052Y-326131D01*
X-4750000Y-326131D01*
X-4750000Y-473869D01*
X-4721178Y-618767D01*
X-4664641Y-755258D01*
X-4582563Y-878097D01*
X-4478097Y-982563D01*
X-4355258Y-1064641D01*
X-4218767Y-1121178D01*
X-4073869Y-1150000D01*
X-4027817Y-1150000D01*
X363395Y-5541212D01*
X378822Y-5618767D01*
X435359Y-5755258D01*
X517437Y-5878097D01*
X621903Y-5982563D01*
X744742Y-6064641D01*
X881233Y-6121178D01*
X1026131Y-6150000D01*
X1173869Y-6150000D01*
X1318767Y-6121178D01*
X1455258Y-6064641D01*
X1578097Y-5982563D01*
X1682563Y-5878097D01*
X1764641Y-5755258D01*
X1821178Y-5618767D01*
X1850000Y-5473869D01*
X1850000Y-5326131D01*
X1821178Y-5181233D01*
X1764641Y-5044742D01*
X1682563Y-4921903D01*
X1578097Y-4817437D01*
X1455258Y-4735359D01*
X1318767Y-4678822D01*
X1173869Y-4650000D01*
X1027817Y-4650000D01*
X103948Y-3726131D01*
X6550002Y-3726131D01*
X6550002Y-3873869D01*
X6578824Y-4018767D01*
X6635361Y-4155258D01*
X6717439Y-4278097D01*
X6821905Y-4382563D01*
X6944744Y-4464641D01*
X7081235Y-4521178D01*
X7226133Y-4550000D01*
X7373871Y-4550000D01*
X7518769Y-4521178D01*
X7655260Y-4464641D01*
X7778099Y-4382563D01*
X7810662Y-4350000D01*
X13199431Y-4350000D01*
X13303593Y-4419599D01*
X13187103Y-4497435D01*
X13082637Y-4601901D01*
X13000559Y-4724740D01*
X12944022Y-4861231D01*
X12915200Y-5006129D01*
X12915200Y-5153867D01*
X12944022Y-5298765D01*
X13000559Y-5435256D01*
X13082637Y-5558095D01*
X13115200Y-5590658D01*
X13115200Y-5672700D01*
X13115201Y-5672710D01*
X13115200Y-8006984D01*
X13072184Y-8050000D01*
X13026132Y-8050000D01*
X12881234Y-8078822D01*
X12744743Y-8135359D01*
X12621904Y-8217437D01*
X12517438Y-8321903D01*
X12435360Y-8444742D01*
X12378823Y-8581233D01*
X12350001Y-8726131D01*
X12350001Y-8873869D01*
X12378823Y-9018767D01*
X12435360Y-9155258D01*
X12517438Y-9278097D01*
X12621904Y-9382563D01*
X12744743Y-9464641D01*
X12881234Y-9521178D01*
X13026132Y-9550000D01*
X13173870Y-9550000D01*
X13318768Y-9521178D01*
X13455259Y-9464641D01*
X13578098Y-9382563D01*
X13682564Y-9278097D01*
X13764642Y-9155258D01*
X13775001Y-9130251D01*
X13785359Y-9155258D01*
X13867437Y-9278097D01*
X13971903Y-9382563D01*
X14094742Y-9464641D01*
X14231233Y-9521178D01*
X14376131Y-9550000D01*
X14523869Y-9550000D01*
X14668767Y-9521178D01*
X14805258Y-9464641D01*
X14928097Y-9382563D01*
X15032563Y-9278097D01*
X15114641Y-9155258D01*
X15125000Y-9130249D01*
X15135359Y-9155258D01*
X15217437Y-9278097D01*
X15321903Y-9382563D01*
X15444742Y-9464641D01*
X15581233Y-9521178D01*
X15726131Y-9550000D01*
X15873869Y-9550000D01*
X16018767Y-9521178D01*
X16155258Y-9464641D01*
X16278097Y-9382563D01*
X16382563Y-9278097D01*
X16464641Y-9155258D01*
X16521178Y-9018767D01*
X16550000Y-8873869D01*
X16550000Y-8726131D01*
X16521178Y-8581233D01*
X16464641Y-8444742D01*
X16382563Y-8321903D01*
X16350000Y-8289340D01*
X16350000Y-7501810D01*
X16900000Y-7501810D01*
X16900000Y-7738190D01*
X16946116Y-7970027D01*
X17036574Y-8188413D01*
X17167899Y-8384955D01*
X17335045Y-8552101D01*
X17531587Y-8683426D01*
X17749973Y-8773884D01*
X17981810Y-8820000D01*
X18218190Y-8820000D01*
X18450027Y-8773884D01*
X18668413Y-8683426D01*
X18864955Y-8552101D01*
X19032101Y-8384955D01*
X19163426Y-8188413D01*
X19253884Y-7970027D01*
X19300000Y-7738190D01*
X19300000Y-7501810D01*
X19253884Y-7269973D01*
X19163426Y-7051587D01*
X19032101Y-6855045D01*
X18864955Y-6687899D01*
X18668413Y-6556574D01*
X18450027Y-6466116D01*
X18218190Y-6420000D01*
X17981810Y-6420000D01*
X17749973Y-6466116D01*
X17531587Y-6556574D01*
X17335045Y-6687899D01*
X17167899Y-6855045D01*
X17036574Y-7051587D01*
X16946116Y-7269973D01*
X16900000Y-7501810D01*
X16350000Y-7501810D01*
X16350000Y-4961810D01*
X16900000Y-4961810D01*
X16900000Y-5198190D01*
X16946116Y-5430027D01*
X17036574Y-5648413D01*
X17167899Y-5844955D01*
X17335045Y-6012101D01*
X17531587Y-6143426D01*
X17749973Y-6233884D01*
X17981810Y-6280000D01*
X18218190Y-6280000D01*
X18450027Y-6233884D01*
X18455034Y-6231810D01*
X19600000Y-6231810D01*
X19600000Y-6468190D01*
X19646116Y-6700027D01*
X19736574Y-6918413D01*
X19867899Y-7114955D01*
X20035045Y-7282101D01*
X20231587Y-7413426D01*
X20449973Y-7503884D01*
X20681810Y-7550000D01*
X20918190Y-7550000D01*
X21150027Y-7503884D01*
X21368413Y-7413426D01*
X21564955Y-7282101D01*
X21732101Y-7114955D01*
X21863426Y-6918413D01*
X21953884Y-6700027D01*
X22000000Y-6468190D01*
X22000000Y-6231810D01*
X21953884Y-5999973D01*
X21863426Y-5781587D01*
X21732101Y-5585045D01*
X21564955Y-5417899D01*
X21368413Y-5286574D01*
X21150027Y-5196116D01*
X20918190Y-5150000D01*
X20681810Y-5150000D01*
X20449973Y-5196116D01*
X20231587Y-5286574D01*
X20035045Y-5417899D01*
X19867899Y-5585045D01*
X19736574Y-5781587D01*
X19646116Y-5999973D01*
X19600000Y-6231810D01*
X18455034Y-6231810D01*
X18668413Y-6143426D01*
X18864955Y-6012101D01*
X19032101Y-5844955D01*
X19163426Y-5648413D01*
X19253884Y-5430027D01*
X19300000Y-5198190D01*
X19300000Y-4961810D01*
X19253884Y-4729973D01*
X19163426Y-4511587D01*
X19032101Y-4315045D01*
X18864955Y-4147899D01*
X18668413Y-4016574D01*
X18450027Y-3926116D01*
X18218190Y-3880000D01*
X17981810Y-3880000D01*
X17749973Y-3926116D01*
X17531587Y-4016574D01*
X17335045Y-4147899D01*
X17167899Y-4315045D01*
X17036574Y-4511587D01*
X16946116Y-4729973D01*
X16900000Y-4961810D01*
X16350000Y-4961810D01*
X16350000Y-2421810D01*
X16900000Y-2421810D01*
X16900000Y-2658190D01*
X16946116Y-2890027D01*
X17036574Y-3108413D01*
X17167899Y-3304955D01*
X17335045Y-3472101D01*
X17531587Y-3603426D01*
X17749973Y-3693884D01*
X17981810Y-3740000D01*
X18218190Y-3740000D01*
X18450027Y-3693884D01*
X18455034Y-3691810D01*
X19600000Y-3691810D01*
X19600000Y-3928190D01*
X19646116Y-4160027D01*
X19736574Y-4378413D01*
X19867899Y-4574955D01*
X20035045Y-4742101D01*
X20231587Y-4873426D01*
X20449973Y-4963884D01*
X20681810Y-5010000D01*
X20918190Y-5010000D01*
X21150027Y-4963884D01*
X21368413Y-4873426D01*
X21564955Y-4742101D01*
X21732101Y-4574955D01*
X21863426Y-4378413D01*
X21953884Y-4160027D01*
X22000000Y-3928190D01*
X22000000Y-3691810D01*
X21953884Y-3459973D01*
X21863426Y-3241587D01*
X21732101Y-3045045D01*
X21564955Y-2877899D01*
X21368413Y-2746574D01*
X21150027Y-2656116D01*
X20918190Y-2610000D01*
X20681810Y-2610000D01*
X20449973Y-2656116D01*
X20231587Y-2746574D01*
X20035045Y-2877899D01*
X19867899Y-3045045D01*
X19736574Y-3241587D01*
X19646116Y-3459973D01*
X19600000Y-3691810D01*
X18455034Y-3691810D01*
X18668413Y-3603426D01*
X18864955Y-3472101D01*
X19032101Y-3304955D01*
X19163426Y-3108413D01*
X19253884Y-2890027D01*
X19300000Y-2658190D01*
X19300000Y-2421810D01*
X19253884Y-2189973D01*
X19163426Y-1971587D01*
X19032101Y-1775045D01*
X18864955Y-1607899D01*
X18668413Y-1476574D01*
X18450027Y-1386116D01*
X18218190Y-1340000D01*
X17981810Y-1340000D01*
X17749973Y-1386116D01*
X17531587Y-1476574D01*
X17335045Y-1607899D01*
X17167899Y-1775045D01*
X17036574Y-1971587D01*
X16946116Y-2189973D01*
X16900000Y-2421810D01*
X16350000Y-2421810D01*
X16350000Y-510660D01*
X16382563Y-478097D01*
X16464641Y-355258D01*
X16521178Y-218767D01*
X16550000Y-73869D01*
X16550000Y73869D01*
X16541185Y118190D01*
X16900000Y118190D01*
X16900000Y-118190D01*
X16946116Y-350027D01*
X17036574Y-568413D01*
X17167899Y-764955D01*
X17335045Y-932101D01*
X17531587Y-1063426D01*
X17749973Y-1153884D01*
X17981810Y-1200000D01*
X18218190Y-1200000D01*
X18450027Y-1153884D01*
X18455034Y-1151810D01*
X19600000Y-1151810D01*
X19600000Y-1388190D01*
X19646116Y-1620027D01*
X19736574Y-1838413D01*
X19867899Y-2034955D01*
X20035045Y-2202101D01*
X20231587Y-2333426D01*
X20449973Y-2423884D01*
X20681810Y-2470000D01*
X20918190Y-2470000D01*
X21150027Y-2423884D01*
X21368413Y-2333426D01*
X21564955Y-2202101D01*
X21732101Y-2034955D01*
X21863426Y-1838413D01*
X21953884Y-1620027D01*
X22000000Y-1388190D01*
X22000000Y-1151810D01*
X21953884Y-919973D01*
X21863426Y-701587D01*
X21732101Y-505045D01*
X21564955Y-337899D01*
X21368413Y-206574D01*
X21150027Y-116116D01*
X20918190Y-70000D01*
X20681810Y-70000D01*
X20449973Y-116116D01*
X20231587Y-206574D01*
X20035045Y-337899D01*
X19867899Y-505045D01*
X19736574Y-701587D01*
X19646116Y-919973D01*
X19600000Y-1151810D01*
X18455034Y-1151810D01*
X18668413Y-1063426D01*
X18864955Y-932101D01*
X19032101Y-764955D01*
X19163426Y-568413D01*
X19253884Y-350027D01*
X19300000Y-118190D01*
X19300000Y118190D01*
X19253884Y350027D01*
X19163426Y568413D01*
X19032101Y764955D01*
X18864955Y932101D01*
X18668413Y1063426D01*
X18450027Y1153884D01*
X18218190Y1200000D01*
X17981810Y1200000D01*
X17749973Y1153884D01*
X17531587Y1063426D01*
X17335045Y932101D01*
X17167899Y764955D01*
X17036574Y568413D01*
X16946116Y350027D01*
X16900000Y118190D01*
X16541185Y118190D01*
X16521178Y218767D01*
X16464641Y355258D01*
X16382563Y478097D01*
X16278097Y582563D01*
X16155258Y664641D01*
X16018767Y721178D01*
X15873869Y750000D01*
X15726131Y750000D01*
X15581233Y721178D01*
X15444742Y664641D01*
X15321903Y582563D01*
X15217437Y478097D01*
X15150000Y377170D01*
X15082563Y478097D01*
X14978097Y582563D01*
X14855258Y664641D01*
X14718767Y721178D01*
X14573869Y750000D01*
X14527817Y750000D01*
X12681107Y2596710D01*
X12681107Y2620762D01*
X12652285Y2765660D01*
X12595748Y2902151D01*
X12513670Y3024990D01*
X12409204Y3129456D01*
X12286365Y3211534D01*
X12149874Y3268071D01*
X12004976Y3296893D01*
X11857238Y3296893D01*
X11712340Y3268071D01*
X11575849Y3211534D01*
X11453010Y3129456D01*
X11348544Y3024990D01*
X11266466Y2902151D01*
X11209929Y2765660D01*
X11181107Y2620762D01*
X11181107Y2473024D01*
X11209929Y2328126D01*
X11266466Y2191635D01*
X11348544Y2068796D01*
X11453010Y1964330D01*
X11575849Y1882252D01*
X11712340Y1825715D01*
X11857238Y1796893D01*
X11925290Y1796893D01*
X13750000Y-27817D01*
X13750000Y-73869D01*
X13778822Y-218767D01*
X13835359Y-355258D01*
X13917437Y-478097D01*
X14021903Y-582563D01*
X14122830Y-650000D01*
X14021903Y-717437D01*
X13917437Y-821903D01*
X13835359Y-944742D01*
X13778822Y-1081233D01*
X13750000Y-1226131D01*
X13750000Y-1272182D01*
X12930583Y-2091600D01*
X8638660Y-2091600D01*
X8606097Y-2059037D01*
X8483258Y-1976959D01*
X8346767Y-1920422D01*
X8201869Y-1891600D01*
X8054131Y-1891600D01*
X7909233Y-1920422D01*
X7772742Y-1976959D01*
X7649903Y-2059037D01*
X7545437Y-2163503D01*
X7463359Y-2286342D01*
X7406822Y-2422833D01*
X7378000Y-2567731D01*
X7378000Y-2715469D01*
X7406822Y-2860367D01*
X7463359Y-2996858D01*
X7518027Y-3078674D01*
X7373871Y-3050000D01*
X7226133Y-3050000D01*
X7081235Y-3078822D01*
X6944744Y-3135359D01*
X6821905Y-3217437D01*
X6717439Y-3321903D01*
X6635361Y-3444742D01*
X6578824Y-3581233D01*
X6550002Y-3726131D01*
X103948Y-3726131D01*
X-3250000Y-372183D01*
X-3250000Y-326131D01*
X-3278822Y-181233D01*
X-3335359Y-44742D01*
X-3417437Y78097D01*
X-3521903Y182563D01*
X-3644742Y264641D01*
X-3781233Y321178D01*
X-3926131Y350000D01*
X-4073869Y350000D01*
X-4218767Y321178D01*
X-4355258Y264641D01*
X-4478097Y182563D01*
X-4582563Y78097D01*
X-4664641Y-44742D01*
X-4721178Y-181233D01*
X-4750000Y-326131D01*
X-7786052Y-326131D01*
X-7872387Y-239796D01*
X-7889610Y-218810D01*
X-7973358Y-150079D01*
X-8068906Y-99008D01*
X-8126151Y-81643D01*
X-7996535Y-27954D01*
X-7775425Y119787D01*
X-7587387Y307825D01*
X-7439646Y528935D01*
X-7337880Y774620D01*
X-7286000Y1035437D01*
X-7286000Y1301363D01*
X-7337880Y1562180D01*
X-7439646Y1807865D01*
X-7587387Y2028975D01*
X-7775425Y2217013D01*
X-7996535Y2364754D01*
X-8242220Y2466520D01*
X-8503037Y2518400D01*
X-8768963Y2518400D01*
X-9029780Y2466520D01*
X-9275465Y2364754D01*
X-9496575Y2217013D01*
X-9684613Y2028975D01*
X-9832354Y1807865D01*
X-9934120Y1562180D01*
X-9986000Y1301363D01*
X-9986000Y1074279D01*
X-9992033Y1076778D01*
X-10136931Y1105600D01*
X-10284669Y1105600D01*
X-10429567Y1076778D01*
X-10566058Y1020241D01*
X-10688897Y938163D01*
X-10793363Y833697D01*
X-10875441Y710858D01*
X-10931978Y574367D01*
X-10960800Y429469D01*
X-14250000Y429469D01*
X-14250000Y543869D01*
X-14278822Y688767D01*
X-14335359Y825258D01*
X-14350000Y847170D01*
X-14350000Y2969469D01*
X-3798000Y2969469D01*
X-3798000Y2821731D01*
X-3769178Y2676833D01*
X-3712641Y2540342D01*
X-3630563Y2417503D01*
X-3526097Y2313037D01*
X-3403258Y2230959D01*
X-3266767Y2174422D01*
X-3121869Y2145600D01*
X-2974131Y2145600D01*
X-2829233Y2174422D01*
X-2692742Y2230959D01*
X-2569903Y2313037D01*
X-2465437Y2417503D01*
X-2383359Y2540342D01*
X-2326822Y2676833D01*
X-2304123Y2790950D01*
X-1266944Y3828128D01*
X-1152833Y3850826D01*
X-1016342Y3907363D01*
X-893503Y3989441D01*
X-789037Y4093907D01*
X-706959Y4216746D01*
X-650422Y4353237D01*
X-621600Y4498135D01*
X-621600Y4645873D01*
X-650422Y4790771D01*
X-706959Y4927262D01*
X-789037Y5050101D01*
X-893503Y5154567D01*
X-1016342Y5236645D01*
X-1152833Y5293182D01*
X-1297731Y5322004D01*
X-1445469Y5322004D01*
X-1590367Y5293182D01*
X-1726858Y5236645D01*
X-1849697Y5154567D01*
X-1954163Y5050101D01*
X-2036241Y4927262D01*
X-2092778Y4790771D01*
X-2115478Y4676650D01*
X-3152650Y3639477D01*
X-3266767Y3616778D01*
X-3403258Y3560241D01*
X-3526097Y3478163D01*
X-3630563Y3373697D01*
X-3712641Y3250858D01*
X-3769178Y3114367D01*
X-3798000Y2969469D01*
X-14350000Y2969469D01*
X-14350000Y3942954D01*
X-6747921Y3942954D01*
X-6643574Y3698355D01*
X-6493513Y3478813D01*
X-6303505Y3292765D01*
X-6080852Y3147360D01*
X-5861446Y3056479D01*
X-5654019Y3097208D01*
X-5654019Y4150381D01*
X-5254019Y4150381D01*
X-5254019Y3097208D01*
X-5046592Y3056479D01*
X-4801993Y3160826D01*
X-4582451Y3310887D01*
X-4396403Y3500895D01*
X-4250998Y3723548D01*
X-4160117Y3942954D01*
X-4200846Y4150381D01*
X-5254019Y4150381D01*
X-5654019Y4150381D01*
X-6707192Y4150381D01*
X-6747921Y3942954D01*
X-14350000Y3942954D01*
X-14350000Y5007574D01*
X-14280807Y4904019D01*
X-14092769Y4715981D01*
X-13871659Y4568240D01*
X-13625974Y4466474D01*
X-13365157Y4414594D01*
X-13099231Y4414594D01*
X-12838414Y4466474D01*
X-12592729Y4568240D01*
X-12371619Y4715981D01*
X-12183581Y4904019D01*
X-12035840Y5125129D01*
X-11976591Y5268169D01*
X-10770300Y5268169D01*
X-10770300Y5120431D01*
X-10741478Y4975533D01*
X-10684941Y4839042D01*
X-10602863Y4716203D01*
X-10498397Y4611737D01*
X-10375558Y4529659D01*
X-10239067Y4473122D01*
X-10094169Y4444300D01*
X-9946431Y4444300D01*
X-9801533Y4473122D01*
X-9665042Y4529659D01*
X-9542203Y4611737D01*
X-9437737Y4716203D01*
X-9409938Y4757808D01*
X-6747921Y4757808D01*
X-6707192Y4550381D01*
X-5654019Y4550381D01*
X-5654019Y5603554D01*
X-5254019Y5603554D01*
X-5254019Y4550381D01*
X-4200846Y4550381D01*
X-4160117Y4757808D01*
X-4264464Y5002407D01*
X-4414525Y5221949D01*
X-4604533Y5407997D01*
X-4827186Y5553402D01*
X-5046592Y5644283D01*
X-5254019Y5603554D01*
X-5654019Y5603554D01*
X-5861446Y5644283D01*
X-6106045Y5539936D01*
X-6325587Y5389875D01*
X-6511635Y5199867D01*
X-6657040Y4977214D01*
X-6747921Y4757808D01*
X-9409938Y4757808D01*
X-9355659Y4839042D01*
X-9299122Y4975533D01*
X-9276423Y5089650D01*
X-8556749Y5809323D01*
X-8442633Y5832022D01*
X-8306142Y5888559D01*
X-8183303Y5970637D01*
X-8078837Y6075103D01*
X-7996759Y6197942D01*
X-7940222Y6334433D01*
X-7911400Y6479331D01*
X-7911400Y6627069D01*
X-7940222Y6771967D01*
X-7996759Y6908458D01*
X-8078837Y7031297D01*
X-8183303Y7135763D01*
X-8306142Y7217841D01*
X-8351596Y7236669D01*
X2348800Y7236669D01*
X2348800Y7088931D01*
X2377622Y6944033D01*
X2434159Y6807542D01*
X2516237Y6684703D01*
X2620703Y6580237D01*
X2743542Y6498159D01*
X2880033Y6441622D01*
X3024931Y6412800D01*
X3070983Y6412800D01*
X3466400Y6017382D01*
X3466400Y5971331D01*
X3495222Y5826433D01*
X3551759Y5689942D01*
X3633837Y5567103D01*
X3738303Y5462637D01*
X3861142Y5380559D01*
X3997633Y5324022D01*
X4142531Y5295200D01*
X4290269Y5295200D01*
X4435167Y5324022D01*
X4571658Y5380559D01*
X4694497Y5462637D01*
X4741329Y5509469D01*
X5396800Y5509469D01*
X5396800Y5361731D01*
X5425622Y5216833D01*
X5482159Y5080342D01*
X5564237Y4957503D01*
X5668703Y4853037D01*
X5791542Y4770959D01*
X5928033Y4714422D01*
X6004001Y4699311D01*
X6004000Y2797460D01*
X5970637Y2764097D01*
X5888559Y2641258D01*
X5832022Y2504767D01*
X5803200Y2359869D01*
X5803200Y2212131D01*
X5832022Y2067233D01*
X5888559Y1930742D01*
X5970637Y1807903D01*
X6075103Y1703437D01*
X6197942Y1621359D01*
X6334433Y1564822D01*
X6479331Y1536000D01*
X6627069Y1536000D01*
X6771967Y1564822D01*
X6908458Y1621359D01*
X7031297Y1703437D01*
X7135763Y1807903D01*
X7217841Y1930742D01*
X7274378Y2067233D01*
X7303200Y2212131D01*
X7303200Y2359869D01*
X7274378Y2504767D01*
X7217841Y2641258D01*
X7204000Y2661973D01*
X7204000Y4948935D01*
X7206902Y4978401D01*
X7204000Y5007867D01*
X7204000Y5007874D01*
X7195318Y5096021D01*
X7187914Y5120431D01*
X7178429Y5151697D01*
X7161010Y5209121D01*
X7105296Y5313355D01*
X7030317Y5404717D01*
X7007424Y5423505D01*
X6890677Y5540251D01*
X6867978Y5654367D01*
X6811441Y5790858D01*
X6729363Y5913697D01*
X6624897Y6018163D01*
X6502058Y6100241D01*
X6365567Y6156778D01*
X6220669Y6185600D01*
X6072931Y6185600D01*
X5928033Y6156778D01*
X5791542Y6100241D01*
X5668703Y6018163D01*
X5564237Y5913697D01*
X5482159Y5790858D01*
X5425622Y5654367D01*
X5396800Y5509469D01*
X4741329Y5509469D01*
X4798963Y5567103D01*
X4881041Y5689942D01*
X4937578Y5826433D01*
X4966400Y5971331D01*
X4966400Y6119069D01*
X4937578Y6263967D01*
X4881041Y6400458D01*
X4798963Y6523297D01*
X4694497Y6627763D01*
X4571658Y6709841D01*
X4435167Y6766378D01*
X4290269Y6795200D01*
X4244218Y6795200D01*
X3848800Y7190617D01*
X3848800Y7236669D01*
X3819978Y7381567D01*
X3763441Y7518058D01*
X3681363Y7640897D01*
X3576897Y7745363D01*
X3454058Y7827441D01*
X3317567Y7883978D01*
X3172669Y7912800D01*
X3024931Y7912800D01*
X2880033Y7883978D01*
X2743542Y7827441D01*
X2620703Y7745363D01*
X2516237Y7640897D01*
X2434159Y7518058D01*
X2377622Y7381567D01*
X2348800Y7236669D01*
X-8351596Y7236669D01*
X-8442633Y7274378D01*
X-8587531Y7303200D01*
X-8735269Y7303200D01*
X-8880167Y7274378D01*
X-9016658Y7217841D01*
X-9139497Y7135763D01*
X-9243963Y7031297D01*
X-9326041Y6908458D01*
X-9382578Y6771967D01*
X-9405277Y6657851D01*
X-10124950Y5938177D01*
X-10239067Y5915478D01*
X-10375558Y5858941D01*
X-10498397Y5776863D01*
X-10602863Y5672397D01*
X-10684941Y5549558D01*
X-10741478Y5413067D01*
X-10770300Y5268169D01*
X-11976591Y5268169D01*
X-11934074Y5370814D01*
X-11882194Y5631631D01*
X-11882194Y5897557D01*
X-11934074Y6158374D01*
X-12035840Y6404059D01*
X-12183581Y6625169D01*
X-12371619Y6813207D01*
X-12592729Y6960948D01*
X-12838414Y7062714D01*
X-13099231Y7114594D01*
X-13365157Y7114594D01*
X-13625974Y7062714D01*
X-13871659Y6960948D01*
X-14092769Y6813207D01*
X-14250259Y6655717D01*
X-14258822Y6698767D01*
X-14315359Y6835258D01*
X-14397437Y6958097D01*
X-14501903Y7062563D01*
X-14624742Y7144641D01*
X-14761233Y7201178D01*
X-14807462Y7210374D01*
X-14798822Y7231233D01*
X-14770000Y7376131D01*
X-14770000Y7523869D01*
X-14798822Y7668767D01*
X-14855359Y7805258D01*
X-14937437Y7928097D01*
X-15041903Y8032563D01*
X-15164742Y8114641D01*
X-15301233Y8171178D01*
X-15446131Y8200000D01*
X-15593869Y8200000D01*
X-15738767Y8171178D01*
X-15875258Y8114641D01*
X-15998097Y8032563D01*
X-16102563Y7928097D01*
X-16184641Y7805258D01*
X-16241178Y7668767D01*
X-16270000Y7523869D01*
X-16270000Y7477817D01*
X-16289804Y7458013D01*
X-16310789Y7440791D01*
X-16379520Y7357043D01*
X-16430591Y7261494D01*
X-16462041Y7157819D01*
X-16469999Y7077018D01*
X-16469999Y7077009D01*
X-16472659Y7050001D01*
X-16469999Y7022993D01*
X-16469998Y1760662D01*
X-16482563Y1748097D01*
X-16564641Y1625258D01*
X-16621178Y1488767D01*
X-16650000Y1343869D01*
X-17962360Y1343869D01*
X-17749973Y1386116D01*
X-17531587Y1476574D01*
X-17335045Y1607899D01*
X-17167899Y1775045D01*
X-17036574Y1971587D01*
X-16946116Y2189973D01*
X-16900000Y2421810D01*
X-16900000Y2658190D01*
X-16946116Y2890027D01*
X-17036574Y3108413D01*
X-17167899Y3304955D01*
X-17335045Y3472101D01*
X-17531587Y3603426D01*
X-17749973Y3693884D01*
X-17981810Y3740000D01*
X-18218190Y3740000D01*
X-18450027Y3693884D01*
X-18668413Y3603426D01*
X-18864955Y3472101D01*
X-19032101Y3304955D01*
X-19163426Y3108413D01*
X-19253884Y2890027D01*
X-19300000Y2658190D01*
X-20444966Y2658190D01*
X-20231587Y2746574D01*
X-20035045Y2877899D01*
X-19867899Y3045045D01*
X-19736574Y3241587D01*
X-19646116Y3459973D01*
X-19600000Y3691810D01*
X-19600000Y3928190D01*
X-19646116Y4160027D01*
X-19736574Y4378413D01*
X-19867899Y4574955D01*
X-20035045Y4742101D01*
X-20231587Y4873426D01*
X-20449973Y4963884D01*
X-20681810Y5010000D01*
X-20918190Y5010000D01*
X-21150027Y4963884D01*
X-21368413Y4873426D01*
X-21564955Y4742101D01*
X-21732101Y4574955D01*
X-21863426Y4378413D01*
X-21953884Y4160027D01*
X-22000000Y3928190D01*
X-22699801Y3928190D01*
X-22641721Y4319139D01*
X-22211682Y6159845D01*
X-22112387Y6468190D01*
X-22000000Y6468190D01*
X-22000000Y6231810D01*
X-21953884Y5999973D01*
X-21863426Y5781587D01*
X-21732101Y5585045D01*
X-21564955Y5417899D01*
X-21368413Y5286574D01*
X-21150027Y5196116D01*
X-20918190Y5150000D01*
X-20681810Y5150000D01*
X-20449973Y5196116D01*
X-20444966Y5198190D01*
X-19300000Y5198190D01*
X-19300000Y4961810D01*
X-19253884Y4729973D01*
X-19163426Y4511587D01*
X-19032101Y4315045D01*
X-18864955Y4147899D01*
X-18668413Y4016574D01*
X-18450027Y3926116D01*
X-18218190Y3880000D01*
X-17981810Y3880000D01*
X-17749973Y3926116D01*
X-17531587Y4016574D01*
X-17335045Y4147899D01*
X-17167899Y4315045D01*
X-17036574Y4511587D01*
X-16946116Y4729973D01*
X-16900000Y4961810D01*
X-16900000Y5198190D01*
X-16946116Y5430027D01*
X-17036574Y5648413D01*
X-17167899Y5844955D01*
X-17335045Y6012101D01*
X-17531587Y6143426D01*
X-17749973Y6233884D01*
X-17981810Y6280000D01*
X-18218190Y6280000D01*
X-18450027Y6233884D01*
X-18668413Y6143426D01*
X-18864955Y6012101D01*
X-19032101Y5844955D01*
X-19163426Y5648413D01*
X-19253884Y5430027D01*
X-19300000Y5198190D01*
X-20444966Y5198190D01*
X-20231587Y5286574D01*
X-20035045Y5417899D01*
X-19867899Y5585045D01*
X-19736574Y5781587D01*
X-19646116Y5999973D01*
X-19600000Y6231810D01*
X-19600000Y6468190D01*
X-19646116Y6700027D01*
X-19736574Y6918413D01*
X-19867899Y7114955D01*
X-20035045Y7282101D01*
X-20231587Y7413426D01*
X-20449973Y7503884D01*
X-20681810Y7550000D01*
X-20918190Y7550000D01*
X-21150027Y7503884D01*
X-21368413Y7413426D01*
X-21564955Y7282101D01*
X-21732101Y7114955D01*
X-21863426Y6918413D01*
X-21953884Y6700027D01*
X-22000000Y6468190D01*
X-22112387Y6468190D01*
X-21632264Y7959123D01*
X-21391417Y8539148D01*
X-11344116Y8539148D01*
X-11239769Y8294549D01*
X-11089708Y8075007D01*
X-10899700Y7888959D01*
X-10677047Y7743554D01*
X-10457641Y7652673D01*
X-10250214Y7693402D01*
X-10250214Y8746575D01*
X-9850214Y8746575D01*
X-9850214Y7693402D01*
X-9642787Y7652673D01*
X-9398188Y7757020D01*
X-9178646Y7907081D01*
X-8992598Y8097089D01*
X-8847193Y8319742D01*
X-8756312Y8539148D01*
X-8797041Y8746575D01*
X-9850214Y8746575D01*
X-10250214Y8746575D01*
X-11303387Y8746575D01*
X-11344116Y8539148D01*
X-21391417Y8539148D01*
X-21053061Y9354002D01*
X-11344116Y9354002D01*
X-11303387Y9146575D01*
X-10250214Y9146575D01*
X-10250214Y10199748D01*
X-9850214Y10199748D01*
X-9850214Y9146575D01*
X-8797041Y9146575D01*
X-8763093Y9319469D01*
X9003598Y9319469D01*
X9003598Y9171731D01*
X9032420Y9026833D01*
X9088957Y8890342D01*
X9171035Y8767503D01*
X9203598Y8734940D01*
X9203598Y8652898D01*
X9203599Y8652888D01*
X9203598Y6529410D01*
X9200938Y6502402D01*
X9203598Y6475394D01*
X9203598Y6475385D01*
X9211556Y6394584D01*
X9243006Y6290909D01*
X9281845Y6218245D01*
X9294077Y6195360D01*
X9316987Y6167445D01*
X9362808Y6111612D01*
X9383794Y6094389D01*
X11174387Y4303796D01*
X11191610Y4282810D01*
X11275358Y4214079D01*
X11370906Y4163008D01*
X11474581Y4131558D01*
X11555382Y4123600D01*
X11555389Y4123600D01*
X11582400Y4120940D01*
X11609411Y4123600D01*
X13764140Y4123600D01*
X13796703Y4091037D01*
X13919542Y4008959D01*
X14056033Y3952422D01*
X14200931Y3923600D01*
X14348669Y3923600D01*
X14493567Y3952422D01*
X14630058Y4008959D01*
X14752897Y4091037D01*
X14857363Y4195503D01*
X14939441Y4318342D01*
X14995978Y4454833D01*
X15024800Y4599731D01*
X15024800Y4747469D01*
X14995978Y4892367D01*
X14939441Y5028858D01*
X14857363Y5151697D01*
X14752897Y5256163D01*
X14630058Y5338241D01*
X14493567Y5394778D01*
X14348669Y5423600D01*
X14200931Y5423600D01*
X14056033Y5394778D01*
X13919542Y5338241D01*
X13796703Y5256163D01*
X13764140Y5223600D01*
X12714989Y5223600D01*
X12755041Y5283542D01*
X12811578Y5420033D01*
X12840400Y5564931D01*
X12840400Y5712669D01*
X12811578Y5857567D01*
X12755041Y5994058D01*
X12672963Y6116897D01*
X12568497Y6221363D01*
X12445658Y6303441D01*
X12309167Y6359978D01*
X12164269Y6388800D01*
X12118218Y6388800D01*
X11683141Y6823877D01*
X15000000Y6823877D01*
X15000000Y6676139D01*
X15028822Y6531241D01*
X15085359Y6394750D01*
X15167437Y6271911D01*
X15250001Y6189347D01*
X15250000Y3010660D01*
X15217437Y2978097D01*
X15135359Y2855258D01*
X15078822Y2718767D01*
X15050000Y2573869D01*
X15050000Y2426131D01*
X15078822Y2281233D01*
X15135359Y2144742D01*
X15217437Y2021903D01*
X15321903Y1917437D01*
X15444742Y1835359D01*
X15581233Y1778822D01*
X15726131Y1750000D01*
X15873869Y1750000D01*
X16018767Y1778822D01*
X16155258Y1835359D01*
X16278097Y1917437D01*
X16382563Y2021903D01*
X16464641Y2144742D01*
X16521178Y2281233D01*
X16550000Y2426131D01*
X16550000Y2573869D01*
X16533228Y2658190D01*
X16900000Y2658190D01*
X16900000Y2421810D01*
X16946116Y2189973D01*
X17036574Y1971587D01*
X17167899Y1775045D01*
X17335045Y1607899D01*
X17531587Y1476574D01*
X17749973Y1386116D01*
X17981810Y1340000D01*
X18218190Y1340000D01*
X18450027Y1386116D01*
X18455034Y1388190D01*
X19600000Y1388190D01*
X19600000Y1151810D01*
X19646116Y919973D01*
X19736574Y701587D01*
X19867899Y505045D01*
X20035045Y337899D01*
X20231587Y206574D01*
X20449973Y116116D01*
X20681810Y70000D01*
X20918190Y70000D01*
X21150027Y116116D01*
X21368413Y206574D01*
X21564955Y337899D01*
X21732101Y505045D01*
X21863426Y701587D01*
X21953884Y919973D01*
X22000000Y1151810D01*
X22000000Y1388190D01*
X21953884Y1620027D01*
X21863426Y1838413D01*
X21732101Y2034955D01*
X21564955Y2202101D01*
X21368413Y2333426D01*
X21150027Y2423884D01*
X20918190Y2470000D01*
X20681810Y2470000D01*
X20449973Y2423884D01*
X20231587Y2333426D01*
X20035045Y2202101D01*
X19867899Y2034955D01*
X19736574Y1838413D01*
X19646116Y1620027D01*
X19600000Y1388190D01*
X18455034Y1388190D01*
X18668413Y1476574D01*
X18864955Y1607899D01*
X19032101Y1775045D01*
X19163426Y1971587D01*
X19253884Y2189973D01*
X19300000Y2421810D01*
X19300000Y2658190D01*
X19253884Y2890027D01*
X19163426Y3108413D01*
X19032101Y3304955D01*
X18864955Y3472101D01*
X18668413Y3603426D01*
X18450027Y3693884D01*
X18218190Y3740000D01*
X17981810Y3740000D01*
X17749973Y3693884D01*
X17531587Y3603426D01*
X17335045Y3472101D01*
X17167899Y3304955D01*
X17036574Y3108413D01*
X16946116Y2890027D01*
X16900000Y2658190D01*
X16533228Y2658190D01*
X16521178Y2718767D01*
X16464641Y2855258D01*
X16382563Y2978097D01*
X16350000Y3010660D01*
X16350000Y5198190D01*
X16900000Y5198190D01*
X16900000Y4961810D01*
X16946116Y4729973D01*
X17036574Y4511587D01*
X17167899Y4315045D01*
X17335045Y4147899D01*
X17531587Y4016574D01*
X17749973Y3926116D01*
X17981810Y3880000D01*
X18218190Y3880000D01*
X18450027Y3926116D01*
X18668413Y4016574D01*
X18864955Y4147899D01*
X19032101Y4315045D01*
X19163426Y4511587D01*
X19212303Y4629587D01*
X19217437Y4621903D01*
X19321903Y4517437D01*
X19444742Y4435359D01*
X19581233Y4378822D01*
X19724906Y4350244D01*
X19646116Y4160027D01*
X19600000Y3928190D01*
X19600000Y3691810D01*
X19646116Y3459973D01*
X19736574Y3241587D01*
X19867899Y3045045D01*
X20035045Y2877899D01*
X20231587Y2746574D01*
X20449973Y2656116D01*
X20681810Y2610000D01*
X20918190Y2610000D01*
X21150027Y2656116D01*
X21368413Y2746574D01*
X21564955Y2877899D01*
X21732101Y3045045D01*
X21863426Y3241587D01*
X21953884Y3459973D01*
X22000000Y3691810D01*
X22000000Y3928190D01*
X21953884Y4160027D01*
X21863426Y4378413D01*
X21732101Y4574955D01*
X21564955Y4742101D01*
X21368413Y4873426D01*
X21150027Y4963884D01*
X20918190Y5010000D01*
X20681810Y5010000D01*
X20541229Y4982036D01*
X20550000Y5026131D01*
X20550000Y5173869D01*
X20549513Y5176316D01*
X20681810Y5150000D01*
X20918190Y5150000D01*
X21150027Y5196116D01*
X21368413Y5286574D01*
X21564955Y5417899D01*
X21732101Y5585045D01*
X21863426Y5781587D01*
X21953884Y5999973D01*
X22000000Y6231810D01*
X22000000Y6468190D01*
X21953884Y6700027D01*
X21863426Y6918413D01*
X21732101Y7114955D01*
X21564955Y7282101D01*
X21368413Y7413426D01*
X21150027Y7503884D01*
X20918190Y7550000D01*
X20681810Y7550000D01*
X20449973Y7503884D01*
X20231587Y7413426D01*
X20035045Y7282101D01*
X19959683Y7206739D01*
X19959520Y7207044D01*
X19908012Y7269806D01*
X19908007Y7269811D01*
X19890789Y7290791D01*
X19869808Y7308010D01*
X19850000Y7327818D01*
X19850000Y7373869D01*
X19821178Y7518767D01*
X19764641Y7655258D01*
X19682563Y7778097D01*
X19661032Y7799628D01*
X20100000Y7798306D01*
X20168612Y7805064D01*
X20234587Y7825077D01*
X20295391Y7857577D01*
X20348685Y7901315D01*
X20392423Y7954609D01*
X20424923Y8015413D01*
X20444936Y8081388D01*
X20451694Y8150000D01*
X20450000Y8712500D01*
X20362500Y8800000D01*
X19450000Y8800000D01*
X19450000Y8780000D01*
X19050000Y8780000D01*
X19050000Y8800000D01*
X18137500Y8800000D01*
X18050000Y8712500D01*
X18048306Y8150000D01*
X18055064Y8081388D01*
X18075077Y8015413D01*
X18107577Y7954609D01*
X18151315Y7901315D01*
X18204609Y7857577D01*
X18265413Y7825077D01*
X18331388Y7805064D01*
X18400000Y7798306D01*
X18538062Y7798722D01*
X18517437Y7778097D01*
X18435359Y7655258D01*
X18378822Y7518767D01*
X18350000Y7373869D01*
X18350000Y7226131D01*
X18378822Y7081233D01*
X18435359Y6944742D01*
X18517437Y6821903D01*
X18621903Y6717437D01*
X18744742Y6635359D01*
X18881233Y6578822D01*
X18949999Y6565144D01*
X18950000Y5927056D01*
X18864955Y6012101D01*
X18668413Y6143426D01*
X18450027Y6233884D01*
X18218190Y6280000D01*
X17981810Y6280000D01*
X17749973Y6233884D01*
X17531587Y6143426D01*
X17335045Y6012101D01*
X17167899Y5844955D01*
X17036574Y5648413D01*
X16946116Y5430027D01*
X16900000Y5198190D01*
X16350000Y5198190D01*
X16350000Y6298007D01*
X16414641Y6394750D01*
X16471178Y6531241D01*
X16500000Y6676139D01*
X16500000Y6823877D01*
X16471178Y6968775D01*
X16414641Y7105266D01*
X16332563Y7228105D01*
X16228097Y7332571D01*
X16105258Y7414649D01*
X15968767Y7471186D01*
X15823869Y7500008D01*
X15676131Y7500008D01*
X15531233Y7471186D01*
X15394742Y7414649D01*
X15271903Y7332571D01*
X15167437Y7228105D01*
X15085359Y7105266D01*
X15028822Y6968775D01*
X15000000Y6823877D01*
X11683141Y6823877D01*
X11421200Y7085817D01*
X11421200Y8734944D01*
X11453763Y8767507D01*
X11535841Y8890346D01*
X11581261Y9000000D01*
X12964194Y9000000D01*
X12987363Y8764759D01*
X13055981Y8538558D01*
X13167409Y8330090D01*
X13317366Y8147366D01*
X13500090Y7997409D01*
X13708558Y7885981D01*
X13934759Y7817363D01*
X14111050Y7800000D01*
X14228950Y7800000D01*
X14405241Y7817363D01*
X14631442Y7885981D01*
X14839910Y7997409D01*
X15022634Y8147366D01*
X15172591Y8330090D01*
X15284019Y8538558D01*
X15352637Y8764759D01*
X15375806Y9000000D01*
X15504194Y9000000D01*
X15527363Y8764759D01*
X15595981Y8538558D01*
X15707409Y8330090D01*
X15857366Y8147366D01*
X16040090Y7997409D01*
X16248558Y7885981D01*
X16474759Y7817363D01*
X16651050Y7800000D01*
X16768950Y7800000D01*
X16945241Y7817363D01*
X17171442Y7885981D01*
X17379910Y7997409D01*
X17562634Y8147366D01*
X17712591Y8330090D01*
X17824019Y8538558D01*
X17892637Y8764759D01*
X17915806Y9000000D01*
X17892637Y9235241D01*
X17824019Y9461442D01*
X17712591Y9669910D01*
X17564796Y9850000D01*
X18048306Y9850000D01*
X18050000Y9287500D01*
X18137500Y9200000D01*
X19050000Y9200000D01*
X19050000Y10112500D01*
X19450000Y10112500D01*
X19450000Y9200000D01*
X20362500Y9200000D01*
X20450000Y9287500D01*
X20451694Y9850000D01*
X20444936Y9918612D01*
X20424923Y9984587D01*
X20392423Y10045391D01*
X20348685Y10098685D01*
X20295391Y10142423D01*
X20234587Y10174923D01*
X20168612Y10194936D01*
X20100000Y10201694D01*
X19537500Y10200000D01*
X19450000Y10112500D01*
X19050000Y10112500D01*
X18962500Y10200000D01*
X18400000Y10201694D01*
X18331388Y10194936D01*
X18265413Y10174923D01*
X18204609Y10142423D01*
X18151315Y10098685D01*
X18107577Y10045391D01*
X18075077Y9984587D01*
X18055064Y9918612D01*
X18048306Y9850000D01*
X17564796Y9850000D01*
X17562634Y9852634D01*
X17379910Y10002591D01*
X17171442Y10114019D01*
X16945241Y10182637D01*
X16768950Y10200000D01*
X16651050Y10200000D01*
X16474759Y10182637D01*
X16248558Y10114019D01*
X16040090Y10002591D01*
X15857366Y9852634D01*
X15707409Y9669910D01*
X15595981Y9461442D01*
X15527363Y9235241D01*
X15504194Y9000000D01*
X15375806Y9000000D01*
X15352637Y9235241D01*
X15284019Y9461442D01*
X15172591Y9669910D01*
X15022634Y9852634D01*
X14839910Y10002591D01*
X14631442Y10114019D01*
X14405241Y10182637D01*
X14228950Y10200000D01*
X14111050Y10200000D01*
X13934759Y10182637D01*
X13708558Y10114019D01*
X13500090Y10002591D01*
X13317366Y9852634D01*
X13167409Y9669910D01*
X13055981Y9461442D01*
X12987363Y9235241D01*
X12964194Y9000000D01*
X11581261Y9000000D01*
X11592378Y9026837D01*
X11621200Y9171735D01*
X11621200Y9319473D01*
X11592378Y9464371D01*
X11535841Y9600862D01*
X11453763Y9723701D01*
X11349297Y9828167D01*
X11226458Y9910245D01*
X11089967Y9966782D01*
X10945069Y9995604D01*
X10797331Y9995604D01*
X10652433Y9966782D01*
X10515942Y9910245D01*
X10393103Y9828167D01*
X10312397Y9747461D01*
X10231695Y9828163D01*
X10108856Y9910241D01*
X9972365Y9966778D01*
X9827467Y9995600D01*
X9679729Y9995600D01*
X9534831Y9966778D01*
X9398340Y9910241D01*
X9275501Y9828163D01*
X9171035Y9723697D01*
X9088957Y9600858D01*
X9032420Y9464367D01*
X9003598Y9319469D01*
X-8763093Y9319469D01*
X-8756312Y9354002D01*
X-8860659Y9598601D01*
X-9010720Y9818143D01*
X-9200728Y10004191D01*
X-9423381Y10149596D01*
X-9642787Y10240477D01*
X-9850214Y10199748D01*
X-10250214Y10199748D01*
X-10457641Y10240477D01*
X-10702240Y10136130D01*
X-10921782Y9986069D01*
X-11107830Y9796061D01*
X-11253235Y9573408D01*
X-11344116Y9354002D01*
X-21053061Y9354002D01*
X-20907365Y9704875D01*
X-20041858Y11385360D01*
X-19041566Y12989275D01*
X-17913214Y14505835D01*
X-16933845Y15618669D01*
X-9817800Y15618669D01*
X-9817800Y15470931D01*
X-9788978Y15326033D01*
X-9732441Y15189542D01*
X-9650363Y15066703D01*
X-9545897Y14962237D01*
X-9423058Y14880159D01*
X-9286567Y14823622D01*
X-9141669Y14794800D01*
X-9095617Y14794800D01*
X-7896363Y13595546D01*
X-7879140Y13574560D01*
X-7795392Y13505829D01*
X-7699844Y13454758D01*
X-7596169Y13423308D01*
X-7515368Y13415350D01*
X-7515361Y13415350D01*
X-7488350Y13412690D01*
X-7461339Y13415350D01*
X-7332837Y13415350D01*
X-7455258Y13364641D01*
X-7578097Y13282563D01*
X-7682563Y13178097D01*
X-7764641Y13055258D01*
X-7821178Y12918767D01*
X-7850000Y12773869D01*
X-7850000Y12626131D01*
X-7821178Y12481233D01*
X-7764641Y12344742D01*
X-7682563Y12221903D01*
X-7578097Y12117437D01*
X-7455258Y12035359D01*
X-7318767Y11978822D01*
X-7173869Y11950000D01*
X-7127817Y11950000D01*
X-6650000Y11472182D01*
X-6650000Y11426131D01*
X-6621178Y11281233D01*
X-6564641Y11144742D01*
X-6482563Y11021903D01*
X-6378097Y10917437D01*
X-6255258Y10835359D01*
X-6118767Y10778822D01*
X-5973869Y10750000D01*
X-5826131Y10750000D01*
X-5681233Y10778822D01*
X-5544742Y10835359D01*
X-5421903Y10917437D01*
X-5317437Y11021903D01*
X-5235359Y11144742D01*
X-5178822Y11281233D01*
X-5150000Y11426131D01*
X-5150000Y11573869D01*
X-5178822Y11718767D01*
X-5235359Y11855258D01*
X-5317437Y11978097D01*
X-5421903Y12082563D01*
X-5544742Y12164641D01*
X-5681233Y12221178D01*
X-5826131Y12250000D01*
X-5872182Y12250000D01*
X-6350000Y12727817D01*
X-6350000Y12773869D01*
X-6378822Y12918767D01*
X-6435359Y13055258D01*
X-6517437Y13178097D01*
X-6621903Y13282563D01*
X-6744742Y13364641D01*
X-6867163Y13415350D01*
X-3258510Y13415350D01*
X-3225947Y13382787D01*
X-3103108Y13300709D01*
X-2966617Y13244172D01*
X-2821719Y13215350D01*
X-2673981Y13215350D01*
X-2529083Y13244172D01*
X-2392592Y13300709D01*
X-2269753Y13382787D01*
X-2165287Y13487253D01*
X-2083209Y13610092D01*
X-2026672Y13746583D01*
X-1997850Y13891481D01*
X-1997850Y13891955D01*
X-814086Y13891955D01*
X-814086Y13744217D01*
X-785264Y13599319D01*
X-728727Y13462828D01*
X-646649Y13339989D01*
X-542183Y13235523D01*
X-419344Y13153445D01*
X-282853Y13096908D01*
X-137955Y13068086D01*
X9783Y13068086D01*
X154681Y13096908D01*
X291172Y13153445D01*
X414011Y13235523D01*
X496574Y13318086D01*
X1245926Y13318086D01*
X1270486Y13315667D01*
X1295046Y13318086D01*
X1368503Y13325321D01*
X1462753Y13353911D01*
X1549615Y13400340D01*
X1625750Y13462822D01*
X1641415Y13481909D01*
X1785906Y13626400D01*
X1902669Y13626400D01*
X2047567Y13655222D01*
X2184058Y13711759D01*
X2306897Y13793837D01*
X2411363Y13898303D01*
X2493441Y14021142D01*
X2549978Y14157633D01*
X2578800Y14302531D01*
X2578800Y14450269D01*
X2549978Y14595167D01*
X2493441Y14731658D01*
X2411363Y14854497D01*
X2306897Y14958963D01*
X2184058Y15041041D01*
X2047567Y15097578D01*
X1902669Y15126400D01*
X1754931Y15126400D01*
X1610033Y15097578D01*
X1473542Y15041041D01*
X1350703Y14958963D01*
X1246237Y14854497D01*
X1164159Y14731658D01*
X1107622Y14595167D01*
X1078800Y14450269D01*
X1078800Y14333506D01*
X1063380Y14318086D01*
X496574Y14318086D01*
X414011Y14400649D01*
X291172Y14482727D01*
X154681Y14539264D01*
X9783Y14568086D01*
X-137955Y14568086D01*
X-282853Y14539264D01*
X-419344Y14482727D01*
X-542183Y14400649D01*
X-646649Y14296183D01*
X-728727Y14173344D01*
X-785264Y14036853D01*
X-814086Y13891955D01*
X-1997850Y13891955D01*
X-1997850Y14039219D01*
X-2026672Y14184117D01*
X-2083209Y14320608D01*
X-2165287Y14443447D01*
X-2269753Y14547913D01*
X-2392592Y14629991D01*
X-2529083Y14686528D01*
X-2673981Y14715350D01*
X-2821719Y14715350D01*
X-2966617Y14686528D01*
X-3103108Y14629991D01*
X-3225947Y14547913D01*
X-3258510Y14515350D01*
X-7260533Y14515350D01*
X-7332489Y14587306D01*
X-7318767Y14581622D01*
X-7173869Y14552800D01*
X-7026131Y14552800D01*
X-6881233Y14581622D01*
X-6744742Y14638159D01*
X-6621903Y14720237D01*
X-6517437Y14824703D01*
X-6435359Y14947542D01*
X-6378822Y15084033D01*
X-6350000Y15228931D01*
X-6350000Y15274983D01*
X-5774982Y15850000D01*
X-2510660Y15850000D01*
X-2478097Y15817437D01*
X-2355258Y15735359D01*
X-2218767Y15678822D01*
X-2073869Y15650000D01*
X-1926131Y15650000D01*
X-1781233Y15678822D01*
X-1644742Y15735359D01*
X-1521903Y15817437D01*
X-1417437Y15921903D01*
X-1335359Y16044742D01*
X-1278822Y16181233D01*
X-1250000Y16326131D01*
X-1250000Y16473869D01*
X-1278822Y16618767D01*
X-1335359Y16755258D01*
X-1417437Y16878097D01*
X-1521903Y16982563D01*
X-1644742Y17064641D01*
X-1781233Y17121178D01*
X-1926131Y17150000D01*
X-2073869Y17150000D01*
X-2218767Y17121178D01*
X-2355258Y17064641D01*
X-2478097Y16982563D01*
X-2510660Y16950000D01*
X-5975793Y16950000D01*
X-6002801Y16952660D01*
X-6029809Y16950000D01*
X-6029818Y16950000D01*
X-6110619Y16942042D01*
X-6214294Y16910592D01*
X-6253966Y16889387D01*
X-6309843Y16859521D01*
X-6372605Y16808013D01*
X-6372610Y16808008D01*
X-6393590Y16790790D01*
X-6410808Y16769810D01*
X-7127817Y16052800D01*
X-7173869Y16052800D01*
X-7318767Y16023978D01*
X-7455258Y15967441D01*
X-7578097Y15885363D01*
X-7682563Y15780897D01*
X-7764641Y15658058D01*
X-7821178Y15521567D01*
X-7850000Y15376669D01*
X-7850000Y15228931D01*
X-7821178Y15084033D01*
X-7815494Y15070311D01*
X-8317800Y15572617D01*
X-8317800Y15618669D01*
X-8346622Y15763567D01*
X-8403159Y15900058D01*
X-8485237Y16022897D01*
X-8589703Y16127363D01*
X-8712542Y16209441D01*
X-8849033Y16265978D01*
X-8993931Y16294800D01*
X-9141669Y16294800D01*
X-9286567Y16265978D01*
X-9423058Y16209441D01*
X-9545897Y16127363D01*
X-9650363Y16022897D01*
X-9732441Y15900058D01*
X-9788978Y15763567D01*
X-9817800Y15618669D01*
X-16933845Y15618669D01*
X-16664393Y15924840D01*
X-15303499Y17236746D01*
X-15138852Y17371269D01*
X7047800Y17371269D01*
X7047800Y17223531D01*
X7076622Y17078633D01*
X7133159Y16942142D01*
X7215237Y16819303D01*
X7319703Y16714837D01*
X7442542Y16632759D01*
X7579033Y16576222D01*
X7723931Y16547400D01*
X7871669Y16547400D01*
X8016567Y16576222D01*
X8153058Y16632759D01*
X8275897Y16714837D01*
X8380363Y16819303D01*
X8462441Y16942142D01*
X8518978Y17078633D01*
X8547800Y17223531D01*
X8547800Y17269583D01*
X8932719Y17654502D01*
X9017342Y17597959D01*
X9153833Y17541422D01*
X9298731Y17512600D01*
X9446469Y17512600D01*
X9591367Y17541422D01*
X9727858Y17597959D01*
X9850697Y17680037D01*
X9955163Y17784503D01*
X10037241Y17907342D01*
X10093778Y18043833D01*
X10122600Y18188731D01*
X10122600Y18336469D01*
X10093778Y18481367D01*
X10037241Y18617858D01*
X9955163Y18740697D01*
X9850697Y18845163D01*
X9727858Y18927241D01*
X9591367Y18983778D01*
X9446469Y19012600D01*
X9298731Y19012600D01*
X9153833Y18983778D01*
X9017342Y18927241D01*
X8894503Y18845163D01*
X8861940Y18812600D01*
X8790008Y18812600D01*
X8763000Y18815260D01*
X8735992Y18812600D01*
X8735982Y18812600D01*
X8655181Y18804642D01*
X8551506Y18773192D01*
X8490712Y18740697D01*
X8455958Y18722121D01*
X8393195Y18670613D01*
X8393190Y18670608D01*
X8372210Y18653390D01*
X8354992Y18632410D01*
X7769983Y18047400D01*
X7723931Y18047400D01*
X7579033Y18018578D01*
X7442542Y17962041D01*
X7319703Y17879963D01*
X7215237Y17775497D01*
X7133159Y17652658D01*
X7076622Y17516167D01*
X7047800Y17371269D01*
X-15138852Y17371269D01*
X-13839686Y18432731D01*
X-12282798Y19504752D01*
X-10643306Y20445600D01*
X-8932234Y21248946D01*
X-7161092Y21909388D01*
X-5341789Y22422484D01*
X-3486562Y22784784D01*
X-1607887Y22993851D01*
X281602Y23048280D01*
X2169197Y22947703D01*
X2169197Y22947703D01*
G37*
X2169197Y22947703D02*
X4042203Y22692798D01*
X5888025Y22285279D01*
X7694248Y21727886D01*
X9448726Y21024369D01*
X11139659Y20179457D01*
X12755675Y19198835D01*
X14285907Y18089095D01*
X15720062Y16857703D01*
X17048497Y15512938D01*
X18262276Y14063846D01*
X19353238Y12520171D01*
X20314045Y10892295D01*
X21138235Y9191166D01*
X21820265Y7428224D01*
X22355550Y5615326D01*
X22740488Y3764663D01*
X22972492Y1888683D01*
X23050000Y0D01*
X23022481Y-1125987D01*
X22852804Y-3008629D01*
X22529436Y-4871037D01*
X22054553Y-6700686D01*
X21431348Y-8485271D01*
X20664012Y-10212791D01*
X19757706Y-11871628D01*
X18718525Y-13450625D01*
X17553458Y-14939164D01*
X16270340Y-16327233D01*
X14877800Y-17605498D01*
X13385203Y-18765363D01*
X11802588Y-19799026D01*
X10140598Y-20699536D01*
X8410410Y-21460837D01*
X6623660Y-22077809D01*
X4792364Y-22546302D01*
X2928839Y-22863167D01*
X1045617Y-23026272D01*
X-844637Y-23034519D01*
X-2729211Y-22887855D01*
X-4595431Y-22587264D01*
X-6430745Y-22134769D01*
X-8222811Y-21533413D01*
X-9959577Y-20787240D01*
X-11629362Y-19901267D01*
X-13220937Y-18881455D01*
X-14723598Y-17734660D01*
X-16101178Y-16492102D01*
X-11213704Y-16492102D01*
X-11190535Y-16727343D01*
X-11121917Y-16953544D01*
X-11010489Y-17162012D01*
X-10860532Y-17344736D01*
X-10677808Y-17494693D01*
X-10469340Y-17606121D01*
X-10243139Y-17674739D01*
X-10066848Y-17692102D01*
X-9948948Y-17692102D01*
X-9772657Y-17674739D01*
X-9546456Y-17606121D01*
X-9337988Y-17494693D01*
X-9155264Y-17344736D01*
X-9005307Y-17162012D01*
X-8893879Y-16953544D01*
X-8825261Y-16727343D01*
X-8802092Y-16492102D01*
X-8825261Y-16256861D01*
X-8893879Y-16030660D01*
X-9005307Y-15822192D01*
X-9155264Y-15639468D01*
X-9189572Y-15611312D01*
X-8844265Y-15611312D01*
X-8745520Y-15770850D01*
X-8594482Y-15833422D01*
X-8365239Y-15886216D01*
X-8130102Y-15893273D01*
X-7898106Y-15854321D01*
X-7678167Y-15770858D01*
X-7578473Y-15612267D01*
X-8211846Y-14978894D01*
X-8844265Y-15611312D01*
X-9189572Y-15611312D01*
X-9337988Y-15489511D01*
X-9546456Y-15378083D01*
X-9772657Y-15309465D01*
X-9948948Y-15292102D01*
X-10066848Y-15292102D01*
X-10243139Y-15309465D01*
X-10469340Y-15378083D01*
X-10677808Y-15489511D01*
X-10860532Y-15639468D01*
X-11010489Y-15822192D01*
X-11121917Y-16030660D01*
X-11190535Y-16256861D01*
X-11213704Y-16492102D01*
X-16101178Y-16492102D01*
X-16127240Y-16468595D01*
X-17422422Y-15091776D01*
X-17737760Y-14696051D01*
X-13009755Y-14696051D01*
X-12986586Y-14931292D01*
X-12917968Y-15157493D01*
X-12806540Y-15365961D01*
X-12656583Y-15548685D01*
X-12473859Y-15698642D01*
X-12265391Y-15810070D01*
X-12039190Y-15878688D01*
X-11862899Y-15896051D01*
X-11744999Y-15896051D01*
X-11568708Y-15878688D01*
X-11342507Y-15810070D01*
X-11134039Y-15698642D01*
X-10951315Y-15548685D01*
X-10801358Y-15365961D01*
X-10689930Y-15157493D01*
X-10621312Y-14931292D01*
X-10598143Y-14696051D01*
X-10606194Y-14614307D01*
X-9409068Y-14614307D01*
X-9402011Y-14849444D01*
X-9349217Y-15078687D01*
X-9286645Y-15229725D01*
X-9127107Y-15328470D01*
X-8494689Y-14696051D01*
X-7929003Y-14696051D01*
X-7295630Y-15329424D01*
X-7137039Y-15229730D01*
X-7053576Y-15009791D01*
X-7014624Y-14777795D01*
X-7021681Y-14542658D01*
X-7074475Y-14313415D01*
X-7137047Y-14162377D01*
X-7296585Y-14063632D01*
X-7929003Y-14696051D01*
X-8494689Y-14696051D01*
X-9128062Y-14062678D01*
X-9286653Y-14162372D01*
X-9370116Y-14382311D01*
X-9409068Y-14614307D01*
X-10606194Y-14614307D01*
X-10621312Y-14460810D01*
X-10689930Y-14234609D01*
X-10801358Y-14026141D01*
X-10951315Y-13843417D01*
X-11134039Y-13693460D01*
X-11342507Y-13582032D01*
X-11568708Y-13513414D01*
X-11744999Y-13496051D01*
X-11862899Y-13496051D01*
X-12039190Y-13513414D01*
X-12265391Y-13582032D01*
X-12473859Y-13693460D01*
X-12656583Y-13843417D01*
X-12806540Y-14026141D01*
X-12917968Y-14234609D01*
X-12986586Y-14460810D01*
X-13009755Y-14696051D01*
X-17737760Y-14696051D01*
X-18600435Y-13613461D01*
X-19078957Y-12900000D01*
X-15153775Y-12900000D01*
X-15147017Y-12968612D01*
X-15127004Y-13034587D01*
X-15094504Y-13095390D01*
X-15050767Y-13148685D01*
X-13848685Y-14350767D01*
X-13795390Y-14394504D01*
X-13734587Y-14427004D01*
X-13668612Y-14447017D01*
X-13600000Y-14453775D01*
X-13531388Y-14447017D01*
X-13465413Y-14427004D01*
X-13404610Y-14394504D01*
X-13351315Y-14350767D01*
X-12149233Y-13148685D01*
X-12105496Y-13095390D01*
X-12072996Y-13034587D01*
X-12052983Y-12968612D01*
X-12046225Y-12900000D01*
X-11213704Y-12900000D01*
X-11190535Y-13135241D01*
X-11121917Y-13361442D01*
X-11010489Y-13569910D01*
X-10860532Y-13752634D01*
X-10677808Y-13902591D01*
X-10469340Y-14014019D01*
X-10243139Y-14082637D01*
X-10066848Y-14100000D01*
X-9948948Y-14100000D01*
X-9772657Y-14082637D01*
X-9546456Y-14014019D01*
X-9337988Y-13902591D01*
X-9188409Y-13779835D01*
X-8845219Y-13779835D01*
X-8211846Y-14413208D01*
X-7579427Y-13780790D01*
X-7614496Y-13724129D01*
X-4149184Y-13724129D01*
X-4149184Y-13847872D01*
X-3752634Y-14246818D01*
X-3699340Y-14290555D01*
X-3638537Y-14323055D01*
X-3572561Y-14343069D01*
X-3503949Y-14349826D01*
X-3435337Y-14343069D01*
X-3369361Y-14323055D01*
X-3308558Y-14290555D01*
X-3255264Y-14246818D01*
X-2858714Y-13847872D01*
X-2858714Y-13724129D01*
X-3503949Y-13078894D01*
X-4149184Y-13724129D01*
X-7614496Y-13724129D01*
X-7678172Y-13621252D01*
X-7829210Y-13558680D01*
X-8058453Y-13505886D01*
X-8293590Y-13498829D01*
X-8525586Y-13537781D01*
X-8745525Y-13621244D01*
X-8845219Y-13779835D01*
X-9188409Y-13779835D01*
X-9155264Y-13752634D01*
X-9005307Y-13569910D01*
X-8893879Y-13361442D01*
X-8825261Y-13135241D01*
X-8802092Y-12900000D01*
X-8812329Y-12796051D01*
X-5057724Y-12796051D01*
X-5050967Y-12864663D01*
X-5030953Y-12930639D01*
X-4998453Y-12991442D01*
X-4954716Y-13044736D01*
X-4555770Y-13441286D01*
X-4432027Y-13441286D01*
X-3786792Y-12796051D01*
X-3221106Y-12796051D01*
X-2575871Y-13441286D01*
X-2452128Y-13441286D01*
X-2053182Y-13044736D01*
X-2009445Y-12991442D01*
X-1976945Y-12930639D01*
X-1956931Y-12864663D01*
X-1950174Y-12796051D01*
X-1956931Y-12727439D01*
X-1976945Y-12661463D01*
X-2009445Y-12600660D01*
X-2053182Y-12547366D01*
X-2452128Y-12150816D01*
X-2575871Y-12150816D01*
X-3221106Y-12796051D01*
X-3786792Y-12796051D01*
X-4432027Y-12150816D01*
X-4555770Y-12150816D01*
X-4954716Y-12547366D01*
X-4998453Y-12600660D01*
X-5030953Y-12661463D01*
X-5050967Y-12727439D01*
X-5057724Y-12796051D01*
X-8812329Y-12796051D01*
X-8825261Y-12664759D01*
X-8893879Y-12438558D01*
X-9005307Y-12230090D01*
X-9155264Y-12047366D01*
X-9337988Y-11897409D01*
X-9546456Y-11785981D01*
X-9772657Y-11717363D01*
X-9948948Y-11700000D01*
X-10066848Y-11700000D01*
X-10243139Y-11717363D01*
X-10469340Y-11785981D01*
X-10677808Y-11897409D01*
X-10860532Y-12047366D01*
X-11010489Y-12230090D01*
X-11121917Y-12438558D01*
X-11190535Y-12664759D01*
X-11213704Y-12900000D01*
X-12046225Y-12900000D01*
X-12052983Y-12831388D01*
X-12072996Y-12765413D01*
X-12105496Y-12704610D01*
X-12149233Y-12651315D01*
X-13351315Y-11449233D01*
X-13404610Y-11405496D01*
X-13465413Y-11372996D01*
X-13531388Y-11352983D01*
X-13600000Y-11346225D01*
X-13668612Y-11352983D01*
X-13734587Y-11372996D01*
X-13795390Y-11405496D01*
X-13848685Y-11449233D01*
X-15050767Y-12651315D01*
X-15094504Y-12704610D01*
X-15127004Y-12765413D01*
X-15147017Y-12831388D01*
X-15153775Y-12900000D01*
X-19078957Y-12900000D01*
X-19653356Y-12043592D01*
X-20177428Y-11103949D01*
X-13009755Y-11103949D01*
X-12986586Y-11339190D01*
X-12917968Y-11565391D01*
X-12806540Y-11773859D01*
X-12656583Y-11956583D01*
X-12473859Y-12106540D01*
X-12265391Y-12217968D01*
X-12039190Y-12286586D01*
X-11862899Y-12303949D01*
X-11744999Y-12303949D01*
X-11568708Y-12286586D01*
X-11342507Y-12217968D01*
X-11134039Y-12106540D01*
X-10951315Y-11956583D01*
X-10801358Y-11773859D01*
X-10689930Y-11565391D01*
X-10621312Y-11339190D01*
X-10598143Y-11103949D01*
X-10608380Y-11000000D01*
X-6505806Y-11000000D01*
X-6482637Y-11235241D01*
X-6414019Y-11461442D01*
X-6302591Y-11669910D01*
X-6152634Y-11852634D01*
X-5969910Y-12002591D01*
X-5761442Y-12114019D01*
X-5535241Y-12182637D01*
X-5358950Y-12200000D01*
X-5241050Y-12200000D01*
X-5064759Y-12182637D01*
X-4838558Y-12114019D01*
X-4630090Y-12002591D01*
X-4447366Y-11852634D01*
X-4358402Y-11744230D01*
X-4149184Y-11744230D01*
X-4149184Y-11867973D01*
X-3503949Y-12513208D01*
X-2858714Y-11867973D01*
X-2858714Y-11744230D01*
X-3255264Y-11345284D01*
X-3308558Y-11301547D01*
X-3369361Y-11269047D01*
X-3435337Y-11249033D01*
X-3503949Y-11242276D01*
X-3572561Y-11249033D01*
X-3638537Y-11269047D01*
X-3699340Y-11301547D01*
X-3752634Y-11345284D01*
X-4149184Y-11744230D01*
X-4358402Y-11744230D01*
X-4297409Y-11669910D01*
X-4185981Y-11461442D01*
X-4117363Y-11235241D01*
X-4106617Y-11126131D01*
X4150000Y-11126131D01*
X4150000Y-11273869D01*
X4178822Y-11418767D01*
X4235359Y-11555258D01*
X4317437Y-11678097D01*
X4350000Y-11710660D01*
X4350001Y-15789339D01*
X4317437Y-15821903D01*
X4235359Y-15944742D01*
X4178822Y-16081233D01*
X4150000Y-16226131D01*
X4150000Y-16373869D01*
X4178822Y-16518767D01*
X4235359Y-16655258D01*
X4317437Y-16778097D01*
X4421903Y-16882563D01*
X4544742Y-16964641D01*
X4681233Y-17021178D01*
X4826131Y-17050000D01*
X4973869Y-17050000D01*
X5118767Y-17021178D01*
X5255258Y-16964641D01*
X5378097Y-16882563D01*
X5482563Y-16778097D01*
X5564641Y-16655258D01*
X5621178Y-16518767D01*
X5650000Y-16373869D01*
X5650000Y-16226131D01*
X5621178Y-16081233D01*
X5564641Y-15944742D01*
X5482563Y-15821903D01*
X5450000Y-15789340D01*
X5450000Y-11710660D01*
X5482563Y-11678097D01*
X5564641Y-11555258D01*
X5600000Y-11469895D01*
X5635359Y-11555258D01*
X5717437Y-11678097D01*
X5750000Y-11710660D01*
X5750001Y-14989345D01*
X5717437Y-15021909D01*
X5635359Y-15144748D01*
X5578822Y-15281239D01*
X5550000Y-15426137D01*
X5550000Y-15573875D01*
X5578822Y-15718773D01*
X5635359Y-15855264D01*
X5717437Y-15978103D01*
X5821903Y-16082569D01*
X5944742Y-16164647D01*
X6081233Y-16221184D01*
X6226131Y-16250006D01*
X6373869Y-16250006D01*
X6518767Y-16221184D01*
X6655258Y-16164647D01*
X6778097Y-16082569D01*
X6882563Y-15978103D01*
X6964641Y-15855264D01*
X7021178Y-15718773D01*
X7050000Y-15573875D01*
X7050000Y-15426137D01*
X7021178Y-15281239D01*
X6964641Y-15144748D01*
X6882563Y-15021909D01*
X6850000Y-14989346D01*
X6850000Y-11710660D01*
X6882563Y-11678097D01*
X6964641Y-11555258D01*
X7000009Y-11469872D01*
X7035359Y-11555213D01*
X7117437Y-11678052D01*
X7150001Y-11710616D01*
X7150000Y-14089340D01*
X7117437Y-14121903D01*
X7035359Y-14244742D01*
X6978822Y-14381233D01*
X6950000Y-14526131D01*
X6950000Y-14673869D01*
X6978822Y-14818767D01*
X7035359Y-14955258D01*
X7117437Y-15078097D01*
X7221903Y-15182563D01*
X7344742Y-15264641D01*
X7481233Y-15321178D01*
X7626131Y-15350000D01*
X7773869Y-15350000D01*
X7918767Y-15321178D01*
X8055258Y-15264641D01*
X8178097Y-15182563D01*
X8282563Y-15078097D01*
X8364641Y-14955258D01*
X8421178Y-14818767D01*
X8450000Y-14673869D01*
X8450000Y-14526131D01*
X8421178Y-14381233D01*
X8364641Y-14244742D01*
X8282563Y-14121903D01*
X8250000Y-14089340D01*
X8250000Y-11710615D01*
X8282563Y-11678052D01*
X8364641Y-11555213D01*
X8421178Y-11418722D01*
X8450000Y-11273824D01*
X8450000Y-11126086D01*
X8421178Y-10981188D01*
X8364641Y-10844697D01*
X8282563Y-10721858D01*
X8178097Y-10617392D01*
X8055258Y-10535314D01*
X7918767Y-10478777D01*
X7773869Y-10449955D01*
X7626131Y-10449955D01*
X7481233Y-10478777D01*
X7344742Y-10535314D01*
X7221903Y-10617392D01*
X7117437Y-10721858D01*
X7035359Y-10844697D01*
X6999991Y-10930083D01*
X6964641Y-10844742D01*
X6882563Y-10721903D01*
X6778097Y-10617437D01*
X6655258Y-10535359D01*
X6518767Y-10478822D01*
X6373869Y-10450000D01*
X6226131Y-10450000D01*
X6081233Y-10478822D01*
X5944742Y-10535359D01*
X5821903Y-10617437D01*
X5717437Y-10721903D01*
X5635359Y-10844742D01*
X5600000Y-10930105D01*
X5564641Y-10844742D01*
X5482563Y-10721903D01*
X5378097Y-10617437D01*
X5255258Y-10535359D01*
X5118767Y-10478822D01*
X4973869Y-10450000D01*
X4826131Y-10450000D01*
X4681233Y-10478822D01*
X4544742Y-10535359D01*
X4421903Y-10617437D01*
X4317437Y-10721903D01*
X4235359Y-10844742D01*
X4178822Y-10981233D01*
X4150000Y-11126131D01*
X-4106617Y-11126131D01*
X-4094194Y-11000000D01*
X-4117363Y-10764759D01*
X-4185981Y-10538558D01*
X-4297409Y-10330090D01*
X-4447366Y-10147366D01*
X-4630090Y-9997409D01*
X-4838558Y-9885981D01*
X-5064759Y-9817363D01*
X-5241050Y-9800000D01*
X-5358950Y-9800000D01*
X-5535241Y-9817363D01*
X-5761442Y-9885981D01*
X-5969910Y-9997409D01*
X-6152634Y-10147366D01*
X-6302591Y-10330090D01*
X-6414019Y-10538558D01*
X-6482637Y-10764759D01*
X-6505806Y-11000000D01*
X-10608380Y-11000000D01*
X-10621312Y-10868708D01*
X-10689930Y-10642507D01*
X-10801358Y-10434039D01*
X-10951315Y-10251315D01*
X-11134039Y-10101358D01*
X-11342507Y-9989930D01*
X-11568708Y-9921312D01*
X-11744999Y-9903949D01*
X-11862899Y-9903949D01*
X-12039190Y-9921312D01*
X-12265391Y-9989930D01*
X-12473859Y-10101358D01*
X-12656583Y-10251315D01*
X-12806540Y-10434039D01*
X-12917968Y-10642507D01*
X-12986586Y-10868708D01*
X-13009755Y-11103949D01*
X-20177428Y-11103949D01*
X-20574103Y-10392727D01*
X-21114608Y-9203949D01*
X-8301857Y-9203949D01*
X-8278688Y-9439190D01*
X-8210070Y-9665391D01*
X-8098642Y-9873859D01*
X-7948685Y-10056583D01*
X-7765961Y-10206540D01*
X-7557493Y-10317968D01*
X-7331292Y-10386586D01*
X-7155001Y-10403949D01*
X-7037101Y-10403949D01*
X-6860810Y-10386586D01*
X-6634609Y-10317968D01*
X-6426141Y-10206540D01*
X-6243417Y-10056583D01*
X-6093460Y-9873859D01*
X-5982032Y-9665391D01*
X-5913414Y-9439190D01*
X-5890245Y-9203949D01*
X-5913414Y-8968708D01*
X-5982032Y-8742507D01*
X-6093460Y-8534039D01*
X-6243417Y-8351315D01*
X-6395954Y-8226131D01*
X6950000Y-8226131D01*
X6950000Y-8373869D01*
X6978822Y-8518767D01*
X7035359Y-8655258D01*
X7117437Y-8778097D01*
X7221903Y-8882563D01*
X7344742Y-8964641D01*
X7481233Y-9021178D01*
X7626131Y-9050000D01*
X7773869Y-9050000D01*
X7918767Y-9021178D01*
X8055258Y-8964641D01*
X8178097Y-8882563D01*
X8210661Y-8849999D01*
X9989340Y-8849999D01*
X10021903Y-8882562D01*
X10144742Y-8964640D01*
X10281233Y-9021177D01*
X10426131Y-9049999D01*
X10573869Y-9049999D01*
X10718767Y-9021177D01*
X10855258Y-8964640D01*
X10978097Y-8882562D01*
X11082563Y-8778096D01*
X11164641Y-8655257D01*
X11221178Y-8518766D01*
X11250000Y-8373868D01*
X11250000Y-8226130D01*
X11221178Y-8081232D01*
X11164641Y-7944741D01*
X11101337Y-7850000D01*
X11718448Y-7850000D01*
X11836742Y-7929041D01*
X11973233Y-7985578D01*
X12118131Y-8014400D01*
X12265869Y-8014400D01*
X12410767Y-7985578D01*
X12547258Y-7929041D01*
X12670097Y-7846963D01*
X12774563Y-7742497D01*
X12856641Y-7619658D01*
X12913178Y-7483167D01*
X12942000Y-7338269D01*
X12942000Y-7190531D01*
X12913178Y-7045633D01*
X12856641Y-6909142D01*
X12774563Y-6786303D01*
X12670097Y-6681837D01*
X12547258Y-6599759D01*
X12410767Y-6543222D01*
X12265869Y-6514400D01*
X12118131Y-6514400D01*
X11973233Y-6543222D01*
X11836742Y-6599759D01*
X11713903Y-6681837D01*
X11645740Y-6750000D01*
X8810660Y-6750000D01*
X8778097Y-6717437D01*
X8655258Y-6635359D01*
X8518767Y-6578822D01*
X8373869Y-6550000D01*
X8226131Y-6550000D01*
X8081233Y-6578822D01*
X7944742Y-6635359D01*
X7821903Y-6717437D01*
X7717437Y-6821903D01*
X7635359Y-6944742D01*
X7578822Y-7081233D01*
X7550000Y-7226131D01*
X7550000Y-7373869D01*
X7578822Y-7518767D01*
X7594376Y-7556317D01*
X7481233Y-7578822D01*
X7344742Y-7635359D01*
X7221903Y-7717437D01*
X7117437Y-7821903D01*
X7035359Y-7944742D01*
X6978822Y-8081233D01*
X6950000Y-8226131D01*
X-6395954Y-8226131D01*
X-6426141Y-8201358D01*
X-6634609Y-8089930D01*
X-6860810Y-8021312D01*
X-7037101Y-8003949D01*
X-7155001Y-8003949D01*
X-7331292Y-8021312D01*
X-7557493Y-8089930D01*
X-7765961Y-8201358D01*
X-7948685Y-8351315D01*
X-8098642Y-8534039D01*
X-8210070Y-8742507D01*
X-8278688Y-8968708D01*
X-8301857Y-9203949D01*
X-21114608Y-9203949D01*
X-21356485Y-8671969D01*
X-21404069Y-8539434D01*
X-18736591Y-8539434D01*
X-18637134Y-8699563D01*
X-18416200Y-8783609D01*
X-18183115Y-8822938D01*
X-17946836Y-8816039D01*
X-17716444Y-8763177D01*
X-17562866Y-8699563D01*
X-17463409Y-8539434D01*
X-18100000Y-7902843D01*
X-18736591Y-8539434D01*
X-21404069Y-8539434D01*
X-21995240Y-6892890D01*
X-22172994Y-6231810D01*
X-22000000Y-6231810D01*
X-22000000Y-6468190D01*
X-21953884Y-6700027D01*
X-21863426Y-6918413D01*
X-21732101Y-7114955D01*
X-21564955Y-7282101D01*
X-21368413Y-7413426D01*
X-21150027Y-7503884D01*
X-20918190Y-7550000D01*
X-20681810Y-7550000D01*
X-20615878Y-7536885D01*
X-19302938Y-7536885D01*
X-19296039Y-7773164D01*
X-19243177Y-8003556D01*
X-19179563Y-8157134D01*
X-19019434Y-8256591D01*
X-18382843Y-7620000D01*
X-17817157Y-7620000D01*
X-17180566Y-8256591D01*
X-17020437Y-8157134D01*
X-16936391Y-7936200D01*
X-16897062Y-7703115D01*
X-16903961Y-7466836D01*
X-16956823Y-7236444D01*
X-17020437Y-7082866D01*
X-17180566Y-6983409D01*
X-17817157Y-7620000D01*
X-18382843Y-7620000D01*
X-19019434Y-6983409D01*
X-19179563Y-7082866D01*
X-19263609Y-7303800D01*
X-19302938Y-7536885D01*
X-20615878Y-7536885D01*
X-20449973Y-7503884D01*
X-20231587Y-7413426D01*
X-20035045Y-7282101D01*
X-19867899Y-7114955D01*
X-19736574Y-6918413D01*
X-19646340Y-6700566D01*
X-18736591Y-6700566D01*
X-18100000Y-7337157D01*
X-17463409Y-6700566D01*
X-17562866Y-6540437D01*
X-17783800Y-6456391D01*
X-18016885Y-6417062D01*
X-18253164Y-6423961D01*
X-18483556Y-6476823D01*
X-18637134Y-6540437D01*
X-18736591Y-6700566D01*
X-19646340Y-6700566D01*
X-19646116Y-6700027D01*
X-19600000Y-6468190D01*
X-19600000Y-6231810D01*
X-19646116Y-5999973D01*
X-19646339Y-5999434D01*
X-18736591Y-5999434D01*
X-18637134Y-6159563D01*
X-18416200Y-6243609D01*
X-18183115Y-6282938D01*
X-17946836Y-6276039D01*
X-17716444Y-6223177D01*
X-17562866Y-6159563D01*
X-17463409Y-5999434D01*
X-18100000Y-5362843D01*
X-18736591Y-5999434D01*
X-19646339Y-5999434D01*
X-19736574Y-5781587D01*
X-19867899Y-5585045D01*
X-20035045Y-5417899D01*
X-20231587Y-5286574D01*
X-20449973Y-5196116D01*
X-20681810Y-5150000D01*
X-20918190Y-5150000D01*
X-21150027Y-5196116D01*
X-21368413Y-5286574D01*
X-21564955Y-5417899D01*
X-21732101Y-5585045D01*
X-21863426Y-5781587D01*
X-21953884Y-5999973D01*
X-22000000Y-6231810D01*
X-22172994Y-6231810D01*
X-22486071Y-5067455D01*
X-22737308Y-3691810D01*
X-22000000Y-3691810D01*
X-22000000Y-3928190D01*
X-21953884Y-4160027D01*
X-21863426Y-4378413D01*
X-21732101Y-4574955D01*
X-21564955Y-4742101D01*
X-21368413Y-4873426D01*
X-21150027Y-4963884D01*
X-20918190Y-5010000D01*
X-20681810Y-5010000D01*
X-20615878Y-4996885D01*
X-19302938Y-4996885D01*
X-19296039Y-5233164D01*
X-19243177Y-5463556D01*
X-19179563Y-5617134D01*
X-19019434Y-5716591D01*
X-18382843Y-5080000D01*
X-17817157Y-5080000D01*
X-17180566Y-5716591D01*
X-17020437Y-5617134D01*
X-16936391Y-5396200D01*
X-16897062Y-5163115D01*
X-16903961Y-4926836D01*
X-16956823Y-4696444D01*
X-17020437Y-4542866D01*
X-17180566Y-4443409D01*
X-17817157Y-5080000D01*
X-18382843Y-5080000D01*
X-19019434Y-4443409D01*
X-19179563Y-4542866D01*
X-19263609Y-4763800D01*
X-19302938Y-4996885D01*
X-20615878Y-4996885D01*
X-20449973Y-4963884D01*
X-20231587Y-4873426D01*
X-20035045Y-4742101D01*
X-19867899Y-4574955D01*
X-19736574Y-4378413D01*
X-19646340Y-4160566D01*
X-18736591Y-4160566D01*
X-18100000Y-4797157D01*
X-17463409Y-4160566D01*
X-17562866Y-4000437D01*
X-17783800Y-3916391D01*
X-18016885Y-3877062D01*
X-18253164Y-3883961D01*
X-18483556Y-3936823D01*
X-18637134Y-4000437D01*
X-18736591Y-4160566D01*
X-19646340Y-4160566D01*
X-19646116Y-4160027D01*
X-19600000Y-3928190D01*
X-19600000Y-3691810D01*
X-19646116Y-3459973D01*
X-19646339Y-3459434D01*
X-18736591Y-3459434D01*
X-18637134Y-3619563D01*
X-18416200Y-3703609D01*
X-18183115Y-3742938D01*
X-17946836Y-3736039D01*
X-17716444Y-3683177D01*
X-17562866Y-3619563D01*
X-17463409Y-3459434D01*
X-17696712Y-3226131D01*
X-14450000Y-3226131D01*
X-14450000Y-3373869D01*
X-14421178Y-3518767D01*
X-14364641Y-3655258D01*
X-14350000Y-3677170D01*
X-14349999Y-6068069D01*
X-14353144Y-6100000D01*
X-14340594Y-6227422D01*
X-14303427Y-6349947D01*
X-14243070Y-6462868D01*
X-14182198Y-6537040D01*
X-14182195Y-6537043D01*
X-14161842Y-6561843D01*
X-14137043Y-6582195D01*
X-13282196Y-7437043D01*
X-13261843Y-7461843D01*
X-13237043Y-7482196D01*
X-13237041Y-7482198D01*
X-13210616Y-7503884D01*
X-13162868Y-7543070D01*
X-13049948Y-7603427D01*
X-12927422Y-7640595D01*
X-12831932Y-7650000D01*
X-12831922Y-7650000D01*
X-12800001Y-7653144D01*
X-12768080Y-7650000D01*
X-12450000Y-7650000D01*
X-12449999Y-7922829D01*
X-12464641Y-7944742D01*
X-12521178Y-8081233D01*
X-12550000Y-8226131D01*
X-12550000Y-8373869D01*
X-12521178Y-8518767D01*
X-12464641Y-8655258D01*
X-12382563Y-8778097D01*
X-12278097Y-8882563D01*
X-12155258Y-8964641D01*
X-12018767Y-9021178D01*
X-11873869Y-9050000D01*
X-11726131Y-9050000D01*
X-11581233Y-9021178D01*
X-11444742Y-8964641D01*
X-11321903Y-8882563D01*
X-11217437Y-8778097D01*
X-11135359Y-8655258D01*
X-11078822Y-8518767D01*
X-11050000Y-8373869D01*
X-11050000Y-8226131D01*
X-11078822Y-8081233D01*
X-11135359Y-7944742D01*
X-11150000Y-7922830D01*
X-11150000Y-7650000D01*
X-7977170Y-7650000D01*
X-7955258Y-7664641D01*
X-7818767Y-7721178D01*
X-7673869Y-7750000D01*
X-7526131Y-7750000D01*
X-7381233Y-7721178D01*
X-7244742Y-7664641D01*
X-7121903Y-7582563D01*
X-7017437Y-7478097D01*
X-6935359Y-7355258D01*
X-6878822Y-7218767D01*
X-6850000Y-7073869D01*
X-6850000Y-6926131D01*
X-6878822Y-6781233D01*
X-6935359Y-6644742D01*
X-7017437Y-6521903D01*
X-7121903Y-6417437D01*
X-7244742Y-6335359D01*
X-7381233Y-6278822D01*
X-7526131Y-6250000D01*
X-7673869Y-6250000D01*
X-7818767Y-6278822D01*
X-7955258Y-6335359D01*
X-7977170Y-6350000D01*
X-11668080Y-6350000D01*
X-11700001Y-6346856D01*
X-11731922Y-6350000D01*
X-12530761Y-6350000D01*
X-13050000Y-5830762D01*
X-13050000Y-3677170D01*
X-13035359Y-3655258D01*
X-12978822Y-3518767D01*
X-12950000Y-3373869D01*
X-12950000Y-3226131D01*
X-12978822Y-3081233D01*
X-13035359Y-2944742D01*
X-13117437Y-2821903D01*
X-13117609Y-2821731D01*
X-12180000Y-2821731D01*
X-12180000Y-2969469D01*
X-12151178Y-3114367D01*
X-12094641Y-3250858D01*
X-12012563Y-3373697D01*
X-11908097Y-3478163D01*
X-11785258Y-3560241D01*
X-11648767Y-3616778D01*
X-11503869Y-3645600D01*
X-11457818Y-3645600D01*
X-11399806Y-3703612D01*
X-11399801Y-3703616D01*
X-10833608Y-4269809D01*
X-10816390Y-4290790D01*
X-10795410Y-4308008D01*
X-10795405Y-4308013D01*
X-10732643Y-4359521D01*
X-10689533Y-4382563D01*
X-10637094Y-4410592D01*
X-10533419Y-4442042D01*
X-10452618Y-4450000D01*
X-10452609Y-4450000D01*
X-10425601Y-4452660D01*
X-10398593Y-4450000D01*
X-7710649Y-4450000D01*
X-7678086Y-4482563D01*
X-7555247Y-4564641D01*
X-7418756Y-4621178D01*
X-7273858Y-4650000D01*
X-7126120Y-4650000D01*
X-6981222Y-4621178D01*
X-6844731Y-4564641D01*
X-6721892Y-4482563D01*
X-6617426Y-4378097D01*
X-6535348Y-4255258D01*
X-6478811Y-4118767D01*
X-6449989Y-3973869D01*
X-6449989Y-3826131D01*
X-6478811Y-3681233D01*
X-6535348Y-3544742D01*
X-6617426Y-3421903D01*
X-6721892Y-3317437D01*
X-6844731Y-3235359D01*
X-6981222Y-3178822D01*
X-7126120Y-3150000D01*
X-7273858Y-3150000D01*
X-7418756Y-3178822D01*
X-7555247Y-3235359D01*
X-7678086Y-3317437D01*
X-7710649Y-3350000D01*
X-10197782Y-3350000D01*
X-10621984Y-2925799D01*
X-10621988Y-2925794D01*
X-10680000Y-2867782D01*
X-10680000Y-2821731D01*
X-10708822Y-2676833D01*
X-10765359Y-2540342D01*
X-10847437Y-2417503D01*
X-10951903Y-2313037D01*
X-11074742Y-2230959D01*
X-11211233Y-2174422D01*
X-11356131Y-2145600D01*
X-11503869Y-2145600D01*
X-11648767Y-2174422D01*
X-11785258Y-2230959D01*
X-11908097Y-2313037D01*
X-12012563Y-2417503D01*
X-12094641Y-2540342D01*
X-12151178Y-2676833D01*
X-12180000Y-2821731D01*
X-13117609Y-2821731D01*
X-13221903Y-2717437D01*
X-13344742Y-2635359D01*
X-13481233Y-2578822D01*
X-13626131Y-2550000D01*
X-13773869Y-2550000D01*
X-13918767Y-2578822D01*
X-14055258Y-2635359D01*
X-14178097Y-2717437D01*
X-14282563Y-2821903D01*
X-14364641Y-2944742D01*
X-14421178Y-3081233D01*
X-14450000Y-3226131D01*
X-17696712Y-3226131D01*
X-18100000Y-2822843D01*
X-18736591Y-3459434D01*
X-19646339Y-3459434D01*
X-19736574Y-3241587D01*
X-19867899Y-3045045D01*
X-20035045Y-2877899D01*
X-20231587Y-2746574D01*
X-20449973Y-2656116D01*
X-20681810Y-2610000D01*
X-20918190Y-2610000D01*
X-21150027Y-2656116D01*
X-21368413Y-2746574D01*
X-21564955Y-2877899D01*
X-21732101Y-3045045D01*
X-21863426Y-3241587D01*
X-21953884Y-3459973D01*
X-22000000Y-3691810D01*
X-22737308Y-3691810D01*
X-22825679Y-3207940D01*
X-23011779Y-1326851D01*
X-23014681Y-1151810D01*
X-22000000Y-1151810D01*
X-22000000Y-1388190D01*
X-21953884Y-1620027D01*
X-21863426Y-1838413D01*
X-21732101Y-2034955D01*
X-21564955Y-2202101D01*
X-21368413Y-2333426D01*
X-21150027Y-2423884D01*
X-20918190Y-2470000D01*
X-20681810Y-2470000D01*
X-20615878Y-2456885D01*
X-19302938Y-2456885D01*
X-19296039Y-2693164D01*
X-19243177Y-2923556D01*
X-19179563Y-3077134D01*
X-19019434Y-3176591D01*
X-18382843Y-2540000D01*
X-17817157Y-2540000D01*
X-17180566Y-3176591D01*
X-17020437Y-3077134D01*
X-16936391Y-2856200D01*
X-16897062Y-2623115D01*
X-16903961Y-2386836D01*
X-16956823Y-2156444D01*
X-17020437Y-2002866D01*
X-17180566Y-1903409D01*
X-17817157Y-2540000D01*
X-18382843Y-2540000D01*
X-19019434Y-1903409D01*
X-19179563Y-2002866D01*
X-19263609Y-2223800D01*
X-19302938Y-2456885D01*
X-20615878Y-2456885D01*
X-20449973Y-2423884D01*
X-20231587Y-2333426D01*
X-20035045Y-2202101D01*
X-19867899Y-2034955D01*
X-19736574Y-1838413D01*
X-19646340Y-1620566D01*
X-18736591Y-1620566D01*
X-18100000Y-2257157D01*
X-17463409Y-1620566D01*
X-17562866Y-1460437D01*
X-17783800Y-1376391D01*
X-18016885Y-1337062D01*
X-18253164Y-1343961D01*
X-18483556Y-1396823D01*
X-18637134Y-1460437D01*
X-18736591Y-1620566D01*
X-19646340Y-1620566D01*
X-19646116Y-1620027D01*
X-19600000Y-1388190D01*
X-19600000Y-1151810D01*
X-19646116Y-919973D01*
X-19736574Y-701587D01*
X-19867899Y-505045D01*
X-20035045Y-337899D01*
X-20231587Y-206574D01*
X-20449973Y-116116D01*
X-20681810Y-70000D01*
X-20918190Y-70000D01*
X-21150027Y-116116D01*
X-21368413Y-206574D01*
X-21564955Y-337899D01*
X-21732101Y-505045D01*
X-21863426Y-701587D01*
X-21953884Y-919973D01*
X-22000000Y-1151810D01*
X-23014681Y-1151810D01*
X-23043119Y563162D01*
X-22989045Y1388190D01*
X-22000000Y1388190D01*
X-22000000Y1151810D01*
X-21953884Y919973D01*
X-21863426Y701587D01*
X-21732101Y505045D01*
X-21564955Y337899D01*
X-21368413Y206574D01*
X-21150027Y116116D01*
X-20918190Y70000D01*
X-20681810Y70000D01*
X-20449973Y116116D01*
X-20444966Y118190D01*
X-19300000Y118190D01*
X-19300000Y-118190D01*
X-19253884Y-350027D01*
X-19163426Y-568413D01*
X-19032101Y-764955D01*
X-18864955Y-932101D01*
X-18668413Y-1063426D01*
X-18450027Y-1153884D01*
X-18218190Y-1200000D01*
X-17981810Y-1200000D01*
X-17749973Y-1153884D01*
X-17531587Y-1063426D01*
X-17335045Y-932101D01*
X-17167899Y-764955D01*
X-17036574Y-568413D01*
X-16946116Y-350027D01*
X-16900000Y-118190D01*
X-16900000Y118190D01*
X-16946116Y350027D01*
X-17036574Y568413D01*
X-17167899Y764955D01*
X-17335045Y932101D01*
X-17531587Y1063426D01*
X-17749973Y1153884D01*
X-17981810Y1200000D01*
X-18218190Y1200000D01*
X-18450027Y1153884D01*
X-18668413Y1063426D01*
X-18864955Y932101D01*
X-19032101Y764955D01*
X-19163426Y568413D01*
X-19253884Y350027D01*
X-19300000Y118190D01*
X-20444966Y118190D01*
X-20231587Y206574D01*
X-20035045Y337899D01*
X-19867899Y505045D01*
X-19736574Y701587D01*
X-19646116Y919973D01*
X-19600000Y1151810D01*
X-19600000Y1388190D01*
X-19646116Y1620027D01*
X-19736574Y1838413D01*
X-19867899Y2034955D01*
X-20035045Y2202101D01*
X-20231587Y2333426D01*
X-20449973Y2423884D01*
X-20681810Y2470000D01*
X-20918190Y2470000D01*
X-21150027Y2423884D01*
X-21368413Y2333426D01*
X-21564955Y2202101D01*
X-21732101Y2034955D01*
X-21863426Y1838413D01*
X-21953884Y1620027D01*
X-22000000Y1388190D01*
X-22989045Y1388190D01*
X-22919490Y2449387D01*
X-22699801Y3928190D01*
X-22000000Y3928190D01*
X-22000000Y3691810D01*
X-21953884Y3459973D01*
X-21863426Y3241587D01*
X-21732101Y3045045D01*
X-21564955Y2877899D01*
X-21368413Y2746574D01*
X-21150027Y2656116D01*
X-20918190Y2610000D01*
X-20681810Y2610000D01*
X-20449973Y2656116D01*
X-20444966Y2658190D01*
X-19300000Y2658190D01*
X-19300000Y2421810D01*
X-19253884Y2189973D01*
X-19163426Y1971587D01*
X-19032101Y1775045D01*
X-18864955Y1607899D01*
X-18668413Y1476574D01*
X-18450027Y1386116D01*
X-18218190Y1340000D01*
X-17981810Y1340000D01*
X-17962360Y1343869D01*
X-16650000Y1343869D01*
X-16650000Y1196131D01*
X-16621178Y1051233D01*
X-16564641Y914742D01*
X-16482563Y791903D01*
X-16378097Y687437D01*
X-16255258Y605359D01*
X-16118767Y548822D01*
X-15973869Y520000D01*
X-15826131Y520000D01*
X-15750000Y535143D01*
X-15750000Y396131D01*
X-15721178Y251233D01*
X-15664641Y114742D01*
X-15582563Y-8097D01*
X-15478097Y-112563D01*
X-15355258Y-194641D01*
X-15218767Y-251178D01*
X-15073869Y-280000D01*
X-14926131Y-280000D01*
X-14781233Y-251178D01*
X-14644742Y-194641D01*
X-14521903Y-112563D01*
X-14417437Y-8097D01*
X-14335359Y114742D01*
X-14278822Y251233D01*
X-14250000Y396131D01*
X-14250000Y429469D01*
X-10960800Y429469D01*
X-10960800Y281731D01*
X-10931978Y136833D01*
X-10875441Y342D01*
X-10793363Y-122497D01*
X-10760800Y-155060D01*
X-10760800Y-1004596D01*
X-10763460Y-1031604D01*
X-10760800Y-1058612D01*
X-10760800Y-1058621D01*
X-10752842Y-1139422D01*
X-10721392Y-1243097D01*
X-10670321Y-1338646D01*
X-10601590Y-1422394D01*
X-10580604Y-1439617D01*
X-9452404Y-2567818D01*
X-9452404Y-2613869D01*
X-9423582Y-2758767D01*
X-9367045Y-2895258D01*
X-9284967Y-3018097D01*
X-9180501Y-3122563D01*
X-9057662Y-3204641D01*
X-8921171Y-3261178D01*
X-8776273Y-3290000D01*
X-8628535Y-3290000D01*
X-8483637Y-3261178D01*
X-8347146Y-3204641D01*
X-8224307Y-3122563D01*
X-8119841Y-3018097D01*
X-8037763Y-2895258D01*
X-7981226Y-2758767D01*
X-7952404Y-2613869D01*
X-7952404Y-2466131D01*
X-7981226Y-2321233D01*
X-8037763Y-2184742D01*
X-8119841Y-2061903D01*
X-8224307Y-1957437D01*
X-8347146Y-1875359D01*
X-8483637Y-1818822D01*
X-8628535Y-1790000D01*
X-8674586Y-1790000D01*
X-9114799Y-1349788D01*
X-9065469Y-1359600D01*
X-8917731Y-1359600D01*
X-8772833Y-1330778D01*
X-8636342Y-1274241D01*
X-8513503Y-1192163D01*
X-8494579Y-1173239D01*
X-7310412Y-2357405D01*
X-7252400Y-2415417D01*
X-7252400Y-2461469D01*
X-7223578Y-2606367D01*
X-7167041Y-2742858D01*
X-7084963Y-2865697D01*
X-6980497Y-2970163D01*
X-6857658Y-3052241D01*
X-6721167Y-3108778D01*
X-6576269Y-3137600D01*
X-6428531Y-3137600D01*
X-6283633Y-3108778D01*
X-6147142Y-3052241D01*
X-6024303Y-2970163D01*
X-5919837Y-2865697D01*
X-5837759Y-2742858D01*
X-5781222Y-2606367D01*
X-5752400Y-2461469D01*
X-5752400Y-2313731D01*
X-5781222Y-2168833D01*
X-5837759Y-2032342D01*
X-5919837Y-1909503D01*
X-6024303Y-1805037D01*
X-6147142Y-1722959D01*
X-6283633Y-1666422D01*
X-6428531Y-1637600D01*
X-6474583Y-1637600D01*
X-7786052Y-326131D01*
X-4750000Y-326131D01*
X-4750000Y-473869D01*
X-4721178Y-618767D01*
X-4664641Y-755258D01*
X-4582563Y-878097D01*
X-4478097Y-982563D01*
X-4355258Y-1064641D01*
X-4218767Y-1121178D01*
X-4073869Y-1150000D01*
X-4027817Y-1150000D01*
X363395Y-5541212D01*
X378822Y-5618767D01*
X435359Y-5755258D01*
X517437Y-5878097D01*
X621903Y-5982563D01*
X744742Y-6064641D01*
X881233Y-6121178D01*
X1026131Y-6150000D01*
X1173869Y-6150000D01*
X1318767Y-6121178D01*
X1455258Y-6064641D01*
X1578097Y-5982563D01*
X1682563Y-5878097D01*
X1764641Y-5755258D01*
X1821178Y-5618767D01*
X1850000Y-5473869D01*
X1850000Y-5326131D01*
X1821178Y-5181233D01*
X1764641Y-5044742D01*
X1682563Y-4921903D01*
X1578097Y-4817437D01*
X1455258Y-4735359D01*
X1318767Y-4678822D01*
X1173869Y-4650000D01*
X1027817Y-4650000D01*
X103948Y-3726131D01*
X6550002Y-3726131D01*
X6550002Y-3873869D01*
X6578824Y-4018767D01*
X6635361Y-4155258D01*
X6717439Y-4278097D01*
X6821905Y-4382563D01*
X6944744Y-4464641D01*
X7081235Y-4521178D01*
X7226133Y-4550000D01*
X7373871Y-4550000D01*
X7518769Y-4521178D01*
X7655260Y-4464641D01*
X7778099Y-4382563D01*
X7810662Y-4350000D01*
X13199431Y-4350000D01*
X13303593Y-4419599D01*
X13187103Y-4497435D01*
X13082637Y-4601901D01*
X13000559Y-4724740D01*
X12944022Y-4861231D01*
X12915200Y-5006129D01*
X12915200Y-5153867D01*
X12944022Y-5298765D01*
X13000559Y-5435256D01*
X13082637Y-5558095D01*
X13115200Y-5590658D01*
X13115200Y-5672700D01*
X13115201Y-5672710D01*
X13115200Y-8006984D01*
X13072184Y-8050000D01*
X13026132Y-8050000D01*
X12881234Y-8078822D01*
X12744743Y-8135359D01*
X12621904Y-8217437D01*
X12517438Y-8321903D01*
X12435360Y-8444742D01*
X12378823Y-8581233D01*
X12350001Y-8726131D01*
X12350001Y-8873869D01*
X12378823Y-9018767D01*
X12435360Y-9155258D01*
X12517438Y-9278097D01*
X12621904Y-9382563D01*
X12744743Y-9464641D01*
X12881234Y-9521178D01*
X13026132Y-9550000D01*
X13173870Y-9550000D01*
X13318768Y-9521178D01*
X13455259Y-9464641D01*
X13578098Y-9382563D01*
X13682564Y-9278097D01*
X13764642Y-9155258D01*
X13775001Y-9130251D01*
X13785359Y-9155258D01*
X13867437Y-9278097D01*
X13971903Y-9382563D01*
X14094742Y-9464641D01*
X14231233Y-9521178D01*
X14376131Y-9550000D01*
X14523869Y-9550000D01*
X14668767Y-9521178D01*
X14805258Y-9464641D01*
X14928097Y-9382563D01*
X15032563Y-9278097D01*
X15114641Y-9155258D01*
X15125000Y-9130249D01*
X15135359Y-9155258D01*
X15217437Y-9278097D01*
X15321903Y-9382563D01*
X15444742Y-9464641D01*
X15581233Y-9521178D01*
X15726131Y-9550000D01*
X15873869Y-9550000D01*
X16018767Y-9521178D01*
X16155258Y-9464641D01*
X16278097Y-9382563D01*
X16382563Y-9278097D01*
X16464641Y-9155258D01*
X16521178Y-9018767D01*
X16550000Y-8873869D01*
X16550000Y-8726131D01*
X16521178Y-8581233D01*
X16464641Y-8444742D01*
X16382563Y-8321903D01*
X16350000Y-8289340D01*
X16350000Y-7501810D01*
X16900000Y-7501810D01*
X16900000Y-7738190D01*
X16946116Y-7970027D01*
X17036574Y-8188413D01*
X17167899Y-8384955D01*
X17335045Y-8552101D01*
X17531587Y-8683426D01*
X17749973Y-8773884D01*
X17981810Y-8820000D01*
X18218190Y-8820000D01*
X18450027Y-8773884D01*
X18668413Y-8683426D01*
X18864955Y-8552101D01*
X19032101Y-8384955D01*
X19163426Y-8188413D01*
X19253884Y-7970027D01*
X19300000Y-7738190D01*
X19300000Y-7501810D01*
X19253884Y-7269973D01*
X19163426Y-7051587D01*
X19032101Y-6855045D01*
X18864955Y-6687899D01*
X18668413Y-6556574D01*
X18450027Y-6466116D01*
X18218190Y-6420000D01*
X17981810Y-6420000D01*
X17749973Y-6466116D01*
X17531587Y-6556574D01*
X17335045Y-6687899D01*
X17167899Y-6855045D01*
X17036574Y-7051587D01*
X16946116Y-7269973D01*
X16900000Y-7501810D01*
X16350000Y-7501810D01*
X16350000Y-4961810D01*
X16900000Y-4961810D01*
X16900000Y-5198190D01*
X16946116Y-5430027D01*
X17036574Y-5648413D01*
X17167899Y-5844955D01*
X17335045Y-6012101D01*
X17531587Y-6143426D01*
X17749973Y-6233884D01*
X17981810Y-6280000D01*
X18218190Y-6280000D01*
X18450027Y-6233884D01*
X18455034Y-6231810D01*
X19600000Y-6231810D01*
X19600000Y-6468190D01*
X19646116Y-6700027D01*
X19736574Y-6918413D01*
X19867899Y-7114955D01*
X20035045Y-7282101D01*
X20231587Y-7413426D01*
X20449973Y-7503884D01*
X20681810Y-7550000D01*
X20918190Y-7550000D01*
X21150027Y-7503884D01*
X21368413Y-7413426D01*
X21564955Y-7282101D01*
X21732101Y-7114955D01*
X21863426Y-6918413D01*
X21953884Y-6700027D01*
X22000000Y-6468190D01*
X22000000Y-6231810D01*
X21953884Y-5999973D01*
X21863426Y-5781587D01*
X21732101Y-5585045D01*
X21564955Y-5417899D01*
X21368413Y-5286574D01*
X21150027Y-5196116D01*
X20918190Y-5150000D01*
X20681810Y-5150000D01*
X20449973Y-5196116D01*
X20231587Y-5286574D01*
X20035045Y-5417899D01*
X19867899Y-5585045D01*
X19736574Y-5781587D01*
X19646116Y-5999973D01*
X19600000Y-6231810D01*
X18455034Y-6231810D01*
X18668413Y-6143426D01*
X18864955Y-6012101D01*
X19032101Y-5844955D01*
X19163426Y-5648413D01*
X19253884Y-5430027D01*
X19300000Y-5198190D01*
X19300000Y-4961810D01*
X19253884Y-4729973D01*
X19163426Y-4511587D01*
X19032101Y-4315045D01*
X18864955Y-4147899D01*
X18668413Y-4016574D01*
X18450027Y-3926116D01*
X18218190Y-3880000D01*
X17981810Y-3880000D01*
X17749973Y-3926116D01*
X17531587Y-4016574D01*
X17335045Y-4147899D01*
X17167899Y-4315045D01*
X17036574Y-4511587D01*
X16946116Y-4729973D01*
X16900000Y-4961810D01*
X16350000Y-4961810D01*
X16350000Y-2421810D01*
X16900000Y-2421810D01*
X16900000Y-2658190D01*
X16946116Y-2890027D01*
X17036574Y-3108413D01*
X17167899Y-3304955D01*
X17335045Y-3472101D01*
X17531587Y-3603426D01*
X17749973Y-3693884D01*
X17981810Y-3740000D01*
X18218190Y-3740000D01*
X18450027Y-3693884D01*
X18455034Y-3691810D01*
X19600000Y-3691810D01*
X19600000Y-3928190D01*
X19646116Y-4160027D01*
X19736574Y-4378413D01*
X19867899Y-4574955D01*
X20035045Y-4742101D01*
X20231587Y-4873426D01*
X20449973Y-4963884D01*
X20681810Y-5010000D01*
X20918190Y-5010000D01*
X21150027Y-4963884D01*
X21368413Y-4873426D01*
X21564955Y-4742101D01*
X21732101Y-4574955D01*
X21863426Y-4378413D01*
X21953884Y-4160027D01*
X22000000Y-3928190D01*
X22000000Y-3691810D01*
X21953884Y-3459973D01*
X21863426Y-3241587D01*
X21732101Y-3045045D01*
X21564955Y-2877899D01*
X21368413Y-2746574D01*
X21150027Y-2656116D01*
X20918190Y-2610000D01*
X20681810Y-2610000D01*
X20449973Y-2656116D01*
X20231587Y-2746574D01*
X20035045Y-2877899D01*
X19867899Y-3045045D01*
X19736574Y-3241587D01*
X19646116Y-3459973D01*
X19600000Y-3691810D01*
X18455034Y-3691810D01*
X18668413Y-3603426D01*
X18864955Y-3472101D01*
X19032101Y-3304955D01*
X19163426Y-3108413D01*
X19253884Y-2890027D01*
X19300000Y-2658190D01*
X19300000Y-2421810D01*
X19253884Y-2189973D01*
X19163426Y-1971587D01*
X19032101Y-1775045D01*
X18864955Y-1607899D01*
X18668413Y-1476574D01*
X18450027Y-1386116D01*
X18218190Y-1340000D01*
X17981810Y-1340000D01*
X17749973Y-1386116D01*
X17531587Y-1476574D01*
X17335045Y-1607899D01*
X17167899Y-1775045D01*
X17036574Y-1971587D01*
X16946116Y-2189973D01*
X16900000Y-2421810D01*
X16350000Y-2421810D01*
X16350000Y-510660D01*
X16382563Y-478097D01*
X16464641Y-355258D01*
X16521178Y-218767D01*
X16550000Y-73869D01*
X16550000Y73869D01*
X16541185Y118190D01*
X16900000Y118190D01*
X16900000Y-118190D01*
X16946116Y-350027D01*
X17036574Y-568413D01*
X17167899Y-764955D01*
X17335045Y-932101D01*
X17531587Y-1063426D01*
X17749973Y-1153884D01*
X17981810Y-1200000D01*
X18218190Y-1200000D01*
X18450027Y-1153884D01*
X18455034Y-1151810D01*
X19600000Y-1151810D01*
X19600000Y-1388190D01*
X19646116Y-1620027D01*
X19736574Y-1838413D01*
X19867899Y-2034955D01*
X20035045Y-2202101D01*
X20231587Y-2333426D01*
X20449973Y-2423884D01*
X20681810Y-2470000D01*
X20918190Y-2470000D01*
X21150027Y-2423884D01*
X21368413Y-2333426D01*
X21564955Y-2202101D01*
X21732101Y-2034955D01*
X21863426Y-1838413D01*
X21953884Y-1620027D01*
X22000000Y-1388190D01*
X22000000Y-1151810D01*
X21953884Y-919973D01*
X21863426Y-701587D01*
X21732101Y-505045D01*
X21564955Y-337899D01*
X21368413Y-206574D01*
X21150027Y-116116D01*
X20918190Y-70000D01*
X20681810Y-70000D01*
X20449973Y-116116D01*
X20231587Y-206574D01*
X20035045Y-337899D01*
X19867899Y-505045D01*
X19736574Y-701587D01*
X19646116Y-919973D01*
X19600000Y-1151810D01*
X18455034Y-1151810D01*
X18668413Y-1063426D01*
X18864955Y-932101D01*
X19032101Y-764955D01*
X19163426Y-568413D01*
X19253884Y-350027D01*
X19300000Y-118190D01*
X19300000Y118190D01*
X19253884Y350027D01*
X19163426Y568413D01*
X19032101Y764955D01*
X18864955Y932101D01*
X18668413Y1063426D01*
X18450027Y1153884D01*
X18218190Y1200000D01*
X17981810Y1200000D01*
X17749973Y1153884D01*
X17531587Y1063426D01*
X17335045Y932101D01*
X17167899Y764955D01*
X17036574Y568413D01*
X16946116Y350027D01*
X16900000Y118190D01*
X16541185Y118190D01*
X16521178Y218767D01*
X16464641Y355258D01*
X16382563Y478097D01*
X16278097Y582563D01*
X16155258Y664641D01*
X16018767Y721178D01*
X15873869Y750000D01*
X15726131Y750000D01*
X15581233Y721178D01*
X15444742Y664641D01*
X15321903Y582563D01*
X15217437Y478097D01*
X15150000Y377170D01*
X15082563Y478097D01*
X14978097Y582563D01*
X14855258Y664641D01*
X14718767Y721178D01*
X14573869Y750000D01*
X14527817Y750000D01*
X12681107Y2596710D01*
X12681107Y2620762D01*
X12652285Y2765660D01*
X12595748Y2902151D01*
X12513670Y3024990D01*
X12409204Y3129456D01*
X12286365Y3211534D01*
X12149874Y3268071D01*
X12004976Y3296893D01*
X11857238Y3296893D01*
X11712340Y3268071D01*
X11575849Y3211534D01*
X11453010Y3129456D01*
X11348544Y3024990D01*
X11266466Y2902151D01*
X11209929Y2765660D01*
X11181107Y2620762D01*
X11181107Y2473024D01*
X11209929Y2328126D01*
X11266466Y2191635D01*
X11348544Y2068796D01*
X11453010Y1964330D01*
X11575849Y1882252D01*
X11712340Y1825715D01*
X11857238Y1796893D01*
X11925290Y1796893D01*
X13750000Y-27817D01*
X13750000Y-73869D01*
X13778822Y-218767D01*
X13835359Y-355258D01*
X13917437Y-478097D01*
X14021903Y-582563D01*
X14122830Y-650000D01*
X14021903Y-717437D01*
X13917437Y-821903D01*
X13835359Y-944742D01*
X13778822Y-1081233D01*
X13750000Y-1226131D01*
X13750000Y-1272182D01*
X12930583Y-2091600D01*
X8638660Y-2091600D01*
X8606097Y-2059037D01*
X8483258Y-1976959D01*
X8346767Y-1920422D01*
X8201869Y-1891600D01*
X8054131Y-1891600D01*
X7909233Y-1920422D01*
X7772742Y-1976959D01*
X7649903Y-2059037D01*
X7545437Y-2163503D01*
X7463359Y-2286342D01*
X7406822Y-2422833D01*
X7378000Y-2567731D01*
X7378000Y-2715469D01*
X7406822Y-2860367D01*
X7463359Y-2996858D01*
X7518027Y-3078674D01*
X7373871Y-3050000D01*
X7226133Y-3050000D01*
X7081235Y-3078822D01*
X6944744Y-3135359D01*
X6821905Y-3217437D01*
X6717439Y-3321903D01*
X6635361Y-3444742D01*
X6578824Y-3581233D01*
X6550002Y-3726131D01*
X103948Y-3726131D01*
X-3250000Y-372183D01*
X-3250000Y-326131D01*
X-3278822Y-181233D01*
X-3335359Y-44742D01*
X-3417437Y78097D01*
X-3521903Y182563D01*
X-3644742Y264641D01*
X-3781233Y321178D01*
X-3926131Y350000D01*
X-4073869Y350000D01*
X-4218767Y321178D01*
X-4355258Y264641D01*
X-4478097Y182563D01*
X-4582563Y78097D01*
X-4664641Y-44742D01*
X-4721178Y-181233D01*
X-4750000Y-326131D01*
X-7786052Y-326131D01*
X-7872387Y-239796D01*
X-7889610Y-218810D01*
X-7973358Y-150079D01*
X-8068906Y-99008D01*
X-8126151Y-81643D01*
X-7996535Y-27954D01*
X-7775425Y119787D01*
X-7587387Y307825D01*
X-7439646Y528935D01*
X-7337880Y774620D01*
X-7286000Y1035437D01*
X-7286000Y1301363D01*
X-7337880Y1562180D01*
X-7439646Y1807865D01*
X-7587387Y2028975D01*
X-7775425Y2217013D01*
X-7996535Y2364754D01*
X-8242220Y2466520D01*
X-8503037Y2518400D01*
X-8768963Y2518400D01*
X-9029780Y2466520D01*
X-9275465Y2364754D01*
X-9496575Y2217013D01*
X-9684613Y2028975D01*
X-9832354Y1807865D01*
X-9934120Y1562180D01*
X-9986000Y1301363D01*
X-9986000Y1074279D01*
X-9992033Y1076778D01*
X-10136931Y1105600D01*
X-10284669Y1105600D01*
X-10429567Y1076778D01*
X-10566058Y1020241D01*
X-10688897Y938163D01*
X-10793363Y833697D01*
X-10875441Y710858D01*
X-10931978Y574367D01*
X-10960800Y429469D01*
X-14250000Y429469D01*
X-14250000Y543869D01*
X-14278822Y688767D01*
X-14335359Y825258D01*
X-14350000Y847170D01*
X-14350000Y2969469D01*
X-3798000Y2969469D01*
X-3798000Y2821731D01*
X-3769178Y2676833D01*
X-3712641Y2540342D01*
X-3630563Y2417503D01*
X-3526097Y2313037D01*
X-3403258Y2230959D01*
X-3266767Y2174422D01*
X-3121869Y2145600D01*
X-2974131Y2145600D01*
X-2829233Y2174422D01*
X-2692742Y2230959D01*
X-2569903Y2313037D01*
X-2465437Y2417503D01*
X-2383359Y2540342D01*
X-2326822Y2676833D01*
X-2304123Y2790950D01*
X-1266944Y3828128D01*
X-1152833Y3850826D01*
X-1016342Y3907363D01*
X-893503Y3989441D01*
X-789037Y4093907D01*
X-706959Y4216746D01*
X-650422Y4353237D01*
X-621600Y4498135D01*
X-621600Y4645873D01*
X-650422Y4790771D01*
X-706959Y4927262D01*
X-789037Y5050101D01*
X-893503Y5154567D01*
X-1016342Y5236645D01*
X-1152833Y5293182D01*
X-1297731Y5322004D01*
X-1445469Y5322004D01*
X-1590367Y5293182D01*
X-1726858Y5236645D01*
X-1849697Y5154567D01*
X-1954163Y5050101D01*
X-2036241Y4927262D01*
X-2092778Y4790771D01*
X-2115478Y4676650D01*
X-3152650Y3639477D01*
X-3266767Y3616778D01*
X-3403258Y3560241D01*
X-3526097Y3478163D01*
X-3630563Y3373697D01*
X-3712641Y3250858D01*
X-3769178Y3114367D01*
X-3798000Y2969469D01*
X-14350000Y2969469D01*
X-14350000Y3942954D01*
X-6747921Y3942954D01*
X-6643574Y3698355D01*
X-6493513Y3478813D01*
X-6303505Y3292765D01*
X-6080852Y3147360D01*
X-5861446Y3056479D01*
X-5654019Y3097208D01*
X-5654019Y4150381D01*
X-5254019Y4150381D01*
X-5254019Y3097208D01*
X-5046592Y3056479D01*
X-4801993Y3160826D01*
X-4582451Y3310887D01*
X-4396403Y3500895D01*
X-4250998Y3723548D01*
X-4160117Y3942954D01*
X-4200846Y4150381D01*
X-5254019Y4150381D01*
X-5654019Y4150381D01*
X-6707192Y4150381D01*
X-6747921Y3942954D01*
X-14350000Y3942954D01*
X-14350000Y5007574D01*
X-14280807Y4904019D01*
X-14092769Y4715981D01*
X-13871659Y4568240D01*
X-13625974Y4466474D01*
X-13365157Y4414594D01*
X-13099231Y4414594D01*
X-12838414Y4466474D01*
X-12592729Y4568240D01*
X-12371619Y4715981D01*
X-12183581Y4904019D01*
X-12035840Y5125129D01*
X-11976591Y5268169D01*
X-10770300Y5268169D01*
X-10770300Y5120431D01*
X-10741478Y4975533D01*
X-10684941Y4839042D01*
X-10602863Y4716203D01*
X-10498397Y4611737D01*
X-10375558Y4529659D01*
X-10239067Y4473122D01*
X-10094169Y4444300D01*
X-9946431Y4444300D01*
X-9801533Y4473122D01*
X-9665042Y4529659D01*
X-9542203Y4611737D01*
X-9437737Y4716203D01*
X-9409938Y4757808D01*
X-6747921Y4757808D01*
X-6707192Y4550381D01*
X-5654019Y4550381D01*
X-5654019Y5603554D01*
X-5254019Y5603554D01*
X-5254019Y4550381D01*
X-4200846Y4550381D01*
X-4160117Y4757808D01*
X-4264464Y5002407D01*
X-4414525Y5221949D01*
X-4604533Y5407997D01*
X-4827186Y5553402D01*
X-5046592Y5644283D01*
X-5254019Y5603554D01*
X-5654019Y5603554D01*
X-5861446Y5644283D01*
X-6106045Y5539936D01*
X-6325587Y5389875D01*
X-6511635Y5199867D01*
X-6657040Y4977214D01*
X-6747921Y4757808D01*
X-9409938Y4757808D01*
X-9355659Y4839042D01*
X-9299122Y4975533D01*
X-9276423Y5089650D01*
X-8556749Y5809323D01*
X-8442633Y5832022D01*
X-8306142Y5888559D01*
X-8183303Y5970637D01*
X-8078837Y6075103D01*
X-7996759Y6197942D01*
X-7940222Y6334433D01*
X-7911400Y6479331D01*
X-7911400Y6627069D01*
X-7940222Y6771967D01*
X-7996759Y6908458D01*
X-8078837Y7031297D01*
X-8183303Y7135763D01*
X-8306142Y7217841D01*
X-8351596Y7236669D01*
X2348800Y7236669D01*
X2348800Y7088931D01*
X2377622Y6944033D01*
X2434159Y6807542D01*
X2516237Y6684703D01*
X2620703Y6580237D01*
X2743542Y6498159D01*
X2880033Y6441622D01*
X3024931Y6412800D01*
X3070983Y6412800D01*
X3466400Y6017382D01*
X3466400Y5971331D01*
X3495222Y5826433D01*
X3551759Y5689942D01*
X3633837Y5567103D01*
X3738303Y5462637D01*
X3861142Y5380559D01*
X3997633Y5324022D01*
X4142531Y5295200D01*
X4290269Y5295200D01*
X4435167Y5324022D01*
X4571658Y5380559D01*
X4694497Y5462637D01*
X4741329Y5509469D01*
X5396800Y5509469D01*
X5396800Y5361731D01*
X5425622Y5216833D01*
X5482159Y5080342D01*
X5564237Y4957503D01*
X5668703Y4853037D01*
X5791542Y4770959D01*
X5928033Y4714422D01*
X6004001Y4699311D01*
X6004000Y2797460D01*
X5970637Y2764097D01*
X5888559Y2641258D01*
X5832022Y2504767D01*
X5803200Y2359869D01*
X5803200Y2212131D01*
X5832022Y2067233D01*
X5888559Y1930742D01*
X5970637Y1807903D01*
X6075103Y1703437D01*
X6197942Y1621359D01*
X6334433Y1564822D01*
X6479331Y1536000D01*
X6627069Y1536000D01*
X6771967Y1564822D01*
X6908458Y1621359D01*
X7031297Y1703437D01*
X7135763Y1807903D01*
X7217841Y1930742D01*
X7274378Y2067233D01*
X7303200Y2212131D01*
X7303200Y2359869D01*
X7274378Y2504767D01*
X7217841Y2641258D01*
X7204000Y2661973D01*
X7204000Y4948935D01*
X7206902Y4978401D01*
X7204000Y5007867D01*
X7204000Y5007874D01*
X7195318Y5096021D01*
X7187914Y5120431D01*
X7178429Y5151697D01*
X7161010Y5209121D01*
X7105296Y5313355D01*
X7030317Y5404717D01*
X7007424Y5423505D01*
X6890677Y5540251D01*
X6867978Y5654367D01*
X6811441Y5790858D01*
X6729363Y5913697D01*
X6624897Y6018163D01*
X6502058Y6100241D01*
X6365567Y6156778D01*
X6220669Y6185600D01*
X6072931Y6185600D01*
X5928033Y6156778D01*
X5791542Y6100241D01*
X5668703Y6018163D01*
X5564237Y5913697D01*
X5482159Y5790858D01*
X5425622Y5654367D01*
X5396800Y5509469D01*
X4741329Y5509469D01*
X4798963Y5567103D01*
X4881041Y5689942D01*
X4937578Y5826433D01*
X4966400Y5971331D01*
X4966400Y6119069D01*
X4937578Y6263967D01*
X4881041Y6400458D01*
X4798963Y6523297D01*
X4694497Y6627763D01*
X4571658Y6709841D01*
X4435167Y6766378D01*
X4290269Y6795200D01*
X4244218Y6795200D01*
X3848800Y7190617D01*
X3848800Y7236669D01*
X3819978Y7381567D01*
X3763441Y7518058D01*
X3681363Y7640897D01*
X3576897Y7745363D01*
X3454058Y7827441D01*
X3317567Y7883978D01*
X3172669Y7912800D01*
X3024931Y7912800D01*
X2880033Y7883978D01*
X2743542Y7827441D01*
X2620703Y7745363D01*
X2516237Y7640897D01*
X2434159Y7518058D01*
X2377622Y7381567D01*
X2348800Y7236669D01*
X-8351596Y7236669D01*
X-8442633Y7274378D01*
X-8587531Y7303200D01*
X-8735269Y7303200D01*
X-8880167Y7274378D01*
X-9016658Y7217841D01*
X-9139497Y7135763D01*
X-9243963Y7031297D01*
X-9326041Y6908458D01*
X-9382578Y6771967D01*
X-9405277Y6657851D01*
X-10124950Y5938177D01*
X-10239067Y5915478D01*
X-10375558Y5858941D01*
X-10498397Y5776863D01*
X-10602863Y5672397D01*
X-10684941Y5549558D01*
X-10741478Y5413067D01*
X-10770300Y5268169D01*
X-11976591Y5268169D01*
X-11934074Y5370814D01*
X-11882194Y5631631D01*
X-11882194Y5897557D01*
X-11934074Y6158374D01*
X-12035840Y6404059D01*
X-12183581Y6625169D01*
X-12371619Y6813207D01*
X-12592729Y6960948D01*
X-12838414Y7062714D01*
X-13099231Y7114594D01*
X-13365157Y7114594D01*
X-13625974Y7062714D01*
X-13871659Y6960948D01*
X-14092769Y6813207D01*
X-14250259Y6655717D01*
X-14258822Y6698767D01*
X-14315359Y6835258D01*
X-14397437Y6958097D01*
X-14501903Y7062563D01*
X-14624742Y7144641D01*
X-14761233Y7201178D01*
X-14807462Y7210374D01*
X-14798822Y7231233D01*
X-14770000Y7376131D01*
X-14770000Y7523869D01*
X-14798822Y7668767D01*
X-14855359Y7805258D01*
X-14937437Y7928097D01*
X-15041903Y8032563D01*
X-15164742Y8114641D01*
X-15301233Y8171178D01*
X-15446131Y8200000D01*
X-15593869Y8200000D01*
X-15738767Y8171178D01*
X-15875258Y8114641D01*
X-15998097Y8032563D01*
X-16102563Y7928097D01*
X-16184641Y7805258D01*
X-16241178Y7668767D01*
X-16270000Y7523869D01*
X-16270000Y7477817D01*
X-16289804Y7458013D01*
X-16310789Y7440791D01*
X-16379520Y7357043D01*
X-16430591Y7261494D01*
X-16462041Y7157819D01*
X-16469999Y7077018D01*
X-16469999Y7077009D01*
X-16472659Y7050001D01*
X-16469999Y7022993D01*
X-16469998Y1760662D01*
X-16482563Y1748097D01*
X-16564641Y1625258D01*
X-16621178Y1488767D01*
X-16650000Y1343869D01*
X-17962360Y1343869D01*
X-17749973Y1386116D01*
X-17531587Y1476574D01*
X-17335045Y1607899D01*
X-17167899Y1775045D01*
X-17036574Y1971587D01*
X-16946116Y2189973D01*
X-16900000Y2421810D01*
X-16900000Y2658190D01*
X-16946116Y2890027D01*
X-17036574Y3108413D01*
X-17167899Y3304955D01*
X-17335045Y3472101D01*
X-17531587Y3603426D01*
X-17749973Y3693884D01*
X-17981810Y3740000D01*
X-18218190Y3740000D01*
X-18450027Y3693884D01*
X-18668413Y3603426D01*
X-18864955Y3472101D01*
X-19032101Y3304955D01*
X-19163426Y3108413D01*
X-19253884Y2890027D01*
X-19300000Y2658190D01*
X-20444966Y2658190D01*
X-20231587Y2746574D01*
X-20035045Y2877899D01*
X-19867899Y3045045D01*
X-19736574Y3241587D01*
X-19646116Y3459973D01*
X-19600000Y3691810D01*
X-19600000Y3928190D01*
X-19646116Y4160027D01*
X-19736574Y4378413D01*
X-19867899Y4574955D01*
X-20035045Y4742101D01*
X-20231587Y4873426D01*
X-20449973Y4963884D01*
X-20681810Y5010000D01*
X-20918190Y5010000D01*
X-21150027Y4963884D01*
X-21368413Y4873426D01*
X-21564955Y4742101D01*
X-21732101Y4574955D01*
X-21863426Y4378413D01*
X-21953884Y4160027D01*
X-22000000Y3928190D01*
X-22699801Y3928190D01*
X-22641721Y4319139D01*
X-22211682Y6159845D01*
X-22112387Y6468190D01*
X-22000000Y6468190D01*
X-22000000Y6231810D01*
X-21953884Y5999973D01*
X-21863426Y5781587D01*
X-21732101Y5585045D01*
X-21564955Y5417899D01*
X-21368413Y5286574D01*
X-21150027Y5196116D01*
X-20918190Y5150000D01*
X-20681810Y5150000D01*
X-20449973Y5196116D01*
X-20444966Y5198190D01*
X-19300000Y5198190D01*
X-19300000Y4961810D01*
X-19253884Y4729973D01*
X-19163426Y4511587D01*
X-19032101Y4315045D01*
X-18864955Y4147899D01*
X-18668413Y4016574D01*
X-18450027Y3926116D01*
X-18218190Y3880000D01*
X-17981810Y3880000D01*
X-17749973Y3926116D01*
X-17531587Y4016574D01*
X-17335045Y4147899D01*
X-17167899Y4315045D01*
X-17036574Y4511587D01*
X-16946116Y4729973D01*
X-16900000Y4961810D01*
X-16900000Y5198190D01*
X-16946116Y5430027D01*
X-17036574Y5648413D01*
X-17167899Y5844955D01*
X-17335045Y6012101D01*
X-17531587Y6143426D01*
X-17749973Y6233884D01*
X-17981810Y6280000D01*
X-18218190Y6280000D01*
X-18450027Y6233884D01*
X-18668413Y6143426D01*
X-18864955Y6012101D01*
X-19032101Y5844955D01*
X-19163426Y5648413D01*
X-19253884Y5430027D01*
X-19300000Y5198190D01*
X-20444966Y5198190D01*
X-20231587Y5286574D01*
X-20035045Y5417899D01*
X-19867899Y5585045D01*
X-19736574Y5781587D01*
X-19646116Y5999973D01*
X-19600000Y6231810D01*
X-19600000Y6468190D01*
X-19646116Y6700027D01*
X-19736574Y6918413D01*
X-19867899Y7114955D01*
X-20035045Y7282101D01*
X-20231587Y7413426D01*
X-20449973Y7503884D01*
X-20681810Y7550000D01*
X-20918190Y7550000D01*
X-21150027Y7503884D01*
X-21368413Y7413426D01*
X-21564955Y7282101D01*
X-21732101Y7114955D01*
X-21863426Y6918413D01*
X-21953884Y6700027D01*
X-22000000Y6468190D01*
X-22112387Y6468190D01*
X-21632264Y7959123D01*
X-21391417Y8539148D01*
X-11344116Y8539148D01*
X-11239769Y8294549D01*
X-11089708Y8075007D01*
X-10899700Y7888959D01*
X-10677047Y7743554D01*
X-10457641Y7652673D01*
X-10250214Y7693402D01*
X-10250214Y8746575D01*
X-9850214Y8746575D01*
X-9850214Y7693402D01*
X-9642787Y7652673D01*
X-9398188Y7757020D01*
X-9178646Y7907081D01*
X-8992598Y8097089D01*
X-8847193Y8319742D01*
X-8756312Y8539148D01*
X-8797041Y8746575D01*
X-9850214Y8746575D01*
X-10250214Y8746575D01*
X-11303387Y8746575D01*
X-11344116Y8539148D01*
X-21391417Y8539148D01*
X-21053061Y9354002D01*
X-11344116Y9354002D01*
X-11303387Y9146575D01*
X-10250214Y9146575D01*
X-10250214Y10199748D01*
X-9850214Y10199748D01*
X-9850214Y9146575D01*
X-8797041Y9146575D01*
X-8763093Y9319469D01*
X9003598Y9319469D01*
X9003598Y9171731D01*
X9032420Y9026833D01*
X9088957Y8890342D01*
X9171035Y8767503D01*
X9203598Y8734940D01*
X9203598Y8652898D01*
X9203599Y8652888D01*
X9203598Y6529410D01*
X9200938Y6502402D01*
X9203598Y6475394D01*
X9203598Y6475385D01*
X9211556Y6394584D01*
X9243006Y6290909D01*
X9281845Y6218245D01*
X9294077Y6195360D01*
X9316987Y6167445D01*
X9362808Y6111612D01*
X9383794Y6094389D01*
X11174387Y4303796D01*
X11191610Y4282810D01*
X11275358Y4214079D01*
X11370906Y4163008D01*
X11474581Y4131558D01*
X11555382Y4123600D01*
X11555389Y4123600D01*
X11582400Y4120940D01*
X11609411Y4123600D01*
X13764140Y4123600D01*
X13796703Y4091037D01*
X13919542Y4008959D01*
X14056033Y3952422D01*
X14200931Y3923600D01*
X14348669Y3923600D01*
X14493567Y3952422D01*
X14630058Y4008959D01*
X14752897Y4091037D01*
X14857363Y4195503D01*
X14939441Y4318342D01*
X14995978Y4454833D01*
X15024800Y4599731D01*
X15024800Y4747469D01*
X14995978Y4892367D01*
X14939441Y5028858D01*
X14857363Y5151697D01*
X14752897Y5256163D01*
X14630058Y5338241D01*
X14493567Y5394778D01*
X14348669Y5423600D01*
X14200931Y5423600D01*
X14056033Y5394778D01*
X13919542Y5338241D01*
X13796703Y5256163D01*
X13764140Y5223600D01*
X12714989Y5223600D01*
X12755041Y5283542D01*
X12811578Y5420033D01*
X12840400Y5564931D01*
X12840400Y5712669D01*
X12811578Y5857567D01*
X12755041Y5994058D01*
X12672963Y6116897D01*
X12568497Y6221363D01*
X12445658Y6303441D01*
X12309167Y6359978D01*
X12164269Y6388800D01*
X12118218Y6388800D01*
X11683141Y6823877D01*
X15000000Y6823877D01*
X15000000Y6676139D01*
X15028822Y6531241D01*
X15085359Y6394750D01*
X15167437Y6271911D01*
X15250001Y6189347D01*
X15250000Y3010660D01*
X15217437Y2978097D01*
X15135359Y2855258D01*
X15078822Y2718767D01*
X15050000Y2573869D01*
X15050000Y2426131D01*
X15078822Y2281233D01*
X15135359Y2144742D01*
X15217437Y2021903D01*
X15321903Y1917437D01*
X15444742Y1835359D01*
X15581233Y1778822D01*
X15726131Y1750000D01*
X15873869Y1750000D01*
X16018767Y1778822D01*
X16155258Y1835359D01*
X16278097Y1917437D01*
X16382563Y2021903D01*
X16464641Y2144742D01*
X16521178Y2281233D01*
X16550000Y2426131D01*
X16550000Y2573869D01*
X16533228Y2658190D01*
X16900000Y2658190D01*
X16900000Y2421810D01*
X16946116Y2189973D01*
X17036574Y1971587D01*
X17167899Y1775045D01*
X17335045Y1607899D01*
X17531587Y1476574D01*
X17749973Y1386116D01*
X17981810Y1340000D01*
X18218190Y1340000D01*
X18450027Y1386116D01*
X18455034Y1388190D01*
X19600000Y1388190D01*
X19600000Y1151810D01*
X19646116Y919973D01*
X19736574Y701587D01*
X19867899Y505045D01*
X20035045Y337899D01*
X20231587Y206574D01*
X20449973Y116116D01*
X20681810Y70000D01*
X20918190Y70000D01*
X21150027Y116116D01*
X21368413Y206574D01*
X21564955Y337899D01*
X21732101Y505045D01*
X21863426Y701587D01*
X21953884Y919973D01*
X22000000Y1151810D01*
X22000000Y1388190D01*
X21953884Y1620027D01*
X21863426Y1838413D01*
X21732101Y2034955D01*
X21564955Y2202101D01*
X21368413Y2333426D01*
X21150027Y2423884D01*
X20918190Y2470000D01*
X20681810Y2470000D01*
X20449973Y2423884D01*
X20231587Y2333426D01*
X20035045Y2202101D01*
X19867899Y2034955D01*
X19736574Y1838413D01*
X19646116Y1620027D01*
X19600000Y1388190D01*
X18455034Y1388190D01*
X18668413Y1476574D01*
X18864955Y1607899D01*
X19032101Y1775045D01*
X19163426Y1971587D01*
X19253884Y2189973D01*
X19300000Y2421810D01*
X19300000Y2658190D01*
X19253884Y2890027D01*
X19163426Y3108413D01*
X19032101Y3304955D01*
X18864955Y3472101D01*
X18668413Y3603426D01*
X18450027Y3693884D01*
X18218190Y3740000D01*
X17981810Y3740000D01*
X17749973Y3693884D01*
X17531587Y3603426D01*
X17335045Y3472101D01*
X17167899Y3304955D01*
X17036574Y3108413D01*
X16946116Y2890027D01*
X16900000Y2658190D01*
X16533228Y2658190D01*
X16521178Y2718767D01*
X16464641Y2855258D01*
X16382563Y2978097D01*
X16350000Y3010660D01*
X16350000Y5198190D01*
X16900000Y5198190D01*
X16900000Y4961810D01*
X16946116Y4729973D01*
X17036574Y4511587D01*
X17167899Y4315045D01*
X17335045Y4147899D01*
X17531587Y4016574D01*
X17749973Y3926116D01*
X17981810Y3880000D01*
X18218190Y3880000D01*
X18450027Y3926116D01*
X18668413Y4016574D01*
X18864955Y4147899D01*
X19032101Y4315045D01*
X19163426Y4511587D01*
X19212303Y4629587D01*
X19217437Y4621903D01*
X19321903Y4517437D01*
X19444742Y4435359D01*
X19581233Y4378822D01*
X19724906Y4350244D01*
X19646116Y4160027D01*
X19600000Y3928190D01*
X19600000Y3691810D01*
X19646116Y3459973D01*
X19736574Y3241587D01*
X19867899Y3045045D01*
X20035045Y2877899D01*
X20231587Y2746574D01*
X20449973Y2656116D01*
X20681810Y2610000D01*
X20918190Y2610000D01*
X21150027Y2656116D01*
X21368413Y2746574D01*
X21564955Y2877899D01*
X21732101Y3045045D01*
X21863426Y3241587D01*
X21953884Y3459973D01*
X22000000Y3691810D01*
X22000000Y3928190D01*
X21953884Y4160027D01*
X21863426Y4378413D01*
X21732101Y4574955D01*
X21564955Y4742101D01*
X21368413Y4873426D01*
X21150027Y4963884D01*
X20918190Y5010000D01*
X20681810Y5010000D01*
X20541229Y4982036D01*
X20550000Y5026131D01*
X20550000Y5173869D01*
X20549513Y5176316D01*
X20681810Y5150000D01*
X20918190Y5150000D01*
X21150027Y5196116D01*
X21368413Y5286574D01*
X21564955Y5417899D01*
X21732101Y5585045D01*
X21863426Y5781587D01*
X21953884Y5999973D01*
X22000000Y6231810D01*
X22000000Y6468190D01*
X21953884Y6700027D01*
X21863426Y6918413D01*
X21732101Y7114955D01*
X21564955Y7282101D01*
X21368413Y7413426D01*
X21150027Y7503884D01*
X20918190Y7550000D01*
X20681810Y7550000D01*
X20449973Y7503884D01*
X20231587Y7413426D01*
X20035045Y7282101D01*
X19959683Y7206739D01*
X19959520Y7207044D01*
X19908012Y7269806D01*
X19908007Y7269811D01*
X19890789Y7290791D01*
X19869808Y7308010D01*
X19850000Y7327818D01*
X19850000Y7373869D01*
X19821178Y7518767D01*
X19764641Y7655258D01*
X19682563Y7778097D01*
X19661032Y7799628D01*
X20100000Y7798306D01*
X20168612Y7805064D01*
X20234587Y7825077D01*
X20295391Y7857577D01*
X20348685Y7901315D01*
X20392423Y7954609D01*
X20424923Y8015413D01*
X20444936Y8081388D01*
X20451694Y8150000D01*
X20450000Y8712500D01*
X20362500Y8800000D01*
X19450000Y8800000D01*
X19450000Y8780000D01*
X19050000Y8780000D01*
X19050000Y8800000D01*
X18137500Y8800000D01*
X18050000Y8712500D01*
X18048306Y8150000D01*
X18055064Y8081388D01*
X18075077Y8015413D01*
X18107577Y7954609D01*
X18151315Y7901315D01*
X18204609Y7857577D01*
X18265413Y7825077D01*
X18331388Y7805064D01*
X18400000Y7798306D01*
X18538062Y7798722D01*
X18517437Y7778097D01*
X18435359Y7655258D01*
X18378822Y7518767D01*
X18350000Y7373869D01*
X18350000Y7226131D01*
X18378822Y7081233D01*
X18435359Y6944742D01*
X18517437Y6821903D01*
X18621903Y6717437D01*
X18744742Y6635359D01*
X18881233Y6578822D01*
X18949999Y6565144D01*
X18950000Y5927056D01*
X18864955Y6012101D01*
X18668413Y6143426D01*
X18450027Y6233884D01*
X18218190Y6280000D01*
X17981810Y6280000D01*
X17749973Y6233884D01*
X17531587Y6143426D01*
X17335045Y6012101D01*
X17167899Y5844955D01*
X17036574Y5648413D01*
X16946116Y5430027D01*
X16900000Y5198190D01*
X16350000Y5198190D01*
X16350000Y6298007D01*
X16414641Y6394750D01*
X16471178Y6531241D01*
X16500000Y6676139D01*
X16500000Y6823877D01*
X16471178Y6968775D01*
X16414641Y7105266D01*
X16332563Y7228105D01*
X16228097Y7332571D01*
X16105258Y7414649D01*
X15968767Y7471186D01*
X15823869Y7500008D01*
X15676131Y7500008D01*
X15531233Y7471186D01*
X15394742Y7414649D01*
X15271903Y7332571D01*
X15167437Y7228105D01*
X15085359Y7105266D01*
X15028822Y6968775D01*
X15000000Y6823877D01*
X11683141Y6823877D01*
X11421200Y7085817D01*
X11421200Y8734944D01*
X11453763Y8767507D01*
X11535841Y8890346D01*
X11581261Y9000000D01*
X12964194Y9000000D01*
X12987363Y8764759D01*
X13055981Y8538558D01*
X13167409Y8330090D01*
X13317366Y8147366D01*
X13500090Y7997409D01*
X13708558Y7885981D01*
X13934759Y7817363D01*
X14111050Y7800000D01*
X14228950Y7800000D01*
X14405241Y7817363D01*
X14631442Y7885981D01*
X14839910Y7997409D01*
X15022634Y8147366D01*
X15172591Y8330090D01*
X15284019Y8538558D01*
X15352637Y8764759D01*
X15375806Y9000000D01*
X15504194Y9000000D01*
X15527363Y8764759D01*
X15595981Y8538558D01*
X15707409Y8330090D01*
X15857366Y8147366D01*
X16040090Y7997409D01*
X16248558Y7885981D01*
X16474759Y7817363D01*
X16651050Y7800000D01*
X16768950Y7800000D01*
X16945241Y7817363D01*
X17171442Y7885981D01*
X17379910Y7997409D01*
X17562634Y8147366D01*
X17712591Y8330090D01*
X17824019Y8538558D01*
X17892637Y8764759D01*
X17915806Y9000000D01*
X17892637Y9235241D01*
X17824019Y9461442D01*
X17712591Y9669910D01*
X17564796Y9850000D01*
X18048306Y9850000D01*
X18050000Y9287500D01*
X18137500Y9200000D01*
X19050000Y9200000D01*
X19050000Y10112500D01*
X19450000Y10112500D01*
X19450000Y9200000D01*
X20362500Y9200000D01*
X20450000Y9287500D01*
X20451694Y9850000D01*
X20444936Y9918612D01*
X20424923Y9984587D01*
X20392423Y10045391D01*
X20348685Y10098685D01*
X20295391Y10142423D01*
X20234587Y10174923D01*
X20168612Y10194936D01*
X20100000Y10201694D01*
X19537500Y10200000D01*
X19450000Y10112500D01*
X19050000Y10112500D01*
X18962500Y10200000D01*
X18400000Y10201694D01*
X18331388Y10194936D01*
X18265413Y10174923D01*
X18204609Y10142423D01*
X18151315Y10098685D01*
X18107577Y10045391D01*
X18075077Y9984587D01*
X18055064Y9918612D01*
X18048306Y9850000D01*
X17564796Y9850000D01*
X17562634Y9852634D01*
X17379910Y10002591D01*
X17171442Y10114019D01*
X16945241Y10182637D01*
X16768950Y10200000D01*
X16651050Y10200000D01*
X16474759Y10182637D01*
X16248558Y10114019D01*
X16040090Y10002591D01*
X15857366Y9852634D01*
X15707409Y9669910D01*
X15595981Y9461442D01*
X15527363Y9235241D01*
X15504194Y9000000D01*
X15375806Y9000000D01*
X15352637Y9235241D01*
X15284019Y9461442D01*
X15172591Y9669910D01*
X15022634Y9852634D01*
X14839910Y10002591D01*
X14631442Y10114019D01*
X14405241Y10182637D01*
X14228950Y10200000D01*
X14111050Y10200000D01*
X13934759Y10182637D01*
X13708558Y10114019D01*
X13500090Y10002591D01*
X13317366Y9852634D01*
X13167409Y9669910D01*
X13055981Y9461442D01*
X12987363Y9235241D01*
X12964194Y9000000D01*
X11581261Y9000000D01*
X11592378Y9026837D01*
X11621200Y9171735D01*
X11621200Y9319473D01*
X11592378Y9464371D01*
X11535841Y9600862D01*
X11453763Y9723701D01*
X11349297Y9828167D01*
X11226458Y9910245D01*
X11089967Y9966782D01*
X10945069Y9995604D01*
X10797331Y9995604D01*
X10652433Y9966782D01*
X10515942Y9910245D01*
X10393103Y9828167D01*
X10312397Y9747461D01*
X10231695Y9828163D01*
X10108856Y9910241D01*
X9972365Y9966778D01*
X9827467Y9995600D01*
X9679729Y9995600D01*
X9534831Y9966778D01*
X9398340Y9910241D01*
X9275501Y9828163D01*
X9171035Y9723697D01*
X9088957Y9600858D01*
X9032420Y9464367D01*
X9003598Y9319469D01*
X-8763093Y9319469D01*
X-8756312Y9354002D01*
X-8860659Y9598601D01*
X-9010720Y9818143D01*
X-9200728Y10004191D01*
X-9423381Y10149596D01*
X-9642787Y10240477D01*
X-9850214Y10199748D01*
X-10250214Y10199748D01*
X-10457641Y10240477D01*
X-10702240Y10136130D01*
X-10921782Y9986069D01*
X-11107830Y9796061D01*
X-11253235Y9573408D01*
X-11344116Y9354002D01*
X-21053061Y9354002D01*
X-20907365Y9704875D01*
X-20041858Y11385360D01*
X-19041566Y12989275D01*
X-17913214Y14505835D01*
X-16933845Y15618669D01*
X-9817800Y15618669D01*
X-9817800Y15470931D01*
X-9788978Y15326033D01*
X-9732441Y15189542D01*
X-9650363Y15066703D01*
X-9545897Y14962237D01*
X-9423058Y14880159D01*
X-9286567Y14823622D01*
X-9141669Y14794800D01*
X-9095617Y14794800D01*
X-7896363Y13595546D01*
X-7879140Y13574560D01*
X-7795392Y13505829D01*
X-7699844Y13454758D01*
X-7596169Y13423308D01*
X-7515368Y13415350D01*
X-7515361Y13415350D01*
X-7488350Y13412690D01*
X-7461339Y13415350D01*
X-7332837Y13415350D01*
X-7455258Y13364641D01*
X-7578097Y13282563D01*
X-7682563Y13178097D01*
X-7764641Y13055258D01*
X-7821178Y12918767D01*
X-7850000Y12773869D01*
X-7850000Y12626131D01*
X-7821178Y12481233D01*
X-7764641Y12344742D01*
X-7682563Y12221903D01*
X-7578097Y12117437D01*
X-7455258Y12035359D01*
X-7318767Y11978822D01*
X-7173869Y11950000D01*
X-7127817Y11950000D01*
X-6650000Y11472182D01*
X-6650000Y11426131D01*
X-6621178Y11281233D01*
X-6564641Y11144742D01*
X-6482563Y11021903D01*
X-6378097Y10917437D01*
X-6255258Y10835359D01*
X-6118767Y10778822D01*
X-5973869Y10750000D01*
X-5826131Y10750000D01*
X-5681233Y10778822D01*
X-5544742Y10835359D01*
X-5421903Y10917437D01*
X-5317437Y11021903D01*
X-5235359Y11144742D01*
X-5178822Y11281233D01*
X-5150000Y11426131D01*
X-5150000Y11573869D01*
X-5178822Y11718767D01*
X-5235359Y11855258D01*
X-5317437Y11978097D01*
X-5421903Y12082563D01*
X-5544742Y12164641D01*
X-5681233Y12221178D01*
X-5826131Y12250000D01*
X-5872182Y12250000D01*
X-6350000Y12727817D01*
X-6350000Y12773869D01*
X-6378822Y12918767D01*
X-6435359Y13055258D01*
X-6517437Y13178097D01*
X-6621903Y13282563D01*
X-6744742Y13364641D01*
X-6867163Y13415350D01*
X-3258510Y13415350D01*
X-3225947Y13382787D01*
X-3103108Y13300709D01*
X-2966617Y13244172D01*
X-2821719Y13215350D01*
X-2673981Y13215350D01*
X-2529083Y13244172D01*
X-2392592Y13300709D01*
X-2269753Y13382787D01*
X-2165287Y13487253D01*
X-2083209Y13610092D01*
X-2026672Y13746583D01*
X-1997850Y13891481D01*
X-1997850Y13891955D01*
X-814086Y13891955D01*
X-814086Y13744217D01*
X-785264Y13599319D01*
X-728727Y13462828D01*
X-646649Y13339989D01*
X-542183Y13235523D01*
X-419344Y13153445D01*
X-282853Y13096908D01*
X-137955Y13068086D01*
X9783Y13068086D01*
X154681Y13096908D01*
X291172Y13153445D01*
X414011Y13235523D01*
X496574Y13318086D01*
X1245926Y13318086D01*
X1270486Y13315667D01*
X1295046Y13318086D01*
X1368503Y13325321D01*
X1462753Y13353911D01*
X1549615Y13400340D01*
X1625750Y13462822D01*
X1641415Y13481909D01*
X1785906Y13626400D01*
X1902669Y13626400D01*
X2047567Y13655222D01*
X2184058Y13711759D01*
X2306897Y13793837D01*
X2411363Y13898303D01*
X2493441Y14021142D01*
X2549978Y14157633D01*
X2578800Y14302531D01*
X2578800Y14450269D01*
X2549978Y14595167D01*
X2493441Y14731658D01*
X2411363Y14854497D01*
X2306897Y14958963D01*
X2184058Y15041041D01*
X2047567Y15097578D01*
X1902669Y15126400D01*
X1754931Y15126400D01*
X1610033Y15097578D01*
X1473542Y15041041D01*
X1350703Y14958963D01*
X1246237Y14854497D01*
X1164159Y14731658D01*
X1107622Y14595167D01*
X1078800Y14450269D01*
X1078800Y14333506D01*
X1063380Y14318086D01*
X496574Y14318086D01*
X414011Y14400649D01*
X291172Y14482727D01*
X154681Y14539264D01*
X9783Y14568086D01*
X-137955Y14568086D01*
X-282853Y14539264D01*
X-419344Y14482727D01*
X-542183Y14400649D01*
X-646649Y14296183D01*
X-728727Y14173344D01*
X-785264Y14036853D01*
X-814086Y13891955D01*
X-1997850Y13891955D01*
X-1997850Y14039219D01*
X-2026672Y14184117D01*
X-2083209Y14320608D01*
X-2165287Y14443447D01*
X-2269753Y14547913D01*
X-2392592Y14629991D01*
X-2529083Y14686528D01*
X-2673981Y14715350D01*
X-2821719Y14715350D01*
X-2966617Y14686528D01*
X-3103108Y14629991D01*
X-3225947Y14547913D01*
X-3258510Y14515350D01*
X-7260533Y14515350D01*
X-7332489Y14587306D01*
X-7318767Y14581622D01*
X-7173869Y14552800D01*
X-7026131Y14552800D01*
X-6881233Y14581622D01*
X-6744742Y14638159D01*
X-6621903Y14720237D01*
X-6517437Y14824703D01*
X-6435359Y14947542D01*
X-6378822Y15084033D01*
X-6350000Y15228931D01*
X-6350000Y15274983D01*
X-5774982Y15850000D01*
X-2510660Y15850000D01*
X-2478097Y15817437D01*
X-2355258Y15735359D01*
X-2218767Y15678822D01*
X-2073869Y15650000D01*
X-1926131Y15650000D01*
X-1781233Y15678822D01*
X-1644742Y15735359D01*
X-1521903Y15817437D01*
X-1417437Y15921903D01*
X-1335359Y16044742D01*
X-1278822Y16181233D01*
X-1250000Y16326131D01*
X-1250000Y16473869D01*
X-1278822Y16618767D01*
X-1335359Y16755258D01*
X-1417437Y16878097D01*
X-1521903Y16982563D01*
X-1644742Y17064641D01*
X-1781233Y17121178D01*
X-1926131Y17150000D01*
X-2073869Y17150000D01*
X-2218767Y17121178D01*
X-2355258Y17064641D01*
X-2478097Y16982563D01*
X-2510660Y16950000D01*
X-5975793Y16950000D01*
X-6002801Y16952660D01*
X-6029809Y16950000D01*
X-6029818Y16950000D01*
X-6110619Y16942042D01*
X-6214294Y16910592D01*
X-6253966Y16889387D01*
X-6309843Y16859521D01*
X-6372605Y16808013D01*
X-6372610Y16808008D01*
X-6393590Y16790790D01*
X-6410808Y16769810D01*
X-7127817Y16052800D01*
X-7173869Y16052800D01*
X-7318767Y16023978D01*
X-7455258Y15967441D01*
X-7578097Y15885363D01*
X-7682563Y15780897D01*
X-7764641Y15658058D01*
X-7821178Y15521567D01*
X-7850000Y15376669D01*
X-7850000Y15228931D01*
X-7821178Y15084033D01*
X-7815494Y15070311D01*
X-8317800Y15572617D01*
X-8317800Y15618669D01*
X-8346622Y15763567D01*
X-8403159Y15900058D01*
X-8485237Y16022897D01*
X-8589703Y16127363D01*
X-8712542Y16209441D01*
X-8849033Y16265978D01*
X-8993931Y16294800D01*
X-9141669Y16294800D01*
X-9286567Y16265978D01*
X-9423058Y16209441D01*
X-9545897Y16127363D01*
X-9650363Y16022897D01*
X-9732441Y15900058D01*
X-9788978Y15763567D01*
X-9817800Y15618669D01*
X-16933845Y15618669D01*
X-16664393Y15924840D01*
X-15303499Y17236746D01*
X-15138852Y17371269D01*
X7047800Y17371269D01*
X7047800Y17223531D01*
X7076622Y17078633D01*
X7133159Y16942142D01*
X7215237Y16819303D01*
X7319703Y16714837D01*
X7442542Y16632759D01*
X7579033Y16576222D01*
X7723931Y16547400D01*
X7871669Y16547400D01*
X8016567Y16576222D01*
X8153058Y16632759D01*
X8275897Y16714837D01*
X8380363Y16819303D01*
X8462441Y16942142D01*
X8518978Y17078633D01*
X8547800Y17223531D01*
X8547800Y17269583D01*
X8932719Y17654502D01*
X9017342Y17597959D01*
X9153833Y17541422D01*
X9298731Y17512600D01*
X9446469Y17512600D01*
X9591367Y17541422D01*
X9727858Y17597959D01*
X9850697Y17680037D01*
X9955163Y17784503D01*
X10037241Y17907342D01*
X10093778Y18043833D01*
X10122600Y18188731D01*
X10122600Y18336469D01*
X10093778Y18481367D01*
X10037241Y18617858D01*
X9955163Y18740697D01*
X9850697Y18845163D01*
X9727858Y18927241D01*
X9591367Y18983778D01*
X9446469Y19012600D01*
X9298731Y19012600D01*
X9153833Y18983778D01*
X9017342Y18927241D01*
X8894503Y18845163D01*
X8861940Y18812600D01*
X8790008Y18812600D01*
X8763000Y18815260D01*
X8735992Y18812600D01*
X8735982Y18812600D01*
X8655181Y18804642D01*
X8551506Y18773192D01*
X8490712Y18740697D01*
X8455958Y18722121D01*
X8393195Y18670613D01*
X8393190Y18670608D01*
X8372210Y18653390D01*
X8354992Y18632410D01*
X7769983Y18047400D01*
X7723931Y18047400D01*
X7579033Y18018578D01*
X7442542Y17962041D01*
X7319703Y17879963D01*
X7215237Y17775497D01*
X7133159Y17652658D01*
X7076622Y17516167D01*
X7047800Y17371269D01*
X-15138852Y17371269D01*
X-13839686Y18432731D01*
X-12282798Y19504752D01*
X-10643306Y20445600D01*
X-8932234Y21248946D01*
X-7161092Y21909388D01*
X-5341789Y22422484D01*
X-3486562Y22784784D01*
X-1607887Y22993851D01*
X281602Y23048280D01*
X2169197Y22947703D01*
M02*
