G04 #@! TF.GenerationSoftware,KiCad,Pcbnew,(5.1.0)-1*
G04 #@! TF.CreationDate,2019-06-21T14:44:27-03:00*
G04 #@! TF.ProjectId,PCB_D,5043425f-442e-46b6-9963-61645f706362,rev?*
G04 #@! TF.SameCoordinates,Original*
G04 #@! TF.FileFunction,Soldermask,Bot*
G04 #@! TF.FilePolarity,Negative*
%FSLAX46Y46*%
G04 Gerber Fmt 4.6, Leading zero omitted, Abs format (unit mm)*
G04 Created by KiCad (PCBNEW (5.1.0)-1) date 2019-06-21 14:44:27*
%MOMM*%
%LPD*%
G04 APERTURE LIST*
%ADD10C,0.100000*%
G04 APERTURE END LIST*
D10*
G36*
X643798Y-16963408D02*
G01*
X962574Y-17026817D01*
X1387234Y-17202717D01*
X1472792Y-17238156D01*
X1563136Y-17275578D01*
X2103627Y-17636723D01*
X2563277Y-18096373D01*
X2924422Y-18636864D01*
X3173183Y-19237426D01*
X3300000Y-19874978D01*
X3300000Y-20525022D01*
X3173183Y-21162574D01*
X2924422Y-21763136D01*
X2563277Y-22303627D01*
X2103627Y-22763277D01*
X1563136Y-23124422D01*
X962574Y-23373183D01*
X643798Y-23436591D01*
X325023Y-23500000D01*
X-325023Y-23500000D01*
X-643798Y-23436591D01*
X-962574Y-23373183D01*
X-1563136Y-23124422D01*
X-2103627Y-22763277D01*
X-2563277Y-22303627D01*
X-2924422Y-21763136D01*
X-3173183Y-21162574D01*
X-3300000Y-20525022D01*
X-3300000Y-19874978D01*
X-3173183Y-19237426D01*
X-2924422Y-18636864D01*
X-2563277Y-18096373D01*
X-2103627Y-17636723D01*
X-1563136Y-17275578D01*
X-1472791Y-17238156D01*
X-1387234Y-17202717D01*
X-962574Y-17026817D01*
X-643798Y-16963408D01*
X-325023Y-16900000D01*
X325023Y-16900000D01*
X643798Y-16963408D01*
X643798Y-16963408D01*
G37*
G36*
X-9879191Y-15449698D02*
G01*
X-9802062Y-15457295D01*
X-9604136Y-15517335D01*
X-9604133Y-15517336D01*
X-9421728Y-15614834D01*
X-9261843Y-15746047D01*
X-9130630Y-15905932D01*
X-9033132Y-16088337D01*
X-9033131Y-16088340D01*
X-8973091Y-16286266D01*
X-8952818Y-16492102D01*
X-8973091Y-16697938D01*
X-9033131Y-16895864D01*
X-9033132Y-16895867D01*
X-9130630Y-17078272D01*
X-9261843Y-17238157D01*
X-9421728Y-17369370D01*
X-9604133Y-17466868D01*
X-9604136Y-17466869D01*
X-9802062Y-17526909D01*
X-9879191Y-17534505D01*
X-9956318Y-17542102D01*
X-10059478Y-17542102D01*
X-10136605Y-17534505D01*
X-10213734Y-17526909D01*
X-10411660Y-17466869D01*
X-10411663Y-17466868D01*
X-10594068Y-17369370D01*
X-10753953Y-17238157D01*
X-10885166Y-17078272D01*
X-10982664Y-16895867D01*
X-10982665Y-16895864D01*
X-11042705Y-16697938D01*
X-11062978Y-16492102D01*
X-11042705Y-16286266D01*
X-10982665Y-16088340D01*
X-10982664Y-16088337D01*
X-10885166Y-15905932D01*
X-10753953Y-15746047D01*
X-10594068Y-15614834D01*
X-10411663Y-15517336D01*
X-10411660Y-15517335D01*
X-10213734Y-15457295D01*
X-10136605Y-15449698D01*
X-10059478Y-15442102D01*
X-9956318Y-15442102D01*
X-9879191Y-15449698D01*
X-9879191Y-15449698D01*
G37*
G36*
X-8083139Y-13653648D02*
G01*
X-8006010Y-13661244D01*
X-7808084Y-13721284D01*
X-7808081Y-13721285D01*
X-7625676Y-13818783D01*
X-7465791Y-13949996D01*
X-7334578Y-14109881D01*
X-7237080Y-14292286D01*
X-7237079Y-14292289D01*
X-7177039Y-14490215D01*
X-7156766Y-14696051D01*
X-7177039Y-14901887D01*
X-7237079Y-15099813D01*
X-7237080Y-15099816D01*
X-7334578Y-15282221D01*
X-7465791Y-15442106D01*
X-7625676Y-15573319D01*
X-7808081Y-15670817D01*
X-7808084Y-15670818D01*
X-8006010Y-15730858D01*
X-8083139Y-15738455D01*
X-8160266Y-15746051D01*
X-8263426Y-15746051D01*
X-8340553Y-15738455D01*
X-8417682Y-15730858D01*
X-8615608Y-15670818D01*
X-8615611Y-15670817D01*
X-8798016Y-15573319D01*
X-8957901Y-15442106D01*
X-9089114Y-15282221D01*
X-9186612Y-15099816D01*
X-9186613Y-15099813D01*
X-9246653Y-14901887D01*
X-9266926Y-14696051D01*
X-9246653Y-14490215D01*
X-9186613Y-14292289D01*
X-9186612Y-14292286D01*
X-9089114Y-14109881D01*
X-8957901Y-13949996D01*
X-8798016Y-13818783D01*
X-8615611Y-13721285D01*
X-8615608Y-13721284D01*
X-8417682Y-13661244D01*
X-8340553Y-13653648D01*
X-8263426Y-13646051D01*
X-8160266Y-13646051D01*
X-8083139Y-13653648D01*
X-8083139Y-13653648D01*
G37*
G36*
X-11675242Y-13653648D02*
G01*
X-11598113Y-13661244D01*
X-11400187Y-13721284D01*
X-11400184Y-13721285D01*
X-11217779Y-13818783D01*
X-11057894Y-13949996D01*
X-10926681Y-14109881D01*
X-10829183Y-14292286D01*
X-10829182Y-14292289D01*
X-10769142Y-14490215D01*
X-10748869Y-14696051D01*
X-10769142Y-14901887D01*
X-10829182Y-15099813D01*
X-10829183Y-15099816D01*
X-10926681Y-15282221D01*
X-11057894Y-15442106D01*
X-11217779Y-15573319D01*
X-11400184Y-15670817D01*
X-11400187Y-15670818D01*
X-11598113Y-15730858D01*
X-11675242Y-15738455D01*
X-11752369Y-15746051D01*
X-11855529Y-15746051D01*
X-11932656Y-15738455D01*
X-12009785Y-15730858D01*
X-12207711Y-15670818D01*
X-12207714Y-15670817D01*
X-12390119Y-15573319D01*
X-12550004Y-15442106D01*
X-12681217Y-15282221D01*
X-12778715Y-15099816D01*
X-12778716Y-15099813D01*
X-12838756Y-14901887D01*
X-12859029Y-14696051D01*
X-12838756Y-14490215D01*
X-12778716Y-14292289D01*
X-12778715Y-14292286D01*
X-12681217Y-14109881D01*
X-12550004Y-13949996D01*
X-12390119Y-13818783D01*
X-12207714Y-13721285D01*
X-12207711Y-13721284D01*
X-12009785Y-13661244D01*
X-11932656Y-13653648D01*
X-11855529Y-13646051D01*
X-11752369Y-13646051D01*
X-11675242Y-13653648D01*
X-11675242Y-13653648D01*
G37*
G36*
X-12115076Y-12900000D02*
G01*
X-13600000Y-14384924D01*
X-15084924Y-12900000D01*
X-13600000Y-11415076D01*
X-12115076Y-12900000D01*
X-12115076Y-12900000D01*
G37*
G36*
X-2019025Y-12796051D02*
G01*
X-3503949Y-14280975D01*
X-4988873Y-12796051D01*
X-3503949Y-11311127D01*
X-2019025Y-12796051D01*
X-2019025Y-12796051D01*
G37*
G36*
X-9879191Y-11857596D02*
G01*
X-9802062Y-11865193D01*
X-9604136Y-11925233D01*
X-9604133Y-11925234D01*
X-9421728Y-12022732D01*
X-9261843Y-12153945D01*
X-9130630Y-12313830D01*
X-9033132Y-12496235D01*
X-9033131Y-12496238D01*
X-8973091Y-12694164D01*
X-8952818Y-12900000D01*
X-8973091Y-13105836D01*
X-9033131Y-13303762D01*
X-9033132Y-13303765D01*
X-9130630Y-13486170D01*
X-9261843Y-13646055D01*
X-9421728Y-13777268D01*
X-9604133Y-13874766D01*
X-9604136Y-13874767D01*
X-9802062Y-13934807D01*
X-9879191Y-13942404D01*
X-9956318Y-13950000D01*
X-10059478Y-13950000D01*
X-10136605Y-13942404D01*
X-10213734Y-13934807D01*
X-10411660Y-13874767D01*
X-10411663Y-13874766D01*
X-10594068Y-13777268D01*
X-10753953Y-13646055D01*
X-10885166Y-13486170D01*
X-10982664Y-13303765D01*
X-10982665Y-13303762D01*
X-11042705Y-13105836D01*
X-11062978Y-12900000D01*
X-11042705Y-12694164D01*
X-10982665Y-12496238D01*
X-10982664Y-12496235D01*
X-10885166Y-12313830D01*
X-10753953Y-12153945D01*
X-10594068Y-12022732D01*
X-10411663Y-11925234D01*
X-10411660Y-11925233D01*
X-10213734Y-11865193D01*
X-10136605Y-11857596D01*
X-10059478Y-11850000D01*
X-9956318Y-11850000D01*
X-9879191Y-11857596D01*
X-9879191Y-11857596D01*
G37*
G36*
X-11675242Y-10061546D02*
G01*
X-11598113Y-10069142D01*
X-11421450Y-10122732D01*
X-11400184Y-10129183D01*
X-11217779Y-10226681D01*
X-11057894Y-10357894D01*
X-10926681Y-10517779D01*
X-10829183Y-10700184D01*
X-10829182Y-10700187D01*
X-10769142Y-10898113D01*
X-10748869Y-11103949D01*
X-10769142Y-11309785D01*
X-10801082Y-11415076D01*
X-10829183Y-11507714D01*
X-10926681Y-11690119D01*
X-11057894Y-11850004D01*
X-11217779Y-11981217D01*
X-11400184Y-12078715D01*
X-11400187Y-12078716D01*
X-11598113Y-12138756D01*
X-11675242Y-12146353D01*
X-11752369Y-12153949D01*
X-11855529Y-12153949D01*
X-11932656Y-12146353D01*
X-12009785Y-12138756D01*
X-12207711Y-12078716D01*
X-12207714Y-12078715D01*
X-12390119Y-11981217D01*
X-12550004Y-11850004D01*
X-12681217Y-11690119D01*
X-12778715Y-11507714D01*
X-12806816Y-11415076D01*
X-12838756Y-11309785D01*
X-12859029Y-11103949D01*
X-12838756Y-10898113D01*
X-12778716Y-10700187D01*
X-12778715Y-10700184D01*
X-12681217Y-10517779D01*
X-12550004Y-10357894D01*
X-12390119Y-10226681D01*
X-12207714Y-10129183D01*
X-12186448Y-10122732D01*
X-12009785Y-10069142D01*
X-11932656Y-10061546D01*
X-11855529Y-10053949D01*
X-11752369Y-10053949D01*
X-11675242Y-10061546D01*
X-11675242Y-10061546D01*
G37*
G36*
X-5171293Y-9957597D02*
G01*
X-5094164Y-9965193D01*
X-4896238Y-10025233D01*
X-4896235Y-10025234D01*
X-4713830Y-10122732D01*
X-4553945Y-10253945D01*
X-4422732Y-10413830D01*
X-4325234Y-10596235D01*
X-4325233Y-10596238D01*
X-4265193Y-10794164D01*
X-4244920Y-11000000D01*
X-4265193Y-11205836D01*
X-4297133Y-11311127D01*
X-4325234Y-11403765D01*
X-4422732Y-11586170D01*
X-4553945Y-11746055D01*
X-4713830Y-11877268D01*
X-4896235Y-11974766D01*
X-4896238Y-11974767D01*
X-5094164Y-12034807D01*
X-5171293Y-12042403D01*
X-5248420Y-12050000D01*
X-5351580Y-12050000D01*
X-5428707Y-12042403D01*
X-5505836Y-12034807D01*
X-5703762Y-11974767D01*
X-5703765Y-11974766D01*
X-5886170Y-11877268D01*
X-6046055Y-11746055D01*
X-6177268Y-11586170D01*
X-6274766Y-11403765D01*
X-6302867Y-11311127D01*
X-6334807Y-11205836D01*
X-6355080Y-11000000D01*
X-6334807Y-10794164D01*
X-6274767Y-10596238D01*
X-6274766Y-10596235D01*
X-6177268Y-10413830D01*
X-6046055Y-10253945D01*
X-5886170Y-10122732D01*
X-5703765Y-10025234D01*
X-5703762Y-10025233D01*
X-5505836Y-9965193D01*
X-5428707Y-9957597D01*
X-5351580Y-9950000D01*
X-5248420Y-9950000D01*
X-5171293Y-9957597D01*
X-5171293Y-9957597D01*
G37*
G36*
X-6967344Y-8161545D02*
G01*
X-6890215Y-8169142D01*
X-6692289Y-8229182D01*
X-6692286Y-8229183D01*
X-6509881Y-8326681D01*
X-6349996Y-8457894D01*
X-6218783Y-8617779D01*
X-6121285Y-8800184D01*
X-6121284Y-8800187D01*
X-6061244Y-8998113D01*
X-6040971Y-9203949D01*
X-6061244Y-9409785D01*
X-6121284Y-9607711D01*
X-6121285Y-9607714D01*
X-6218783Y-9790119D01*
X-6349996Y-9950004D01*
X-6509881Y-10081217D01*
X-6692286Y-10178715D01*
X-6692289Y-10178716D01*
X-6890215Y-10238756D01*
X-6967344Y-10246353D01*
X-7044471Y-10253949D01*
X-7147631Y-10253949D01*
X-7224758Y-10246353D01*
X-7301887Y-10238756D01*
X-7499813Y-10178716D01*
X-7499816Y-10178715D01*
X-7682221Y-10081217D01*
X-7842106Y-9950004D01*
X-7973319Y-9790119D01*
X-8070817Y-9607714D01*
X-8070818Y-9607711D01*
X-8130858Y-9409785D01*
X-8151131Y-9203949D01*
X-8130858Y-8998113D01*
X-8070818Y-8800187D01*
X-8070817Y-8800184D01*
X-7973319Y-8617779D01*
X-7842106Y-8457894D01*
X-7682221Y-8326681D01*
X-7499816Y-8229183D01*
X-7499813Y-8229182D01*
X-7301887Y-8169142D01*
X-7224758Y-8161545D01*
X-7147631Y-8153949D01*
X-7044471Y-8153949D01*
X-6967344Y-8161545D01*
X-6967344Y-8161545D01*
G37*
G36*
X18228687Y-6575027D02*
G01*
X18406274Y-6610350D01*
X18597362Y-6689502D01*
X18769336Y-6804411D01*
X18915589Y-6950664D01*
X19030498Y-7122638D01*
X19109650Y-7313726D01*
X19150000Y-7516584D01*
X19150000Y-7723416D01*
X19109650Y-7926274D01*
X19030498Y-8117362D01*
X18915589Y-8289336D01*
X18769336Y-8435589D01*
X18597362Y-8550498D01*
X18406274Y-8629650D01*
X18228687Y-8664973D01*
X18203417Y-8670000D01*
X17996583Y-8670000D01*
X17971313Y-8664973D01*
X17793726Y-8629650D01*
X17602638Y-8550498D01*
X17430664Y-8435589D01*
X17284411Y-8289336D01*
X17169502Y-8117362D01*
X17090350Y-7926274D01*
X17050000Y-7723416D01*
X17050000Y-7516584D01*
X17090350Y-7313726D01*
X17169502Y-7122638D01*
X17284411Y-6950664D01*
X17430664Y-6804411D01*
X17602638Y-6689502D01*
X17793726Y-6610350D01*
X17971313Y-6575027D01*
X17996583Y-6570000D01*
X18203417Y-6570000D01*
X18228687Y-6575027D01*
X18228687Y-6575027D01*
G37*
G36*
X-17971313Y-6575027D02*
G01*
X-17793726Y-6610350D01*
X-17602638Y-6689502D01*
X-17430664Y-6804411D01*
X-17284411Y-6950664D01*
X-17169502Y-7122638D01*
X-17090350Y-7313726D01*
X-17050000Y-7516584D01*
X-17050000Y-7723416D01*
X-17090350Y-7926274D01*
X-17169502Y-8117362D01*
X-17284411Y-8289336D01*
X-17430664Y-8435589D01*
X-17602638Y-8550498D01*
X-17793726Y-8629650D01*
X-17971313Y-8664973D01*
X-17996583Y-8670000D01*
X-18203417Y-8670000D01*
X-18228687Y-8664973D01*
X-18406274Y-8629650D01*
X-18597362Y-8550498D01*
X-18769336Y-8435589D01*
X-18915589Y-8289336D01*
X-19030498Y-8117362D01*
X-19109650Y-7926274D01*
X-19150000Y-7723416D01*
X-19150000Y-7516584D01*
X-19109650Y-7313726D01*
X-19030498Y-7122638D01*
X-18915589Y-6950664D01*
X-18769336Y-6804411D01*
X-18597362Y-6689502D01*
X-18406274Y-6610350D01*
X-18228687Y-6575027D01*
X-18203417Y-6570000D01*
X-17996583Y-6570000D01*
X-17971313Y-6575027D01*
X-17971313Y-6575027D01*
G37*
G36*
X-20671313Y-5305027D02*
G01*
X-20493726Y-5340350D01*
X-20302638Y-5419502D01*
X-20130664Y-5534411D01*
X-19984411Y-5680664D01*
X-19869502Y-5852638D01*
X-19790350Y-6043726D01*
X-19750000Y-6246584D01*
X-19750000Y-6453416D01*
X-19790350Y-6656274D01*
X-19869502Y-6847362D01*
X-19984411Y-7019336D01*
X-20130664Y-7165589D01*
X-20302638Y-7280498D01*
X-20493726Y-7359650D01*
X-20671313Y-7394973D01*
X-20696583Y-7400000D01*
X-20903417Y-7400000D01*
X-20928687Y-7394973D01*
X-21106274Y-7359650D01*
X-21297362Y-7280498D01*
X-21469336Y-7165589D01*
X-21615589Y-7019336D01*
X-21730498Y-6847362D01*
X-21809650Y-6656274D01*
X-21850000Y-6453416D01*
X-21850000Y-6246584D01*
X-21809650Y-6043726D01*
X-21730498Y-5852638D01*
X-21615589Y-5680664D01*
X-21469336Y-5534411D01*
X-21297362Y-5419502D01*
X-21106274Y-5340350D01*
X-20928687Y-5305027D01*
X-20903417Y-5300000D01*
X-20696583Y-5300000D01*
X-20671313Y-5305027D01*
X-20671313Y-5305027D01*
G37*
G36*
X20928687Y-5305027D02*
G01*
X21106274Y-5340350D01*
X21297362Y-5419502D01*
X21469336Y-5534411D01*
X21615589Y-5680664D01*
X21730498Y-5852638D01*
X21809650Y-6043726D01*
X21850000Y-6246584D01*
X21850000Y-6453416D01*
X21809650Y-6656274D01*
X21730498Y-6847362D01*
X21615589Y-7019336D01*
X21469336Y-7165589D01*
X21297362Y-7280498D01*
X21106274Y-7359650D01*
X20928687Y-7394973D01*
X20903417Y-7400000D01*
X20696583Y-7400000D01*
X20671313Y-7394973D01*
X20493726Y-7359650D01*
X20302638Y-7280498D01*
X20130664Y-7165589D01*
X19984411Y-7019336D01*
X19869502Y-6847362D01*
X19790350Y-6656274D01*
X19750000Y-6453416D01*
X19750000Y-6246584D01*
X19790350Y-6043726D01*
X19869502Y-5852638D01*
X19984411Y-5680664D01*
X20130664Y-5534411D01*
X20302638Y-5419502D01*
X20493726Y-5340350D01*
X20671313Y-5305027D01*
X20696583Y-5300000D01*
X20903417Y-5300000D01*
X20928687Y-5305027D01*
X20928687Y-5305027D01*
G37*
G36*
X-17971313Y-4035027D02*
G01*
X-17793726Y-4070350D01*
X-17602638Y-4149502D01*
X-17430664Y-4264411D01*
X-17284411Y-4410664D01*
X-17169502Y-4582638D01*
X-17090350Y-4773726D01*
X-17050000Y-4976584D01*
X-17050000Y-5183416D01*
X-17090350Y-5386274D01*
X-17169502Y-5577362D01*
X-17284411Y-5749336D01*
X-17430664Y-5895589D01*
X-17602638Y-6010498D01*
X-17793726Y-6089650D01*
X-17971313Y-6124973D01*
X-17996583Y-6130000D01*
X-18203417Y-6130000D01*
X-18228687Y-6124973D01*
X-18406274Y-6089650D01*
X-18597362Y-6010498D01*
X-18769336Y-5895589D01*
X-18915589Y-5749336D01*
X-19030498Y-5577362D01*
X-19109650Y-5386274D01*
X-19150000Y-5183416D01*
X-19150000Y-4976584D01*
X-19109650Y-4773726D01*
X-19030498Y-4582638D01*
X-18915589Y-4410664D01*
X-18769336Y-4264411D01*
X-18597362Y-4149502D01*
X-18406274Y-4070350D01*
X-18228687Y-4035027D01*
X-18203417Y-4030000D01*
X-17996583Y-4030000D01*
X-17971313Y-4035027D01*
X-17971313Y-4035027D01*
G37*
G36*
X18228687Y-4035027D02*
G01*
X18406274Y-4070350D01*
X18597362Y-4149502D01*
X18769336Y-4264411D01*
X18915589Y-4410664D01*
X19030498Y-4582638D01*
X19109650Y-4773726D01*
X19150000Y-4976584D01*
X19150000Y-5183416D01*
X19109650Y-5386274D01*
X19030498Y-5577362D01*
X18915589Y-5749336D01*
X18769336Y-5895589D01*
X18597362Y-6010498D01*
X18406274Y-6089650D01*
X18228687Y-6124973D01*
X18203417Y-6130000D01*
X17996583Y-6130000D01*
X17971313Y-6124973D01*
X17793726Y-6089650D01*
X17602638Y-6010498D01*
X17430664Y-5895589D01*
X17284411Y-5749336D01*
X17169502Y-5577362D01*
X17090350Y-5386274D01*
X17050000Y-5183416D01*
X17050000Y-4976584D01*
X17090350Y-4773726D01*
X17169502Y-4582638D01*
X17284411Y-4410664D01*
X17430664Y-4264411D01*
X17602638Y-4149502D01*
X17793726Y-4070350D01*
X17971313Y-4035027D01*
X17996583Y-4030000D01*
X18203417Y-4030000D01*
X18228687Y-4035027D01*
X18228687Y-4035027D01*
G37*
G36*
X20928687Y-2765027D02*
G01*
X21106274Y-2800350D01*
X21297362Y-2879502D01*
X21469336Y-2994411D01*
X21615589Y-3140664D01*
X21730498Y-3312638D01*
X21809650Y-3503726D01*
X21850000Y-3706584D01*
X21850000Y-3913416D01*
X21809650Y-4116274D01*
X21730498Y-4307362D01*
X21615589Y-4479336D01*
X21469336Y-4625589D01*
X21297362Y-4740498D01*
X21106274Y-4819650D01*
X20928687Y-4854973D01*
X20903417Y-4860000D01*
X20696583Y-4860000D01*
X20671313Y-4854973D01*
X20493726Y-4819650D01*
X20302638Y-4740498D01*
X20130664Y-4625589D01*
X19984411Y-4479336D01*
X19869502Y-4307362D01*
X19790350Y-4116274D01*
X19750000Y-3913416D01*
X19750000Y-3706584D01*
X19790350Y-3503726D01*
X19869502Y-3312638D01*
X19984411Y-3140664D01*
X20130664Y-2994411D01*
X20302638Y-2879502D01*
X20493726Y-2800350D01*
X20671313Y-2765027D01*
X20696583Y-2760000D01*
X20903417Y-2760000D01*
X20928687Y-2765027D01*
X20928687Y-2765027D01*
G37*
G36*
X-20671313Y-2765027D02*
G01*
X-20493726Y-2800350D01*
X-20302638Y-2879502D01*
X-20130664Y-2994411D01*
X-19984411Y-3140664D01*
X-19869502Y-3312638D01*
X-19790350Y-3503726D01*
X-19750000Y-3706584D01*
X-19750000Y-3913416D01*
X-19790350Y-4116274D01*
X-19869502Y-4307362D01*
X-19984411Y-4479336D01*
X-20130664Y-4625589D01*
X-20302638Y-4740498D01*
X-20493726Y-4819650D01*
X-20671313Y-4854973D01*
X-20696583Y-4860000D01*
X-20903417Y-4860000D01*
X-20928687Y-4854973D01*
X-21106274Y-4819650D01*
X-21297362Y-4740498D01*
X-21469336Y-4625589D01*
X-21615589Y-4479336D01*
X-21730498Y-4307362D01*
X-21809650Y-4116274D01*
X-21850000Y-3913416D01*
X-21850000Y-3706584D01*
X-21809650Y-3503726D01*
X-21730498Y-3312638D01*
X-21615589Y-3140664D01*
X-21469336Y-2994411D01*
X-21297362Y-2879502D01*
X-21106274Y-2800350D01*
X-20928687Y-2765027D01*
X-20903417Y-2760000D01*
X-20696583Y-2760000D01*
X-20671313Y-2765027D01*
X-20671313Y-2765027D01*
G37*
G36*
X18228687Y-1495027D02*
G01*
X18406274Y-1530350D01*
X18597362Y-1609502D01*
X18769336Y-1724411D01*
X18915589Y-1870664D01*
X19030498Y-2042638D01*
X19109650Y-2233726D01*
X19150000Y-2436584D01*
X19150000Y-2643416D01*
X19109650Y-2846274D01*
X19030498Y-3037362D01*
X18915589Y-3209336D01*
X18769336Y-3355589D01*
X18597362Y-3470498D01*
X18406274Y-3549650D01*
X18228687Y-3584973D01*
X18203417Y-3590000D01*
X17996583Y-3590000D01*
X17971313Y-3584973D01*
X17793726Y-3549650D01*
X17602638Y-3470498D01*
X17430664Y-3355589D01*
X17284411Y-3209336D01*
X17169502Y-3037362D01*
X17090350Y-2846274D01*
X17050000Y-2643416D01*
X17050000Y-2436584D01*
X17090350Y-2233726D01*
X17169502Y-2042638D01*
X17284411Y-1870664D01*
X17430664Y-1724411D01*
X17602638Y-1609502D01*
X17793726Y-1530350D01*
X17971313Y-1495027D01*
X17996583Y-1490000D01*
X18203417Y-1490000D01*
X18228687Y-1495027D01*
X18228687Y-1495027D01*
G37*
G36*
X-17971313Y-1495027D02*
G01*
X-17793726Y-1530350D01*
X-17602638Y-1609502D01*
X-17430664Y-1724411D01*
X-17284411Y-1870664D01*
X-17169502Y-2042638D01*
X-17090350Y-2233726D01*
X-17050000Y-2436584D01*
X-17050000Y-2643416D01*
X-17090350Y-2846274D01*
X-17169502Y-3037362D01*
X-17284411Y-3209336D01*
X-17430664Y-3355589D01*
X-17602638Y-3470498D01*
X-17793726Y-3549650D01*
X-17971313Y-3584973D01*
X-17996583Y-3590000D01*
X-18203417Y-3590000D01*
X-18228687Y-3584973D01*
X-18406274Y-3549650D01*
X-18597362Y-3470498D01*
X-18769336Y-3355589D01*
X-18915589Y-3209336D01*
X-19030498Y-3037362D01*
X-19109650Y-2846274D01*
X-19150000Y-2643416D01*
X-19150000Y-2436584D01*
X-19109650Y-2233726D01*
X-19030498Y-2042638D01*
X-18915589Y-1870664D01*
X-18769336Y-1724411D01*
X-18597362Y-1609502D01*
X-18406274Y-1530350D01*
X-18228687Y-1495027D01*
X-18203417Y-1490000D01*
X-17996583Y-1490000D01*
X-17971313Y-1495027D01*
X-17971313Y-1495027D01*
G37*
G36*
X20928687Y-225027D02*
G01*
X21106274Y-260350D01*
X21297362Y-339502D01*
X21469336Y-454411D01*
X21615589Y-600664D01*
X21730498Y-772638D01*
X21809650Y-963726D01*
X21850000Y-1166584D01*
X21850000Y-1373416D01*
X21809650Y-1576274D01*
X21730498Y-1767362D01*
X21615589Y-1939336D01*
X21469336Y-2085589D01*
X21297362Y-2200498D01*
X21106274Y-2279650D01*
X20928687Y-2314973D01*
X20903417Y-2320000D01*
X20696583Y-2320000D01*
X20671313Y-2314973D01*
X20493726Y-2279650D01*
X20302638Y-2200498D01*
X20130664Y-2085589D01*
X19984411Y-1939336D01*
X19869502Y-1767362D01*
X19790350Y-1576274D01*
X19750000Y-1373416D01*
X19750000Y-1166584D01*
X19790350Y-963726D01*
X19869502Y-772638D01*
X19984411Y-600664D01*
X20130664Y-454411D01*
X20302638Y-339502D01*
X20493726Y-260350D01*
X20671313Y-225027D01*
X20696583Y-220000D01*
X20903417Y-220000D01*
X20928687Y-225027D01*
X20928687Y-225027D01*
G37*
G36*
X-20671313Y-225027D02*
G01*
X-20493726Y-260350D01*
X-20302638Y-339502D01*
X-20130664Y-454411D01*
X-19984411Y-600664D01*
X-19869502Y-772638D01*
X-19790350Y-963726D01*
X-19750000Y-1166584D01*
X-19750000Y-1373416D01*
X-19790350Y-1576274D01*
X-19869502Y-1767362D01*
X-19984411Y-1939336D01*
X-20130664Y-2085589D01*
X-20302638Y-2200498D01*
X-20493726Y-2279650D01*
X-20671313Y-2314973D01*
X-20696583Y-2320000D01*
X-20903417Y-2320000D01*
X-20928687Y-2314973D01*
X-21106274Y-2279650D01*
X-21297362Y-2200498D01*
X-21469336Y-2085589D01*
X-21615589Y-1939336D01*
X-21730498Y-1767362D01*
X-21809650Y-1576274D01*
X-21850000Y-1373416D01*
X-21850000Y-1166584D01*
X-21809650Y-963726D01*
X-21730498Y-772638D01*
X-21615589Y-600664D01*
X-21469336Y-454411D01*
X-21297362Y-339502D01*
X-21106274Y-260350D01*
X-20928687Y-225027D01*
X-20903417Y-220000D01*
X-20696583Y-220000D01*
X-20671313Y-225027D01*
X-20671313Y-225027D01*
G37*
G36*
X-17971313Y1044973D02*
G01*
X-17793726Y1009650D01*
X-17602638Y930498D01*
X-17430664Y815589D01*
X-17284411Y669336D01*
X-17169502Y497362D01*
X-17090350Y306274D01*
X-17050000Y103416D01*
X-17050000Y-103416D01*
X-17090350Y-306274D01*
X-17169502Y-497362D01*
X-17284411Y-669336D01*
X-17430664Y-815589D01*
X-17602638Y-930498D01*
X-17793726Y-1009650D01*
X-17971313Y-1044973D01*
X-17996583Y-1050000D01*
X-18203417Y-1050000D01*
X-18228687Y-1044973D01*
X-18406274Y-1009650D01*
X-18597362Y-930498D01*
X-18769336Y-815589D01*
X-18915589Y-669336D01*
X-19030498Y-497362D01*
X-19109650Y-306274D01*
X-19150000Y-103416D01*
X-19150000Y103416D01*
X-19109650Y306274D01*
X-19030498Y497362D01*
X-18915589Y669336D01*
X-18769336Y815589D01*
X-18597362Y930498D01*
X-18406274Y1009650D01*
X-18228687Y1044973D01*
X-18203417Y1050000D01*
X-17996583Y1050000D01*
X-17971313Y1044973D01*
X-17971313Y1044973D01*
G37*
G36*
X18228687Y1044973D02*
G01*
X18406274Y1009650D01*
X18597362Y930498D01*
X18769336Y815589D01*
X18915589Y669336D01*
X19030498Y497362D01*
X19109650Y306274D01*
X19150000Y103416D01*
X19150000Y-103416D01*
X19109650Y-306274D01*
X19030498Y-497362D01*
X18915589Y-669336D01*
X18769336Y-815589D01*
X18597362Y-930498D01*
X18406274Y-1009650D01*
X18228687Y-1044973D01*
X18203417Y-1050000D01*
X17996583Y-1050000D01*
X17971313Y-1044973D01*
X17793726Y-1009650D01*
X17602638Y-930498D01*
X17430664Y-815589D01*
X17284411Y-669336D01*
X17169502Y-497362D01*
X17090350Y-306274D01*
X17050000Y-103416D01*
X17050000Y103416D01*
X17090350Y306274D01*
X17169502Y497362D01*
X17284411Y669336D01*
X17430664Y815589D01*
X17602638Y930498D01*
X17793726Y1009650D01*
X17971313Y1044973D01*
X17996583Y1050000D01*
X18203417Y1050000D01*
X18228687Y1044973D01*
X18228687Y1044973D01*
G37*
G36*
X-8285974Y2322285D02*
G01*
X-8072174Y2233726D01*
X-8067587Y2231826D01*
X-7871045Y2100501D01*
X-7703899Y1933355D01*
X-7572573Y1736811D01*
X-7482115Y1518426D01*
X-7436000Y1286591D01*
X-7436000Y1050209D01*
X-7482115Y818374D01*
X-7572573Y599989D01*
X-7572574Y599987D01*
X-7703899Y403445D01*
X-7871045Y236299D01*
X-8067587Y104974D01*
X-8067588Y104973D01*
X-8067589Y104973D01*
X-8285974Y14515D01*
X-8517809Y-31600D01*
X-8754191Y-31600D01*
X-8986026Y14515D01*
X-9204411Y104973D01*
X-9204412Y104973D01*
X-9204413Y104974D01*
X-9400955Y236299D01*
X-9568101Y403445D01*
X-9699426Y599987D01*
X-9699427Y599989D01*
X-9789885Y818374D01*
X-9836000Y1050209D01*
X-9836000Y1286591D01*
X-9789885Y1518426D01*
X-9699427Y1736811D01*
X-9568101Y1933355D01*
X-9400955Y2100501D01*
X-9204413Y2231826D01*
X-9199826Y2233726D01*
X-8986026Y2322285D01*
X-8754191Y2368400D01*
X-8517809Y2368400D01*
X-8285974Y2322285D01*
X-8285974Y2322285D01*
G37*
G36*
X20928687Y2314973D02*
G01*
X21106274Y2279650D01*
X21297362Y2200498D01*
X21469336Y2085589D01*
X21615589Y1939336D01*
X21730498Y1767362D01*
X21809650Y1576274D01*
X21850000Y1373416D01*
X21850000Y1166584D01*
X21809650Y963726D01*
X21730498Y772638D01*
X21615589Y600664D01*
X21469336Y454411D01*
X21297362Y339502D01*
X21106274Y260350D01*
X20928687Y225027D01*
X20903417Y220000D01*
X20696583Y220000D01*
X20671313Y225027D01*
X20493726Y260350D01*
X20302638Y339502D01*
X20130664Y454411D01*
X19984411Y600664D01*
X19869502Y772638D01*
X19790350Y963726D01*
X19750000Y1166584D01*
X19750000Y1373416D01*
X19790350Y1576274D01*
X19869502Y1767362D01*
X19984411Y1939336D01*
X20130664Y2085589D01*
X20302638Y2200498D01*
X20493726Y2279650D01*
X20671313Y2314973D01*
X20696583Y2320000D01*
X20903417Y2320000D01*
X20928687Y2314973D01*
X20928687Y2314973D01*
G37*
G36*
X-20671313Y2314973D02*
G01*
X-20493726Y2279650D01*
X-20302638Y2200498D01*
X-20130664Y2085589D01*
X-19984411Y1939336D01*
X-19869502Y1767362D01*
X-19790350Y1576274D01*
X-19750000Y1373416D01*
X-19750000Y1166584D01*
X-19790350Y963726D01*
X-19869502Y772638D01*
X-19984411Y600664D01*
X-20130664Y454411D01*
X-20302638Y339502D01*
X-20493726Y260350D01*
X-20671313Y225027D01*
X-20696583Y220000D01*
X-20903417Y220000D01*
X-20928687Y225027D01*
X-21106274Y260350D01*
X-21297362Y339502D01*
X-21469336Y454411D01*
X-21615589Y600664D01*
X-21730498Y772638D01*
X-21809650Y963726D01*
X-21850000Y1166584D01*
X-21850000Y1373416D01*
X-21809650Y1576274D01*
X-21730498Y1767362D01*
X-21615589Y1939336D01*
X-21469336Y2085589D01*
X-21297362Y2200498D01*
X-21106274Y2279650D01*
X-20928687Y2314973D01*
X-20903417Y2320000D01*
X-20696583Y2320000D01*
X-20671313Y2314973D01*
X-20671313Y2314973D01*
G37*
G36*
X-17973588Y3585426D02*
G01*
X-17793726Y3549650D01*
X-17602638Y3470498D01*
X-17430664Y3355589D01*
X-17284411Y3209336D01*
X-17169502Y3037362D01*
X-17090350Y2846274D01*
X-17050000Y2643416D01*
X-17050000Y2436584D01*
X-17090350Y2233726D01*
X-17169502Y2042638D01*
X-17284411Y1870664D01*
X-17430664Y1724411D01*
X-17602638Y1609502D01*
X-17793726Y1530350D01*
X-17971313Y1495027D01*
X-17996583Y1490000D01*
X-18203417Y1490000D01*
X-18228687Y1495027D01*
X-18406274Y1530350D01*
X-18597362Y1609502D01*
X-18769336Y1724411D01*
X-18915589Y1870664D01*
X-19030498Y2042638D01*
X-19109650Y2233726D01*
X-19150000Y2436584D01*
X-19150000Y2643416D01*
X-19109650Y2846274D01*
X-19030498Y3037362D01*
X-18915589Y3209336D01*
X-18769336Y3355589D01*
X-18597362Y3470498D01*
X-18406274Y3549650D01*
X-18226412Y3585426D01*
X-18203417Y3590000D01*
X-17996583Y3590000D01*
X-17973588Y3585426D01*
X-17973588Y3585426D01*
G37*
G36*
X18226412Y3585426D02*
G01*
X18406274Y3549650D01*
X18597362Y3470498D01*
X18769336Y3355589D01*
X18915589Y3209336D01*
X19030498Y3037362D01*
X19109650Y2846274D01*
X19150000Y2643416D01*
X19150000Y2436584D01*
X19109650Y2233726D01*
X19030498Y2042638D01*
X18915589Y1870664D01*
X18769336Y1724411D01*
X18597362Y1609502D01*
X18406274Y1530350D01*
X18228687Y1495027D01*
X18203417Y1490000D01*
X17996583Y1490000D01*
X17971313Y1495027D01*
X17793726Y1530350D01*
X17602638Y1609502D01*
X17430664Y1724411D01*
X17284411Y1870664D01*
X17169502Y2042638D01*
X17090350Y2233726D01*
X17050000Y2436584D01*
X17050000Y2643416D01*
X17090350Y2846274D01*
X17169502Y3037362D01*
X17284411Y3209336D01*
X17430664Y3355589D01*
X17602638Y3470498D01*
X17793726Y3549650D01*
X17973588Y3585426D01*
X17996583Y3590000D01*
X18203417Y3590000D01*
X18226412Y3585426D01*
X18226412Y3585426D01*
G37*
G36*
X20928687Y4854973D02*
G01*
X21106274Y4819650D01*
X21297362Y4740498D01*
X21469336Y4625589D01*
X21615589Y4479336D01*
X21730498Y4307362D01*
X21809650Y4116274D01*
X21850000Y3913416D01*
X21850000Y3706584D01*
X21809650Y3503726D01*
X21730498Y3312638D01*
X21615589Y3140664D01*
X21469336Y2994411D01*
X21297362Y2879502D01*
X21106274Y2800350D01*
X20928687Y2765027D01*
X20903417Y2760000D01*
X20696583Y2760000D01*
X20671313Y2765027D01*
X20493726Y2800350D01*
X20302638Y2879502D01*
X20130664Y2994411D01*
X19984411Y3140664D01*
X19869502Y3312638D01*
X19790350Y3503726D01*
X19750000Y3706584D01*
X19750000Y3913416D01*
X19790350Y4116274D01*
X19869502Y4307362D01*
X19984411Y4479336D01*
X20130664Y4625589D01*
X20302638Y4740498D01*
X20493726Y4819650D01*
X20671313Y4854973D01*
X20696583Y4860000D01*
X20903417Y4860000D01*
X20928687Y4854973D01*
X20928687Y4854973D01*
G37*
G36*
X-20671313Y4854973D02*
G01*
X-20493726Y4819650D01*
X-20302638Y4740498D01*
X-20130664Y4625589D01*
X-19984411Y4479336D01*
X-19869502Y4307362D01*
X-19790350Y4116274D01*
X-19750000Y3913416D01*
X-19750000Y3706584D01*
X-19790350Y3503726D01*
X-19869502Y3312638D01*
X-19984411Y3140664D01*
X-20130664Y2994411D01*
X-20302638Y2879502D01*
X-20493726Y2800350D01*
X-20671313Y2765027D01*
X-20696583Y2760000D01*
X-20903417Y2760000D01*
X-20928687Y2765027D01*
X-21106274Y2800350D01*
X-21297362Y2879502D01*
X-21469336Y2994411D01*
X-21615589Y3140664D01*
X-21730498Y3312638D01*
X-21809650Y3503726D01*
X-21850000Y3706584D01*
X-21850000Y3913416D01*
X-21809650Y4116274D01*
X-21730498Y4307362D01*
X-21615589Y4479336D01*
X-21469336Y4625589D01*
X-21297362Y4740498D01*
X-21106274Y4819650D01*
X-20928687Y4854973D01*
X-20903417Y4860000D01*
X-20696583Y4860000D01*
X-20671313Y4854973D01*
X-20671313Y4854973D01*
G37*
G36*
X-5103993Y5504266D02*
G01*
X-4885608Y5413808D01*
X-4885606Y5413807D01*
X-4689064Y5282482D01*
X-4521918Y5115336D01*
X-4429206Y4976583D01*
X-4390592Y4918792D01*
X-4300134Y4700407D01*
X-4254019Y4468572D01*
X-4254019Y4232190D01*
X-4300134Y4000355D01*
X-4390592Y3781970D01*
X-4390593Y3781968D01*
X-4521918Y3585426D01*
X-4689064Y3418280D01*
X-4885606Y3286955D01*
X-4885607Y3286954D01*
X-4885608Y3286954D01*
X-5103993Y3196496D01*
X-5335828Y3150381D01*
X-5572210Y3150381D01*
X-5804045Y3196496D01*
X-6022430Y3286954D01*
X-6022431Y3286954D01*
X-6022432Y3286955D01*
X-6218974Y3418280D01*
X-6386120Y3585426D01*
X-6517445Y3781968D01*
X-6517446Y3781970D01*
X-6607904Y4000355D01*
X-6654019Y4232190D01*
X-6654019Y4468572D01*
X-6607904Y4700407D01*
X-6517446Y4918792D01*
X-6478831Y4976583D01*
X-6386120Y5115336D01*
X-6218974Y5282482D01*
X-6022432Y5413807D01*
X-6022430Y5413808D01*
X-5804045Y5504266D01*
X-5572210Y5550381D01*
X-5335828Y5550381D01*
X-5103993Y5504266D01*
X-5103993Y5504266D01*
G37*
G36*
X18228687Y6124973D02*
G01*
X18406274Y6089650D01*
X18597362Y6010498D01*
X18769336Y5895589D01*
X18915589Y5749336D01*
X19030498Y5577362D01*
X19109650Y5386274D01*
X19150000Y5183416D01*
X19150000Y4976584D01*
X19109650Y4773726D01*
X19030498Y4582638D01*
X18915589Y4410664D01*
X18769336Y4264411D01*
X18597362Y4149502D01*
X18406274Y4070350D01*
X18228687Y4035027D01*
X18203417Y4030000D01*
X17996583Y4030000D01*
X17971313Y4035027D01*
X17793726Y4070350D01*
X17602638Y4149502D01*
X17430664Y4264411D01*
X17284411Y4410664D01*
X17169502Y4582638D01*
X17090350Y4773726D01*
X17050000Y4976584D01*
X17050000Y5183416D01*
X17090350Y5386274D01*
X17169502Y5577362D01*
X17284411Y5749336D01*
X17430664Y5895589D01*
X17602638Y6010498D01*
X17793726Y6089650D01*
X17971313Y6124973D01*
X17996583Y6130000D01*
X18203417Y6130000D01*
X18228687Y6124973D01*
X18228687Y6124973D01*
G37*
G36*
X-17971313Y6124973D02*
G01*
X-17793726Y6089650D01*
X-17602638Y6010498D01*
X-17430664Y5895589D01*
X-17284411Y5749336D01*
X-17169502Y5577362D01*
X-17090350Y5386274D01*
X-17050000Y5183416D01*
X-17050000Y4976584D01*
X-17090350Y4773726D01*
X-17169502Y4582638D01*
X-17284411Y4410664D01*
X-17430664Y4264411D01*
X-17602638Y4149502D01*
X-17793726Y4070350D01*
X-17971313Y4035027D01*
X-17996583Y4030000D01*
X-18203417Y4030000D01*
X-18228687Y4035027D01*
X-18406274Y4070350D01*
X-18597362Y4149502D01*
X-18769336Y4264411D01*
X-18915589Y4410664D01*
X-19030498Y4582638D01*
X-19109650Y4773726D01*
X-19150000Y4976584D01*
X-19150000Y5183416D01*
X-19109650Y5386274D01*
X-19030498Y5577362D01*
X-18915589Y5749336D01*
X-18769336Y5895589D01*
X-18597362Y6010498D01*
X-18406274Y6089650D01*
X-18228687Y6124973D01*
X-18203417Y6130000D01*
X-17996583Y6130000D01*
X-17971313Y6124973D01*
X-17971313Y6124973D01*
G37*
G36*
X-12882168Y6918479D02*
G01*
X-12663783Y6828021D01*
X-12663781Y6828020D01*
X-12467239Y6696695D01*
X-12300093Y6529549D01*
X-12168767Y6333005D01*
X-12078309Y6114620D01*
X-12032194Y5882785D01*
X-12032194Y5646403D01*
X-12078309Y5414568D01*
X-12125765Y5300000D01*
X-12168768Y5196181D01*
X-12300093Y4999639D01*
X-12467239Y4832493D01*
X-12663781Y4701168D01*
X-12663782Y4701167D01*
X-12663783Y4701167D01*
X-12882168Y4610709D01*
X-13114003Y4564594D01*
X-13350385Y4564594D01*
X-13582220Y4610709D01*
X-13800605Y4701167D01*
X-13800606Y4701167D01*
X-13800607Y4701168D01*
X-13997149Y4832493D01*
X-14164295Y4999639D01*
X-14295620Y5196181D01*
X-14338623Y5300000D01*
X-14386079Y5414568D01*
X-14432194Y5646403D01*
X-14432194Y5882785D01*
X-14386079Y6114620D01*
X-14295621Y6333005D01*
X-14164295Y6529549D01*
X-13997149Y6696695D01*
X-13800607Y6828020D01*
X-13800605Y6828021D01*
X-13582220Y6918479D01*
X-13350385Y6964594D01*
X-13114003Y6964594D01*
X-12882168Y6918479D01*
X-12882168Y6918479D01*
G37*
G36*
X-20671313Y7394973D02*
G01*
X-20493726Y7359650D01*
X-20302638Y7280498D01*
X-20130664Y7165589D01*
X-19984411Y7019336D01*
X-19869502Y6847362D01*
X-19790350Y6656274D01*
X-19750000Y6453416D01*
X-19750000Y6246584D01*
X-19790350Y6043726D01*
X-19869502Y5852638D01*
X-19984411Y5680664D01*
X-20130664Y5534411D01*
X-20302638Y5419502D01*
X-20493726Y5340350D01*
X-20671313Y5305027D01*
X-20696583Y5300000D01*
X-20903417Y5300000D01*
X-20928687Y5305027D01*
X-21106274Y5340350D01*
X-21297362Y5419502D01*
X-21469336Y5534411D01*
X-21615589Y5680664D01*
X-21730498Y5852638D01*
X-21809650Y6043726D01*
X-21850000Y6246584D01*
X-21850000Y6453416D01*
X-21809650Y6656274D01*
X-21730498Y6847362D01*
X-21615589Y7019336D01*
X-21469336Y7165589D01*
X-21297362Y7280498D01*
X-21106274Y7359650D01*
X-20928687Y7394973D01*
X-20903417Y7400000D01*
X-20696583Y7400000D01*
X-20671313Y7394973D01*
X-20671313Y7394973D01*
G37*
G36*
X20928687Y7394973D02*
G01*
X21106274Y7359650D01*
X21297362Y7280498D01*
X21469336Y7165589D01*
X21615589Y7019336D01*
X21730498Y6847362D01*
X21809650Y6656274D01*
X21850000Y6453416D01*
X21850000Y6246584D01*
X21809650Y6043726D01*
X21730498Y5852638D01*
X21615589Y5680664D01*
X21469336Y5534411D01*
X21297362Y5419502D01*
X21106274Y5340350D01*
X20928687Y5305027D01*
X20903417Y5300000D01*
X20696583Y5300000D01*
X20671313Y5305027D01*
X20493726Y5340350D01*
X20302638Y5419502D01*
X20130664Y5534411D01*
X19984411Y5680664D01*
X19869502Y5852638D01*
X19790350Y6043726D01*
X19750000Y6246584D01*
X19750000Y6453416D01*
X19790350Y6656274D01*
X19869502Y6847362D01*
X19984411Y7019336D01*
X20130664Y7165589D01*
X20302638Y7280498D01*
X20493726Y7359650D01*
X20671313Y7394973D01*
X20696583Y7400000D01*
X20903417Y7400000D01*
X20928687Y7394973D01*
X20928687Y7394973D01*
G37*
G36*
X-9700188Y10100460D02*
G01*
X-9541688Y10034807D01*
X-9481801Y10010001D01*
X-9429070Y9974767D01*
X-9285259Y9878676D01*
X-9118113Y9711530D01*
X-8986787Y9514986D01*
X-8896329Y9296601D01*
X-8850214Y9064766D01*
X-8850214Y8828384D01*
X-8896329Y8596549D01*
X-8972014Y8413830D01*
X-8986788Y8378162D01*
X-9118113Y8181620D01*
X-9285259Y8014474D01*
X-9481801Y7883149D01*
X-9481802Y7883148D01*
X-9481803Y7883148D01*
X-9700188Y7792690D01*
X-9932023Y7746575D01*
X-10168405Y7746575D01*
X-10400240Y7792690D01*
X-10618625Y7883148D01*
X-10618626Y7883148D01*
X-10618627Y7883149D01*
X-10815169Y8014474D01*
X-10982315Y8181620D01*
X-11113640Y8378162D01*
X-11128414Y8413830D01*
X-11204099Y8596549D01*
X-11250214Y8828384D01*
X-11250214Y9064766D01*
X-11204099Y9296601D01*
X-11113641Y9514986D01*
X-10982315Y9711530D01*
X-10815169Y9878676D01*
X-10671358Y9974767D01*
X-10618627Y10010001D01*
X-10558740Y10034807D01*
X-10400240Y10100460D01*
X-10168405Y10146575D01*
X-9932023Y10146575D01*
X-9700188Y10100460D01*
X-9700188Y10100460D01*
G37*
G36*
X20300000Y7950000D02*
G01*
X18200000Y7950000D01*
X18200000Y10050000D01*
X20300000Y10050000D01*
X20300000Y7950000D01*
X20300000Y7950000D01*
G37*
G36*
X16838707Y10042404D02*
G01*
X16915836Y10034807D01*
X17113762Y9974767D01*
X17113765Y9974766D01*
X17296170Y9877268D01*
X17456055Y9746055D01*
X17587268Y9586170D01*
X17684766Y9403765D01*
X17684767Y9403762D01*
X17744807Y9205836D01*
X17765080Y9000000D01*
X17744807Y8794164D01*
X17684861Y8596549D01*
X17684766Y8596235D01*
X17587268Y8413830D01*
X17456055Y8253945D01*
X17296170Y8122732D01*
X17113765Y8025234D01*
X17113762Y8025233D01*
X16915836Y7965193D01*
X16838707Y7957596D01*
X16761580Y7950000D01*
X16658420Y7950000D01*
X16581293Y7957596D01*
X16504164Y7965193D01*
X16306238Y8025233D01*
X16306235Y8025234D01*
X16123830Y8122732D01*
X15963945Y8253945D01*
X15832732Y8413830D01*
X15735234Y8596235D01*
X15735139Y8596549D01*
X15675193Y8794164D01*
X15654920Y9000000D01*
X15675193Y9205836D01*
X15735233Y9403762D01*
X15735234Y9403765D01*
X15832732Y9586170D01*
X15963945Y9746055D01*
X16123830Y9877268D01*
X16306235Y9974766D01*
X16306238Y9974767D01*
X16504164Y10034807D01*
X16581293Y10042404D01*
X16658420Y10050000D01*
X16761580Y10050000D01*
X16838707Y10042404D01*
X16838707Y10042404D01*
G37*
G36*
X14298707Y10042404D02*
G01*
X14375836Y10034807D01*
X14573762Y9974767D01*
X14573765Y9974766D01*
X14756170Y9877268D01*
X14916055Y9746055D01*
X15047268Y9586170D01*
X15144766Y9403765D01*
X15144767Y9403762D01*
X15204807Y9205836D01*
X15225080Y9000000D01*
X15204807Y8794164D01*
X15144861Y8596549D01*
X15144766Y8596235D01*
X15047268Y8413830D01*
X14916055Y8253945D01*
X14756170Y8122732D01*
X14573765Y8025234D01*
X14573762Y8025233D01*
X14375836Y7965193D01*
X14298707Y7957596D01*
X14221580Y7950000D01*
X14118420Y7950000D01*
X14041293Y7957596D01*
X13964164Y7965193D01*
X13766238Y8025233D01*
X13766235Y8025234D01*
X13583830Y8122732D01*
X13423945Y8253945D01*
X13292732Y8413830D01*
X13195234Y8596235D01*
X13195139Y8596549D01*
X13135193Y8794164D01*
X13114920Y9000000D01*
X13135193Y9205836D01*
X13195233Y9403762D01*
X13195234Y9403765D01*
X13292732Y9586170D01*
X13423945Y9746055D01*
X13583830Y9877268D01*
X13766235Y9974766D01*
X13766238Y9974767D01*
X13964164Y10034807D01*
X14041293Y10042404D01*
X14118420Y10050000D01*
X14221580Y10050000D01*
X14298707Y10042404D01*
X14298707Y10042404D01*
G37*
G36*
X-11522842Y16721262D02*
G01*
X-10913182Y16468732D01*
X-10913180Y16468731D01*
X-10846867Y16424422D01*
X-10364500Y16102115D01*
X-9897885Y15635500D01*
X-9531268Y15086818D01*
X-9278738Y14477158D01*
X-9150000Y13829948D01*
X-9150000Y13170052D01*
X-9278738Y12522842D01*
X-9521458Y11936866D01*
X-9531269Y11913180D01*
X-9897885Y11364500D01*
X-10364500Y10897885D01*
X-10913180Y10531269D01*
X-10913181Y10531268D01*
X-10913182Y10531268D01*
X-11522842Y10278738D01*
X-12170052Y10150000D01*
X-12829948Y10150000D01*
X-13477158Y10278738D01*
X-14086818Y10531268D01*
X-14086819Y10531268D01*
X-14086820Y10531269D01*
X-14635500Y10897885D01*
X-15102115Y11364500D01*
X-15468731Y11913180D01*
X-15478542Y11936866D01*
X-15721262Y12522842D01*
X-15850000Y13170052D01*
X-15850000Y13829948D01*
X-15721262Y14477158D01*
X-15468732Y15086818D01*
X-15102115Y15635500D01*
X-14635500Y16102115D01*
X-14153133Y16424422D01*
X-14086820Y16468731D01*
X-14086818Y16468732D01*
X-13477158Y16721262D01*
X-12829948Y16850000D01*
X-12170052Y16850000D01*
X-11522842Y16721262D01*
X-11522842Y16721262D01*
G37*
G36*
X13143798Y16736591D02*
G01*
X13462574Y16673183D01*
X14063136Y16424422D01*
X14603627Y16063277D01*
X15063277Y15603627D01*
X15424422Y15063136D01*
X15673183Y14462574D01*
X15800000Y13825022D01*
X15800000Y13174978D01*
X15673183Y12537426D01*
X15424422Y11936864D01*
X15063277Y11396373D01*
X14603627Y10936723D01*
X14063136Y10575578D01*
X13462574Y10326817D01*
X13143798Y10263409D01*
X12825023Y10200000D01*
X12174977Y10200000D01*
X11856202Y10263409D01*
X11537426Y10326817D01*
X10936864Y10575578D01*
X10396373Y10936723D01*
X9936723Y11396373D01*
X9575578Y11936864D01*
X9326817Y12537426D01*
X9200000Y13174978D01*
X9200000Y13825022D01*
X9326817Y14462574D01*
X9575578Y15063136D01*
X9936723Y15603627D01*
X10396373Y16063277D01*
X10936864Y16424422D01*
X11537426Y16673183D01*
X11856202Y16736591D01*
X12174977Y16800000D01*
X12825023Y16800000D01*
X13143798Y16736591D01*
X13143798Y16736591D01*
G37*
M02*
