M48
; DRILL file {KiCad (5.1.0)-1} date 25-Jun-19 19:20:08
; FORMAT={-:-/ absolute / metric / decimal}
; #@! TF.CreationDate,2019-06-25T19:20:08-03:00
; #@! TF.GenerationSoftware,Kicad,Pcbnew,(5.1.0)-1
; #@! TF.FileFunction,Plated,1,2,PTH
FMAT,2
METRIC
T1C0.400
T2C0.800
T3C1.000
T4C1.100
T5C3.200
%
G90
G05
T1
X-17.628Y-13.818
X-16.7Y-10.6
X-16.3Y8.6
X-16.02Y-7.7
X-15.92Y3.01
X-15.799Y-11.989
X-15.545Y-2.083
X-15.52Y7.45
X-15.0Y0.47
X-14.98Y6.48
X-13.7Y-3.3
X-11.8Y-8.3
X-11.43Y-2.896
X-10.211Y0.356
X-10.02Y5.194
X-9.068Y15.545
X-8.992Y-0.61
X-8.702Y-2.54
X-8.661Y6.553
X-7.6Y-7.0
X-7.2Y-3.9
X-7.1Y15.303
X-7.1Y12.7
X-6.502Y-2.388
X-5.944Y21.768
X-5.9Y11.5
X-5.182Y21.311
X-4.928Y22.25
X-4.572Y-16.307
X-4.039Y19.812
X-4.0Y-0.4
X-3.2Y12.48
X-3.048Y2.896
X-2.748Y13.965
X-2.591Y-15.494
X-2.464Y17.602
X-2.0Y16.4
X-1.42Y-6.786
X-1.372Y4.572
X-1.295Y17.45
X-0.064Y13.818
X0.0Y-14.834
X0.203Y-4.623
X0.64Y11.31
X0.965Y-7.417
X1.626Y15.494
X1.666Y-3.7
X1.727Y-14.834
X1.829Y14.376
X2.489Y17.704
X2.642Y-13.462
X3.099Y7.163
X3.454Y-9.855
X3.672Y-12.432
X4.039Y19.355
X4.089Y18.364
X4.216Y6.045
X4.588Y-8.823
X4.623Y21.412
X4.928Y-11.176
X4.953Y22.327
X5.1Y3.8
X5.639Y21.514
X6.147Y5.436
X6.553Y2.286
X7.3Y-3.8
X7.7Y-8.3
X7.798Y17.297
X8.015Y-0.813
X8.128Y-2.642
X8.23Y-14.072
X8.3Y-7.3
X8.687Y-13.056
X9.373Y18.263
X9.754Y9.246
X9.804Y-12.7
X10.5Y-8.3
X10.871Y9.246
X11.582Y2.896
X11.684Y-8.484
X12.09Y5.639
X12.192Y-7.264
X13.614Y-1.219
X13.665Y-3.759
X13.665Y-5.08
X13.868Y0.61
X14.275Y4.674
X14.5Y-2.5
X15.088Y2.489
X15.094Y6.75
X15.196Y-9.659
X15.342Y0.0
X16.358Y-8.534
X16.358Y-9.449
X18.39Y-9.804
X18.39Y-12.446
X19.1Y7.3
X19.456Y-10.008
X19.71Y-11.125
X19.8Y5.1
T2
X-20.8Y6.35
X-20.8Y3.81
X-20.8Y1.27
X-20.8Y-1.27
X-20.8Y-3.81
X-20.8Y-6.35
X-18.1Y5.08
X-18.1Y2.54
X-18.1Y0.0
X-18.1Y-2.54
X-18.1Y-5.08
X-18.1Y-7.62
X18.1Y5.08
X18.1Y2.54
X18.1Y0.0
X18.1Y-2.54
X18.1Y-5.08
X18.1Y-7.62
X20.8Y6.35
X20.8Y3.81
X20.8Y1.27
X20.8Y-1.27
X20.8Y-3.81
X20.8Y-6.35
T3
X14.17Y9.0
X16.71Y9.0
X19.25Y9.0
X-7.096Y-9.204
X-5.3Y-11.0
X-3.504Y-12.796
X-13.6Y-12.9
X-11.804Y-11.104
X-11.804Y-14.696
X-10.008Y-12.9
X-10.008Y-16.492
X-8.212Y-14.696
T4
X-13.232Y5.765
X-10.05Y8.947
X-8.636Y1.168
X-5.454Y4.35
T5
X-12.5Y13.5
X0.0Y-20.2
X12.5Y13.5
T0
M30
