G04 #@! TF.GenerationSoftware,KiCad,Pcbnew,(5.1.0)-1*
G04 #@! TF.CreationDate,2019-06-21T14:16:56-03:00*
G04 #@! TF.ProjectId,PCB_A,5043425f-412e-46b6-9963-61645f706362,rev?*
G04 #@! TF.SameCoordinates,Original*
G04 #@! TF.FileFunction,Soldermask,Top*
G04 #@! TF.FilePolarity,Negative*
%FSLAX46Y46*%
G04 Gerber Fmt 4.6, Leading zero omitted, Abs format (unit mm)*
G04 Created by KiCad (PCBNEW (5.1.0)-1) date 2019-06-21 14:16:56*
%MOMM*%
%LPD*%
G04 APERTURE LIST*
%ADD10C,0.100000*%
G04 APERTURE END LIST*
D10*
G36*
X5016500Y5143500D02*
G01*
X-3302000Y5143500D01*
X-3302000Y6223000D01*
X5016500Y6223000D01*
X5016500Y5143500D01*
G37*
X5016500Y5143500D02*
X-3302000Y5143500D01*
X-3302000Y6223000D01*
X5016500Y6223000D01*
X5016500Y5143500D01*
G36*
X6223000Y-7683500D02*
G01*
X4889500Y-7683500D01*
X4889500Y-5905500D01*
X6223000Y-5905500D01*
X6223000Y-7683500D01*
G37*
X6223000Y-7683500D02*
X4889500Y-7683500D01*
X4889500Y-5905500D01*
X6223000Y-5905500D01*
X6223000Y-7683500D01*
G36*
X6858000Y-254000D02*
G01*
X5397500Y-254000D01*
X5397500Y1841500D01*
X6858000Y1841500D01*
X6858000Y-254000D01*
G37*
X6858000Y-254000D02*
X5397500Y-254000D01*
X5397500Y1841500D01*
X6858000Y1841500D01*
X6858000Y-254000D01*
G36*
X6223000Y-6350000D02*
G01*
X5334000Y-6350000D01*
X5334000Y-1524000D01*
X6223000Y-1524000D01*
X6223000Y-6350000D01*
G37*
X6223000Y-6350000D02*
X5334000Y-6350000D01*
X5334000Y-1524000D01*
X6223000Y-1524000D01*
X6223000Y-6350000D01*
G36*
X3238500Y-7683500D02*
G01*
X825500Y-7683500D01*
X825500Y-5905500D01*
X3238500Y-5905500D01*
X3238500Y-7683500D01*
G37*
X3238500Y-7683500D02*
X825500Y-7683500D01*
X825500Y-5905500D01*
X3238500Y-5905500D01*
X3238500Y-7683500D01*
G36*
X2603500Y-14224000D02*
G01*
X825500Y-14287500D01*
X825500Y-5905500D01*
X2603500Y-5842000D01*
X2603500Y-14224000D01*
G37*
X2603500Y-14224000D02*
X825500Y-14287500D01*
X825500Y-5905500D01*
X2603500Y-5842000D01*
X2603500Y-14224000D01*
G36*
X2603500Y-16065500D02*
G01*
X-4254500Y-16065500D01*
X-4254500Y-14287500D01*
X2603500Y-14287500D01*
X2603500Y-16065500D01*
G37*
X2603500Y-16065500D02*
X-4254500Y-16065500D01*
X-4254500Y-14287500D01*
X2603500Y-14287500D01*
X2603500Y-16065500D01*
G36*
X-3175000Y-16065500D02*
G01*
X-4381500Y-16065500D01*
X-4413250Y6223000D01*
X-3238500Y6223000D01*
X-3175000Y-16065500D01*
G37*
X-3175000Y-16065500D02*
X-4381500Y-16065500D01*
X-4413250Y6223000D01*
X-3238500Y6223000D01*
X-3175000Y-16065500D01*
G36*
X1702782Y-24650700D02*
G01*
X1830173Y-24703467D01*
X1830174Y-24703468D01*
X1944824Y-24780074D01*
X2042326Y-24877576D01*
X2042327Y-24877578D01*
X2118933Y-24992227D01*
X2171700Y-25119618D01*
X2198600Y-25254855D01*
X2198600Y-25392745D01*
X2171700Y-25527982D01*
X2118933Y-25655373D01*
X2118932Y-25655374D01*
X2042326Y-25770024D01*
X1944824Y-25867526D01*
X1887110Y-25906089D01*
X1830173Y-25944133D01*
X1702782Y-25996900D01*
X1567545Y-26023800D01*
X1429655Y-26023800D01*
X1294418Y-25996900D01*
X1167027Y-25944133D01*
X1110090Y-25906089D01*
X1052376Y-25867526D01*
X954874Y-25770024D01*
X878268Y-25655374D01*
X878267Y-25655373D01*
X825500Y-25527982D01*
X798600Y-25392745D01*
X798600Y-25254855D01*
X825500Y-25119618D01*
X878267Y-24992227D01*
X954873Y-24877578D01*
X954874Y-24877576D01*
X1052376Y-24780074D01*
X1167026Y-24703468D01*
X1167027Y-24703467D01*
X1294418Y-24650700D01*
X1429655Y-24623800D01*
X1567545Y-24623800D01*
X1702782Y-24650700D01*
X1702782Y-24650700D01*
G37*
G36*
X-1818600Y-25918200D02*
G01*
X-3718600Y-25918200D01*
X-3718600Y-24018200D01*
X-1818600Y-24018200D01*
X-1818600Y-25918200D01*
X-1818600Y-25918200D01*
G37*
G36*
X5125528Y-22408889D02*
G01*
X5303115Y-22444212D01*
X5494203Y-22523364D01*
X5666177Y-22638273D01*
X5812430Y-22784526D01*
X5927339Y-22956500D01*
X6006491Y-23147588D01*
X6046841Y-23350446D01*
X6046841Y-23557278D01*
X6006491Y-23760136D01*
X5927339Y-23951224D01*
X5812430Y-24123198D01*
X5666177Y-24269451D01*
X5494203Y-24384360D01*
X5303115Y-24463512D01*
X5125528Y-24498835D01*
X5100258Y-24503862D01*
X4893424Y-24503862D01*
X4868154Y-24498835D01*
X4690567Y-24463512D01*
X4499479Y-24384360D01*
X4327505Y-24269451D01*
X4181252Y-24123198D01*
X4066343Y-23951224D01*
X3987191Y-23760136D01*
X3946841Y-23557278D01*
X3946841Y-23350446D01*
X3987191Y-23147588D01*
X4066343Y-22956500D01*
X4181252Y-22784526D01*
X4327505Y-22638273D01*
X4499479Y-22523364D01*
X4690567Y-22444212D01*
X4868154Y-22408889D01*
X4893424Y-22403862D01*
X5100258Y-22403862D01*
X5125528Y-22408889D01*
X5125528Y-22408889D01*
G37*
G36*
X-8134887Y-17960523D02*
G01*
X-7616220Y-18175362D01*
X-7616219Y-18175363D01*
X-7149431Y-18487260D01*
X-6752460Y-18884231D01*
X-6701812Y-18960032D01*
X-6440562Y-19351020D01*
X-6225723Y-19869687D01*
X-6116200Y-20420298D01*
X-6116200Y-20981702D01*
X-6225723Y-21532313D01*
X-6440562Y-22050980D01*
X-6440563Y-22050981D01*
X-6752460Y-22517769D01*
X-7149431Y-22914740D01*
X-7461329Y-23123143D01*
X-7616220Y-23226638D01*
X-8134887Y-23441477D01*
X-8685498Y-23551000D01*
X-9246902Y-23551000D01*
X-9797513Y-23441477D01*
X-10316180Y-23226638D01*
X-10471071Y-23123143D01*
X-10782969Y-22914740D01*
X-11179940Y-22517769D01*
X-11491837Y-22050981D01*
X-11491838Y-22050980D01*
X-11706677Y-21532313D01*
X-11816200Y-20981702D01*
X-11816200Y-20420298D01*
X-11706677Y-19869687D01*
X-11491838Y-19351020D01*
X-11230588Y-18960032D01*
X-11179940Y-18884231D01*
X-10782969Y-18487260D01*
X-10316181Y-18175363D01*
X-10316180Y-18175362D01*
X-9797513Y-17960523D01*
X-9246902Y-17851000D01*
X-8685498Y-17851000D01*
X-8134887Y-17960523D01*
X-8134887Y-17960523D01*
G37*
G36*
X643798Y-16963408D02*
G01*
X962574Y-17026817D01*
X1387234Y-17202717D01*
X1526419Y-17260369D01*
X1563136Y-17275578D01*
X2103627Y-17636723D01*
X2563277Y-18096373D01*
X2924422Y-18636864D01*
X3124509Y-19119916D01*
X3173183Y-19237427D01*
X3298948Y-19869686D01*
X3300000Y-19874978D01*
X3300000Y-20525022D01*
X3173183Y-21162574D01*
X2924422Y-21763136D01*
X2563277Y-22303627D01*
X2103627Y-22763277D01*
X1563136Y-23124422D01*
X1563135Y-23124423D01*
X1563134Y-23124423D01*
X1507204Y-23147590D01*
X962574Y-23373183D01*
X643798Y-23436591D01*
X325023Y-23500000D01*
X-325023Y-23500000D01*
X-643798Y-23436591D01*
X-962574Y-23373183D01*
X-1507204Y-23147590D01*
X-1563134Y-23124423D01*
X-1563135Y-23124423D01*
X-1563136Y-23124422D01*
X-2103627Y-22763277D01*
X-2563277Y-22303627D01*
X-2924422Y-21763136D01*
X-3173183Y-21162574D01*
X-3300000Y-20525022D01*
X-3300000Y-19874978D01*
X-3298947Y-19869686D01*
X-3173183Y-19237427D01*
X-3124508Y-19119916D01*
X-2924422Y-18636864D01*
X-2563277Y-18096373D01*
X-2103627Y-17636723D01*
X-1563136Y-17275578D01*
X-1526418Y-17260369D01*
X-1387234Y-17202717D01*
X-962574Y-17026817D01*
X-643798Y-16963408D01*
X-325023Y-16900000D01*
X325023Y-16900000D01*
X643798Y-16963408D01*
X643798Y-16963408D01*
G37*
G36*
X5107562Y-19869687D02*
G01*
X5202677Y-19879055D01*
X5400603Y-19939095D01*
X5400606Y-19939096D01*
X5583011Y-20036594D01*
X5742896Y-20167807D01*
X5874109Y-20327692D01*
X5971607Y-20510097D01*
X5971608Y-20510100D01*
X6031648Y-20708026D01*
X6051921Y-20913862D01*
X6031648Y-21119698D01*
X5971608Y-21317624D01*
X5971607Y-21317627D01*
X5874109Y-21500032D01*
X5742896Y-21659917D01*
X5583011Y-21791130D01*
X5400606Y-21888628D01*
X5400603Y-21888629D01*
X5202677Y-21948669D01*
X5125548Y-21956265D01*
X5048421Y-21963862D01*
X4945261Y-21963862D01*
X4868134Y-21956265D01*
X4791005Y-21948669D01*
X4593079Y-21888629D01*
X4593076Y-21888628D01*
X4410671Y-21791130D01*
X4250786Y-21659917D01*
X4119573Y-21500032D01*
X4022075Y-21317627D01*
X4022074Y-21317624D01*
X3962034Y-21119698D01*
X3941761Y-20913862D01*
X3962034Y-20708026D01*
X4022074Y-20510100D01*
X4022075Y-20510097D01*
X4119573Y-20327692D01*
X4250786Y-20167807D01*
X4410671Y-20036594D01*
X4593076Y-19939096D01*
X4593079Y-19939095D01*
X4791005Y-19879055D01*
X4886120Y-19869687D01*
X4945261Y-19863862D01*
X5048421Y-19863862D01*
X5107562Y-19869687D01*
X5107562Y-19869687D01*
G37*
G36*
X5125548Y-17331458D02*
G01*
X5202677Y-17339055D01*
X5400603Y-17399095D01*
X5400606Y-17399096D01*
X5583011Y-17496594D01*
X5742896Y-17627807D01*
X5874109Y-17787692D01*
X5971607Y-17970097D01*
X5971608Y-17970100D01*
X6031648Y-18168026D01*
X6051921Y-18373862D01*
X6031648Y-18579698D01*
X6014306Y-18636866D01*
X5971607Y-18777627D01*
X5874109Y-18960032D01*
X5742896Y-19119917D01*
X5583011Y-19251130D01*
X5400606Y-19348628D01*
X5400603Y-19348629D01*
X5202677Y-19408669D01*
X5125548Y-19416266D01*
X5048421Y-19423862D01*
X4945261Y-19423862D01*
X4868134Y-19416266D01*
X4791005Y-19408669D01*
X4593079Y-19348629D01*
X4593076Y-19348628D01*
X4410671Y-19251130D01*
X4250786Y-19119917D01*
X4119573Y-18960032D01*
X4022075Y-18777627D01*
X3979376Y-18636866D01*
X3962034Y-18579698D01*
X3941761Y-18373862D01*
X3962034Y-18168026D01*
X4022074Y-17970100D01*
X4022075Y-17970097D01*
X4119573Y-17787692D01*
X4250786Y-17627807D01*
X4410671Y-17496594D01*
X4593076Y-17399096D01*
X4593079Y-17399095D01*
X4791005Y-17339055D01*
X4868134Y-17331458D01*
X4945261Y-17323862D01*
X5048421Y-17323862D01*
X5125548Y-17331458D01*
X5125548Y-17331458D01*
G37*
G36*
X8133197Y-14583233D02*
G01*
X8145449Y-14583835D01*
X8163869Y-14583835D01*
X8215358Y-14588906D01*
X8299439Y-14605631D01*
X8315403Y-14610474D01*
X8343048Y-14618859D01*
X8343054Y-14618861D01*
X8348960Y-14620653D01*
X8428158Y-14653457D01*
X8473791Y-14677848D01*
X8545076Y-14725479D01*
X8549847Y-14729395D01*
X8549849Y-14729396D01*
X8580303Y-14754389D01*
X8580309Y-14754395D01*
X8585072Y-14758304D01*
X8645696Y-14818928D01*
X8649605Y-14823691D01*
X8649611Y-14823697D01*
X8674604Y-14854151D01*
X8678521Y-14858924D01*
X8726152Y-14930209D01*
X8750543Y-14975842D01*
X8783347Y-15055040D01*
X8785139Y-15060946D01*
X8785141Y-15060952D01*
X8793526Y-15088597D01*
X8798369Y-15104561D01*
X8815094Y-15188642D01*
X8820165Y-15240131D01*
X8820165Y-15258551D01*
X8820767Y-15270803D01*
X8822573Y-15289140D01*
X8822573Y-15776860D01*
X8818107Y-15822205D01*
X8806670Y-15859908D01*
X8799096Y-15874078D01*
X8789720Y-15896717D01*
X8784940Y-15920751D01*
X8784940Y-15945255D01*
X8789721Y-15969288D01*
X8799096Y-15991922D01*
X8806670Y-16006092D01*
X8818107Y-16043795D01*
X8822573Y-16089140D01*
X8822573Y-16576860D01*
X8820767Y-16595197D01*
X8820165Y-16607449D01*
X8820165Y-16625869D01*
X8815094Y-16677358D01*
X8798369Y-16761439D01*
X8796576Y-16767349D01*
X8785141Y-16805048D01*
X8785139Y-16805054D01*
X8783347Y-16810960D01*
X8750543Y-16890158D01*
X8726152Y-16935791D01*
X8678521Y-17007076D01*
X8674605Y-17011847D01*
X8674604Y-17011849D01*
X8649611Y-17042303D01*
X8649605Y-17042309D01*
X8645696Y-17047072D01*
X8585072Y-17107696D01*
X8580309Y-17111605D01*
X8580303Y-17111611D01*
X8549849Y-17136604D01*
X8545076Y-17140521D01*
X8473791Y-17188152D01*
X8428158Y-17212543D01*
X8348960Y-17245347D01*
X8343054Y-17247139D01*
X8343048Y-17247141D01*
X8315403Y-17255526D01*
X8299439Y-17260369D01*
X8215358Y-17277094D01*
X8163869Y-17282165D01*
X8145449Y-17282165D01*
X8133197Y-17282767D01*
X8114860Y-17284573D01*
X7627140Y-17284573D01*
X7608803Y-17282767D01*
X7596551Y-17282165D01*
X7578131Y-17282165D01*
X7526642Y-17277094D01*
X7442561Y-17260369D01*
X7426597Y-17255526D01*
X7398952Y-17247141D01*
X7398946Y-17247139D01*
X7393040Y-17245347D01*
X7313842Y-17212543D01*
X7268209Y-17188152D01*
X7196924Y-17140521D01*
X7192151Y-17136604D01*
X7161697Y-17111611D01*
X7161691Y-17111605D01*
X7156928Y-17107696D01*
X7096304Y-17047072D01*
X7092395Y-17042309D01*
X7092389Y-17042303D01*
X7067396Y-17011849D01*
X7067395Y-17011847D01*
X7063479Y-17007076D01*
X7015848Y-16935791D01*
X6991457Y-16890158D01*
X6958653Y-16810960D01*
X6956861Y-16805054D01*
X6956859Y-16805048D01*
X6945424Y-16767349D01*
X6943631Y-16761439D01*
X6926906Y-16677358D01*
X6921835Y-16625869D01*
X6921835Y-16607449D01*
X6921233Y-16595197D01*
X6919427Y-16576860D01*
X6919427Y-16089140D01*
X6923893Y-16043795D01*
X6935330Y-16006092D01*
X6942904Y-15991922D01*
X6952280Y-15969283D01*
X6957060Y-15945249D01*
X6957060Y-15920745D01*
X6952279Y-15896712D01*
X6942904Y-15874078D01*
X6935330Y-15859908D01*
X6923893Y-15822205D01*
X6919427Y-15776860D01*
X6919427Y-15289140D01*
X6921233Y-15270803D01*
X6921835Y-15258551D01*
X6921835Y-15240131D01*
X6926906Y-15188642D01*
X6943631Y-15104561D01*
X6948474Y-15088597D01*
X6956859Y-15060952D01*
X6956861Y-15060946D01*
X6958653Y-15055040D01*
X6991457Y-14975842D01*
X7015848Y-14930209D01*
X7063479Y-14858924D01*
X7067396Y-14854151D01*
X7092389Y-14823697D01*
X7092395Y-14823691D01*
X7096304Y-14818928D01*
X7156928Y-14758304D01*
X7161691Y-14754395D01*
X7161697Y-14754389D01*
X7192151Y-14729396D01*
X7192153Y-14729395D01*
X7196924Y-14725479D01*
X7268209Y-14677848D01*
X7313842Y-14653457D01*
X7393040Y-14620653D01*
X7398946Y-14618861D01*
X7398952Y-14618859D01*
X7426597Y-14610474D01*
X7442561Y-14605631D01*
X7526642Y-14588906D01*
X7578131Y-14583835D01*
X7596551Y-14583835D01*
X7608803Y-14583233D01*
X7627140Y-14581427D01*
X8114860Y-14581427D01*
X8133197Y-14583233D01*
X8133197Y-14583233D01*
G37*
G36*
X5265182Y-15629900D02*
G01*
X5392573Y-15682667D01*
X5392574Y-15682668D01*
X5507224Y-15759274D01*
X5604726Y-15856776D01*
X5621601Y-15882032D01*
X5681333Y-15971427D01*
X5734100Y-16098818D01*
X5761000Y-16234055D01*
X5761000Y-16371945D01*
X5734100Y-16507182D01*
X5681333Y-16634573D01*
X5681332Y-16634574D01*
X5604726Y-16749224D01*
X5507224Y-16846726D01*
X5449510Y-16885289D01*
X5392573Y-16923333D01*
X5265182Y-16976100D01*
X5129945Y-17003000D01*
X4992055Y-17003000D01*
X4856818Y-16976100D01*
X4729427Y-16923333D01*
X4672490Y-16885289D01*
X4614776Y-16846726D01*
X4517274Y-16749224D01*
X4440668Y-16634574D01*
X4440667Y-16634573D01*
X4387900Y-16507182D01*
X4361000Y-16371945D01*
X4361000Y-16234055D01*
X4387900Y-16098818D01*
X4440667Y-15971427D01*
X4500399Y-15882032D01*
X4517274Y-15856776D01*
X4614776Y-15759274D01*
X4729426Y-15682668D01*
X4729427Y-15682667D01*
X4856818Y-15629900D01*
X4992055Y-15603000D01*
X5129945Y-15603000D01*
X5265182Y-15629900D01*
X5265182Y-15629900D01*
G37*
G36*
X15723582Y-15354300D02*
G01*
X15850973Y-15407067D01*
X15894455Y-15436121D01*
X15965624Y-15483674D01*
X16063126Y-15581176D01*
X16063127Y-15581178D01*
X16139733Y-15695827D01*
X16192500Y-15823218D01*
X16219400Y-15958455D01*
X16219400Y-16096345D01*
X16192500Y-16231582D01*
X16139733Y-16358973D01*
X16101689Y-16415910D01*
X16063126Y-16473624D01*
X15965624Y-16571126D01*
X15957042Y-16576860D01*
X15850973Y-16647733D01*
X15723582Y-16700500D01*
X15588345Y-16727400D01*
X15450455Y-16727400D01*
X15315218Y-16700500D01*
X15187827Y-16647733D01*
X15081758Y-16576860D01*
X15073176Y-16571126D01*
X14975674Y-16473624D01*
X14937111Y-16415910D01*
X14899067Y-16358973D01*
X14846300Y-16231582D01*
X14819400Y-16096345D01*
X14819400Y-15958455D01*
X14846300Y-15823218D01*
X14899067Y-15695827D01*
X14975673Y-15581178D01*
X14975674Y-15581176D01*
X15073176Y-15483674D01*
X15144345Y-15436121D01*
X15187827Y-15407067D01*
X15315218Y-15354300D01*
X15450455Y-15327400D01*
X15588345Y-15327400D01*
X15723582Y-15354300D01*
X15723582Y-15354300D01*
G37*
G36*
X-15315526Y-15359148D02*
G01*
X-15280933Y-15369642D01*
X-15241373Y-15390787D01*
X-15235434Y-15394756D01*
X-15212797Y-15404135D01*
X-15188764Y-15408918D01*
X-15164260Y-15408920D01*
X-15140226Y-15404142D01*
X-15117586Y-15394767D01*
X-15111639Y-15390794D01*
X-15072067Y-15369642D01*
X-15037474Y-15359148D01*
X-14995359Y-15355000D01*
X-14387641Y-15355000D01*
X-14345526Y-15359148D01*
X-14310933Y-15369642D01*
X-14279060Y-15386678D01*
X-14251114Y-15409614D01*
X-14228178Y-15437560D01*
X-14211142Y-15469433D01*
X-14200648Y-15504026D01*
X-14196500Y-15546141D01*
X-14196500Y-16203859D01*
X-14200648Y-16245974D01*
X-14211142Y-16280567D01*
X-14228178Y-16312440D01*
X-14251114Y-16340386D01*
X-14279060Y-16363322D01*
X-14310933Y-16380358D01*
X-14345526Y-16390852D01*
X-14387641Y-16395000D01*
X-14995359Y-16395000D01*
X-15037474Y-16390852D01*
X-15072067Y-16380358D01*
X-15111627Y-16359213D01*
X-15117566Y-16355244D01*
X-15140203Y-16345865D01*
X-15164236Y-16341082D01*
X-15188740Y-16341080D01*
X-15212774Y-16345858D01*
X-15235414Y-16355233D01*
X-15241361Y-16359206D01*
X-15280933Y-16380358D01*
X-15315526Y-16390852D01*
X-15357641Y-16395000D01*
X-15965359Y-16395000D01*
X-16007474Y-16390852D01*
X-16042067Y-16380358D01*
X-16073940Y-16363322D01*
X-16101886Y-16340386D01*
X-16124822Y-16312440D01*
X-16141858Y-16280567D01*
X-16152352Y-16245974D01*
X-16156500Y-16203859D01*
X-16156500Y-15546141D01*
X-16152352Y-15504026D01*
X-16141858Y-15469433D01*
X-16124822Y-15437560D01*
X-16101886Y-15409614D01*
X-16073940Y-15386678D01*
X-16042067Y-15369642D01*
X-16007474Y-15359148D01*
X-15965359Y-15355000D01*
X-15357641Y-15355000D01*
X-15315526Y-15359148D01*
X-15315526Y-15359148D01*
G37*
G36*
X12523182Y-14744700D02*
G01*
X12650573Y-14797467D01*
X12689829Y-14823697D01*
X12765224Y-14874074D01*
X12862726Y-14971576D01*
X12862727Y-14971578D01*
X12939333Y-15086227D01*
X12992100Y-15213618D01*
X13019000Y-15348855D01*
X13019000Y-15486745D01*
X12992100Y-15621982D01*
X12939333Y-15749373D01*
X12939332Y-15749374D01*
X12862726Y-15864024D01*
X12765224Y-15961526D01*
X12753607Y-15969288D01*
X12650573Y-16038133D01*
X12523182Y-16090900D01*
X12387945Y-16117800D01*
X12250055Y-16117800D01*
X12114818Y-16090900D01*
X11987427Y-16038133D01*
X11884393Y-15969288D01*
X11872776Y-15961526D01*
X11775274Y-15864024D01*
X11698668Y-15749374D01*
X11698667Y-15749373D01*
X11645900Y-15621982D01*
X11619000Y-15486745D01*
X11619000Y-15348855D01*
X11645900Y-15213618D01*
X11698667Y-15086227D01*
X11775273Y-14971578D01*
X11775274Y-14971576D01*
X11872776Y-14874074D01*
X11948171Y-14823697D01*
X11987427Y-14797467D01*
X12114818Y-14744700D01*
X12250055Y-14717800D01*
X12387945Y-14717800D01*
X12523182Y-14744700D01*
X12523182Y-14744700D01*
G37*
G36*
X4044530Y-14048877D02*
G01*
X4096010Y-14064493D01*
X4143445Y-14089848D01*
X4185027Y-14123973D01*
X4219152Y-14165555D01*
X4244507Y-14212990D01*
X4260123Y-14264470D01*
X4266000Y-14324140D01*
X4266000Y-15211860D01*
X4260123Y-15271530D01*
X4244507Y-15323010D01*
X4219152Y-15370445D01*
X4185027Y-15412027D01*
X4143445Y-15446152D01*
X4096010Y-15471507D01*
X4044530Y-15487123D01*
X3984860Y-15493000D01*
X3197140Y-15493000D01*
X3137470Y-15487123D01*
X3085990Y-15471507D01*
X3038555Y-15446152D01*
X2996973Y-15412027D01*
X2962848Y-15370445D01*
X2937493Y-15323010D01*
X2921877Y-15271530D01*
X2916000Y-15211860D01*
X2916000Y-14324140D01*
X2921877Y-14264470D01*
X2937493Y-14212990D01*
X2962848Y-14165555D01*
X2996973Y-14123973D01*
X3038555Y-14089848D01*
X3085990Y-14064493D01*
X3137470Y-14048877D01*
X3197140Y-14043000D01*
X3984860Y-14043000D01*
X4044530Y-14048877D01*
X4044530Y-14048877D01*
G37*
G36*
X-16387970Y-13595877D02*
G01*
X-16336490Y-13611493D01*
X-16289055Y-13636848D01*
X-16247473Y-13670973D01*
X-16213348Y-13712555D01*
X-16187993Y-13759990D01*
X-16172377Y-13811470D01*
X-16166500Y-13871140D01*
X-16166500Y-14658860D01*
X-16172377Y-14718530D01*
X-16187993Y-14770010D01*
X-16213348Y-14817445D01*
X-16247473Y-14859027D01*
X-16289055Y-14893152D01*
X-16336490Y-14918507D01*
X-16387970Y-14934123D01*
X-16447640Y-14940000D01*
X-17335360Y-14940000D01*
X-17395030Y-14934123D01*
X-17446510Y-14918507D01*
X-17493945Y-14893152D01*
X-17535527Y-14859027D01*
X-17569652Y-14817445D01*
X-17595007Y-14770010D01*
X-17610623Y-14718530D01*
X-17616500Y-14658860D01*
X-17616500Y-13871140D01*
X-17610623Y-13811470D01*
X-17595007Y-13759990D01*
X-17569652Y-13712555D01*
X-17535527Y-13670973D01*
X-17493945Y-13636848D01*
X-17446510Y-13611493D01*
X-17395030Y-13595877D01*
X-17335360Y-13590000D01*
X-16447640Y-13590000D01*
X-16387970Y-13595877D01*
X-16387970Y-13595877D01*
G37*
G36*
X-14637970Y-13595877D02*
G01*
X-14586490Y-13611493D01*
X-14539055Y-13636848D01*
X-14497473Y-13670973D01*
X-14463348Y-13712555D01*
X-14437993Y-13759990D01*
X-14422377Y-13811470D01*
X-14416500Y-13871140D01*
X-14416500Y-14658860D01*
X-14422377Y-14718530D01*
X-14437993Y-14770010D01*
X-14463348Y-14817445D01*
X-14497473Y-14859027D01*
X-14539055Y-14893152D01*
X-14586490Y-14918507D01*
X-14637970Y-14934123D01*
X-14697640Y-14940000D01*
X-15585360Y-14940000D01*
X-15645030Y-14934123D01*
X-15696510Y-14918507D01*
X-15743945Y-14893152D01*
X-15785527Y-14859027D01*
X-15819652Y-14817445D01*
X-15845007Y-14770010D01*
X-15860623Y-14718530D01*
X-15866500Y-14658860D01*
X-15866500Y-13871140D01*
X-15860623Y-13811470D01*
X-15845007Y-13759990D01*
X-15819652Y-13712555D01*
X-15785527Y-13670973D01*
X-15743945Y-13636848D01*
X-15696510Y-13611493D01*
X-15645030Y-13595877D01*
X-15585360Y-13590000D01*
X-14697640Y-13590000D01*
X-14637970Y-13595877D01*
X-14637970Y-13595877D01*
G37*
G36*
X-18537970Y-13570877D02*
G01*
X-18486490Y-13586493D01*
X-18439055Y-13611848D01*
X-18397473Y-13645973D01*
X-18363348Y-13687555D01*
X-18337993Y-13734990D01*
X-18322377Y-13786470D01*
X-18316500Y-13846140D01*
X-18316500Y-14633860D01*
X-18322377Y-14693530D01*
X-18337993Y-14745010D01*
X-18363348Y-14792445D01*
X-18397473Y-14834027D01*
X-18439055Y-14868152D01*
X-18486490Y-14893507D01*
X-18537970Y-14909123D01*
X-18597640Y-14915000D01*
X-19485360Y-14915000D01*
X-19545030Y-14909123D01*
X-19596510Y-14893507D01*
X-19643945Y-14868152D01*
X-19685527Y-14834027D01*
X-19719652Y-14792445D01*
X-19745007Y-14745010D01*
X-19760623Y-14693530D01*
X-19766500Y-14633860D01*
X-19766500Y-13846140D01*
X-19760623Y-13786470D01*
X-19745007Y-13734990D01*
X-19719652Y-13687555D01*
X-19685527Y-13645973D01*
X-19643945Y-13611848D01*
X-19596510Y-13586493D01*
X-19545030Y-13570877D01*
X-19485360Y-13565000D01*
X-18597640Y-13565000D01*
X-18537970Y-13570877D01*
X-18537970Y-13570877D01*
G37*
G36*
X-20287970Y-13570877D02*
G01*
X-20236490Y-13586493D01*
X-20189055Y-13611848D01*
X-20147473Y-13645973D01*
X-20113348Y-13687555D01*
X-20087993Y-13734990D01*
X-20072377Y-13786470D01*
X-20066500Y-13846140D01*
X-20066500Y-14633860D01*
X-20072377Y-14693530D01*
X-20087993Y-14745010D01*
X-20113348Y-14792445D01*
X-20147473Y-14834027D01*
X-20189055Y-14868152D01*
X-20236490Y-14893507D01*
X-20287970Y-14909123D01*
X-20347640Y-14915000D01*
X-21235360Y-14915000D01*
X-21295030Y-14909123D01*
X-21346510Y-14893507D01*
X-21393945Y-14868152D01*
X-21435527Y-14834027D01*
X-21469652Y-14792445D01*
X-21495007Y-14745010D01*
X-21510623Y-14693530D01*
X-21516500Y-14633860D01*
X-21516500Y-13846140D01*
X-21510623Y-13786470D01*
X-21495007Y-13734990D01*
X-21469652Y-13687555D01*
X-21435527Y-13645973D01*
X-21393945Y-13611848D01*
X-21346510Y-13586493D01*
X-21295030Y-13570877D01*
X-21235360Y-13565000D01*
X-20347640Y-13565000D01*
X-20287970Y-13570877D01*
X-20287970Y-13570877D01*
G37*
G36*
X-539400Y-11724101D02*
G01*
X-536998Y-11748487D01*
X-529885Y-11771936D01*
X-518334Y-11793547D01*
X-502789Y-11812489D01*
X-483847Y-11828034D01*
X-462236Y-11839585D01*
X-438787Y-11846698D01*
X-414401Y-11849100D01*
X960600Y-11849100D01*
X960600Y-14449100D01*
X-489400Y-14449100D01*
X-489400Y-12474099D01*
X-491802Y-12449713D01*
X-498915Y-12426264D01*
X-510466Y-12404653D01*
X-526011Y-12385711D01*
X-544953Y-12370166D01*
X-566564Y-12358615D01*
X-590013Y-12351502D01*
X-614399Y-12349100D01*
X-1864401Y-12349100D01*
X-1888787Y-12351502D01*
X-1912236Y-12358615D01*
X-1933847Y-12370166D01*
X-1952789Y-12385711D01*
X-1968334Y-12404653D01*
X-1979885Y-12426264D01*
X-1986998Y-12449713D01*
X-1989400Y-12474099D01*
X-1989400Y-14449100D01*
X-3439400Y-14449100D01*
X-3439400Y-11849100D01*
X-2064399Y-11849100D01*
X-2040013Y-11846698D01*
X-2016564Y-11839585D01*
X-1994953Y-11828034D01*
X-1976011Y-11812489D01*
X-1960466Y-11793547D01*
X-1948915Y-11771936D01*
X-1941802Y-11748487D01*
X-1939400Y-11724101D01*
X-1939400Y-10899100D01*
X-539400Y-10899100D01*
X-539400Y-11724101D01*
X-539400Y-11724101D01*
G37*
G36*
X-10812970Y-12665877D02*
G01*
X-10761490Y-12681493D01*
X-10714055Y-12706848D01*
X-10672473Y-12740973D01*
X-10638348Y-12782555D01*
X-10612993Y-12829990D01*
X-10597377Y-12881470D01*
X-10591500Y-12941140D01*
X-10591500Y-13728860D01*
X-10597377Y-13788530D01*
X-10612993Y-13840010D01*
X-10638348Y-13887445D01*
X-10672473Y-13929027D01*
X-10714055Y-13963152D01*
X-10761490Y-13988507D01*
X-10812970Y-14004123D01*
X-10872640Y-14010000D01*
X-11760360Y-14010000D01*
X-11820030Y-14004123D01*
X-11871510Y-13988507D01*
X-11918945Y-13963152D01*
X-11960527Y-13929027D01*
X-11994652Y-13887445D01*
X-12020007Y-13840010D01*
X-12035623Y-13788530D01*
X-12041500Y-13728860D01*
X-12041500Y-12941140D01*
X-12035623Y-12881470D01*
X-12020007Y-12829990D01*
X-11994652Y-12782555D01*
X-11960527Y-12740973D01*
X-11918945Y-12706848D01*
X-11871510Y-12681493D01*
X-11820030Y-12665877D01*
X-11760360Y-12660000D01*
X-10872640Y-12660000D01*
X-10812970Y-12665877D01*
X-10812970Y-12665877D01*
G37*
G36*
X-12562970Y-12665877D02*
G01*
X-12511490Y-12681493D01*
X-12464055Y-12706848D01*
X-12422473Y-12740973D01*
X-12388348Y-12782555D01*
X-12362993Y-12829990D01*
X-12347377Y-12881470D01*
X-12341500Y-12941140D01*
X-12341500Y-13728860D01*
X-12347377Y-13788530D01*
X-12362993Y-13840010D01*
X-12388348Y-13887445D01*
X-12422473Y-13929027D01*
X-12464055Y-13963152D01*
X-12511490Y-13988507D01*
X-12562970Y-14004123D01*
X-12622640Y-14010000D01*
X-13510360Y-14010000D01*
X-13570030Y-14004123D01*
X-13621510Y-13988507D01*
X-13668945Y-13963152D01*
X-13710527Y-13929027D01*
X-13744652Y-13887445D01*
X-13770007Y-13840010D01*
X-13785623Y-13788530D01*
X-13791500Y-13728860D01*
X-13791500Y-12941140D01*
X-13785623Y-12881470D01*
X-13770007Y-12829990D01*
X-13744652Y-12782555D01*
X-13710527Y-12740973D01*
X-13668945Y-12706848D01*
X-13621510Y-12681493D01*
X-13570030Y-12665877D01*
X-13510360Y-12660000D01*
X-12622640Y-12660000D01*
X-12562970Y-12665877D01*
X-12562970Y-12665877D01*
G37*
G36*
X4044530Y-12298877D02*
G01*
X4096010Y-12314493D01*
X4143445Y-12339848D01*
X4185027Y-12373973D01*
X4219152Y-12415555D01*
X4244507Y-12462990D01*
X4260123Y-12514470D01*
X4266000Y-12574140D01*
X4266000Y-13461860D01*
X4260123Y-13521530D01*
X4244507Y-13573010D01*
X4219152Y-13620445D01*
X4185027Y-13662027D01*
X4143445Y-13696152D01*
X4096010Y-13721507D01*
X4044530Y-13737123D01*
X3984860Y-13743000D01*
X3197140Y-13743000D01*
X3137470Y-13737123D01*
X3085990Y-13721507D01*
X3038555Y-13696152D01*
X2996973Y-13662027D01*
X2962848Y-13620445D01*
X2937493Y-13573010D01*
X2921877Y-13521530D01*
X2916000Y-13461860D01*
X2916000Y-12574140D01*
X2921877Y-12514470D01*
X2937493Y-12462990D01*
X2962848Y-12415555D01*
X2996973Y-12373973D01*
X3038555Y-12339848D01*
X3085990Y-12314493D01*
X3137470Y-12298877D01*
X3197140Y-12293000D01*
X3984860Y-12293000D01*
X4044530Y-12298877D01*
X4044530Y-12298877D01*
G37*
G36*
X-14501500Y-13015000D02*
G01*
X-22151500Y-13015000D01*
X-22151500Y-11115000D01*
X-14501500Y-11115000D01*
X-14501500Y-13015000D01*
X-14501500Y-13015000D01*
G37*
G36*
X-5611500Y-13015000D02*
G01*
X-9451500Y-13015000D01*
X-9451500Y-11115000D01*
X-5611500Y-11115000D01*
X-5611500Y-13015000D01*
X-5611500Y-13015000D01*
G37*
G36*
X15606974Y-10424148D02*
G01*
X15641567Y-10434642D01*
X15681127Y-10455787D01*
X15687066Y-10459756D01*
X15709703Y-10469135D01*
X15733736Y-10473918D01*
X15758240Y-10473920D01*
X15782274Y-10469142D01*
X15804914Y-10459767D01*
X15810861Y-10455794D01*
X15850433Y-10434642D01*
X15885026Y-10424148D01*
X15927141Y-10420000D01*
X16534859Y-10420000D01*
X16576974Y-10424148D01*
X16611567Y-10434642D01*
X16643440Y-10451678D01*
X16671386Y-10474614D01*
X16694322Y-10502560D01*
X16711358Y-10534433D01*
X16721852Y-10569026D01*
X16726000Y-10611141D01*
X16726000Y-11268859D01*
X16721852Y-11310974D01*
X16711358Y-11345567D01*
X16694322Y-11377440D01*
X16671386Y-11405386D01*
X16643440Y-11428322D01*
X16611567Y-11445358D01*
X16576974Y-11455852D01*
X16534859Y-11460000D01*
X15927141Y-11460000D01*
X15885026Y-11455852D01*
X15850433Y-11445358D01*
X15810873Y-11424213D01*
X15804934Y-11420244D01*
X15782297Y-11410865D01*
X15758264Y-11406082D01*
X15733760Y-11406080D01*
X15709726Y-11410858D01*
X15687086Y-11420233D01*
X15681139Y-11424206D01*
X15641567Y-11445358D01*
X15606974Y-11455852D01*
X15564859Y-11460000D01*
X14957141Y-11460000D01*
X14915026Y-11455852D01*
X14880433Y-11445358D01*
X14848560Y-11428322D01*
X14820614Y-11405386D01*
X14797678Y-11377440D01*
X14780642Y-11345567D01*
X14770148Y-11310974D01*
X14766000Y-11268859D01*
X14766000Y-10611141D01*
X14770148Y-10569026D01*
X14780642Y-10534433D01*
X14797678Y-10502560D01*
X14820614Y-10474614D01*
X14848560Y-10451678D01*
X14880433Y-10434642D01*
X14915026Y-10424148D01*
X14957141Y-10420000D01*
X15564859Y-10420000D01*
X15606974Y-10424148D01*
X15606974Y-10424148D01*
G37*
G36*
X17831974Y-10399148D02*
G01*
X17866567Y-10409642D01*
X17906127Y-10430787D01*
X17912066Y-10434756D01*
X17934703Y-10444135D01*
X17958736Y-10448918D01*
X17983240Y-10448920D01*
X18007274Y-10444142D01*
X18029914Y-10434767D01*
X18035861Y-10430794D01*
X18075433Y-10409642D01*
X18110026Y-10399148D01*
X18152141Y-10395000D01*
X18759859Y-10395000D01*
X18801974Y-10399148D01*
X18836567Y-10409642D01*
X18868440Y-10426678D01*
X18896386Y-10449614D01*
X18919322Y-10477560D01*
X18936358Y-10509433D01*
X18946852Y-10544026D01*
X18951000Y-10586141D01*
X18951000Y-11243859D01*
X18946852Y-11285974D01*
X18936358Y-11320567D01*
X18919322Y-11352440D01*
X18896386Y-11380386D01*
X18868440Y-11403322D01*
X18836567Y-11420358D01*
X18801974Y-11430852D01*
X18759859Y-11435000D01*
X18152141Y-11435000D01*
X18110026Y-11430852D01*
X18075433Y-11420358D01*
X18035873Y-11399213D01*
X18029934Y-11395244D01*
X18007297Y-11385865D01*
X17983264Y-11381082D01*
X17958760Y-11381080D01*
X17934726Y-11385858D01*
X17912086Y-11395233D01*
X17906139Y-11399206D01*
X17866567Y-11420358D01*
X17831974Y-11430852D01*
X17789859Y-11435000D01*
X17182141Y-11435000D01*
X17140026Y-11430852D01*
X17105433Y-11420358D01*
X17073560Y-11403322D01*
X17045614Y-11380386D01*
X17022678Y-11352440D01*
X17005642Y-11320567D01*
X16995148Y-11285974D01*
X16991000Y-11243859D01*
X16991000Y-10586141D01*
X16995148Y-10544026D01*
X17005642Y-10509433D01*
X17022678Y-10477560D01*
X17045614Y-10449614D01*
X17073560Y-10426678D01*
X17105433Y-10409642D01*
X17140026Y-10399148D01*
X17182141Y-10395000D01*
X17789859Y-10395000D01*
X17831974Y-10399148D01*
X17831974Y-10399148D01*
G37*
G36*
X12551000Y-8700001D02*
G01*
X12553402Y-8724387D01*
X12560515Y-8747836D01*
X12572066Y-8769447D01*
X12587611Y-8788389D01*
X12606553Y-8803934D01*
X12628164Y-8815485D01*
X12651613Y-8822598D01*
X12675999Y-8825000D01*
X12924859Y-8825000D01*
X12966974Y-8829148D01*
X13001567Y-8839642D01*
X13033440Y-8856678D01*
X13061386Y-8879614D01*
X13084322Y-8907560D01*
X13101358Y-8939433D01*
X13111852Y-8974026D01*
X13116000Y-9016141D01*
X13116000Y-9623859D01*
X13111852Y-9665974D01*
X13101358Y-9700567D01*
X13080213Y-9740127D01*
X13076244Y-9746066D01*
X13066865Y-9768703D01*
X13062082Y-9792736D01*
X13062080Y-9817240D01*
X13066858Y-9841274D01*
X13076233Y-9863914D01*
X13080206Y-9869861D01*
X13101358Y-9909433D01*
X13111852Y-9944026D01*
X13116000Y-9986141D01*
X13116000Y-10593859D01*
X13111852Y-10635974D01*
X13101358Y-10670567D01*
X13084322Y-10702440D01*
X13061386Y-10730386D01*
X13033440Y-10753322D01*
X13001567Y-10770358D01*
X12966974Y-10780852D01*
X12924859Y-10785000D01*
X12267141Y-10785000D01*
X12225026Y-10780852D01*
X12190433Y-10770358D01*
X12158560Y-10753322D01*
X12130614Y-10730386D01*
X12107678Y-10702440D01*
X12090642Y-10670567D01*
X12080148Y-10635974D01*
X12076000Y-10593859D01*
X12076000Y-9986141D01*
X12080148Y-9944026D01*
X12090642Y-9909433D01*
X12111787Y-9869873D01*
X12115756Y-9863934D01*
X12125135Y-9841297D01*
X12129918Y-9817264D01*
X12129920Y-9792760D01*
X12125142Y-9768726D01*
X12115767Y-9746086D01*
X12111794Y-9740139D01*
X12090642Y-9700567D01*
X12080148Y-9665974D01*
X12076000Y-9623859D01*
X12076000Y-9016141D01*
X12080148Y-8974026D01*
X12090642Y-8939433D01*
X12107678Y-8907560D01*
X12130615Y-8879611D01*
X12152533Y-8861624D01*
X12169860Y-8844297D01*
X12183473Y-8823923D01*
X12192851Y-8801284D01*
X12197631Y-8777251D01*
X12197631Y-8752747D01*
X12192850Y-8728713D01*
X12183473Y-8706075D01*
X12169859Y-8685700D01*
X12152532Y-8668373D01*
X12132158Y-8654760D01*
X12109519Y-8645382D01*
X12073234Y-8640000D01*
X10501000Y-8640000D01*
X10501000Y-7240000D01*
X12551000Y-7240000D01*
X12551000Y-8700001D01*
X12551000Y-8700001D01*
G37*
G36*
X14366974Y-8814148D02*
G01*
X14401567Y-8824642D01*
X14433443Y-8841680D01*
X14441701Y-8848457D01*
X14452121Y-8855419D01*
X14457743Y-8861623D01*
X14461385Y-8864612D01*
X14484322Y-8892560D01*
X14501358Y-8924433D01*
X14511852Y-8959026D01*
X14516000Y-9001141D01*
X14516000Y-9608859D01*
X14511852Y-9650974D01*
X14501358Y-9685567D01*
X14480213Y-9725127D01*
X14476244Y-9731066D01*
X14466865Y-9753703D01*
X14462082Y-9777736D01*
X14462080Y-9802240D01*
X14466858Y-9826274D01*
X14476233Y-9848914D01*
X14480206Y-9854861D01*
X14501358Y-9894433D01*
X14511852Y-9929026D01*
X14516000Y-9971141D01*
X14516000Y-10578859D01*
X14511852Y-10620974D01*
X14501358Y-10655567D01*
X14484322Y-10687440D01*
X14461386Y-10715386D01*
X14433440Y-10738322D01*
X14401567Y-10755358D01*
X14366974Y-10765852D01*
X14324859Y-10770000D01*
X13667141Y-10770000D01*
X13625026Y-10765852D01*
X13590433Y-10755358D01*
X13558560Y-10738322D01*
X13530614Y-10715386D01*
X13507678Y-10687440D01*
X13490642Y-10655567D01*
X13480148Y-10620974D01*
X13476000Y-10578859D01*
X13476000Y-9971141D01*
X13480148Y-9929026D01*
X13490642Y-9894433D01*
X13511787Y-9854873D01*
X13515756Y-9848934D01*
X13525135Y-9826297D01*
X13529918Y-9802264D01*
X13529920Y-9777760D01*
X13525142Y-9753726D01*
X13515767Y-9731086D01*
X13511794Y-9725139D01*
X13490642Y-9685567D01*
X13480148Y-9650974D01*
X13476000Y-9608859D01*
X13476000Y-9001141D01*
X13480148Y-8959026D01*
X13490642Y-8924433D01*
X13507678Y-8892560D01*
X13530614Y-8864614D01*
X13558560Y-8841678D01*
X13590433Y-8824642D01*
X13625026Y-8814148D01*
X13667141Y-8810000D01*
X14324859Y-8810000D01*
X14366974Y-8814148D01*
X14366974Y-8814148D01*
G37*
G36*
X-898626Y-9402848D02*
G01*
X-864033Y-9413342D01*
X-824473Y-9434487D01*
X-818534Y-9438456D01*
X-795897Y-9447835D01*
X-771864Y-9452618D01*
X-747360Y-9452620D01*
X-723326Y-9447842D01*
X-700686Y-9438467D01*
X-694739Y-9434494D01*
X-655167Y-9413342D01*
X-620574Y-9402848D01*
X-578459Y-9398700D01*
X29259Y-9398700D01*
X71374Y-9402848D01*
X105967Y-9413342D01*
X137840Y-9430378D01*
X165786Y-9453314D01*
X188722Y-9481260D01*
X205758Y-9513133D01*
X216252Y-9547726D01*
X220400Y-9589841D01*
X220400Y-10247559D01*
X216252Y-10289674D01*
X205758Y-10324267D01*
X188722Y-10356140D01*
X165786Y-10384086D01*
X137840Y-10407022D01*
X105967Y-10424058D01*
X71374Y-10434552D01*
X29259Y-10438700D01*
X-578459Y-10438700D01*
X-620574Y-10434552D01*
X-655167Y-10424058D01*
X-694727Y-10402913D01*
X-700666Y-10398944D01*
X-723303Y-10389565D01*
X-747336Y-10384782D01*
X-771840Y-10384780D01*
X-795874Y-10389558D01*
X-818514Y-10398933D01*
X-824461Y-10402906D01*
X-864033Y-10424058D01*
X-898626Y-10434552D01*
X-940741Y-10438700D01*
X-1548459Y-10438700D01*
X-1590574Y-10434552D01*
X-1625167Y-10424058D01*
X-1657040Y-10407022D01*
X-1684986Y-10384086D01*
X-1707922Y-10356140D01*
X-1724958Y-10324267D01*
X-1735452Y-10289674D01*
X-1739600Y-10247559D01*
X-1739600Y-9589841D01*
X-1735452Y-9547726D01*
X-1724958Y-9513133D01*
X-1707922Y-9481260D01*
X-1684986Y-9453314D01*
X-1657040Y-9430378D01*
X-1625167Y-9413342D01*
X-1590574Y-9402848D01*
X-1548459Y-9398700D01*
X-940741Y-9398700D01*
X-898626Y-9402848D01*
X-898626Y-9402848D01*
G37*
G36*
X-2296026Y-6273448D02*
G01*
X-2261433Y-6283942D01*
X-2229560Y-6300978D01*
X-2201614Y-6323914D01*
X-2178678Y-6351860D01*
X-2161642Y-6383733D01*
X-2151148Y-6418326D01*
X-2147000Y-6460441D01*
X-2147000Y-7068159D01*
X-2151148Y-7110274D01*
X-2161642Y-7144867D01*
X-2182787Y-7184427D01*
X-2186756Y-7190366D01*
X-2196135Y-7213003D01*
X-2200918Y-7237036D01*
X-2200920Y-7261540D01*
X-2196142Y-7285574D01*
X-2186767Y-7308214D01*
X-2182794Y-7314161D01*
X-2161642Y-7353733D01*
X-2151148Y-7388326D01*
X-2147000Y-7430441D01*
X-2147000Y-8038159D01*
X-2151148Y-8080274D01*
X-2161642Y-8114867D01*
X-2178678Y-8146740D01*
X-2201614Y-8174686D01*
X-2229560Y-8197622D01*
X-2261553Y-8214722D01*
X-2283939Y-8223995D01*
X-2304314Y-8237609D01*
X-2321641Y-8254936D01*
X-2335255Y-8275310D01*
X-2344632Y-8297949D01*
X-2349413Y-8321982D01*
X-2349413Y-8346486D01*
X-2344633Y-8370520D01*
X-2335256Y-8393158D01*
X-2321642Y-8413533D01*
X-2304315Y-8430860D01*
X-2283941Y-8444474D01*
X-2261302Y-8453851D01*
X-2252881Y-8455526D01*
X-2210633Y-8468342D01*
X-2178760Y-8485378D01*
X-2150814Y-8508314D01*
X-2127878Y-8536260D01*
X-2110842Y-8568133D01*
X-2100348Y-8602726D01*
X-2096200Y-8644841D01*
X-2096200Y-9252559D01*
X-2100348Y-9294674D01*
X-2110842Y-9329267D01*
X-2131987Y-9368827D01*
X-2135956Y-9374766D01*
X-2145335Y-9397403D01*
X-2150118Y-9421436D01*
X-2150120Y-9445940D01*
X-2145342Y-9469974D01*
X-2135967Y-9492614D01*
X-2131994Y-9498561D01*
X-2110842Y-9538133D01*
X-2100348Y-9572726D01*
X-2096200Y-9614841D01*
X-2096200Y-10222559D01*
X-2100348Y-10264674D01*
X-2110842Y-10299267D01*
X-2127878Y-10331140D01*
X-2150814Y-10359086D01*
X-2178760Y-10382022D01*
X-2210633Y-10399058D01*
X-2245226Y-10409552D01*
X-2287341Y-10413700D01*
X-2945059Y-10413700D01*
X-2987174Y-10409552D01*
X-3021767Y-10399058D01*
X-3053640Y-10382022D01*
X-3081586Y-10359086D01*
X-3104522Y-10331140D01*
X-3121558Y-10299267D01*
X-3132052Y-10264674D01*
X-3136200Y-10222559D01*
X-3136200Y-9614841D01*
X-3132052Y-9572726D01*
X-3121558Y-9538133D01*
X-3100413Y-9498573D01*
X-3096444Y-9492634D01*
X-3087065Y-9469997D01*
X-3082282Y-9445964D01*
X-3082280Y-9421460D01*
X-3087058Y-9397426D01*
X-3096433Y-9374786D01*
X-3100406Y-9368839D01*
X-3121558Y-9329267D01*
X-3132052Y-9294674D01*
X-3136200Y-9252559D01*
X-3136200Y-8644841D01*
X-3132052Y-8602726D01*
X-3121558Y-8568133D01*
X-3104522Y-8536260D01*
X-3081586Y-8508314D01*
X-3053640Y-8485378D01*
X-3021647Y-8468278D01*
X-2999261Y-8459005D01*
X-2978886Y-8445391D01*
X-2961559Y-8428064D01*
X-2947945Y-8407690D01*
X-2938568Y-8385051D01*
X-2933787Y-8361018D01*
X-2933787Y-8336514D01*
X-2938567Y-8312480D01*
X-2947944Y-8289842D01*
X-2961558Y-8269467D01*
X-2978885Y-8252140D01*
X-2999259Y-8238526D01*
X-3021898Y-8229149D01*
X-3030319Y-8227474D01*
X-3072567Y-8214658D01*
X-3104440Y-8197622D01*
X-3132386Y-8174686D01*
X-3155322Y-8146740D01*
X-3172358Y-8114867D01*
X-3182852Y-8080274D01*
X-3187000Y-8038159D01*
X-3187000Y-7430441D01*
X-3182852Y-7388326D01*
X-3172358Y-7353733D01*
X-3151213Y-7314173D01*
X-3147244Y-7308234D01*
X-3137865Y-7285597D01*
X-3133082Y-7261564D01*
X-3133080Y-7237060D01*
X-3137858Y-7213026D01*
X-3147233Y-7190386D01*
X-3151206Y-7184439D01*
X-3172358Y-7144867D01*
X-3182852Y-7110274D01*
X-3187000Y-7068159D01*
X-3187000Y-6460441D01*
X-3182852Y-6418326D01*
X-3172358Y-6383733D01*
X-3155322Y-6351860D01*
X-3132386Y-6323914D01*
X-3104440Y-6300978D01*
X-3072567Y-6283942D01*
X-3037974Y-6273448D01*
X-2995859Y-6269300D01*
X-2338141Y-6269300D01*
X-2296026Y-6273448D01*
X-2296026Y-6273448D01*
G37*
G36*
X18596000Y-5715001D02*
G01*
X18598402Y-5739387D01*
X18605515Y-5762836D01*
X18617066Y-5784447D01*
X18632611Y-5803389D01*
X18651553Y-5818934D01*
X18673164Y-5830485D01*
X18696613Y-5837598D01*
X18698242Y-5837758D01*
X18698402Y-5839387D01*
X18705515Y-5862836D01*
X18717066Y-5884447D01*
X18732611Y-5903389D01*
X18751553Y-5918934D01*
X18773164Y-5930485D01*
X18796613Y-5937598D01*
X18820999Y-5940000D01*
X19846000Y-5940000D01*
X19846000Y-8640000D01*
X18820999Y-8640000D01*
X18796613Y-8642402D01*
X18773164Y-8649515D01*
X18751553Y-8661066D01*
X18732611Y-8676611D01*
X18717066Y-8695553D01*
X18705515Y-8717164D01*
X18698402Y-8740613D01*
X18698242Y-8742242D01*
X18696613Y-8742402D01*
X18673164Y-8749515D01*
X18651553Y-8761066D01*
X18632611Y-8776611D01*
X18617066Y-8795553D01*
X18605515Y-8817164D01*
X18598402Y-8840613D01*
X18596000Y-8864999D01*
X18596000Y-9890000D01*
X15896000Y-9890000D01*
X15896000Y-8864999D01*
X15893598Y-8840613D01*
X15886485Y-8817164D01*
X15874934Y-8795553D01*
X15859389Y-8776611D01*
X15840447Y-8761066D01*
X15818836Y-8749515D01*
X15795387Y-8742402D01*
X15793758Y-8742242D01*
X15793598Y-8740613D01*
X15786485Y-8717164D01*
X15774934Y-8695553D01*
X15759389Y-8676611D01*
X15740447Y-8661066D01*
X15718836Y-8649515D01*
X15695387Y-8642402D01*
X15671001Y-8640000D01*
X14646000Y-8640000D01*
X14646000Y-5940000D01*
X15671001Y-5940000D01*
X15695387Y-5937598D01*
X15718836Y-5930485D01*
X15740447Y-5918934D01*
X15759389Y-5903389D01*
X15774934Y-5884447D01*
X15786485Y-5862836D01*
X15793598Y-5839387D01*
X15793758Y-5837758D01*
X15795387Y-5837598D01*
X15818836Y-5830485D01*
X15840447Y-5818934D01*
X15859389Y-5803389D01*
X15874934Y-5784447D01*
X15886485Y-5762836D01*
X15893598Y-5739387D01*
X15896000Y-5715001D01*
X15896000Y-4690000D01*
X18596000Y-4690000D01*
X18596000Y-5715001D01*
X18596000Y-5715001D01*
G37*
G36*
X-23612970Y-7902877D02*
G01*
X-23561490Y-7918493D01*
X-23514055Y-7943848D01*
X-23472473Y-7977973D01*
X-23438348Y-8019555D01*
X-23412993Y-8066990D01*
X-23397377Y-8118470D01*
X-23391500Y-8178140D01*
X-23391500Y-9065860D01*
X-23397377Y-9125530D01*
X-23412993Y-9177010D01*
X-23438348Y-9224445D01*
X-23472473Y-9266027D01*
X-23514055Y-9300152D01*
X-23561490Y-9325507D01*
X-23612970Y-9341123D01*
X-23672640Y-9347000D01*
X-24460360Y-9347000D01*
X-24520030Y-9341123D01*
X-24571510Y-9325507D01*
X-24618945Y-9300152D01*
X-24660527Y-9266027D01*
X-24694652Y-9224445D01*
X-24720007Y-9177010D01*
X-24735623Y-9125530D01*
X-24741500Y-9065860D01*
X-24741500Y-8178140D01*
X-24735623Y-8118470D01*
X-24720007Y-8066990D01*
X-24694652Y-8019555D01*
X-24660527Y-7977973D01*
X-24618945Y-7943848D01*
X-24571510Y-7918493D01*
X-24520030Y-7902877D01*
X-24460360Y-7897000D01*
X-23672640Y-7897000D01*
X-23612970Y-7902877D01*
X-23612970Y-7902877D01*
G37*
G36*
X-18761500Y-8455000D02*
G01*
X-20431500Y-8455000D01*
X-20431500Y-6785000D01*
X-18761500Y-6785000D01*
X-18761500Y-8455000D01*
X-18761500Y-8455000D01*
G37*
G36*
X-7331500Y-8455000D02*
G01*
X-9001500Y-8455000D01*
X-9001500Y-6785000D01*
X-7331500Y-6785000D01*
X-7331500Y-8455000D01*
X-7331500Y-8455000D01*
G37*
G36*
X8943558Y-6309870D02*
G01*
X8978151Y-6320364D01*
X9010024Y-6337400D01*
X9042740Y-6364250D01*
X9082582Y-6404092D01*
X9082593Y-6404101D01*
X9432611Y-6754119D01*
X9432620Y-6754130D01*
X9472462Y-6793972D01*
X9499312Y-6826688D01*
X9516348Y-6858561D01*
X9529374Y-6901503D01*
X9530769Y-6908514D01*
X9540148Y-6931152D01*
X9553763Y-6951526D01*
X9571091Y-6968852D01*
X9591466Y-6982464D01*
X9614105Y-6991840D01*
X9621106Y-6993233D01*
X9664045Y-7006258D01*
X9695918Y-7023294D01*
X9728634Y-7050144D01*
X9768476Y-7089986D01*
X9768487Y-7089995D01*
X10118505Y-7440013D01*
X10118514Y-7440024D01*
X10158356Y-7479866D01*
X10185206Y-7512582D01*
X10202242Y-7544455D01*
X10212736Y-7579048D01*
X10216279Y-7615022D01*
X10212736Y-7650996D01*
X10202242Y-7685589D01*
X10185206Y-7717462D01*
X10158356Y-7750178D01*
X10118514Y-7790020D01*
X10118505Y-7790031D01*
X9733131Y-8175405D01*
X9733120Y-8175414D01*
X9693278Y-8215256D01*
X9660562Y-8242106D01*
X9628689Y-8259142D01*
X9594096Y-8269636D01*
X9558122Y-8273179D01*
X9522148Y-8269636D01*
X9487555Y-8259142D01*
X9455682Y-8242106D01*
X9422966Y-8215256D01*
X9383124Y-8175414D01*
X9383113Y-8175405D01*
X9033095Y-7825387D01*
X9033086Y-7825376D01*
X8993244Y-7785534D01*
X8966394Y-7752818D01*
X8949358Y-7720945D01*
X8936332Y-7678003D01*
X8934937Y-7670992D01*
X8925558Y-7648354D01*
X8911943Y-7627980D01*
X8894615Y-7610654D01*
X8874240Y-7597042D01*
X8851601Y-7587666D01*
X8844600Y-7586273D01*
X8801661Y-7573248D01*
X8769788Y-7556212D01*
X8737072Y-7529362D01*
X8697230Y-7489520D01*
X8697219Y-7489511D01*
X8347201Y-7139493D01*
X8347192Y-7139482D01*
X8307350Y-7099640D01*
X8280500Y-7066924D01*
X8263464Y-7035051D01*
X8252970Y-7000458D01*
X8249427Y-6964484D01*
X8252970Y-6928510D01*
X8263464Y-6893917D01*
X8280500Y-6862044D01*
X8307350Y-6829328D01*
X8347192Y-6789486D01*
X8347201Y-6789475D01*
X8732575Y-6404101D01*
X8732586Y-6404092D01*
X8772428Y-6364250D01*
X8805144Y-6337400D01*
X8837017Y-6320364D01*
X8871610Y-6309870D01*
X8907584Y-6306327D01*
X8943558Y-6309870D01*
X8943558Y-6309870D01*
G37*
G36*
X-898626Y-7218448D02*
G01*
X-864033Y-7228942D01*
X-824473Y-7250087D01*
X-818534Y-7254056D01*
X-795897Y-7263435D01*
X-771864Y-7268218D01*
X-747360Y-7268220D01*
X-723326Y-7263442D01*
X-700686Y-7254067D01*
X-694739Y-7250094D01*
X-655167Y-7228942D01*
X-620574Y-7218448D01*
X-578459Y-7214300D01*
X29259Y-7214300D01*
X71374Y-7218448D01*
X105967Y-7228942D01*
X137840Y-7245978D01*
X165786Y-7268914D01*
X188722Y-7296860D01*
X205758Y-7328733D01*
X216252Y-7363326D01*
X220400Y-7405441D01*
X220400Y-8063159D01*
X216252Y-8105274D01*
X205758Y-8139867D01*
X188722Y-8171740D01*
X165786Y-8199686D01*
X137840Y-8222622D01*
X105967Y-8239658D01*
X71374Y-8250152D01*
X29259Y-8254300D01*
X-578459Y-8254300D01*
X-620574Y-8250152D01*
X-655167Y-8239658D01*
X-694727Y-8218513D01*
X-700666Y-8214544D01*
X-723303Y-8205165D01*
X-747336Y-8200382D01*
X-771840Y-8200380D01*
X-795874Y-8205158D01*
X-818514Y-8214533D01*
X-824461Y-8218506D01*
X-864033Y-8239658D01*
X-898626Y-8250152D01*
X-940741Y-8254300D01*
X-1548459Y-8254300D01*
X-1590574Y-8250152D01*
X-1625167Y-8239658D01*
X-1657040Y-8222622D01*
X-1684986Y-8199686D01*
X-1707922Y-8171740D01*
X-1724958Y-8139867D01*
X-1735452Y-8105274D01*
X-1739600Y-8063159D01*
X-1739600Y-7405441D01*
X-1735452Y-7363326D01*
X-1724958Y-7328733D01*
X-1707922Y-7296860D01*
X-1684986Y-7268914D01*
X-1657040Y-7245978D01*
X-1625167Y-7228942D01*
X-1590574Y-7218448D01*
X-1548459Y-7214300D01*
X-940741Y-7214300D01*
X-898626Y-7218448D01*
X-898626Y-7218448D01*
G37*
G36*
X-23612970Y-6152877D02*
G01*
X-23561490Y-6168493D01*
X-23514055Y-6193848D01*
X-23472473Y-6227973D01*
X-23438348Y-6269555D01*
X-23412993Y-6316990D01*
X-23397377Y-6368470D01*
X-23391500Y-6428140D01*
X-23391500Y-7315860D01*
X-23397377Y-7375530D01*
X-23412993Y-7427010D01*
X-23438348Y-7474445D01*
X-23472473Y-7516027D01*
X-23514055Y-7550152D01*
X-23561490Y-7575507D01*
X-23612970Y-7591123D01*
X-23672640Y-7597000D01*
X-24460360Y-7597000D01*
X-24520030Y-7591123D01*
X-24571510Y-7575507D01*
X-24618945Y-7550152D01*
X-24660527Y-7516027D01*
X-24694652Y-7474445D01*
X-24720007Y-7427010D01*
X-24735623Y-7375530D01*
X-24741500Y-7315860D01*
X-24741500Y-6428140D01*
X-24735623Y-6368470D01*
X-24720007Y-6316990D01*
X-24694652Y-6269555D01*
X-24660527Y-6227973D01*
X-24618945Y-6193848D01*
X-24571510Y-6168493D01*
X-24520030Y-6152877D01*
X-24460360Y-6147000D01*
X-23672640Y-6147000D01*
X-23612970Y-6152877D01*
X-23612970Y-6152877D01*
G37*
G36*
X22390774Y-6062748D02*
G01*
X22425367Y-6073242D01*
X22464927Y-6094387D01*
X22470866Y-6098356D01*
X22493503Y-6107735D01*
X22517536Y-6112518D01*
X22542040Y-6112520D01*
X22566074Y-6107742D01*
X22588714Y-6098367D01*
X22594661Y-6094394D01*
X22634233Y-6073242D01*
X22668826Y-6062748D01*
X22710941Y-6058600D01*
X23318659Y-6058600D01*
X23360774Y-6062748D01*
X23395367Y-6073242D01*
X23427240Y-6090278D01*
X23455186Y-6113214D01*
X23478122Y-6141160D01*
X23495158Y-6173033D01*
X23505652Y-6207626D01*
X23509800Y-6249741D01*
X23509800Y-6907459D01*
X23505652Y-6949574D01*
X23495158Y-6984167D01*
X23478122Y-7016040D01*
X23455186Y-7043986D01*
X23427240Y-7066922D01*
X23395367Y-7083958D01*
X23360774Y-7094452D01*
X23318659Y-7098600D01*
X22710941Y-7098600D01*
X22668826Y-7094452D01*
X22634233Y-7083958D01*
X22594673Y-7062813D01*
X22588734Y-7058844D01*
X22566097Y-7049465D01*
X22542064Y-7044682D01*
X22517560Y-7044680D01*
X22493526Y-7049458D01*
X22470886Y-7058833D01*
X22464939Y-7062806D01*
X22425367Y-7083958D01*
X22390774Y-7094452D01*
X22348659Y-7098600D01*
X21740941Y-7098600D01*
X21698826Y-7094452D01*
X21664233Y-7083958D01*
X21632360Y-7066922D01*
X21604414Y-7043986D01*
X21581478Y-7016040D01*
X21564442Y-6984167D01*
X21553948Y-6949574D01*
X21549800Y-6907459D01*
X21549800Y-6249741D01*
X21553948Y-6207626D01*
X21564442Y-6173033D01*
X21581478Y-6141160D01*
X21604414Y-6113214D01*
X21632360Y-6090278D01*
X21664233Y-6073242D01*
X21698826Y-6062748D01*
X21740941Y-6058600D01*
X22348659Y-6058600D01*
X22390774Y-6062748D01*
X22390774Y-6062748D01*
G37*
G36*
X12551000Y-6840000D02*
G01*
X10501000Y-6840000D01*
X10501000Y-5440000D01*
X12551000Y-5440000D01*
X12551000Y-6840000D01*
X12551000Y-6840000D01*
G37*
G36*
X-7331500Y-5915000D02*
G01*
X-9001500Y-5915000D01*
X-9001500Y-4245000D01*
X-7331500Y-4245000D01*
X-7331500Y-5915000D01*
X-7331500Y-5915000D01*
G37*
G36*
X-18761500Y-5915000D02*
G01*
X-20431500Y-5915000D01*
X-20431500Y-4245000D01*
X-18761500Y-4245000D01*
X-18761500Y-5915000D01*
X-18761500Y-5915000D01*
G37*
G36*
X-13723940Y-608759D02*
G01*
X-13232572Y-812290D01*
X-13232570Y-812291D01*
X-12790350Y-1107773D01*
X-12414273Y-1483850D01*
X-12118791Y-1926070D01*
X-12118790Y-1926072D01*
X-11915259Y-2417440D01*
X-11811500Y-2939072D01*
X-11811500Y-3470928D01*
X-11915259Y-3992560D01*
X-12116888Y-4479335D01*
X-12118791Y-4483930D01*
X-12414273Y-4926150D01*
X-12790350Y-5302227D01*
X-13232570Y-5597709D01*
X-13232571Y-5597710D01*
X-13232572Y-5597710D01*
X-13723940Y-5801241D01*
X-14245572Y-5905000D01*
X-14777428Y-5905000D01*
X-15299060Y-5801241D01*
X-15790428Y-5597710D01*
X-15790429Y-5597710D01*
X-15790430Y-5597709D01*
X-16232650Y-5302227D01*
X-16608727Y-4926150D01*
X-16904209Y-4483930D01*
X-16906112Y-4479335D01*
X-17107741Y-3992560D01*
X-17211500Y-3470928D01*
X-17211500Y-2939072D01*
X-17107741Y-2417440D01*
X-16904210Y-1926072D01*
X-16904209Y-1926070D01*
X-16608727Y-1483850D01*
X-16232650Y-1107773D01*
X-15790430Y-812291D01*
X-15790428Y-812290D01*
X-15299060Y-608759D01*
X-14777428Y-505000D01*
X-14245572Y-505000D01*
X-13723940Y-608759D01*
X-13723940Y-608759D01*
G37*
G36*
X-2346826Y-1757048D02*
G01*
X-2312233Y-1767542D01*
X-2280360Y-1784578D01*
X-2252414Y-1807514D01*
X-2229478Y-1835460D01*
X-2212442Y-1867333D01*
X-2201948Y-1901926D01*
X-2197800Y-1944041D01*
X-2197800Y-2551759D01*
X-2201948Y-2593874D01*
X-2212442Y-2628467D01*
X-2233587Y-2668027D01*
X-2237556Y-2673966D01*
X-2246935Y-2696603D01*
X-2251718Y-2720636D01*
X-2251720Y-2745140D01*
X-2246942Y-2769174D01*
X-2237567Y-2791814D01*
X-2233593Y-2797761D01*
X-2227150Y-2809815D01*
X-2213536Y-2830190D01*
X-2196208Y-2847516D01*
X-2175834Y-2861130D01*
X-2153195Y-2870506D01*
X-2129161Y-2875286D01*
X-2104657Y-2875286D01*
X-2080624Y-2870505D01*
X-2057986Y-2861127D01*
X-2037611Y-2847513D01*
X-2020285Y-2830185D01*
X-2006672Y-2809812D01*
X-1986920Y-2772858D01*
X-1963986Y-2744914D01*
X-1936040Y-2721978D01*
X-1904167Y-2704942D01*
X-1869574Y-2694448D01*
X-1827459Y-2690300D01*
X-1169741Y-2690300D01*
X-1127626Y-2694448D01*
X-1093033Y-2704942D01*
X-1061160Y-2721978D01*
X-1033214Y-2744914D01*
X-1010278Y-2772860D01*
X-993242Y-2804733D01*
X-982748Y-2839326D01*
X-978600Y-2881441D01*
X-978600Y-3489160D01*
X-983401Y-3537904D01*
X-983401Y-3562408D01*
X-978621Y-3586441D01*
X-969243Y-3609080D01*
X-955630Y-3629454D01*
X-938303Y-3646781D01*
X-917928Y-3660395D01*
X-895290Y-3669772D01*
X-871256Y-3674553D01*
X-846752Y-3674553D01*
X-822719Y-3669773D01*
X-800080Y-3660395D01*
X-779705Y-3646781D01*
X-770443Y-3639180D01*
X-738567Y-3622142D01*
X-703974Y-3611648D01*
X-661859Y-3607500D01*
X-54141Y-3607500D01*
X-12026Y-3611648D01*
X22567Y-3622142D01*
X62127Y-3643287D01*
X68066Y-3647256D01*
X90703Y-3656635D01*
X114736Y-3661418D01*
X139240Y-3661420D01*
X163274Y-3656642D01*
X185914Y-3647267D01*
X191861Y-3643294D01*
X231433Y-3622142D01*
X266026Y-3611648D01*
X308141Y-3607500D01*
X915859Y-3607500D01*
X957974Y-3611648D01*
X992567Y-3622142D01*
X1024440Y-3639178D01*
X1052386Y-3662114D01*
X1075322Y-3690060D01*
X1092358Y-3721933D01*
X1102852Y-3756526D01*
X1107000Y-3798641D01*
X1107000Y-4456359D01*
X1102852Y-4498474D01*
X1092358Y-4533067D01*
X1075322Y-4564940D01*
X1052386Y-4592886D01*
X1024442Y-4615820D01*
X1015288Y-4620713D01*
X994913Y-4634327D01*
X977586Y-4651654D01*
X963972Y-4672028D01*
X954595Y-4694667D01*
X949814Y-4718700D01*
X949814Y-4743204D01*
X954594Y-4767237D01*
X963971Y-4789876D01*
X977585Y-4810251D01*
X994912Y-4827578D01*
X1015287Y-4841192D01*
X1055127Y-4862487D01*
X1061066Y-4866456D01*
X1083703Y-4875835D01*
X1107736Y-4880618D01*
X1132240Y-4880620D01*
X1156274Y-4875842D01*
X1178914Y-4866467D01*
X1184861Y-4862494D01*
X1224433Y-4841342D01*
X1259026Y-4830848D01*
X1301141Y-4826700D01*
X1908859Y-4826700D01*
X1950974Y-4830848D01*
X1985567Y-4841342D01*
X2017440Y-4858378D01*
X2045386Y-4881314D01*
X2068322Y-4909260D01*
X2085358Y-4941133D01*
X2095852Y-4975726D01*
X2100000Y-5017841D01*
X2100000Y-5675559D01*
X2095852Y-5717674D01*
X2085358Y-5752267D01*
X2068322Y-5784140D01*
X2045386Y-5812086D01*
X2017440Y-5835022D01*
X1985567Y-5852058D01*
X1950974Y-5862552D01*
X1908859Y-5866700D01*
X1301141Y-5866700D01*
X1259026Y-5862552D01*
X1224433Y-5852058D01*
X1184873Y-5830913D01*
X1178934Y-5826944D01*
X1156297Y-5817565D01*
X1132264Y-5812782D01*
X1107760Y-5812780D01*
X1083726Y-5817558D01*
X1061086Y-5826933D01*
X1055139Y-5830906D01*
X1015567Y-5852058D01*
X980974Y-5862552D01*
X938859Y-5866700D01*
X331141Y-5866700D01*
X289026Y-5862552D01*
X254433Y-5852058D01*
X222560Y-5835022D01*
X194614Y-5812086D01*
X171678Y-5784140D01*
X154642Y-5752267D01*
X144148Y-5717674D01*
X140000Y-5675559D01*
X140000Y-5017841D01*
X144148Y-4975726D01*
X154642Y-4941133D01*
X171678Y-4909260D01*
X194614Y-4881314D01*
X222558Y-4858380D01*
X231712Y-4853487D01*
X252087Y-4839873D01*
X269414Y-4822546D01*
X283028Y-4802172D01*
X292405Y-4779533D01*
X297186Y-4755500D01*
X297186Y-4730996D01*
X292406Y-4706963D01*
X283029Y-4684324D01*
X269415Y-4663949D01*
X252088Y-4646622D01*
X231713Y-4633008D01*
X191873Y-4611713D01*
X185934Y-4607744D01*
X163297Y-4598365D01*
X139264Y-4593582D01*
X114760Y-4593580D01*
X90726Y-4598358D01*
X68086Y-4607733D01*
X62139Y-4611706D01*
X22567Y-4632858D01*
X-12026Y-4643352D01*
X-54141Y-4647500D01*
X-661859Y-4647500D01*
X-703974Y-4643352D01*
X-738567Y-4632858D01*
X-770440Y-4615822D01*
X-798386Y-4592886D01*
X-818026Y-4568956D01*
X-835353Y-4551630D01*
X-855728Y-4538016D01*
X-878367Y-4528639D01*
X-902400Y-4523859D01*
X-926904Y-4523859D01*
X-950938Y-4528640D01*
X-973576Y-4538017D01*
X-993951Y-4551631D01*
X-1011276Y-4568956D01*
X-1033214Y-4595686D01*
X-1061160Y-4618622D01*
X-1093033Y-4635658D01*
X-1127626Y-4646152D01*
X-1169741Y-4650300D01*
X-1216555Y-4650300D01*
X-1240941Y-4652702D01*
X-1264390Y-4659815D01*
X-1286001Y-4671366D01*
X-1304943Y-4686911D01*
X-1320488Y-4705853D01*
X-1332039Y-4727464D01*
X-1339152Y-4750913D01*
X-1341554Y-4775299D01*
X-1339152Y-4799685D01*
X-1332039Y-4823134D01*
X-1320488Y-4844745D01*
X-1295854Y-4871924D01*
X-1284415Y-4881312D01*
X-1261478Y-4909260D01*
X-1244442Y-4941133D01*
X-1233948Y-4975726D01*
X-1229800Y-5017841D01*
X-1229800Y-5675559D01*
X-1233948Y-5717674D01*
X-1244442Y-5752267D01*
X-1261478Y-5784140D01*
X-1284414Y-5812086D01*
X-1312360Y-5835022D01*
X-1344233Y-5852058D01*
X-1378826Y-5862552D01*
X-1420941Y-5866700D01*
X-2028659Y-5866700D01*
X-2070774Y-5862552D01*
X-2105367Y-5852058D01*
X-2144927Y-5830913D01*
X-2150866Y-5826944D01*
X-2173503Y-5817565D01*
X-2197536Y-5812782D01*
X-2222040Y-5812780D01*
X-2246074Y-5817558D01*
X-2268714Y-5826933D01*
X-2274661Y-5830906D01*
X-2314233Y-5852058D01*
X-2348826Y-5862552D01*
X-2390941Y-5866700D01*
X-2998659Y-5866700D01*
X-3040774Y-5862552D01*
X-3075367Y-5852058D01*
X-3107240Y-5835022D01*
X-3135186Y-5812086D01*
X-3158122Y-5784140D01*
X-3175158Y-5752267D01*
X-3185652Y-5717674D01*
X-3189800Y-5675559D01*
X-3189800Y-5017841D01*
X-3185652Y-4975726D01*
X-3175158Y-4941133D01*
X-3158122Y-4909260D01*
X-3135186Y-4881314D01*
X-3107240Y-4858378D01*
X-3075367Y-4841342D01*
X-3040774Y-4830848D01*
X-2998659Y-4826700D01*
X-2390941Y-4826700D01*
X-2348826Y-4830848D01*
X-2314233Y-4841342D01*
X-2274673Y-4862487D01*
X-2268734Y-4866456D01*
X-2246097Y-4875835D01*
X-2222064Y-4880618D01*
X-2197560Y-4880620D01*
X-2173526Y-4875842D01*
X-2150886Y-4866467D01*
X-2144939Y-4862494D01*
X-2105367Y-4841342D01*
X-2070774Y-4830848D01*
X-2022547Y-4826098D01*
X-2022578Y-4825787D01*
X-2007459Y-4824298D01*
X-1984010Y-4817185D01*
X-1962399Y-4805634D01*
X-1943457Y-4790089D01*
X-1927912Y-4771147D01*
X-1916361Y-4749536D01*
X-1909248Y-4726087D01*
X-1906846Y-4701701D01*
X-1909248Y-4677315D01*
X-1916361Y-4653866D01*
X-1927912Y-4632255D01*
X-1952546Y-4605076D01*
X-1963985Y-4595688D01*
X-1986922Y-4567740D01*
X-2003958Y-4535867D01*
X-2014452Y-4501274D01*
X-2018600Y-4459159D01*
X-2018600Y-3851441D01*
X-2014452Y-3809326D01*
X-2003958Y-3774733D01*
X-1982813Y-3735173D01*
X-1978844Y-3729234D01*
X-1969465Y-3706597D01*
X-1964682Y-3682564D01*
X-1964680Y-3658060D01*
X-1969458Y-3634026D01*
X-1978833Y-3611386D01*
X-1982807Y-3605439D01*
X-1989250Y-3593385D01*
X-2002864Y-3573010D01*
X-2020192Y-3555684D01*
X-2040566Y-3542070D01*
X-2063205Y-3532694D01*
X-2087239Y-3527914D01*
X-2111743Y-3527914D01*
X-2135776Y-3532695D01*
X-2158414Y-3542073D01*
X-2178789Y-3555687D01*
X-2196115Y-3573015D01*
X-2209728Y-3593388D01*
X-2229480Y-3630342D01*
X-2252414Y-3658286D01*
X-2280360Y-3681222D01*
X-2312233Y-3698258D01*
X-2346826Y-3708752D01*
X-2388941Y-3712900D01*
X-3046659Y-3712900D01*
X-3088774Y-3708752D01*
X-3123367Y-3698258D01*
X-3155240Y-3681222D01*
X-3183186Y-3658286D01*
X-3206122Y-3630340D01*
X-3223158Y-3598467D01*
X-3233652Y-3563874D01*
X-3237800Y-3521759D01*
X-3237800Y-2914041D01*
X-3233652Y-2871926D01*
X-3223158Y-2837333D01*
X-3202013Y-2797773D01*
X-3198044Y-2791834D01*
X-3188665Y-2769197D01*
X-3183882Y-2745164D01*
X-3183880Y-2720660D01*
X-3188658Y-2696626D01*
X-3198033Y-2673986D01*
X-3202006Y-2668039D01*
X-3223158Y-2628467D01*
X-3233652Y-2593874D01*
X-3237800Y-2551759D01*
X-3237800Y-1944041D01*
X-3233652Y-1901926D01*
X-3223158Y-1867333D01*
X-3206122Y-1835460D01*
X-3183186Y-1807514D01*
X-3155240Y-1784578D01*
X-3123367Y-1767542D01*
X-3088774Y-1757048D01*
X-3046659Y-1752900D01*
X-2388941Y-1752900D01*
X-2346826Y-1757048D01*
X-2346826Y-1757048D01*
G37*
G36*
X9904200Y-3548500D02*
G01*
X7629199Y-3548500D01*
X7604813Y-3550902D01*
X7581364Y-3558015D01*
X7559753Y-3569566D01*
X7540811Y-3585111D01*
X7525266Y-3604053D01*
X7513715Y-3625664D01*
X7506602Y-3649113D01*
X7504200Y-3673499D01*
X7504200Y-4073501D01*
X7506602Y-4097887D01*
X7513715Y-4121336D01*
X7525266Y-4142947D01*
X7540811Y-4161889D01*
X7559753Y-4177434D01*
X7581364Y-4188985D01*
X7604813Y-4196098D01*
X7629199Y-4198500D01*
X9904200Y-4198500D01*
X9904200Y-5798500D01*
X7629199Y-5798500D01*
X7604813Y-5800902D01*
X7581364Y-5808015D01*
X7572973Y-5812500D01*
X6504200Y-5812500D01*
X6504200Y-1948500D01*
X9904200Y-1948500D01*
X9904200Y-3548500D01*
X9904200Y-3548500D01*
G37*
G36*
X21626374Y-4716548D02*
G01*
X21660967Y-4727042D01*
X21700527Y-4748187D01*
X21706466Y-4752156D01*
X21729103Y-4761535D01*
X21753136Y-4766318D01*
X21777640Y-4766320D01*
X21801674Y-4761542D01*
X21824314Y-4752167D01*
X21830261Y-4748194D01*
X21869833Y-4727042D01*
X21904426Y-4716548D01*
X21946541Y-4712400D01*
X22554259Y-4712400D01*
X22596374Y-4716548D01*
X22630967Y-4727042D01*
X22662840Y-4744078D01*
X22690786Y-4767014D01*
X22713722Y-4794960D01*
X22730758Y-4826833D01*
X22741252Y-4861426D01*
X22745400Y-4903541D01*
X22745400Y-5561259D01*
X22741252Y-5603374D01*
X22730758Y-5637967D01*
X22713722Y-5669840D01*
X22690786Y-5697786D01*
X22662840Y-5720722D01*
X22630967Y-5737758D01*
X22596374Y-5748252D01*
X22554259Y-5752400D01*
X21946541Y-5752400D01*
X21904426Y-5748252D01*
X21869833Y-5737758D01*
X21830273Y-5716613D01*
X21824334Y-5712644D01*
X21801697Y-5703265D01*
X21777664Y-5698482D01*
X21753160Y-5698480D01*
X21729126Y-5703258D01*
X21706486Y-5712633D01*
X21700539Y-5716606D01*
X21660967Y-5737758D01*
X21626374Y-5748252D01*
X21584259Y-5752400D01*
X20976541Y-5752400D01*
X20934426Y-5748252D01*
X20899833Y-5737758D01*
X20867960Y-5720722D01*
X20840014Y-5697786D01*
X20817078Y-5669840D01*
X20800042Y-5637967D01*
X20789548Y-5603374D01*
X20785400Y-5561259D01*
X20785400Y-4903541D01*
X20789548Y-4861426D01*
X20800042Y-4826833D01*
X20817078Y-4794960D01*
X20840014Y-4767014D01*
X20867960Y-4744078D01*
X20899833Y-4727042D01*
X20934426Y-4716548D01*
X20976541Y-4712400D01*
X21584259Y-4712400D01*
X21626374Y-4716548D01*
X21626374Y-4716548D01*
G37*
G36*
X14056974Y-4014148D02*
G01*
X14091567Y-4024642D01*
X14131127Y-4045787D01*
X14137066Y-4049756D01*
X14159703Y-4059135D01*
X14183736Y-4063918D01*
X14208240Y-4063920D01*
X14232274Y-4059142D01*
X14254914Y-4049767D01*
X14260861Y-4045794D01*
X14300433Y-4024642D01*
X14335026Y-4014148D01*
X14377141Y-4010000D01*
X14984859Y-4010000D01*
X15026974Y-4014148D01*
X15061567Y-4024642D01*
X15093440Y-4041678D01*
X15121386Y-4064614D01*
X15144322Y-4092560D01*
X15161358Y-4124433D01*
X15171852Y-4159026D01*
X15176000Y-4201141D01*
X15176000Y-4858859D01*
X15171852Y-4900974D01*
X15161358Y-4935567D01*
X15144322Y-4967440D01*
X15121386Y-4995386D01*
X15093440Y-5018322D01*
X15061567Y-5035358D01*
X15026974Y-5045852D01*
X14984859Y-5050000D01*
X14377141Y-5050000D01*
X14335026Y-5045852D01*
X14300433Y-5035358D01*
X14260873Y-5014213D01*
X14254934Y-5010244D01*
X14232297Y-5000865D01*
X14208264Y-4996082D01*
X14183760Y-4996080D01*
X14159726Y-5000858D01*
X14137086Y-5010233D01*
X14131139Y-5014206D01*
X14091567Y-5035358D01*
X14056974Y-5045852D01*
X14014859Y-5050000D01*
X13407141Y-5050000D01*
X13365026Y-5045852D01*
X13330433Y-5035358D01*
X13298560Y-5018322D01*
X13270614Y-4995386D01*
X13247678Y-4967440D01*
X13230642Y-4935567D01*
X13220148Y-4900974D01*
X13216000Y-4858859D01*
X13216000Y-4201141D01*
X13220148Y-4159026D01*
X13230642Y-4124433D01*
X13247678Y-4092560D01*
X13270614Y-4064614D01*
X13298560Y-4041678D01*
X13330433Y-4024642D01*
X13365026Y-4014148D01*
X13407141Y-4010000D01*
X14014859Y-4010000D01*
X14056974Y-4014148D01*
X14056974Y-4014148D01*
G37*
G36*
X24917448Y-2762791D02*
G01*
X25106274Y-2800350D01*
X25297362Y-2879502D01*
X25469336Y-2994411D01*
X25615589Y-3140664D01*
X25730498Y-3312638D01*
X25809650Y-3503726D01*
X25841740Y-3665056D01*
X25849091Y-3702011D01*
X25850000Y-3706584D01*
X25850000Y-3913416D01*
X25809650Y-4116274D01*
X25730498Y-4307362D01*
X25615589Y-4479336D01*
X25469336Y-4625589D01*
X25297362Y-4740498D01*
X25106274Y-4819650D01*
X24936160Y-4853487D01*
X24903417Y-4860000D01*
X24696583Y-4860000D01*
X24663840Y-4853487D01*
X24493726Y-4819650D01*
X24302638Y-4740498D01*
X24130664Y-4625589D01*
X23984411Y-4479336D01*
X23869502Y-4307362D01*
X23790350Y-4116274D01*
X23750000Y-3913416D01*
X23750000Y-3706584D01*
X23750910Y-3702011D01*
X23758260Y-3665056D01*
X23790350Y-3503726D01*
X23869502Y-3312638D01*
X23984411Y-3140664D01*
X24130664Y-2994411D01*
X24302638Y-2879502D01*
X24493726Y-2800350D01*
X24682552Y-2762791D01*
X24696583Y-2760000D01*
X24903417Y-2760000D01*
X24917448Y-2762791D01*
X24917448Y-2762791D01*
G37*
G36*
X-24701605Y-2764611D02*
G01*
X-24594164Y-2775193D01*
X-24412863Y-2830190D01*
X-24396235Y-2835234D01*
X-24213830Y-2932732D01*
X-24053945Y-3063945D01*
X-23922732Y-3223830D01*
X-23825234Y-3406235D01*
X-23825233Y-3406238D01*
X-23765193Y-3604164D01*
X-23744920Y-3810000D01*
X-23765193Y-4015836D01*
X-23823854Y-4209215D01*
X-23825234Y-4213765D01*
X-23922732Y-4396170D01*
X-24053945Y-4556055D01*
X-24213830Y-4687268D01*
X-24396235Y-4784766D01*
X-24396238Y-4784767D01*
X-24594164Y-4844807D01*
X-24654860Y-4850785D01*
X-24748420Y-4860000D01*
X-24851580Y-4860000D01*
X-24945140Y-4850785D01*
X-25005836Y-4844807D01*
X-25203762Y-4784767D01*
X-25203765Y-4784766D01*
X-25386170Y-4687268D01*
X-25546055Y-4556055D01*
X-25677268Y-4396170D01*
X-25774766Y-4213765D01*
X-25776146Y-4209215D01*
X-25834807Y-4015836D01*
X-25855080Y-3810000D01*
X-25834807Y-3604164D01*
X-25774767Y-3406238D01*
X-25774766Y-3406235D01*
X-25677268Y-3223830D01*
X-25546055Y-3063945D01*
X-25386170Y-2932732D01*
X-25203765Y-2835234D01*
X-25187137Y-2830190D01*
X-25005836Y-2775193D01*
X-24898395Y-2764611D01*
X-24851580Y-2760000D01*
X-24748420Y-2760000D01*
X-24701605Y-2764611D01*
X-24701605Y-2764611D01*
G37*
G36*
X14056974Y-2574148D02*
G01*
X14091567Y-2584642D01*
X14131127Y-2605787D01*
X14137066Y-2609756D01*
X14159703Y-2619135D01*
X14183736Y-2623918D01*
X14208240Y-2623920D01*
X14232274Y-2619142D01*
X14254914Y-2609767D01*
X14260861Y-2605794D01*
X14300433Y-2584642D01*
X14335026Y-2574148D01*
X14377141Y-2570000D01*
X14984859Y-2570000D01*
X15026974Y-2574148D01*
X15061567Y-2584642D01*
X15093440Y-2601678D01*
X15121386Y-2624614D01*
X15144322Y-2652560D01*
X15161358Y-2684433D01*
X15171852Y-2719026D01*
X15176000Y-2761141D01*
X15176000Y-3418859D01*
X15171852Y-3460974D01*
X15161358Y-3495567D01*
X15144322Y-3527440D01*
X15121386Y-3555386D01*
X15093440Y-3578322D01*
X15061567Y-3595358D01*
X15026974Y-3605852D01*
X14984859Y-3610000D01*
X14377141Y-3610000D01*
X14335026Y-3605852D01*
X14300433Y-3595358D01*
X14260873Y-3574213D01*
X14254934Y-3570244D01*
X14232297Y-3560865D01*
X14208264Y-3556082D01*
X14183760Y-3556080D01*
X14159726Y-3560858D01*
X14137086Y-3570233D01*
X14131139Y-3574206D01*
X14091567Y-3595358D01*
X14056974Y-3605852D01*
X14014859Y-3610000D01*
X13407141Y-3610000D01*
X13365026Y-3605852D01*
X13330433Y-3595358D01*
X13298560Y-3578322D01*
X13270614Y-3555386D01*
X13247678Y-3527440D01*
X13230642Y-3495567D01*
X13220148Y-3460974D01*
X13216000Y-3418859D01*
X13216000Y-2761141D01*
X13220148Y-2719026D01*
X13230642Y-2684433D01*
X13247678Y-2652560D01*
X13270614Y-2624614D01*
X13298560Y-2601678D01*
X13330433Y-2584642D01*
X13365026Y-2574148D01*
X13407141Y-2570000D01*
X14014859Y-2570000D01*
X14056974Y-2574148D01*
X14056974Y-2574148D01*
G37*
G36*
X1864666Y1695705D02*
G01*
X1879115Y1691322D01*
X1903149Y1686542D01*
X1927653Y1686542D01*
X1951685Y1691322D01*
X1966134Y1695705D01*
X1996541Y1698700D01*
X2484259Y1698700D01*
X2514666Y1695705D01*
X2529115Y1691322D01*
X2553149Y1686542D01*
X2577653Y1686542D01*
X2601685Y1691322D01*
X2616134Y1695705D01*
X2646541Y1698700D01*
X3134259Y1698700D01*
X3164666Y1695705D01*
X3179115Y1691322D01*
X3203149Y1686542D01*
X3227653Y1686542D01*
X3251685Y1691322D01*
X3266134Y1695705D01*
X3296541Y1698700D01*
X3784259Y1698700D01*
X3814668Y1695705D01*
X3838004Y1688626D01*
X3859511Y1677130D01*
X3878361Y1661661D01*
X3893830Y1642811D01*
X3905326Y1621304D01*
X3912405Y1597968D01*
X3915400Y1567559D01*
X3915400Y598699D01*
X3917802Y574313D01*
X3924915Y550864D01*
X3936466Y529253D01*
X3952011Y510311D01*
X3970953Y494766D01*
X3992564Y483215D01*
X4016013Y476102D01*
X4040399Y473700D01*
X5009259Y473700D01*
X5039668Y470705D01*
X5063004Y463626D01*
X5084511Y452130D01*
X5103361Y436661D01*
X5118830Y417811D01*
X5130326Y396304D01*
X5137405Y372968D01*
X5140400Y342559D01*
X5140400Y-145159D01*
X5137405Y-175566D01*
X5133022Y-190015D01*
X5128242Y-214049D01*
X5128242Y-238553D01*
X5133022Y-262585D01*
X5137405Y-277034D01*
X5140400Y-307441D01*
X5140400Y-795159D01*
X5137405Y-825566D01*
X5133022Y-840015D01*
X5128242Y-864049D01*
X5128242Y-888553D01*
X5133022Y-912585D01*
X5137405Y-927034D01*
X5140400Y-957441D01*
X5140400Y-1445159D01*
X5137405Y-1475566D01*
X5133022Y-1490015D01*
X5128242Y-1514049D01*
X5128242Y-1538553D01*
X5133022Y-1562585D01*
X5137405Y-1577034D01*
X5140400Y-1607441D01*
X5140400Y-2095159D01*
X5137405Y-2125568D01*
X5130326Y-2148904D01*
X5118830Y-2170411D01*
X5103361Y-2189261D01*
X5084511Y-2204730D01*
X5063004Y-2216226D01*
X5039668Y-2223305D01*
X5009259Y-2226300D01*
X4040399Y-2226300D01*
X4016013Y-2228702D01*
X3992564Y-2235815D01*
X3970953Y-2247366D01*
X3952011Y-2262911D01*
X3936466Y-2281853D01*
X3924915Y-2303464D01*
X3917802Y-2326913D01*
X3915400Y-2351299D01*
X3915400Y-3320159D01*
X3912405Y-3350568D01*
X3905326Y-3373904D01*
X3893830Y-3395411D01*
X3878361Y-3414261D01*
X3859511Y-3429730D01*
X3838004Y-3441226D01*
X3814668Y-3448305D01*
X3784259Y-3451300D01*
X3296541Y-3451300D01*
X3266134Y-3448305D01*
X3251685Y-3443922D01*
X3227651Y-3439142D01*
X3203147Y-3439142D01*
X3179115Y-3443922D01*
X3164666Y-3448305D01*
X3134259Y-3451300D01*
X2646541Y-3451300D01*
X2616134Y-3448305D01*
X2601685Y-3443922D01*
X2577651Y-3439142D01*
X2553147Y-3439142D01*
X2529115Y-3443922D01*
X2514666Y-3448305D01*
X2484259Y-3451300D01*
X1996541Y-3451300D01*
X1966134Y-3448305D01*
X1951685Y-3443922D01*
X1927651Y-3439142D01*
X1903147Y-3439142D01*
X1879115Y-3443922D01*
X1864666Y-3448305D01*
X1834259Y-3451300D01*
X1346541Y-3451300D01*
X1316132Y-3448305D01*
X1292796Y-3441226D01*
X1271289Y-3429730D01*
X1252439Y-3414261D01*
X1236970Y-3395411D01*
X1225474Y-3373904D01*
X1218395Y-3350568D01*
X1215400Y-3320159D01*
X1215400Y-2351299D01*
X1212998Y-2326913D01*
X1205885Y-2303464D01*
X1194334Y-2281853D01*
X1178789Y-2262911D01*
X1159847Y-2247366D01*
X1138236Y-2235815D01*
X1114787Y-2228702D01*
X1090401Y-2226300D01*
X121541Y-2226300D01*
X91132Y-2223305D01*
X67796Y-2216226D01*
X46289Y-2204730D01*
X27439Y-2189261D01*
X11970Y-2170411D01*
X474Y-2148904D01*
X-6605Y-2125568D01*
X-9600Y-2095159D01*
X-9600Y-1607441D01*
X-6605Y-1577034D01*
X-2222Y-1562585D01*
X2558Y-1538551D01*
X2558Y-1514047D01*
X-2222Y-1490015D01*
X-6605Y-1475566D01*
X-9600Y-1445159D01*
X-9600Y-957441D01*
X-6605Y-927034D01*
X-2222Y-912585D01*
X2558Y-888551D01*
X2558Y-864047D01*
X-2222Y-840015D01*
X-6605Y-825566D01*
X-9600Y-795159D01*
X-9600Y-307441D01*
X-6605Y-277034D01*
X-2222Y-262585D01*
X2558Y-238551D01*
X2558Y-214047D01*
X-2222Y-190015D01*
X-6605Y-175566D01*
X-9600Y-145159D01*
X-9600Y342559D01*
X-6605Y372968D01*
X474Y396304D01*
X11970Y417811D01*
X27439Y436661D01*
X46289Y452130D01*
X67796Y463626D01*
X91132Y470705D01*
X121541Y473700D01*
X1090401Y473700D01*
X1114787Y476102D01*
X1138236Y483215D01*
X1159847Y494766D01*
X1178789Y510311D01*
X1194334Y529253D01*
X1205885Y550864D01*
X1212998Y574313D01*
X1215400Y598699D01*
X1215400Y1567559D01*
X1218395Y1597968D01*
X1225474Y1621304D01*
X1236970Y1642811D01*
X1252439Y1661661D01*
X1271289Y1677130D01*
X1292796Y1688626D01*
X1316132Y1695705D01*
X1346541Y1698700D01*
X1834259Y1698700D01*
X1864666Y1695705D01*
X1864666Y1695705D01*
G37*
G36*
X-18761500Y-3375000D02*
G01*
X-20431500Y-3375000D01*
X-20431500Y-1705000D01*
X-18761500Y-1705000D01*
X-18761500Y-3375000D01*
X-18761500Y-3375000D01*
G37*
G36*
X-7331500Y-3375000D02*
G01*
X-9001500Y-3375000D01*
X-9001500Y-1705000D01*
X-7331500Y-1705000D01*
X-7331500Y-3375000D01*
X-7331500Y-3375000D01*
G37*
G36*
X20121000Y-3090000D02*
G01*
X16821000Y-3090000D01*
X16821000Y-290000D01*
X20121000Y-290000D01*
X20121000Y-3090000D01*
X20121000Y-3090000D01*
G37*
G36*
X16341974Y-729148D02*
G01*
X16376567Y-739642D01*
X16408440Y-756678D01*
X16436386Y-779614D01*
X16459322Y-807560D01*
X16476358Y-839433D01*
X16486852Y-874026D01*
X16491000Y-916141D01*
X16491000Y-1523859D01*
X16486852Y-1565974D01*
X16476358Y-1600567D01*
X16455213Y-1640127D01*
X16451244Y-1646066D01*
X16441865Y-1668703D01*
X16437082Y-1692736D01*
X16437080Y-1717240D01*
X16441858Y-1741274D01*
X16451233Y-1763914D01*
X16455206Y-1769861D01*
X16476358Y-1809433D01*
X16486852Y-1844026D01*
X16491000Y-1886141D01*
X16491000Y-2493859D01*
X16486852Y-2535974D01*
X16476358Y-2570567D01*
X16459322Y-2602440D01*
X16436386Y-2630386D01*
X16408440Y-2653322D01*
X16376567Y-2670358D01*
X16341974Y-2680852D01*
X16299859Y-2685000D01*
X15642141Y-2685000D01*
X15600026Y-2680852D01*
X15565433Y-2670358D01*
X15533560Y-2653322D01*
X15505614Y-2630386D01*
X15482678Y-2602440D01*
X15465642Y-2570567D01*
X15455148Y-2535974D01*
X15451000Y-2493859D01*
X15451000Y-1886141D01*
X15455148Y-1844026D01*
X15465642Y-1809433D01*
X15486787Y-1769873D01*
X15490756Y-1763934D01*
X15500135Y-1741297D01*
X15504918Y-1717264D01*
X15504920Y-1692760D01*
X15500142Y-1668726D01*
X15490767Y-1646086D01*
X15486794Y-1640139D01*
X15465642Y-1600567D01*
X15455148Y-1565974D01*
X15451000Y-1523859D01*
X15451000Y-916141D01*
X15455148Y-874026D01*
X15465642Y-839433D01*
X15482678Y-807560D01*
X15505614Y-779614D01*
X15533560Y-756678D01*
X15565433Y-739642D01*
X15600026Y-729148D01*
X15642141Y-725000D01*
X16299859Y-725000D01*
X16341974Y-729148D01*
X16341974Y-729148D01*
G37*
G36*
X21341974Y-714148D02*
G01*
X21376567Y-724642D01*
X21408440Y-741678D01*
X21436386Y-764614D01*
X21459322Y-792560D01*
X21476358Y-824433D01*
X21486852Y-859026D01*
X21491000Y-901141D01*
X21491000Y-1508859D01*
X21486852Y-1550974D01*
X21476358Y-1585567D01*
X21455213Y-1625127D01*
X21451244Y-1631066D01*
X21441865Y-1653703D01*
X21437082Y-1677736D01*
X21437080Y-1702240D01*
X21441858Y-1726274D01*
X21451233Y-1748914D01*
X21455206Y-1754861D01*
X21476358Y-1794433D01*
X21486852Y-1829026D01*
X21491000Y-1871141D01*
X21491000Y-2478859D01*
X21486852Y-2520974D01*
X21476358Y-2555567D01*
X21459322Y-2587440D01*
X21436386Y-2615386D01*
X21408440Y-2638322D01*
X21376567Y-2655358D01*
X21341974Y-2665852D01*
X21299859Y-2670000D01*
X20642141Y-2670000D01*
X20600026Y-2665852D01*
X20565433Y-2655358D01*
X20533560Y-2638322D01*
X20505614Y-2615386D01*
X20482678Y-2587440D01*
X20465642Y-2555567D01*
X20455148Y-2520974D01*
X20451000Y-2478859D01*
X20451000Y-1871141D01*
X20455148Y-1829026D01*
X20465642Y-1794433D01*
X20486787Y-1754873D01*
X20490756Y-1748934D01*
X20500135Y-1726297D01*
X20504918Y-1702264D01*
X20504920Y-1677760D01*
X20500142Y-1653726D01*
X20490767Y-1631086D01*
X20486794Y-1625139D01*
X20465642Y-1585567D01*
X20455148Y-1550974D01*
X20451000Y-1508859D01*
X20451000Y-901141D01*
X20455148Y-859026D01*
X20465642Y-824433D01*
X20482678Y-792560D01*
X20505614Y-764614D01*
X20533560Y-741678D01*
X20565433Y-724642D01*
X20600026Y-714148D01*
X20642141Y-710000D01*
X21299859Y-710000D01*
X21341974Y-714148D01*
X21341974Y-714148D01*
G37*
G36*
X-24671293Y-227597D02*
G01*
X-24594164Y-235193D01*
X-24413489Y-290000D01*
X-24396235Y-295234D01*
X-24213830Y-392732D01*
X-24053945Y-523945D01*
X-23922732Y-683830D01*
X-23825234Y-866235D01*
X-23825233Y-866238D01*
X-23765193Y-1064164D01*
X-23744920Y-1270000D01*
X-23765193Y-1475836D01*
X-23815030Y-1640127D01*
X-23825234Y-1673765D01*
X-23922732Y-1856170D01*
X-24053945Y-2016055D01*
X-24213830Y-2147268D01*
X-24396235Y-2244766D01*
X-24396238Y-2244767D01*
X-24594164Y-2304807D01*
X-24671293Y-2312404D01*
X-24748420Y-2320000D01*
X-24851580Y-2320000D01*
X-24928707Y-2312403D01*
X-25005836Y-2304807D01*
X-25203762Y-2244767D01*
X-25203765Y-2244766D01*
X-25386170Y-2147268D01*
X-25546055Y-2016055D01*
X-25677268Y-1856170D01*
X-25774766Y-1673765D01*
X-25784970Y-1640127D01*
X-25834807Y-1475836D01*
X-25855080Y-1270000D01*
X-25834807Y-1064164D01*
X-25774767Y-866238D01*
X-25774766Y-866235D01*
X-25677268Y-683830D01*
X-25546055Y-523945D01*
X-25386170Y-392732D01*
X-25203765Y-295234D01*
X-25186511Y-290000D01*
X-25005836Y-235193D01*
X-24928707Y-227597D01*
X-24851580Y-220000D01*
X-24748420Y-220000D01*
X-24671293Y-227597D01*
X-24671293Y-227597D01*
G37*
G36*
X24928707Y-227597D02*
G01*
X25005836Y-235193D01*
X25186511Y-290000D01*
X25203765Y-295234D01*
X25386170Y-392732D01*
X25546055Y-523945D01*
X25677268Y-683830D01*
X25774766Y-866235D01*
X25774767Y-866238D01*
X25834807Y-1064164D01*
X25855080Y-1270000D01*
X25834807Y-1475836D01*
X25784970Y-1640127D01*
X25774766Y-1673765D01*
X25677268Y-1856170D01*
X25546055Y-2016055D01*
X25386170Y-2147268D01*
X25203765Y-2244766D01*
X25203762Y-2244767D01*
X25005836Y-2304807D01*
X24928707Y-2312403D01*
X24851580Y-2320000D01*
X24748420Y-2320000D01*
X24671293Y-2312404D01*
X24594164Y-2304807D01*
X24396238Y-2244767D01*
X24396235Y-2244766D01*
X24213830Y-2147268D01*
X24053945Y-2016055D01*
X23922732Y-1856170D01*
X23825234Y-1673765D01*
X23815030Y-1640127D01*
X23765193Y-1475836D01*
X23744920Y-1270000D01*
X23765193Y-1064164D01*
X23825233Y-866238D01*
X23825234Y-866235D01*
X23922732Y-683830D01*
X24053945Y-523945D01*
X24213830Y-392732D01*
X24396235Y-295234D01*
X24413489Y-290000D01*
X24594164Y-235193D01*
X24671293Y-227597D01*
X24748420Y-220000D01*
X24851580Y-220000D01*
X24928707Y-227597D01*
X24928707Y-227597D01*
G37*
G36*
X6287174Y-360448D02*
G01*
X6321767Y-370942D01*
X6361327Y-392087D01*
X6367266Y-396056D01*
X6389903Y-405435D01*
X6413936Y-410218D01*
X6438440Y-410220D01*
X6462474Y-405442D01*
X6485114Y-396067D01*
X6491061Y-392094D01*
X6530633Y-370942D01*
X6565226Y-360448D01*
X6607341Y-356300D01*
X7215059Y-356300D01*
X7257174Y-360448D01*
X7291767Y-370942D01*
X7323640Y-387978D01*
X7351586Y-410914D01*
X7374522Y-438860D01*
X7391558Y-470733D01*
X7402052Y-505326D01*
X7406200Y-547441D01*
X7406200Y-1205159D01*
X7402052Y-1247274D01*
X7391558Y-1281867D01*
X7374522Y-1313740D01*
X7351586Y-1341686D01*
X7323640Y-1364622D01*
X7291767Y-1381658D01*
X7257174Y-1392152D01*
X7215059Y-1396300D01*
X6607341Y-1396300D01*
X6565226Y-1392152D01*
X6530633Y-1381658D01*
X6491073Y-1360513D01*
X6485134Y-1356544D01*
X6462497Y-1347165D01*
X6438464Y-1342382D01*
X6413960Y-1342380D01*
X6389926Y-1347158D01*
X6367286Y-1356533D01*
X6361339Y-1360506D01*
X6321767Y-1381658D01*
X6287174Y-1392152D01*
X6245059Y-1396300D01*
X5637341Y-1396300D01*
X5595226Y-1392152D01*
X5560633Y-1381658D01*
X5528760Y-1364622D01*
X5500814Y-1341686D01*
X5477878Y-1313740D01*
X5460842Y-1281867D01*
X5450348Y-1247274D01*
X5446200Y-1205159D01*
X5446200Y-547441D01*
X5450348Y-505326D01*
X5460842Y-470733D01*
X5477878Y-438860D01*
X5500814Y-410914D01*
X5528760Y-387978D01*
X5560633Y-370942D01*
X5595226Y-360448D01*
X5637341Y-356300D01*
X6245059Y-356300D01*
X6287174Y-360448D01*
X6287174Y-360448D01*
G37*
G36*
X8522374Y-360448D02*
G01*
X8556967Y-370942D01*
X8596527Y-392087D01*
X8602466Y-396056D01*
X8625103Y-405435D01*
X8649136Y-410218D01*
X8673640Y-410220D01*
X8697674Y-405442D01*
X8720314Y-396067D01*
X8726261Y-392094D01*
X8765833Y-370942D01*
X8800426Y-360448D01*
X8842541Y-356300D01*
X9450259Y-356300D01*
X9492374Y-360448D01*
X9526967Y-370942D01*
X9558840Y-387978D01*
X9586786Y-410914D01*
X9609722Y-438860D01*
X9626758Y-470733D01*
X9637252Y-505326D01*
X9641400Y-547441D01*
X9641400Y-1205159D01*
X9637252Y-1247274D01*
X9626758Y-1281867D01*
X9609722Y-1313740D01*
X9586786Y-1341686D01*
X9558840Y-1364622D01*
X9526967Y-1381658D01*
X9492374Y-1392152D01*
X9450259Y-1396300D01*
X8842541Y-1396300D01*
X8800426Y-1392152D01*
X8765833Y-1381658D01*
X8726273Y-1360513D01*
X8720334Y-1356544D01*
X8697697Y-1347165D01*
X8673664Y-1342382D01*
X8649160Y-1342380D01*
X8625126Y-1347158D01*
X8602486Y-1356533D01*
X8596539Y-1360506D01*
X8556967Y-1381658D01*
X8522374Y-1392152D01*
X8480259Y-1396300D01*
X7872541Y-1396300D01*
X7830426Y-1392152D01*
X7795833Y-1381658D01*
X7763960Y-1364622D01*
X7736014Y-1341686D01*
X7713078Y-1313740D01*
X7696042Y-1281867D01*
X7685548Y-1247274D01*
X7681400Y-1205159D01*
X7681400Y-547441D01*
X7685548Y-505326D01*
X7696042Y-470733D01*
X7713078Y-438860D01*
X7736014Y-410914D01*
X7763960Y-387978D01*
X7795833Y-370942D01*
X7830426Y-360448D01*
X7872541Y-356300D01*
X8480259Y-356300D01*
X8522374Y-360448D01*
X8522374Y-360448D01*
G37*
G36*
X-1248270Y187023D02*
G01*
X-1196790Y171407D01*
X-1149355Y146052D01*
X-1107773Y111927D01*
X-1073648Y70345D01*
X-1048293Y22910D01*
X-1032677Y-28570D01*
X-1026800Y-88240D01*
X-1026800Y-975960D01*
X-1032677Y-1035630D01*
X-1048293Y-1087110D01*
X-1073648Y-1134545D01*
X-1107773Y-1176127D01*
X-1149355Y-1210252D01*
X-1196790Y-1235607D01*
X-1248270Y-1251223D01*
X-1307940Y-1257100D01*
X-2095660Y-1257100D01*
X-2155330Y-1251223D01*
X-2206810Y-1235607D01*
X-2254245Y-1210252D01*
X-2295827Y-1176127D01*
X-2329952Y-1134545D01*
X-2355307Y-1087110D01*
X-2370923Y-1035630D01*
X-2376800Y-975960D01*
X-2376800Y-88240D01*
X-2370923Y-28570D01*
X-2355307Y22910D01*
X-2329952Y70345D01*
X-2295827Y111927D01*
X-2254245Y146052D01*
X-2206810Y171407D01*
X-2155330Y187023D01*
X-2095660Y192900D01*
X-1307940Y192900D01*
X-1248270Y187023D01*
X-1248270Y187023D01*
G37*
G36*
X-7331500Y-835000D02*
G01*
X-9001500Y-835000D01*
X-9001500Y835000D01*
X-7331500Y835000D01*
X-7331500Y-835000D01*
X-7331500Y-835000D01*
G37*
G36*
X-18761500Y-835000D02*
G01*
X-20431500Y-835000D01*
X-20431500Y835000D01*
X-18761500Y835000D01*
X-18761500Y-835000D01*
X-18761500Y-835000D01*
G37*
G36*
X22175182Y901700D02*
G01*
X22302573Y848933D01*
X22348086Y818522D01*
X22417224Y772326D01*
X22514726Y674824D01*
X22536060Y642895D01*
X22591333Y560173D01*
X22644100Y432782D01*
X22671000Y297545D01*
X22671000Y159655D01*
X22644100Y24418D01*
X22591333Y-102973D01*
X22559881Y-150044D01*
X22514726Y-217624D01*
X22417224Y-315126D01*
X22399122Y-327221D01*
X22302573Y-391733D01*
X22175182Y-444500D01*
X22039945Y-471400D01*
X21902055Y-471400D01*
X21766818Y-444500D01*
X21639427Y-391733D01*
X21542878Y-327221D01*
X21524776Y-315126D01*
X21427274Y-217624D01*
X21382119Y-150044D01*
X21350667Y-102973D01*
X21297900Y24418D01*
X21271000Y159655D01*
X21271000Y297545D01*
X21297900Y432782D01*
X21350667Y560173D01*
X21405940Y642895D01*
X21427274Y674824D01*
X21524776Y772326D01*
X21593914Y818522D01*
X21639427Y848933D01*
X21766818Y901700D01*
X21902055Y928600D01*
X22039945Y928600D01*
X22175182Y901700D01*
X22175182Y901700D01*
G37*
G36*
X14275474Y846052D02*
G01*
X14310067Y835558D01*
X14349627Y814413D01*
X14355566Y810444D01*
X14378203Y801065D01*
X14402236Y796282D01*
X14426740Y796280D01*
X14450774Y801058D01*
X14473414Y810433D01*
X14479361Y814406D01*
X14518933Y835558D01*
X14553526Y846052D01*
X14595641Y850200D01*
X15203359Y850200D01*
X15245474Y846052D01*
X15280067Y835558D01*
X15311940Y818522D01*
X15339886Y795586D01*
X15362822Y767640D01*
X15379858Y735767D01*
X15390352Y701174D01*
X15394500Y659059D01*
X15394500Y1341D01*
X15390352Y-40774D01*
X15379858Y-75367D01*
X15362822Y-107240D01*
X15339886Y-135186D01*
X15311940Y-158122D01*
X15280067Y-175158D01*
X15245474Y-185652D01*
X15203359Y-189800D01*
X14595641Y-189800D01*
X14553526Y-185652D01*
X14518933Y-175158D01*
X14479373Y-154013D01*
X14473434Y-150044D01*
X14450797Y-140665D01*
X14426764Y-135882D01*
X14402260Y-135880D01*
X14378226Y-140658D01*
X14355586Y-150033D01*
X14349639Y-154006D01*
X14310067Y-175158D01*
X14275474Y-185652D01*
X14233359Y-189800D01*
X13625641Y-189800D01*
X13583526Y-185652D01*
X13548933Y-175158D01*
X13517060Y-158122D01*
X13489114Y-135186D01*
X13466178Y-107240D01*
X13449142Y-75367D01*
X13438648Y-40774D01*
X13434500Y1341D01*
X13434500Y659059D01*
X13438648Y701174D01*
X13449142Y735767D01*
X13466178Y767640D01*
X13489114Y795586D01*
X13517060Y818522D01*
X13548933Y835558D01*
X13583526Y846052D01*
X13625641Y850200D01*
X14233359Y850200D01*
X14275474Y846052D01*
X14275474Y846052D01*
G37*
G36*
X10475529Y1948390D02*
G01*
X10525378Y1933269D01*
X10571310Y1908718D01*
X10611574Y1875674D01*
X10644618Y1835410D01*
X10669169Y1789478D01*
X10684290Y1739629D01*
X10690000Y1681656D01*
X10690000Y1533255D01*
X10692402Y1508869D01*
X10699515Y1485420D01*
X10711066Y1463809D01*
X10726611Y1444867D01*
X10745553Y1429322D01*
X10767164Y1417771D01*
X10790613Y1410658D01*
X10814999Y1408256D01*
X10839385Y1410658D01*
X10862834Y1417771D01*
X10884445Y1429322D01*
X10911625Y1453956D01*
X10923715Y1468687D01*
X10951660Y1491622D01*
X10983533Y1508658D01*
X11018126Y1519152D01*
X11060241Y1523300D01*
X11667959Y1523300D01*
X11710074Y1519152D01*
X11744667Y1508658D01*
X11784227Y1487513D01*
X11790166Y1483544D01*
X11812803Y1474165D01*
X11836836Y1469382D01*
X11861340Y1469380D01*
X11885374Y1474158D01*
X11908014Y1483533D01*
X11913961Y1487506D01*
X11953533Y1508658D01*
X11988126Y1519152D01*
X12030241Y1523300D01*
X12637959Y1523300D01*
X12680074Y1519152D01*
X12714667Y1508658D01*
X12746540Y1491622D01*
X12774486Y1468686D01*
X12797422Y1440740D01*
X12814458Y1408867D01*
X12824952Y1374274D01*
X12829100Y1332159D01*
X12829100Y674441D01*
X12824952Y632326D01*
X12814458Y597733D01*
X12797422Y565860D01*
X12774486Y537914D01*
X12746540Y514978D01*
X12714667Y497942D01*
X12680074Y487448D01*
X12637959Y483300D01*
X12030241Y483300D01*
X11988126Y487448D01*
X11953533Y497942D01*
X11913973Y519087D01*
X11908034Y523056D01*
X11885397Y532435D01*
X11861364Y537218D01*
X11836860Y537220D01*
X11812826Y532442D01*
X11790186Y523067D01*
X11784239Y519094D01*
X11744667Y497942D01*
X11710074Y487448D01*
X11667959Y483300D01*
X11060241Y483300D01*
X11018126Y487448D01*
X10983533Y497942D01*
X10951660Y514978D01*
X10923715Y537913D01*
X10911625Y552644D01*
X10894298Y569971D01*
X10873923Y583584D01*
X10851284Y592962D01*
X10827251Y597742D01*
X10802747Y597742D01*
X10778714Y592962D01*
X10756075Y583584D01*
X10735700Y569971D01*
X10718373Y552644D01*
X10704760Y532269D01*
X10695382Y509630D01*
X10690000Y473345D01*
X10690000Y426544D01*
X10684290Y368571D01*
X10669169Y318722D01*
X10644618Y272790D01*
X10611574Y232526D01*
X10571310Y199482D01*
X10525378Y174931D01*
X10475529Y159810D01*
X10417556Y154100D01*
X9412444Y154100D01*
X9354471Y159810D01*
X9304622Y174931D01*
X9258690Y199482D01*
X9218426Y232526D01*
X9185382Y272790D01*
X9160831Y318722D01*
X9145710Y368571D01*
X9140000Y426544D01*
X9140000Y1681656D01*
X9145710Y1739629D01*
X9160831Y1789478D01*
X9185382Y1835410D01*
X9218426Y1875674D01*
X9258690Y1908718D01*
X9304622Y1933269D01*
X9354471Y1948390D01*
X9412444Y1954100D01*
X10417556Y1954100D01*
X10475529Y1948390D01*
X10475529Y1948390D01*
G37*
G36*
X8425529Y1948390D02*
G01*
X8475378Y1933269D01*
X8521310Y1908718D01*
X8561574Y1875674D01*
X8594618Y1835410D01*
X8619169Y1789478D01*
X8634290Y1739629D01*
X8640000Y1681656D01*
X8640000Y426544D01*
X8634290Y368571D01*
X8619169Y318722D01*
X8594618Y272790D01*
X8561574Y232526D01*
X8521310Y199482D01*
X8475378Y174931D01*
X8425529Y159810D01*
X8367556Y154100D01*
X7362444Y154100D01*
X7304471Y159810D01*
X7254622Y174931D01*
X7208690Y199482D01*
X7168426Y232526D01*
X7135382Y272790D01*
X7110831Y318722D01*
X7095710Y368571D01*
X7090000Y426544D01*
X7090000Y1681656D01*
X7095710Y1739629D01*
X7110831Y1789478D01*
X7135382Y1835410D01*
X7168426Y1875674D01*
X7208690Y1908718D01*
X7254622Y1933269D01*
X7304471Y1948390D01*
X7362444Y1954100D01*
X8367556Y1954100D01*
X8425529Y1948390D01*
X8425529Y1948390D01*
G37*
G36*
X-24671293Y2312404D02*
G01*
X-24594164Y2304807D01*
X-24414333Y2250256D01*
X-24396235Y2244766D01*
X-24213830Y2147268D01*
X-24053945Y2016055D01*
X-23922732Y1856170D01*
X-23825234Y1673765D01*
X-23825233Y1673762D01*
X-23765193Y1475836D01*
X-23744920Y1270000D01*
X-23765193Y1064164D01*
X-23806316Y928600D01*
X-23825234Y866235D01*
X-23922732Y683830D01*
X-24053945Y523945D01*
X-24213830Y392732D01*
X-24396235Y295234D01*
X-24396238Y295233D01*
X-24594164Y235193D01*
X-24656302Y229073D01*
X-24748420Y220000D01*
X-24851580Y220000D01*
X-24943698Y229073D01*
X-25005836Y235193D01*
X-25203762Y295233D01*
X-25203765Y295234D01*
X-25386170Y392732D01*
X-25546055Y523945D01*
X-25677268Y683830D01*
X-25774766Y866235D01*
X-25793684Y928600D01*
X-25834807Y1064164D01*
X-25855080Y1270000D01*
X-25834807Y1475836D01*
X-25774767Y1673762D01*
X-25774766Y1673765D01*
X-25677268Y1856170D01*
X-25546055Y2016055D01*
X-25386170Y2147268D01*
X-25203765Y2244766D01*
X-25185667Y2250256D01*
X-25005836Y2304807D01*
X-24928707Y2312403D01*
X-24851580Y2320000D01*
X-24748420Y2320000D01*
X-24671293Y2312404D01*
X-24671293Y2312404D01*
G37*
G36*
X24928707Y2312403D02*
G01*
X25005836Y2304807D01*
X25185667Y2250256D01*
X25203765Y2244766D01*
X25386170Y2147268D01*
X25546055Y2016055D01*
X25677268Y1856170D01*
X25774766Y1673765D01*
X25774767Y1673762D01*
X25834807Y1475836D01*
X25855080Y1270000D01*
X25834807Y1064164D01*
X25793684Y928600D01*
X25774766Y866235D01*
X25677268Y683830D01*
X25546055Y523945D01*
X25386170Y392732D01*
X25203765Y295234D01*
X25203762Y295233D01*
X25005836Y235193D01*
X24943698Y229073D01*
X24851580Y220000D01*
X24748420Y220000D01*
X24656302Y229073D01*
X24594164Y235193D01*
X24396238Y295233D01*
X24396235Y295234D01*
X24213830Y392732D01*
X24053945Y523945D01*
X23922732Y683830D01*
X23825234Y866235D01*
X23806316Y928600D01*
X23765193Y1064164D01*
X23744920Y1270000D01*
X23765193Y1475836D01*
X23825233Y1673762D01*
X23825234Y1673765D01*
X23922732Y1856170D01*
X24053945Y2016055D01*
X24213830Y2147268D01*
X24396235Y2244766D01*
X24414333Y2250256D01*
X24594164Y2304807D01*
X24671293Y2312404D01*
X24748420Y2320000D01*
X24851580Y2320000D01*
X24928707Y2312403D01*
X24928707Y2312403D01*
G37*
G36*
X-1248270Y1937023D02*
G01*
X-1196790Y1921407D01*
X-1149355Y1896052D01*
X-1107773Y1861927D01*
X-1073648Y1820345D01*
X-1048293Y1772910D01*
X-1032677Y1721430D01*
X-1026800Y1661760D01*
X-1026800Y774040D01*
X-1032677Y714370D01*
X-1048293Y662890D01*
X-1073648Y615455D01*
X-1107773Y573873D01*
X-1149355Y539748D01*
X-1196790Y514393D01*
X-1248270Y498777D01*
X-1307940Y492900D01*
X-2095660Y492900D01*
X-2155330Y498777D01*
X-2206810Y514393D01*
X-2254245Y539748D01*
X-2295827Y573873D01*
X-2329952Y615455D01*
X-2355307Y662890D01*
X-2370923Y714370D01*
X-2376800Y774040D01*
X-2376800Y1661760D01*
X-2370923Y1721430D01*
X-2355307Y1772910D01*
X-2329952Y1820345D01*
X-2295827Y1861927D01*
X-2254245Y1896052D01*
X-2206810Y1921407D01*
X-2155330Y1937023D01*
X-2095660Y1942900D01*
X-1307940Y1942900D01*
X-1248270Y1937023D01*
X-1248270Y1937023D01*
G37*
G36*
X11710074Y2941552D02*
G01*
X11744667Y2931058D01*
X11784227Y2909913D01*
X11790166Y2905944D01*
X11812803Y2896565D01*
X11836836Y2891782D01*
X11861340Y2891780D01*
X11885374Y2896558D01*
X11908014Y2905933D01*
X11913961Y2909906D01*
X11953533Y2931058D01*
X11988126Y2941552D01*
X12030241Y2945700D01*
X12637959Y2945700D01*
X12680074Y2941552D01*
X12714667Y2931058D01*
X12746540Y2914022D01*
X12774486Y2891086D01*
X12797422Y2863140D01*
X12814458Y2831267D01*
X12824952Y2796674D01*
X12829100Y2754559D01*
X12829100Y2096841D01*
X12824952Y2054726D01*
X12814458Y2020133D01*
X12797422Y1988260D01*
X12774486Y1960314D01*
X12746540Y1937378D01*
X12714667Y1920342D01*
X12680074Y1909848D01*
X12637959Y1905700D01*
X12030241Y1905700D01*
X11988126Y1909848D01*
X11953533Y1920342D01*
X11913973Y1941487D01*
X11908034Y1945456D01*
X11885397Y1954835D01*
X11861364Y1959618D01*
X11836860Y1959620D01*
X11812826Y1954842D01*
X11790186Y1945467D01*
X11784239Y1941494D01*
X11744667Y1920342D01*
X11710074Y1909848D01*
X11667959Y1905700D01*
X11060241Y1905700D01*
X11018126Y1909848D01*
X10983533Y1920342D01*
X10951660Y1937378D01*
X10923714Y1960314D01*
X10900778Y1988260D01*
X10883742Y2020133D01*
X10873248Y2054726D01*
X10869100Y2096841D01*
X10869100Y2754559D01*
X10873248Y2796674D01*
X10883742Y2831267D01*
X10900778Y2863140D01*
X10923714Y2891086D01*
X10951660Y2914022D01*
X10983533Y2931058D01*
X11018126Y2941552D01*
X11060241Y2945700D01*
X11667959Y2945700D01*
X11710074Y2941552D01*
X11710074Y2941552D01*
G37*
G36*
X22132000Y1998000D02*
G01*
X20032000Y1998000D01*
X20032000Y4098000D01*
X22132000Y4098000D01*
X22132000Y1998000D01*
X22132000Y1998000D01*
G37*
G36*
X16130707Y4090403D02*
G01*
X16207836Y4082807D01*
X16405762Y4022767D01*
X16405765Y4022766D01*
X16588170Y3925268D01*
X16748055Y3794055D01*
X16879268Y3634170D01*
X16976766Y3451765D01*
X16976767Y3451762D01*
X17036807Y3253836D01*
X17057080Y3048000D01*
X17036807Y2842164D01*
X17022586Y2795285D01*
X16976766Y2644235D01*
X16879268Y2461830D01*
X16748055Y2301945D01*
X16588170Y2170732D01*
X16405765Y2073234D01*
X16405762Y2073233D01*
X16207836Y2013193D01*
X16130707Y2005596D01*
X16053580Y1998000D01*
X15950420Y1998000D01*
X15873293Y2005596D01*
X15796164Y2013193D01*
X15598238Y2073233D01*
X15598235Y2073234D01*
X15415830Y2170732D01*
X15255945Y2301945D01*
X15124732Y2461830D01*
X15027234Y2644235D01*
X14981414Y2795285D01*
X14967193Y2842164D01*
X14946920Y3048000D01*
X14967193Y3253836D01*
X15027233Y3451762D01*
X15027234Y3451765D01*
X15124732Y3634170D01*
X15255945Y3794055D01*
X15415830Y3925268D01*
X15598235Y4022766D01*
X15598238Y4022767D01*
X15796164Y4082807D01*
X15873293Y4090403D01*
X15950420Y4098000D01*
X16053580Y4098000D01*
X16130707Y4090403D01*
X16130707Y4090403D01*
G37*
G36*
X18670707Y4090403D02*
G01*
X18747836Y4082807D01*
X18945762Y4022767D01*
X18945765Y4022766D01*
X19128170Y3925268D01*
X19288055Y3794055D01*
X19419268Y3634170D01*
X19516766Y3451765D01*
X19516767Y3451762D01*
X19576807Y3253836D01*
X19597080Y3048000D01*
X19576807Y2842164D01*
X19562586Y2795285D01*
X19516766Y2644235D01*
X19419268Y2461830D01*
X19288055Y2301945D01*
X19128170Y2170732D01*
X18945765Y2073234D01*
X18945762Y2073233D01*
X18747836Y2013193D01*
X18670707Y2005596D01*
X18593580Y1998000D01*
X18490420Y1998000D01*
X18413293Y2005596D01*
X18336164Y2013193D01*
X18138238Y2073233D01*
X18138235Y2073234D01*
X17955830Y2170732D01*
X17795945Y2301945D01*
X17664732Y2461830D01*
X17567234Y2644235D01*
X17521414Y2795285D01*
X17507193Y2842164D01*
X17486920Y3048000D01*
X17507193Y3253836D01*
X17567233Y3451762D01*
X17567234Y3451765D01*
X17664732Y3634170D01*
X17795945Y3794055D01*
X17955830Y3925268D01*
X18138235Y4022766D01*
X18138238Y4022767D01*
X18336164Y4082807D01*
X18413293Y4090403D01*
X18490420Y4098000D01*
X18593580Y4098000D01*
X18670707Y4090403D01*
X18670707Y4090403D01*
G37*
G36*
X3698374Y3960352D02*
G01*
X3732967Y3949858D01*
X3764840Y3932822D01*
X3792787Y3909886D01*
X3821325Y3875113D01*
X3838653Y3857786D01*
X3859027Y3844173D01*
X3881666Y3834796D01*
X3905700Y3830016D01*
X3930204Y3830016D01*
X3954237Y3834797D01*
X3976876Y3844174D01*
X3997250Y3857788D01*
X4014575Y3875113D01*
X4043113Y3909886D01*
X4071060Y3932822D01*
X4102933Y3949858D01*
X4137526Y3960352D01*
X4179641Y3964500D01*
X4837359Y3964500D01*
X4879474Y3960352D01*
X4914067Y3949858D01*
X4945940Y3932822D01*
X4973886Y3909886D01*
X4996822Y3881940D01*
X5013858Y3850067D01*
X5024352Y3815474D01*
X5028500Y3773359D01*
X5028500Y3165641D01*
X5024352Y3123526D01*
X5013858Y3088933D01*
X4992713Y3049373D01*
X4988744Y3043434D01*
X4979365Y3020797D01*
X4974582Y2996764D01*
X4974580Y2972260D01*
X4979358Y2948226D01*
X4988733Y2925586D01*
X4992706Y2919639D01*
X5013858Y2880067D01*
X5024352Y2845474D01*
X5028500Y2803359D01*
X5028500Y2195641D01*
X5024352Y2153526D01*
X5013858Y2118933D01*
X4996822Y2087060D01*
X4973886Y2059114D01*
X4945940Y2036178D01*
X4914067Y2019142D01*
X4879474Y2008648D01*
X4837359Y2004500D01*
X4179641Y2004500D01*
X4137526Y2008648D01*
X4102933Y2019142D01*
X4071060Y2036178D01*
X4043113Y2059114D01*
X4014575Y2093887D01*
X3997247Y2111214D01*
X3976873Y2124827D01*
X3954234Y2134204D01*
X3930200Y2138984D01*
X3905696Y2138984D01*
X3881663Y2134203D01*
X3859024Y2124826D01*
X3838650Y2111212D01*
X3821325Y2093887D01*
X3792787Y2059114D01*
X3764840Y2036178D01*
X3732967Y2019142D01*
X3698374Y2008648D01*
X3656259Y2004500D01*
X2998541Y2004500D01*
X2956426Y2008648D01*
X2921833Y2019142D01*
X2889960Y2036178D01*
X2862014Y2059114D01*
X2839078Y2087060D01*
X2822042Y2118933D01*
X2811548Y2153526D01*
X2807400Y2195641D01*
X2807400Y2803359D01*
X2811548Y2845474D01*
X2822042Y2880067D01*
X2843187Y2919627D01*
X2847156Y2925566D01*
X2856535Y2948203D01*
X2861318Y2972236D01*
X2861318Y2972760D01*
X3793432Y2972760D01*
X3798113Y2948707D01*
X3807397Y2926030D01*
X3821579Y2904805D01*
X3821651Y2904718D01*
X3839050Y2887462D01*
X3859480Y2873932D01*
X3882157Y2864648D01*
X3906210Y2859967D01*
X3930714Y2860067D01*
X3954727Y2864947D01*
X3977327Y2874417D01*
X3997645Y2888114D01*
X4014249Y2904718D01*
X4014321Y2904805D01*
X4028018Y2925123D01*
X4037488Y2947723D01*
X4042368Y2971736D01*
X4042468Y2996240D01*
X4037787Y3020293D01*
X4028503Y3042970D01*
X4014321Y3064195D01*
X4014249Y3064282D01*
X3996850Y3081538D01*
X3976420Y3095068D01*
X3953743Y3104352D01*
X3929690Y3109033D01*
X3905186Y3108933D01*
X3881173Y3104053D01*
X3858573Y3094583D01*
X3838255Y3080886D01*
X3821651Y3064282D01*
X3821579Y3064195D01*
X3807882Y3043877D01*
X3798412Y3021277D01*
X3793532Y2997264D01*
X3793432Y2972760D01*
X2861318Y2972760D01*
X2861320Y2996740D01*
X2856542Y3020774D01*
X2847167Y3043414D01*
X2843194Y3049361D01*
X2822042Y3088933D01*
X2811548Y3123526D01*
X2807400Y3165641D01*
X2807400Y3773359D01*
X2811548Y3815474D01*
X2822042Y3850067D01*
X2839078Y3881940D01*
X2862014Y3909886D01*
X2889960Y3932822D01*
X2921833Y3949858D01*
X2956426Y3960352D01*
X2998541Y3964500D01*
X3656259Y3964500D01*
X3698374Y3960352D01*
X3698374Y3960352D01*
G37*
G36*
X6868974Y3246352D02*
G01*
X6903567Y3235858D01*
X6943127Y3214713D01*
X6949066Y3210744D01*
X6971703Y3201365D01*
X6995736Y3196582D01*
X7020240Y3196580D01*
X7044274Y3201358D01*
X7066914Y3210733D01*
X7072861Y3214706D01*
X7112433Y3235858D01*
X7147026Y3246352D01*
X7189141Y3250500D01*
X7796859Y3250500D01*
X7838974Y3246352D01*
X7873567Y3235858D01*
X7905440Y3218822D01*
X7933386Y3195886D01*
X7956322Y3167940D01*
X7973358Y3136067D01*
X7983852Y3101474D01*
X7988000Y3059359D01*
X7988000Y2401641D01*
X7983852Y2359526D01*
X7973358Y2324933D01*
X7956322Y2293060D01*
X7933386Y2265114D01*
X7905440Y2242178D01*
X7873567Y2225142D01*
X7838974Y2214648D01*
X7796859Y2210500D01*
X7189141Y2210500D01*
X7147026Y2214648D01*
X7112433Y2225142D01*
X7072873Y2246287D01*
X7066934Y2250256D01*
X7044297Y2259635D01*
X7020264Y2264418D01*
X6995760Y2264420D01*
X6971726Y2259642D01*
X6949086Y2250267D01*
X6943139Y2246294D01*
X6903567Y2225142D01*
X6868974Y2214648D01*
X6826859Y2210500D01*
X6219141Y2210500D01*
X6177026Y2214648D01*
X6142433Y2225142D01*
X6110560Y2242178D01*
X6082614Y2265114D01*
X6059678Y2293060D01*
X6042642Y2324933D01*
X6032148Y2359526D01*
X6028000Y2401641D01*
X6028000Y3059359D01*
X6032148Y3101474D01*
X6042642Y3136067D01*
X6059678Y3167940D01*
X6082614Y3195886D01*
X6110560Y3218822D01*
X6142433Y3235858D01*
X6177026Y3246352D01*
X6219141Y3250500D01*
X6826859Y3250500D01*
X6868974Y3246352D01*
X6868974Y3246352D01*
G37*
G36*
X1005974Y4366752D02*
G01*
X1040567Y4356258D01*
X1072440Y4339222D01*
X1100386Y4316286D01*
X1130219Y4279936D01*
X1131852Y4277494D01*
X1149184Y4260172D01*
X1169563Y4246565D01*
X1192205Y4237195D01*
X1216239Y4232422D01*
X1240744Y4232430D01*
X1264775Y4237218D01*
X1287411Y4246602D01*
X1307781Y4260223D01*
X1325077Y4277524D01*
X1338012Y4293285D01*
X1365960Y4316222D01*
X1397833Y4333258D01*
X1432426Y4343752D01*
X1474541Y4347900D01*
X2132259Y4347900D01*
X2174374Y4343752D01*
X2208967Y4333258D01*
X2240840Y4316222D01*
X2268786Y4293286D01*
X2291722Y4265340D01*
X2308758Y4233467D01*
X2319252Y4198874D01*
X2323400Y4156759D01*
X2323400Y3549041D01*
X2319252Y3506926D01*
X2308758Y3472333D01*
X2287613Y3432773D01*
X2283644Y3426834D01*
X2274265Y3404197D01*
X2269482Y3380164D01*
X2269480Y3355660D01*
X2274258Y3331626D01*
X2283633Y3308986D01*
X2287606Y3303039D01*
X2308758Y3263467D01*
X2319252Y3228874D01*
X2323400Y3186759D01*
X2323400Y2579041D01*
X2319252Y2536926D01*
X2308758Y2502333D01*
X2291722Y2470460D01*
X2268786Y2442514D01*
X2240840Y2419578D01*
X2208967Y2402542D01*
X2174374Y2392048D01*
X2132259Y2387900D01*
X1474541Y2387900D01*
X1432426Y2392048D01*
X1397833Y2402542D01*
X1365960Y2419578D01*
X1338014Y2442514D01*
X1308181Y2478864D01*
X1306548Y2481306D01*
X1289216Y2498628D01*
X1268837Y2512235D01*
X1246195Y2521605D01*
X1222161Y2526378D01*
X1197656Y2526370D01*
X1173625Y2521582D01*
X1150989Y2512198D01*
X1130619Y2498577D01*
X1113323Y2481276D01*
X1100388Y2465515D01*
X1072440Y2442578D01*
X1040567Y2425542D01*
X1005974Y2415048D01*
X963859Y2410900D01*
X306141Y2410900D01*
X264026Y2415048D01*
X229433Y2425542D01*
X197560Y2442578D01*
X169614Y2465514D01*
X146678Y2493460D01*
X129642Y2525333D01*
X119148Y2559926D01*
X115000Y2602041D01*
X115000Y3209759D01*
X119148Y3251874D01*
X129642Y3286467D01*
X150787Y3326027D01*
X154756Y3331966D01*
X164135Y3354603D01*
X168918Y3378636D01*
X168920Y3403140D01*
X164142Y3427174D01*
X154767Y3449814D01*
X150794Y3455761D01*
X129642Y3495333D01*
X119148Y3529926D01*
X115000Y3572041D01*
X115000Y4179759D01*
X119148Y4221874D01*
X129642Y4256467D01*
X146678Y4288340D01*
X169614Y4316286D01*
X197560Y4339222D01*
X229433Y4356258D01*
X264026Y4366752D01*
X306141Y4370900D01*
X963859Y4370900D01*
X1005974Y4366752D01*
X1005974Y4366752D01*
G37*
G36*
X24928687Y4854973D02*
G01*
X25106274Y4819650D01*
X25297362Y4740498D01*
X25469336Y4625589D01*
X25615589Y4479336D01*
X25730498Y4307362D01*
X25809650Y4116274D01*
X25850000Y3913416D01*
X25850000Y3706584D01*
X25809650Y3503726D01*
X25730498Y3312638D01*
X25615589Y3140664D01*
X25469336Y2994411D01*
X25297362Y2879502D01*
X25106274Y2800350D01*
X24928687Y2765027D01*
X24903417Y2760000D01*
X24696583Y2760000D01*
X24671313Y2765027D01*
X24493726Y2800350D01*
X24302638Y2879502D01*
X24130664Y2994411D01*
X23984411Y3140664D01*
X23869502Y3312638D01*
X23790350Y3503726D01*
X23750000Y3706584D01*
X23750000Y3913416D01*
X23790350Y4116274D01*
X23869502Y4307362D01*
X23984411Y4479336D01*
X24130664Y4625589D01*
X24302638Y4740498D01*
X24493726Y4819650D01*
X24671313Y4854973D01*
X24696583Y4860000D01*
X24903417Y4860000D01*
X24928687Y4854973D01*
X24928687Y4854973D01*
G37*
G36*
X-24671313Y4854973D02*
G01*
X-24493726Y4819650D01*
X-24302638Y4740498D01*
X-24130664Y4625589D01*
X-23984411Y4479336D01*
X-23869502Y4307362D01*
X-23790350Y4116274D01*
X-23750000Y3913416D01*
X-23750000Y3706584D01*
X-23790350Y3503726D01*
X-23869502Y3312638D01*
X-23984411Y3140664D01*
X-24130664Y2994411D01*
X-24302638Y2879502D01*
X-24493726Y2800350D01*
X-24671313Y2765027D01*
X-24696583Y2760000D01*
X-24903417Y2760000D01*
X-24928687Y2765027D01*
X-25106274Y2800350D01*
X-25297362Y2879502D01*
X-25469336Y2994411D01*
X-25615589Y3140664D01*
X-25730498Y3312638D01*
X-25809650Y3503726D01*
X-25850000Y3706584D01*
X-25850000Y3913416D01*
X-25809650Y4116274D01*
X-25730498Y4307362D01*
X-25615589Y4479336D01*
X-25469336Y4625589D01*
X-25297362Y4740498D01*
X-25106274Y4819650D01*
X-24928687Y4854973D01*
X-24903417Y4860000D01*
X-24696583Y4860000D01*
X-24671313Y4854973D01*
X-24671313Y4854973D01*
G37*
G36*
X-5611500Y3495000D02*
G01*
X-22151500Y3495000D01*
X-22151500Y5395000D01*
X-5611500Y5395000D01*
X-5611500Y3495000D01*
X-5611500Y3495000D01*
G37*
G36*
X-7419970Y7146123D02*
G01*
X-7368490Y7130507D01*
X-7321055Y7105152D01*
X-7279473Y7071027D01*
X-7245348Y7029445D01*
X-7219993Y6982010D01*
X-7204377Y6930530D01*
X-7198500Y6870860D01*
X-7198500Y6083140D01*
X-7204377Y6023470D01*
X-7219993Y5971990D01*
X-7245348Y5924555D01*
X-7279473Y5882973D01*
X-7321055Y5848848D01*
X-7368490Y5823493D01*
X-7419970Y5807877D01*
X-7479640Y5802000D01*
X-8367360Y5802000D01*
X-8427030Y5807877D01*
X-8478510Y5823493D01*
X-8525945Y5848848D01*
X-8567527Y5882973D01*
X-8601652Y5924555D01*
X-8627007Y5971990D01*
X-8642623Y6023470D01*
X-8648500Y6083140D01*
X-8648500Y6870860D01*
X-8642623Y6930530D01*
X-8627007Y6982010D01*
X-8601652Y7029445D01*
X-8567527Y7071027D01*
X-8525945Y7105152D01*
X-8478510Y7130507D01*
X-8427030Y7146123D01*
X-8367360Y7152000D01*
X-7479640Y7152000D01*
X-7419970Y7146123D01*
X-7419970Y7146123D01*
G37*
G36*
X-5669970Y7146123D02*
G01*
X-5618490Y7130507D01*
X-5571055Y7105152D01*
X-5529473Y7071027D01*
X-5495348Y7029445D01*
X-5469993Y6982010D01*
X-5454377Y6930530D01*
X-5448500Y6870860D01*
X-5448500Y6083140D01*
X-5454377Y6023470D01*
X-5469993Y5971990D01*
X-5495348Y5924555D01*
X-5529473Y5882973D01*
X-5571055Y5848848D01*
X-5618490Y5823493D01*
X-5669970Y5807877D01*
X-5729640Y5802000D01*
X-6617360Y5802000D01*
X-6677030Y5807877D01*
X-6728510Y5823493D01*
X-6775945Y5848848D01*
X-6817527Y5882973D01*
X-6851652Y5924555D01*
X-6877007Y5971990D01*
X-6892623Y6023470D01*
X-6898500Y6083140D01*
X-6898500Y6870860D01*
X-6892623Y6930530D01*
X-6877007Y6982010D01*
X-6851652Y7029445D01*
X-6817527Y7071027D01*
X-6775945Y7105152D01*
X-6728510Y7130507D01*
X-6677030Y7146123D01*
X-6617360Y7152000D01*
X-5729640Y7152000D01*
X-5669970Y7146123D01*
X-5669970Y7146123D01*
G37*
G36*
X24562782Y7302500D02*
G01*
X24690173Y7249733D01*
X24747110Y7211689D01*
X24804824Y7173126D01*
X24902326Y7075624D01*
X24940889Y7017910D01*
X24978933Y6960973D01*
X25031700Y6833582D01*
X25058600Y6698345D01*
X25058600Y6560455D01*
X25031700Y6425218D01*
X24978933Y6297827D01*
X24978932Y6297826D01*
X24902326Y6183176D01*
X24804824Y6085674D01*
X24786839Y6073657D01*
X24690173Y6009067D01*
X24562782Y5956300D01*
X24427545Y5929400D01*
X24289655Y5929400D01*
X24154418Y5956300D01*
X24027027Y6009067D01*
X23930361Y6073657D01*
X23912376Y6085674D01*
X23814874Y6183176D01*
X23738268Y6297826D01*
X23738267Y6297827D01*
X23685500Y6425218D01*
X23658600Y6560455D01*
X23658600Y6698345D01*
X23685500Y6833582D01*
X23738267Y6960973D01*
X23776311Y7017910D01*
X23814874Y7075624D01*
X23912376Y7173126D01*
X23970090Y7211689D01*
X24027027Y7249733D01*
X24154418Y7302500D01*
X24289655Y7329400D01*
X24427545Y7329400D01*
X24562782Y7302500D01*
X24562782Y7302500D01*
G37*
G36*
X22099600Y6938000D02*
G01*
X19999600Y6938000D01*
X19999600Y9038000D01*
X22099600Y9038000D01*
X22099600Y6938000D01*
X22099600Y6938000D01*
G37*
G36*
X18638307Y9030403D02*
G01*
X18715436Y9022807D01*
X18913362Y8962767D01*
X18913365Y8962766D01*
X19095770Y8865268D01*
X19255655Y8734055D01*
X19386868Y8574170D01*
X19484366Y8391765D01*
X19484367Y8391762D01*
X19544407Y8193836D01*
X19564680Y7988000D01*
X19544407Y7782164D01*
X19489148Y7600000D01*
X19484366Y7584235D01*
X19386868Y7401830D01*
X19255655Y7241945D01*
X19095770Y7110732D01*
X18913365Y7013234D01*
X18913362Y7013233D01*
X18715436Y6953193D01*
X18638307Y6945596D01*
X18561180Y6938000D01*
X18458020Y6938000D01*
X18380893Y6945596D01*
X18303764Y6953193D01*
X18105838Y7013233D01*
X18105835Y7013234D01*
X17923430Y7110732D01*
X17763545Y7241945D01*
X17632332Y7401830D01*
X17534834Y7584235D01*
X17530052Y7600000D01*
X17474793Y7782164D01*
X17454520Y7988000D01*
X17474793Y8193836D01*
X17534833Y8391762D01*
X17534834Y8391765D01*
X17632332Y8574170D01*
X17763545Y8734055D01*
X17923430Y8865268D01*
X18105835Y8962766D01*
X18105838Y8962767D01*
X18303764Y9022807D01*
X18380893Y9030403D01*
X18458020Y9038000D01*
X18561180Y9038000D01*
X18638307Y9030403D01*
X18638307Y9030403D01*
G37*
G36*
X16098307Y9030403D02*
G01*
X16175436Y9022807D01*
X16373362Y8962767D01*
X16373365Y8962766D01*
X16555770Y8865268D01*
X16715655Y8734055D01*
X16846868Y8574170D01*
X16944366Y8391765D01*
X16944367Y8391762D01*
X17004407Y8193836D01*
X17024680Y7988000D01*
X17004407Y7782164D01*
X16949148Y7600000D01*
X16944366Y7584235D01*
X16846868Y7401830D01*
X16715655Y7241945D01*
X16555770Y7110732D01*
X16373365Y7013234D01*
X16373362Y7013233D01*
X16175436Y6953193D01*
X16098307Y6945596D01*
X16021180Y6938000D01*
X15918020Y6938000D01*
X15840893Y6945596D01*
X15763764Y6953193D01*
X15565838Y7013233D01*
X15565835Y7013234D01*
X15383430Y7110732D01*
X15223545Y7241945D01*
X15092332Y7401830D01*
X14994834Y7584235D01*
X14990052Y7600000D01*
X14934793Y7782164D01*
X14914520Y7988000D01*
X14934793Y8193836D01*
X14994833Y8391762D01*
X14994834Y8391765D01*
X15092332Y8574170D01*
X15223545Y8734055D01*
X15383430Y8865268D01*
X15565835Y8962766D01*
X15565838Y8962767D01*
X15763764Y9022807D01*
X15840893Y9030403D01*
X15918020Y9038000D01*
X16021180Y9038000D01*
X16098307Y9030403D01*
X16098307Y9030403D01*
G37*
G36*
X517530Y8606623D02*
G01*
X569010Y8591007D01*
X616445Y8565652D01*
X658027Y8531527D01*
X692152Y8489945D01*
X717507Y8442510D01*
X733123Y8391030D01*
X739000Y8331360D01*
X739000Y7543640D01*
X733123Y7483970D01*
X717507Y7432490D01*
X692152Y7385055D01*
X658027Y7343473D01*
X616445Y7309348D01*
X569010Y7283993D01*
X517530Y7268377D01*
X457860Y7262500D01*
X-429860Y7262500D01*
X-489530Y7268377D01*
X-541010Y7283993D01*
X-588445Y7309348D01*
X-630027Y7343473D01*
X-664152Y7385055D01*
X-689507Y7432490D01*
X-705123Y7483970D01*
X-711000Y7543640D01*
X-711000Y8331360D01*
X-705123Y8391030D01*
X-689507Y8442510D01*
X-664152Y8489945D01*
X-630027Y8531527D01*
X-588445Y8565652D01*
X-541010Y8591007D01*
X-489530Y8606623D01*
X-429860Y8612500D01*
X457860Y8612500D01*
X517530Y8606623D01*
X517530Y8606623D01*
G37*
G36*
X2267530Y8606623D02*
G01*
X2319010Y8591007D01*
X2366445Y8565652D01*
X2408027Y8531527D01*
X2442152Y8489945D01*
X2467507Y8442510D01*
X2483123Y8391030D01*
X2489000Y8331360D01*
X2489000Y7543640D01*
X2483123Y7483970D01*
X2467507Y7432490D01*
X2442152Y7385055D01*
X2408027Y7343473D01*
X2366445Y7309348D01*
X2319010Y7283993D01*
X2267530Y7268377D01*
X2207860Y7262500D01*
X1320140Y7262500D01*
X1260470Y7268377D01*
X1208990Y7283993D01*
X1161555Y7309348D01*
X1119973Y7343473D01*
X1085848Y7385055D01*
X1060493Y7432490D01*
X1044877Y7483970D01*
X1039000Y7543640D01*
X1039000Y8331360D01*
X1044877Y8391030D01*
X1060493Y8442510D01*
X1085848Y8489945D01*
X1119973Y8531527D01*
X1161555Y8565652D01*
X1208990Y8591007D01*
X1260470Y8606623D01*
X1320140Y8612500D01*
X2207860Y8612500D01*
X2267530Y8606623D01*
X2267530Y8606623D01*
G37*
G36*
X4835530Y8606623D02*
G01*
X4887010Y8591007D01*
X4934445Y8565652D01*
X4976027Y8531527D01*
X5010152Y8489945D01*
X5035507Y8442510D01*
X5051123Y8391030D01*
X5057000Y8331360D01*
X5057000Y7543640D01*
X5051123Y7483970D01*
X5035507Y7432490D01*
X5010152Y7385055D01*
X4976027Y7343473D01*
X4934445Y7309348D01*
X4887010Y7283993D01*
X4835530Y7268377D01*
X4775860Y7262500D01*
X3888140Y7262500D01*
X3828470Y7268377D01*
X3776990Y7283993D01*
X3729555Y7309348D01*
X3687973Y7343473D01*
X3653848Y7385055D01*
X3628493Y7432490D01*
X3612877Y7483970D01*
X3607000Y7543640D01*
X3607000Y8331360D01*
X3612877Y8391030D01*
X3628493Y8442510D01*
X3653848Y8489945D01*
X3687973Y8531527D01*
X3729555Y8565652D01*
X3776990Y8591007D01*
X3828470Y8606623D01*
X3888140Y8612500D01*
X4775860Y8612500D01*
X4835530Y8606623D01*
X4835530Y8606623D01*
G37*
G36*
X6585530Y8606623D02*
G01*
X6637010Y8591007D01*
X6684445Y8565652D01*
X6726027Y8531527D01*
X6760152Y8489945D01*
X6785507Y8442510D01*
X6801123Y8391030D01*
X6807000Y8331360D01*
X6807000Y7543640D01*
X6801123Y7483970D01*
X6785507Y7432490D01*
X6760152Y7385055D01*
X6726027Y7343473D01*
X6684445Y7309348D01*
X6637010Y7283993D01*
X6585530Y7268377D01*
X6525860Y7262500D01*
X5638140Y7262500D01*
X5578470Y7268377D01*
X5526990Y7283993D01*
X5479555Y7309348D01*
X5437973Y7343473D01*
X5403848Y7385055D01*
X5378493Y7432490D01*
X5362877Y7483970D01*
X5357000Y7543640D01*
X5357000Y8331360D01*
X5362877Y8391030D01*
X5378493Y8442510D01*
X5403848Y8489945D01*
X5437973Y8531527D01*
X5479555Y8565652D01*
X5526990Y8591007D01*
X5578470Y8606623D01*
X5638140Y8612500D01*
X6525860Y8612500D01*
X6585530Y8606623D01*
X6585530Y8606623D01*
G37*
G36*
X11913582Y9182100D02*
G01*
X12040973Y9129333D01*
X12040974Y9129332D01*
X12155624Y9052726D01*
X12253126Y8955224D01*
X12253127Y8955222D01*
X12329733Y8840573D01*
X12382500Y8713182D01*
X12409400Y8577945D01*
X12409400Y8440055D01*
X12382500Y8304818D01*
X12329733Y8177427D01*
X12329732Y8177426D01*
X12253126Y8062776D01*
X12155624Y7965274D01*
X12097910Y7926711D01*
X12040973Y7888667D01*
X11913582Y7835900D01*
X11778345Y7809000D01*
X11640455Y7809000D01*
X11505218Y7835900D01*
X11377827Y7888667D01*
X11320890Y7926711D01*
X11263176Y7965274D01*
X11165674Y8062776D01*
X11089068Y8177426D01*
X11089067Y8177427D01*
X11036300Y8304818D01*
X11009400Y8440055D01*
X11009400Y8577945D01*
X11036300Y8713182D01*
X11089067Y8840573D01*
X11165673Y8955222D01*
X11165674Y8955224D01*
X11263176Y9052726D01*
X11377826Y9129332D01*
X11377827Y9129333D01*
X11505218Y9182100D01*
X11640455Y9209000D01*
X11778345Y9209000D01*
X11913582Y9182100D01*
X11913582Y9182100D01*
G37*
G36*
X-2621970Y9686123D02*
G01*
X-2570490Y9670507D01*
X-2523055Y9645152D01*
X-2481473Y9611027D01*
X-2447348Y9569445D01*
X-2421993Y9522010D01*
X-2406377Y9470530D01*
X-2400500Y9410860D01*
X-2400500Y8623140D01*
X-2406377Y8563470D01*
X-2421993Y8511990D01*
X-2447348Y8464555D01*
X-2481473Y8422973D01*
X-2523055Y8388848D01*
X-2570490Y8363493D01*
X-2621970Y8347877D01*
X-2681640Y8342000D01*
X-3569360Y8342000D01*
X-3629030Y8347877D01*
X-3680510Y8363493D01*
X-3727945Y8388848D01*
X-3769527Y8422973D01*
X-3803652Y8464555D01*
X-3829007Y8511990D01*
X-3844623Y8563470D01*
X-3850500Y8623140D01*
X-3850500Y9410860D01*
X-3844623Y9470530D01*
X-3829007Y9522010D01*
X-3803652Y9569445D01*
X-3769527Y9611027D01*
X-3727945Y9645152D01*
X-3680510Y9670507D01*
X-3629030Y9686123D01*
X-3569360Y9692000D01*
X-2681640Y9692000D01*
X-2621970Y9686123D01*
X-2621970Y9686123D01*
G37*
G36*
X-4371970Y9686123D02*
G01*
X-4320490Y9670507D01*
X-4273055Y9645152D01*
X-4231473Y9611027D01*
X-4197348Y9569445D01*
X-4171993Y9522010D01*
X-4156377Y9470530D01*
X-4150500Y9410860D01*
X-4150500Y8623140D01*
X-4156377Y8563470D01*
X-4171993Y8511990D01*
X-4197348Y8464555D01*
X-4231473Y8422973D01*
X-4273055Y8388848D01*
X-4320490Y8363493D01*
X-4371970Y8347877D01*
X-4431640Y8342000D01*
X-5319360Y8342000D01*
X-5379030Y8347877D01*
X-5430510Y8363493D01*
X-5477945Y8388848D01*
X-5519527Y8422973D01*
X-5553652Y8464555D01*
X-5579007Y8511990D01*
X-5594623Y8563470D01*
X-5600500Y8623140D01*
X-5600500Y9410860D01*
X-5594623Y9470530D01*
X-5579007Y9522010D01*
X-5553652Y9569445D01*
X-5519527Y9611027D01*
X-5477945Y9645152D01*
X-5430510Y9670507D01*
X-5379030Y9686123D01*
X-5319360Y9692000D01*
X-4431640Y9692000D01*
X-4371970Y9686123D01*
X-4371970Y9686123D01*
G37*
G36*
X7353974Y10802852D02*
G01*
X7388567Y10792358D01*
X7428127Y10771213D01*
X7434066Y10767244D01*
X7456703Y10757865D01*
X7480736Y10753082D01*
X7505240Y10753080D01*
X7529274Y10757858D01*
X7551914Y10767233D01*
X7557861Y10771206D01*
X7597433Y10792358D01*
X7632026Y10802852D01*
X7674141Y10807000D01*
X8281859Y10807000D01*
X8323974Y10802852D01*
X8358567Y10792358D01*
X8390440Y10775322D01*
X8418386Y10752386D01*
X8441322Y10724440D01*
X8458358Y10692567D01*
X8468852Y10657974D01*
X8473000Y10615859D01*
X8473000Y9958141D01*
X8468852Y9916026D01*
X8458358Y9881433D01*
X8441322Y9849560D01*
X8418386Y9821614D01*
X8390440Y9798678D01*
X8358567Y9781642D01*
X8323974Y9771148D01*
X8281859Y9767000D01*
X7674141Y9767000D01*
X7632026Y9771148D01*
X7597433Y9781642D01*
X7557873Y9802787D01*
X7551934Y9806756D01*
X7529297Y9816135D01*
X7505264Y9820918D01*
X7480760Y9820920D01*
X7456726Y9816142D01*
X7434086Y9806767D01*
X7428139Y9802794D01*
X7388567Y9781642D01*
X7353974Y9771148D01*
X7311859Y9767000D01*
X6704141Y9767000D01*
X6662026Y9771148D01*
X6627433Y9781642D01*
X6595560Y9798678D01*
X6567614Y9821614D01*
X6544678Y9849560D01*
X6527642Y9881433D01*
X6517148Y9916026D01*
X6513000Y9958141D01*
X6513000Y10615859D01*
X6517148Y10657974D01*
X6527642Y10692567D01*
X6544678Y10724440D01*
X6567614Y10752386D01*
X6595560Y10775322D01*
X6627433Y10792358D01*
X6662026Y10802852D01*
X6704141Y10807000D01*
X7311859Y10807000D01*
X7353974Y10802852D01*
X7353974Y10802852D01*
G37*
G36*
X5057169Y13409827D02*
G01*
X5225872Y13376270D01*
X5535252Y13248121D01*
X5813687Y13062077D01*
X6050477Y12825287D01*
X6236521Y12546852D01*
X6364670Y12237472D01*
X6382687Y12146895D01*
X6430000Y11909037D01*
X6430000Y11574163D01*
X6415415Y11500841D01*
X6364670Y11245728D01*
X6236521Y10936348D01*
X6050477Y10657913D01*
X5813687Y10421123D01*
X5535252Y10235079D01*
X5225872Y10106930D01*
X5061653Y10074265D01*
X4897437Y10041600D01*
X4562563Y10041600D01*
X4398347Y10074265D01*
X4234128Y10106930D01*
X3924748Y10235079D01*
X3646313Y10421123D01*
X3409523Y10657913D01*
X3223479Y10936348D01*
X3095330Y11245728D01*
X3044585Y11500841D01*
X3030000Y11574163D01*
X3030000Y11909037D01*
X3077313Y12146895D01*
X3095330Y12237472D01*
X3223479Y12546852D01*
X3409523Y12825287D01*
X3646313Y13062077D01*
X3924748Y13248121D01*
X4234128Y13376270D01*
X4402831Y13409827D01*
X4562563Y13441600D01*
X4897437Y13441600D01*
X5057169Y13409827D01*
X5057169Y13409827D01*
G37*
G36*
X-4342831Y13409827D02*
G01*
X-4174128Y13376270D01*
X-3864748Y13248121D01*
X-3586313Y13062077D01*
X-3349523Y12825287D01*
X-3163479Y12546852D01*
X-3035330Y12237472D01*
X-3017313Y12146895D01*
X-2970000Y11909037D01*
X-2970000Y11574163D01*
X-2984585Y11500841D01*
X-3035330Y11245728D01*
X-3163479Y10936348D01*
X-3349523Y10657913D01*
X-3586313Y10421123D01*
X-3864748Y10235079D01*
X-4174128Y10106930D01*
X-4338347Y10074265D01*
X-4502563Y10041600D01*
X-4837437Y10041600D01*
X-5001653Y10074265D01*
X-5165872Y10106930D01*
X-5475252Y10235079D01*
X-5753687Y10421123D01*
X-5990477Y10657913D01*
X-6176521Y10936348D01*
X-6304670Y11245728D01*
X-6355415Y11500841D01*
X-6370000Y11574163D01*
X-6370000Y11909037D01*
X-6322687Y12146895D01*
X-6304670Y12237472D01*
X-6176521Y12546852D01*
X-5990477Y12825287D01*
X-5753687Y13062077D01*
X-5475252Y13248121D01*
X-5165872Y13376270D01*
X-4997169Y13409827D01*
X-4837437Y13441600D01*
X-4502563Y13441600D01*
X-4342831Y13409827D01*
X-4342831Y13409827D01*
G37*
G36*
X357169Y13409827D02*
G01*
X525872Y13376270D01*
X835252Y13248121D01*
X1113687Y13062077D01*
X1350477Y12825287D01*
X1536521Y12546852D01*
X1664670Y12237472D01*
X1682687Y12146895D01*
X1730000Y11909037D01*
X1730000Y11574163D01*
X1715415Y11500841D01*
X1664670Y11245728D01*
X1536521Y10936348D01*
X1350477Y10657913D01*
X1113687Y10421123D01*
X835252Y10235079D01*
X525872Y10106930D01*
X361653Y10074265D01*
X197437Y10041600D01*
X-137437Y10041600D01*
X-301653Y10074265D01*
X-465872Y10106930D01*
X-775252Y10235079D01*
X-1053687Y10421123D01*
X-1290477Y10657913D01*
X-1476521Y10936348D01*
X-1604670Y11245728D01*
X-1655415Y11500841D01*
X-1670000Y11574163D01*
X-1670000Y11909037D01*
X-1622687Y12146895D01*
X-1604670Y12237472D01*
X-1476521Y12546852D01*
X-1290477Y12825287D01*
X-1053687Y13062077D01*
X-775252Y13248121D01*
X-465872Y13376270D01*
X-297169Y13409827D01*
X-137437Y13441600D01*
X197437Y13441600D01*
X357169Y13409827D01*
X357169Y13409827D01*
G37*
G36*
X-11522842Y16721262D02*
G01*
X-10913182Y16468732D01*
X-10913180Y16468731D01*
X-10364500Y16102115D01*
X-9897885Y15635500D01*
X-9834445Y15540556D01*
X-9531268Y15086818D01*
X-9278738Y14477158D01*
X-9150000Y13829948D01*
X-9150000Y13170052D01*
X-9278738Y12522842D01*
X-9466239Y12070176D01*
X-9531269Y11913180D01*
X-9897885Y11364500D01*
X-10364500Y10897885D01*
X-10913180Y10531269D01*
X-10913181Y10531268D01*
X-10913182Y10531268D01*
X-11522842Y10278738D01*
X-12170052Y10150000D01*
X-12829948Y10150000D01*
X-13477158Y10278738D01*
X-14086818Y10531268D01*
X-14086819Y10531268D01*
X-14086820Y10531269D01*
X-14635500Y10897885D01*
X-15102115Y11364500D01*
X-15468731Y11913180D01*
X-15533761Y12070176D01*
X-15721262Y12522842D01*
X-15850000Y13170052D01*
X-15850000Y13829948D01*
X-15721262Y14477158D01*
X-15468732Y15086818D01*
X-15165554Y15540556D01*
X-15102115Y15635500D01*
X-14635500Y16102115D01*
X-14086820Y16468731D01*
X-14086818Y16468732D01*
X-13477158Y16721262D01*
X-12829948Y16850000D01*
X-12170052Y16850000D01*
X-11522842Y16721262D01*
X-11522842Y16721262D01*
G37*
G36*
X13143798Y16736591D02*
G01*
X13462574Y16673183D01*
X14063136Y16424422D01*
X14603627Y16063277D01*
X15063277Y15603627D01*
X15424422Y15063136D01*
X15673183Y14462574D01*
X15693242Y14361732D01*
X15800000Y13825023D01*
X15800000Y13174977D01*
X15773430Y13041400D01*
X15673183Y12537426D01*
X15607191Y12378108D01*
X15449830Y11998203D01*
X15424422Y11936864D01*
X15063277Y11396373D01*
X14603627Y10936723D01*
X14063136Y10575578D01*
X14063135Y10575577D01*
X14063134Y10575577D01*
X13956165Y10531269D01*
X13462574Y10326817D01*
X13143798Y10263409D01*
X12825023Y10200000D01*
X12174977Y10200000D01*
X11856202Y10263409D01*
X11537426Y10326817D01*
X11043835Y10531269D01*
X10936866Y10575577D01*
X10936865Y10575577D01*
X10936864Y10575578D01*
X10396373Y10936723D01*
X9936723Y11396373D01*
X9575578Y11936864D01*
X9550171Y11998203D01*
X9392809Y12378108D01*
X9326817Y12537426D01*
X9226570Y13041400D01*
X9200000Y13174977D01*
X9200000Y13825023D01*
X9306758Y14361732D01*
X9326817Y14462574D01*
X9575578Y15063136D01*
X9936723Y15603627D01*
X10396373Y16063277D01*
X10936864Y16424422D01*
X11537426Y16673183D01*
X11856202Y16736591D01*
X12174977Y16800000D01*
X12825023Y16800000D01*
X13143798Y16736591D01*
X13143798Y16736591D01*
G37*
G36*
X18182262Y10350841D02*
G01*
X16082262Y10350841D01*
X16082262Y12450841D01*
X18182262Y12450841D01*
X18182262Y10350841D01*
X18182262Y10350841D01*
G37*
G36*
X19800969Y12443245D02*
G01*
X19878098Y12435648D01*
X20076024Y12375608D01*
X20076027Y12375607D01*
X20258432Y12278109D01*
X20418317Y12146896D01*
X20549530Y11987011D01*
X20647028Y11804606D01*
X20647029Y11804603D01*
X20707069Y11606677D01*
X20727342Y11400841D01*
X20707069Y11195005D01*
X20648971Y11003481D01*
X20647028Y10997076D01*
X20549530Y10814671D01*
X20418317Y10654786D01*
X20258432Y10523573D01*
X20076027Y10426075D01*
X20076024Y10426074D01*
X19878098Y10366034D01*
X19800969Y10358437D01*
X19723842Y10350841D01*
X19620682Y10350841D01*
X19543555Y10358437D01*
X19466426Y10366034D01*
X19268500Y10426074D01*
X19268497Y10426075D01*
X19086092Y10523573D01*
X18926207Y10654786D01*
X18794994Y10814671D01*
X18697496Y10997076D01*
X18695553Y11003481D01*
X18637455Y11195005D01*
X18617182Y11400841D01*
X18637455Y11606677D01*
X18697495Y11804603D01*
X18697496Y11804606D01*
X18794994Y11987011D01*
X18926207Y12146896D01*
X19086092Y12278109D01*
X19268497Y12375607D01*
X19268500Y12375608D01*
X19466426Y12435648D01*
X19543555Y12443244D01*
X19620682Y12450841D01*
X19723842Y12450841D01*
X19800969Y12443245D01*
X19800969Y12443245D01*
G37*
G36*
X22340949Y12445814D02*
G01*
X22518536Y12410491D01*
X22709624Y12331339D01*
X22881598Y12216430D01*
X23027851Y12070177D01*
X23142760Y11898203D01*
X23221912Y11707115D01*
X23262262Y11504257D01*
X23262262Y11297425D01*
X23221912Y11094567D01*
X23142760Y10903479D01*
X23027851Y10731505D01*
X22881598Y10585252D01*
X22709624Y10470343D01*
X22518536Y10391191D01*
X22340949Y10355868D01*
X22315679Y10350841D01*
X22108845Y10350841D01*
X22083575Y10355868D01*
X21905988Y10391191D01*
X21714900Y10470343D01*
X21542926Y10585252D01*
X21396673Y10731505D01*
X21281764Y10903479D01*
X21202612Y11094567D01*
X21162262Y11297425D01*
X21162262Y11504257D01*
X21202612Y11707115D01*
X21281764Y11898203D01*
X21396673Y12070177D01*
X21542926Y12216430D01*
X21714900Y12331339D01*
X21905988Y12410491D01*
X22083575Y12445814D01*
X22108845Y12450841D01*
X22315679Y12450841D01*
X22340949Y12445814D01*
X22340949Y12445814D01*
G37*
G36*
X-19635638Y12546850D02*
G01*
X-19521902Y12535648D01*
X-19323976Y12475608D01*
X-19323973Y12475607D01*
X-19141568Y12378109D01*
X-18981683Y12246896D01*
X-18850470Y12087011D01*
X-18752972Y11904606D01*
X-18752971Y11904603D01*
X-18692931Y11706677D01*
X-18672658Y11500841D01*
X-18692931Y11295005D01*
X-18752971Y11097079D01*
X-18752972Y11097076D01*
X-18850470Y10914671D01*
X-18981683Y10754786D01*
X-19141568Y10623573D01*
X-19323973Y10526075D01*
X-19323976Y10526074D01*
X-19521902Y10466034D01*
X-19599031Y10458437D01*
X-19676158Y10450841D01*
X-19779318Y10450841D01*
X-19856445Y10458437D01*
X-19933574Y10466034D01*
X-20131500Y10526074D01*
X-20131503Y10526075D01*
X-20313908Y10623573D01*
X-20473793Y10754786D01*
X-20605006Y10914671D01*
X-20702504Y11097076D01*
X-20702505Y11097079D01*
X-20762545Y11295005D01*
X-20782818Y11500841D01*
X-20762545Y11706677D01*
X-20702505Y11904603D01*
X-20702504Y11904606D01*
X-20605006Y12087011D01*
X-20473793Y12246896D01*
X-20313908Y12378109D01*
X-20131503Y12475607D01*
X-20131500Y12475608D01*
X-19933574Y12535648D01*
X-19819838Y12546850D01*
X-19779318Y12550841D01*
X-19676158Y12550841D01*
X-19635638Y12546850D01*
X-19635638Y12546850D01*
G37*
G36*
X-17064267Y12546852D02*
G01*
X-16881464Y12510491D01*
X-16690376Y12431339D01*
X-16518402Y12316430D01*
X-16372149Y12170177D01*
X-16257240Y11998203D01*
X-16178088Y11807115D01*
X-16137738Y11604257D01*
X-16137738Y11397425D01*
X-16178088Y11194567D01*
X-16257240Y11003479D01*
X-16372149Y10831505D01*
X-16518402Y10685252D01*
X-16690376Y10570343D01*
X-16881464Y10491191D01*
X-17059051Y10455868D01*
X-17084321Y10450841D01*
X-17291155Y10450841D01*
X-17316425Y10455868D01*
X-17494012Y10491191D01*
X-17685100Y10570343D01*
X-17857074Y10685252D01*
X-18003327Y10831505D01*
X-18118236Y11003479D01*
X-18197388Y11194567D01*
X-18237738Y11397425D01*
X-18237738Y11604257D01*
X-18197388Y11807115D01*
X-18118236Y11998203D01*
X-18003327Y12170177D01*
X-17857074Y12316430D01*
X-17685100Y12431339D01*
X-17494012Y12510491D01*
X-17311209Y12546852D01*
X-17291155Y12550841D01*
X-17084321Y12550841D01*
X-17064267Y12546852D01*
X-17064267Y12546852D01*
G37*
G36*
X-22175638Y12546850D02*
G01*
X-22061902Y12535648D01*
X-21863976Y12475608D01*
X-21863973Y12475607D01*
X-21681568Y12378109D01*
X-21521683Y12246896D01*
X-21390470Y12087011D01*
X-21292972Y11904606D01*
X-21292971Y11904603D01*
X-21232931Y11706677D01*
X-21212658Y11500841D01*
X-21232931Y11295005D01*
X-21292971Y11097079D01*
X-21292972Y11097076D01*
X-21390470Y10914671D01*
X-21521683Y10754786D01*
X-21681568Y10623573D01*
X-21863973Y10526075D01*
X-21863976Y10526074D01*
X-22061902Y10466034D01*
X-22139031Y10458437D01*
X-22216158Y10450841D01*
X-22319318Y10450841D01*
X-22396445Y10458437D01*
X-22473574Y10466034D01*
X-22671500Y10526074D01*
X-22671503Y10526075D01*
X-22853908Y10623573D01*
X-23013793Y10754786D01*
X-23145006Y10914671D01*
X-23242504Y11097076D01*
X-23242505Y11097079D01*
X-23302545Y11295005D01*
X-23322818Y11500841D01*
X-23302545Y11706677D01*
X-23242505Y11904603D01*
X-23242504Y11904606D01*
X-23145006Y12087011D01*
X-23013793Y12246896D01*
X-22853908Y12378109D01*
X-22671503Y12475607D01*
X-22671500Y12475608D01*
X-22473574Y12535648D01*
X-22359838Y12546850D01*
X-22319318Y12550841D01*
X-22216158Y12550841D01*
X-22175638Y12546850D01*
X-22175638Y12546850D01*
G37*
G36*
X-20750818Y14414500D02*
G01*
X-20623427Y14361733D01*
X-20623426Y14361732D01*
X-20508776Y14285126D01*
X-20411274Y14187624D01*
X-20411273Y14187622D01*
X-20334667Y14072973D01*
X-20281900Y13945582D01*
X-20255000Y13810345D01*
X-20255000Y13672455D01*
X-20281900Y13537218D01*
X-20334667Y13409827D01*
X-20334668Y13409826D01*
X-20411274Y13295176D01*
X-20508776Y13197674D01*
X-20515173Y13193400D01*
X-20623427Y13121067D01*
X-20750818Y13068300D01*
X-20886055Y13041400D01*
X-21023945Y13041400D01*
X-21159182Y13068300D01*
X-21286573Y13121067D01*
X-21394827Y13193400D01*
X-21401224Y13197674D01*
X-21498726Y13295176D01*
X-21575332Y13409826D01*
X-21575333Y13409827D01*
X-21628100Y13537218D01*
X-21655000Y13672455D01*
X-21655000Y13810345D01*
X-21628100Y13945582D01*
X-21575333Y14072973D01*
X-21498727Y14187622D01*
X-21498726Y14187624D01*
X-21401224Y14285126D01*
X-21286574Y14361732D01*
X-21286573Y14361733D01*
X-21159182Y14414500D01*
X-21023945Y14441400D01*
X-20886055Y14441400D01*
X-20750818Y14414500D01*
X-20750818Y14414500D01*
G37*
G36*
X-18507069Y14537523D02*
G01*
X-18455589Y14521907D01*
X-18408154Y14496552D01*
X-18366572Y14462427D01*
X-18332447Y14420845D01*
X-18307092Y14373410D01*
X-18291476Y14321930D01*
X-18285599Y14262260D01*
X-18285599Y13474540D01*
X-18291476Y13414870D01*
X-18307092Y13363390D01*
X-18332447Y13315955D01*
X-18366572Y13274373D01*
X-18408154Y13240248D01*
X-18455589Y13214893D01*
X-18507069Y13199277D01*
X-18566739Y13193400D01*
X-19454459Y13193400D01*
X-19514129Y13199277D01*
X-19565609Y13214893D01*
X-19613044Y13240248D01*
X-19654626Y13274373D01*
X-19688751Y13315955D01*
X-19714106Y13363390D01*
X-19729722Y13414870D01*
X-19735599Y13474540D01*
X-19735599Y14262260D01*
X-19729722Y14321930D01*
X-19714106Y14373410D01*
X-19688751Y14420845D01*
X-19654626Y14462427D01*
X-19613044Y14496552D01*
X-19565609Y14521907D01*
X-19514129Y14537523D01*
X-19454459Y14543400D01*
X-18566739Y14543400D01*
X-18507069Y14537523D01*
X-18507069Y14537523D01*
G37*
G36*
X-16757071Y14537523D02*
G01*
X-16705591Y14521907D01*
X-16658156Y14496552D01*
X-16616574Y14462427D01*
X-16582449Y14420845D01*
X-16557094Y14373410D01*
X-16541478Y14321930D01*
X-16535601Y14262260D01*
X-16535601Y13474540D01*
X-16541478Y13414870D01*
X-16557094Y13363390D01*
X-16582449Y13315955D01*
X-16616574Y13274373D01*
X-16658156Y13240248D01*
X-16705591Y13214893D01*
X-16757071Y13199277D01*
X-16816741Y13193400D01*
X-17704461Y13193400D01*
X-17764131Y13199277D01*
X-17815611Y13214893D01*
X-17863046Y13240248D01*
X-17904628Y13274373D01*
X-17938753Y13315955D01*
X-17964108Y13363390D01*
X-17979724Y13414870D01*
X-17985601Y13474540D01*
X-17985601Y14262260D01*
X-17979724Y14321930D01*
X-17964108Y14373410D01*
X-17938753Y14420845D01*
X-17904628Y14462427D01*
X-17863046Y14496552D01*
X-17815611Y14521907D01*
X-17764131Y14537523D01*
X-17704461Y14543400D01*
X-16816741Y14543400D01*
X-16757071Y14537523D01*
X-16757071Y14537523D01*
G37*
G36*
X-7039470Y16862124D02*
G01*
X-6987990Y16846508D01*
X-6940555Y16821153D01*
X-6898973Y16787028D01*
X-6864848Y16745446D01*
X-6839493Y16698011D01*
X-6823877Y16646531D01*
X-6818000Y16586861D01*
X-6818000Y15699141D01*
X-6823877Y15639471D01*
X-6839493Y15587991D01*
X-6864848Y15540556D01*
X-6898973Y15498974D01*
X-6940555Y15464849D01*
X-6987990Y15439494D01*
X-7039470Y15423878D01*
X-7099140Y15418001D01*
X-7886860Y15418001D01*
X-7946530Y15423878D01*
X-7998010Y15439494D01*
X-8045445Y15464849D01*
X-8087027Y15498974D01*
X-8121152Y15540556D01*
X-8146507Y15587991D01*
X-8162123Y15639471D01*
X-8168000Y15699141D01*
X-8168000Y16586861D01*
X-8162123Y16646531D01*
X-8146507Y16698011D01*
X-8121152Y16745446D01*
X-8087027Y16787028D01*
X-8045445Y16821153D01*
X-7998010Y16846508D01*
X-7946530Y16862124D01*
X-7886860Y16868001D01*
X-7099140Y16868001D01*
X-7039470Y16862124D01*
X-7039470Y16862124D01*
G37*
G36*
X8236000Y15595000D02*
G01*
X6936000Y15595000D01*
X6936000Y16795000D01*
X8236000Y16795000D01*
X8236000Y15595000D01*
X8236000Y15595000D01*
G37*
G36*
X10336000Y16545000D02*
G01*
X9036000Y16545000D01*
X9036000Y17745000D01*
X10336000Y17745000D01*
X10336000Y16545000D01*
X10336000Y16545000D01*
G37*
G36*
X-7039470Y18612122D02*
G01*
X-6987990Y18596506D01*
X-6940555Y18571151D01*
X-6898973Y18537026D01*
X-6864848Y18495444D01*
X-6839493Y18448009D01*
X-6823877Y18396529D01*
X-6818000Y18336859D01*
X-6818000Y17449139D01*
X-6823877Y17389469D01*
X-6839493Y17337989D01*
X-6864848Y17290554D01*
X-6898973Y17248972D01*
X-6940555Y17214847D01*
X-6987990Y17189492D01*
X-7039470Y17173876D01*
X-7099140Y17167999D01*
X-7886860Y17167999D01*
X-7946530Y17173876D01*
X-7998010Y17189492D01*
X-8045445Y17214847D01*
X-8087027Y17248972D01*
X-8121152Y17290554D01*
X-8146507Y17337989D01*
X-8162123Y17389469D01*
X-8168000Y17449139D01*
X-8168000Y18336859D01*
X-8162123Y18396529D01*
X-8146507Y18448009D01*
X-8121152Y18495444D01*
X-8087027Y18537026D01*
X-8045445Y18571151D01*
X-7998010Y18596506D01*
X-7946530Y18612122D01*
X-7886860Y18617999D01*
X-7099140Y18617999D01*
X-7039470Y18612122D01*
X-7039470Y18612122D01*
G37*
G36*
X8236000Y17495000D02*
G01*
X6936000Y17495000D01*
X6936000Y18695000D01*
X8236000Y18695000D01*
X8236000Y17495000D01*
X8236000Y17495000D01*
G37*
G36*
X-8690470Y20037123D02*
G01*
X-8638990Y20021507D01*
X-8591555Y19996152D01*
X-8549973Y19962027D01*
X-8515848Y19920445D01*
X-8490493Y19873010D01*
X-8474877Y19821530D01*
X-8469000Y19761860D01*
X-8469000Y18874140D01*
X-8474877Y18814470D01*
X-8490493Y18762990D01*
X-8515848Y18715555D01*
X-8549973Y18673973D01*
X-8591555Y18639848D01*
X-8638990Y18614493D01*
X-8690470Y18598877D01*
X-8750140Y18593000D01*
X-9537860Y18593000D01*
X-9597530Y18598877D01*
X-9649010Y18614493D01*
X-9696445Y18639848D01*
X-9738027Y18673973D01*
X-9772152Y18715555D01*
X-9797507Y18762990D01*
X-9813123Y18814470D01*
X-9819000Y18874140D01*
X-9819000Y19761860D01*
X-9813123Y19821530D01*
X-9797507Y19873010D01*
X-9772152Y19920445D01*
X-9738027Y19962027D01*
X-9696445Y19996152D01*
X-9649010Y20021507D01*
X-9597530Y20037123D01*
X-9537860Y20043000D01*
X-8750140Y20043000D01*
X-8690470Y20037123D01*
X-8690470Y20037123D01*
G37*
G36*
X-12389600Y18668400D02*
G01*
X-13689600Y18668400D01*
X-13689600Y19868400D01*
X-12389600Y19868400D01*
X-12389600Y18668400D01*
X-12389600Y18668400D01*
G37*
G36*
X-10389600Y19618400D02*
G01*
X-11689600Y19618400D01*
X-11689600Y20818400D01*
X-10389600Y20818400D01*
X-10389600Y19618400D01*
X-10389600Y19618400D01*
G37*
G36*
X-6111944Y22798094D02*
G01*
X-5823039Y22678425D01*
X-5823037Y22678424D01*
X-5563028Y22504692D01*
X-5341908Y22283572D01*
X-5168176Y22023563D01*
X-5168175Y22023561D01*
X-5048506Y21734656D01*
X-4987500Y21427956D01*
X-4987500Y21115244D01*
X-5048506Y20808544D01*
X-5165607Y20525838D01*
X-5168176Y20519637D01*
X-5341908Y20259628D01*
X-5563028Y20038508D01*
X-5823037Y19864776D01*
X-5823038Y19864775D01*
X-5823039Y19864775D01*
X-6111944Y19745106D01*
X-6418644Y19684100D01*
X-6731356Y19684100D01*
X-7038056Y19745106D01*
X-7326961Y19864775D01*
X-7326962Y19864775D01*
X-7326963Y19864776D01*
X-7586972Y20038508D01*
X-7808092Y20259628D01*
X-7981824Y20519637D01*
X-7984393Y20525838D01*
X-8101494Y20808544D01*
X-8162500Y21115244D01*
X-8162500Y21427956D01*
X-8101494Y21734656D01*
X-7981825Y22023561D01*
X-7981824Y22023563D01*
X-7808092Y22283572D01*
X-7586972Y22504692D01*
X-7326963Y22678424D01*
X-7326961Y22678425D01*
X-7038056Y22798094D01*
X-6731356Y22859100D01*
X-6418644Y22859100D01*
X-6111944Y22798094D01*
X-6111944Y22798094D01*
G37*
G36*
X7098056Y22798094D02*
G01*
X7386961Y22678425D01*
X7386963Y22678424D01*
X7646972Y22504692D01*
X7868092Y22283572D01*
X8041824Y22023563D01*
X8041825Y22023561D01*
X8161494Y21734656D01*
X8222500Y21427956D01*
X8222500Y21115244D01*
X8161494Y20808544D01*
X8044393Y20525838D01*
X8041824Y20519637D01*
X7868092Y20259628D01*
X7646972Y20038508D01*
X7386963Y19864776D01*
X7386962Y19864775D01*
X7386961Y19864775D01*
X7098056Y19745106D01*
X6791356Y19684100D01*
X6478644Y19684100D01*
X6171944Y19745106D01*
X5883039Y19864775D01*
X5883038Y19864775D01*
X5883037Y19864776D01*
X5623028Y20038508D01*
X5401908Y20259628D01*
X5228176Y20519637D01*
X5225607Y20525838D01*
X5108506Y20808544D01*
X5047500Y21115244D01*
X5047500Y21427956D01*
X5108506Y21734656D01*
X5228175Y22023561D01*
X5228176Y22023563D01*
X5401908Y22283572D01*
X5623028Y22504692D01*
X5883037Y22678424D01*
X5883039Y22678425D01*
X6171944Y22798094D01*
X6478644Y22859100D01*
X6791356Y22859100D01*
X7098056Y22798094D01*
X7098056Y22798094D01*
G37*
G36*
X10568107Y21972003D02*
G01*
X10645236Y21964407D01*
X10843162Y21904367D01*
X10843165Y21904366D01*
X11025570Y21806868D01*
X11185455Y21675655D01*
X11316668Y21515770D01*
X11414166Y21333365D01*
X11414167Y21333362D01*
X11474207Y21135436D01*
X11494480Y20929600D01*
X11474207Y20723764D01*
X11461083Y20680500D01*
X11414166Y20525835D01*
X11316668Y20343430D01*
X11185455Y20183545D01*
X11025570Y20052332D01*
X10843165Y19954834D01*
X10843162Y19954833D01*
X10645236Y19894793D01*
X10568107Y19887196D01*
X10490980Y19879600D01*
X10387820Y19879600D01*
X10310693Y19887196D01*
X10233564Y19894793D01*
X10035638Y19954833D01*
X10035635Y19954834D01*
X9853230Y20052332D01*
X9693345Y20183545D01*
X9562132Y20343430D01*
X9464634Y20525835D01*
X9417717Y20680500D01*
X9404593Y20723764D01*
X9384320Y20929600D01*
X9404593Y21135436D01*
X9464633Y21333362D01*
X9464634Y21333365D01*
X9562132Y21515770D01*
X9693345Y21675655D01*
X9853230Y21806868D01*
X10035635Y21904366D01*
X10035638Y21904367D01*
X10233564Y21964407D01*
X10310693Y21972003D01*
X10387820Y21979600D01*
X10490980Y21979600D01*
X10568107Y21972003D01*
X10568107Y21972003D01*
G37*
G36*
X14029400Y19879600D02*
G01*
X11929400Y19879600D01*
X11929400Y21979600D01*
X14029400Y21979600D01*
X14029400Y19879600D01*
X14029400Y19879600D01*
G37*
G36*
X-8690470Y21787123D02*
G01*
X-8638990Y21771507D01*
X-8591555Y21746152D01*
X-8549973Y21712027D01*
X-8515848Y21670445D01*
X-8490493Y21623010D01*
X-8474877Y21571530D01*
X-8469000Y21511860D01*
X-8469000Y20624140D01*
X-8474877Y20564470D01*
X-8490493Y20512990D01*
X-8515848Y20465555D01*
X-8549973Y20423973D01*
X-8591555Y20389848D01*
X-8638990Y20364493D01*
X-8690470Y20348877D01*
X-8750140Y20343000D01*
X-9537860Y20343000D01*
X-9597530Y20348877D01*
X-9649010Y20364493D01*
X-9696445Y20389848D01*
X-9738027Y20423973D01*
X-9772152Y20465555D01*
X-9797507Y20512990D01*
X-9813123Y20564470D01*
X-9819000Y20624140D01*
X-9819000Y21511860D01*
X-9813123Y21571530D01*
X-9797507Y21623010D01*
X-9772152Y21670445D01*
X-9738027Y21712027D01*
X-9696445Y21746152D01*
X-9649010Y21771507D01*
X-9597530Y21787123D01*
X-9537860Y21793000D01*
X-8750140Y21793000D01*
X-8690470Y21787123D01*
X-8690470Y21787123D01*
G37*
G36*
X-12389600Y20568400D02*
G01*
X-13689600Y20568400D01*
X-13689600Y21768400D01*
X-12389600Y21768400D01*
X-12389600Y20568400D01*
X-12389600Y20568400D01*
G37*
G36*
X-244470Y24164123D02*
G01*
X-192990Y24148507D01*
X-145555Y24123152D01*
X-103973Y24089027D01*
X-69848Y24047445D01*
X-44493Y24000010D01*
X-28877Y23948530D01*
X-23000Y23888860D01*
X-23000Y23101140D01*
X-28877Y23041470D01*
X-44493Y22989990D01*
X-69848Y22942555D01*
X-103973Y22900973D01*
X-145555Y22866848D01*
X-192990Y22841493D01*
X-244470Y22825877D01*
X-304140Y22820000D01*
X-1191860Y22820000D01*
X-1251530Y22825877D01*
X-1303010Y22841493D01*
X-1350445Y22866848D01*
X-1392027Y22900973D01*
X-1426152Y22942555D01*
X-1451507Y22989990D01*
X-1467123Y23041470D01*
X-1473000Y23101140D01*
X-1473000Y23888860D01*
X-1467123Y23948530D01*
X-1451507Y24000010D01*
X-1426152Y24047445D01*
X-1392027Y24089027D01*
X-1350445Y24123152D01*
X-1303010Y24148507D01*
X-1251530Y24164123D01*
X-1191860Y24170000D01*
X-304140Y24170000D01*
X-244470Y24164123D01*
X-244470Y24164123D01*
G37*
G36*
X1505530Y24164123D02*
G01*
X1557010Y24148507D01*
X1604445Y24123152D01*
X1646027Y24089027D01*
X1680152Y24047445D01*
X1705507Y24000010D01*
X1721123Y23948530D01*
X1727000Y23888860D01*
X1727000Y23101140D01*
X1721123Y23041470D01*
X1705507Y22989990D01*
X1680152Y22942555D01*
X1646027Y22900973D01*
X1604445Y22866848D01*
X1557010Y22841493D01*
X1505530Y22825877D01*
X1445860Y22820000D01*
X558140Y22820000D01*
X498470Y22825877D01*
X446990Y22841493D01*
X399555Y22866848D01*
X357973Y22900973D01*
X323848Y22942555D01*
X298493Y22989990D01*
X282877Y23041470D01*
X277000Y23101140D01*
X277000Y23888860D01*
X282877Y23948530D01*
X298493Y24000010D01*
X323848Y24047445D01*
X357973Y24089027D01*
X399555Y24123152D01*
X446990Y24148507D01*
X498470Y24164123D01*
X558140Y24170000D01*
X1445860Y24170000D01*
X1505530Y24164123D01*
X1505530Y24164123D01*
G37*
G36*
X5114930Y25154723D02*
G01*
X5166410Y25139107D01*
X5213845Y25113752D01*
X5255427Y25079627D01*
X5289552Y25038045D01*
X5314907Y24990610D01*
X5330523Y24939130D01*
X5336400Y24879460D01*
X5336400Y24091740D01*
X5330523Y24032070D01*
X5314907Y23980590D01*
X5289552Y23933155D01*
X5255427Y23891573D01*
X5213845Y23857448D01*
X5166410Y23832093D01*
X5114930Y23816477D01*
X5055260Y23810600D01*
X4167540Y23810600D01*
X4107870Y23816477D01*
X4056390Y23832093D01*
X4008955Y23857448D01*
X3967373Y23891573D01*
X3933248Y23933155D01*
X3907893Y23980590D01*
X3892277Y24032070D01*
X3886400Y24091740D01*
X3886400Y24879460D01*
X3892277Y24939130D01*
X3907893Y24990610D01*
X3933248Y25038045D01*
X3967373Y25079627D01*
X4008955Y25113752D01*
X4056390Y25139107D01*
X4107870Y25154723D01*
X4167540Y25160600D01*
X5055260Y25160600D01*
X5114930Y25154723D01*
X5114930Y25154723D01*
G37*
G36*
X-5908670Y25154723D02*
G01*
X-5857190Y25139107D01*
X-5809755Y25113752D01*
X-5768173Y25079627D01*
X-5734048Y25038045D01*
X-5708693Y24990610D01*
X-5693077Y24939130D01*
X-5687200Y24879460D01*
X-5687200Y24091740D01*
X-5693077Y24032070D01*
X-5708693Y23980590D01*
X-5734048Y23933155D01*
X-5768173Y23891573D01*
X-5809755Y23857448D01*
X-5857190Y23832093D01*
X-5908670Y23816477D01*
X-5968340Y23810600D01*
X-6856060Y23810600D01*
X-6915730Y23816477D01*
X-6967210Y23832093D01*
X-7014645Y23857448D01*
X-7056227Y23891573D01*
X-7090352Y23933155D01*
X-7115707Y23980590D01*
X-7131323Y24032070D01*
X-7137200Y24091740D01*
X-7137200Y24879460D01*
X-7131323Y24939130D01*
X-7115707Y24990610D01*
X-7090352Y25038045D01*
X-7056227Y25079627D01*
X-7014645Y25113752D01*
X-6967210Y25139107D01*
X-6915730Y25154723D01*
X-6856060Y25160600D01*
X-5968340Y25160600D01*
X-5908670Y25154723D01*
X-5908670Y25154723D01*
G37*
G36*
X-4158670Y25154723D02*
G01*
X-4107190Y25139107D01*
X-4059755Y25113752D01*
X-4018173Y25079627D01*
X-3984048Y25038045D01*
X-3958693Y24990610D01*
X-3943077Y24939130D01*
X-3937200Y24879460D01*
X-3937200Y24091740D01*
X-3943077Y24032070D01*
X-3958693Y23980590D01*
X-3984048Y23933155D01*
X-4018173Y23891573D01*
X-4059755Y23857448D01*
X-4107190Y23832093D01*
X-4158670Y23816477D01*
X-4218340Y23810600D01*
X-5106060Y23810600D01*
X-5165730Y23816477D01*
X-5217210Y23832093D01*
X-5264645Y23857448D01*
X-5306227Y23891573D01*
X-5340352Y23933155D01*
X-5365707Y23980590D01*
X-5381323Y24032070D01*
X-5387200Y24091740D01*
X-5387200Y24879460D01*
X-5381323Y24939130D01*
X-5365707Y24990610D01*
X-5340352Y25038045D01*
X-5306227Y25079627D01*
X-5264645Y25113752D01*
X-5217210Y25139107D01*
X-5165730Y25154723D01*
X-5106060Y25160600D01*
X-4218340Y25160600D01*
X-4158670Y25154723D01*
X-4158670Y25154723D01*
G37*
G36*
X6864930Y25154723D02*
G01*
X6916410Y25139107D01*
X6963845Y25113752D01*
X7005427Y25079627D01*
X7039552Y25038045D01*
X7064907Y24990610D01*
X7080523Y24939130D01*
X7086400Y24879460D01*
X7086400Y24091740D01*
X7080523Y24032070D01*
X7064907Y23980590D01*
X7039552Y23933155D01*
X7005427Y23891573D01*
X6963845Y23857448D01*
X6916410Y23832093D01*
X6864930Y23816477D01*
X6805260Y23810600D01*
X5917540Y23810600D01*
X5857870Y23816477D01*
X5806390Y23832093D01*
X5758955Y23857448D01*
X5717373Y23891573D01*
X5683248Y23933155D01*
X5657893Y23980590D01*
X5642277Y24032070D01*
X5636400Y24091740D01*
X5636400Y24879460D01*
X5642277Y24939130D01*
X5657893Y24990610D01*
X5683248Y25038045D01*
X5717373Y25079627D01*
X5758955Y25113752D01*
X5806390Y25139107D01*
X5857870Y25154723D01*
X5917540Y25160600D01*
X6805260Y25160600D01*
X6864930Y25154723D01*
X6864930Y25154723D01*
G37*
G36*
X-258470Y26196123D02*
G01*
X-206990Y26180507D01*
X-159555Y26155152D01*
X-117973Y26121027D01*
X-83848Y26079445D01*
X-58493Y26032010D01*
X-42877Y25980530D01*
X-37000Y25920860D01*
X-37000Y25133140D01*
X-42877Y25073470D01*
X-58493Y25021990D01*
X-83848Y24974555D01*
X-117973Y24932973D01*
X-159555Y24898848D01*
X-206990Y24873493D01*
X-258470Y24857877D01*
X-318140Y24852000D01*
X-1205860Y24852000D01*
X-1265530Y24857877D01*
X-1317010Y24873493D01*
X-1364445Y24898848D01*
X-1406027Y24932973D01*
X-1440152Y24974555D01*
X-1465507Y25021990D01*
X-1481123Y25073470D01*
X-1487000Y25133140D01*
X-1487000Y25920860D01*
X-1481123Y25980530D01*
X-1465507Y26032010D01*
X-1440152Y26079445D01*
X-1406027Y26121027D01*
X-1364445Y26155152D01*
X-1317010Y26180507D01*
X-1265530Y26196123D01*
X-1205860Y26202000D01*
X-318140Y26202000D01*
X-258470Y26196123D01*
X-258470Y26196123D01*
G37*
G36*
X1491530Y26196123D02*
G01*
X1543010Y26180507D01*
X1590445Y26155152D01*
X1632027Y26121027D01*
X1666152Y26079445D01*
X1691507Y26032010D01*
X1707123Y25980530D01*
X1713000Y25920860D01*
X1713000Y25133140D01*
X1707123Y25073470D01*
X1691507Y25021990D01*
X1666152Y24974555D01*
X1632027Y24932973D01*
X1590445Y24898848D01*
X1543010Y24873493D01*
X1491530Y24857877D01*
X1431860Y24852000D01*
X544140Y24852000D01*
X484470Y24857877D01*
X432990Y24873493D01*
X385555Y24898848D01*
X343973Y24932973D01*
X309848Y24974555D01*
X284493Y25021990D01*
X268877Y25073470D01*
X263000Y25133140D01*
X263000Y25920860D01*
X268877Y25980530D01*
X284493Y26032010D01*
X309848Y26079445D01*
X343973Y26121027D01*
X385555Y26155152D01*
X432990Y26180507D01*
X484470Y26196123D01*
X544140Y26202000D01*
X1431860Y26202000D01*
X1491530Y26196123D01*
X1491530Y26196123D01*
G37*
M02*
