M48
; DRILL file {KiCad (5.1.0)-1} date 21-Jun-19 14:17:40
; FORMAT={-:-/ absolute / metric / decimal}
; #@! TF.CreationDate,2019-06-21T14:17:40-03:00
; #@! TF.GenerationSoftware,Kicad,Pcbnew,(5.1.0)-1
; #@! TF.FileFunction,Plated,1,2,PTH
FMAT,2
METRIC
T1C0.300
T2C0.600
T3C0.750
T4C1.000
T5C1.850
T6C3.200
%
G90
G05
T1
X-23.114Y1.27
X-22.86Y-8.636
X-22.162Y1.27
X-21.272Y2.667
X-19.304Y9.525
X-18.351Y1.651
X-13.739Y-15.072
X-11.227Y17.678
X-8.191Y-8.89
X-7.302Y2.641
X-6.477Y7.874
X-6.223Y-13.652
X-6.096Y2.794
X-5.207Y7.683
X-3.683Y-2.349
X-3.683Y-3.238
X-3.619Y4.763
X-3.619Y3.873
X-3.619Y2.984
X-3.619Y2.095
X-3.619Y1.206
X-3.619Y0.318
X-3.619Y-0.572
X-3.619Y-1.46
X-3.619Y-4.127
X-3.619Y-5.016
X-3.619Y-5.905
X-3.619Y-6.794
X-3.619Y-7.683
X-3.619Y-8.572
X-3.619Y-9.461
X-3.619Y-10.351
X-3.619Y-11.239
X-3.556Y5.651
X-3.556Y-12.128
X-3.556Y-13.018
X-3.556Y-13.843
X-3.492Y-14.668
X-2.719Y-11.349
X-2.667Y5.651
X-2.603Y-14.668
X-2.476Y10.414
X-1.778Y5.651
X-1.778Y-2.286
X-1.714Y-14.668
X-1.587Y-6.54
X-1.524Y-8.89
X-1.27Y-1.714
X-0.889Y5.651
X-0.826Y-14.668
X-0.762Y-2.413
X-0.699Y-6.54
X-0.699Y-8.89
X-0.533Y-5.347
X-0.445Y1.27
X-0.445Y0.254
X-0.445Y-1.397
X-0.381Y2.349
X-0.191Y-3.048
X0.0Y5.651
X0.064Y-14.668
X0.127Y-8.89
X0.191Y-6.54
X0.251Y-11.399
X0.508Y1.27
X0.787Y-7.734
X0.787Y-9.919
X0.889Y5.651
X0.952Y-8.89
X0.952Y-14.668
X1.079Y-6.54
X1.079Y-11.239
X1.27Y-12.065
X1.27Y-12.954
X1.27Y-13.843
X1.524Y-7.302
X1.524Y-8.191
X1.524Y-10.477
X1.587Y-9.525
X1.778Y5.651
X1.778Y-0.127
X1.778Y-1.651
X1.968Y-6.54
X2.222Y-7.81
X2.476Y-4.953
X2.54Y-5.778
X2.565Y-0.876
X2.667Y5.651
X2.794Y-7.302
X3.111Y7.938
X3.277Y24.486
X3.302Y-0.127
X3.302Y-1.651
X3.556Y5.651
X4.445Y14.605
X4.445Y5.651
X4.508Y-2.73
X4.572Y0.826
X5.334Y-2.73
X5.397Y-7.302
X5.461Y-8.319
X5.461Y-9.207
X5.461Y-10.16
X5.524Y3.482
X5.651Y0.952
X5.651Y0.127
X5.651Y-1.905
X5.842Y-6.604
X6.032Y-3.302
X6.032Y-4.191
X6.032Y-5.08
X6.032Y-10.922
X6.413Y-5.905
X6.477Y1.397
X6.477Y0.508
X6.477Y-1.905
X6.667Y-11.557
X6.934Y-19.38
X6.934Y-23.089
X7.302Y-1.905
X7.302Y-5.969
X7.493Y-11.874
X7.556Y-6.794
X7.586Y14.639
X7.938Y-7.556
X8.255Y13.97
X8.382Y-11.874
X8.572Y-8.191
X9.144Y5.334
X9.271Y-11.874
X9.335Y-8.636
X9.906Y-6.413
X10.096Y5.334
X10.16Y7.175
X10.16Y-9.08
X10.16Y-11.874
X10.185Y-0.876
X10.223Y-2.286
X10.287Y6.223
X10.439Y-3.924
X10.477Y-4.889
X10.668Y-3.048
X10.795Y-1.587
X11.049Y7.429
X11.049Y5.651
X11.049Y-11.874
X11.085Y-9.181
X11.176Y6.54
X11.176Y-0.826
X11.367Y0.0
X11.367Y-3.683
X11.43Y-2.603
X11.43Y-10.033
X11.43Y-10.986
X11.516Y-4.88
X11.551Y-7.037
X11.684Y-1.714
X11.874Y5.207
X11.938Y7.175
X12.002Y6.159
X12.128Y-0.889
X12.192Y-11.43
X12.319Y-2.857
X12.357Y-0.013
X12.383Y-3.746
X12.636Y-1.905
X12.756Y-4.59
X13.081Y-1.016
X13.081Y-11.43
X13.208Y17.907
X13.208Y-5.715
X13.208Y-8.319
X13.589Y-1.841
X13.97Y-11.43
X14.097Y-6.032
X14.097Y-8.064
X14.224Y17.907
X14.732Y-1.651
X14.732Y-11.938
X14.859Y5.588
X15.152Y-9.184
X15.672Y-13.538
X15.875Y-11.938
X16.002Y0.762
X16.002Y-0.127
X16.442Y-6.461
X16.442Y-8.086
X16.57Y-3.74
X16.789Y-13.183
X16.828Y1.27
X16.828Y0.381
X17.246Y-7.29
X17.716Y1.27
X17.716Y0.381
X17.958Y-12.065
X18.067Y-6.461
X18.067Y-8.137
X18.605Y1.27
X18.605Y0.381
X19.494Y0.381
X19.736Y-13.538
X19.939Y14.605
X20.13Y13.716
X20.383Y0.254
X20.447Y9.715
X20.498Y-12.776
X20.701Y12.954
X20.752Y-6.274
X20.892Y14.605
X21.082Y13.716
X21.102Y-9.706
X21.133Y-7.595
X21.399Y9.906
X21.653Y13.018
X21.78Y14.605
X21.971Y-2.159
X21.995Y-12.001
X22.097Y-9.6
X22.098Y13.779
X22.225Y9.652
X22.225Y-7.798
X22.606Y13.018
X23.114Y9.842
X23.139Y-5.41
X23.393Y-9.576
X23.812Y10.541
T2
X-22.987Y-10.16
X-22.479Y-5.778
X-11.874Y-8.319
X-8.826Y-10.351
X-6.35Y0.381
X-3.111Y7.556
T3
X-2.769Y-24.968
T4
X-24.8Y3.81
X-24.8Y1.27
X-24.8Y-1.27
X-24.8Y-3.81
X-22.268Y11.501
X-19.728Y11.501
X-17.188Y11.501
X4.997Y-18.374
X4.997Y-20.914
X4.997Y-23.454
X17.132Y11.401
X19.672Y11.401
X22.212Y11.401
X24.8Y3.81
X24.8Y1.27
X24.8Y-1.27
X24.8Y-3.81
X10.439Y20.93
X12.979Y20.93
X15.97Y7.988
X18.51Y7.988
X21.05Y7.988
X16.002Y3.048
X18.542Y3.048
X21.082Y3.048
T5
X-6.575Y21.272
X-4.67Y11.742
X0.03Y11.742
X4.73Y11.742
X6.635Y21.272
T6
X-12.5Y13.5
X0.0Y-20.2
X12.5Y13.5
T0
M30
