G04 #@! TF.GenerationSoftware,KiCad,Pcbnew,(5.1.0)-1*
G04 #@! TF.CreationDate,2019-06-21T14:16:56-03:00*
G04 #@! TF.ProjectId,PCB_A,5043425f-412e-46b6-9963-61645f706362,rev?*
G04 #@! TF.SameCoordinates,Original*
G04 #@! TF.FileFunction,Legend,Bot*
G04 #@! TF.FilePolarity,Positive*
%FSLAX46Y46*%
G04 Gerber Fmt 4.6, Leading zero omitted, Abs format (unit mm)*
G04 Created by KiCad (PCBNEW (5.1.0)-1) date 2019-06-21 14:16:56*
%MOMM*%
%LPD*%
G04 APERTURE LIST*
%ADD10C,0.300000*%
%ADD11C,0.175000*%
%ADD12C,0.010000*%
G04 APERTURE END LIST*
D10*
X20083371Y1195342D02*
X20226228Y1266771D01*
X20511942Y1266771D01*
X20654800Y1195342D01*
X20726228Y1052485D01*
X20726228Y981057D01*
X20654800Y838200D01*
X20511942Y766771D01*
X20297657Y766771D01*
X20154800Y695342D01*
X20083371Y552485D01*
X20083371Y481057D01*
X20154800Y338200D01*
X20297657Y266771D01*
X20511942Y266771D01*
X20654800Y338200D01*
D11*
X14768833Y-18347500D02*
X14802166Y-18380833D01*
X14902166Y-18414166D01*
X14968833Y-18414166D01*
X15068833Y-18380833D01*
X15135500Y-18314166D01*
X15168833Y-18247500D01*
X15202166Y-18114166D01*
X15202166Y-18014166D01*
X15168833Y-17880833D01*
X15135500Y-17814166D01*
X15068833Y-17747500D01*
X14968833Y-17714166D01*
X14902166Y-17714166D01*
X14802166Y-17747500D01*
X14768833Y-17780833D01*
X14168833Y-18414166D02*
X14168833Y-18047500D01*
X14202166Y-17980833D01*
X14268833Y-17947500D01*
X14402166Y-17947500D01*
X14468833Y-17980833D01*
X14168833Y-18380833D02*
X14235500Y-18414166D01*
X14402166Y-18414166D01*
X14468833Y-18380833D01*
X14502166Y-18314166D01*
X14502166Y-18247500D01*
X14468833Y-18180833D01*
X14402166Y-18147500D01*
X14235500Y-18147500D01*
X14168833Y-18114166D01*
X13835500Y-17947500D02*
X13835500Y-18414166D01*
X13835500Y-18014166D02*
X13802166Y-17980833D01*
X13735500Y-17947500D01*
X13635500Y-17947500D01*
X13568833Y-17980833D01*
X13535500Y-18047500D01*
X13535500Y-18414166D01*
X13235500Y-18380833D02*
X13135500Y-18414166D01*
X12968833Y-18414166D01*
X12902166Y-18380833D01*
X12868833Y-18347500D01*
X12835500Y-18280833D01*
X12835500Y-18214166D01*
X12868833Y-18147500D01*
X12902166Y-18114166D01*
X12968833Y-18080833D01*
X13102166Y-18047500D01*
X13168833Y-18014166D01*
X13202166Y-17980833D01*
X13235500Y-17914166D01*
X13235500Y-17847500D01*
X13202166Y-17780833D01*
X13168833Y-17747500D01*
X13102166Y-17714166D01*
X12935500Y-17714166D01*
X12835500Y-17747500D01*
X12235500Y-18414166D02*
X12235500Y-18047500D01*
X12268833Y-17980833D01*
X12335500Y-17947500D01*
X12468833Y-17947500D01*
X12535500Y-17980833D01*
X12235500Y-18380833D02*
X12302166Y-18414166D01*
X12468833Y-18414166D01*
X12535500Y-18380833D01*
X12568833Y-18314166D01*
X12568833Y-18247500D01*
X12535500Y-18180833D01*
X12468833Y-18147500D01*
X12302166Y-18147500D01*
X12235500Y-18114166D01*
X12002166Y-17947500D02*
X11735500Y-17947500D01*
X11902166Y-17714166D02*
X11902166Y-18314166D01*
X11868833Y-18380833D01*
X11802166Y-18414166D01*
X11735500Y-18414166D01*
X10968833Y-18414166D02*
X10968833Y-17714166D01*
X10702166Y-17714166D01*
X10635500Y-17747500D01*
X10602166Y-17780833D01*
X10568833Y-17847500D01*
X10568833Y-17947500D01*
X10602166Y-18014166D01*
X10635500Y-18047500D01*
X10702166Y-18080833D01*
X10968833Y-18080833D01*
X10168833Y-18414166D02*
X10235500Y-18380833D01*
X10268833Y-18314166D01*
X10268833Y-17714166D01*
X9602166Y-18414166D02*
X9602166Y-18047500D01*
X9635500Y-17980833D01*
X9702166Y-17947500D01*
X9835500Y-17947500D01*
X9902166Y-17980833D01*
X9602166Y-18380833D02*
X9668833Y-18414166D01*
X9835500Y-18414166D01*
X9902166Y-18380833D01*
X9935500Y-18314166D01*
X9935500Y-18247500D01*
X9902166Y-18180833D01*
X9835500Y-18147500D01*
X9668833Y-18147500D01*
X9602166Y-18114166D01*
X9368833Y-17947500D02*
X9102166Y-17947500D01*
X9268833Y-17714166D02*
X9268833Y-18314166D01*
X9235500Y-18380833D01*
X9168833Y-18414166D01*
X9102166Y-18414166D01*
X8968833Y-17947500D02*
X8702166Y-17947500D01*
X8868833Y-18414166D02*
X8868833Y-17814166D01*
X8835500Y-17747500D01*
X8768833Y-17714166D01*
X8702166Y-17714166D01*
X8368833Y-18414166D02*
X8435500Y-18380833D01*
X8468833Y-18347500D01*
X8502166Y-18280833D01*
X8502166Y-18080833D01*
X8468833Y-18014166D01*
X8435500Y-17980833D01*
X8368833Y-17947500D01*
X8268833Y-17947500D01*
X8202166Y-17980833D01*
X8168833Y-18014166D01*
X8135500Y-18080833D01*
X8135500Y-18280833D01*
X8168833Y-18347500D01*
X8202166Y-18380833D01*
X8268833Y-18414166D01*
X8368833Y-18414166D01*
X7835500Y-18414166D02*
X7835500Y-17947500D01*
X7835500Y-18080833D02*
X7802166Y-18014166D01*
X7768833Y-17980833D01*
X7702166Y-17947500D01*
X7635500Y-17947500D01*
X7402166Y-18414166D02*
X7402166Y-17947500D01*
X7402166Y-18014166D02*
X7368833Y-17980833D01*
X7302166Y-17947500D01*
X7202166Y-17947500D01*
X7135500Y-17980833D01*
X7102166Y-18047500D01*
X7102166Y-18414166D01*
X7102166Y-18047500D02*
X7068833Y-17980833D01*
X7002166Y-17947500D01*
X6902166Y-17947500D01*
X6835500Y-17980833D01*
X6802166Y-18047500D01*
X6802166Y-18414166D01*
X14181666Y5173833D02*
X13481666Y5173833D01*
X13481666Y4907166D01*
X13515000Y4840500D01*
X13548333Y4807166D01*
X13615000Y4773833D01*
X13715000Y4773833D01*
X13781666Y4807166D01*
X13815000Y4840500D01*
X13848333Y4907166D01*
X13848333Y5173833D01*
X13981666Y4507166D02*
X13981666Y4173833D01*
X14181666Y4573833D02*
X13481666Y4340500D01*
X14181666Y4107166D01*
X14181666Y3473833D02*
X13848333Y3707166D01*
X14181666Y3873833D02*
X13481666Y3873833D01*
X13481666Y3607166D01*
X13515000Y3540500D01*
X13548333Y3507166D01*
X13615000Y3473833D01*
X13715000Y3473833D01*
X13781666Y3507166D01*
X13815000Y3540500D01*
X13848333Y3607166D01*
X13848333Y3873833D01*
X13981666Y3207166D02*
X13981666Y2873833D01*
X14181666Y3273833D02*
X13481666Y3040500D01*
X14181666Y2807166D01*
X14115000Y2173833D02*
X14148333Y2207166D01*
X14181666Y2307166D01*
X14181666Y2373833D01*
X14148333Y2473833D01*
X14081666Y2540500D01*
X14015000Y2573833D01*
X13881666Y2607166D01*
X13781666Y2607166D01*
X13648333Y2573833D01*
X13581666Y2540500D01*
X13515000Y2473833D01*
X13481666Y2373833D01*
X13481666Y2307166D01*
X13515000Y2207166D01*
X13548333Y2173833D01*
X13324600Y9190333D02*
X13291266Y9257000D01*
X13291266Y9357000D01*
X13324600Y9457000D01*
X13391266Y9523666D01*
X13457933Y9557000D01*
X13591266Y9590333D01*
X13691266Y9590333D01*
X13824600Y9557000D01*
X13891266Y9523666D01*
X13957933Y9457000D01*
X13991266Y9357000D01*
X13991266Y9290333D01*
X13957933Y9190333D01*
X13924600Y9157000D01*
X13691266Y9157000D01*
X13691266Y9290333D01*
X13991266Y8523666D02*
X13991266Y8857000D01*
X13291266Y8857000D01*
X13291266Y8157000D02*
X13291266Y8023666D01*
X13324600Y7957000D01*
X13391266Y7890333D01*
X13524600Y7857000D01*
X13757933Y7857000D01*
X13891266Y7890333D01*
X13957933Y7957000D01*
X13991266Y8023666D01*
X13991266Y8157000D01*
X13957933Y8223666D01*
X13891266Y8290333D01*
X13757933Y8323666D01*
X13524600Y8323666D01*
X13391266Y8290333D01*
X13324600Y8223666D01*
X13291266Y8157000D01*
X13624600Y7323666D02*
X13657933Y7223666D01*
X13691266Y7190333D01*
X13757933Y7157000D01*
X13857933Y7157000D01*
X13924600Y7190333D01*
X13957933Y7223666D01*
X13991266Y7290333D01*
X13991266Y7557000D01*
X13291266Y7557000D01*
X13291266Y7323666D01*
X13324600Y7257000D01*
X13357933Y7223666D01*
X13424600Y7190333D01*
X13491266Y7190333D01*
X13557933Y7223666D01*
X13591266Y7257000D01*
X13624600Y7323666D01*
X13624600Y7557000D01*
X13291266Y6723666D02*
X13291266Y6590333D01*
X13324600Y6523666D01*
X13391266Y6457000D01*
X13524600Y6423666D01*
X13757933Y6423666D01*
X13891266Y6457000D01*
X13957933Y6523666D01*
X13991266Y6590333D01*
X13991266Y6723666D01*
X13957933Y6790333D01*
X13891266Y6857000D01*
X13757933Y6890333D01*
X13524600Y6890333D01*
X13391266Y6857000D01*
X13324600Y6790333D01*
X13291266Y6723666D01*
D10*
X16531428Y992857D02*
X15388571Y992857D01*
X18601857Y232571D02*
X18601857Y1375428D01*
X18030428Y804000D02*
X19173285Y803999D01*
X21471028Y5230857D02*
X21328171Y5159428D01*
X21042457Y5159428D01*
X20899600Y5230857D01*
X20828171Y5373714D01*
X20828171Y5445142D01*
X20899600Y5588000D01*
X21042457Y5659428D01*
X21256742Y5659428D01*
X21399600Y5730857D01*
X21471028Y5873714D01*
X21471028Y5945142D01*
X21399600Y6088000D01*
X21256742Y6159428D01*
X21042457Y6159428D01*
X20899600Y6088000D01*
X18971028Y5730857D02*
X17828171Y5730857D01*
X18399600Y5159428D02*
X18399600Y6302285D01*
X16471028Y5980857D02*
X15328171Y5980857D01*
X9817171Y19004742D02*
X10960028Y19004742D01*
X12407971Y18903142D02*
X13550828Y18903142D01*
X12979400Y19474571D02*
X12979400Y18331714D01*
D11*
X13891066Y-19544466D02*
X13891066Y-18844466D01*
X13624400Y-18844466D01*
X13557733Y-18877800D01*
X13524400Y-18911133D01*
X13491066Y-18977800D01*
X13491066Y-19077800D01*
X13524400Y-19144466D01*
X13557733Y-19177800D01*
X13624400Y-19211133D01*
X13891066Y-19211133D01*
X12791066Y-19477800D02*
X12824400Y-19511133D01*
X12924400Y-19544466D01*
X12991066Y-19544466D01*
X13091066Y-19511133D01*
X13157733Y-19444466D01*
X13191066Y-19377800D01*
X13224400Y-19244466D01*
X13224400Y-19144466D01*
X13191066Y-19011133D01*
X13157733Y-18944466D01*
X13091066Y-18877800D01*
X12991066Y-18844466D01*
X12924400Y-18844466D01*
X12824400Y-18877800D01*
X12791066Y-18911133D01*
X12257733Y-19177800D02*
X12157733Y-19211133D01*
X12124400Y-19244466D01*
X12091066Y-19311133D01*
X12091066Y-19411133D01*
X12124400Y-19477800D01*
X12157733Y-19511133D01*
X12224400Y-19544466D01*
X12491066Y-19544466D01*
X12491066Y-18844466D01*
X12257733Y-18844466D01*
X12191066Y-18877800D01*
X12157733Y-18911133D01*
X12124400Y-18977800D01*
X12124400Y-19044466D01*
X12157733Y-19111133D01*
X12191066Y-19144466D01*
X12257733Y-19177800D01*
X12491066Y-19177800D01*
X11957733Y-19611133D02*
X11424400Y-19611133D01*
X11291066Y-19344466D02*
X10957733Y-19344466D01*
X11357733Y-19544466D02*
X11124400Y-18844466D01*
X10891066Y-19544466D01*
X10191066Y-19077800D02*
X10024400Y-19544466D01*
X9857733Y-19077800D01*
X9624400Y-18911133D02*
X9591066Y-18877800D01*
X9524400Y-18844466D01*
X9357733Y-18844466D01*
X9291066Y-18877800D01*
X9257733Y-18911133D01*
X9224400Y-18977800D01*
X9224400Y-19044466D01*
X9257733Y-19144466D01*
X9657733Y-19544466D01*
X9224400Y-19544466D01*
X8924400Y-19477800D02*
X8891066Y-19511133D01*
X8924400Y-19544466D01*
X8957733Y-19511133D01*
X8924400Y-19477800D01*
X8924400Y-19544466D01*
X8457733Y-18844466D02*
X8391066Y-18844466D01*
X8324400Y-18877800D01*
X8291066Y-18911133D01*
X8257733Y-18977800D01*
X8224400Y-19111133D01*
X8224400Y-19277800D01*
X8257733Y-19411133D01*
X8291066Y-19477800D01*
X8324400Y-19511133D01*
X8391066Y-19544466D01*
X8457733Y-19544466D01*
X8524400Y-19511133D01*
X8557733Y-19477800D01*
X8591066Y-19411133D01*
X8624400Y-19277800D01*
X8624400Y-19111133D01*
X8591066Y-18977800D01*
X8557733Y-18911133D01*
X8524400Y-18877800D01*
X8457733Y-18844466D01*
D12*
G36*
X13373100Y-21437600D02*
G01*
X14808200Y-21437600D01*
X14808200Y-21108637D01*
X14475884Y-21108637D01*
X14466598Y-21114489D01*
X14438186Y-21118620D01*
X14398979Y-21120100D01*
X14317842Y-21120100D01*
X14210596Y-20840919D01*
X14180061Y-20762303D01*
X14152204Y-20692234D01*
X14128383Y-20633998D01*
X14109959Y-20590879D01*
X14098289Y-20566163D01*
X14095013Y-20561519D01*
X14088133Y-20572668D01*
X14073839Y-20603638D01*
X14053742Y-20650509D01*
X14029450Y-20709357D01*
X14002573Y-20776263D01*
X13974721Y-20847304D01*
X13947502Y-20918558D01*
X13937437Y-20945475D01*
X13935705Y-20957745D01*
X13945421Y-20964465D01*
X13971591Y-20967240D01*
X14006742Y-20967700D01*
X14084300Y-20967700D01*
X14084300Y-21120100D01*
X13705681Y-21120100D01*
X14018197Y-20339050D01*
X14092524Y-20335540D01*
X14166850Y-20332030D01*
X14319250Y-20714603D01*
X14356272Y-20807562D01*
X14390306Y-20893069D01*
X14420206Y-20968239D01*
X14444825Y-21030185D01*
X14463017Y-21076022D01*
X14473633Y-21102865D01*
X14475884Y-21108637D01*
X14808200Y-21108637D01*
X14808200Y-20002500D01*
X13373100Y-20002500D01*
X13373100Y-21437600D01*
X13373100Y-21437600D01*
G37*
X13373100Y-21437600D02*
X14808200Y-21437600D01*
X14808200Y-21108637D01*
X14475884Y-21108637D01*
X14466598Y-21114489D01*
X14438186Y-21118620D01*
X14398979Y-21120100D01*
X14317842Y-21120100D01*
X14210596Y-20840919D01*
X14180061Y-20762303D01*
X14152204Y-20692234D01*
X14128383Y-20633998D01*
X14109959Y-20590879D01*
X14098289Y-20566163D01*
X14095013Y-20561519D01*
X14088133Y-20572668D01*
X14073839Y-20603638D01*
X14053742Y-20650509D01*
X14029450Y-20709357D01*
X14002573Y-20776263D01*
X13974721Y-20847304D01*
X13947502Y-20918558D01*
X13937437Y-20945475D01*
X13935705Y-20957745D01*
X13945421Y-20964465D01*
X13971591Y-20967240D01*
X14006742Y-20967700D01*
X14084300Y-20967700D01*
X14084300Y-21120100D01*
X13705681Y-21120100D01*
X14018197Y-20339050D01*
X14092524Y-20335540D01*
X14166850Y-20332030D01*
X14319250Y-20714603D01*
X14356272Y-20807562D01*
X14390306Y-20893069D01*
X14420206Y-20968239D01*
X14444825Y-21030185D01*
X14463017Y-21076022D01*
X14473633Y-21102865D01*
X14475884Y-21108637D01*
X14808200Y-21108637D01*
X14808200Y-20002500D01*
X13373100Y-20002500D01*
X13373100Y-21437600D01*
G36*
X11785600Y-21437600D02*
G01*
X13220700Y-21437600D01*
X13220700Y-21112732D01*
X12882440Y-21112732D01*
X12867192Y-21117696D01*
X12832004Y-21119848D01*
X12804376Y-21120100D01*
X12715141Y-21120100D01*
X12615954Y-20986750D01*
X12578329Y-20937115D01*
X12545709Y-20895860D01*
X12521213Y-20866801D01*
X12507959Y-20853754D01*
X12506981Y-20853400D01*
X12496173Y-20863038D01*
X12473564Y-20889402D01*
X12442277Y-20928664D01*
X12405437Y-20976998D01*
X12398573Y-20986210D01*
X12299950Y-21119020D01*
X12214225Y-21119560D01*
X12171287Y-21118910D01*
X12140533Y-21116688D01*
X12128505Y-21113372D01*
X12128500Y-21113301D01*
X12135776Y-21101443D01*
X12155957Y-21072763D01*
X12186579Y-21030657D01*
X12225174Y-20978523D01*
X12262312Y-20928988D01*
X12306433Y-20869940D01*
X12345284Y-20816970D01*
X12376206Y-20773781D01*
X12396542Y-20744073D01*
X12403436Y-20732414D01*
X12403460Y-20723960D01*
X12397843Y-20709689D01*
X12385209Y-20687602D01*
X12364181Y-20655700D01*
X12333381Y-20611982D01*
X12291432Y-20554450D01*
X12236958Y-20481103D01*
X12168580Y-20389942D01*
X12156562Y-20373975D01*
X12125486Y-20332700D01*
X12300868Y-20332700D01*
X12400054Y-20466050D01*
X12437541Y-20515605D01*
X12469849Y-20556730D01*
X12493909Y-20585636D01*
X12506655Y-20598532D01*
X12507546Y-20598860D01*
X12517796Y-20589025D01*
X12539935Y-20562509D01*
X12570885Y-20523148D01*
X12607567Y-20474784D01*
X12614473Y-20465510D01*
X12713095Y-20332700D01*
X12795448Y-20332700D01*
X12837435Y-20333656D01*
X12867104Y-20336158D01*
X12877800Y-20339498D01*
X12870541Y-20351382D01*
X12850420Y-20380066D01*
X12819926Y-20422113D01*
X12781545Y-20474087D01*
X12746855Y-20520473D01*
X12703171Y-20578758D01*
X12664552Y-20630620D01*
X12633717Y-20672385D01*
X12613380Y-20700377D01*
X12606591Y-20710225D01*
X12611017Y-20725176D01*
X12629708Y-20757716D01*
X12661085Y-20805579D01*
X12703569Y-20866501D01*
X12755580Y-20938216D01*
X12815540Y-21018461D01*
X12881292Y-21104225D01*
X12882440Y-21112732D01*
X13220700Y-21112732D01*
X13220700Y-20002500D01*
X11785600Y-20002500D01*
X11785600Y-21437600D01*
X11785600Y-21437600D01*
G37*
X11785600Y-21437600D02*
X13220700Y-21437600D01*
X13220700Y-21112732D01*
X12882440Y-21112732D01*
X12867192Y-21117696D01*
X12832004Y-21119848D01*
X12804376Y-21120100D01*
X12715141Y-21120100D01*
X12615954Y-20986750D01*
X12578329Y-20937115D01*
X12545709Y-20895860D01*
X12521213Y-20866801D01*
X12507959Y-20853754D01*
X12506981Y-20853400D01*
X12496173Y-20863038D01*
X12473564Y-20889402D01*
X12442277Y-20928664D01*
X12405437Y-20976998D01*
X12398573Y-20986210D01*
X12299950Y-21119020D01*
X12214225Y-21119560D01*
X12171287Y-21118910D01*
X12140533Y-21116688D01*
X12128505Y-21113372D01*
X12128500Y-21113301D01*
X12135776Y-21101443D01*
X12155957Y-21072763D01*
X12186579Y-21030657D01*
X12225174Y-20978523D01*
X12262312Y-20928988D01*
X12306433Y-20869940D01*
X12345284Y-20816970D01*
X12376206Y-20773781D01*
X12396542Y-20744073D01*
X12403436Y-20732414D01*
X12403460Y-20723960D01*
X12397843Y-20709689D01*
X12385209Y-20687602D01*
X12364181Y-20655700D01*
X12333381Y-20611982D01*
X12291432Y-20554450D01*
X12236958Y-20481103D01*
X12168580Y-20389942D01*
X12156562Y-20373975D01*
X12125486Y-20332700D01*
X12300868Y-20332700D01*
X12400054Y-20466050D01*
X12437541Y-20515605D01*
X12469849Y-20556730D01*
X12493909Y-20585636D01*
X12506655Y-20598532D01*
X12507546Y-20598860D01*
X12517796Y-20589025D01*
X12539935Y-20562509D01*
X12570885Y-20523148D01*
X12607567Y-20474784D01*
X12614473Y-20465510D01*
X12713095Y-20332700D01*
X12795448Y-20332700D01*
X12837435Y-20333656D01*
X12867104Y-20336158D01*
X12877800Y-20339498D01*
X12870541Y-20351382D01*
X12850420Y-20380066D01*
X12819926Y-20422113D01*
X12781545Y-20474087D01*
X12746855Y-20520473D01*
X12703171Y-20578758D01*
X12664552Y-20630620D01*
X12633717Y-20672385D01*
X12613380Y-20700377D01*
X12606591Y-20710225D01*
X12611017Y-20725176D01*
X12629708Y-20757716D01*
X12661085Y-20805579D01*
X12703569Y-20866501D01*
X12755580Y-20938216D01*
X12815540Y-21018461D01*
X12881292Y-21104225D01*
X12882440Y-21112732D01*
X13220700Y-21112732D01*
X13220700Y-20002500D01*
X11785600Y-20002500D01*
X11785600Y-21437600D01*
G36*
X10198100Y-21437600D02*
G01*
X11633200Y-21437600D01*
X11633200Y-20332700D01*
X11315700Y-20332700D01*
X11315700Y-20485100D01*
X10998200Y-20485100D01*
X10998200Y-21120100D01*
X10845800Y-21120100D01*
X10845800Y-20485100D01*
X10528300Y-20485100D01*
X10528300Y-20332700D01*
X11315700Y-20332700D01*
X11633200Y-20332700D01*
X11633200Y-20002500D01*
X10198100Y-20002500D01*
X10198100Y-21437600D01*
X10198100Y-21437600D01*
G37*
X10198100Y-21437600D02*
X11633200Y-21437600D01*
X11633200Y-20332700D01*
X11315700Y-20332700D01*
X11315700Y-20485100D01*
X10998200Y-20485100D01*
X10998200Y-21120100D01*
X10845800Y-21120100D01*
X10845800Y-20485100D01*
X10528300Y-20485100D01*
X10528300Y-20332700D01*
X11315700Y-20332700D01*
X11633200Y-20332700D01*
X11633200Y-20002500D01*
X10198100Y-20002500D01*
X10198100Y-21437600D01*
G36*
X8610600Y-21437600D02*
G01*
X10045700Y-21437600D01*
X10045700Y-20332700D01*
X9728200Y-20332700D01*
X9728200Y-21120100D01*
X8940800Y-21120100D01*
X8940800Y-20967700D01*
X9575800Y-20967700D01*
X9575800Y-20802600D01*
X9093200Y-20802600D01*
X9093200Y-20650200D01*
X9575800Y-20650200D01*
X9575800Y-20485100D01*
X8940800Y-20485100D01*
X8940800Y-20332700D01*
X9728200Y-20332700D01*
X10045700Y-20332700D01*
X10045700Y-20002500D01*
X8610600Y-20002500D01*
X8610600Y-21437600D01*
X8610600Y-21437600D01*
G37*
X8610600Y-21437600D02*
X10045700Y-21437600D01*
X10045700Y-20332700D01*
X9728200Y-20332700D01*
X9728200Y-21120100D01*
X8940800Y-21120100D01*
X8940800Y-20967700D01*
X9575800Y-20967700D01*
X9575800Y-20802600D01*
X9093200Y-20802600D01*
X9093200Y-20650200D01*
X9575800Y-20650200D01*
X9575800Y-20485100D01*
X8940800Y-20485100D01*
X8940800Y-20332700D01*
X9728200Y-20332700D01*
X10045700Y-20332700D01*
X10045700Y-20002500D01*
X8610600Y-20002500D01*
X8610600Y-21437600D01*
G36*
X7023100Y-21437600D02*
G01*
X8458200Y-21437600D01*
X8458200Y-20332700D01*
X8140700Y-20332700D01*
X8140700Y-21120100D01*
X7353300Y-21120100D01*
X7353300Y-20967700D01*
X7988300Y-20967700D01*
X7988300Y-20485100D01*
X7353300Y-20485100D01*
X7353300Y-20332700D01*
X8140700Y-20332700D01*
X8458200Y-20332700D01*
X8458200Y-20002500D01*
X7023100Y-20002500D01*
X7023100Y-21437600D01*
X7023100Y-21437600D01*
G37*
X7023100Y-21437600D02*
X8458200Y-21437600D01*
X8458200Y-20332700D01*
X8140700Y-20332700D01*
X8140700Y-21120100D01*
X7353300Y-21120100D01*
X7353300Y-20967700D01*
X7988300Y-20967700D01*
X7988300Y-20485100D01*
X7353300Y-20485100D01*
X7353300Y-20332700D01*
X8140700Y-20332700D01*
X8458200Y-20332700D01*
X8458200Y-20002500D01*
X7023100Y-20002500D01*
X7023100Y-21437600D01*
M02*
