G04 #@! TF.GenerationSoftware,KiCad,Pcbnew,(5.1.0)-1*
G04 #@! TF.CreationDate,2019-06-21T14:45:16-03:00*
G04 #@! TF.ProjectId,PCB_E,5043425f-452e-46b6-9963-61645f706362,rev?*
G04 #@! TF.SameCoordinates,Original*
G04 #@! TF.FileFunction,Soldermask,Bot*
G04 #@! TF.FilePolarity,Negative*
%FSLAX46Y46*%
G04 Gerber Fmt 4.6, Leading zero omitted, Abs format (unit mm)*
G04 Created by KiCad (PCBNEW (5.1.0)-1) date 2019-06-21 14:45:16*
%MOMM*%
%LPD*%
G04 APERTURE LIST*
%ADD10C,0.100000*%
G04 APERTURE END LIST*
D10*
G36*
X643798Y-16963408D02*
G01*
X962574Y-17026817D01*
X1563136Y-17275578D01*
X2103627Y-17636723D01*
X2563277Y-18096373D01*
X2924422Y-18636864D01*
X3173183Y-19237426D01*
X3300000Y-19874978D01*
X3300000Y-20525022D01*
X3173183Y-21162574D01*
X2924422Y-21763136D01*
X2563277Y-22303627D01*
X2103627Y-22763277D01*
X1563136Y-23124422D01*
X962574Y-23373183D01*
X643798Y-23436591D01*
X325023Y-23500000D01*
X-325023Y-23500000D01*
X-643798Y-23436591D01*
X-962574Y-23373183D01*
X-1563136Y-23124422D01*
X-2103627Y-22763277D01*
X-2563277Y-22303627D01*
X-2924422Y-21763136D01*
X-3173183Y-21162574D01*
X-3300000Y-20525022D01*
X-3300000Y-19874978D01*
X-3173183Y-19237426D01*
X-2924422Y-18636864D01*
X-2563277Y-18096373D01*
X-2103627Y-17636723D01*
X-1563136Y-17275578D01*
X-962574Y-17026817D01*
X-643798Y-16963408D01*
X-325023Y-16900000D01*
X325023Y-16900000D01*
X643798Y-16963408D01*
X643798Y-16963408D01*
G37*
G36*
X13208707Y-14442597D02*
G01*
X13285836Y-14450194D01*
X13483762Y-14510234D01*
X13483765Y-14510235D01*
X13666170Y-14607733D01*
X13826055Y-14738946D01*
X13957268Y-14898831D01*
X14054766Y-15081236D01*
X14054767Y-15081239D01*
X14114807Y-15279165D01*
X14135080Y-15485001D01*
X14114807Y-15690837D01*
X14062351Y-15863762D01*
X14054766Y-15888766D01*
X13957268Y-16071171D01*
X13826055Y-16231056D01*
X13666170Y-16362269D01*
X13483765Y-16459767D01*
X13483762Y-16459768D01*
X13285836Y-16519808D01*
X13208707Y-16527405D01*
X13131580Y-16535001D01*
X13028420Y-16535001D01*
X12951293Y-16527405D01*
X12874164Y-16519808D01*
X12676238Y-16459768D01*
X12676235Y-16459767D01*
X12493830Y-16362269D01*
X12333945Y-16231056D01*
X12202732Y-16071171D01*
X12105234Y-15888766D01*
X12097649Y-15863762D01*
X12045193Y-15690837D01*
X12024920Y-15485001D01*
X12045193Y-15279165D01*
X12105233Y-15081239D01*
X12105234Y-15081236D01*
X12202732Y-14898831D01*
X12333945Y-14738946D01*
X12493830Y-14607733D01*
X12676235Y-14510235D01*
X12676238Y-14510234D01*
X12874164Y-14450194D01*
X12951293Y-14442597D01*
X13028420Y-14435001D01*
X13131580Y-14435001D01*
X13208707Y-14442597D01*
X13208707Y-14442597D01*
G37*
G36*
X-14731293Y-14442597D02*
G01*
X-14654164Y-14450194D01*
X-14456238Y-14510234D01*
X-14456235Y-14510235D01*
X-14273830Y-14607733D01*
X-14113945Y-14738946D01*
X-13982732Y-14898831D01*
X-13885234Y-15081236D01*
X-13885233Y-15081239D01*
X-13825193Y-15279165D01*
X-13804920Y-15485001D01*
X-13825193Y-15690837D01*
X-13877649Y-15863762D01*
X-13885234Y-15888766D01*
X-13982732Y-16071171D01*
X-14113945Y-16231056D01*
X-14273830Y-16362269D01*
X-14456235Y-16459767D01*
X-14456238Y-16459768D01*
X-14654164Y-16519808D01*
X-14731293Y-16527405D01*
X-14808420Y-16535001D01*
X-14911580Y-16535001D01*
X-14988707Y-16527405D01*
X-15065836Y-16519808D01*
X-15263762Y-16459768D01*
X-15263765Y-16459767D01*
X-15446170Y-16362269D01*
X-15606055Y-16231056D01*
X-15737268Y-16071171D01*
X-15834766Y-15888766D01*
X-15842351Y-15863762D01*
X-15894807Y-15690837D01*
X-15915080Y-15485001D01*
X-15894807Y-15279165D01*
X-15834767Y-15081239D01*
X-15834766Y-15081236D01*
X-15737268Y-14898831D01*
X-15606055Y-14738946D01*
X-15446170Y-14607733D01*
X-15263765Y-14510235D01*
X-15263762Y-14510234D01*
X-15065836Y-14450194D01*
X-14988707Y-14442597D01*
X-14911580Y-14435001D01*
X-14808420Y-14435001D01*
X-14731293Y-14442597D01*
X-14731293Y-14442597D01*
G37*
G36*
X-12191293Y-14442597D02*
G01*
X-12114164Y-14450194D01*
X-11916238Y-14510234D01*
X-11916235Y-14510235D01*
X-11733830Y-14607733D01*
X-11573945Y-14738946D01*
X-11442732Y-14898831D01*
X-11345234Y-15081236D01*
X-11345233Y-15081239D01*
X-11285193Y-15279165D01*
X-11264920Y-15485001D01*
X-11285193Y-15690837D01*
X-11337649Y-15863762D01*
X-11345234Y-15888766D01*
X-11442732Y-16071171D01*
X-11573945Y-16231056D01*
X-11733830Y-16362269D01*
X-11916235Y-16459767D01*
X-11916238Y-16459768D01*
X-12114164Y-16519808D01*
X-12191293Y-16527405D01*
X-12268420Y-16535001D01*
X-12371580Y-16535001D01*
X-12448707Y-16527405D01*
X-12525836Y-16519808D01*
X-12723762Y-16459768D01*
X-12723765Y-16459767D01*
X-12906170Y-16362269D01*
X-13066055Y-16231056D01*
X-13197268Y-16071171D01*
X-13294766Y-15888766D01*
X-13302351Y-15863762D01*
X-13354807Y-15690837D01*
X-13375080Y-15485001D01*
X-13354807Y-15279165D01*
X-13294767Y-15081239D01*
X-13294766Y-15081236D01*
X-13197268Y-14898831D01*
X-13066055Y-14738946D01*
X-12906170Y-14607733D01*
X-12723765Y-14510235D01*
X-12723762Y-14510234D01*
X-12525836Y-14450194D01*
X-12448707Y-14442597D01*
X-12371580Y-14435001D01*
X-12268420Y-14435001D01*
X-12191293Y-14442597D01*
X-12191293Y-14442597D01*
G37*
G36*
X10668707Y-14442597D02*
G01*
X10745836Y-14450194D01*
X10943762Y-14510234D01*
X10943765Y-14510235D01*
X11126170Y-14607733D01*
X11286055Y-14738946D01*
X11417268Y-14898831D01*
X11514766Y-15081236D01*
X11514767Y-15081239D01*
X11574807Y-15279165D01*
X11595080Y-15485001D01*
X11574807Y-15690837D01*
X11522351Y-15863762D01*
X11514766Y-15888766D01*
X11417268Y-16071171D01*
X11286055Y-16231056D01*
X11126170Y-16362269D01*
X10943765Y-16459767D01*
X10943762Y-16459768D01*
X10745836Y-16519808D01*
X10668707Y-16527405D01*
X10591580Y-16535001D01*
X10488420Y-16535001D01*
X10411293Y-16527405D01*
X10334164Y-16519808D01*
X10136238Y-16459768D01*
X10136235Y-16459767D01*
X9953830Y-16362269D01*
X9793945Y-16231056D01*
X9662732Y-16071171D01*
X9565234Y-15888766D01*
X9557649Y-15863762D01*
X9505193Y-15690837D01*
X9484920Y-15485001D01*
X9505193Y-15279165D01*
X9565233Y-15081239D01*
X9565234Y-15081236D01*
X9662732Y-14898831D01*
X9793945Y-14738946D01*
X9953830Y-14607733D01*
X10136235Y-14510235D01*
X10136238Y-14510234D01*
X10334164Y-14450194D01*
X10411293Y-14442597D01*
X10488420Y-14435001D01*
X10591580Y-14435001D01*
X10668707Y-14442597D01*
X10668707Y-14442597D01*
G37*
G36*
X-7111293Y-14442597D02*
G01*
X-7034164Y-14450194D01*
X-6836238Y-14510234D01*
X-6836235Y-14510235D01*
X-6653830Y-14607733D01*
X-6493945Y-14738946D01*
X-6362732Y-14898831D01*
X-6265234Y-15081236D01*
X-6265233Y-15081239D01*
X-6205193Y-15279165D01*
X-6184920Y-15485001D01*
X-6205193Y-15690837D01*
X-6257649Y-15863762D01*
X-6265234Y-15888766D01*
X-6362732Y-16071171D01*
X-6493945Y-16231056D01*
X-6653830Y-16362269D01*
X-6836235Y-16459767D01*
X-6836238Y-16459768D01*
X-7034164Y-16519808D01*
X-7111293Y-16527405D01*
X-7188420Y-16535001D01*
X-7291580Y-16535001D01*
X-7368707Y-16527405D01*
X-7445836Y-16519808D01*
X-7643762Y-16459768D01*
X-7643765Y-16459767D01*
X-7826170Y-16362269D01*
X-7986055Y-16231056D01*
X-8117268Y-16071171D01*
X-8214766Y-15888766D01*
X-8222351Y-15863762D01*
X-8274807Y-15690837D01*
X-8295080Y-15485001D01*
X-8274807Y-15279165D01*
X-8214767Y-15081239D01*
X-8214766Y-15081236D01*
X-8117268Y-14898831D01*
X-7986055Y-14738946D01*
X-7826170Y-14607733D01*
X-7643765Y-14510235D01*
X-7643762Y-14510234D01*
X-7445836Y-14450194D01*
X-7368707Y-14442597D01*
X-7291580Y-14435001D01*
X-7188420Y-14435001D01*
X-7111293Y-14442597D01*
X-7111293Y-14442597D01*
G37*
G36*
X-9651293Y-14442597D02*
G01*
X-9574164Y-14450194D01*
X-9376238Y-14510234D01*
X-9376235Y-14510235D01*
X-9193830Y-14607733D01*
X-9033945Y-14738946D01*
X-8902732Y-14898831D01*
X-8805234Y-15081236D01*
X-8805233Y-15081239D01*
X-8745193Y-15279165D01*
X-8724920Y-15485001D01*
X-8745193Y-15690837D01*
X-8797649Y-15863762D01*
X-8805234Y-15888766D01*
X-8902732Y-16071171D01*
X-9033945Y-16231056D01*
X-9193830Y-16362269D01*
X-9376235Y-16459767D01*
X-9376238Y-16459768D01*
X-9574164Y-16519808D01*
X-9651293Y-16527405D01*
X-9728420Y-16535001D01*
X-9831580Y-16535001D01*
X-9908707Y-16527405D01*
X-9985836Y-16519808D01*
X-10183762Y-16459768D01*
X-10183765Y-16459767D01*
X-10366170Y-16362269D01*
X-10526055Y-16231056D01*
X-10657268Y-16071171D01*
X-10754766Y-15888766D01*
X-10762351Y-15863762D01*
X-10814807Y-15690837D01*
X-10835080Y-15485001D01*
X-10814807Y-15279165D01*
X-10754767Y-15081239D01*
X-10754766Y-15081236D01*
X-10657268Y-14898831D01*
X-10526055Y-14738946D01*
X-10366170Y-14607733D01*
X-10183765Y-14510235D01*
X-10183762Y-14510234D01*
X-9985836Y-14450194D01*
X-9908707Y-14442597D01*
X-9831580Y-14435001D01*
X-9728420Y-14435001D01*
X-9651293Y-14442597D01*
X-9651293Y-14442597D01*
G37*
G36*
X5588707Y-14417596D02*
G01*
X5665836Y-14425193D01*
X5863762Y-14485233D01*
X5863765Y-14485234D01*
X6046170Y-14582732D01*
X6206055Y-14713945D01*
X6337268Y-14873830D01*
X6434766Y-15056235D01*
X6434767Y-15056238D01*
X6494807Y-15254164D01*
X6515080Y-15460000D01*
X6494807Y-15665836D01*
X6487223Y-15690837D01*
X6434766Y-15863765D01*
X6337268Y-16046170D01*
X6206055Y-16206055D01*
X6046170Y-16337268D01*
X5863765Y-16434766D01*
X5863762Y-16434767D01*
X5665836Y-16494807D01*
X5588707Y-16502403D01*
X5511580Y-16510000D01*
X5408420Y-16510000D01*
X5331293Y-16502403D01*
X5254164Y-16494807D01*
X5056238Y-16434767D01*
X5056235Y-16434766D01*
X4873830Y-16337268D01*
X4713945Y-16206055D01*
X4582732Y-16046170D01*
X4485234Y-15863765D01*
X4432777Y-15690837D01*
X4425193Y-15665836D01*
X4404920Y-15460000D01*
X4425193Y-15254164D01*
X4485233Y-15056238D01*
X4485234Y-15056235D01*
X4582732Y-14873830D01*
X4713945Y-14713945D01*
X4873830Y-14582732D01*
X5056235Y-14485234D01*
X5056238Y-14485233D01*
X5254164Y-14425193D01*
X5331293Y-14417596D01*
X5408420Y-14410000D01*
X5511580Y-14410000D01*
X5588707Y-14417596D01*
X5588707Y-14417596D01*
G37*
G36*
X8128707Y-14417596D02*
G01*
X8205836Y-14425193D01*
X8403762Y-14485233D01*
X8403765Y-14485234D01*
X8586170Y-14582732D01*
X8746055Y-14713945D01*
X8877268Y-14873830D01*
X8974766Y-15056235D01*
X8974767Y-15056238D01*
X9034807Y-15254164D01*
X9055080Y-15460000D01*
X9034807Y-15665836D01*
X9027223Y-15690837D01*
X8974766Y-15863765D01*
X8877268Y-16046170D01*
X8746055Y-16206055D01*
X8586170Y-16337268D01*
X8403765Y-16434766D01*
X8403762Y-16434767D01*
X8205836Y-16494807D01*
X8128707Y-16502403D01*
X8051580Y-16510000D01*
X7948420Y-16510000D01*
X7871293Y-16502403D01*
X7794164Y-16494807D01*
X7596238Y-16434767D01*
X7596235Y-16434766D01*
X7413830Y-16337268D01*
X7253945Y-16206055D01*
X7122732Y-16046170D01*
X7025234Y-15863765D01*
X6972777Y-15690837D01*
X6965193Y-15665836D01*
X6944920Y-15460000D01*
X6965193Y-15254164D01*
X7025233Y-15056238D01*
X7025234Y-15056235D01*
X7122732Y-14873830D01*
X7253945Y-14713945D01*
X7413830Y-14582732D01*
X7596235Y-14485234D01*
X7596238Y-14485233D01*
X7794164Y-14425193D01*
X7871293Y-14417596D01*
X7948420Y-14410000D01*
X8051580Y-14410000D01*
X8128707Y-14417596D01*
X8128707Y-14417596D01*
G37*
G36*
X-2031293Y-14417596D02*
G01*
X-1954164Y-14425193D01*
X-1756238Y-14485233D01*
X-1756235Y-14485234D01*
X-1573830Y-14582732D01*
X-1413945Y-14713945D01*
X-1282732Y-14873830D01*
X-1185234Y-15056235D01*
X-1185233Y-15056238D01*
X-1125193Y-15254164D01*
X-1104920Y-15460000D01*
X-1125193Y-15665836D01*
X-1132777Y-15690837D01*
X-1185234Y-15863765D01*
X-1282732Y-16046170D01*
X-1413945Y-16206055D01*
X-1573830Y-16337268D01*
X-1756235Y-16434766D01*
X-1756238Y-16434767D01*
X-1954164Y-16494807D01*
X-2031293Y-16502403D01*
X-2108420Y-16510000D01*
X-2211580Y-16510000D01*
X-2288707Y-16502403D01*
X-2365836Y-16494807D01*
X-2563762Y-16434767D01*
X-2563765Y-16434766D01*
X-2746170Y-16337268D01*
X-2906055Y-16206055D01*
X-3037268Y-16046170D01*
X-3134766Y-15863765D01*
X-3187223Y-15690837D01*
X-3194807Y-15665836D01*
X-3215080Y-15460000D01*
X-3194807Y-15254164D01*
X-3134767Y-15056238D01*
X-3134766Y-15056235D01*
X-3037268Y-14873830D01*
X-2906055Y-14713945D01*
X-2746170Y-14582732D01*
X-2563765Y-14485234D01*
X-2563762Y-14485233D01*
X-2365836Y-14425193D01*
X-2288707Y-14417596D01*
X-2211580Y-14410000D01*
X-2108420Y-14410000D01*
X-2031293Y-14417596D01*
X-2031293Y-14417596D01*
G37*
G36*
X-4571293Y-14417596D02*
G01*
X-4494164Y-14425193D01*
X-4296238Y-14485233D01*
X-4296235Y-14485234D01*
X-4113830Y-14582732D01*
X-3953945Y-14713945D01*
X-3822732Y-14873830D01*
X-3725234Y-15056235D01*
X-3725233Y-15056238D01*
X-3665193Y-15254164D01*
X-3644920Y-15460000D01*
X-3665193Y-15665836D01*
X-3672777Y-15690837D01*
X-3725234Y-15863765D01*
X-3822732Y-16046170D01*
X-3953945Y-16206055D01*
X-4113830Y-16337268D01*
X-4296235Y-16434766D01*
X-4296238Y-16434767D01*
X-4494164Y-16494807D01*
X-4571293Y-16502403D01*
X-4648420Y-16510000D01*
X-4751580Y-16510000D01*
X-4828707Y-16502403D01*
X-4905836Y-16494807D01*
X-5103762Y-16434767D01*
X-5103765Y-16434766D01*
X-5286170Y-16337268D01*
X-5446055Y-16206055D01*
X-5577268Y-16046170D01*
X-5674766Y-15863765D01*
X-5727223Y-15690837D01*
X-5734807Y-15665836D01*
X-5755080Y-15460000D01*
X-5734807Y-15254164D01*
X-5674767Y-15056238D01*
X-5674766Y-15056235D01*
X-5577268Y-14873830D01*
X-5446055Y-14713945D01*
X-5286170Y-14582732D01*
X-5103765Y-14485234D01*
X-5103762Y-14485233D01*
X-4905836Y-14425193D01*
X-4828707Y-14417596D01*
X-4751580Y-14410000D01*
X-4648420Y-14410000D01*
X-4571293Y-14417596D01*
X-4571293Y-14417596D01*
G37*
G36*
X3048707Y-14417596D02*
G01*
X3125836Y-14425193D01*
X3323762Y-14485233D01*
X3323765Y-14485234D01*
X3506170Y-14582732D01*
X3666055Y-14713945D01*
X3797268Y-14873830D01*
X3894766Y-15056235D01*
X3894767Y-15056238D01*
X3954807Y-15254164D01*
X3975080Y-15460000D01*
X3954807Y-15665836D01*
X3947223Y-15690837D01*
X3894766Y-15863765D01*
X3797268Y-16046170D01*
X3666055Y-16206055D01*
X3506170Y-16337268D01*
X3323765Y-16434766D01*
X3323762Y-16434767D01*
X3125836Y-16494807D01*
X3048707Y-16502403D01*
X2971580Y-16510000D01*
X2868420Y-16510000D01*
X2791293Y-16502403D01*
X2714164Y-16494807D01*
X2516238Y-16434767D01*
X2516235Y-16434766D01*
X2333830Y-16337268D01*
X2173945Y-16206055D01*
X2042732Y-16046170D01*
X1945234Y-15863765D01*
X1892777Y-15690837D01*
X1885193Y-15665836D01*
X1864920Y-15460000D01*
X1885193Y-15254164D01*
X1945233Y-15056238D01*
X1945234Y-15056235D01*
X2042732Y-14873830D01*
X2173945Y-14713945D01*
X2333830Y-14582732D01*
X2516235Y-14485234D01*
X2516238Y-14485233D01*
X2714164Y-14425193D01*
X2791293Y-14417596D01*
X2868420Y-14410000D01*
X2971580Y-14410000D01*
X3048707Y-14417596D01*
X3048707Y-14417596D01*
G37*
G36*
X508707Y-14417596D02*
G01*
X585836Y-14425193D01*
X783762Y-14485233D01*
X783765Y-14485234D01*
X966170Y-14582732D01*
X1126055Y-14713945D01*
X1257268Y-14873830D01*
X1354766Y-15056235D01*
X1354767Y-15056238D01*
X1414807Y-15254164D01*
X1435080Y-15460000D01*
X1414807Y-15665836D01*
X1407223Y-15690837D01*
X1354766Y-15863765D01*
X1257268Y-16046170D01*
X1126055Y-16206055D01*
X966170Y-16337268D01*
X783765Y-16434766D01*
X783762Y-16434767D01*
X585836Y-16494807D01*
X508707Y-16502403D01*
X431580Y-16510000D01*
X328420Y-16510000D01*
X251293Y-16502403D01*
X174164Y-16494807D01*
X-23762Y-16434767D01*
X-23765Y-16434766D01*
X-206170Y-16337268D01*
X-366055Y-16206055D01*
X-497268Y-16046170D01*
X-594766Y-15863765D01*
X-647223Y-15690837D01*
X-654807Y-15665836D01*
X-675080Y-15460000D01*
X-654807Y-15254164D01*
X-594767Y-15056238D01*
X-594766Y-15056235D01*
X-497268Y-14873830D01*
X-366055Y-14713945D01*
X-206170Y-14582732D01*
X-23765Y-14485234D01*
X-23762Y-14485233D01*
X174164Y-14425193D01*
X251293Y-14417596D01*
X328420Y-14410000D01*
X431580Y-14410000D01*
X508707Y-14417596D01*
X508707Y-14417596D01*
G37*
G36*
X-12191293Y-11902597D02*
G01*
X-12114164Y-11910194D01*
X-11916238Y-11970234D01*
X-11916235Y-11970235D01*
X-11733830Y-12067733D01*
X-11573945Y-12198946D01*
X-11442732Y-12358831D01*
X-11345234Y-12541236D01*
X-11345233Y-12541239D01*
X-11285193Y-12739165D01*
X-11264920Y-12945001D01*
X-11285193Y-13150837D01*
X-11337649Y-13323762D01*
X-11345234Y-13348766D01*
X-11442732Y-13531171D01*
X-11573945Y-13691056D01*
X-11733830Y-13822269D01*
X-11916235Y-13919767D01*
X-11916238Y-13919768D01*
X-12114164Y-13979808D01*
X-12191293Y-13987405D01*
X-12268420Y-13995001D01*
X-12371580Y-13995001D01*
X-12448707Y-13987405D01*
X-12525836Y-13979808D01*
X-12723762Y-13919768D01*
X-12723765Y-13919767D01*
X-12906170Y-13822269D01*
X-13066055Y-13691056D01*
X-13197268Y-13531171D01*
X-13294766Y-13348766D01*
X-13302351Y-13323762D01*
X-13354807Y-13150837D01*
X-13375080Y-12945001D01*
X-13354807Y-12739165D01*
X-13294767Y-12541239D01*
X-13294766Y-12541236D01*
X-13197268Y-12358831D01*
X-13066055Y-12198946D01*
X-12906170Y-12067733D01*
X-12723765Y-11970235D01*
X-12723762Y-11970234D01*
X-12525836Y-11910194D01*
X-12448707Y-11902597D01*
X-12371580Y-11895001D01*
X-12268420Y-11895001D01*
X-12191293Y-11902597D01*
X-12191293Y-11902597D01*
G37*
G36*
X-14731293Y-11902598D02*
G01*
X-14654164Y-11910194D01*
X-14456238Y-11970234D01*
X-14456235Y-11970235D01*
X-14273830Y-12067733D01*
X-14113945Y-12198946D01*
X-13982732Y-12358831D01*
X-13885234Y-12541236D01*
X-13885233Y-12541239D01*
X-13825193Y-12739165D01*
X-13804920Y-12945001D01*
X-13825193Y-13150837D01*
X-13877649Y-13323762D01*
X-13885234Y-13348766D01*
X-13982732Y-13531171D01*
X-14113945Y-13691056D01*
X-14273830Y-13822269D01*
X-14456235Y-13919767D01*
X-14456238Y-13919768D01*
X-14654164Y-13979808D01*
X-14731293Y-13987405D01*
X-14808420Y-13995001D01*
X-14911580Y-13995001D01*
X-14988707Y-13987405D01*
X-15065836Y-13979808D01*
X-15263762Y-13919768D01*
X-15263765Y-13919767D01*
X-15446170Y-13822269D01*
X-15606055Y-13691056D01*
X-15737268Y-13531171D01*
X-15834766Y-13348766D01*
X-15842351Y-13323762D01*
X-15894807Y-13150837D01*
X-15915080Y-12945001D01*
X-15894807Y-12739165D01*
X-15834767Y-12541239D01*
X-15834766Y-12541236D01*
X-15737268Y-12358831D01*
X-15606055Y-12198946D01*
X-15446170Y-12067733D01*
X-15263765Y-11970235D01*
X-15263762Y-11970234D01*
X-15065836Y-11910194D01*
X-14988707Y-11902597D01*
X-14911580Y-11895001D01*
X-14808420Y-11895001D01*
X-14731293Y-11902598D01*
X-14731293Y-11902598D01*
G37*
G36*
X10668707Y-11902597D02*
G01*
X10745836Y-11910194D01*
X10943762Y-11970234D01*
X10943765Y-11970235D01*
X11126170Y-12067733D01*
X11286055Y-12198946D01*
X11417268Y-12358831D01*
X11514766Y-12541236D01*
X11514767Y-12541239D01*
X11574807Y-12739165D01*
X11595080Y-12945001D01*
X11574807Y-13150837D01*
X11522351Y-13323762D01*
X11514766Y-13348766D01*
X11417268Y-13531171D01*
X11286055Y-13691056D01*
X11126170Y-13822269D01*
X10943765Y-13919767D01*
X10943762Y-13919768D01*
X10745836Y-13979808D01*
X10668707Y-13987405D01*
X10591580Y-13995001D01*
X10488420Y-13995001D01*
X10411293Y-13987405D01*
X10334164Y-13979808D01*
X10136238Y-13919768D01*
X10136235Y-13919767D01*
X9953830Y-13822269D01*
X9793945Y-13691056D01*
X9662732Y-13531171D01*
X9565234Y-13348766D01*
X9557649Y-13323762D01*
X9505193Y-13150837D01*
X9484920Y-12945001D01*
X9505193Y-12739165D01*
X9565233Y-12541239D01*
X9565234Y-12541236D01*
X9662732Y-12358831D01*
X9793945Y-12198946D01*
X9953830Y-12067733D01*
X10136235Y-11970235D01*
X10136238Y-11970234D01*
X10334164Y-11910194D01*
X10411293Y-11902597D01*
X10488420Y-11895001D01*
X10591580Y-11895001D01*
X10668707Y-11902597D01*
X10668707Y-11902597D01*
G37*
G36*
X-7111293Y-11902597D02*
G01*
X-7034164Y-11910194D01*
X-6836238Y-11970234D01*
X-6836235Y-11970235D01*
X-6653830Y-12067733D01*
X-6493945Y-12198946D01*
X-6362732Y-12358831D01*
X-6265234Y-12541236D01*
X-6265233Y-12541239D01*
X-6205193Y-12739165D01*
X-6184920Y-12945001D01*
X-6205193Y-13150837D01*
X-6257649Y-13323762D01*
X-6265234Y-13348766D01*
X-6362732Y-13531171D01*
X-6493945Y-13691056D01*
X-6653830Y-13822269D01*
X-6836235Y-13919767D01*
X-6836238Y-13919768D01*
X-7034164Y-13979808D01*
X-7111293Y-13987405D01*
X-7188420Y-13995001D01*
X-7291580Y-13995001D01*
X-7368707Y-13987405D01*
X-7445836Y-13979808D01*
X-7643762Y-13919768D01*
X-7643765Y-13919767D01*
X-7826170Y-13822269D01*
X-7986055Y-13691056D01*
X-8117268Y-13531171D01*
X-8214766Y-13348766D01*
X-8222351Y-13323762D01*
X-8274807Y-13150837D01*
X-8295080Y-12945001D01*
X-8274807Y-12739165D01*
X-8214767Y-12541239D01*
X-8214766Y-12541236D01*
X-8117268Y-12358831D01*
X-7986055Y-12198946D01*
X-7826170Y-12067733D01*
X-7643765Y-11970235D01*
X-7643762Y-11970234D01*
X-7445836Y-11910194D01*
X-7368707Y-11902597D01*
X-7291580Y-11895001D01*
X-7188420Y-11895001D01*
X-7111293Y-11902597D01*
X-7111293Y-11902597D01*
G37*
G36*
X-9651293Y-11902597D02*
G01*
X-9574164Y-11910194D01*
X-9376238Y-11970234D01*
X-9376235Y-11970235D01*
X-9193830Y-12067733D01*
X-9033945Y-12198946D01*
X-8902732Y-12358831D01*
X-8805234Y-12541236D01*
X-8805233Y-12541239D01*
X-8745193Y-12739165D01*
X-8724920Y-12945001D01*
X-8745193Y-13150837D01*
X-8797649Y-13323762D01*
X-8805234Y-13348766D01*
X-8902732Y-13531171D01*
X-9033945Y-13691056D01*
X-9193830Y-13822269D01*
X-9376235Y-13919767D01*
X-9376238Y-13919768D01*
X-9574164Y-13979808D01*
X-9651293Y-13987405D01*
X-9728420Y-13995001D01*
X-9831580Y-13995001D01*
X-9908707Y-13987405D01*
X-9985836Y-13979808D01*
X-10183762Y-13919768D01*
X-10183765Y-13919767D01*
X-10366170Y-13822269D01*
X-10526055Y-13691056D01*
X-10657268Y-13531171D01*
X-10754766Y-13348766D01*
X-10762351Y-13323762D01*
X-10814807Y-13150837D01*
X-10835080Y-12945001D01*
X-10814807Y-12739165D01*
X-10754767Y-12541239D01*
X-10754766Y-12541236D01*
X-10657268Y-12358831D01*
X-10526055Y-12198946D01*
X-10366170Y-12067733D01*
X-10183765Y-11970235D01*
X-10183762Y-11970234D01*
X-9985836Y-11910194D01*
X-9908707Y-11902597D01*
X-9831580Y-11895001D01*
X-9728420Y-11895001D01*
X-9651293Y-11902597D01*
X-9651293Y-11902597D01*
G37*
G36*
X13208707Y-11902597D02*
G01*
X13285836Y-11910194D01*
X13483762Y-11970234D01*
X13483765Y-11970235D01*
X13666170Y-12067733D01*
X13826055Y-12198946D01*
X13957268Y-12358831D01*
X14054766Y-12541236D01*
X14054767Y-12541239D01*
X14114807Y-12739165D01*
X14135080Y-12945001D01*
X14114807Y-13150837D01*
X14062351Y-13323762D01*
X14054766Y-13348766D01*
X13957268Y-13531171D01*
X13826055Y-13691056D01*
X13666170Y-13822269D01*
X13483765Y-13919767D01*
X13483762Y-13919768D01*
X13285836Y-13979808D01*
X13208707Y-13987405D01*
X13131580Y-13995001D01*
X13028420Y-13995001D01*
X12951293Y-13987405D01*
X12874164Y-13979808D01*
X12676238Y-13919768D01*
X12676235Y-13919767D01*
X12493830Y-13822269D01*
X12333945Y-13691056D01*
X12202732Y-13531171D01*
X12105234Y-13348766D01*
X12097649Y-13323762D01*
X12045193Y-13150837D01*
X12024920Y-12945001D01*
X12045193Y-12739165D01*
X12105233Y-12541239D01*
X12105234Y-12541236D01*
X12202732Y-12358831D01*
X12333945Y-12198946D01*
X12493830Y-12067733D01*
X12676235Y-11970235D01*
X12676238Y-11970234D01*
X12874164Y-11910194D01*
X12951293Y-11902597D01*
X13028420Y-11895001D01*
X13131580Y-11895001D01*
X13208707Y-11902597D01*
X13208707Y-11902597D01*
G37*
G36*
X3048707Y-11877596D02*
G01*
X3125836Y-11885193D01*
X3323762Y-11945233D01*
X3323765Y-11945234D01*
X3506170Y-12042732D01*
X3666055Y-12173945D01*
X3797268Y-12333830D01*
X3894766Y-12516235D01*
X3894767Y-12516238D01*
X3954807Y-12714164D01*
X3975080Y-12920000D01*
X3954807Y-13125836D01*
X3947223Y-13150837D01*
X3894766Y-13323765D01*
X3797268Y-13506170D01*
X3666055Y-13666055D01*
X3506170Y-13797268D01*
X3323765Y-13894766D01*
X3323762Y-13894767D01*
X3125836Y-13954807D01*
X3048707Y-13962403D01*
X2971580Y-13970000D01*
X2868420Y-13970000D01*
X2791293Y-13962403D01*
X2714164Y-13954807D01*
X2516238Y-13894767D01*
X2516235Y-13894766D01*
X2333830Y-13797268D01*
X2173945Y-13666055D01*
X2042732Y-13506170D01*
X1945234Y-13323765D01*
X1892777Y-13150837D01*
X1885193Y-13125836D01*
X1864920Y-12920000D01*
X1885193Y-12714164D01*
X1945233Y-12516238D01*
X1945234Y-12516235D01*
X2042732Y-12333830D01*
X2173945Y-12173945D01*
X2333830Y-12042732D01*
X2516235Y-11945234D01*
X2516238Y-11945233D01*
X2714164Y-11885193D01*
X2791293Y-11877596D01*
X2868420Y-11870000D01*
X2971580Y-11870000D01*
X3048707Y-11877596D01*
X3048707Y-11877596D01*
G37*
G36*
X508707Y-11877596D02*
G01*
X585836Y-11885193D01*
X783762Y-11945233D01*
X783765Y-11945234D01*
X966170Y-12042732D01*
X1126055Y-12173945D01*
X1257268Y-12333830D01*
X1354766Y-12516235D01*
X1354767Y-12516238D01*
X1414807Y-12714164D01*
X1435080Y-12920000D01*
X1414807Y-13125836D01*
X1407223Y-13150837D01*
X1354766Y-13323765D01*
X1257268Y-13506170D01*
X1126055Y-13666055D01*
X966170Y-13797268D01*
X783765Y-13894766D01*
X783762Y-13894767D01*
X585836Y-13954807D01*
X508707Y-13962403D01*
X431580Y-13970000D01*
X328420Y-13970000D01*
X251293Y-13962403D01*
X174164Y-13954807D01*
X-23762Y-13894767D01*
X-23765Y-13894766D01*
X-206170Y-13797268D01*
X-366055Y-13666055D01*
X-497268Y-13506170D01*
X-594766Y-13323765D01*
X-647223Y-13150837D01*
X-654807Y-13125836D01*
X-675080Y-12920000D01*
X-654807Y-12714164D01*
X-594767Y-12516238D01*
X-594766Y-12516235D01*
X-497268Y-12333830D01*
X-366055Y-12173945D01*
X-206170Y-12042732D01*
X-23765Y-11945234D01*
X-23762Y-11945233D01*
X174164Y-11885193D01*
X251293Y-11877596D01*
X328420Y-11870000D01*
X431580Y-11870000D01*
X508707Y-11877596D01*
X508707Y-11877596D01*
G37*
G36*
X5588707Y-11877596D02*
G01*
X5665836Y-11885193D01*
X5863762Y-11945233D01*
X5863765Y-11945234D01*
X6046170Y-12042732D01*
X6206055Y-12173945D01*
X6337268Y-12333830D01*
X6434766Y-12516235D01*
X6434767Y-12516238D01*
X6494807Y-12714164D01*
X6515080Y-12920000D01*
X6494807Y-13125836D01*
X6487223Y-13150837D01*
X6434766Y-13323765D01*
X6337268Y-13506170D01*
X6206055Y-13666055D01*
X6046170Y-13797268D01*
X5863765Y-13894766D01*
X5863762Y-13894767D01*
X5665836Y-13954807D01*
X5588707Y-13962403D01*
X5511580Y-13970000D01*
X5408420Y-13970000D01*
X5331293Y-13962403D01*
X5254164Y-13954807D01*
X5056238Y-13894767D01*
X5056235Y-13894766D01*
X4873830Y-13797268D01*
X4713945Y-13666055D01*
X4582732Y-13506170D01*
X4485234Y-13323765D01*
X4432777Y-13150837D01*
X4425193Y-13125836D01*
X4404920Y-12920000D01*
X4425193Y-12714164D01*
X4485233Y-12516238D01*
X4485234Y-12516235D01*
X4582732Y-12333830D01*
X4713945Y-12173945D01*
X4873830Y-12042732D01*
X5056235Y-11945234D01*
X5056238Y-11945233D01*
X5254164Y-11885193D01*
X5331293Y-11877596D01*
X5408420Y-11870000D01*
X5511580Y-11870000D01*
X5588707Y-11877596D01*
X5588707Y-11877596D01*
G37*
G36*
X8128707Y-11877596D02*
G01*
X8205836Y-11885193D01*
X8403762Y-11945233D01*
X8403765Y-11945234D01*
X8586170Y-12042732D01*
X8746055Y-12173945D01*
X8877268Y-12333830D01*
X8974766Y-12516235D01*
X8974767Y-12516238D01*
X9034807Y-12714164D01*
X9055080Y-12920000D01*
X9034807Y-13125836D01*
X9027223Y-13150837D01*
X8974766Y-13323765D01*
X8877268Y-13506170D01*
X8746055Y-13666055D01*
X8586170Y-13797268D01*
X8403765Y-13894766D01*
X8403762Y-13894767D01*
X8205836Y-13954807D01*
X8128707Y-13962403D01*
X8051580Y-13970000D01*
X7948420Y-13970000D01*
X7871293Y-13962403D01*
X7794164Y-13954807D01*
X7596238Y-13894767D01*
X7596235Y-13894766D01*
X7413830Y-13797268D01*
X7253945Y-13666055D01*
X7122732Y-13506170D01*
X7025234Y-13323765D01*
X6972777Y-13150837D01*
X6965193Y-13125836D01*
X6944920Y-12920000D01*
X6965193Y-12714164D01*
X7025233Y-12516238D01*
X7025234Y-12516235D01*
X7122732Y-12333830D01*
X7253945Y-12173945D01*
X7413830Y-12042732D01*
X7596235Y-11945234D01*
X7596238Y-11945233D01*
X7794164Y-11885193D01*
X7871293Y-11877596D01*
X7948420Y-11870000D01*
X8051580Y-11870000D01*
X8128707Y-11877596D01*
X8128707Y-11877596D01*
G37*
G36*
X-4571293Y-11877596D02*
G01*
X-4494164Y-11885193D01*
X-4296238Y-11945233D01*
X-4296235Y-11945234D01*
X-4113830Y-12042732D01*
X-3953945Y-12173945D01*
X-3822732Y-12333830D01*
X-3725234Y-12516235D01*
X-3725233Y-12516238D01*
X-3665193Y-12714164D01*
X-3644920Y-12920000D01*
X-3665193Y-13125836D01*
X-3672777Y-13150837D01*
X-3725234Y-13323765D01*
X-3822732Y-13506170D01*
X-3953945Y-13666055D01*
X-4113830Y-13797268D01*
X-4296235Y-13894766D01*
X-4296238Y-13894767D01*
X-4494164Y-13954807D01*
X-4571293Y-13962403D01*
X-4648420Y-13970000D01*
X-4751580Y-13970000D01*
X-4828707Y-13962403D01*
X-4905836Y-13954807D01*
X-5103762Y-13894767D01*
X-5103765Y-13894766D01*
X-5286170Y-13797268D01*
X-5446055Y-13666055D01*
X-5577268Y-13506170D01*
X-5674766Y-13323765D01*
X-5727223Y-13150837D01*
X-5734807Y-13125836D01*
X-5755080Y-12920000D01*
X-5734807Y-12714164D01*
X-5674767Y-12516238D01*
X-5674766Y-12516235D01*
X-5577268Y-12333830D01*
X-5446055Y-12173945D01*
X-5286170Y-12042732D01*
X-5103765Y-11945234D01*
X-5103762Y-11945233D01*
X-4905836Y-11885193D01*
X-4828707Y-11877596D01*
X-4751580Y-11870000D01*
X-4648420Y-11870000D01*
X-4571293Y-11877596D01*
X-4571293Y-11877596D01*
G37*
G36*
X-2031293Y-11877596D02*
G01*
X-1954164Y-11885193D01*
X-1756238Y-11945233D01*
X-1756235Y-11945234D01*
X-1573830Y-12042732D01*
X-1413945Y-12173945D01*
X-1282732Y-12333830D01*
X-1185234Y-12516235D01*
X-1185233Y-12516238D01*
X-1125193Y-12714164D01*
X-1104920Y-12920000D01*
X-1125193Y-13125836D01*
X-1132777Y-13150837D01*
X-1185234Y-13323765D01*
X-1282732Y-13506170D01*
X-1413945Y-13666055D01*
X-1573830Y-13797268D01*
X-1756235Y-13894766D01*
X-1756238Y-13894767D01*
X-1954164Y-13954807D01*
X-2031293Y-13962403D01*
X-2108420Y-13970000D01*
X-2211580Y-13970000D01*
X-2288707Y-13962403D01*
X-2365836Y-13954807D01*
X-2563762Y-13894767D01*
X-2563765Y-13894766D01*
X-2746170Y-13797268D01*
X-2906055Y-13666055D01*
X-3037268Y-13506170D01*
X-3134766Y-13323765D01*
X-3187223Y-13150837D01*
X-3194807Y-13125836D01*
X-3215080Y-12920000D01*
X-3194807Y-12714164D01*
X-3134767Y-12516238D01*
X-3134766Y-12516235D01*
X-3037268Y-12333830D01*
X-2906055Y-12173945D01*
X-2746170Y-12042732D01*
X-2563765Y-11945234D01*
X-2563762Y-11945233D01*
X-2365836Y-11885193D01*
X-2288707Y-11877596D01*
X-2211580Y-11870000D01*
X-2108420Y-11870000D01*
X-2031293Y-11877596D01*
X-2031293Y-11877596D01*
G37*
G36*
X-13810000Y-11455001D02*
G01*
X-15910000Y-11455001D01*
X-15910000Y-9355001D01*
X-13810000Y-9355001D01*
X-13810000Y-11455001D01*
X-13810000Y-11455001D01*
G37*
G36*
X-11270000Y-11455001D02*
G01*
X-13370000Y-11455001D01*
X-13370000Y-9355001D01*
X-11270000Y-9355001D01*
X-11270000Y-11455001D01*
X-11270000Y-11455001D01*
G37*
G36*
X-9651293Y-9362598D02*
G01*
X-9574164Y-9370194D01*
X-9376238Y-9430234D01*
X-9376235Y-9430235D01*
X-9193830Y-9527733D01*
X-9033945Y-9658946D01*
X-8902732Y-9818831D01*
X-8805234Y-10001236D01*
X-8805233Y-10001239D01*
X-8745193Y-10199165D01*
X-8724920Y-10405001D01*
X-8745193Y-10610837D01*
X-8797649Y-10783762D01*
X-8805234Y-10808766D01*
X-8902732Y-10991171D01*
X-9033945Y-11151056D01*
X-9193830Y-11282269D01*
X-9376235Y-11379767D01*
X-9376238Y-11379768D01*
X-9574164Y-11439808D01*
X-9651293Y-11447404D01*
X-9728420Y-11455001D01*
X-9831580Y-11455001D01*
X-9908707Y-11447404D01*
X-9985836Y-11439808D01*
X-10183762Y-11379768D01*
X-10183765Y-11379767D01*
X-10366170Y-11282269D01*
X-10526055Y-11151056D01*
X-10657268Y-10991171D01*
X-10754766Y-10808766D01*
X-10762351Y-10783762D01*
X-10814807Y-10610837D01*
X-10835080Y-10405001D01*
X-10814807Y-10199165D01*
X-10754767Y-10001239D01*
X-10754766Y-10001236D01*
X-10657268Y-9818831D01*
X-10526055Y-9658946D01*
X-10366170Y-9527733D01*
X-10183765Y-9430235D01*
X-10183762Y-9430234D01*
X-9985836Y-9370194D01*
X-9908707Y-9362598D01*
X-9831580Y-9355001D01*
X-9728420Y-9355001D01*
X-9651293Y-9362598D01*
X-9651293Y-9362598D01*
G37*
G36*
X14130000Y-11455001D02*
G01*
X12030000Y-11455001D01*
X12030000Y-9355001D01*
X14130000Y-9355001D01*
X14130000Y-11455001D01*
X14130000Y-11455001D01*
G37*
G36*
X-7111293Y-9362598D02*
G01*
X-7034164Y-9370194D01*
X-6836238Y-9430234D01*
X-6836235Y-9430235D01*
X-6653830Y-9527733D01*
X-6493945Y-9658946D01*
X-6362732Y-9818831D01*
X-6265234Y-10001236D01*
X-6265233Y-10001239D01*
X-6205193Y-10199165D01*
X-6184920Y-10405001D01*
X-6205193Y-10610837D01*
X-6257649Y-10783762D01*
X-6265234Y-10808766D01*
X-6362732Y-10991171D01*
X-6493945Y-11151056D01*
X-6653830Y-11282269D01*
X-6836235Y-11379767D01*
X-6836238Y-11379768D01*
X-7034164Y-11439808D01*
X-7111293Y-11447404D01*
X-7188420Y-11455001D01*
X-7291580Y-11455001D01*
X-7368707Y-11447404D01*
X-7445836Y-11439808D01*
X-7643762Y-11379768D01*
X-7643765Y-11379767D01*
X-7826170Y-11282269D01*
X-7986055Y-11151056D01*
X-8117268Y-10991171D01*
X-8214766Y-10808766D01*
X-8222351Y-10783762D01*
X-8274807Y-10610837D01*
X-8295080Y-10405001D01*
X-8274807Y-10199165D01*
X-8214767Y-10001239D01*
X-8214766Y-10001236D01*
X-8117268Y-9818831D01*
X-7986055Y-9658946D01*
X-7826170Y-9527733D01*
X-7643765Y-9430235D01*
X-7643762Y-9430234D01*
X-7445836Y-9370194D01*
X-7368707Y-9362598D01*
X-7291580Y-9355001D01*
X-7188420Y-9355001D01*
X-7111293Y-9362598D01*
X-7111293Y-9362598D01*
G37*
G36*
X11590000Y-11455001D02*
G01*
X9490000Y-11455001D01*
X9490000Y-9355001D01*
X11590000Y-9355001D01*
X11590000Y-11455001D01*
X11590000Y-11455001D01*
G37*
G36*
X3048707Y-9337596D02*
G01*
X3125836Y-9345193D01*
X3323762Y-9405233D01*
X3323765Y-9405234D01*
X3506170Y-9502732D01*
X3666055Y-9633945D01*
X3797268Y-9793830D01*
X3894766Y-9976235D01*
X3894767Y-9976238D01*
X3954807Y-10174164D01*
X3975080Y-10380000D01*
X3954807Y-10585836D01*
X3947223Y-10610837D01*
X3894766Y-10783765D01*
X3797268Y-10966170D01*
X3666055Y-11126055D01*
X3506170Y-11257268D01*
X3323765Y-11354766D01*
X3323762Y-11354767D01*
X3125836Y-11414807D01*
X3048707Y-11422404D01*
X2971580Y-11430000D01*
X2868420Y-11430000D01*
X2791293Y-11422404D01*
X2714164Y-11414807D01*
X2516238Y-11354767D01*
X2516235Y-11354766D01*
X2333830Y-11257268D01*
X2173945Y-11126055D01*
X2042732Y-10966170D01*
X1945234Y-10783765D01*
X1892777Y-10610837D01*
X1885193Y-10585836D01*
X1864920Y-10380000D01*
X1885193Y-10174164D01*
X1945233Y-9976238D01*
X1945234Y-9976235D01*
X2042732Y-9793830D01*
X2173945Y-9633945D01*
X2333830Y-9502732D01*
X2516235Y-9405234D01*
X2516238Y-9405233D01*
X2714164Y-9345193D01*
X2791293Y-9337596D01*
X2868420Y-9330000D01*
X2971580Y-9330000D01*
X3048707Y-9337596D01*
X3048707Y-9337596D01*
G37*
G36*
X8128707Y-9337596D02*
G01*
X8205836Y-9345193D01*
X8403762Y-9405233D01*
X8403765Y-9405234D01*
X8586170Y-9502732D01*
X8746055Y-9633945D01*
X8877268Y-9793830D01*
X8974766Y-9976235D01*
X8974767Y-9976238D01*
X9034807Y-10174164D01*
X9055080Y-10380000D01*
X9034807Y-10585836D01*
X9027223Y-10610837D01*
X8974766Y-10783765D01*
X8877268Y-10966170D01*
X8746055Y-11126055D01*
X8586170Y-11257268D01*
X8403765Y-11354766D01*
X8403762Y-11354767D01*
X8205836Y-11414807D01*
X8128707Y-11422404D01*
X8051580Y-11430000D01*
X7948420Y-11430000D01*
X7871293Y-11422404D01*
X7794164Y-11414807D01*
X7596238Y-11354767D01*
X7596235Y-11354766D01*
X7413830Y-11257268D01*
X7253945Y-11126055D01*
X7122732Y-10966170D01*
X7025234Y-10783765D01*
X6972777Y-10610837D01*
X6965193Y-10585836D01*
X6944920Y-10380000D01*
X6965193Y-10174164D01*
X7025233Y-9976238D01*
X7025234Y-9976235D01*
X7122732Y-9793830D01*
X7253945Y-9633945D01*
X7413830Y-9502732D01*
X7596235Y-9405234D01*
X7596238Y-9405233D01*
X7794164Y-9345193D01*
X7871293Y-9337596D01*
X7948420Y-9330000D01*
X8051580Y-9330000D01*
X8128707Y-9337596D01*
X8128707Y-9337596D01*
G37*
G36*
X508707Y-9337596D02*
G01*
X585836Y-9345193D01*
X783762Y-9405233D01*
X783765Y-9405234D01*
X966170Y-9502732D01*
X1126055Y-9633945D01*
X1257268Y-9793830D01*
X1354766Y-9976235D01*
X1354767Y-9976238D01*
X1414807Y-10174164D01*
X1435080Y-10380000D01*
X1414807Y-10585836D01*
X1407223Y-10610837D01*
X1354766Y-10783765D01*
X1257268Y-10966170D01*
X1126055Y-11126055D01*
X966170Y-11257268D01*
X783765Y-11354766D01*
X783762Y-11354767D01*
X585836Y-11414807D01*
X508707Y-11422404D01*
X431580Y-11430000D01*
X328420Y-11430000D01*
X251293Y-11422404D01*
X174164Y-11414807D01*
X-23762Y-11354767D01*
X-23765Y-11354766D01*
X-206170Y-11257268D01*
X-366055Y-11126055D01*
X-497268Y-10966170D01*
X-594766Y-10783765D01*
X-647223Y-10610837D01*
X-654807Y-10585836D01*
X-675080Y-10380000D01*
X-654807Y-10174164D01*
X-594767Y-9976238D01*
X-594766Y-9976235D01*
X-497268Y-9793830D01*
X-366055Y-9633945D01*
X-206170Y-9502732D01*
X-23765Y-9405234D01*
X-23762Y-9405233D01*
X174164Y-9345193D01*
X251293Y-9337596D01*
X328420Y-9330000D01*
X431580Y-9330000D01*
X508707Y-9337596D01*
X508707Y-9337596D01*
G37*
G36*
X-4571293Y-9337596D02*
G01*
X-4494164Y-9345193D01*
X-4296238Y-9405233D01*
X-4296235Y-9405234D01*
X-4113830Y-9502732D01*
X-3953945Y-9633945D01*
X-3822732Y-9793830D01*
X-3725234Y-9976235D01*
X-3725233Y-9976238D01*
X-3665193Y-10174164D01*
X-3644920Y-10380000D01*
X-3665193Y-10585836D01*
X-3672777Y-10610837D01*
X-3725234Y-10783765D01*
X-3822732Y-10966170D01*
X-3953945Y-11126055D01*
X-4113830Y-11257268D01*
X-4296235Y-11354766D01*
X-4296238Y-11354767D01*
X-4494164Y-11414807D01*
X-4571293Y-11422404D01*
X-4648420Y-11430000D01*
X-4751580Y-11430000D01*
X-4828707Y-11422404D01*
X-4905836Y-11414807D01*
X-5103762Y-11354767D01*
X-5103765Y-11354766D01*
X-5286170Y-11257268D01*
X-5446055Y-11126055D01*
X-5577268Y-10966170D01*
X-5674766Y-10783765D01*
X-5727223Y-10610837D01*
X-5734807Y-10585836D01*
X-5755080Y-10380000D01*
X-5734807Y-10174164D01*
X-5674767Y-9976238D01*
X-5674766Y-9976235D01*
X-5577268Y-9793830D01*
X-5446055Y-9633945D01*
X-5286170Y-9502732D01*
X-5103765Y-9405234D01*
X-5103762Y-9405233D01*
X-4905836Y-9345193D01*
X-4828707Y-9337596D01*
X-4751580Y-9330000D01*
X-4648420Y-9330000D01*
X-4571293Y-9337596D01*
X-4571293Y-9337596D01*
G37*
G36*
X-2031293Y-9337596D02*
G01*
X-1954164Y-9345193D01*
X-1756238Y-9405233D01*
X-1756235Y-9405234D01*
X-1573830Y-9502732D01*
X-1413945Y-9633945D01*
X-1282732Y-9793830D01*
X-1185234Y-9976235D01*
X-1185233Y-9976238D01*
X-1125193Y-10174164D01*
X-1104920Y-10380000D01*
X-1125193Y-10585836D01*
X-1132777Y-10610837D01*
X-1185234Y-10783765D01*
X-1282732Y-10966170D01*
X-1413945Y-11126055D01*
X-1573830Y-11257268D01*
X-1756235Y-11354766D01*
X-1756238Y-11354767D01*
X-1954164Y-11414807D01*
X-2031293Y-11422404D01*
X-2108420Y-11430000D01*
X-2211580Y-11430000D01*
X-2288707Y-11422404D01*
X-2365836Y-11414807D01*
X-2563762Y-11354767D01*
X-2563765Y-11354766D01*
X-2746170Y-11257268D01*
X-2906055Y-11126055D01*
X-3037268Y-10966170D01*
X-3134766Y-10783765D01*
X-3187223Y-10610837D01*
X-3194807Y-10585836D01*
X-3215080Y-10380000D01*
X-3194807Y-10174164D01*
X-3134767Y-9976238D01*
X-3134766Y-9976235D01*
X-3037268Y-9793830D01*
X-2906055Y-9633945D01*
X-2746170Y-9502732D01*
X-2563765Y-9405234D01*
X-2563762Y-9405233D01*
X-2365836Y-9345193D01*
X-2288707Y-9337596D01*
X-2211580Y-9330000D01*
X-2108420Y-9330000D01*
X-2031293Y-9337596D01*
X-2031293Y-9337596D01*
G37*
G36*
X5588707Y-9337596D02*
G01*
X5665836Y-9345193D01*
X5863762Y-9405233D01*
X5863765Y-9405234D01*
X6046170Y-9502732D01*
X6206055Y-9633945D01*
X6337268Y-9793830D01*
X6434766Y-9976235D01*
X6434767Y-9976238D01*
X6494807Y-10174164D01*
X6515080Y-10380000D01*
X6494807Y-10585836D01*
X6487223Y-10610837D01*
X6434766Y-10783765D01*
X6337268Y-10966170D01*
X6206055Y-11126055D01*
X6046170Y-11257268D01*
X5863765Y-11354766D01*
X5863762Y-11354767D01*
X5665836Y-11414807D01*
X5588707Y-11422404D01*
X5511580Y-11430000D01*
X5408420Y-11430000D01*
X5331293Y-11422404D01*
X5254164Y-11414807D01*
X5056238Y-11354767D01*
X5056235Y-11354766D01*
X4873830Y-11257268D01*
X4713945Y-11126055D01*
X4582732Y-10966170D01*
X4485234Y-10783765D01*
X4432777Y-10610837D01*
X4425193Y-10585836D01*
X4404920Y-10380000D01*
X4425193Y-10174164D01*
X4485233Y-9976238D01*
X4485234Y-9976235D01*
X4582732Y-9793830D01*
X4713945Y-9633945D01*
X4873830Y-9502732D01*
X5056235Y-9405234D01*
X5056238Y-9405233D01*
X5254164Y-9345193D01*
X5331293Y-9337596D01*
X5408420Y-9330000D01*
X5511580Y-9330000D01*
X5588707Y-9337596D01*
X5588707Y-9337596D01*
G37*
G36*
X-7111293Y-6822598D02*
G01*
X-7034164Y-6830194D01*
X-6836238Y-6890234D01*
X-6836235Y-6890235D01*
X-6653830Y-6987733D01*
X-6493945Y-7118946D01*
X-6362732Y-7278831D01*
X-6265234Y-7461236D01*
X-6265233Y-7461239D01*
X-6205193Y-7659165D01*
X-6184920Y-7865001D01*
X-6205193Y-8070837D01*
X-6240179Y-8186170D01*
X-6265234Y-8268766D01*
X-6362732Y-8451171D01*
X-6493945Y-8611056D01*
X-6653830Y-8742269D01*
X-6836235Y-8839767D01*
X-6836238Y-8839768D01*
X-7034164Y-8899808D01*
X-7111293Y-8907405D01*
X-7188420Y-8915001D01*
X-7291580Y-8915001D01*
X-7368707Y-8907405D01*
X-7445836Y-8899808D01*
X-7643762Y-8839768D01*
X-7643765Y-8839767D01*
X-7826170Y-8742269D01*
X-7986055Y-8611056D01*
X-8117268Y-8451171D01*
X-8214766Y-8268766D01*
X-8239821Y-8186170D01*
X-8274807Y-8070837D01*
X-8295080Y-7865001D01*
X-8274807Y-7659165D01*
X-8214767Y-7461239D01*
X-8214766Y-7461236D01*
X-8117268Y-7278831D01*
X-7986055Y-7118946D01*
X-7826170Y-6987733D01*
X-7643765Y-6890235D01*
X-7643762Y-6890234D01*
X-7445836Y-6830194D01*
X-7368707Y-6822598D01*
X-7291580Y-6815001D01*
X-7188420Y-6815001D01*
X-7111293Y-6822598D01*
X-7111293Y-6822598D01*
G37*
G36*
X-9651293Y-6822598D02*
G01*
X-9574164Y-6830194D01*
X-9376238Y-6890234D01*
X-9376235Y-6890235D01*
X-9193830Y-6987733D01*
X-9033945Y-7118946D01*
X-8902732Y-7278831D01*
X-8805234Y-7461236D01*
X-8805233Y-7461239D01*
X-8745193Y-7659165D01*
X-8724920Y-7865001D01*
X-8745193Y-8070837D01*
X-8780179Y-8186170D01*
X-8805234Y-8268766D01*
X-8902732Y-8451171D01*
X-9033945Y-8611056D01*
X-9193830Y-8742269D01*
X-9376235Y-8839767D01*
X-9376238Y-8839768D01*
X-9574164Y-8899808D01*
X-9651293Y-8907405D01*
X-9728420Y-8915001D01*
X-9831580Y-8915001D01*
X-9908707Y-8907405D01*
X-9985836Y-8899808D01*
X-10183762Y-8839768D01*
X-10183765Y-8839767D01*
X-10366170Y-8742269D01*
X-10526055Y-8611056D01*
X-10657268Y-8451171D01*
X-10754766Y-8268766D01*
X-10779821Y-8186170D01*
X-10814807Y-8070837D01*
X-10835080Y-7865001D01*
X-10814807Y-7659165D01*
X-10754767Y-7461239D01*
X-10754766Y-7461236D01*
X-10657268Y-7278831D01*
X-10526055Y-7118946D01*
X-10366170Y-6987733D01*
X-10183765Y-6890235D01*
X-10183762Y-6890234D01*
X-9985836Y-6830194D01*
X-9908707Y-6822598D01*
X-9831580Y-6815001D01*
X-9728420Y-6815001D01*
X-9651293Y-6822598D01*
X-9651293Y-6822598D01*
G37*
G36*
X8128707Y-6797596D02*
G01*
X8205836Y-6805193D01*
X8403762Y-6865233D01*
X8403765Y-6865234D01*
X8586170Y-6962732D01*
X8746055Y-7093945D01*
X8877268Y-7253830D01*
X8974766Y-7436235D01*
X8974767Y-7436238D01*
X9034807Y-7634164D01*
X9055080Y-7840000D01*
X9034807Y-8045836D01*
X8992237Y-8186170D01*
X8974766Y-8243765D01*
X8877268Y-8426170D01*
X8746055Y-8586055D01*
X8586170Y-8717268D01*
X8403765Y-8814766D01*
X8403762Y-8814767D01*
X8205836Y-8874807D01*
X8128707Y-8882403D01*
X8051580Y-8890000D01*
X7948420Y-8890000D01*
X7871293Y-8882403D01*
X7794164Y-8874807D01*
X7596238Y-8814767D01*
X7596235Y-8814766D01*
X7413830Y-8717268D01*
X7253945Y-8586055D01*
X7122732Y-8426170D01*
X7025234Y-8243765D01*
X7007763Y-8186170D01*
X6965193Y-8045836D01*
X6944920Y-7840000D01*
X6965193Y-7634164D01*
X7025233Y-7436238D01*
X7025234Y-7436235D01*
X7122732Y-7253830D01*
X7253945Y-7093945D01*
X7413830Y-6962732D01*
X7596235Y-6865234D01*
X7596238Y-6865233D01*
X7794164Y-6805193D01*
X7871293Y-6797596D01*
X7948420Y-6790000D01*
X8051580Y-6790000D01*
X8128707Y-6797596D01*
X8128707Y-6797596D01*
G37*
G36*
X5588707Y-6797596D02*
G01*
X5665836Y-6805193D01*
X5863762Y-6865233D01*
X5863765Y-6865234D01*
X6046170Y-6962732D01*
X6206055Y-7093945D01*
X6337268Y-7253830D01*
X6434766Y-7436235D01*
X6434767Y-7436238D01*
X6494807Y-7634164D01*
X6515080Y-7840000D01*
X6494807Y-8045836D01*
X6452237Y-8186170D01*
X6434766Y-8243765D01*
X6337268Y-8426170D01*
X6206055Y-8586055D01*
X6046170Y-8717268D01*
X5863765Y-8814766D01*
X5863762Y-8814767D01*
X5665836Y-8874807D01*
X5588707Y-8882403D01*
X5511580Y-8890000D01*
X5408420Y-8890000D01*
X5331293Y-8882403D01*
X5254164Y-8874807D01*
X5056238Y-8814767D01*
X5056235Y-8814766D01*
X4873830Y-8717268D01*
X4713945Y-8586055D01*
X4582732Y-8426170D01*
X4485234Y-8243765D01*
X4467763Y-8186170D01*
X4425193Y-8045836D01*
X4404920Y-7840000D01*
X4425193Y-7634164D01*
X4485233Y-7436238D01*
X4485234Y-7436235D01*
X4582732Y-7253830D01*
X4713945Y-7093945D01*
X4873830Y-6962732D01*
X5056235Y-6865234D01*
X5056238Y-6865233D01*
X5254164Y-6805193D01*
X5331293Y-6797596D01*
X5408420Y-6790000D01*
X5511580Y-6790000D01*
X5588707Y-6797596D01*
X5588707Y-6797596D01*
G37*
G36*
X3048707Y-6797596D02*
G01*
X3125836Y-6805193D01*
X3323762Y-6865233D01*
X3323765Y-6865234D01*
X3506170Y-6962732D01*
X3666055Y-7093945D01*
X3797268Y-7253830D01*
X3894766Y-7436235D01*
X3894767Y-7436238D01*
X3954807Y-7634164D01*
X3975080Y-7840000D01*
X3954807Y-8045836D01*
X3912237Y-8186170D01*
X3894766Y-8243765D01*
X3797268Y-8426170D01*
X3666055Y-8586055D01*
X3506170Y-8717268D01*
X3323765Y-8814766D01*
X3323762Y-8814767D01*
X3125836Y-8874807D01*
X3048707Y-8882403D01*
X2971580Y-8890000D01*
X2868420Y-8890000D01*
X2791293Y-8882403D01*
X2714164Y-8874807D01*
X2516238Y-8814767D01*
X2516235Y-8814766D01*
X2333830Y-8717268D01*
X2173945Y-8586055D01*
X2042732Y-8426170D01*
X1945234Y-8243765D01*
X1927763Y-8186170D01*
X1885193Y-8045836D01*
X1864920Y-7840000D01*
X1885193Y-7634164D01*
X1945233Y-7436238D01*
X1945234Y-7436235D01*
X2042732Y-7253830D01*
X2173945Y-7093945D01*
X2333830Y-6962732D01*
X2516235Y-6865234D01*
X2516238Y-6865233D01*
X2714164Y-6805193D01*
X2791293Y-6797596D01*
X2868420Y-6790000D01*
X2971580Y-6790000D01*
X3048707Y-6797596D01*
X3048707Y-6797596D01*
G37*
G36*
X508707Y-6797596D02*
G01*
X585836Y-6805193D01*
X783762Y-6865233D01*
X783765Y-6865234D01*
X966170Y-6962732D01*
X1126055Y-7093945D01*
X1257268Y-7253830D01*
X1354766Y-7436235D01*
X1354767Y-7436238D01*
X1414807Y-7634164D01*
X1435080Y-7840000D01*
X1414807Y-8045836D01*
X1372237Y-8186170D01*
X1354766Y-8243765D01*
X1257268Y-8426170D01*
X1126055Y-8586055D01*
X966170Y-8717268D01*
X783765Y-8814766D01*
X783762Y-8814767D01*
X585836Y-8874807D01*
X508707Y-8882403D01*
X431580Y-8890000D01*
X328420Y-8890000D01*
X251293Y-8882403D01*
X174164Y-8874807D01*
X-23762Y-8814767D01*
X-23765Y-8814766D01*
X-206170Y-8717268D01*
X-366055Y-8586055D01*
X-497268Y-8426170D01*
X-594766Y-8243765D01*
X-612237Y-8186170D01*
X-654807Y-8045836D01*
X-675080Y-7840000D01*
X-654807Y-7634164D01*
X-594767Y-7436238D01*
X-594766Y-7436235D01*
X-497268Y-7253830D01*
X-366055Y-7093945D01*
X-206170Y-6962732D01*
X-23765Y-6865234D01*
X-23762Y-6865233D01*
X174164Y-6805193D01*
X251293Y-6797596D01*
X328420Y-6790000D01*
X431580Y-6790000D01*
X508707Y-6797596D01*
X508707Y-6797596D01*
G37*
G36*
X-2031293Y-6797596D02*
G01*
X-1954164Y-6805193D01*
X-1756238Y-6865233D01*
X-1756235Y-6865234D01*
X-1573830Y-6962732D01*
X-1413945Y-7093945D01*
X-1282732Y-7253830D01*
X-1185234Y-7436235D01*
X-1185233Y-7436238D01*
X-1125193Y-7634164D01*
X-1104920Y-7840000D01*
X-1125193Y-8045836D01*
X-1167763Y-8186170D01*
X-1185234Y-8243765D01*
X-1282732Y-8426170D01*
X-1413945Y-8586055D01*
X-1573830Y-8717268D01*
X-1756235Y-8814766D01*
X-1756238Y-8814767D01*
X-1954164Y-8874807D01*
X-2031293Y-8882403D01*
X-2108420Y-8890000D01*
X-2211580Y-8890000D01*
X-2288707Y-8882403D01*
X-2365836Y-8874807D01*
X-2563762Y-8814767D01*
X-2563765Y-8814766D01*
X-2746170Y-8717268D01*
X-2906055Y-8586055D01*
X-3037268Y-8426170D01*
X-3134766Y-8243765D01*
X-3152237Y-8186170D01*
X-3194807Y-8045836D01*
X-3215080Y-7840000D01*
X-3194807Y-7634164D01*
X-3134767Y-7436238D01*
X-3134766Y-7436235D01*
X-3037268Y-7253830D01*
X-2906055Y-7093945D01*
X-2746170Y-6962732D01*
X-2563765Y-6865234D01*
X-2563762Y-6865233D01*
X-2365836Y-6805193D01*
X-2288707Y-6797596D01*
X-2211580Y-6790000D01*
X-2108420Y-6790000D01*
X-2031293Y-6797596D01*
X-2031293Y-6797596D01*
G37*
G36*
X-4571293Y-6797596D02*
G01*
X-4494164Y-6805193D01*
X-4296238Y-6865233D01*
X-4296235Y-6865234D01*
X-4113830Y-6962732D01*
X-3953945Y-7093945D01*
X-3822732Y-7253830D01*
X-3725234Y-7436235D01*
X-3725233Y-7436238D01*
X-3665193Y-7634164D01*
X-3644920Y-7840000D01*
X-3665193Y-8045836D01*
X-3707763Y-8186170D01*
X-3725234Y-8243765D01*
X-3822732Y-8426170D01*
X-3953945Y-8586055D01*
X-4113830Y-8717268D01*
X-4296235Y-8814766D01*
X-4296238Y-8814767D01*
X-4494164Y-8874807D01*
X-4571293Y-8882403D01*
X-4648420Y-8890000D01*
X-4751580Y-8890000D01*
X-4828707Y-8882403D01*
X-4905836Y-8874807D01*
X-5103762Y-8814767D01*
X-5103765Y-8814766D01*
X-5286170Y-8717268D01*
X-5446055Y-8586055D01*
X-5577268Y-8426170D01*
X-5674766Y-8243765D01*
X-5692237Y-8186170D01*
X-5734807Y-8045836D01*
X-5755080Y-7840000D01*
X-5734807Y-7634164D01*
X-5674767Y-7436238D01*
X-5674766Y-7436235D01*
X-5577268Y-7253830D01*
X-5446055Y-7093945D01*
X-5286170Y-6962732D01*
X-5103765Y-6865234D01*
X-5103762Y-6865233D01*
X-4905836Y-6805193D01*
X-4828707Y-6797596D01*
X-4751580Y-6790000D01*
X-4648420Y-6790000D01*
X-4571293Y-6797596D01*
X-4571293Y-6797596D01*
G37*
G36*
X-17971313Y-6575027D02*
G01*
X-17793726Y-6610350D01*
X-17602638Y-6689502D01*
X-17430664Y-6804411D01*
X-17284411Y-6950664D01*
X-17169502Y-7122638D01*
X-17090350Y-7313726D01*
X-17050000Y-7516584D01*
X-17050000Y-7723416D01*
X-17090350Y-7926274D01*
X-17169502Y-8117362D01*
X-17284411Y-8289336D01*
X-17430664Y-8435589D01*
X-17602638Y-8550498D01*
X-17793726Y-8629650D01*
X-17971313Y-8664973D01*
X-17996583Y-8670000D01*
X-18203417Y-8670000D01*
X-18228687Y-8664973D01*
X-18406274Y-8629650D01*
X-18597362Y-8550498D01*
X-18769336Y-8435589D01*
X-18915589Y-8289336D01*
X-19030498Y-8117362D01*
X-19109650Y-7926274D01*
X-19150000Y-7723416D01*
X-19150000Y-7516584D01*
X-19109650Y-7313726D01*
X-19030498Y-7122638D01*
X-18915589Y-6950664D01*
X-18769336Y-6804411D01*
X-18597362Y-6689502D01*
X-18406274Y-6610350D01*
X-18228687Y-6575027D01*
X-18203417Y-6570000D01*
X-17996583Y-6570000D01*
X-17971313Y-6575027D01*
X-17971313Y-6575027D01*
G37*
G36*
X18228687Y-6575027D02*
G01*
X18406274Y-6610350D01*
X18597362Y-6689502D01*
X18769336Y-6804411D01*
X18915589Y-6950664D01*
X19030498Y-7122638D01*
X19109650Y-7313726D01*
X19150000Y-7516584D01*
X19150000Y-7723416D01*
X19109650Y-7926274D01*
X19030498Y-8117362D01*
X18915589Y-8289336D01*
X18769336Y-8435589D01*
X18597362Y-8550498D01*
X18406274Y-8629650D01*
X18228687Y-8664973D01*
X18203417Y-8670000D01*
X17996583Y-8670000D01*
X17971313Y-8664973D01*
X17793726Y-8629650D01*
X17602638Y-8550498D01*
X17430664Y-8435589D01*
X17284411Y-8289336D01*
X17169502Y-8117362D01*
X17090350Y-7926274D01*
X17050000Y-7723416D01*
X17050000Y-7516584D01*
X17090350Y-7313726D01*
X17169502Y-7122638D01*
X17284411Y-6950664D01*
X17430664Y-6804411D01*
X17602638Y-6689502D01*
X17793726Y-6610350D01*
X17971313Y-6575027D01*
X17996583Y-6570000D01*
X18203417Y-6570000D01*
X18228687Y-6575027D01*
X18228687Y-6575027D01*
G37*
G36*
X11828707Y-6557596D02*
G01*
X11905836Y-6565193D01*
X12054702Y-6610351D01*
X12103765Y-6625234D01*
X12286170Y-6722732D01*
X12446055Y-6853945D01*
X12577268Y-7013830D01*
X12674766Y-7196235D01*
X12674767Y-7196238D01*
X12734807Y-7394164D01*
X12755080Y-7600000D01*
X12734807Y-7805836D01*
X12674767Y-8003762D01*
X12674766Y-8003765D01*
X12577268Y-8186170D01*
X12446055Y-8346055D01*
X12286170Y-8477268D01*
X12103765Y-8574766D01*
X12103762Y-8574767D01*
X11905836Y-8634807D01*
X11828707Y-8642403D01*
X11751580Y-8650000D01*
X11648420Y-8650000D01*
X11571293Y-8642403D01*
X11494164Y-8634807D01*
X11296238Y-8574767D01*
X11296235Y-8574766D01*
X11113830Y-8477268D01*
X10953945Y-8346055D01*
X10822732Y-8186170D01*
X10725234Y-8003765D01*
X10725233Y-8003762D01*
X10665193Y-7805836D01*
X10644920Y-7600000D01*
X10665193Y-7394164D01*
X10725233Y-7196238D01*
X10725234Y-7196235D01*
X10822732Y-7013830D01*
X10953945Y-6853945D01*
X11113830Y-6722732D01*
X11296235Y-6625234D01*
X11345298Y-6610351D01*
X11494164Y-6565193D01*
X11571293Y-6557596D01*
X11648420Y-6550000D01*
X11751580Y-6550000D01*
X11828707Y-6557596D01*
X11828707Y-6557596D01*
G37*
G36*
X-20671313Y-5305027D02*
G01*
X-20493726Y-5340350D01*
X-20302638Y-5419502D01*
X-20130664Y-5534411D01*
X-19984411Y-5680664D01*
X-19869502Y-5852638D01*
X-19790350Y-6043726D01*
X-19750000Y-6246584D01*
X-19750000Y-6453416D01*
X-19790350Y-6656274D01*
X-19869502Y-6847362D01*
X-19984411Y-7019336D01*
X-20130664Y-7165589D01*
X-20302638Y-7280498D01*
X-20493726Y-7359650D01*
X-20667244Y-7394164D01*
X-20696583Y-7400000D01*
X-20903417Y-7400000D01*
X-20932756Y-7394164D01*
X-21106274Y-7359650D01*
X-21297362Y-7280498D01*
X-21469336Y-7165589D01*
X-21615589Y-7019336D01*
X-21730498Y-6847362D01*
X-21809650Y-6656274D01*
X-21850000Y-6453416D01*
X-21850000Y-6246584D01*
X-21809650Y-6043726D01*
X-21730498Y-5852638D01*
X-21615589Y-5680664D01*
X-21469336Y-5534411D01*
X-21297362Y-5419502D01*
X-21106274Y-5340350D01*
X-20928687Y-5305027D01*
X-20903417Y-5300000D01*
X-20696583Y-5300000D01*
X-20671313Y-5305027D01*
X-20671313Y-5305027D01*
G37*
G36*
X-13371293Y-5307596D02*
G01*
X-13294164Y-5315193D01*
X-13096238Y-5375233D01*
X-13096235Y-5375234D01*
X-12913830Y-5472732D01*
X-12753945Y-5603945D01*
X-12622732Y-5763830D01*
X-12525234Y-5946235D01*
X-12525233Y-5946238D01*
X-12465193Y-6144164D01*
X-12444920Y-6350000D01*
X-12465193Y-6555836D01*
X-12519166Y-6733762D01*
X-12525234Y-6753765D01*
X-12622732Y-6936170D01*
X-12753945Y-7096055D01*
X-12913830Y-7227268D01*
X-13096235Y-7324766D01*
X-13096238Y-7324767D01*
X-13294164Y-7384807D01*
X-13371293Y-7392404D01*
X-13448420Y-7400000D01*
X-13551580Y-7400000D01*
X-13628707Y-7392404D01*
X-13705836Y-7384807D01*
X-13903762Y-7324767D01*
X-13903765Y-7324766D01*
X-14086170Y-7227268D01*
X-14246055Y-7096055D01*
X-14377268Y-6936170D01*
X-14474766Y-6753765D01*
X-14480834Y-6733762D01*
X-14534807Y-6555836D01*
X-14555080Y-6350000D01*
X-14534807Y-6144164D01*
X-14474767Y-5946238D01*
X-14474766Y-5946235D01*
X-14377268Y-5763830D01*
X-14246055Y-5603945D01*
X-14086170Y-5472732D01*
X-13903765Y-5375234D01*
X-13903762Y-5375233D01*
X-13705836Y-5315193D01*
X-13628707Y-5307596D01*
X-13551580Y-5300000D01*
X-13448420Y-5300000D01*
X-13371293Y-5307596D01*
X-13371293Y-5307596D01*
G37*
G36*
X20928687Y-5305027D02*
G01*
X21106274Y-5340350D01*
X21297362Y-5419502D01*
X21469336Y-5534411D01*
X21615589Y-5680664D01*
X21730498Y-5852638D01*
X21809650Y-6043726D01*
X21850000Y-6246584D01*
X21850000Y-6453416D01*
X21809650Y-6656274D01*
X21730498Y-6847362D01*
X21615589Y-7019336D01*
X21469336Y-7165589D01*
X21297362Y-7280498D01*
X21106274Y-7359650D01*
X20932756Y-7394164D01*
X20903417Y-7400000D01*
X20696583Y-7400000D01*
X20667244Y-7394164D01*
X20493726Y-7359650D01*
X20302638Y-7280498D01*
X20130664Y-7165589D01*
X19984411Y-7019336D01*
X19869502Y-6847362D01*
X19790350Y-6656274D01*
X19750000Y-6453416D01*
X19750000Y-6246584D01*
X19790350Y-6043726D01*
X19869502Y-5852638D01*
X19984411Y-5680664D01*
X20130664Y-5534411D01*
X20302638Y-5419502D01*
X20493726Y-5340350D01*
X20671313Y-5305027D01*
X20696583Y-5300000D01*
X20903417Y-5300000D01*
X20928687Y-5305027D01*
X20928687Y-5305027D01*
G37*
G36*
X14628707Y-5287597D02*
G01*
X14705836Y-5295193D01*
X14854702Y-5340351D01*
X14903765Y-5355234D01*
X15086170Y-5452732D01*
X15246055Y-5583945D01*
X15377268Y-5743830D01*
X15474766Y-5926235D01*
X15474767Y-5926238D01*
X15534807Y-6124164D01*
X15555080Y-6330000D01*
X15534807Y-6535836D01*
X15474767Y-6733762D01*
X15474766Y-6733765D01*
X15377268Y-6916170D01*
X15246055Y-7076055D01*
X15086170Y-7207268D01*
X14903765Y-7304766D01*
X14903762Y-7304767D01*
X14705836Y-7364807D01*
X14628707Y-7372403D01*
X14551580Y-7380000D01*
X14448420Y-7380000D01*
X14371293Y-7372403D01*
X14294164Y-7364807D01*
X14096238Y-7304767D01*
X14096235Y-7304766D01*
X13913830Y-7207268D01*
X13753945Y-7076055D01*
X13622732Y-6916170D01*
X13525234Y-6733765D01*
X13525233Y-6733762D01*
X13465193Y-6535836D01*
X13444920Y-6330000D01*
X13465193Y-6124164D01*
X13525233Y-5926238D01*
X13525234Y-5926235D01*
X13622732Y-5743830D01*
X13753945Y-5583945D01*
X13913830Y-5452732D01*
X14096235Y-5355234D01*
X14145298Y-5340351D01*
X14294164Y-5295193D01*
X14371293Y-5287597D01*
X14448420Y-5280000D01*
X14551580Y-5280000D01*
X14628707Y-5287597D01*
X14628707Y-5287597D01*
G37*
G36*
X-9651293Y-4282598D02*
G01*
X-9574164Y-4290194D01*
X-9376238Y-4350234D01*
X-9376235Y-4350235D01*
X-9193830Y-4447733D01*
X-9033945Y-4578946D01*
X-8902732Y-4738831D01*
X-8805234Y-4921236D01*
X-8805233Y-4921239D01*
X-8745193Y-5119165D01*
X-8724920Y-5325001D01*
X-8745193Y-5530837D01*
X-8790643Y-5680665D01*
X-8805234Y-5728766D01*
X-8902732Y-5911171D01*
X-9033945Y-6071056D01*
X-9193830Y-6202269D01*
X-9376235Y-6299767D01*
X-9376238Y-6299768D01*
X-9574164Y-6359808D01*
X-9651293Y-6367405D01*
X-9728420Y-6375001D01*
X-9831580Y-6375001D01*
X-9908707Y-6367405D01*
X-9985836Y-6359808D01*
X-10183762Y-6299768D01*
X-10183765Y-6299767D01*
X-10366170Y-6202269D01*
X-10526055Y-6071056D01*
X-10657268Y-5911171D01*
X-10754766Y-5728766D01*
X-10769357Y-5680665D01*
X-10814807Y-5530837D01*
X-10835080Y-5325001D01*
X-10814807Y-5119165D01*
X-10754767Y-4921239D01*
X-10754766Y-4921236D01*
X-10657268Y-4738831D01*
X-10526055Y-4578946D01*
X-10366170Y-4447733D01*
X-10183765Y-4350235D01*
X-10183762Y-4350234D01*
X-9985836Y-4290194D01*
X-9908707Y-4282598D01*
X-9831580Y-4275001D01*
X-9728420Y-4275001D01*
X-9651293Y-4282598D01*
X-9651293Y-4282598D01*
G37*
G36*
X-7111293Y-4282598D02*
G01*
X-7034164Y-4290194D01*
X-6836238Y-4350234D01*
X-6836235Y-4350235D01*
X-6653830Y-4447733D01*
X-6493945Y-4578946D01*
X-6362732Y-4738831D01*
X-6265234Y-4921236D01*
X-6265233Y-4921239D01*
X-6205193Y-5119165D01*
X-6184920Y-5325001D01*
X-6205193Y-5530837D01*
X-6250643Y-5680665D01*
X-6265234Y-5728766D01*
X-6362732Y-5911171D01*
X-6493945Y-6071056D01*
X-6653830Y-6202269D01*
X-6836235Y-6299767D01*
X-6836238Y-6299768D01*
X-7034164Y-6359808D01*
X-7111293Y-6367405D01*
X-7188420Y-6375001D01*
X-7291580Y-6375001D01*
X-7368707Y-6367405D01*
X-7445836Y-6359808D01*
X-7643762Y-6299768D01*
X-7643765Y-6299767D01*
X-7826170Y-6202269D01*
X-7986055Y-6071056D01*
X-8117268Y-5911171D01*
X-8214766Y-5728766D01*
X-8229357Y-5680665D01*
X-8274807Y-5530837D01*
X-8295080Y-5325001D01*
X-8274807Y-5119165D01*
X-8214767Y-4921239D01*
X-8214766Y-4921236D01*
X-8117268Y-4738831D01*
X-7986055Y-4578946D01*
X-7826170Y-4447733D01*
X-7643765Y-4350235D01*
X-7643762Y-4350234D01*
X-7445836Y-4290194D01*
X-7368707Y-4282598D01*
X-7291580Y-4275001D01*
X-7188420Y-4275001D01*
X-7111293Y-4282598D01*
X-7111293Y-4282598D01*
G37*
G36*
X-4571293Y-4257596D02*
G01*
X-4494164Y-4265193D01*
X-4296238Y-4325233D01*
X-4296235Y-4325234D01*
X-4113830Y-4422732D01*
X-3953945Y-4553945D01*
X-3822732Y-4713830D01*
X-3725234Y-4896235D01*
X-3725233Y-4896238D01*
X-3665193Y-5094164D01*
X-3644920Y-5300000D01*
X-3665193Y-5505836D01*
X-3707763Y-5646170D01*
X-3725234Y-5703765D01*
X-3822732Y-5886170D01*
X-3953945Y-6046055D01*
X-4113830Y-6177268D01*
X-4296235Y-6274766D01*
X-4296238Y-6274767D01*
X-4494164Y-6334807D01*
X-4571293Y-6342403D01*
X-4648420Y-6350000D01*
X-4751580Y-6350000D01*
X-4828707Y-6342404D01*
X-4905836Y-6334807D01*
X-5103762Y-6274767D01*
X-5103765Y-6274766D01*
X-5286170Y-6177268D01*
X-5446055Y-6046055D01*
X-5577268Y-5886170D01*
X-5674766Y-5703765D01*
X-5692237Y-5646170D01*
X-5734807Y-5505836D01*
X-5755080Y-5300000D01*
X-5734807Y-5094164D01*
X-5674767Y-4896238D01*
X-5674766Y-4896235D01*
X-5577268Y-4713830D01*
X-5446055Y-4553945D01*
X-5286170Y-4422732D01*
X-5103765Y-4325234D01*
X-5103762Y-4325233D01*
X-4905836Y-4265193D01*
X-4828707Y-4257596D01*
X-4751580Y-4250000D01*
X-4648420Y-4250000D01*
X-4571293Y-4257596D01*
X-4571293Y-4257596D01*
G37*
G36*
X-2031293Y-4257596D02*
G01*
X-1954164Y-4265193D01*
X-1756238Y-4325233D01*
X-1756235Y-4325234D01*
X-1573830Y-4422732D01*
X-1413945Y-4553945D01*
X-1282732Y-4713830D01*
X-1185234Y-4896235D01*
X-1185233Y-4896238D01*
X-1125193Y-5094164D01*
X-1104920Y-5300000D01*
X-1125193Y-5505836D01*
X-1167763Y-5646170D01*
X-1185234Y-5703765D01*
X-1282732Y-5886170D01*
X-1413945Y-6046055D01*
X-1573830Y-6177268D01*
X-1756235Y-6274766D01*
X-1756238Y-6274767D01*
X-1954164Y-6334807D01*
X-2031293Y-6342403D01*
X-2108420Y-6350000D01*
X-2211580Y-6350000D01*
X-2288707Y-6342403D01*
X-2365836Y-6334807D01*
X-2563762Y-6274767D01*
X-2563765Y-6274766D01*
X-2746170Y-6177268D01*
X-2906055Y-6046055D01*
X-3037268Y-5886170D01*
X-3134766Y-5703765D01*
X-3152237Y-5646170D01*
X-3194807Y-5505836D01*
X-3215080Y-5300000D01*
X-3194807Y-5094164D01*
X-3134767Y-4896238D01*
X-3134766Y-4896235D01*
X-3037268Y-4713830D01*
X-2906055Y-4553945D01*
X-2746170Y-4422732D01*
X-2563765Y-4325234D01*
X-2563762Y-4325233D01*
X-2365836Y-4265193D01*
X-2288707Y-4257596D01*
X-2211580Y-4250000D01*
X-2108420Y-4250000D01*
X-2031293Y-4257596D01*
X-2031293Y-4257596D01*
G37*
G36*
X508707Y-4257596D02*
G01*
X585836Y-4265193D01*
X783762Y-4325233D01*
X783765Y-4325234D01*
X966170Y-4422732D01*
X1126055Y-4553945D01*
X1257268Y-4713830D01*
X1354766Y-4896235D01*
X1354767Y-4896238D01*
X1414807Y-5094164D01*
X1435080Y-5300000D01*
X1414807Y-5505836D01*
X1372237Y-5646170D01*
X1354766Y-5703765D01*
X1257268Y-5886170D01*
X1126055Y-6046055D01*
X966170Y-6177268D01*
X783765Y-6274766D01*
X783762Y-6274767D01*
X585836Y-6334807D01*
X508707Y-6342403D01*
X431580Y-6350000D01*
X328420Y-6350000D01*
X251293Y-6342403D01*
X174164Y-6334807D01*
X-23762Y-6274767D01*
X-23765Y-6274766D01*
X-206170Y-6177268D01*
X-366055Y-6046055D01*
X-497268Y-5886170D01*
X-594766Y-5703765D01*
X-612237Y-5646170D01*
X-654807Y-5505836D01*
X-675080Y-5300000D01*
X-654807Y-5094164D01*
X-594767Y-4896238D01*
X-594766Y-4896235D01*
X-497268Y-4713830D01*
X-366055Y-4553945D01*
X-206170Y-4422732D01*
X-23765Y-4325234D01*
X-23762Y-4325233D01*
X174164Y-4265193D01*
X251293Y-4257596D01*
X328420Y-4250000D01*
X431580Y-4250000D01*
X508707Y-4257596D01*
X508707Y-4257596D01*
G37*
G36*
X3048707Y-4257596D02*
G01*
X3125836Y-4265193D01*
X3323762Y-4325233D01*
X3323765Y-4325234D01*
X3506170Y-4422732D01*
X3666055Y-4553945D01*
X3797268Y-4713830D01*
X3894766Y-4896235D01*
X3894767Y-4896238D01*
X3954807Y-5094164D01*
X3975080Y-5300000D01*
X3954807Y-5505836D01*
X3912237Y-5646170D01*
X3894766Y-5703765D01*
X3797268Y-5886170D01*
X3666055Y-6046055D01*
X3506170Y-6177268D01*
X3323765Y-6274766D01*
X3323762Y-6274767D01*
X3125836Y-6334807D01*
X3048707Y-6342404D01*
X2971580Y-6350000D01*
X2868420Y-6350000D01*
X2791293Y-6342403D01*
X2714164Y-6334807D01*
X2516238Y-6274767D01*
X2516235Y-6274766D01*
X2333830Y-6177268D01*
X2173945Y-6046055D01*
X2042732Y-5886170D01*
X1945234Y-5703765D01*
X1927763Y-5646170D01*
X1885193Y-5505836D01*
X1864920Y-5300000D01*
X1885193Y-5094164D01*
X1945233Y-4896238D01*
X1945234Y-4896235D01*
X2042732Y-4713830D01*
X2173945Y-4553945D01*
X2333830Y-4422732D01*
X2516235Y-4325234D01*
X2516238Y-4325233D01*
X2714164Y-4265193D01*
X2791293Y-4257596D01*
X2868420Y-4250000D01*
X2971580Y-4250000D01*
X3048707Y-4257596D01*
X3048707Y-4257596D01*
G37*
G36*
X8128707Y-4257596D02*
G01*
X8205836Y-4265193D01*
X8403762Y-4325233D01*
X8403765Y-4325234D01*
X8586170Y-4422732D01*
X8746055Y-4553945D01*
X8877268Y-4713830D01*
X8974766Y-4896235D01*
X8974767Y-4896238D01*
X9034807Y-5094164D01*
X9055080Y-5300000D01*
X9034807Y-5505836D01*
X8992237Y-5646170D01*
X8974766Y-5703765D01*
X8877268Y-5886170D01*
X8746055Y-6046055D01*
X8586170Y-6177268D01*
X8403765Y-6274766D01*
X8403762Y-6274767D01*
X8205836Y-6334807D01*
X8128707Y-6342404D01*
X8051580Y-6350000D01*
X7948420Y-6350000D01*
X7871293Y-6342403D01*
X7794164Y-6334807D01*
X7596238Y-6274767D01*
X7596235Y-6274766D01*
X7413830Y-6177268D01*
X7253945Y-6046055D01*
X7122732Y-5886170D01*
X7025234Y-5703765D01*
X7007763Y-5646170D01*
X6965193Y-5505836D01*
X6944920Y-5300000D01*
X6965193Y-5094164D01*
X7025233Y-4896238D01*
X7025234Y-4896235D01*
X7122732Y-4713830D01*
X7253945Y-4553945D01*
X7413830Y-4422732D01*
X7596235Y-4325234D01*
X7596238Y-4325233D01*
X7794164Y-4265193D01*
X7871293Y-4257596D01*
X7948420Y-4250000D01*
X8051580Y-4250000D01*
X8128707Y-4257596D01*
X8128707Y-4257596D01*
G37*
G36*
X5588707Y-4257596D02*
G01*
X5665836Y-4265193D01*
X5863762Y-4325233D01*
X5863765Y-4325234D01*
X6046170Y-4422732D01*
X6206055Y-4553945D01*
X6337268Y-4713830D01*
X6434766Y-4896235D01*
X6434767Y-4896238D01*
X6494807Y-5094164D01*
X6515080Y-5300000D01*
X6494807Y-5505836D01*
X6452237Y-5646170D01*
X6434766Y-5703765D01*
X6337268Y-5886170D01*
X6206055Y-6046055D01*
X6046170Y-6177268D01*
X5863765Y-6274766D01*
X5863762Y-6274767D01*
X5665836Y-6334807D01*
X5588707Y-6342404D01*
X5511580Y-6350000D01*
X5408420Y-6350000D01*
X5331293Y-6342403D01*
X5254164Y-6334807D01*
X5056238Y-6274767D01*
X5056235Y-6274766D01*
X4873830Y-6177268D01*
X4713945Y-6046055D01*
X4582732Y-5886170D01*
X4485234Y-5703765D01*
X4467763Y-5646170D01*
X4425193Y-5505836D01*
X4404920Y-5300000D01*
X4425193Y-5094164D01*
X4485233Y-4896238D01*
X4485234Y-4896235D01*
X4582732Y-4713830D01*
X4713945Y-4553945D01*
X4873830Y-4422732D01*
X5056235Y-4325234D01*
X5056238Y-4325233D01*
X5254164Y-4265193D01*
X5331293Y-4257596D01*
X5408420Y-4250000D01*
X5511580Y-4250000D01*
X5588707Y-4257596D01*
X5588707Y-4257596D01*
G37*
G36*
X18228687Y-4035027D02*
G01*
X18406274Y-4070350D01*
X18597362Y-4149502D01*
X18769336Y-4264411D01*
X18915589Y-4410664D01*
X19030498Y-4582638D01*
X19109650Y-4773726D01*
X19150000Y-4976584D01*
X19150000Y-5183416D01*
X19109650Y-5386274D01*
X19030498Y-5577362D01*
X18915589Y-5749336D01*
X18769336Y-5895589D01*
X18597362Y-6010498D01*
X18406274Y-6089650D01*
X18232756Y-6124164D01*
X18203417Y-6130000D01*
X17996583Y-6130000D01*
X17967244Y-6124164D01*
X17793726Y-6089650D01*
X17602638Y-6010498D01*
X17430664Y-5895589D01*
X17284411Y-5749336D01*
X17169502Y-5577362D01*
X17090350Y-5386274D01*
X17050000Y-5183416D01*
X17050000Y-4976584D01*
X17090350Y-4773726D01*
X17169502Y-4582638D01*
X17284411Y-4410664D01*
X17430664Y-4264411D01*
X17602638Y-4149502D01*
X17793726Y-4070350D01*
X17971313Y-4035027D01*
X17996583Y-4030000D01*
X18203417Y-4030000D01*
X18228687Y-4035027D01*
X18228687Y-4035027D01*
G37*
G36*
X-17971313Y-4035027D02*
G01*
X-17793726Y-4070350D01*
X-17602638Y-4149502D01*
X-17430664Y-4264411D01*
X-17284411Y-4410664D01*
X-17169502Y-4582638D01*
X-17090350Y-4773726D01*
X-17050000Y-4976584D01*
X-17050000Y-5183416D01*
X-17090350Y-5386274D01*
X-17169502Y-5577362D01*
X-17284411Y-5749336D01*
X-17430664Y-5895589D01*
X-17602638Y-6010498D01*
X-17793726Y-6089650D01*
X-17967244Y-6124164D01*
X-17996583Y-6130000D01*
X-18203417Y-6130000D01*
X-18232756Y-6124164D01*
X-18406274Y-6089650D01*
X-18597362Y-6010498D01*
X-18769336Y-5895589D01*
X-18915589Y-5749336D01*
X-19030498Y-5577362D01*
X-19109650Y-5386274D01*
X-19150000Y-5183416D01*
X-19150000Y-4976584D01*
X-19109650Y-4773726D01*
X-19030498Y-4582638D01*
X-18915589Y-4410664D01*
X-18769336Y-4264411D01*
X-18597362Y-4149502D01*
X-18406274Y-4070350D01*
X-18228687Y-4035027D01*
X-18203417Y-4030000D01*
X-17996583Y-4030000D01*
X-17971313Y-4035027D01*
X-17971313Y-4035027D01*
G37*
G36*
X11828707Y-4017596D02*
G01*
X11905836Y-4025193D01*
X12054702Y-4070351D01*
X12103765Y-4085234D01*
X12286170Y-4182732D01*
X12446055Y-4313945D01*
X12577268Y-4473830D01*
X12674766Y-4656235D01*
X12674767Y-4656238D01*
X12734807Y-4854164D01*
X12755080Y-5060000D01*
X12734807Y-5265836D01*
X12674767Y-5463762D01*
X12674766Y-5463765D01*
X12577268Y-5646170D01*
X12446055Y-5806055D01*
X12286170Y-5937268D01*
X12103765Y-6034766D01*
X12103762Y-6034767D01*
X11905836Y-6094807D01*
X11828707Y-6102403D01*
X11751580Y-6110000D01*
X11648420Y-6110000D01*
X11571293Y-6102404D01*
X11494164Y-6094807D01*
X11296238Y-6034767D01*
X11296235Y-6034766D01*
X11113830Y-5937268D01*
X10953945Y-5806055D01*
X10822732Y-5646170D01*
X10725234Y-5463765D01*
X10725233Y-5463762D01*
X10665193Y-5265836D01*
X10644920Y-5060000D01*
X10665193Y-4854164D01*
X10725233Y-4656238D01*
X10725234Y-4656235D01*
X10822732Y-4473830D01*
X10953945Y-4313945D01*
X11113830Y-4182732D01*
X11296235Y-4085234D01*
X11345298Y-4070351D01*
X11494164Y-4025193D01*
X11571293Y-4017596D01*
X11648420Y-4010000D01*
X11751580Y-4010000D01*
X11828707Y-4017596D01*
X11828707Y-4017596D01*
G37*
G36*
X20928687Y-2765027D02*
G01*
X21106274Y-2800350D01*
X21297362Y-2879502D01*
X21469336Y-2994411D01*
X21615589Y-3140664D01*
X21730498Y-3312638D01*
X21809650Y-3503726D01*
X21850000Y-3706584D01*
X21850000Y-3913416D01*
X21809650Y-4116274D01*
X21730498Y-4307362D01*
X21615589Y-4479336D01*
X21469336Y-4625589D01*
X21297362Y-4740498D01*
X21106274Y-4819650D01*
X20932756Y-4854164D01*
X20903417Y-4860000D01*
X20696583Y-4860000D01*
X20667244Y-4854164D01*
X20493726Y-4819650D01*
X20302638Y-4740498D01*
X20130664Y-4625589D01*
X19984411Y-4479336D01*
X19869502Y-4307362D01*
X19790350Y-4116274D01*
X19750000Y-3913416D01*
X19750000Y-3706584D01*
X19790350Y-3503726D01*
X19869502Y-3312638D01*
X19984411Y-3140664D01*
X20130664Y-2994411D01*
X20302638Y-2879502D01*
X20493726Y-2800350D01*
X20671313Y-2765027D01*
X20696583Y-2760000D01*
X20903417Y-2760000D01*
X20928687Y-2765027D01*
X20928687Y-2765027D01*
G37*
G36*
X-13371293Y-2767597D02*
G01*
X-13294164Y-2775193D01*
X-13096238Y-2835233D01*
X-13096235Y-2835234D01*
X-12913830Y-2932732D01*
X-12753945Y-3063945D01*
X-12622732Y-3223830D01*
X-12525234Y-3406235D01*
X-12525233Y-3406238D01*
X-12465193Y-3604164D01*
X-12444920Y-3810000D01*
X-12465193Y-4015836D01*
X-12519166Y-4193762D01*
X-12525234Y-4213765D01*
X-12622732Y-4396170D01*
X-12753945Y-4556055D01*
X-12913830Y-4687268D01*
X-13096235Y-4784766D01*
X-13096238Y-4784767D01*
X-13294164Y-4844807D01*
X-13371293Y-4852404D01*
X-13448420Y-4860000D01*
X-13551580Y-4860000D01*
X-13628707Y-4852404D01*
X-13705836Y-4844807D01*
X-13903762Y-4784767D01*
X-13903765Y-4784766D01*
X-14086170Y-4687268D01*
X-14246055Y-4556055D01*
X-14377268Y-4396170D01*
X-14474766Y-4213765D01*
X-14480834Y-4193762D01*
X-14534807Y-4015836D01*
X-14555080Y-3810000D01*
X-14534807Y-3604164D01*
X-14474767Y-3406238D01*
X-14474766Y-3406235D01*
X-14377268Y-3223830D01*
X-14246055Y-3063945D01*
X-14086170Y-2932732D01*
X-13903765Y-2835234D01*
X-13903762Y-2835233D01*
X-13705836Y-2775193D01*
X-13628707Y-2767597D01*
X-13551580Y-2760000D01*
X-13448420Y-2760000D01*
X-13371293Y-2767597D01*
X-13371293Y-2767597D01*
G37*
G36*
X-20671313Y-2765027D02*
G01*
X-20493726Y-2800350D01*
X-20302638Y-2879502D01*
X-20130664Y-2994411D01*
X-19984411Y-3140664D01*
X-19869502Y-3312638D01*
X-19790350Y-3503726D01*
X-19750000Y-3706584D01*
X-19750000Y-3913416D01*
X-19790350Y-4116274D01*
X-19869502Y-4307362D01*
X-19984411Y-4479336D01*
X-20130664Y-4625589D01*
X-20302638Y-4740498D01*
X-20493726Y-4819650D01*
X-20667244Y-4854164D01*
X-20696583Y-4860000D01*
X-20903417Y-4860000D01*
X-20932756Y-4854164D01*
X-21106274Y-4819650D01*
X-21297362Y-4740498D01*
X-21469336Y-4625589D01*
X-21615589Y-4479336D01*
X-21730498Y-4307362D01*
X-21809650Y-4116274D01*
X-21850000Y-3913416D01*
X-21850000Y-3706584D01*
X-21809650Y-3503726D01*
X-21730498Y-3312638D01*
X-21615589Y-3140664D01*
X-21469336Y-2994411D01*
X-21297362Y-2879502D01*
X-21106274Y-2800350D01*
X-20928687Y-2765027D01*
X-20903417Y-2760000D01*
X-20696583Y-2760000D01*
X-20671313Y-2765027D01*
X-20671313Y-2765027D01*
G37*
G36*
X14628707Y-2747597D02*
G01*
X14705836Y-2755193D01*
X14854702Y-2800351D01*
X14903765Y-2815234D01*
X15086170Y-2912732D01*
X15246055Y-3043945D01*
X15377268Y-3203830D01*
X15474766Y-3386235D01*
X15474767Y-3386238D01*
X15534807Y-3584164D01*
X15555080Y-3790000D01*
X15534807Y-3995836D01*
X15474767Y-4193762D01*
X15474766Y-4193765D01*
X15377268Y-4376170D01*
X15246055Y-4536055D01*
X15086170Y-4667268D01*
X14903765Y-4764766D01*
X14903762Y-4764767D01*
X14705836Y-4824807D01*
X14628707Y-4832403D01*
X14551580Y-4840000D01*
X14448420Y-4840000D01*
X14371293Y-4832403D01*
X14294164Y-4824807D01*
X14096238Y-4764767D01*
X14096235Y-4764766D01*
X13913830Y-4667268D01*
X13753945Y-4536055D01*
X13622732Y-4376170D01*
X13525234Y-4193765D01*
X13525233Y-4193762D01*
X13465193Y-3995836D01*
X13444920Y-3790000D01*
X13465193Y-3584164D01*
X13525233Y-3386238D01*
X13525234Y-3386235D01*
X13622732Y-3203830D01*
X13753945Y-3043945D01*
X13913830Y-2912732D01*
X14096235Y-2815234D01*
X14145298Y-2800351D01*
X14294164Y-2755193D01*
X14371293Y-2747597D01*
X14448420Y-2740000D01*
X14551580Y-2740000D01*
X14628707Y-2747597D01*
X14628707Y-2747597D01*
G37*
G36*
X-7111293Y-1742597D02*
G01*
X-7034164Y-1750194D01*
X-6836238Y-1810234D01*
X-6836235Y-1810235D01*
X-6653830Y-1907733D01*
X-6493945Y-2038946D01*
X-6362732Y-2198831D01*
X-6265234Y-2381236D01*
X-6265233Y-2381239D01*
X-6205193Y-2579165D01*
X-6184920Y-2785001D01*
X-6205193Y-2990837D01*
X-6250643Y-3140665D01*
X-6265234Y-3188766D01*
X-6362732Y-3371171D01*
X-6493945Y-3531056D01*
X-6653830Y-3662269D01*
X-6836235Y-3759767D01*
X-6836238Y-3759768D01*
X-7034164Y-3819808D01*
X-7111293Y-3827405D01*
X-7188420Y-3835001D01*
X-7291580Y-3835001D01*
X-7368707Y-3827405D01*
X-7445836Y-3819808D01*
X-7643762Y-3759768D01*
X-7643765Y-3759767D01*
X-7826170Y-3662269D01*
X-7986055Y-3531056D01*
X-8117268Y-3371171D01*
X-8214766Y-3188766D01*
X-8229357Y-3140665D01*
X-8274807Y-2990837D01*
X-8295080Y-2785001D01*
X-8274807Y-2579165D01*
X-8214767Y-2381239D01*
X-8214766Y-2381236D01*
X-8117268Y-2198831D01*
X-7986055Y-2038946D01*
X-7826170Y-1907733D01*
X-7643765Y-1810235D01*
X-7643762Y-1810234D01*
X-7445836Y-1750194D01*
X-7368707Y-1742597D01*
X-7291580Y-1735001D01*
X-7188420Y-1735001D01*
X-7111293Y-1742597D01*
X-7111293Y-1742597D01*
G37*
G36*
X-9651293Y-1742597D02*
G01*
X-9574164Y-1750194D01*
X-9376238Y-1810234D01*
X-9376235Y-1810235D01*
X-9193830Y-1907733D01*
X-9033945Y-2038946D01*
X-8902732Y-2198831D01*
X-8805234Y-2381236D01*
X-8805233Y-2381239D01*
X-8745193Y-2579165D01*
X-8724920Y-2785001D01*
X-8745193Y-2990837D01*
X-8790643Y-3140665D01*
X-8805234Y-3188766D01*
X-8902732Y-3371171D01*
X-9033945Y-3531056D01*
X-9193830Y-3662269D01*
X-9376235Y-3759767D01*
X-9376238Y-3759768D01*
X-9574164Y-3819808D01*
X-9651293Y-3827405D01*
X-9728420Y-3835001D01*
X-9831580Y-3835001D01*
X-9908707Y-3827405D01*
X-9985836Y-3819808D01*
X-10183762Y-3759768D01*
X-10183765Y-3759767D01*
X-10366170Y-3662269D01*
X-10526055Y-3531056D01*
X-10657268Y-3371171D01*
X-10754766Y-3188766D01*
X-10769357Y-3140665D01*
X-10814807Y-2990837D01*
X-10835080Y-2785001D01*
X-10814807Y-2579165D01*
X-10754767Y-2381239D01*
X-10754766Y-2381236D01*
X-10657268Y-2198831D01*
X-10526055Y-2038946D01*
X-10366170Y-1907733D01*
X-10183765Y-1810235D01*
X-10183762Y-1810234D01*
X-9985836Y-1750194D01*
X-9908707Y-1742597D01*
X-9831580Y-1735001D01*
X-9728420Y-1735001D01*
X-9651293Y-1742597D01*
X-9651293Y-1742597D01*
G37*
G36*
X-2031293Y-1717596D02*
G01*
X-1954164Y-1725193D01*
X-1756238Y-1785233D01*
X-1756235Y-1785234D01*
X-1573830Y-1882732D01*
X-1413945Y-2013945D01*
X-1282732Y-2173830D01*
X-1185234Y-2356235D01*
X-1185233Y-2356238D01*
X-1125193Y-2554164D01*
X-1104920Y-2760000D01*
X-1125193Y-2965836D01*
X-1167763Y-3106170D01*
X-1185234Y-3163765D01*
X-1282732Y-3346170D01*
X-1413945Y-3506055D01*
X-1573830Y-3637268D01*
X-1756235Y-3734766D01*
X-1756238Y-3734767D01*
X-1954164Y-3794807D01*
X-2031293Y-3802403D01*
X-2108420Y-3810000D01*
X-2211580Y-3810000D01*
X-2288707Y-3802403D01*
X-2365836Y-3794807D01*
X-2563762Y-3734767D01*
X-2563765Y-3734766D01*
X-2746170Y-3637268D01*
X-2906055Y-3506055D01*
X-3037268Y-3346170D01*
X-3134766Y-3163765D01*
X-3152237Y-3106170D01*
X-3194807Y-2965836D01*
X-3215080Y-2760000D01*
X-3194807Y-2554164D01*
X-3134767Y-2356238D01*
X-3134766Y-2356235D01*
X-3037268Y-2173830D01*
X-2906055Y-2013945D01*
X-2746170Y-1882732D01*
X-2563765Y-1785234D01*
X-2563762Y-1785233D01*
X-2365836Y-1725193D01*
X-2288707Y-1717596D01*
X-2211580Y-1710000D01*
X-2108420Y-1710000D01*
X-2031293Y-1717596D01*
X-2031293Y-1717596D01*
G37*
G36*
X508707Y-1717596D02*
G01*
X585836Y-1725193D01*
X783762Y-1785233D01*
X783765Y-1785234D01*
X966170Y-1882732D01*
X1126055Y-2013945D01*
X1257268Y-2173830D01*
X1354766Y-2356235D01*
X1354767Y-2356238D01*
X1414807Y-2554164D01*
X1435080Y-2760000D01*
X1414807Y-2965836D01*
X1372237Y-3106170D01*
X1354766Y-3163765D01*
X1257268Y-3346170D01*
X1126055Y-3506055D01*
X966170Y-3637268D01*
X783765Y-3734766D01*
X783762Y-3734767D01*
X585836Y-3794807D01*
X508707Y-3802403D01*
X431580Y-3810000D01*
X328420Y-3810000D01*
X251293Y-3802403D01*
X174164Y-3794807D01*
X-23762Y-3734767D01*
X-23765Y-3734766D01*
X-206170Y-3637268D01*
X-366055Y-3506055D01*
X-497268Y-3346170D01*
X-594766Y-3163765D01*
X-612237Y-3106170D01*
X-654807Y-2965836D01*
X-675080Y-2760000D01*
X-654807Y-2554164D01*
X-594767Y-2356238D01*
X-594766Y-2356235D01*
X-497268Y-2173830D01*
X-366055Y-2013945D01*
X-206170Y-1882732D01*
X-23765Y-1785234D01*
X-23762Y-1785233D01*
X174164Y-1725193D01*
X251293Y-1717596D01*
X328420Y-1710000D01*
X431580Y-1710000D01*
X508707Y-1717596D01*
X508707Y-1717596D01*
G37*
G36*
X3048707Y-1717596D02*
G01*
X3125836Y-1725193D01*
X3323762Y-1785233D01*
X3323765Y-1785234D01*
X3506170Y-1882732D01*
X3666055Y-2013945D01*
X3797268Y-2173830D01*
X3894766Y-2356235D01*
X3894767Y-2356238D01*
X3954807Y-2554164D01*
X3975080Y-2760000D01*
X3954807Y-2965836D01*
X3912237Y-3106170D01*
X3894766Y-3163765D01*
X3797268Y-3346170D01*
X3666055Y-3506055D01*
X3506170Y-3637268D01*
X3323765Y-3734766D01*
X3323762Y-3734767D01*
X3125836Y-3794807D01*
X3048707Y-3802403D01*
X2971580Y-3810000D01*
X2868420Y-3810000D01*
X2791293Y-3802403D01*
X2714164Y-3794807D01*
X2516238Y-3734767D01*
X2516235Y-3734766D01*
X2333830Y-3637268D01*
X2173945Y-3506055D01*
X2042732Y-3346170D01*
X1945234Y-3163765D01*
X1927763Y-3106170D01*
X1885193Y-2965836D01*
X1864920Y-2760000D01*
X1885193Y-2554164D01*
X1945233Y-2356238D01*
X1945234Y-2356235D01*
X2042732Y-2173830D01*
X2173945Y-2013945D01*
X2333830Y-1882732D01*
X2516235Y-1785234D01*
X2516238Y-1785233D01*
X2714164Y-1725193D01*
X2791293Y-1717596D01*
X2868420Y-1710000D01*
X2971580Y-1710000D01*
X3048707Y-1717596D01*
X3048707Y-1717596D01*
G37*
G36*
X8128707Y-1717596D02*
G01*
X8205836Y-1725193D01*
X8403762Y-1785233D01*
X8403765Y-1785234D01*
X8586170Y-1882732D01*
X8746055Y-2013945D01*
X8877268Y-2173830D01*
X8974766Y-2356235D01*
X8974767Y-2356238D01*
X9034807Y-2554164D01*
X9055080Y-2760000D01*
X9034807Y-2965836D01*
X8992237Y-3106170D01*
X8974766Y-3163765D01*
X8877268Y-3346170D01*
X8746055Y-3506055D01*
X8586170Y-3637268D01*
X8403765Y-3734766D01*
X8403762Y-3734767D01*
X8205836Y-3794807D01*
X8128707Y-3802403D01*
X8051580Y-3810000D01*
X7948420Y-3810000D01*
X7871293Y-3802403D01*
X7794164Y-3794807D01*
X7596238Y-3734767D01*
X7596235Y-3734766D01*
X7413830Y-3637268D01*
X7253945Y-3506055D01*
X7122732Y-3346170D01*
X7025234Y-3163765D01*
X7007763Y-3106170D01*
X6965193Y-2965836D01*
X6944920Y-2760000D01*
X6965193Y-2554164D01*
X7025233Y-2356238D01*
X7025234Y-2356235D01*
X7122732Y-2173830D01*
X7253945Y-2013945D01*
X7413830Y-1882732D01*
X7596235Y-1785234D01*
X7596238Y-1785233D01*
X7794164Y-1725193D01*
X7871293Y-1717596D01*
X7948420Y-1710000D01*
X8051580Y-1710000D01*
X8128707Y-1717596D01*
X8128707Y-1717596D01*
G37*
G36*
X5588707Y-1717596D02*
G01*
X5665836Y-1725193D01*
X5863762Y-1785233D01*
X5863765Y-1785234D01*
X6046170Y-1882732D01*
X6206055Y-2013945D01*
X6337268Y-2173830D01*
X6434766Y-2356235D01*
X6434767Y-2356238D01*
X6494807Y-2554164D01*
X6515080Y-2760000D01*
X6494807Y-2965836D01*
X6452237Y-3106170D01*
X6434766Y-3163765D01*
X6337268Y-3346170D01*
X6206055Y-3506055D01*
X6046170Y-3637268D01*
X5863765Y-3734766D01*
X5863762Y-3734767D01*
X5665836Y-3794807D01*
X5588707Y-3802403D01*
X5511580Y-3810000D01*
X5408420Y-3810000D01*
X5331293Y-3802403D01*
X5254164Y-3794807D01*
X5056238Y-3734767D01*
X5056235Y-3734766D01*
X4873830Y-3637268D01*
X4713945Y-3506055D01*
X4582732Y-3346170D01*
X4485234Y-3163765D01*
X4467763Y-3106170D01*
X4425193Y-2965836D01*
X4404920Y-2760000D01*
X4425193Y-2554164D01*
X4485233Y-2356238D01*
X4485234Y-2356235D01*
X4582732Y-2173830D01*
X4713945Y-2013945D01*
X4873830Y-1882732D01*
X5056235Y-1785234D01*
X5056238Y-1785233D01*
X5254164Y-1725193D01*
X5331293Y-1717596D01*
X5408420Y-1710000D01*
X5511580Y-1710000D01*
X5588707Y-1717596D01*
X5588707Y-1717596D01*
G37*
G36*
X-4571293Y-1717596D02*
G01*
X-4494164Y-1725193D01*
X-4296238Y-1785233D01*
X-4296235Y-1785234D01*
X-4113830Y-1882732D01*
X-3953945Y-2013945D01*
X-3822732Y-2173830D01*
X-3725234Y-2356235D01*
X-3725233Y-2356238D01*
X-3665193Y-2554164D01*
X-3644920Y-2760000D01*
X-3665193Y-2965836D01*
X-3707763Y-3106170D01*
X-3725234Y-3163765D01*
X-3822732Y-3346170D01*
X-3953945Y-3506055D01*
X-4113830Y-3637268D01*
X-4296235Y-3734766D01*
X-4296238Y-3734767D01*
X-4494164Y-3794807D01*
X-4571293Y-3802403D01*
X-4648420Y-3810000D01*
X-4751580Y-3810000D01*
X-4828707Y-3802403D01*
X-4905836Y-3794807D01*
X-5103762Y-3734767D01*
X-5103765Y-3734766D01*
X-5286170Y-3637268D01*
X-5446055Y-3506055D01*
X-5577268Y-3346170D01*
X-5674766Y-3163765D01*
X-5692237Y-3106170D01*
X-5734807Y-2965836D01*
X-5755080Y-2760000D01*
X-5734807Y-2554164D01*
X-5674767Y-2356238D01*
X-5674766Y-2356235D01*
X-5577268Y-2173830D01*
X-5446055Y-2013945D01*
X-5286170Y-1882732D01*
X-5103765Y-1785234D01*
X-5103762Y-1785233D01*
X-4905836Y-1725193D01*
X-4828707Y-1717596D01*
X-4751580Y-1710000D01*
X-4648420Y-1710000D01*
X-4571293Y-1717596D01*
X-4571293Y-1717596D01*
G37*
G36*
X-17971313Y-1495027D02*
G01*
X-17793726Y-1530350D01*
X-17602638Y-1609502D01*
X-17430664Y-1724411D01*
X-17284411Y-1870664D01*
X-17169502Y-2042638D01*
X-17090350Y-2233726D01*
X-17050000Y-2436584D01*
X-17050000Y-2643416D01*
X-17090350Y-2846274D01*
X-17169502Y-3037362D01*
X-17284411Y-3209336D01*
X-17430664Y-3355589D01*
X-17602638Y-3470498D01*
X-17793726Y-3549650D01*
X-17967244Y-3584164D01*
X-17996583Y-3590000D01*
X-18203417Y-3590000D01*
X-18232756Y-3584164D01*
X-18406274Y-3549650D01*
X-18597362Y-3470498D01*
X-18769336Y-3355589D01*
X-18915589Y-3209336D01*
X-19030498Y-3037362D01*
X-19109650Y-2846274D01*
X-19150000Y-2643416D01*
X-19150000Y-2436584D01*
X-19109650Y-2233726D01*
X-19030498Y-2042638D01*
X-18915589Y-1870664D01*
X-18769336Y-1724411D01*
X-18597362Y-1609502D01*
X-18406274Y-1530350D01*
X-18228687Y-1495027D01*
X-18203417Y-1490000D01*
X-17996583Y-1490000D01*
X-17971313Y-1495027D01*
X-17971313Y-1495027D01*
G37*
G36*
X18228687Y-1495027D02*
G01*
X18406274Y-1530350D01*
X18597362Y-1609502D01*
X18769336Y-1724411D01*
X18915589Y-1870664D01*
X19030498Y-2042638D01*
X19109650Y-2233726D01*
X19150000Y-2436584D01*
X19150000Y-2643416D01*
X19109650Y-2846274D01*
X19030498Y-3037362D01*
X18915589Y-3209336D01*
X18769336Y-3355589D01*
X18597362Y-3470498D01*
X18406274Y-3549650D01*
X18232756Y-3584164D01*
X18203417Y-3590000D01*
X17996583Y-3590000D01*
X17967244Y-3584164D01*
X17793726Y-3549650D01*
X17602638Y-3470498D01*
X17430664Y-3355589D01*
X17284411Y-3209336D01*
X17169502Y-3037362D01*
X17090350Y-2846274D01*
X17050000Y-2643416D01*
X17050000Y-2436584D01*
X17090350Y-2233726D01*
X17169502Y-2042638D01*
X17284411Y-1870664D01*
X17430664Y-1724411D01*
X17602638Y-1609502D01*
X17793726Y-1530350D01*
X17971313Y-1495027D01*
X17996583Y-1490000D01*
X18203417Y-1490000D01*
X18228687Y-1495027D01*
X18228687Y-1495027D01*
G37*
G36*
X11828707Y-1477597D02*
G01*
X11905836Y-1485193D01*
X12054702Y-1530351D01*
X12103765Y-1545234D01*
X12286170Y-1642732D01*
X12446055Y-1773945D01*
X12577268Y-1933830D01*
X12674766Y-2116235D01*
X12674767Y-2116238D01*
X12734807Y-2314164D01*
X12755080Y-2520000D01*
X12734807Y-2725836D01*
X12674767Y-2923762D01*
X12674766Y-2923765D01*
X12577268Y-3106170D01*
X12446055Y-3266055D01*
X12286170Y-3397268D01*
X12103765Y-3494766D01*
X12103762Y-3494767D01*
X11905836Y-3554807D01*
X11828707Y-3562404D01*
X11751580Y-3570000D01*
X11648420Y-3570000D01*
X11571293Y-3562404D01*
X11494164Y-3554807D01*
X11296238Y-3494767D01*
X11296235Y-3494766D01*
X11113830Y-3397268D01*
X10953945Y-3266055D01*
X10822732Y-3106170D01*
X10725234Y-2923765D01*
X10725233Y-2923762D01*
X10665193Y-2725836D01*
X10644920Y-2520000D01*
X10665193Y-2314164D01*
X10725233Y-2116238D01*
X10725234Y-2116235D01*
X10822732Y-1933830D01*
X10953945Y-1773945D01*
X11113830Y-1642732D01*
X11296235Y-1545234D01*
X11345298Y-1530351D01*
X11494164Y-1485193D01*
X11571293Y-1477597D01*
X11648420Y-1470000D01*
X11751580Y-1470000D01*
X11828707Y-1477597D01*
X11828707Y-1477597D01*
G37*
G36*
X20928687Y-225027D02*
G01*
X21106274Y-260350D01*
X21297362Y-339502D01*
X21469336Y-454411D01*
X21615589Y-600664D01*
X21730498Y-772638D01*
X21809650Y-963726D01*
X21850000Y-1166584D01*
X21850000Y-1373416D01*
X21809650Y-1576274D01*
X21730498Y-1767362D01*
X21615589Y-1939336D01*
X21469336Y-2085589D01*
X21297362Y-2200498D01*
X21106274Y-2279650D01*
X20932756Y-2314164D01*
X20903417Y-2320000D01*
X20696583Y-2320000D01*
X20667244Y-2314164D01*
X20493726Y-2279650D01*
X20302638Y-2200498D01*
X20130664Y-2085589D01*
X19984411Y-1939336D01*
X19869502Y-1767362D01*
X19790350Y-1576274D01*
X19750000Y-1373416D01*
X19750000Y-1166584D01*
X19790350Y-963726D01*
X19869502Y-772638D01*
X19984411Y-600664D01*
X20130664Y-454411D01*
X20302638Y-339502D01*
X20493726Y-260350D01*
X20671313Y-225027D01*
X20696583Y-220000D01*
X20903417Y-220000D01*
X20928687Y-225027D01*
X20928687Y-225027D01*
G37*
G36*
X-13371293Y-227597D02*
G01*
X-13294164Y-235193D01*
X-13096238Y-295233D01*
X-13096235Y-295234D01*
X-12913830Y-392732D01*
X-12753945Y-523945D01*
X-12622732Y-683830D01*
X-12525234Y-866235D01*
X-12525233Y-866238D01*
X-12465193Y-1064164D01*
X-12444920Y-1270000D01*
X-12465193Y-1475836D01*
X-12519166Y-1653762D01*
X-12525234Y-1673765D01*
X-12622732Y-1856170D01*
X-12753945Y-2016055D01*
X-12913830Y-2147268D01*
X-13096235Y-2244766D01*
X-13096238Y-2244767D01*
X-13294164Y-2304807D01*
X-13371293Y-2312404D01*
X-13448420Y-2320000D01*
X-13551580Y-2320000D01*
X-13628707Y-2312403D01*
X-13705836Y-2304807D01*
X-13903762Y-2244767D01*
X-13903765Y-2244766D01*
X-14086170Y-2147268D01*
X-14246055Y-2016055D01*
X-14377268Y-1856170D01*
X-14474766Y-1673765D01*
X-14480834Y-1653762D01*
X-14534807Y-1475836D01*
X-14555080Y-1270000D01*
X-14534807Y-1064164D01*
X-14474767Y-866238D01*
X-14474766Y-866235D01*
X-14377268Y-683830D01*
X-14246055Y-523945D01*
X-14086170Y-392732D01*
X-13903765Y-295234D01*
X-13903762Y-295233D01*
X-13705836Y-235193D01*
X-13628707Y-227597D01*
X-13551580Y-220000D01*
X-13448420Y-220000D01*
X-13371293Y-227597D01*
X-13371293Y-227597D01*
G37*
G36*
X-20671313Y-225027D02*
G01*
X-20493726Y-260350D01*
X-20302638Y-339502D01*
X-20130664Y-454411D01*
X-19984411Y-600664D01*
X-19869502Y-772638D01*
X-19790350Y-963726D01*
X-19750000Y-1166584D01*
X-19750000Y-1373416D01*
X-19790350Y-1576274D01*
X-19869502Y-1767362D01*
X-19984411Y-1939336D01*
X-20130664Y-2085589D01*
X-20302638Y-2200498D01*
X-20493726Y-2279650D01*
X-20667244Y-2314164D01*
X-20696583Y-2320000D01*
X-20903417Y-2320000D01*
X-20932756Y-2314164D01*
X-21106274Y-2279650D01*
X-21297362Y-2200498D01*
X-21469336Y-2085589D01*
X-21615589Y-1939336D01*
X-21730498Y-1767362D01*
X-21809650Y-1576274D01*
X-21850000Y-1373416D01*
X-21850000Y-1166584D01*
X-21809650Y-963726D01*
X-21730498Y-772638D01*
X-21615589Y-600664D01*
X-21469336Y-454411D01*
X-21297362Y-339502D01*
X-21106274Y-260350D01*
X-20928687Y-225027D01*
X-20903417Y-220000D01*
X-20696583Y-220000D01*
X-20671313Y-225027D01*
X-20671313Y-225027D01*
G37*
G36*
X14628707Y-207597D02*
G01*
X14705836Y-215193D01*
X14854702Y-260351D01*
X14903765Y-275234D01*
X15086170Y-372732D01*
X15246055Y-503945D01*
X15377268Y-663830D01*
X15474766Y-846235D01*
X15474767Y-846238D01*
X15534807Y-1044164D01*
X15555080Y-1250000D01*
X15534807Y-1455836D01*
X15474767Y-1653762D01*
X15474766Y-1653765D01*
X15377268Y-1836170D01*
X15246055Y-1996055D01*
X15086170Y-2127268D01*
X14903765Y-2224766D01*
X14903762Y-2224767D01*
X14705836Y-2284807D01*
X14628707Y-2292404D01*
X14551580Y-2300000D01*
X14448420Y-2300000D01*
X14371293Y-2292403D01*
X14294164Y-2284807D01*
X14096238Y-2224767D01*
X14096235Y-2224766D01*
X13913830Y-2127268D01*
X13753945Y-1996055D01*
X13622732Y-1836170D01*
X13525234Y-1653765D01*
X13525233Y-1653762D01*
X13465193Y-1455836D01*
X13444920Y-1250000D01*
X13465193Y-1044164D01*
X13525233Y-846238D01*
X13525234Y-846235D01*
X13622732Y-663830D01*
X13753945Y-503945D01*
X13913830Y-372732D01*
X14096235Y-275234D01*
X14145298Y-260351D01*
X14294164Y-215193D01*
X14371293Y-207597D01*
X14448420Y-200000D01*
X14551580Y-200000D01*
X14628707Y-207597D01*
X14628707Y-207597D01*
G37*
G36*
X-9651293Y797403D02*
G01*
X-9574164Y789806D01*
X-9376238Y729766D01*
X-9376235Y729765D01*
X-9193830Y632267D01*
X-9033945Y501054D01*
X-8902732Y341169D01*
X-8805234Y158764D01*
X-8805233Y158761D01*
X-8745193Y-39165D01*
X-8724920Y-245001D01*
X-8745193Y-450837D01*
X-8790643Y-600665D01*
X-8805234Y-648766D01*
X-8902732Y-831171D01*
X-9033945Y-991056D01*
X-9193830Y-1122269D01*
X-9376235Y-1219767D01*
X-9376238Y-1219768D01*
X-9574164Y-1279808D01*
X-9651293Y-1287405D01*
X-9728420Y-1295001D01*
X-9831580Y-1295001D01*
X-9908707Y-1287405D01*
X-9985836Y-1279808D01*
X-10183762Y-1219768D01*
X-10183765Y-1219767D01*
X-10366170Y-1122269D01*
X-10526055Y-991056D01*
X-10657268Y-831171D01*
X-10754766Y-648766D01*
X-10769357Y-600665D01*
X-10814807Y-450837D01*
X-10835080Y-245001D01*
X-10814807Y-39165D01*
X-10754767Y158761D01*
X-10754766Y158764D01*
X-10657268Y341169D01*
X-10526055Y501054D01*
X-10366170Y632267D01*
X-10183765Y729765D01*
X-10183762Y729766D01*
X-9985836Y789806D01*
X-9908707Y797402D01*
X-9831580Y804999D01*
X-9728420Y804999D01*
X-9651293Y797403D01*
X-9651293Y797403D01*
G37*
G36*
X-7111293Y797403D02*
G01*
X-7034164Y789806D01*
X-6836238Y729766D01*
X-6836235Y729765D01*
X-6653830Y632267D01*
X-6493945Y501054D01*
X-6362732Y341169D01*
X-6265234Y158764D01*
X-6265233Y158761D01*
X-6205193Y-39165D01*
X-6184920Y-245001D01*
X-6205193Y-450837D01*
X-6250643Y-600665D01*
X-6265234Y-648766D01*
X-6362732Y-831171D01*
X-6493945Y-991056D01*
X-6653830Y-1122269D01*
X-6836235Y-1219767D01*
X-6836238Y-1219768D01*
X-7034164Y-1279808D01*
X-7111293Y-1287405D01*
X-7188420Y-1295001D01*
X-7291580Y-1295001D01*
X-7368707Y-1287405D01*
X-7445836Y-1279808D01*
X-7643762Y-1219768D01*
X-7643765Y-1219767D01*
X-7826170Y-1122269D01*
X-7986055Y-991056D01*
X-8117268Y-831171D01*
X-8214766Y-648766D01*
X-8229357Y-600665D01*
X-8274807Y-450837D01*
X-8295080Y-245001D01*
X-8274807Y-39165D01*
X-8214767Y158761D01*
X-8214766Y158764D01*
X-8117268Y341169D01*
X-7986055Y501054D01*
X-7826170Y632267D01*
X-7643765Y729765D01*
X-7643762Y729766D01*
X-7445836Y789806D01*
X-7368707Y797402D01*
X-7291580Y804999D01*
X-7188420Y804999D01*
X-7111293Y797403D01*
X-7111293Y797403D01*
G37*
G36*
X-4571293Y822404D02*
G01*
X-4494164Y814807D01*
X-4296238Y754767D01*
X-4296235Y754766D01*
X-4113830Y657268D01*
X-3953945Y526055D01*
X-3822732Y366170D01*
X-3725234Y183765D01*
X-3725233Y183762D01*
X-3665193Y-14164D01*
X-3644920Y-220000D01*
X-3665193Y-425836D01*
X-3707763Y-566170D01*
X-3725234Y-623765D01*
X-3822732Y-806170D01*
X-3953945Y-966055D01*
X-4113830Y-1097268D01*
X-4296235Y-1194766D01*
X-4296238Y-1194767D01*
X-4494164Y-1254807D01*
X-4571293Y-1262403D01*
X-4648420Y-1270000D01*
X-4751580Y-1270000D01*
X-4828707Y-1262404D01*
X-4905836Y-1254807D01*
X-5103762Y-1194767D01*
X-5103765Y-1194766D01*
X-5286170Y-1097268D01*
X-5446055Y-966055D01*
X-5577268Y-806170D01*
X-5674766Y-623765D01*
X-5692237Y-566170D01*
X-5734807Y-425836D01*
X-5755080Y-220000D01*
X-5734807Y-14164D01*
X-5674767Y183762D01*
X-5674766Y183765D01*
X-5577268Y366170D01*
X-5446055Y526055D01*
X-5286170Y657268D01*
X-5103765Y754766D01*
X-5103762Y754767D01*
X-4905836Y814807D01*
X-4828707Y822403D01*
X-4751580Y830000D01*
X-4648420Y830000D01*
X-4571293Y822404D01*
X-4571293Y822404D01*
G37*
G36*
X5588707Y822403D02*
G01*
X5665836Y814807D01*
X5863762Y754767D01*
X5863765Y754766D01*
X6046170Y657268D01*
X6206055Y526055D01*
X6337268Y366170D01*
X6434766Y183765D01*
X6434767Y183762D01*
X6494807Y-14164D01*
X6515080Y-220000D01*
X6494807Y-425836D01*
X6452237Y-566170D01*
X6434766Y-623765D01*
X6337268Y-806170D01*
X6206055Y-966055D01*
X6046170Y-1097268D01*
X5863765Y-1194766D01*
X5863762Y-1194767D01*
X5665836Y-1254807D01*
X5588707Y-1262404D01*
X5511580Y-1270000D01*
X5408420Y-1270000D01*
X5331293Y-1262403D01*
X5254164Y-1254807D01*
X5056238Y-1194767D01*
X5056235Y-1194766D01*
X4873830Y-1097268D01*
X4713945Y-966055D01*
X4582732Y-806170D01*
X4485234Y-623765D01*
X4467763Y-566170D01*
X4425193Y-425836D01*
X4404920Y-220000D01*
X4425193Y-14164D01*
X4485233Y183762D01*
X4485234Y183765D01*
X4582732Y366170D01*
X4713945Y526055D01*
X4873830Y657268D01*
X5056235Y754766D01*
X5056238Y754767D01*
X5254164Y814807D01*
X5331293Y822404D01*
X5408420Y830000D01*
X5511580Y830000D01*
X5588707Y822403D01*
X5588707Y822403D01*
G37*
G36*
X508707Y822403D02*
G01*
X585836Y814807D01*
X783762Y754767D01*
X783765Y754766D01*
X966170Y657268D01*
X1126055Y526055D01*
X1257268Y366170D01*
X1354766Y183765D01*
X1354767Y183762D01*
X1414807Y-14164D01*
X1435080Y-220000D01*
X1414807Y-425836D01*
X1372237Y-566170D01*
X1354766Y-623765D01*
X1257268Y-806170D01*
X1126055Y-966055D01*
X966170Y-1097268D01*
X783765Y-1194766D01*
X783762Y-1194767D01*
X585836Y-1254807D01*
X508707Y-1262403D01*
X431580Y-1270000D01*
X328420Y-1270000D01*
X251293Y-1262403D01*
X174164Y-1254807D01*
X-23762Y-1194767D01*
X-23765Y-1194766D01*
X-206170Y-1097268D01*
X-366055Y-966055D01*
X-497268Y-806170D01*
X-594766Y-623765D01*
X-612237Y-566170D01*
X-654807Y-425836D01*
X-675080Y-220000D01*
X-654807Y-14164D01*
X-594767Y183762D01*
X-594766Y183765D01*
X-497268Y366170D01*
X-366055Y526055D01*
X-206170Y657268D01*
X-23765Y754766D01*
X-23762Y754767D01*
X174164Y814807D01*
X251293Y822404D01*
X328420Y830000D01*
X431580Y830000D01*
X508707Y822403D01*
X508707Y822403D01*
G37*
G36*
X3048707Y822403D02*
G01*
X3125836Y814807D01*
X3323762Y754767D01*
X3323765Y754766D01*
X3506170Y657268D01*
X3666055Y526055D01*
X3797268Y366170D01*
X3894766Y183765D01*
X3894767Y183762D01*
X3954807Y-14164D01*
X3975080Y-220000D01*
X3954807Y-425836D01*
X3912237Y-566170D01*
X3894766Y-623765D01*
X3797268Y-806170D01*
X3666055Y-966055D01*
X3506170Y-1097268D01*
X3323765Y-1194766D01*
X3323762Y-1194767D01*
X3125836Y-1254807D01*
X3048707Y-1262403D01*
X2971580Y-1270000D01*
X2868420Y-1270000D01*
X2791293Y-1262403D01*
X2714164Y-1254807D01*
X2516238Y-1194767D01*
X2516235Y-1194766D01*
X2333830Y-1097268D01*
X2173945Y-966055D01*
X2042732Y-806170D01*
X1945234Y-623765D01*
X1927763Y-566170D01*
X1885193Y-425836D01*
X1864920Y-220000D01*
X1885193Y-14164D01*
X1945233Y183762D01*
X1945234Y183765D01*
X2042732Y366170D01*
X2173945Y526055D01*
X2333830Y657268D01*
X2516235Y754766D01*
X2516238Y754767D01*
X2714164Y814807D01*
X2791293Y822404D01*
X2868420Y830000D01*
X2971580Y830000D01*
X3048707Y822403D01*
X3048707Y822403D01*
G37*
G36*
X8128707Y822403D02*
G01*
X8205836Y814807D01*
X8403762Y754767D01*
X8403765Y754766D01*
X8586170Y657268D01*
X8746055Y526055D01*
X8877268Y366170D01*
X8974766Y183765D01*
X8974767Y183762D01*
X9034807Y-14164D01*
X9055080Y-220000D01*
X9034807Y-425836D01*
X8992237Y-566170D01*
X8974766Y-623765D01*
X8877268Y-806170D01*
X8746055Y-966055D01*
X8586170Y-1097268D01*
X8403765Y-1194766D01*
X8403762Y-1194767D01*
X8205836Y-1254807D01*
X8128707Y-1262404D01*
X8051580Y-1270000D01*
X7948420Y-1270000D01*
X7871293Y-1262403D01*
X7794164Y-1254807D01*
X7596238Y-1194767D01*
X7596235Y-1194766D01*
X7413830Y-1097268D01*
X7253945Y-966055D01*
X7122732Y-806170D01*
X7025234Y-623765D01*
X7007763Y-566170D01*
X6965193Y-425836D01*
X6944920Y-220000D01*
X6965193Y-14164D01*
X7025233Y183762D01*
X7025234Y183765D01*
X7122732Y366170D01*
X7253945Y526055D01*
X7413830Y657268D01*
X7596235Y754766D01*
X7596238Y754767D01*
X7794164Y814807D01*
X7871293Y822404D01*
X7948420Y830000D01*
X8051580Y830000D01*
X8128707Y822403D01*
X8128707Y822403D01*
G37*
G36*
X-2031293Y822404D02*
G01*
X-1954164Y814807D01*
X-1756238Y754767D01*
X-1756235Y754766D01*
X-1573830Y657268D01*
X-1413945Y526055D01*
X-1282732Y366170D01*
X-1185234Y183765D01*
X-1185233Y183762D01*
X-1125193Y-14164D01*
X-1104920Y-220000D01*
X-1125193Y-425836D01*
X-1167763Y-566170D01*
X-1185234Y-623765D01*
X-1282732Y-806170D01*
X-1413945Y-966055D01*
X-1573830Y-1097268D01*
X-1756235Y-1194766D01*
X-1756238Y-1194767D01*
X-1954164Y-1254807D01*
X-2031293Y-1262403D01*
X-2108420Y-1270000D01*
X-2211580Y-1270000D01*
X-2288707Y-1262403D01*
X-2365836Y-1254807D01*
X-2563762Y-1194767D01*
X-2563765Y-1194766D01*
X-2746170Y-1097268D01*
X-2906055Y-966055D01*
X-3037268Y-806170D01*
X-3134766Y-623765D01*
X-3152237Y-566170D01*
X-3194807Y-425836D01*
X-3215080Y-220000D01*
X-3194807Y-14164D01*
X-3134767Y183762D01*
X-3134766Y183765D01*
X-3037268Y366170D01*
X-2906055Y526055D01*
X-2746170Y657268D01*
X-2563765Y754766D01*
X-2563762Y754767D01*
X-2365836Y814807D01*
X-2288707Y822403D01*
X-2211580Y830000D01*
X-2108420Y830000D01*
X-2031293Y822404D01*
X-2031293Y822404D01*
G37*
G36*
X18228687Y1044973D02*
G01*
X18406274Y1009650D01*
X18597362Y930498D01*
X18769336Y815589D01*
X18915589Y669336D01*
X19030498Y497362D01*
X19109650Y306274D01*
X19150000Y103416D01*
X19150000Y-103416D01*
X19109650Y-306274D01*
X19030498Y-497362D01*
X18915589Y-669336D01*
X18769336Y-815589D01*
X18597362Y-930498D01*
X18406274Y-1009650D01*
X18232756Y-1044164D01*
X18203417Y-1050000D01*
X17996583Y-1050000D01*
X17967244Y-1044164D01*
X17793726Y-1009650D01*
X17602638Y-930498D01*
X17430664Y-815589D01*
X17284411Y-669336D01*
X17169502Y-497362D01*
X17090350Y-306274D01*
X17050000Y-103416D01*
X17050000Y103416D01*
X17090350Y306274D01*
X17169502Y497362D01*
X17284411Y669336D01*
X17430664Y815589D01*
X17602638Y930498D01*
X17793726Y1009650D01*
X17971313Y1044973D01*
X17996583Y1050000D01*
X18203417Y1050000D01*
X18228687Y1044973D01*
X18228687Y1044973D01*
G37*
G36*
X-17971313Y1044973D02*
G01*
X-17793726Y1009650D01*
X-17602638Y930498D01*
X-17430664Y815589D01*
X-17284411Y669336D01*
X-17169502Y497362D01*
X-17090350Y306274D01*
X-17050000Y103416D01*
X-17050000Y-103416D01*
X-17090350Y-306274D01*
X-17169502Y-497362D01*
X-17284411Y-669336D01*
X-17430664Y-815589D01*
X-17602638Y-930498D01*
X-17793726Y-1009650D01*
X-17967244Y-1044164D01*
X-17996583Y-1050000D01*
X-18203417Y-1050000D01*
X-18232756Y-1044164D01*
X-18406274Y-1009650D01*
X-18597362Y-930498D01*
X-18769336Y-815589D01*
X-18915589Y-669336D01*
X-19030498Y-497362D01*
X-19109650Y-306274D01*
X-19150000Y-103416D01*
X-19150000Y103416D01*
X-19109650Y306274D01*
X-19030498Y497362D01*
X-18915589Y669336D01*
X-18769336Y815589D01*
X-18597362Y930498D01*
X-18406274Y1009650D01*
X-18228687Y1044973D01*
X-18203417Y1050000D01*
X-17996583Y1050000D01*
X-17971313Y1044973D01*
X-17971313Y1044973D01*
G37*
G36*
X11828707Y1062403D02*
G01*
X11905836Y1054807D01*
X12054702Y1009649D01*
X12103765Y994766D01*
X12286170Y897268D01*
X12446055Y766055D01*
X12577268Y606170D01*
X12674766Y423765D01*
X12674767Y423762D01*
X12734807Y225836D01*
X12755080Y20000D01*
X12734807Y-185836D01*
X12674767Y-383762D01*
X12674766Y-383765D01*
X12577268Y-566170D01*
X12446055Y-726055D01*
X12286170Y-857268D01*
X12103765Y-954766D01*
X12103762Y-954767D01*
X11905836Y-1014807D01*
X11828707Y-1022403D01*
X11751580Y-1030000D01*
X11648420Y-1030000D01*
X11571293Y-1022403D01*
X11494164Y-1014807D01*
X11296238Y-954767D01*
X11296235Y-954766D01*
X11113830Y-857268D01*
X10953945Y-726055D01*
X10822732Y-566170D01*
X10725234Y-383765D01*
X10725233Y-383762D01*
X10665193Y-185836D01*
X10644920Y20000D01*
X10665193Y225836D01*
X10725233Y423762D01*
X10725234Y423765D01*
X10822732Y606170D01*
X10953945Y766055D01*
X11113830Y897268D01*
X11296235Y994766D01*
X11345298Y1009649D01*
X11494164Y1054807D01*
X11571293Y1062403D01*
X11648420Y1070000D01*
X11751580Y1070000D01*
X11828707Y1062403D01*
X11828707Y1062403D01*
G37*
G36*
X-13371293Y2312404D02*
G01*
X-13294164Y2304807D01*
X-13096238Y2244767D01*
X-13096235Y2244766D01*
X-12913830Y2147268D01*
X-12753945Y2016055D01*
X-12622732Y1856170D01*
X-12525234Y1673765D01*
X-12525233Y1673762D01*
X-12465193Y1475836D01*
X-12444920Y1270000D01*
X-12465193Y1064164D01*
X-12519166Y886238D01*
X-12525234Y866235D01*
X-12622732Y683830D01*
X-12753945Y523945D01*
X-12913830Y392732D01*
X-13096235Y295234D01*
X-13096238Y295233D01*
X-13294164Y235193D01*
X-13371293Y227597D01*
X-13448420Y220000D01*
X-13551580Y220000D01*
X-13628707Y227597D01*
X-13705836Y235193D01*
X-13903762Y295233D01*
X-13903765Y295234D01*
X-14086170Y392732D01*
X-14246055Y523945D01*
X-14377268Y683830D01*
X-14474766Y866235D01*
X-14480834Y886238D01*
X-14534807Y1064164D01*
X-14555080Y1270000D01*
X-14534807Y1475836D01*
X-14474767Y1673762D01*
X-14474766Y1673765D01*
X-14377268Y1856170D01*
X-14246055Y2016055D01*
X-14086170Y2147268D01*
X-13903765Y2244766D01*
X-13903762Y2244767D01*
X-13705836Y2304807D01*
X-13628707Y2312403D01*
X-13551580Y2320000D01*
X-13448420Y2320000D01*
X-13371293Y2312404D01*
X-13371293Y2312404D01*
G37*
G36*
X-20671313Y2314973D02*
G01*
X-20493726Y2279650D01*
X-20302638Y2200498D01*
X-20130664Y2085589D01*
X-19984411Y1939336D01*
X-19869502Y1767362D01*
X-19790350Y1576274D01*
X-19750000Y1373416D01*
X-19750000Y1166584D01*
X-19790350Y963726D01*
X-19869502Y772638D01*
X-19984411Y600664D01*
X-20130664Y454411D01*
X-20302638Y339502D01*
X-20493726Y260350D01*
X-20667244Y225836D01*
X-20696583Y220000D01*
X-20903417Y220000D01*
X-20932756Y225836D01*
X-21106274Y260350D01*
X-21297362Y339502D01*
X-21469336Y454411D01*
X-21615589Y600664D01*
X-21730498Y772638D01*
X-21809650Y963726D01*
X-21850000Y1166584D01*
X-21850000Y1373416D01*
X-21809650Y1576274D01*
X-21730498Y1767362D01*
X-21615589Y1939336D01*
X-21469336Y2085589D01*
X-21297362Y2200498D01*
X-21106274Y2279650D01*
X-20928687Y2314973D01*
X-20903417Y2320000D01*
X-20696583Y2320000D01*
X-20671313Y2314973D01*
X-20671313Y2314973D01*
G37*
G36*
X20928687Y2314973D02*
G01*
X21106274Y2279650D01*
X21297362Y2200498D01*
X21469336Y2085589D01*
X21615589Y1939336D01*
X21730498Y1767362D01*
X21809650Y1576274D01*
X21850000Y1373416D01*
X21850000Y1166584D01*
X21809650Y963726D01*
X21730498Y772638D01*
X21615589Y600664D01*
X21469336Y454411D01*
X21297362Y339502D01*
X21106274Y260350D01*
X20932756Y225836D01*
X20903417Y220000D01*
X20696583Y220000D01*
X20667244Y225836D01*
X20493726Y260350D01*
X20302638Y339502D01*
X20130664Y454411D01*
X19984411Y600664D01*
X19869502Y772638D01*
X19790350Y963726D01*
X19750000Y1166584D01*
X19750000Y1373416D01*
X19790350Y1576274D01*
X19869502Y1767362D01*
X19984411Y1939336D01*
X20130664Y2085589D01*
X20302638Y2200498D01*
X20493726Y2279650D01*
X20671313Y2314973D01*
X20696583Y2320000D01*
X20903417Y2320000D01*
X20928687Y2314973D01*
X20928687Y2314973D01*
G37*
G36*
X14628707Y2332404D02*
G01*
X14705836Y2324807D01*
X14854702Y2279649D01*
X14903765Y2264766D01*
X15086170Y2167268D01*
X15246055Y2036055D01*
X15377268Y1876170D01*
X15474766Y1693765D01*
X15474767Y1693762D01*
X15534807Y1495836D01*
X15555080Y1290000D01*
X15534807Y1084164D01*
X15474767Y886238D01*
X15474766Y886235D01*
X15377268Y703830D01*
X15246055Y543945D01*
X15086170Y412732D01*
X14903765Y315234D01*
X14903762Y315233D01*
X14705836Y255193D01*
X14628707Y247596D01*
X14551580Y240000D01*
X14448420Y240000D01*
X14371293Y247596D01*
X14294164Y255193D01*
X14096238Y315233D01*
X14096235Y315234D01*
X13913830Y412732D01*
X13753945Y543945D01*
X13622732Y703830D01*
X13525234Y886235D01*
X13525233Y886238D01*
X13465193Y1084164D01*
X13444920Y1290000D01*
X13465193Y1495836D01*
X13525233Y1693762D01*
X13525234Y1693765D01*
X13622732Y1876170D01*
X13753945Y2036055D01*
X13913830Y2167268D01*
X14096235Y2264766D01*
X14145298Y2279649D01*
X14294164Y2324807D01*
X14371293Y2332404D01*
X14448420Y2340000D01*
X14551580Y2340000D01*
X14628707Y2332404D01*
X14628707Y2332404D01*
G37*
G36*
X-9651293Y3337402D02*
G01*
X-9574164Y3329806D01*
X-9376238Y3269766D01*
X-9376235Y3269765D01*
X-9193830Y3172267D01*
X-9033945Y3041054D01*
X-8902732Y2881169D01*
X-8805234Y2698764D01*
X-8805233Y2698761D01*
X-8745193Y2500835D01*
X-8724920Y2294999D01*
X-8745193Y2089163D01*
X-8790643Y1939335D01*
X-8805234Y1891234D01*
X-8902732Y1708829D01*
X-9033945Y1548944D01*
X-9193830Y1417731D01*
X-9376235Y1320233D01*
X-9376238Y1320232D01*
X-9574164Y1260192D01*
X-9651293Y1252596D01*
X-9728420Y1244999D01*
X-9831580Y1244999D01*
X-9908707Y1252596D01*
X-9985836Y1260192D01*
X-10183762Y1320232D01*
X-10183765Y1320233D01*
X-10366170Y1417731D01*
X-10526055Y1548944D01*
X-10657268Y1708829D01*
X-10754766Y1891234D01*
X-10769357Y1939335D01*
X-10814807Y2089163D01*
X-10835080Y2294999D01*
X-10814807Y2500835D01*
X-10754767Y2698761D01*
X-10754766Y2698764D01*
X-10657268Y2881169D01*
X-10526055Y3041054D01*
X-10366170Y3172267D01*
X-10183765Y3269765D01*
X-10183762Y3269766D01*
X-9985836Y3329806D01*
X-9908707Y3337402D01*
X-9831580Y3344999D01*
X-9728420Y3344999D01*
X-9651293Y3337402D01*
X-9651293Y3337402D01*
G37*
G36*
X-7111293Y3337402D02*
G01*
X-7034164Y3329806D01*
X-6836238Y3269766D01*
X-6836235Y3269765D01*
X-6653830Y3172267D01*
X-6493945Y3041054D01*
X-6362732Y2881169D01*
X-6265234Y2698764D01*
X-6265233Y2698761D01*
X-6205193Y2500835D01*
X-6184920Y2294999D01*
X-6205193Y2089163D01*
X-6250643Y1939335D01*
X-6265234Y1891234D01*
X-6362732Y1708829D01*
X-6493945Y1548944D01*
X-6653830Y1417731D01*
X-6836235Y1320233D01*
X-6836238Y1320232D01*
X-7034164Y1260192D01*
X-7111293Y1252596D01*
X-7188420Y1244999D01*
X-7291580Y1244999D01*
X-7368707Y1252596D01*
X-7445836Y1260192D01*
X-7643762Y1320232D01*
X-7643765Y1320233D01*
X-7826170Y1417731D01*
X-7986055Y1548944D01*
X-8117268Y1708829D01*
X-8214766Y1891234D01*
X-8229357Y1939335D01*
X-8274807Y2089163D01*
X-8295080Y2294999D01*
X-8274807Y2500835D01*
X-8214767Y2698761D01*
X-8214766Y2698764D01*
X-8117268Y2881169D01*
X-7986055Y3041054D01*
X-7826170Y3172267D01*
X-7643765Y3269765D01*
X-7643762Y3269766D01*
X-7445836Y3329806D01*
X-7368707Y3337402D01*
X-7291580Y3344999D01*
X-7188420Y3344999D01*
X-7111293Y3337402D01*
X-7111293Y3337402D01*
G37*
G36*
X-2031293Y3362404D02*
G01*
X-1954164Y3354807D01*
X-1756238Y3294767D01*
X-1756235Y3294766D01*
X-1573830Y3197268D01*
X-1413945Y3066055D01*
X-1282732Y2906170D01*
X-1185234Y2723765D01*
X-1185233Y2723762D01*
X-1125193Y2525836D01*
X-1104920Y2320000D01*
X-1125193Y2114164D01*
X-1167763Y1973830D01*
X-1185234Y1916235D01*
X-1282732Y1733830D01*
X-1413945Y1573945D01*
X-1573830Y1442732D01*
X-1756235Y1345234D01*
X-1756238Y1345233D01*
X-1954164Y1285193D01*
X-2031293Y1277596D01*
X-2108420Y1270000D01*
X-2211580Y1270000D01*
X-2288707Y1277596D01*
X-2365836Y1285193D01*
X-2563762Y1345233D01*
X-2563765Y1345234D01*
X-2746170Y1442732D01*
X-2906055Y1573945D01*
X-3037268Y1733830D01*
X-3134766Y1916235D01*
X-3152237Y1973830D01*
X-3194807Y2114164D01*
X-3215080Y2320000D01*
X-3194807Y2525836D01*
X-3134767Y2723762D01*
X-3134766Y2723765D01*
X-3037268Y2906170D01*
X-2906055Y3066055D01*
X-2746170Y3197268D01*
X-2563765Y3294766D01*
X-2563762Y3294767D01*
X-2365836Y3354807D01*
X-2288707Y3362404D01*
X-2211580Y3370000D01*
X-2108420Y3370000D01*
X-2031293Y3362404D01*
X-2031293Y3362404D01*
G37*
G36*
X8128707Y3362404D02*
G01*
X8205836Y3354807D01*
X8403762Y3294767D01*
X8403765Y3294766D01*
X8586170Y3197268D01*
X8746055Y3066055D01*
X8877268Y2906170D01*
X8974766Y2723765D01*
X8974767Y2723762D01*
X9034807Y2525836D01*
X9055080Y2320000D01*
X9034807Y2114164D01*
X8992237Y1973830D01*
X8974766Y1916235D01*
X8877268Y1733830D01*
X8746055Y1573945D01*
X8586170Y1442732D01*
X8403765Y1345234D01*
X8403762Y1345233D01*
X8205836Y1285193D01*
X8128707Y1277596D01*
X8051580Y1270000D01*
X7948420Y1270000D01*
X7871293Y1277597D01*
X7794164Y1285193D01*
X7596238Y1345233D01*
X7596235Y1345234D01*
X7413830Y1442732D01*
X7253945Y1573945D01*
X7122732Y1733830D01*
X7025234Y1916235D01*
X7007763Y1973830D01*
X6965193Y2114164D01*
X6944920Y2320000D01*
X6965193Y2525836D01*
X7025233Y2723762D01*
X7025234Y2723765D01*
X7122732Y2906170D01*
X7253945Y3066055D01*
X7413830Y3197268D01*
X7596235Y3294766D01*
X7596238Y3294767D01*
X7794164Y3354807D01*
X7871293Y3362404D01*
X7948420Y3370000D01*
X8051580Y3370000D01*
X8128707Y3362404D01*
X8128707Y3362404D01*
G37*
G36*
X5588707Y3362404D02*
G01*
X5665836Y3354807D01*
X5863762Y3294767D01*
X5863765Y3294766D01*
X6046170Y3197268D01*
X6206055Y3066055D01*
X6337268Y2906170D01*
X6434766Y2723765D01*
X6434767Y2723762D01*
X6494807Y2525836D01*
X6515080Y2320000D01*
X6494807Y2114164D01*
X6452237Y1973830D01*
X6434766Y1916235D01*
X6337268Y1733830D01*
X6206055Y1573945D01*
X6046170Y1442732D01*
X5863765Y1345234D01*
X5863762Y1345233D01*
X5665836Y1285193D01*
X5588707Y1277596D01*
X5511580Y1270000D01*
X5408420Y1270000D01*
X5331293Y1277597D01*
X5254164Y1285193D01*
X5056238Y1345233D01*
X5056235Y1345234D01*
X4873830Y1442732D01*
X4713945Y1573945D01*
X4582732Y1733830D01*
X4485234Y1916235D01*
X4467763Y1973830D01*
X4425193Y2114164D01*
X4404920Y2320000D01*
X4425193Y2525836D01*
X4485233Y2723762D01*
X4485234Y2723765D01*
X4582732Y2906170D01*
X4713945Y3066055D01*
X4873830Y3197268D01*
X5056235Y3294766D01*
X5056238Y3294767D01*
X5254164Y3354807D01*
X5331293Y3362404D01*
X5408420Y3370000D01*
X5511580Y3370000D01*
X5588707Y3362404D01*
X5588707Y3362404D01*
G37*
G36*
X3048707Y3362404D02*
G01*
X3125836Y3354807D01*
X3323762Y3294767D01*
X3323765Y3294766D01*
X3506170Y3197268D01*
X3666055Y3066055D01*
X3797268Y2906170D01*
X3894766Y2723765D01*
X3894767Y2723762D01*
X3954807Y2525836D01*
X3975080Y2320000D01*
X3954807Y2114164D01*
X3912237Y1973830D01*
X3894766Y1916235D01*
X3797268Y1733830D01*
X3666055Y1573945D01*
X3506170Y1442732D01*
X3323765Y1345234D01*
X3323762Y1345233D01*
X3125836Y1285193D01*
X3048707Y1277596D01*
X2971580Y1270000D01*
X2868420Y1270000D01*
X2791293Y1277596D01*
X2714164Y1285193D01*
X2516238Y1345233D01*
X2516235Y1345234D01*
X2333830Y1442732D01*
X2173945Y1573945D01*
X2042732Y1733830D01*
X1945234Y1916235D01*
X1927763Y1973830D01*
X1885193Y2114164D01*
X1864920Y2320000D01*
X1885193Y2525836D01*
X1945233Y2723762D01*
X1945234Y2723765D01*
X2042732Y2906170D01*
X2173945Y3066055D01*
X2333830Y3197268D01*
X2516235Y3294766D01*
X2516238Y3294767D01*
X2714164Y3354807D01*
X2791293Y3362404D01*
X2868420Y3370000D01*
X2971580Y3370000D01*
X3048707Y3362404D01*
X3048707Y3362404D01*
G37*
G36*
X508707Y3362404D02*
G01*
X585836Y3354807D01*
X783762Y3294767D01*
X783765Y3294766D01*
X966170Y3197268D01*
X1126055Y3066055D01*
X1257268Y2906170D01*
X1354766Y2723765D01*
X1354767Y2723762D01*
X1414807Y2525836D01*
X1435080Y2320000D01*
X1414807Y2114164D01*
X1372237Y1973830D01*
X1354766Y1916235D01*
X1257268Y1733830D01*
X1126055Y1573945D01*
X966170Y1442732D01*
X783765Y1345234D01*
X783762Y1345233D01*
X585836Y1285193D01*
X508707Y1277596D01*
X431580Y1270000D01*
X328420Y1270000D01*
X251293Y1277596D01*
X174164Y1285193D01*
X-23762Y1345233D01*
X-23765Y1345234D01*
X-206170Y1442732D01*
X-366055Y1573945D01*
X-497268Y1733830D01*
X-594766Y1916235D01*
X-612237Y1973830D01*
X-654807Y2114164D01*
X-675080Y2320000D01*
X-654807Y2525836D01*
X-594767Y2723762D01*
X-594766Y2723765D01*
X-497268Y2906170D01*
X-366055Y3066055D01*
X-206170Y3197268D01*
X-23765Y3294766D01*
X-23762Y3294767D01*
X174164Y3354807D01*
X251293Y3362404D01*
X328420Y3370000D01*
X431580Y3370000D01*
X508707Y3362404D01*
X508707Y3362404D01*
G37*
G36*
X-4571293Y3362404D02*
G01*
X-4494164Y3354807D01*
X-4296238Y3294767D01*
X-4296235Y3294766D01*
X-4113830Y3197268D01*
X-3953945Y3066055D01*
X-3822732Y2906170D01*
X-3725234Y2723765D01*
X-3725233Y2723762D01*
X-3665193Y2525836D01*
X-3644920Y2320000D01*
X-3665193Y2114164D01*
X-3707763Y1973830D01*
X-3725234Y1916235D01*
X-3822732Y1733830D01*
X-3953945Y1573945D01*
X-4113830Y1442732D01*
X-4296235Y1345234D01*
X-4296238Y1345233D01*
X-4494164Y1285193D01*
X-4571293Y1277597D01*
X-4648420Y1270000D01*
X-4751580Y1270000D01*
X-4828707Y1277596D01*
X-4905836Y1285193D01*
X-5103762Y1345233D01*
X-5103765Y1345234D01*
X-5286170Y1442732D01*
X-5446055Y1573945D01*
X-5577268Y1733830D01*
X-5674766Y1916235D01*
X-5692237Y1973830D01*
X-5734807Y2114164D01*
X-5755080Y2320000D01*
X-5734807Y2525836D01*
X-5674767Y2723762D01*
X-5674766Y2723765D01*
X-5577268Y2906170D01*
X-5446055Y3066055D01*
X-5286170Y3197268D01*
X-5103765Y3294766D01*
X-5103762Y3294767D01*
X-4905836Y3354807D01*
X-4828707Y3362404D01*
X-4751580Y3370000D01*
X-4648420Y3370000D01*
X-4571293Y3362404D01*
X-4571293Y3362404D01*
G37*
G36*
X-17971313Y3584973D02*
G01*
X-17793726Y3549650D01*
X-17602638Y3470498D01*
X-17430664Y3355589D01*
X-17284411Y3209336D01*
X-17169502Y3037362D01*
X-17090350Y2846274D01*
X-17050000Y2643416D01*
X-17050000Y2436584D01*
X-17090350Y2233726D01*
X-17169502Y2042638D01*
X-17284411Y1870664D01*
X-17430664Y1724411D01*
X-17602638Y1609502D01*
X-17793726Y1530350D01*
X-17967244Y1495836D01*
X-17996583Y1490000D01*
X-18203417Y1490000D01*
X-18232756Y1495836D01*
X-18406274Y1530350D01*
X-18597362Y1609502D01*
X-18769336Y1724411D01*
X-18915589Y1870664D01*
X-19030498Y2042638D01*
X-19109650Y2233726D01*
X-19150000Y2436584D01*
X-19150000Y2643416D01*
X-19109650Y2846274D01*
X-19030498Y3037362D01*
X-18915589Y3209336D01*
X-18769336Y3355589D01*
X-18597362Y3470498D01*
X-18406274Y3549650D01*
X-18228687Y3584973D01*
X-18203417Y3590000D01*
X-17996583Y3590000D01*
X-17971313Y3584973D01*
X-17971313Y3584973D01*
G37*
G36*
X18228687Y3584973D02*
G01*
X18406274Y3549650D01*
X18597362Y3470498D01*
X18769336Y3355589D01*
X18915589Y3209336D01*
X19030498Y3037362D01*
X19109650Y2846274D01*
X19150000Y2643416D01*
X19150000Y2436584D01*
X19109650Y2233726D01*
X19030498Y2042638D01*
X18915589Y1870664D01*
X18769336Y1724411D01*
X18597362Y1609502D01*
X18406274Y1530350D01*
X18232756Y1495836D01*
X18203417Y1490000D01*
X17996583Y1490000D01*
X17967244Y1495836D01*
X17793726Y1530350D01*
X17602638Y1609502D01*
X17430664Y1724411D01*
X17284411Y1870664D01*
X17169502Y2042638D01*
X17090350Y2233726D01*
X17050000Y2436584D01*
X17050000Y2643416D01*
X17090350Y2846274D01*
X17169502Y3037362D01*
X17284411Y3209336D01*
X17430664Y3355589D01*
X17602638Y3470498D01*
X17793726Y3549650D01*
X17971313Y3584973D01*
X17996583Y3590000D01*
X18203417Y3590000D01*
X18228687Y3584973D01*
X18228687Y3584973D01*
G37*
G36*
X11828707Y3602403D02*
G01*
X11905836Y3594807D01*
X12054702Y3549649D01*
X12103765Y3534766D01*
X12286170Y3437268D01*
X12446055Y3306055D01*
X12577268Y3146170D01*
X12674766Y2963765D01*
X12674767Y2963762D01*
X12734807Y2765836D01*
X12755080Y2560000D01*
X12734807Y2354164D01*
X12674767Y2156238D01*
X12674766Y2156235D01*
X12577268Y1973830D01*
X12446055Y1813945D01*
X12286170Y1682732D01*
X12103765Y1585234D01*
X12103762Y1585233D01*
X11905836Y1525193D01*
X11828707Y1517596D01*
X11751580Y1510000D01*
X11648420Y1510000D01*
X11571293Y1517597D01*
X11494164Y1525193D01*
X11296238Y1585233D01*
X11296235Y1585234D01*
X11113830Y1682732D01*
X10953945Y1813945D01*
X10822732Y1973830D01*
X10725234Y2156235D01*
X10725233Y2156238D01*
X10665193Y2354164D01*
X10644920Y2560000D01*
X10665193Y2765836D01*
X10725233Y2963762D01*
X10725234Y2963765D01*
X10822732Y3146170D01*
X10953945Y3306055D01*
X11113830Y3437268D01*
X11296235Y3534766D01*
X11345298Y3549649D01*
X11494164Y3594807D01*
X11571293Y3602403D01*
X11648420Y3610000D01*
X11751580Y3610000D01*
X11828707Y3602403D01*
X11828707Y3602403D01*
G37*
G36*
X-20671313Y4854973D02*
G01*
X-20493726Y4819650D01*
X-20302638Y4740498D01*
X-20130664Y4625589D01*
X-19984411Y4479336D01*
X-19869502Y4307362D01*
X-19790350Y4116274D01*
X-19750000Y3913416D01*
X-19750000Y3706584D01*
X-19790350Y3503726D01*
X-19869502Y3312638D01*
X-19984411Y3140664D01*
X-20130664Y2994411D01*
X-20302638Y2879502D01*
X-20493726Y2800350D01*
X-20667244Y2765836D01*
X-20696583Y2760000D01*
X-20903417Y2760000D01*
X-20932756Y2765836D01*
X-21106274Y2800350D01*
X-21297362Y2879502D01*
X-21469336Y2994411D01*
X-21615589Y3140664D01*
X-21730498Y3312638D01*
X-21809650Y3503726D01*
X-21850000Y3706584D01*
X-21850000Y3913416D01*
X-21809650Y4116274D01*
X-21730498Y4307362D01*
X-21615589Y4479336D01*
X-21469336Y4625589D01*
X-21297362Y4740498D01*
X-21106274Y4819650D01*
X-20928687Y4854973D01*
X-20903417Y4860000D01*
X-20696583Y4860000D01*
X-20671313Y4854973D01*
X-20671313Y4854973D01*
G37*
G36*
X20928687Y4854973D02*
G01*
X21106274Y4819650D01*
X21297362Y4740498D01*
X21469336Y4625589D01*
X21615589Y4479336D01*
X21730498Y4307362D01*
X21809650Y4116274D01*
X21850000Y3913416D01*
X21850000Y3706584D01*
X21809650Y3503726D01*
X21730498Y3312638D01*
X21615589Y3140664D01*
X21469336Y2994411D01*
X21297362Y2879502D01*
X21106274Y2800350D01*
X20932756Y2765836D01*
X20903417Y2760000D01*
X20696583Y2760000D01*
X20667244Y2765836D01*
X20493726Y2800350D01*
X20302638Y2879502D01*
X20130664Y2994411D01*
X19984411Y3140664D01*
X19869502Y3312638D01*
X19790350Y3503726D01*
X19750000Y3706584D01*
X19750000Y3913416D01*
X19790350Y4116274D01*
X19869502Y4307362D01*
X19984411Y4479336D01*
X20130664Y4625589D01*
X20302638Y4740498D01*
X20493726Y4819650D01*
X20671313Y4854973D01*
X20696583Y4860000D01*
X20903417Y4860000D01*
X20928687Y4854973D01*
X20928687Y4854973D01*
G37*
G36*
X-13371293Y4852404D02*
G01*
X-13294164Y4844807D01*
X-13096238Y4784767D01*
X-13096235Y4784766D01*
X-12913830Y4687268D01*
X-12753945Y4556055D01*
X-12622732Y4396170D01*
X-12525234Y4213765D01*
X-12525233Y4213762D01*
X-12465193Y4015836D01*
X-12444920Y3810000D01*
X-12465193Y3604164D01*
X-12519166Y3426238D01*
X-12525234Y3406235D01*
X-12622732Y3223830D01*
X-12753945Y3063945D01*
X-12913830Y2932732D01*
X-13096235Y2835234D01*
X-13096238Y2835233D01*
X-13294164Y2775193D01*
X-13371293Y2767597D01*
X-13448420Y2760000D01*
X-13551580Y2760000D01*
X-13628707Y2767597D01*
X-13705836Y2775193D01*
X-13903762Y2835233D01*
X-13903765Y2835234D01*
X-14086170Y2932732D01*
X-14246055Y3063945D01*
X-14377268Y3223830D01*
X-14474766Y3406235D01*
X-14480834Y3426238D01*
X-14534807Y3604164D01*
X-14555080Y3810000D01*
X-14534807Y4015836D01*
X-14474767Y4213762D01*
X-14474766Y4213765D01*
X-14377268Y4396170D01*
X-14246055Y4556055D01*
X-14086170Y4687268D01*
X-13903765Y4784766D01*
X-13903762Y4784767D01*
X-13705836Y4844807D01*
X-13628707Y4852404D01*
X-13551580Y4860000D01*
X-13448420Y4860000D01*
X-13371293Y4852404D01*
X-13371293Y4852404D01*
G37*
G36*
X14628707Y4872404D02*
G01*
X14705836Y4864807D01*
X14854702Y4819649D01*
X14903765Y4804766D01*
X15086170Y4707268D01*
X15246055Y4576055D01*
X15377268Y4416170D01*
X15474766Y4233765D01*
X15474767Y4233762D01*
X15534807Y4035836D01*
X15555080Y3830000D01*
X15534807Y3624164D01*
X15474767Y3426238D01*
X15474766Y3426235D01*
X15377268Y3243830D01*
X15246055Y3083945D01*
X15086170Y2952732D01*
X14903765Y2855234D01*
X14903762Y2855233D01*
X14705836Y2795193D01*
X14628707Y2787596D01*
X14551580Y2780000D01*
X14448420Y2780000D01*
X14371293Y2787596D01*
X14294164Y2795193D01*
X14096238Y2855233D01*
X14096235Y2855234D01*
X13913830Y2952732D01*
X13753945Y3083945D01*
X13622732Y3243830D01*
X13525234Y3426235D01*
X13525233Y3426238D01*
X13465193Y3624164D01*
X13444920Y3830000D01*
X13465193Y4035836D01*
X13525233Y4233762D01*
X13525234Y4233765D01*
X13622732Y4416170D01*
X13753945Y4576055D01*
X13913830Y4707268D01*
X14096235Y4804766D01*
X14145298Y4819649D01*
X14294164Y4864807D01*
X14371293Y4872404D01*
X14448420Y4880000D01*
X14551580Y4880000D01*
X14628707Y4872404D01*
X14628707Y4872404D01*
G37*
G36*
X-9651293Y5877403D02*
G01*
X-9574164Y5869806D01*
X-9376238Y5809766D01*
X-9376235Y5809765D01*
X-9193830Y5712267D01*
X-9033945Y5581054D01*
X-8902732Y5421169D01*
X-8805234Y5238764D01*
X-8805233Y5238761D01*
X-8745193Y5040835D01*
X-8724920Y4834999D01*
X-8745193Y4629163D01*
X-8790643Y4479335D01*
X-8805234Y4431234D01*
X-8902732Y4248829D01*
X-9033945Y4088944D01*
X-9193830Y3957731D01*
X-9376235Y3860233D01*
X-9376238Y3860232D01*
X-9574164Y3800192D01*
X-9651293Y3792596D01*
X-9728420Y3784999D01*
X-9831580Y3784999D01*
X-9908707Y3792596D01*
X-9985836Y3800192D01*
X-10183762Y3860232D01*
X-10183765Y3860233D01*
X-10366170Y3957731D01*
X-10526055Y4088944D01*
X-10657268Y4248829D01*
X-10754766Y4431234D01*
X-10769357Y4479335D01*
X-10814807Y4629163D01*
X-10835080Y4834999D01*
X-10814807Y5040835D01*
X-10754767Y5238761D01*
X-10754766Y5238764D01*
X-10657268Y5421169D01*
X-10526055Y5581054D01*
X-10366170Y5712267D01*
X-10183765Y5809765D01*
X-10183762Y5809766D01*
X-9985836Y5869806D01*
X-9908707Y5877402D01*
X-9831580Y5884999D01*
X-9728420Y5884999D01*
X-9651293Y5877403D01*
X-9651293Y5877403D01*
G37*
G36*
X-7111293Y5877403D02*
G01*
X-7034164Y5869806D01*
X-6836238Y5809766D01*
X-6836235Y5809765D01*
X-6653830Y5712267D01*
X-6493945Y5581054D01*
X-6362732Y5421169D01*
X-6265234Y5238764D01*
X-6265233Y5238761D01*
X-6205193Y5040835D01*
X-6184920Y4834999D01*
X-6205193Y4629163D01*
X-6250643Y4479335D01*
X-6265234Y4431234D01*
X-6362732Y4248829D01*
X-6493945Y4088944D01*
X-6653830Y3957731D01*
X-6836235Y3860233D01*
X-6836238Y3860232D01*
X-7034164Y3800192D01*
X-7111293Y3792596D01*
X-7188420Y3784999D01*
X-7291580Y3784999D01*
X-7368707Y3792596D01*
X-7445836Y3800192D01*
X-7643762Y3860232D01*
X-7643765Y3860233D01*
X-7826170Y3957731D01*
X-7986055Y4088944D01*
X-8117268Y4248829D01*
X-8214766Y4431234D01*
X-8229357Y4479335D01*
X-8274807Y4629163D01*
X-8295080Y4834999D01*
X-8274807Y5040835D01*
X-8214767Y5238761D01*
X-8214766Y5238764D01*
X-8117268Y5421169D01*
X-7986055Y5581054D01*
X-7826170Y5712267D01*
X-7643765Y5809765D01*
X-7643762Y5809766D01*
X-7445836Y5869806D01*
X-7368707Y5877403D01*
X-7291580Y5884999D01*
X-7188420Y5884999D01*
X-7111293Y5877403D01*
X-7111293Y5877403D01*
G37*
G36*
X8128707Y5902403D02*
G01*
X8205836Y5894807D01*
X8403762Y5834767D01*
X8403765Y5834766D01*
X8586170Y5737268D01*
X8746055Y5606055D01*
X8877268Y5446170D01*
X8974766Y5263765D01*
X8974767Y5263762D01*
X9034807Y5065836D01*
X9055080Y4860000D01*
X9034807Y4654164D01*
X8981774Y4479336D01*
X8974766Y4456235D01*
X8877268Y4273830D01*
X8746055Y4113945D01*
X8586170Y3982732D01*
X8403765Y3885234D01*
X8403762Y3885233D01*
X8205836Y3825193D01*
X8128707Y3817596D01*
X8051580Y3810000D01*
X7948420Y3810000D01*
X7871293Y3817596D01*
X7794164Y3825193D01*
X7596238Y3885233D01*
X7596235Y3885234D01*
X7413830Y3982732D01*
X7253945Y4113945D01*
X7122732Y4273830D01*
X7025234Y4456235D01*
X7018226Y4479336D01*
X6965193Y4654164D01*
X6944920Y4860000D01*
X6965193Y5065836D01*
X7025233Y5263762D01*
X7025234Y5263765D01*
X7122732Y5446170D01*
X7253945Y5606055D01*
X7413830Y5737268D01*
X7596235Y5834766D01*
X7596238Y5834767D01*
X7794164Y5894807D01*
X7871293Y5902403D01*
X7948420Y5910000D01*
X8051580Y5910000D01*
X8128707Y5902403D01*
X8128707Y5902403D01*
G37*
G36*
X508707Y5902403D02*
G01*
X585836Y5894807D01*
X783762Y5834767D01*
X783765Y5834766D01*
X966170Y5737268D01*
X1126055Y5606055D01*
X1257268Y5446170D01*
X1354766Y5263765D01*
X1354767Y5263762D01*
X1414807Y5065836D01*
X1435080Y4860000D01*
X1414807Y4654164D01*
X1361774Y4479336D01*
X1354766Y4456235D01*
X1257268Y4273830D01*
X1126055Y4113945D01*
X966170Y3982732D01*
X783765Y3885234D01*
X783762Y3885233D01*
X585836Y3825193D01*
X508707Y3817596D01*
X431580Y3810000D01*
X328420Y3810000D01*
X251293Y3817596D01*
X174164Y3825193D01*
X-23762Y3885233D01*
X-23765Y3885234D01*
X-206170Y3982732D01*
X-366055Y4113945D01*
X-497268Y4273830D01*
X-594766Y4456235D01*
X-601774Y4479336D01*
X-654807Y4654164D01*
X-675080Y4860000D01*
X-654807Y5065836D01*
X-594767Y5263762D01*
X-594766Y5263765D01*
X-497268Y5446170D01*
X-366055Y5606055D01*
X-206170Y5737268D01*
X-23765Y5834766D01*
X-23762Y5834767D01*
X174164Y5894807D01*
X251293Y5902403D01*
X328420Y5910000D01*
X431580Y5910000D01*
X508707Y5902403D01*
X508707Y5902403D01*
G37*
G36*
X3048707Y5902403D02*
G01*
X3125836Y5894807D01*
X3323762Y5834767D01*
X3323765Y5834766D01*
X3506170Y5737268D01*
X3666055Y5606055D01*
X3797268Y5446170D01*
X3894766Y5263765D01*
X3894767Y5263762D01*
X3954807Y5065836D01*
X3975080Y4860000D01*
X3954807Y4654164D01*
X3901774Y4479336D01*
X3894766Y4456235D01*
X3797268Y4273830D01*
X3666055Y4113945D01*
X3506170Y3982732D01*
X3323765Y3885234D01*
X3323762Y3885233D01*
X3125836Y3825193D01*
X3048707Y3817596D01*
X2971580Y3810000D01*
X2868420Y3810000D01*
X2791293Y3817596D01*
X2714164Y3825193D01*
X2516238Y3885233D01*
X2516235Y3885234D01*
X2333830Y3982732D01*
X2173945Y4113945D01*
X2042732Y4273830D01*
X1945234Y4456235D01*
X1938226Y4479336D01*
X1885193Y4654164D01*
X1864920Y4860000D01*
X1885193Y5065836D01*
X1945233Y5263762D01*
X1945234Y5263765D01*
X2042732Y5446170D01*
X2173945Y5606055D01*
X2333830Y5737268D01*
X2516235Y5834766D01*
X2516238Y5834767D01*
X2714164Y5894807D01*
X2791293Y5902403D01*
X2868420Y5910000D01*
X2971580Y5910000D01*
X3048707Y5902403D01*
X3048707Y5902403D01*
G37*
G36*
X-4571293Y5902403D02*
G01*
X-4494164Y5894807D01*
X-4296238Y5834767D01*
X-4296235Y5834766D01*
X-4113830Y5737268D01*
X-3953945Y5606055D01*
X-3822732Y5446170D01*
X-3725234Y5263765D01*
X-3725233Y5263762D01*
X-3665193Y5065836D01*
X-3644920Y4860000D01*
X-3665193Y4654164D01*
X-3718226Y4479336D01*
X-3725234Y4456235D01*
X-3822732Y4273830D01*
X-3953945Y4113945D01*
X-4113830Y3982732D01*
X-4296235Y3885234D01*
X-4296238Y3885233D01*
X-4494164Y3825193D01*
X-4571293Y3817596D01*
X-4648420Y3810000D01*
X-4751580Y3810000D01*
X-4828707Y3817596D01*
X-4905836Y3825193D01*
X-5103762Y3885233D01*
X-5103765Y3885234D01*
X-5286170Y3982732D01*
X-5446055Y4113945D01*
X-5577268Y4273830D01*
X-5674766Y4456235D01*
X-5681774Y4479336D01*
X-5734807Y4654164D01*
X-5755080Y4860000D01*
X-5734807Y5065836D01*
X-5674767Y5263762D01*
X-5674766Y5263765D01*
X-5577268Y5446170D01*
X-5446055Y5606055D01*
X-5286170Y5737268D01*
X-5103765Y5834766D01*
X-5103762Y5834767D01*
X-4905836Y5894807D01*
X-4828707Y5902403D01*
X-4751580Y5910000D01*
X-4648420Y5910000D01*
X-4571293Y5902403D01*
X-4571293Y5902403D01*
G37*
G36*
X-2031293Y5902403D02*
G01*
X-1954164Y5894807D01*
X-1756238Y5834767D01*
X-1756235Y5834766D01*
X-1573830Y5737268D01*
X-1413945Y5606055D01*
X-1282732Y5446170D01*
X-1185234Y5263765D01*
X-1185233Y5263762D01*
X-1125193Y5065836D01*
X-1104920Y4860000D01*
X-1125193Y4654164D01*
X-1178226Y4479336D01*
X-1185234Y4456235D01*
X-1282732Y4273830D01*
X-1413945Y4113945D01*
X-1573830Y3982732D01*
X-1756235Y3885234D01*
X-1756238Y3885233D01*
X-1954164Y3825193D01*
X-2031293Y3817596D01*
X-2108420Y3810000D01*
X-2211580Y3810000D01*
X-2288707Y3817596D01*
X-2365836Y3825193D01*
X-2563762Y3885233D01*
X-2563765Y3885234D01*
X-2746170Y3982732D01*
X-2906055Y4113945D01*
X-3037268Y4273830D01*
X-3134766Y4456235D01*
X-3141774Y4479336D01*
X-3194807Y4654164D01*
X-3215080Y4860000D01*
X-3194807Y5065836D01*
X-3134767Y5263762D01*
X-3134766Y5263765D01*
X-3037268Y5446170D01*
X-2906055Y5606055D01*
X-2746170Y5737268D01*
X-2563765Y5834766D01*
X-2563762Y5834767D01*
X-2365836Y5894807D01*
X-2288707Y5902403D01*
X-2211580Y5910000D01*
X-2108420Y5910000D01*
X-2031293Y5902403D01*
X-2031293Y5902403D01*
G37*
G36*
X5588707Y5902403D02*
G01*
X5665836Y5894807D01*
X5863762Y5834767D01*
X5863765Y5834766D01*
X6046170Y5737268D01*
X6206055Y5606055D01*
X6337268Y5446170D01*
X6434766Y5263765D01*
X6434767Y5263762D01*
X6494807Y5065836D01*
X6515080Y4860000D01*
X6494807Y4654164D01*
X6441774Y4479336D01*
X6434766Y4456235D01*
X6337268Y4273830D01*
X6206055Y4113945D01*
X6046170Y3982732D01*
X5863765Y3885234D01*
X5863762Y3885233D01*
X5665836Y3825193D01*
X5588707Y3817596D01*
X5511580Y3810000D01*
X5408420Y3810000D01*
X5331293Y3817596D01*
X5254164Y3825193D01*
X5056238Y3885233D01*
X5056235Y3885234D01*
X4873830Y3982732D01*
X4713945Y4113945D01*
X4582732Y4273830D01*
X4485234Y4456235D01*
X4478226Y4479336D01*
X4425193Y4654164D01*
X4404920Y4860000D01*
X4425193Y5065836D01*
X4485233Y5263762D01*
X4485234Y5263765D01*
X4582732Y5446170D01*
X4713945Y5606055D01*
X4873830Y5737268D01*
X5056235Y5834766D01*
X5056238Y5834767D01*
X5254164Y5894807D01*
X5331293Y5902403D01*
X5408420Y5910000D01*
X5511580Y5910000D01*
X5588707Y5902403D01*
X5588707Y5902403D01*
G37*
G36*
X18228687Y6124973D02*
G01*
X18406274Y6089650D01*
X18597362Y6010498D01*
X18769336Y5895589D01*
X18915589Y5749336D01*
X19030498Y5577362D01*
X19109650Y5386274D01*
X19150000Y5183416D01*
X19150000Y4976584D01*
X19109650Y4773726D01*
X19030498Y4582638D01*
X18915589Y4410664D01*
X18769336Y4264411D01*
X18597362Y4149502D01*
X18406274Y4070350D01*
X18232756Y4035836D01*
X18203417Y4030000D01*
X17996583Y4030000D01*
X17967244Y4035836D01*
X17793726Y4070350D01*
X17602638Y4149502D01*
X17430664Y4264411D01*
X17284411Y4410664D01*
X17169502Y4582638D01*
X17090350Y4773726D01*
X17050000Y4976584D01*
X17050000Y5183416D01*
X17090350Y5386274D01*
X17169502Y5577362D01*
X17284411Y5749336D01*
X17430664Y5895589D01*
X17602638Y6010498D01*
X17793726Y6089650D01*
X17971313Y6124973D01*
X17996583Y6130000D01*
X18203417Y6130000D01*
X18228687Y6124973D01*
X18228687Y6124973D01*
G37*
G36*
X-17971313Y6124973D02*
G01*
X-17793726Y6089650D01*
X-17602638Y6010498D01*
X-17430664Y5895589D01*
X-17284411Y5749336D01*
X-17169502Y5577362D01*
X-17090350Y5386274D01*
X-17050000Y5183416D01*
X-17050000Y4976584D01*
X-17090350Y4773726D01*
X-17169502Y4582638D01*
X-17284411Y4410664D01*
X-17430664Y4264411D01*
X-17602638Y4149502D01*
X-17793726Y4070350D01*
X-17967244Y4035836D01*
X-17996583Y4030000D01*
X-18203417Y4030000D01*
X-18232756Y4035836D01*
X-18406274Y4070350D01*
X-18597362Y4149502D01*
X-18769336Y4264411D01*
X-18915589Y4410664D01*
X-19030498Y4582638D01*
X-19109650Y4773726D01*
X-19150000Y4976584D01*
X-19150000Y5183416D01*
X-19109650Y5386274D01*
X-19030498Y5577362D01*
X-18915589Y5749336D01*
X-18769336Y5895589D01*
X-18597362Y6010498D01*
X-18406274Y6089650D01*
X-18228687Y6124973D01*
X-18203417Y6130000D01*
X-17996583Y6130000D01*
X-17971313Y6124973D01*
X-17971313Y6124973D01*
G37*
G36*
X12750000Y4050000D02*
G01*
X10650000Y4050000D01*
X10650000Y6150000D01*
X12750000Y6150000D01*
X12750000Y4050000D01*
X12750000Y4050000D01*
G37*
G36*
X20928687Y7394973D02*
G01*
X21106274Y7359650D01*
X21297362Y7280498D01*
X21469336Y7165589D01*
X21615589Y7019336D01*
X21730498Y6847362D01*
X21809650Y6656274D01*
X21850000Y6453416D01*
X21850000Y6246584D01*
X21809650Y6043726D01*
X21730498Y5852638D01*
X21615589Y5680664D01*
X21469336Y5534411D01*
X21297362Y5419502D01*
X21106274Y5340350D01*
X20928687Y5305027D01*
X20903417Y5300000D01*
X20696583Y5300000D01*
X20671313Y5305027D01*
X20493726Y5340350D01*
X20302638Y5419502D01*
X20130664Y5534411D01*
X19984411Y5680664D01*
X19869502Y5852638D01*
X19790350Y6043726D01*
X19750000Y6246584D01*
X19750000Y6453416D01*
X19790350Y6656274D01*
X19869502Y6847362D01*
X19984411Y7019336D01*
X20130664Y7165589D01*
X20302638Y7280498D01*
X20493726Y7359650D01*
X20671313Y7394973D01*
X20696583Y7400000D01*
X20903417Y7400000D01*
X20928687Y7394973D01*
X20928687Y7394973D01*
G37*
G36*
X-12450000Y5300000D02*
G01*
X-14550000Y5300000D01*
X-14550000Y7400000D01*
X-12450000Y7400000D01*
X-12450000Y5300000D01*
X-12450000Y5300000D01*
G37*
G36*
X-20671313Y7394973D02*
G01*
X-20493726Y7359650D01*
X-20302638Y7280498D01*
X-20130664Y7165589D01*
X-19984411Y7019336D01*
X-19869502Y6847362D01*
X-19790350Y6656274D01*
X-19750000Y6453416D01*
X-19750000Y6246584D01*
X-19790350Y6043726D01*
X-19869502Y5852638D01*
X-19984411Y5680664D01*
X-20130664Y5534411D01*
X-20302638Y5419502D01*
X-20493726Y5340350D01*
X-20671313Y5305027D01*
X-20696583Y5300000D01*
X-20903417Y5300000D01*
X-20928687Y5305027D01*
X-21106274Y5340350D01*
X-21297362Y5419502D01*
X-21469336Y5534411D01*
X-21615589Y5680664D01*
X-21730498Y5852638D01*
X-21809650Y6043726D01*
X-21850000Y6246584D01*
X-21850000Y6453416D01*
X-21809650Y6656274D01*
X-21730498Y6847362D01*
X-21615589Y7019336D01*
X-21469336Y7165589D01*
X-21297362Y7280498D01*
X-21106274Y7359650D01*
X-20928687Y7394973D01*
X-20903417Y7400000D01*
X-20696583Y7400000D01*
X-20671313Y7394973D01*
X-20671313Y7394973D01*
G37*
G36*
X15550000Y5320000D02*
G01*
X13450000Y5320000D01*
X13450000Y7420000D01*
X15550000Y7420000D01*
X15550000Y5320000D01*
X15550000Y5320000D01*
G37*
G36*
X-7111313Y8419972D02*
G01*
X-6933726Y8384649D01*
X-6742638Y8305497D01*
X-6570664Y8190588D01*
X-6424411Y8044335D01*
X-6309502Y7872361D01*
X-6230350Y7681273D01*
X-6190000Y7478415D01*
X-6190000Y7271583D01*
X-6230350Y7068725D01*
X-6309502Y6877637D01*
X-6424411Y6705663D01*
X-6570664Y6559410D01*
X-6742638Y6444501D01*
X-6933726Y6365349D01*
X-7111313Y6330026D01*
X-7136583Y6324999D01*
X-7343417Y6324999D01*
X-7368687Y6330026D01*
X-7546274Y6365349D01*
X-7737362Y6444501D01*
X-7909336Y6559410D01*
X-8055589Y6705663D01*
X-8170498Y6877637D01*
X-8249650Y7068725D01*
X-8290000Y7271583D01*
X-8290000Y7478415D01*
X-8249650Y7681273D01*
X-8170498Y7872361D01*
X-8055589Y8044335D01*
X-7909336Y8190588D01*
X-7737362Y8305497D01*
X-7546274Y8384649D01*
X-7368687Y8419972D01*
X-7343417Y8424999D01*
X-7136583Y8424999D01*
X-7111313Y8419972D01*
X-7111313Y8419972D01*
G37*
G36*
X-9651293Y8417402D02*
G01*
X-9574164Y8409806D01*
X-9376238Y8349766D01*
X-9376235Y8349765D01*
X-9193830Y8252267D01*
X-9033945Y8121054D01*
X-8902732Y7961169D01*
X-8805234Y7778764D01*
X-8805233Y7778761D01*
X-8745193Y7580835D01*
X-8724920Y7374999D01*
X-8745193Y7169163D01*
X-8790643Y7019335D01*
X-8805234Y6971234D01*
X-8902732Y6788829D01*
X-9033945Y6628944D01*
X-9193830Y6497731D01*
X-9376235Y6400233D01*
X-9376238Y6400232D01*
X-9574164Y6340192D01*
X-9651293Y6332596D01*
X-9728420Y6324999D01*
X-9831580Y6324999D01*
X-9908707Y6332595D01*
X-9985836Y6340192D01*
X-10183762Y6400232D01*
X-10183765Y6400233D01*
X-10366170Y6497731D01*
X-10526055Y6628944D01*
X-10657268Y6788829D01*
X-10754766Y6971234D01*
X-10769357Y7019335D01*
X-10814807Y7169163D01*
X-10835080Y7374999D01*
X-10814807Y7580835D01*
X-10754767Y7778761D01*
X-10754766Y7778764D01*
X-10657268Y7961169D01*
X-10526055Y8121054D01*
X-10366170Y8252267D01*
X-10183765Y8349765D01*
X-10183762Y8349766D01*
X-9985836Y8409806D01*
X-9908707Y8417402D01*
X-9831580Y8424999D01*
X-9728420Y8424999D01*
X-9651293Y8417402D01*
X-9651293Y8417402D01*
G37*
G36*
X3048687Y8444973D02*
G01*
X3226274Y8409650D01*
X3417362Y8330498D01*
X3589336Y8215589D01*
X3735589Y8069336D01*
X3850498Y7897362D01*
X3929650Y7706274D01*
X3970000Y7503416D01*
X3970000Y7296584D01*
X3929650Y7093726D01*
X3850498Y6902638D01*
X3735589Y6730664D01*
X3589336Y6584411D01*
X3417362Y6469502D01*
X3226274Y6390350D01*
X3048687Y6355027D01*
X3023417Y6350000D01*
X2816583Y6350000D01*
X2791313Y6355027D01*
X2613726Y6390350D01*
X2422638Y6469502D01*
X2250664Y6584411D01*
X2104411Y6730664D01*
X1989502Y6902638D01*
X1910350Y7093726D01*
X1870000Y7296584D01*
X1870000Y7503416D01*
X1910350Y7706274D01*
X1989502Y7897362D01*
X2104411Y8069336D01*
X2250664Y8215589D01*
X2422638Y8330498D01*
X2613726Y8409650D01*
X2791313Y8444973D01*
X2816583Y8450000D01*
X3023417Y8450000D01*
X3048687Y8444973D01*
X3048687Y8444973D01*
G37*
G36*
X8128687Y8444973D02*
G01*
X8306274Y8409650D01*
X8497362Y8330498D01*
X8669336Y8215589D01*
X8815589Y8069336D01*
X8930498Y7897362D01*
X9009650Y7706274D01*
X9050000Y7503416D01*
X9050000Y7296584D01*
X9009650Y7093726D01*
X8930498Y6902638D01*
X8815589Y6730664D01*
X8669336Y6584411D01*
X8497362Y6469502D01*
X8306274Y6390350D01*
X8128687Y6355027D01*
X8103417Y6350000D01*
X7896583Y6350000D01*
X7871313Y6355027D01*
X7693726Y6390350D01*
X7502638Y6469502D01*
X7330664Y6584411D01*
X7184411Y6730664D01*
X7069502Y6902638D01*
X6990350Y7093726D01*
X6950000Y7296584D01*
X6950000Y7503416D01*
X6990350Y7706274D01*
X7069502Y7897362D01*
X7184411Y8069336D01*
X7330664Y8215589D01*
X7502638Y8330498D01*
X7693726Y8409650D01*
X7871313Y8444973D01*
X7896583Y8450000D01*
X8103417Y8450000D01*
X8128687Y8444973D01*
X8128687Y8444973D01*
G37*
G36*
X-4571293Y8442403D02*
G01*
X-4494164Y8434807D01*
X-4296238Y8374767D01*
X-4296235Y8374766D01*
X-4113830Y8277268D01*
X-3953945Y8146055D01*
X-3822732Y7986170D01*
X-3725234Y7803765D01*
X-3725233Y7803762D01*
X-3665193Y7605836D01*
X-3644920Y7400000D01*
X-3665193Y7194164D01*
X-3718226Y7019336D01*
X-3725234Y6996235D01*
X-3822732Y6813830D01*
X-3953945Y6653945D01*
X-4113830Y6522732D01*
X-4296235Y6425234D01*
X-4296238Y6425233D01*
X-4494164Y6365193D01*
X-4571293Y6357597D01*
X-4648420Y6350000D01*
X-4751580Y6350000D01*
X-4828707Y6357596D01*
X-4905836Y6365193D01*
X-5103762Y6425233D01*
X-5103765Y6425234D01*
X-5286170Y6522732D01*
X-5446055Y6653945D01*
X-5577268Y6813830D01*
X-5674766Y6996235D01*
X-5681774Y7019336D01*
X-5734807Y7194164D01*
X-5755080Y7400000D01*
X-5734807Y7605836D01*
X-5674767Y7803762D01*
X-5674766Y7803765D01*
X-5577268Y7986170D01*
X-5446055Y8146055D01*
X-5286170Y8277268D01*
X-5103765Y8374766D01*
X-5103762Y8374767D01*
X-4905836Y8434807D01*
X-4828707Y8442403D01*
X-4751580Y8450000D01*
X-4648420Y8450000D01*
X-4571293Y8442403D01*
X-4571293Y8442403D01*
G37*
G36*
X508707Y8442403D02*
G01*
X585836Y8434807D01*
X783762Y8374767D01*
X783765Y8374766D01*
X966170Y8277268D01*
X1126055Y8146055D01*
X1257268Y7986170D01*
X1354766Y7803765D01*
X1354767Y7803762D01*
X1414807Y7605836D01*
X1435080Y7400000D01*
X1414807Y7194164D01*
X1361774Y7019336D01*
X1354766Y6996235D01*
X1257268Y6813830D01*
X1126055Y6653945D01*
X966170Y6522732D01*
X783765Y6425234D01*
X783762Y6425233D01*
X585836Y6365193D01*
X508707Y6357596D01*
X431580Y6350000D01*
X328420Y6350000D01*
X251293Y6357596D01*
X174164Y6365193D01*
X-23762Y6425233D01*
X-23765Y6425234D01*
X-206170Y6522732D01*
X-366055Y6653945D01*
X-497268Y6813830D01*
X-594766Y6996235D01*
X-601774Y7019336D01*
X-654807Y7194164D01*
X-675080Y7400000D01*
X-654807Y7605836D01*
X-594767Y7803762D01*
X-594766Y7803765D01*
X-497268Y7986170D01*
X-366055Y8146055D01*
X-206170Y8277268D01*
X-23765Y8374766D01*
X-23762Y8374767D01*
X174164Y8434807D01*
X251293Y8442403D01*
X328420Y8450000D01*
X431580Y8450000D01*
X508707Y8442403D01*
X508707Y8442403D01*
G37*
G36*
X5588707Y8442403D02*
G01*
X5665836Y8434807D01*
X5863762Y8374767D01*
X5863765Y8374766D01*
X6046170Y8277268D01*
X6206055Y8146055D01*
X6337268Y7986170D01*
X6434766Y7803765D01*
X6434767Y7803762D01*
X6494807Y7605836D01*
X6515080Y7400000D01*
X6494807Y7194164D01*
X6441774Y7019336D01*
X6434766Y6996235D01*
X6337268Y6813830D01*
X6206055Y6653945D01*
X6046170Y6522732D01*
X5863765Y6425234D01*
X5863762Y6425233D01*
X5665836Y6365193D01*
X5588707Y6357596D01*
X5511580Y6350000D01*
X5408420Y6350000D01*
X5331293Y6357597D01*
X5254164Y6365193D01*
X5056238Y6425233D01*
X5056235Y6425234D01*
X4873830Y6522732D01*
X4713945Y6653945D01*
X4582732Y6813830D01*
X4485234Y6996235D01*
X4478226Y7019336D01*
X4425193Y7194164D01*
X4404920Y7400000D01*
X4425193Y7605836D01*
X4485233Y7803762D01*
X4485234Y7803765D01*
X4582732Y7986170D01*
X4713945Y8146055D01*
X4873830Y8277268D01*
X5056235Y8374766D01*
X5056238Y8374767D01*
X5254164Y8434807D01*
X5331293Y8442403D01*
X5408420Y8450000D01*
X5511580Y8450000D01*
X5588707Y8442403D01*
X5588707Y8442403D01*
G37*
G36*
X-2031313Y8444973D02*
G01*
X-1853726Y8409650D01*
X-1662638Y8330498D01*
X-1490664Y8215589D01*
X-1344411Y8069336D01*
X-1229502Y7897362D01*
X-1150350Y7706274D01*
X-1110000Y7503416D01*
X-1110000Y7296584D01*
X-1150350Y7093726D01*
X-1229502Y6902638D01*
X-1344411Y6730664D01*
X-1490664Y6584411D01*
X-1662638Y6469502D01*
X-1853726Y6390350D01*
X-2031313Y6355027D01*
X-2056583Y6350000D01*
X-2263417Y6350000D01*
X-2288687Y6355027D01*
X-2466274Y6390350D01*
X-2657362Y6469502D01*
X-2829336Y6584411D01*
X-2975589Y6730664D01*
X-3090498Y6902638D01*
X-3169650Y7093726D01*
X-3210000Y7296584D01*
X-3210000Y7503416D01*
X-3169650Y7706274D01*
X-3090498Y7897362D01*
X-2975589Y8069336D01*
X-2829336Y8215589D01*
X-2657362Y8330498D01*
X-2466274Y8409650D01*
X-2288687Y8444973D01*
X-2263417Y8450000D01*
X-2056583Y8450000D01*
X-2031313Y8444973D01*
X-2031313Y8444973D01*
G37*
G36*
X-11522842Y16721262D02*
G01*
X-10913182Y16468732D01*
X-10913180Y16468731D01*
X-10502264Y16194166D01*
X-10364500Y16102115D01*
X-9897885Y15635500D01*
X-9531268Y15086818D01*
X-9278738Y14477158D01*
X-9150000Y13829948D01*
X-9150000Y13170052D01*
X-9278738Y12522842D01*
X-9521458Y11936866D01*
X-9531269Y11913180D01*
X-9897885Y11364500D01*
X-10364500Y10897885D01*
X-10913180Y10531269D01*
X-10913181Y10531268D01*
X-10913182Y10531268D01*
X-11522842Y10278738D01*
X-12170052Y10150000D01*
X-12829948Y10150000D01*
X-13477158Y10278738D01*
X-14086818Y10531268D01*
X-14086819Y10531268D01*
X-14086820Y10531269D01*
X-14635500Y10897885D01*
X-15102115Y11364500D01*
X-15468731Y11913180D01*
X-15478542Y11936866D01*
X-15721262Y12522842D01*
X-15850000Y13170052D01*
X-15850000Y13829948D01*
X-15721262Y14477158D01*
X-15468732Y15086818D01*
X-15102115Y15635500D01*
X-14635500Y16102115D01*
X-14497736Y16194166D01*
X-14086820Y16468731D01*
X-14086818Y16468732D01*
X-13477158Y16721262D01*
X-12829948Y16850000D01*
X-12170052Y16850000D01*
X-11522842Y16721262D01*
X-11522842Y16721262D01*
G37*
G36*
X13143798Y16736591D02*
G01*
X13462574Y16673183D01*
X13887234Y16497283D01*
X14025528Y16440000D01*
X14063136Y16424422D01*
X14603627Y16063277D01*
X15063277Y15603627D01*
X15195867Y15405193D01*
X15424423Y15063134D01*
X15477578Y14934807D01*
X15667142Y14477159D01*
X15673183Y14462573D01*
X15800000Y13825023D01*
X15800000Y13174977D01*
X15795816Y13153945D01*
X15673183Y12537426D01*
X15424422Y11936864D01*
X15063277Y11396373D01*
X14603627Y10936723D01*
X14063136Y10575578D01*
X13462574Y10326817D01*
X13143798Y10263409D01*
X12825023Y10200000D01*
X12174977Y10200000D01*
X11856202Y10263409D01*
X11537426Y10326817D01*
X10936864Y10575578D01*
X10396373Y10936723D01*
X9936723Y11396373D01*
X9575578Y11936864D01*
X9326817Y12537426D01*
X9204184Y13153945D01*
X9200000Y13174977D01*
X9200000Y13825023D01*
X9326817Y14462573D01*
X9332859Y14477159D01*
X9522422Y14934807D01*
X9575577Y15063134D01*
X9804134Y15405193D01*
X9936723Y15603627D01*
X10396373Y16063277D01*
X10936864Y16424422D01*
X10974473Y16440000D01*
X11112766Y16497283D01*
X11537426Y16673183D01*
X11856202Y16736591D01*
X12174977Y16800000D01*
X12825023Y16800000D01*
X13143798Y16736591D01*
X13143798Y16736591D01*
G37*
G36*
X1468707Y14902403D02*
G01*
X1545836Y14894807D01*
X1743762Y14834767D01*
X1743765Y14834766D01*
X1926170Y14737268D01*
X2086055Y14606055D01*
X2217268Y14446170D01*
X2314766Y14263765D01*
X2314767Y14263762D01*
X2374807Y14065836D01*
X2395080Y13860000D01*
X2374807Y13654164D01*
X2326901Y13496238D01*
X2314766Y13456235D01*
X2217268Y13273830D01*
X2086055Y13113945D01*
X1926170Y12982732D01*
X1743765Y12885234D01*
X1743762Y12885233D01*
X1545836Y12825193D01*
X1468707Y12817597D01*
X1391580Y12810000D01*
X1288420Y12810000D01*
X1211293Y12817597D01*
X1134164Y12825193D01*
X936238Y12885233D01*
X936235Y12885234D01*
X753830Y12982732D01*
X593945Y13113945D01*
X462732Y13273830D01*
X365234Y13456235D01*
X353099Y13496238D01*
X305193Y13654164D01*
X284920Y13860000D01*
X305193Y14065836D01*
X365233Y14263762D01*
X365234Y14263765D01*
X462732Y14446170D01*
X593945Y14606055D01*
X753830Y14737268D01*
X936235Y14834766D01*
X936238Y14834767D01*
X1134164Y14894807D01*
X1211293Y14902403D01*
X1288420Y14910000D01*
X1391580Y14910000D01*
X1468707Y14902403D01*
X1468707Y14902403D01*
G37*
G36*
X-4631293Y14902403D02*
G01*
X-4554164Y14894807D01*
X-4356238Y14834767D01*
X-4356235Y14834766D01*
X-4173830Y14737268D01*
X-4013945Y14606055D01*
X-3882732Y14446170D01*
X-3785234Y14263765D01*
X-3785233Y14263762D01*
X-3725193Y14065836D01*
X-3704920Y13860000D01*
X-3725193Y13654164D01*
X-3773099Y13496238D01*
X-3785234Y13456235D01*
X-3882732Y13273830D01*
X-4013945Y13113945D01*
X-4173830Y12982732D01*
X-4356235Y12885234D01*
X-4356238Y12885233D01*
X-4554164Y12825193D01*
X-4631293Y12817596D01*
X-4708420Y12810000D01*
X-4811580Y12810000D01*
X-4888707Y12817597D01*
X-4965836Y12825193D01*
X-5163762Y12885233D01*
X-5163765Y12885234D01*
X-5346170Y12982732D01*
X-5506055Y13113945D01*
X-5637268Y13273830D01*
X-5734766Y13456235D01*
X-5746901Y13496238D01*
X-5794807Y13654164D01*
X-5815080Y13860000D01*
X-5794807Y14065836D01*
X-5734767Y14263762D01*
X-5734766Y14263765D01*
X-5637268Y14446170D01*
X-5506055Y14606055D01*
X-5346170Y14737268D01*
X-5163765Y14834766D01*
X-5163762Y14834767D01*
X-4965836Y14894807D01*
X-4888707Y14902403D01*
X-4811580Y14910000D01*
X-4708420Y14910000D01*
X-4631293Y14902403D01*
X-4631293Y14902403D01*
G37*
G36*
X-1071293Y14902403D02*
G01*
X-994164Y14894807D01*
X-796238Y14834767D01*
X-796235Y14834766D01*
X-613830Y14737268D01*
X-453945Y14606055D01*
X-322732Y14446170D01*
X-225234Y14263765D01*
X-225233Y14263762D01*
X-165193Y14065836D01*
X-144920Y13860000D01*
X-165193Y13654164D01*
X-213099Y13496238D01*
X-225234Y13456235D01*
X-322732Y13273830D01*
X-453945Y13113945D01*
X-613830Y12982732D01*
X-796235Y12885234D01*
X-796238Y12885233D01*
X-994164Y12825193D01*
X-1071293Y12817597D01*
X-1148420Y12810000D01*
X-1251580Y12810000D01*
X-1328707Y12817597D01*
X-1405836Y12825193D01*
X-1603762Y12885233D01*
X-1603765Y12885234D01*
X-1786170Y12982732D01*
X-1946055Y13113945D01*
X-2077268Y13273830D01*
X-2174766Y13456235D01*
X-2186901Y13496238D01*
X-2234807Y13654164D01*
X-2255080Y13860000D01*
X-2234807Y14065836D01*
X-2174767Y14263762D01*
X-2174766Y14263765D01*
X-2077268Y14446170D01*
X-1946055Y14606055D01*
X-1786170Y14737268D01*
X-1603765Y14834766D01*
X-1603762Y14834767D01*
X-1405836Y14894807D01*
X-1328707Y14902403D01*
X-1251580Y14910000D01*
X-1148420Y14910000D01*
X-1071293Y14902403D01*
X-1071293Y14902403D01*
G37*
G36*
X-7171293Y14902403D02*
G01*
X-7094164Y14894807D01*
X-6896238Y14834767D01*
X-6896235Y14834766D01*
X-6713830Y14737268D01*
X-6553945Y14606055D01*
X-6422732Y14446170D01*
X-6325234Y14263765D01*
X-6325233Y14263762D01*
X-6265193Y14065836D01*
X-6244920Y13860000D01*
X-6265193Y13654164D01*
X-6313099Y13496238D01*
X-6325234Y13456235D01*
X-6422732Y13273830D01*
X-6553945Y13113945D01*
X-6713830Y12982732D01*
X-6896235Y12885234D01*
X-6896238Y12885233D01*
X-7094164Y12825193D01*
X-7171293Y12817596D01*
X-7248420Y12810000D01*
X-7351580Y12810000D01*
X-7428707Y12817597D01*
X-7505836Y12825193D01*
X-7703762Y12885233D01*
X-7703765Y12885234D01*
X-7886170Y12982732D01*
X-8046055Y13113945D01*
X-8177268Y13273830D01*
X-8274766Y13456235D01*
X-8286901Y13496238D01*
X-8334807Y13654164D01*
X-8355080Y13860000D01*
X-8334807Y14065836D01*
X-8274767Y14263762D01*
X-8274766Y14263765D01*
X-8177268Y14446170D01*
X-8046055Y14606055D01*
X-7886170Y14737268D01*
X-7703765Y14834766D01*
X-7703762Y14834767D01*
X-7505836Y14894807D01*
X-7428707Y14902403D01*
X-7351580Y14910000D01*
X-7248420Y14910000D01*
X-7171293Y14902403D01*
X-7171293Y14902403D01*
G37*
G36*
X4988707Y14942403D02*
G01*
X5065836Y14934807D01*
X5263762Y14874767D01*
X5263765Y14874766D01*
X5446170Y14777268D01*
X5606055Y14646055D01*
X5737268Y14486170D01*
X5834766Y14303765D01*
X5834767Y14303762D01*
X5894807Y14105836D01*
X5915080Y13900000D01*
X5894807Y13694164D01*
X5882673Y13654164D01*
X5834766Y13496235D01*
X5737268Y13313830D01*
X5606055Y13153945D01*
X5446170Y13022732D01*
X5263765Y12925234D01*
X5263762Y12925233D01*
X5065836Y12865193D01*
X4988707Y12857596D01*
X4911580Y12850000D01*
X4808420Y12850000D01*
X4731293Y12857597D01*
X4654164Y12865193D01*
X4456238Y12925233D01*
X4456235Y12925234D01*
X4273830Y13022732D01*
X4113945Y13153945D01*
X3982732Y13313830D01*
X3885234Y13496235D01*
X3837327Y13654164D01*
X3825193Y13694164D01*
X3804920Y13900000D01*
X3825193Y14105836D01*
X3885233Y14303762D01*
X3885234Y14303765D01*
X3982732Y14486170D01*
X4113945Y14646055D01*
X4273830Y14777268D01*
X4456235Y14874766D01*
X4456238Y14874767D01*
X4654164Y14934807D01*
X4731293Y14942403D01*
X4808420Y14950000D01*
X4911580Y14950000D01*
X4988707Y14942403D01*
X4988707Y14942403D01*
G37*
G36*
X7528707Y14942403D02*
G01*
X7605836Y14934807D01*
X7803762Y14874767D01*
X7803765Y14874766D01*
X7986170Y14777268D01*
X8146055Y14646055D01*
X8277268Y14486170D01*
X8374766Y14303765D01*
X8374767Y14303762D01*
X8434807Y14105836D01*
X8455080Y13900000D01*
X8434807Y13694164D01*
X8422673Y13654164D01*
X8374766Y13496235D01*
X8277268Y13313830D01*
X8146055Y13153945D01*
X7986170Y13022732D01*
X7803765Y12925234D01*
X7803762Y12925233D01*
X7605836Y12865193D01*
X7528707Y12857596D01*
X7451580Y12850000D01*
X7348420Y12850000D01*
X7271293Y12857597D01*
X7194164Y12865193D01*
X6996238Y12925233D01*
X6996235Y12925234D01*
X6813830Y13022732D01*
X6653945Y13153945D01*
X6522732Y13313830D01*
X6425234Y13496235D01*
X6377327Y13654164D01*
X6365193Y13694164D01*
X6344920Y13900000D01*
X6365193Y14105836D01*
X6425233Y14303762D01*
X6425234Y14303765D01*
X6522732Y14486170D01*
X6653945Y14646055D01*
X6813830Y14777268D01*
X6996235Y14874766D01*
X6996238Y14874767D01*
X7194164Y14934807D01*
X7271293Y14942403D01*
X7348420Y14950000D01*
X7451580Y14950000D01*
X7528707Y14942403D01*
X7528707Y14942403D01*
G37*
G36*
X-6250000Y15350000D02*
G01*
X-8350000Y15350000D01*
X-8350000Y17450000D01*
X-6250000Y17450000D01*
X-6250000Y15350000D01*
X-6250000Y15350000D01*
G37*
G36*
X-4631293Y17442404D02*
G01*
X-4554164Y17434807D01*
X-4356238Y17374767D01*
X-4356235Y17374766D01*
X-4173830Y17277268D01*
X-4013945Y17146055D01*
X-3882732Y16986170D01*
X-3785234Y16803765D01*
X-3785233Y16803762D01*
X-3725193Y16605836D01*
X-3704920Y16400000D01*
X-3725193Y16194164D01*
X-3753116Y16102115D01*
X-3785234Y15996235D01*
X-3882732Y15813830D01*
X-4013945Y15653945D01*
X-4173830Y15522732D01*
X-4356235Y15425234D01*
X-4356238Y15425233D01*
X-4554164Y15365193D01*
X-4631293Y15357597D01*
X-4708420Y15350000D01*
X-4811580Y15350000D01*
X-4888707Y15357597D01*
X-4965836Y15365193D01*
X-5163762Y15425233D01*
X-5163765Y15425234D01*
X-5346170Y15522732D01*
X-5506055Y15653945D01*
X-5637268Y15813830D01*
X-5734766Y15996235D01*
X-5766884Y16102115D01*
X-5794807Y16194164D01*
X-5815080Y16400000D01*
X-5794807Y16605836D01*
X-5734767Y16803762D01*
X-5734766Y16803765D01*
X-5637268Y16986170D01*
X-5506055Y17146055D01*
X-5346170Y17277268D01*
X-5163765Y17374766D01*
X-5163762Y17374767D01*
X-4965836Y17434807D01*
X-4888707Y17442404D01*
X-4811580Y17450000D01*
X-4708420Y17450000D01*
X-4631293Y17442404D01*
X-4631293Y17442404D01*
G37*
G36*
X1468707Y17442404D02*
G01*
X1545836Y17434807D01*
X1743762Y17374767D01*
X1743765Y17374766D01*
X1926170Y17277268D01*
X2086055Y17146055D01*
X2217268Y16986170D01*
X2314766Y16803765D01*
X2314767Y16803762D01*
X2374807Y16605836D01*
X2395080Y16400000D01*
X2374807Y16194164D01*
X2346884Y16102115D01*
X2314766Y15996235D01*
X2217268Y15813830D01*
X2086055Y15653945D01*
X1926170Y15522732D01*
X1743765Y15425234D01*
X1743762Y15425233D01*
X1545836Y15365193D01*
X1468707Y15357597D01*
X1391580Y15350000D01*
X1288420Y15350000D01*
X1211293Y15357597D01*
X1134164Y15365193D01*
X936238Y15425233D01*
X936235Y15425234D01*
X753830Y15522732D01*
X593945Y15653945D01*
X462732Y15813830D01*
X365234Y15996235D01*
X333116Y16102115D01*
X305193Y16194164D01*
X284920Y16400000D01*
X305193Y16605836D01*
X365233Y16803762D01*
X365234Y16803765D01*
X462732Y16986170D01*
X593945Y17146055D01*
X753830Y17277268D01*
X936235Y17374766D01*
X936238Y17374767D01*
X1134164Y17434807D01*
X1211293Y17442404D01*
X1288420Y17450000D01*
X1391580Y17450000D01*
X1468707Y17442404D01*
X1468707Y17442404D01*
G37*
G36*
X-150000Y15350000D02*
G01*
X-2250000Y15350000D01*
X-2250000Y17450000D01*
X-150000Y17450000D01*
X-150000Y15350000D01*
X-150000Y15350000D01*
G37*
G36*
X7528707Y17482404D02*
G01*
X7605836Y17474807D01*
X7803762Y17414767D01*
X7803765Y17414766D01*
X7986170Y17317268D01*
X8146055Y17186055D01*
X8277268Y17026170D01*
X8374766Y16843765D01*
X8374767Y16843762D01*
X8434807Y16645836D01*
X8455080Y16440000D01*
X8434807Y16234164D01*
X8382969Y16063277D01*
X8374766Y16036235D01*
X8277268Y15853830D01*
X8146055Y15693945D01*
X7986170Y15562732D01*
X7803765Y15465234D01*
X7803762Y15465233D01*
X7605836Y15405193D01*
X7528707Y15397597D01*
X7451580Y15390000D01*
X7348420Y15390000D01*
X7271293Y15397597D01*
X7194164Y15405193D01*
X6996238Y15465233D01*
X6996235Y15465234D01*
X6813830Y15562732D01*
X6653945Y15693945D01*
X6522732Y15853830D01*
X6425234Y16036235D01*
X6417031Y16063277D01*
X6365193Y16234164D01*
X6344920Y16440000D01*
X6365193Y16645836D01*
X6425233Y16843762D01*
X6425234Y16843765D01*
X6522732Y17026170D01*
X6653945Y17186055D01*
X6813830Y17317268D01*
X6996235Y17414766D01*
X6996238Y17414767D01*
X7194164Y17474807D01*
X7271293Y17482404D01*
X7348420Y17490000D01*
X7451580Y17490000D01*
X7528707Y17482404D01*
X7528707Y17482404D01*
G37*
G36*
X5910000Y15390000D02*
G01*
X3810000Y15390000D01*
X3810000Y17490000D01*
X5910000Y17490000D01*
X5910000Y15390000D01*
X5910000Y15390000D01*
G37*
M02*
