M48
; DRILL file {KiCad (5.1.0)-1} date 21-Jun-19 14:45:23
; FORMAT={-:-/ absolute / metric / decimal}
; #@! TF.CreationDate,2019-06-21T14:45:23-03:00
; #@! TF.GenerationSoftware,Kicad,Pcbnew,(5.1.0)-1
; #@! TF.FileFunction,Plated,1,2,PTH
FMAT,2
METRIC
T1C0.400
T2C0.800
T3C1.000
T4C3.200
%
G90
G05
T1
X-13.0Y8.25
X-6.5Y10.0
T2
X-20.8Y6.35
X-20.8Y3.81
X-20.8Y1.27
X-20.8Y-1.27
X-20.8Y-3.81
X-20.8Y-6.35
X-18.1Y5.08
X-18.1Y2.54
X-18.1Y0.0
X-18.1Y-2.54
X-18.1Y-5.08
X-18.1Y-7.62
X18.1Y5.08
X18.1Y2.54
X18.1Y0.0
X18.1Y-2.54
X18.1Y-5.08
X18.1Y-7.62
X20.8Y6.35
X20.8Y3.81
X20.8Y1.27
X20.8Y-1.27
X20.8Y-3.81
X20.8Y-6.35
T3
X-1.2Y16.4
X-1.2Y13.86
X1.34Y16.4
X1.34Y13.86
X-13.5Y6.35
X-13.5Y3.81
X-13.5Y1.27
X-13.5Y-1.27
X-13.5Y-3.81
X-13.5Y-6.35
X5.46Y7.4
X5.46Y4.86
X5.46Y2.32
X5.46Y-0.22
X5.46Y-2.76
X5.46Y-5.3
X5.46Y-7.84
X5.46Y-10.38
X5.46Y-12.92
X5.46Y-15.46
X8.0Y7.4
X8.0Y4.86
X8.0Y2.32
X8.0Y-0.22
X8.0Y-2.76
X8.0Y-5.3
X8.0Y-7.84
X8.0Y-10.38
X8.0Y-12.92
X8.0Y-15.46
X-12.32Y-10.405
X-12.32Y-12.945
X-12.32Y-15.485
X-4.7Y7.4
X-4.7Y4.86
X-4.7Y2.32
X-4.7Y-0.22
X-4.7Y-2.76
X-4.7Y-5.3
X-4.7Y-7.84
X-4.7Y-10.38
X-4.7Y-12.92
X-4.7Y-15.46
X-2.16Y7.4
X-2.16Y4.86
X-2.16Y2.32
X-2.16Y-0.22
X-2.16Y-2.76
X-2.16Y-5.3
X-2.16Y-7.84
X-2.16Y-10.38
X-2.16Y-12.92
X-2.16Y-15.46
X10.54Y-10.405
X10.54Y-12.945
X10.54Y-15.485
X13.08Y-10.405
X13.08Y-12.945
X13.08Y-15.485
X-9.78Y7.375
X-9.78Y4.835
X-9.78Y2.295
X-9.78Y-0.245
X-9.78Y-2.785
X-9.78Y-5.325
X-9.78Y-7.865
X-9.78Y-10.405
X-9.78Y-12.945
X-9.78Y-15.485
X-7.24Y7.375
X-7.24Y4.835
X-7.24Y2.295
X-7.24Y-0.245
X-7.24Y-2.785
X-7.24Y-5.325
X-7.24Y-7.865
X-7.24Y-10.405
X-7.24Y-12.945
X-7.24Y-15.485
X11.7Y5.1
X11.7Y2.56
X11.7Y0.02
X11.7Y-2.52
X11.7Y-5.06
X11.7Y-7.6
X14.5Y6.37
X14.5Y3.83
X14.5Y1.29
X14.5Y-1.25
X14.5Y-3.79
X14.5Y-6.33
X-7.3Y16.4
X-7.3Y13.86
X-4.76Y16.4
X-4.76Y13.86
X4.86Y16.44
X4.86Y13.9
X7.4Y16.44
X7.4Y13.9
X-14.86Y-10.405
X-14.86Y-12.945
X-14.86Y-15.485
X0.38Y7.4
X0.38Y4.86
X0.38Y2.32
X0.38Y-0.22
X0.38Y-2.76
X0.38Y-5.3
X0.38Y-7.84
X0.38Y-10.38
X0.38Y-12.92
X0.38Y-15.46
X2.92Y7.4
X2.92Y4.86
X2.92Y2.32
X2.92Y-0.22
X2.92Y-2.76
X2.92Y-5.3
X2.92Y-7.84
X2.92Y-10.38
X2.92Y-12.92
X2.92Y-15.46
T4
X-12.5Y13.5
X0.0Y-20.2
X12.5Y13.5
T0
M30
